<svg width="30" height="30" viewBox="0 0 30 30" fill="none" xmlns="http://www.w3.org/2000/svg">
<g clip-path="url(#clip0_3147_2283)">
<path d="M9.09883 5.33462L9.11353 5.3567L12.1182 9.90684L15.5263 14.4729L22.7053 23.0239C23.4395 23.8991 23.3247 25.2042 22.4497 25.9385C21.5746 26.6725 20.27 26.5585 19.5357 25.6836L19.52 25.6649L19.5065 25.6443L13.064 16.1235L5.91925 7.98093L5.91234 7.9727C5.17802 7.09757 5.29222 5.7931 6.16728 5.05873C7.04245 4.32438 8.3469 4.4385 9.08125 5.31367L9.09883 5.33462Z" fill="#DF0586" stroke="#DF0586" stroke-width="0.948011"/>
<path d="M23.4499 8.50246L23.4356 8.51726L15.4923 16.1554L8.05911 24.6714L8.05847 24.6721C7.30659 25.5321 5.99933 25.6194 5.13921 24.8676C4.27936 24.1158 4.1915 22.8092 4.94309 21.9491L4.96044 21.9292L4.97936 21.912L13.434 14.1371L20.3404 5.77419L20.3487 5.76463C21.1005 4.90448 22.4071 4.81676 23.2672 5.5685C24.1274 6.32035 24.2152 7.62684 23.4634 8.48702L23.4499 8.50246Z" fill="#DF0586" stroke="#DF0586" stroke-width="0.948011"/>
</g>
<defs>
<clipPath id="clip0_3147_2283">
<rect width="29.2886" height="29.2886" rx="3.07901" fill="white"/>
</clipPath>
</defs>
</svg>
