<svg width="136" height="37" viewBox="0 0 136 37" fill="none" xmlns="http://www.w3.org/2000/svg">
<path d="M51.7646 30.2226C45.2131 30.2226 43.5911 26.1836 43.5911 21.8265C43.5911 17.4694 45.2449 13.4939 51.7328 13.4939C57.7437 13.4939 59.4293 18.0736 59.0159 23.194H47.1213C47.3121 25.9927 48.7115 27.6147 51.6374 27.6147C54.3407 27.6147 55.1994 26.3108 55.5175 25.0068H59.0795C58.7932 27.7737 56.885 30.2226 51.7646 30.2226ZM47.1531 20.4907H55.5175V20.4271C55.5493 18.2008 54.4997 16.1336 51.4148 16.1336C48.2344 16.1336 47.3121 18.1054 47.1531 20.4907ZM69.8962 30H66.0161L59.4328 13.7165H63.1538L67.988 27.1377L72.9493 13.7165H76.7976L69.8962 30ZM85.0856 30.2226C78.6931 30.2226 77.0393 26.1836 77.0393 21.8583C77.0393 17.5648 78.7249 13.4939 85.1174 13.4939C91.4464 13.4939 93.1956 17.5648 93.1956 21.8583C93.1956 26.2154 91.4464 30.2226 85.0856 30.2226ZM85.0856 27.4557C88.9021 27.4557 89.729 25.0068 89.729 21.8583C89.729 18.8369 88.9657 16.2608 85.1174 16.2608C81.3328 16.2608 80.5059 18.8051 80.5059 21.8583C80.5059 24.9432 81.3328 27.4557 85.0856 27.4557ZM99.2785 30H95.8755V7.51483H99.2785V30ZM111.235 30H107.355L100.771 13.7165H104.492L109.326 27.1377L114.288 13.7165H118.136L111.235 30ZM126.615 30.2226C120.063 30.2226 118.441 26.1836 118.441 21.8265C118.441 17.4694 120.095 13.4939 126.583 13.4939C132.594 13.4939 134.28 18.0736 133.866 23.194H121.972C122.162 25.9927 123.562 27.6147 126.488 27.6147C129.191 27.6147 130.05 26.3108 130.368 25.0068H133.93C133.644 27.7737 131.735 30.2226 126.615 30.2226ZM122.003 20.4907H130.368V20.4271C130.4 18.2008 129.35 16.1336 126.265 16.1336C123.085 16.1336 122.162 18.1054 122.003 20.4907Z" fill="#161616"/>
<path d="M34.3789 32.7061H16.1895C18.6992 31.1943 19.8166 28.9103 20.084 26.4795H12.5488C12.237 27.9628 10.9371 29.2979 7.71484 29.2979C4.59659 29.2978 2.20595 27.7654 1.99805 24.1562H20.0322C20.8118 16.1466 17.7976 8.43363 7.66309 8.43359C4.36285 8.43359 1.86984 9.06695 -0.000976562 10.127V0H34.3789V32.7061ZM7.29883 13.7236C11.0928 13.7236 12.6002 15.7017 12.7041 18.9648H1.99805C2.15396 15.7018 3.71301 13.7238 7.29883 13.7236Z" fill="#161616"/>
</svg>
