<svg width="379" height="96" viewBox="0 0 379 96" fill="none" xmlns="http://www.w3.org/2000/svg">
<path d="M64.8196 73.2049C64.1097 79.6824 61.3146 84.962 56.4343 89.0438C51.6427 93.0368 44.2335 95.0333 34.2066 95.0333C11.4022 95.0333 1.00887e-06 83.3205 1.00887e-06 59.8949C1.00887e-06 36.6468 11.3578 25.0228 34.0735 25.0228C38.9539 25.0228 43.2574 25.777 46.9842 27.2855C50.7997 28.7052 53.861 30.6573 56.1681 33.1419C58.5639 35.6264 60.4273 38.6433 61.7583 42.1927C63.178 45.6533 64.0653 49.3357 64.4203 53.2399C64.8639 57.0555 64.9083 61.1816 64.5534 65.6182H14.7741C15.5727 77.9521 21.8727 84.1191 33.6742 84.1191C42.725 84.1191 48.1377 80.481 49.9124 73.2049H64.8196ZM49.9124 54.0385C50.0011 48.892 48.6701 44.6328 45.9194 41.261C43.1687 37.8004 38.7764 36.0701 32.7425 36.0701C21.6509 36.0701 15.7058 42.1483 14.9072 54.3047H49.9124C50.0011 54.3047 50.0011 54.2604 49.9124 54.1716C50.0011 54.0829 50.0011 54.0385 49.9124 54.0385ZM138.971 25.9545L110.088 94.1016H93.8499L66.2982 25.9545H81.8709L102.102 82.1226L122.866 25.9545L138.971 25.9545ZM207.597 60.028C207.597 64.9084 207.065 69.345 206 73.338C204.935 77.2423 203.16 80.9247 200.676 84.3853C198.191 87.7571 194.642 90.3748 190.028 92.2382C185.503 94.1016 180.045 95.0333 173.657 95.0333C151.207 95.0333 139.982 83.3648 139.982 60.028C139.982 55.2364 140.515 50.8885 141.58 46.9843C142.644 42.9913 144.375 39.3088 146.771 35.937C149.166 32.4764 152.671 29.8144 157.285 27.951C161.9 25.9989 167.401 25.0228 173.79 25.0228C180.179 25.0228 185.636 25.9989 190.161 27.951C194.775 29.8144 198.28 32.4764 200.676 35.937C203.16 39.3088 204.935 42.9913 206 46.9843C207.065 50.8885 207.597 55.2364 207.597 60.028ZM193.089 60.028C193.089 52.7519 191.714 47.0286 188.963 42.8582C186.212 38.6877 181.155 36.6025 173.79 36.6025C166.514 36.6025 161.456 38.6877 158.616 42.8582C155.866 47.0286 154.49 52.7519 154.49 60.028C154.49 67.3929 155.866 73.1605 158.616 77.331C161.367 81.4127 166.381 83.4536 173.657 83.4536C181.022 83.4536 186.079 81.4127 188.83 77.331C191.67 73.2493 193.089 67.4816 193.089 60.028ZM233.055 94.1016H218.813V3.92954e-05H233.055V94.1016ZM311.974 25.9545L283.092 94.1016H266.854L239.302 25.9545H254.875L275.106 82.1226L295.869 25.9545H311.974ZM378.072 73.2049C377.362 79.6824 374.567 84.962 369.687 89.0438C364.895 93.0368 357.486 95.0333 347.459 95.0333C324.655 95.0333 313.252 83.3205 313.252 59.8949C313.252 36.6468 324.61 25.0228 347.326 25.0228C352.206 25.0228 356.51 25.777 360.237 27.2855C364.052 28.7052 367.113 30.6573 369.42 33.1419C371.816 35.6264 373.68 38.6433 375.011 42.1927C376.43 45.6533 377.318 49.3357 377.673 53.2399C378.116 57.0555 378.161 61.1816 377.806 65.6182H328.026C328.825 77.9521 335.125 84.1191 346.927 84.1191C355.977 84.1191 361.39 80.481 363.165 73.2049H378.072ZM363.165 54.0385C363.253 48.892 361.922 44.6328 359.172 41.261C356.421 37.8004 352.029 36.0701 345.995 36.0701C334.903 36.0701 328.958 42.1483 328.16 54.3047H363.165C363.253 54.3047 363.253 54.2604 363.165 54.1716C363.253 54.0829 363.253 54.0385 363.165 54.0385Z" fill="#FFD007"/>
</svg>
