<svg width="136" height="37" viewBox="0 0 136 37" fill="none" xmlns="http://www.w3.org/2000/svg">
<path d="M52.2549 30.2226C45.7033 30.2226 44.0813 26.1836 44.0813 21.8265C44.0813 17.4694 45.7351 13.4939 52.2231 13.4939C58.2339 13.4939 59.9195 18.0736 59.5061 23.194H47.6115C47.8023 25.9927 49.2017 27.6147 52.1276 27.6147C54.831 27.6147 55.6897 26.3108 56.0077 25.0068H59.5697C59.2835 27.7737 57.3752 30.2226 52.2549 30.2226ZM47.6433 20.4907H56.0077V20.4271C56.0395 18.2008 54.99 16.1336 51.905 16.1336C48.7247 16.1336 47.8023 18.1054 47.6433 20.4907ZM70.3864 30H66.5064L59.923 13.7165H63.644L68.4782 27.1377L73.4396 13.7165H77.2878L70.3864 30ZM85.5759 30.2226C79.1833 30.2226 77.5296 26.1836 77.5296 21.8583C77.5296 17.5648 79.2152 13.4939 85.6077 13.4939C91.9366 13.4939 93.6858 17.5648 93.6858 21.8583C93.6858 26.2154 91.9366 30.2226 85.5759 30.2226ZM85.5759 27.4557C89.3923 27.4557 90.2192 25.0068 90.2192 21.8583C90.2192 18.8369 89.4559 16.2608 85.6077 16.2608C81.823 16.2608 80.9962 18.8051 80.9962 21.8583C80.9962 24.9432 81.823 27.4557 85.5759 27.4557ZM99.7687 30H96.3658V7.51483H99.7687V30ZM111.725 30H107.845L101.262 13.7165H104.983L109.817 27.1377L114.778 13.7165H118.626L111.725 30ZM127.105 30.2226C120.554 30.2226 118.932 26.1836 118.932 21.8265C118.932 17.4694 120.585 13.4939 127.073 13.4939C133.084 13.4939 134.77 18.0736 134.356 23.194H122.462C122.653 25.9927 124.052 27.6147 126.978 27.6147C129.681 27.6147 130.54 26.3108 130.858 25.0068H134.42C134.134 27.7737 132.226 30.2226 127.105 30.2226ZM122.494 20.4907H130.858V20.4271C130.89 18.2008 129.84 16.1336 126.755 16.1336C123.575 16.1336 122.653 18.1054 122.494 20.4907Z" fill="white"/>
<path d="M34.3799 32.7061H16.1943C18.7039 31.1943 19.8215 28.9102 20.0889 26.4795H12.5527C12.2409 27.9627 10.9419 29.2978 7.71973 29.2979C4.60141 29.2979 2.21084 27.7655 2.00293 24.1562H20.0371C20.8167 16.1467 17.8023 8.43376 7.66797 8.43359C4.36536 8.43359 1.87127 9.0685 0 10.1299V0H34.3799V32.7061ZM7.30371 13.7236C11.0977 13.7236 12.605 15.7017 12.709 18.9648H2.00293C2.15884 15.7017 3.71772 13.7237 7.30371 13.7236Z" fill="white"/>
</svg>
