<svg width="68" height="68" viewBox="0 0 68 68" fill="none" xmlns="http://www.w3.org/2000/svg">
<path d="M34.2663 3.27033C37.8846 -2.35568 46.5617 -0.32392 47.3077 6.32141C47.777 10.507 51.7631 13.369 55.8799 12.4751C62.4153 11.0553 67.1165 18.6271 62.943 23.8543C60.3147 27.1461 61.1106 31.9883 64.6533 34.2658C70.2793 37.8841 68.2475 46.5612 61.6022 47.3072C57.4167 47.7765 54.5547 51.7626 55.4485 55.8795C56.8683 62.4148 49.2965 67.116 44.0693 62.9425C40.7776 60.3143 35.9354 61.1101 33.6578 64.6528C30.0395 70.2788 21.3624 68.247 20.6164 61.6017C20.1471 57.4162 16.161 54.5542 12.0442 55.448C5.50885 56.8678 0.80762 49.296 4.98115 44.0688C7.60937 40.7771 6.81351 35.9349 3.27083 33.6573C-2.35518 30.0407 -0.325145 21.3636 6.3219 20.6176C10.5075 20.1484 13.3695 16.1622 12.4756 12.0454C11.0558 5.50836 18.6276 0.808845 23.8548 4.98065C27.1466 7.60887 31.9887 6.81302 34.2663 3.27033Z" fill="#FFD007"/>
</svg>
