<svg width="631" height="750" viewBox="0 0 631 750" fill="none" xmlns="http://www.w3.org/2000/svg">
<g clip-path="url(#clip0_11877_117)">
<rect width="631" height="750" fill="#161616"/>
<g clip-path="url(#clip1_11877_117)">
<circle cx="312.989" cy="427.863" r="25.2079" stroke="#7A44BC" stroke-width="8.02443"/>
<circle cx="312.99" cy="427.864" r="53.3184" stroke="#7A44BC" stroke-width="8.02443"/>
<circle cx="313.359" cy="427.495" r="83.2783" stroke="#7A44BC" stroke-width="8.02443"/>
<circle cx="312.989" cy="427.866" r="115.457" stroke="#7A44BC" stroke-width="8.02443"/>
<circle cx="312.989" cy="427.865" r="145.047" stroke="#7A44BC" stroke-width="8.02443"/>
<circle opacity="0.66" cx="313.359" cy="427.497" r="177.226" stroke="#7A44BC" stroke-width="8.02443"/>
<circle opacity="0.47" cx="313.361" cy="427.496" r="208.296" stroke="#7A44BC" stroke-width="8.02443"/>
<circle opacity="0.38" cx="312.989" cy="427.867" r="242.694" stroke="#7A44BC" stroke-width="8.02443"/>
<circle opacity="0.11" cx="313.359" cy="427.497" r="279.312" stroke="#7A44BC" stroke-width="8.02443"/>
</g>
<rect x="251.017" y="192.936" width="127.156" height="350.606" fill="#FFD007"/>
<path d="M323.292 322.267L301.766 331.407L293.487 307.563L315.079 298.489L323.292 322.267Z" fill="#FFDC47" stroke="black" stroke-width="0.178112" stroke-linecap="round" stroke-linejoin="round"/>
<path d="M310.969 335.91L301.763 331.406L323.289 322.266L332.495 326.77L310.969 335.91Z" fill="#7A034A" stroke="black" stroke-width="0.178112" stroke-linecap="round" stroke-linejoin="round"/>
<path d="M332.496 326.77L324.217 302.993L315.077 298.489L323.29 322.267L332.496 326.77Z" fill="#A30462" stroke="black" stroke-width="0.178112" stroke-linecap="round" stroke-linejoin="round"/>
<path d="M301.766 331.083C301.942 331.113 302.122 331.139 302.306 331.157L301.859 331.345L301.766 331.083ZM323.321 322.35L312.337 326.953C313.506 325.393 313.668 323.693 313.279 322.1L308.451 323.953C308.6 324.986 308.081 326.166 306.016 326.959C304.019 327.726 302.128 327.325 301.147 325.049L312.7 320.614C311.32 315.258 307.578 311.027 301.086 313.519C299.001 314.319 297.565 315.325 296.615 316.45L293.489 307.569L315.128 298.484L323.321 322.35ZM302.095 317.019C304.526 316.086 305.956 316.991 306.788 319.07L299.929 321.702C299.263 319.56 299.798 317.901 302.095 317.019Z" fill="#DF0586"/>
<path d="M367.875 263.197C367.87 263.208 367.864 263.222 367.856 263.239C367.835 263.285 367.801 263.35 367.752 263.426C367.653 263.579 367.497 263.77 367.268 263.926C366.822 264.229 366.053 264.431 364.776 263.846C363.508 263.265 362.971 262.317 362.447 261.558C362.19 261.185 361.922 260.838 361.555 260.645C361.174 260.445 360.72 260.426 360.123 260.632C359.584 260.819 359.215 260.817 358.943 260.737C358.669 260.656 358.468 260.49 358.27 260.295C358.082 260.111 357.874 259.874 357.625 259.732C357.353 259.578 357.034 259.533 356.618 259.679C356.283 259.797 356.064 259.776 355.895 259.704C355.713 259.627 355.565 259.484 355.38 259.3C355.203 259.124 354.995 258.915 354.716 258.774C354.429 258.629 354.079 258.56 353.616 258.63C353.183 258.696 352.858 258.762 352.594 258.82C352.326 258.878 352.133 258.925 351.948 258.957C351.597 259.017 351.289 259.019 350.643 258.892C350.455 258.855 350.289 258.86 350.146 258.916C350.001 258.972 349.899 259.074 349.826 259.192C349.756 259.306 349.71 259.439 349.675 259.569C349.64 259.698 349.61 259.844 349.58 259.975C349.517 260.252 349.444 260.496 349.294 260.673C349.154 260.839 348.928 260.969 348.505 260.969C347.616 260.969 347.085 260.704 346.635 260.432C346.19 260.164 345.767 259.842 345.157 259.842C344.633 259.842 343.868 259.692 342.977 259.535C342.097 259.38 341.111 259.221 340.182 259.221C339.674 259.221 339.304 259.407 338.996 259.67C338.701 259.922 338.447 260.263 338.193 260.552C337.931 260.851 337.65 261.124 337.269 261.303C336.89 261.482 336.397 261.577 335.702 261.491C334.995 261.403 334.391 261.235 333.843 261.056C333.302 260.88 332.792 260.683 332.311 260.555C331.821 260.425 331.335 260.356 330.813 260.434C330.292 260.512 329.749 260.735 329.142 261.166C328.539 261.592 328.122 261.996 327.78 262.342C327.434 262.693 327.182 262.966 326.894 263.162C326.348 263.531 325.641 263.641 323.828 263.167C322.924 262.93 322.293 262.715 321.823 262.544C321.361 262.377 321.03 262.243 320.754 262.18C320.459 262.113 320.212 262.122 319.905 262.231C319.686 262.309 319.434 262.439 319.108 262.624L318.757 262.828C317.813 263.381 317.051 263.167 316.324 262.917C315.967 262.794 315.596 262.653 315.235 262.619C314.859 262.583 314.486 262.66 314.122 262.964C313.482 263.499 312.965 263.864 312.432 264.072C311.904 264.277 311.348 264.332 310.624 264.223C309.121 263.997 308.544 263.958 307.639 264.29C307.464 264.353 307.163 264.37 306.831 264.335C306.503 264.301 306.178 264.219 305.964 264.111C305.855 264.056 305.793 264.003 305.766 263.963C305.747 263.936 305.747 263.921 305.759 263.897C305.779 263.856 305.841 263.784 305.997 263.692C306.149 263.602 306.373 263.504 306.688 263.402C307.307 263.201 307.777 263.174 308.159 263.212C308.55 263.252 308.846 263.356 309.158 263.435C309.464 263.513 309.776 263.561 310.13 263.434C310.476 263.31 310.837 263.027 311.274 262.51C312.136 261.491 312.829 260.713 313.632 260.254C314.421 259.804 315.332 259.655 316.646 259.946C317.357 260.103 317.881 260.02 318.314 259.8C318.736 259.586 319.059 259.246 319.368 258.934C319.685 258.615 319.996 258.313 320.418 258.115C320.835 257.918 321.374 257.817 322.147 257.929C322.941 258.045 323.684 258.178 324.359 258.257C325.039 258.337 325.677 258.365 326.278 258.263C327.502 258.056 328.534 257.322 329.518 255.558C330.006 254.682 330.338 253.87 330.624 253.169C330.913 252.463 331.15 251.883 331.451 251.442C331.746 251.01 332.097 250.72 332.612 250.588C333.138 250.454 333.854 250.478 334.887 250.722C337.042 251.231 338.969 250.469 340.328 249.829C340.498 249.748 340.66 249.669 340.812 249.595C340.965 249.521 341.108 249.452 341.24 249.39C341.508 249.264 341.726 249.172 341.897 249.125C342.077 249.077 342.152 249.094 342.18 249.112C342.198 249.124 342.248 249.174 342.248 249.381C342.248 249.812 342.177 250.283 342.099 250.755C342.021 251.221 341.934 251.693 341.913 252.102C341.893 252.504 341.932 252.898 342.153 253.173C342.387 253.463 342.775 253.566 343.312 253.503C343.902 253.434 344.385 252.991 344.801 252.439C345.221 251.882 345.607 251.166 345.985 250.486C346.369 249.797 346.745 249.143 347.153 248.675C347.563 248.207 347.971 247.965 348.416 248.014C349.442 248.128 349.974 248.495 350.406 248.801C350.621 248.953 350.833 249.109 351.07 249.196C351.32 249.287 351.589 249.301 351.92 249.201C352.125 249.138 352.26 248.999 352.341 248.824C352.418 248.656 352.446 248.454 352.453 248.249C352.46 248.04 352.446 247.81 352.428 247.58C352.409 247.345 352.386 247.112 352.373 246.879C352.346 246.407 352.366 246.006 352.512 245.739C352.581 245.612 352.678 245.516 352.819 245.455C352.964 245.392 353.168 245.36 353.456 245.388C354.705 245.509 355.911 245.393 356.835 244.76C357.768 244.121 358.373 242.984 358.482 241.158C358.586 239.425 359.388 238.345 360.249 237.781C360.682 237.497 361.13 237.344 361.514 237.302C361.904 237.26 362.199 237.336 362.359 237.469C362.6 237.67 363.021 237.88 363.52 238.043C364.022 238.208 364.622 238.332 365.227 238.35C366.21 238.38 367.246 238.125 367.875 237.276V263.197Z" fill="#FFECE1" stroke="black" stroke-width="0.370358"/>
<path d="M259.773 347.286C260.557 346.807 261.649 346.482 262.926 347.065C264.203 347.649 264.695 348.74 265.079 349.737C265.267 350.225 265.436 350.713 265.666 351.07C265.905 351.442 266.23 351.704 266.729 351.704C267.591 351.704 268.726 351.593 269.742 352.017C270.729 352.43 271.629 353.367 271.943 355.552C272.109 356.701 272.51 357.428 273.044 357.902C273.574 358.372 274.214 358.573 274.816 358.71C274.967 358.744 275.118 358.775 275.264 358.805C275.41 358.834 275.551 358.862 275.688 358.892C275.964 358.954 276.211 359.021 276.425 359.117C276.637 359.212 276.809 359.333 276.94 359.496C277.071 359.658 277.169 359.875 277.213 360.175C277.261 360.499 277.298 360.808 277.334 361.1C277.37 361.393 277.404 361.671 277.443 361.931C277.522 362.447 277.627 362.91 277.826 363.295C278.029 363.686 278.328 363.992 278.784 364.195C279.233 364.395 279.825 364.492 280.608 364.492C281.386 364.492 282.123 364.444 282.789 364.4C283.458 364.357 284.051 364.32 284.554 364.339C285.059 364.358 285.446 364.433 285.718 364.597C285.977 364.752 286.15 364.997 286.208 365.411C286.242 365.655 286.305 365.85 286.414 365.987C286.532 366.136 286.689 366.197 286.859 366.199C287.018 366.201 287.188 366.151 287.356 366.087C287.527 366.022 287.717 365.933 287.914 365.843C288.716 365.477 289.741 365.051 290.946 365.557C292.151 366.062 292.31 366.931 292.764 367.838C292.989 368.288 293.285 368.729 293.828 369.074C294.367 369.417 295.132 369.652 296.274 369.73C298.548 369.886 299.692 369.613 300.473 369.437C300.862 369.35 301.132 369.295 301.403 369.318C301.669 369.341 301.953 369.441 302.355 369.701C303.189 370.239 303.759 370.565 304.339 370.708C304.925 370.852 305.503 370.807 306.345 370.652C307.152 370.503 308.124 370.543 308.955 370.724C309.37 370.814 309.744 370.938 310.042 371.087C310.343 371.238 310.549 371.405 310.651 371.573C310.731 371.704 310.841 371.807 310.996 371.827C311.138 371.845 311.269 371.785 311.378 371.721C311.49 371.654 311.614 371.557 311.745 371.455C311.879 371.35 312.028 371.234 312.2 371.114C312.878 370.643 313.925 370.122 315.669 370.346C317.475 370.578 319.298 370.658 320.886 370.344C322.476 370.029 323.846 369.316 324.717 367.951C324.916 367.638 325.105 367.457 325.254 367.372C325.404 367.286 325.479 367.312 325.506 367.332C325.541 367.358 325.597 367.441 325.584 367.639C325.571 367.83 325.494 368.094 325.314 368.415C324.594 369.701 322.305 371.762 316.798 373.374C311.282 374.989 309.141 374.783 308.103 374.454C307.842 374.371 307.646 374.279 307.475 374.199C307.309 374.122 307.145 374.045 306.974 374.018C306.601 373.961 306.252 374.146 305.676 374.644C304.545 375.624 303.452 376.109 302.203 376.296C300.946 376.484 299.523 376.372 297.725 376.141C295.883 375.905 294.852 376.261 293.96 376.677C293.078 377.088 292.381 377.526 291.146 377.526C289.86 377.526 288.043 377.526 286.276 377.24C284.505 376.953 282.821 376.383 281.771 375.273C281.241 374.713 280.841 374.065 280.492 373.432C280.149 372.808 279.845 372.176 279.526 371.692C279.207 371.208 278.838 370.815 278.331 370.709C277.822 370.603 277.237 370.799 276.516 371.328C275.02 372.425 275.088 373.973 274.979 375.182C274.922 375.801 274.824 376.321 274.51 376.719C274.201 377.109 273.654 377.415 272.621 377.527C270.596 377.748 269.206 376.541 268.035 375.329C267.46 374.734 266.925 374.123 266.41 373.729C265.889 373.331 265.332 373.11 264.726 373.383C264.257 373.593 263.82 373.582 263.447 373.427C263.07 373.27 262.746 372.96 262.521 372.557C262.072 371.749 262.042 370.596 262.764 369.658C263.167 369.134 263.277 368.655 263.104 368.281C262.933 367.911 262.524 367.734 262.092 367.724C261.216 367.702 260.079 368.341 259.738 369.811C259.419 371.191 259.035 372.457 258.73 373.378C258.671 373.558 258.614 373.724 258.562 373.876V348.348C258.574 348.333 258.589 348.314 258.606 348.293C258.662 348.227 258.744 348.132 258.852 348.023C259.067 347.805 259.38 347.526 259.773 347.286Z" fill="#FFECE1" stroke="black" stroke-width="0.370358"/>
<path d="M313.364 545.864L412.292 546.482L380.502 427.2L313.364 426.583V545.864Z" fill="#7A44BC"/>
<path d="M412.292 546.803H337.755C337.579 546.803 337.436 546.66 337.436 546.484V427.201C337.436 427.025 337.579 426.882 337.755 426.882H380.501C380.646 426.882 380.773 426.979 380.81 427.119L412.6 546.401C412.626 546.497 412.606 546.6 412.546 546.679C412.485 546.757 412.391 546.803 412.292 546.803ZM338.075 546.164H411.876L380.256 427.521H338.075V546.164Z" fill="#7A44BC"/>
<path d="M422.525 433.384H349.121V451.06H422.525V433.384Z" fill="#A35BFB"/>
<path d="M422.525 451.376H349.121C348.944 451.376 348.801 451.233 348.801 451.056V433.381C348.801 433.205 348.944 433.061 349.121 433.061H422.525C422.701 433.061 422.845 433.205 422.845 433.381V451.056C422.845 451.233 422.702 451.376 422.525 451.376ZM349.44 450.737H422.206V433.701H349.44V450.737Z" fill="#121519"/>
<path d="M433.882 457.241H360.478V474.916H433.882V457.241Z" fill="#A35BFB"/>
<path d="M433.883 475.232H360.478C360.302 475.232 360.159 475.089 360.159 474.913V457.237C360.159 457.061 360.302 456.918 360.478 456.918H433.883C434.059 456.918 434.202 457.061 434.202 457.237V474.913C434.202 475.09 434.059 475.232 433.883 475.232ZM360.798 474.593H433.563V457.557H360.798V474.593Z" fill="#121519"/>
<path d="M360.482 457.239H433.887L422.523 451.058H349.119L360.482 457.239Z" fill="#7A44BC"/>
<path d="M433.887 457.561H360.483C360.43 457.561 360.377 457.547 360.33 457.522L348.967 451.341C348.838 451.272 348.774 451.123 348.81 450.982C348.845 450.84 348.973 450.741 349.119 450.741H422.523C422.576 450.741 422.629 450.753 422.676 450.78L434.039 456.961C434.168 457.03 434.232 457.179 434.196 457.321C434.161 457.462 434.034 457.561 433.887 457.561ZM360.565 456.922H432.631L422.443 451.38H350.376L360.565 456.922Z" fill="#121519"/>
<path d="M445.251 481.094H371.846V498.77H445.251V481.094Z" fill="#A35BFB"/>
<path d="M445.251 499.092H371.846C371.67 499.092 371.527 498.949 371.527 498.772V481.096C371.527 480.92 371.67 480.777 371.846 480.777H445.251C445.427 480.777 445.57 480.92 445.57 481.096V498.772C445.57 498.949 445.427 499.092 445.251 499.092ZM372.166 498.453H444.931V481.416H372.166V498.453Z" fill="#121519"/>
<path d="M371.84 481.094H445.244L433.881 474.913H360.477L371.84 481.094Z" fill="#7A44BC"/>
<path d="M445.245 481.412H371.84C371.787 481.412 371.735 481.398 371.688 481.373L360.324 475.193C360.196 475.123 360.131 474.975 360.167 474.833C360.203 474.691 360.331 474.592 360.476 474.592H433.881C433.934 474.592 433.986 474.606 434.033 474.631L445.397 480.812C445.525 480.881 445.59 481.03 445.554 481.171C445.518 481.313 445.39 481.412 445.245 481.412ZM371.921 480.773H443.988L433.8 475.231H361.733L371.921 480.773Z" fill="#121519"/>
<path d="M456.615 504.951H383.21V522.627H456.615V504.951Z" fill="#A35BFB"/>
<path d="M456.615 522.946H383.211C383.034 522.946 382.891 522.802 382.891 522.626V504.951C382.891 504.774 383.034 504.631 383.211 504.631H456.615C456.791 504.631 456.934 504.774 456.934 504.951V522.626C456.934 522.802 456.791 522.946 456.615 522.946ZM383.53 522.307H456.295V505.27H383.53V522.307Z" fill="#121519"/>
<path d="M383.211 504.95H456.615L445.252 498.769H371.848L383.211 504.95Z" fill="#7A44BC"/>
<path d="M456.618 505.269H383.213C383.16 505.269 383.107 505.255 383.061 505.23L371.697 499.049C371.569 498.98 371.504 498.831 371.54 498.69C371.576 498.548 371.704 498.449 371.849 498.449H445.254C445.307 498.449 445.36 498.462 445.406 498.487L456.77 504.667C456.898 504.737 456.963 504.885 456.927 505.027C456.891 505.17 456.763 505.269 456.618 505.269ZM383.294 504.63H455.361L445.173 499.088H373.106L383.294 504.63Z" fill="#121519"/>
<path d="M467.98 528.81H394.576V546.486H467.98V528.81Z" fill="#A35BFB"/>
<path d="M467.978 546.804H394.574C394.398 546.804 394.255 546.661 394.255 546.485V528.81C394.255 528.633 394.398 528.49 394.574 528.49H467.978C468.154 528.49 468.298 528.633 468.298 528.81V546.485C468.298 546.661 468.155 546.804 467.978 546.804ZM394.894 546.165H467.659V529.129H394.894V546.165Z" fill="#121519"/>
<path d="M394.575 528.81H467.978L456.615 522.629H383.211L394.575 528.81Z" fill="#7A44BC"/>
<path d="M467.979 529.129H394.575C394.522 529.129 394.47 529.115 394.422 529.09L383.059 522.909C382.931 522.839 382.866 522.691 382.902 522.549C382.938 522.407 383.065 522.308 383.211 522.308H456.616C456.67 522.308 456.722 522.322 456.769 522.346L468.132 528.528C468.261 528.597 468.325 528.745 468.289 528.887C468.253 529.029 468.125 529.129 467.979 529.129ZM394.656 528.49H466.723L456.534 522.948H384.468L394.656 528.49Z" fill="#121519"/>
<path d="M319.53 545.864H219.985L251.775 426.582H319.53V545.864Z" fill="#7A44BC"/>
<path d="M219.986 546.186H294.522C294.699 546.186 294.842 546.042 294.842 545.866V426.583C294.842 426.407 294.699 426.264 294.522 426.264H251.776C251.631 426.264 251.504 426.361 251.467 426.501L219.677 545.784C219.651 545.879 219.672 545.982 219.732 546.061C219.793 546.139 219.886 546.186 219.986 546.186ZM294.203 545.546H220.402L252.022 426.903H294.203V545.546Z" fill="#7A44BC"/>
<path d="M209.753 432.767H283.157V450.442H209.753V432.767Z" fill="#A35BFB"/>
<path d="M209.755 450.761H283.159C283.335 450.761 283.479 450.618 283.479 450.441V432.766C283.479 432.59 283.335 432.446 283.159 432.446H209.755C209.578 432.446 209.435 432.59 209.435 432.766V450.441C209.435 450.618 209.578 450.761 209.755 450.761ZM282.839 450.122H210.074V433.085H282.839V450.122Z" fill="#121519"/>
<path d="M198.393 456.621H271.797V474.296H198.393V456.621Z" fill="#A35BFB"/>
<path d="M198.393 474.615H271.798C271.974 474.615 272.117 474.472 272.117 474.295V456.62C272.117 456.444 271.974 456.3 271.798 456.3H198.393C198.217 456.3 198.074 456.444 198.074 456.62V474.295C198.074 474.472 198.217 474.615 198.393 474.615ZM271.478 473.976H198.713V456.94H271.478V473.976Z" fill="#121519"/>
<path d="M271.797 456.62H198.393L209.756 450.439H283.16L271.797 456.62Z" fill="#7A44BC"/>
<path d="M198.393 456.941H271.797C271.85 456.941 271.903 456.928 271.95 456.903L283.313 450.722C283.441 450.652 283.506 450.504 283.47 450.362C283.434 450.22 283.307 450.121 283.161 450.121H209.757C209.704 450.121 209.65 450.134 209.604 450.16L198.241 456.341C198.112 456.411 198.048 456.559 198.083 456.701C198.119 456.842 198.246 456.941 198.393 456.941ZM271.715 456.302H199.648L209.837 450.76H281.904L271.715 456.302Z" fill="#121519"/>
<path d="M187.024 480.478H260.429V498.153H187.024V480.478Z" fill="#A35BFB"/>
<path d="M187.023 498.473H260.427C260.603 498.473 260.747 498.33 260.747 498.153V480.477C260.747 480.301 260.603 480.158 260.427 480.158H187.023C186.846 480.158 186.703 480.301 186.703 480.477V498.153C186.703 498.33 186.846 498.473 187.023 498.473ZM260.108 497.834H187.342V480.797H260.108V497.834Z" fill="#121519"/>
<path d="M260.433 480.477H187.029L198.392 474.296H271.796L260.433 480.477Z" fill="#7A44BC"/>
<path d="M187.029 480.795H260.433C260.486 480.795 260.539 480.781 260.586 480.756L271.949 474.576C272.078 474.506 272.142 474.358 272.106 474.216C272.071 474.074 271.943 473.975 271.797 473.975H198.393C198.34 473.975 198.287 473.989 198.24 474.014L186.877 480.195C186.748 480.264 186.684 480.413 186.72 480.554C186.755 480.696 186.883 480.795 187.029 480.795ZM260.352 480.156H188.285L198.473 474.614H270.54L260.352 480.156Z" fill="#121519"/>
<path d="M175.662 504.337H249.066V522.012H175.662V504.337Z" fill="#A35BFB"/>
<path d="M175.66 522.329H249.064C249.241 522.329 249.384 522.185 249.384 522.009V504.334C249.384 504.157 249.241 504.014 249.064 504.014H175.66C175.484 504.014 175.34 504.157 175.34 504.334V522.009C175.34 522.185 175.484 522.329 175.66 522.329ZM248.745 521.689H175.979V504.653H248.745V521.689Z" fill="#121519"/>
<path d="M249.062 504.333H175.658L187.021 498.152H260.425L249.062 504.333Z" fill="#7A44BC"/>
<path d="M175.657 504.652H249.062C249.115 504.652 249.168 504.638 249.214 504.613L260.578 498.432C260.706 498.363 260.771 498.214 260.735 498.073C260.699 497.931 260.571 497.832 260.426 497.832H187.021C186.968 497.832 186.915 497.845 186.868 497.87L175.505 504.05C175.377 504.12 175.312 504.268 175.348 504.41C175.384 504.553 175.512 504.652 175.657 504.652ZM248.98 504.013H176.914L187.102 498.471H259.168L248.98 504.013Z" fill="#121519"/>
<path d="M164.299 528.191H237.704V545.866H164.299V528.191Z" fill="#A35BFB"/>
<path d="M164.3 546.182H237.703C237.88 546.182 238.023 546.039 238.023 545.863V528.187C238.023 528.011 237.88 527.868 237.703 527.868H164.3C164.123 527.868 163.98 528.011 163.98 528.187V545.863C163.98 546.039 164.123 546.182 164.3 546.182ZM237.384 545.543H164.619V528.507H237.384V545.543Z" fill="#121519"/>
<path d="M237.705 528.189H164.301L175.664 522.008H249.068L237.705 528.189Z" fill="#7A44BC"/>
<path d="M164.299 528.509H237.702C237.755 528.509 237.808 528.496 237.855 528.47L249.218 522.289C249.347 522.219 249.411 522.071 249.375 521.929C249.34 521.787 249.212 521.688 249.066 521.688H175.661C175.608 521.688 175.555 521.702 175.508 521.727L164.145 527.908C164.017 527.978 163.952 528.126 163.988 528.268C164.024 528.41 164.152 528.509 164.299 528.509ZM237.621 527.87H165.554L175.743 522.328H247.81L237.621 527.87Z" fill="#121519"/>
<path d="M315.831 526.566L315.831 433.05" stroke="#161616" stroke-width="0.617264"/>
<path d="M395.628 426.943L421.882 433.38L211.006 432.664L225.267 426.224L395.628 426.943Z" fill="#7A44BC" stroke="black" stroke-width="0.617264"/>
<path d="M273.238 546.01L315.829 526.566L360.272 546.01" stroke="black" stroke-width="0.617264"/>
<path d="M315.52 526.877L273.238 546.012H360.272L315.52 526.877Z" fill="#532E80"/>
<path d="M312.837 148.774C266.39 148.774 228.737 186.404 228.737 232.823V341.463V355.62V369.777V383.934L229.036 426.514H238.305V383.934V369.777V355.62V341.463V235.304C238.305 194.167 271.674 160.818 312.837 160.818C354 160.818 387.369 194.167 387.369 235.304V341.463V355.62V369.777V383.934V427.113H396.937V383.934V369.777V355.62V341.463V232.823C396.937 186.404 359.284 148.774 312.837 148.774Z" fill="#A35BFB"/>
<path d="M397.449 427.309H387.396V235.179C387.396 215.338 379.663 196.684 365.621 182.655C351.578 168.625 332.909 160.898 313.05 160.898C293.191 160.898 274.521 168.625 260.479 182.655C246.437 196.684 238.703 215.338 238.703 235.179V426.692H228.65V232.696C228.65 210.172 237.429 188.997 253.37 173.07C269.311 157.143 290.506 148.372 313.05 148.372C335.594 148.372 356.788 157.143 372.729 173.07C388.67 188.997 397.449 210.172 397.449 232.696L397.449 427.309ZM387.874 426.832H396.971V232.696C396.971 210.299 388.242 189.244 372.391 173.407C356.54 157.571 335.466 148.849 313.05 148.849C290.634 148.849 269.559 157.571 253.708 173.407C237.857 189.244 229.128 210.299 229.128 232.696V426.214H238.225V235.179C238.225 215.21 246.008 196.437 260.141 182.317C274.273 168.197 293.063 160.421 313.05 160.421C333.036 160.421 351.826 168.197 365.959 182.317C380.091 196.437 387.874 215.21 387.874 235.179V426.832Z" fill="#14182E"/>
<path d="M313.05 160.769C271.928 160.769 238.591 194.105 238.591 235.228V341.348V355.5V369.651V427.186H248.15V369.651V355.5V341.348V237.709C248.15 201.865 277.207 172.808 313.05 172.808C348.894 172.808 377.951 201.865 377.951 237.709V341.348V355.5V369.651V427.629H387.51V369.651V355.5V341.348V235.228C387.51 194.105 354.173 160.769 313.05 160.769Z" fill="#7A44BC"/>
<path d="M387.876 427.274H377.823V237.558C377.823 201.87 348.768 172.836 313.054 172.836C277.34 172.836 248.284 201.87 248.284 237.558V426.684H238.231V235.075C238.231 215.104 246.014 196.328 260.146 182.207C274.278 168.085 293.068 160.308 313.054 160.308C333.039 160.308 351.828 168.085 365.961 182.207C380.093 196.328 387.876 215.104 387.876 235.075L387.876 427.274ZM378.301 426.796H387.398V235.075C387.398 215.231 379.665 196.576 365.623 182.544C351.581 168.513 332.912 160.786 313.054 160.786C293.195 160.786 274.526 168.513 260.484 182.544C246.443 196.576 238.71 215.231 238.71 235.075V426.207H247.806V237.558C247.806 201.607 277.076 172.359 313.054 172.359C349.031 172.359 378.301 201.607 378.301 237.558V426.796Z" fill="#14182E"/>
<path d="M313.055 172.804C277.212 172.804 248.155 201.861 248.155 237.704V341.343V355.495V426.514L257.714 426.514V355.495V341.343V240.185C257.714 209.621 282.491 184.843 313.055 184.843C343.62 184.843 368.397 209.621 368.397 240.185V341.343V355.495V426.873H377.956V355.495V341.343V237.704C377.955 201.861 348.899 172.804 313.055 172.804Z" fill="#A35BFB"/>
<path d="M378.297 427.314H368.244V239.996C368.244 209.587 343.485 184.847 313.052 184.847C282.619 184.847 257.86 209.587 257.86 239.996V426.696H247.807V237.513C247.807 201.565 277.076 172.32 313.052 172.32C349.028 172.32 378.297 201.565 378.297 237.513V427.314ZM368.722 426.836H377.819V237.513C377.819 201.828 348.765 172.797 313.052 172.797C277.34 172.797 248.285 201.828 248.285 237.513V426.219H257.381V239.996C257.381 209.323 282.355 184.37 313.052 184.37C343.749 184.37 368.722 209.323 368.722 239.996V426.836Z" fill="#14182E"/>
<path d="M313.138 184.689C282.724 184.689 257.77 209.782 257.77 240.357L258.069 341.245V427.113H267.581V341.245V242.533C267.581 217.238 287.977 196.733 313.138 196.733C338.298 196.733 358.695 217.239 358.695 242.533V341.245V427.113L368.506 426.814L368.207 341.245V240.051C368.207 209.475 343.552 184.689 313.138 184.689Z" fill="#7A44BC"/>
<path d="M368.721 426.701H358.712L358.237 242.331C358.237 217.221 337.861 196.793 312.816 196.793C287.77 196.793 267.395 217.221 267.395 242.331L267.87 426.7H257.862L257.386 239.851C257.386 209.208 282.251 184.277 312.816 184.277C343.38 184.277 368.245 209.208 368.245 239.851L368.721 426.701ZM359.188 426.224H368.245L367.77 239.851C367.77 209.471 343.118 184.754 312.816 184.754C282.514 184.754 257.862 209.471 257.862 239.851L258.338 426.223H267.395L266.919 242.331C266.919 216.958 287.508 196.316 312.816 196.316C338.124 196.316 358.713 216.958 358.713 242.331L359.188 426.224Z" fill="#14182E"/>
<path d="M484.982 546.79L696.04 751.56L906.247 962.047L906.252 148.802L487.401 335.782L484.982 546.79Z" fill="#FFECE1"/>
<path d="M619.734 331.715C643.899 323.55 667.027 360.474 667.027 415.661V647.835V723.324L584.995 642.847V416.853C584.995 376.315 599.336 338.607 619.734 331.715Z" fill="#6F6F6F"/>
<path d="M909.026 959.803L907.763 145.407L486.777 335.373L486.772 335.774L484.35 547.052L484.543 547.241L909.026 959.803ZM906.5 147.371L907.763 956.802L485.618 546.527L488.029 336.189L906.5 147.371Z" fill="#131313"/>
<path d="M666.931 725.907V416.741C666.931 379.548 656.156 347.783 639.481 335.815C632.909 331.099 625.761 329.846 618.804 332.196C598.755 338.971 583.636 375.829 583.636 417.933V644.191L583.826 644.377L666.931 725.907ZM625.675 332.31C630.122 332.31 634.552 333.833 638.744 336.842C655.1 348.579 665.668 379.942 665.668 416.741V722.901L584.898 643.661V417.933C584.898 376.346 599.649 340.002 619.208 333.393C621.35 332.669 623.515 332.31 625.675 332.31Z" fill="#131313"/>
<g opacity="0.63">
<path d="M619.005 332.791C643.17 324.626 666.298 361.55 666.298 416.737V648.912L584.266 417.93C584.266 377.391 598.607 339.682 619.005 332.791Z" fill="#131313"/>
</g>
<path d="M570.291 631.096V418.143C570.291 389.253 563.799 365.184 554.137 358.251C551.493 356.352 548.754 355.862 545.995 356.795C535.036 360.497 526.772 387.135 526.772 418.756V588.403L526.961 588.588L570.291 631.096ZM548.684 357.604C550.271 357.604 551.849 358.162 553.4 359.276C562.601 365.879 569.028 390.086 569.028 418.142V628.088L528.034 587.872V418.756C528.034 388.161 536.101 361.47 546.399 357.99C547.161 357.733 547.924 357.604 548.684 357.604Z" fill="#131313"/>
<path d="M546.199 357.39C558.473 353.243 569.66 380.21 569.66 418.14V577.709V629.032L527.404 587.675V418.754C527.405 388.371 535.335 361.061 546.199 357.39Z" fill="#6F6F6F"/>
<path d="M546.347 357.24C558.622 353.093 569.809 380.061 569.809 417.99V577.559L527.553 418.605C527.554 388.222 535.484 360.911 546.347 357.24Z" fill="#4A4949"/>
<path d="M519.695 581.457V418.876C519.695 395.429 515.33 375.922 509.08 371.437C507.716 370.458 506.303 370.205 504.879 370.685C497.93 373.032 492.691 393.91 492.691 419.249V554.965L492.88 555.15L519.695 581.457ZM506.272 371.713C506.961 371.713 507.646 371.962 508.344 372.463C513.357 376.06 518.433 393.158 518.433 418.876V578.45L493.954 554.435V419.25C493.954 395.241 499.036 373.993 505.283 371.882L505.284 371.882C505.615 371.77 505.944 371.713 506.272 371.713Z" fill="#131313"/>
<g opacity="0.63">
<path d="M504.955 371.613C512.364 369.11 518.938 390.311 518.938 419.206V540.762V580.284L493.197 555.03V419.579C493.197 395.282 498.221 373.889 504.955 371.613Z" fill="#6F6F6F"/>
<path d="M505.08 371.286C512.489 368.782 519.062 389.984 519.062 418.878V540.434L493.321 419.252C493.321 394.955 498.346 373.561 505.08 371.286Z" fill="#131313"/>
</g>
<path d="M493.141 554.652H518.882V579.905L493.141 554.652Z" fill="#131313"/>
<path d="M527.862 587.985H570.118V629.44L527.862 587.985Z" fill="#131313"/>
<path d="M584.344 642.615H666.376V723.092L584.344 642.615Z" fill="#131313"/>
<path d="M142.364 545.556L-68.6935 750.326L-283.849 960.813L-283.844 145.716L139.945 334.548L142.364 545.556Z" fill="#FFECE1"/>
<path d="M7.6118 330.481C-16.5528 322.316 -39.6812 359.24 -39.6812 414.427V646.601V722.09L42.3508 641.612V415.619C42.3508 375.081 28.0099 337.372 7.6118 330.481Z" fill="#6F6F6F"/>
<path d="M-287.852 958.569L-286.589 144.173L140.571 334.139L140.576 334.539L142.997 545.818L142.805 546.007L-287.852 958.569ZM-285.326 146.137L-286.589 955.567L141.729 545.292L139.318 334.955L-285.326 146.137Z" fill="#131313"/>
<path d="M-39.5869 724.673V415.507C-39.5869 378.314 -28.812 346.548 -12.1366 334.581C-5.56459 329.864 1.58337 328.611 8.53994 330.962C28.5893 337.736 43.7079 374.595 43.7079 416.699V642.957L43.5184 643.142L-39.5869 724.673ZM1.6685 331.075C-2.77827 331.075 -7.20837 332.599 -11.4002 335.607C-27.7559 347.345 -38.324 378.708 -38.324 415.507V721.666L42.4456 642.427V416.699C42.4456 375.112 27.6955 338.768 8.13561 332.159C5.9937 331.435 3.82893 331.075 1.6685 331.075Z" fill="#131313"/>
<g opacity="0.63">
<path d="M8.33983 331.556C-15.8248 323.391 -38.9531 360.315 -38.9531 415.503V647.677L43.0788 416.695C43.0788 376.156 28.7379 338.448 8.33983 331.556Z" fill="#131313"/>
</g>
<path d="M57.0527 629.86V416.906C57.0527 388.016 63.5438 363.948 73.2065 357.014C75.8502 355.116 78.5891 354.625 81.3482 355.558C92.3071 359.261 100.572 385.899 100.572 417.52V587.167L100.382 587.352L57.0527 629.86ZM78.6588 356.368C77.0724 356.368 75.4941 356.926 73.9429 358.04C64.7419 364.642 58.3156 388.85 58.3156 416.906V626.852L99.3093 586.635V417.519C99.3093 386.925 91.2423 360.233 80.9439 356.754C80.1822 356.496 79.4193 356.368 78.6588 356.368Z" fill="#131313"/>
<path d="M81.1467 356.156C68.8718 352.008 57.6851 378.976 57.6851 416.906V576.475V627.797L99.9411 586.441V417.52C99.9405 387.137 92.0099 359.827 81.1467 356.156Z" fill="#6F6F6F"/>
<path d="M80.9958 356.008C68.7209 351.861 57.5342 378.828 57.5342 416.758V576.327L99.7902 417.372C99.7896 386.989 91.859 359.679 80.9958 356.008Z" fill="#4A4949"/>
<path d="M107.65 580.223V417.642C107.65 394.195 112.015 374.688 118.265 370.203C119.63 369.224 121.043 368.971 122.467 369.452C129.415 371.798 134.654 392.676 134.654 418.015V553.731L134.465 553.917L107.65 580.223ZM121.073 370.479C120.384 370.479 119.699 370.728 119.001 371.229C113.988 374.826 108.913 391.924 108.913 417.642V577.216L133.391 553.201V418.016C133.391 394.007 128.309 372.759 122.062 370.648L122.062 370.648C121.73 370.536 121.401 370.479 121.073 370.479Z" fill="#131313"/>
<g opacity="0.63">
<path d="M122.392 370.377C114.983 367.874 108.409 389.075 108.409 417.969V539.525V579.047L134.15 553.793V418.342C134.15 394.046 129.126 372.652 122.392 370.377Z" fill="#6F6F6F"/>
<path d="M122.265 370.049C114.856 367.546 108.282 388.748 108.282 417.642V539.198L134.023 418.016C134.023 393.718 128.999 372.325 122.265 370.049Z" fill="#131313"/>
</g>
<path d="M134.198 553.418H108.457V578.672L134.198 553.418Z" fill="#131313"/>
<path d="M99.4821 586.749H57.2261V628.204L99.4821 586.749Z" fill="#131313"/>
<path d="M42.9968 641.379H-39.0352V721.856L42.9968 641.379Z" fill="#131313"/>
<path d="M25.1673 733.258H-47.1915L-116.721 801.131H-30.4558L25.1673 733.258Z" fill="#FFECE1"/>
<path d="M97.5164 733.258H25.1577L-30.4653 801.131H55.7999L97.5164 733.258Z" fill="#161616"/>
<path d="M65.34 684.23H3.02676L-47.1978 733.26H25.161L65.34 684.23Z" fill="#161616"/>
<path d="M127.66 684.23H65.3455L25.1665 733.26H97.5253L127.66 684.23Z" fill="#FFECE1"/>
<path d="M169.894 733.258H97.5335L55.8169 801.131H142.082L169.894 733.258Z" fill="#FFECE1"/>
<path d="M242.24 733.258H169.881L142.07 801.131H228.335L242.24 733.258Z" fill="#161616"/>
<path d="M189.974 684.23H127.659L97.5239 733.26H169.884L189.974 684.23Z" fill="#161616"/>
<path d="M252.288 684.23H189.973L169.883 733.26H242.242L252.288 684.23Z" fill="#FFECE1"/>
<path d="M314.599 733.258H242.24L228.335 801.131H314.599V733.258Z" fill="#FFECE1"/>
<path d="M386.957 733.258H314.597V801.131H400.862L386.957 733.258Z" fill="#161616"/>
<path d="M314.603 684.23H252.29L242.245 733.26H314.603V684.23Z" fill="#161616"/>
<path d="M376.912 684.23H314.597V733.26H386.957L376.912 684.23Z" fill="#FFECE1"/>
<path d="M459.33 733.258H386.972L400.877 801.131H487.142L459.33 733.258Z" fill="#FFECE1"/>
<path d="M531.676 733.258H459.317L487.128 801.131H573.394L531.676 733.258Z" fill="#161616"/>
<path d="M439.225 684.23H376.91L386.956 733.26H459.314L439.225 684.23Z" fill="#161616"/>
<path d="M501.545 684.23H439.232L459.322 733.26H531.68L501.545 684.23Z" fill="#FFECE1"/>
<path d="M604.046 733.258H531.685L573.403 801.131H659.667L604.046 733.258Z" fill="#FFECE1"/>
<path d="M676.393 733.258H604.034L659.655 801.131H745.921L676.393 733.258Z" fill="#161616"/>
<path d="M563.857 684.23H501.542L531.677 733.26H604.037L563.857 684.23Z" fill="#161616"/>
<path d="M626.174 684.23H563.859L604.04 733.26H676.398L626.174 684.23Z" fill="#FFECE1"/>
<path d="M95.7168 647.156H40.9972L3.01807 684.232H65.3313L95.7168 647.156Z" fill="#FFECE1"/>
<path d="M150.454 647.156H95.7356L65.3501 684.232H127.665L150.454 647.156Z" fill="#161616"/>
<path d="M119.5 618.129H70.7268L41.0005 647.148H95.7201L119.5 618.129Z" fill="#161616"/>
<path d="M168.284 618.129H119.511L95.731 647.148H150.449L168.284 618.129Z" fill="#FFECE1"/>
<path d="M205.168 647.156H150.45L127.662 684.232H189.976L205.168 647.156Z" fill="#FFECE1"/>
<path d="M259.875 647.156H205.157L189.965 684.232H252.28L259.875 647.156Z" fill="#161616"/>
<path d="M217.056 618.129H168.283L150.448 647.148H205.166L217.056 618.129Z" fill="#161616"/>
<path d="M265.819 618.129H217.046L205.156 647.148H259.874L265.819 618.129Z" fill="#FFECE1"/>
<path d="M314.591 647.156H259.873L252.278 684.232H314.591V647.156Z" fill="#FFECE1"/>
<path d="M369.315 647.156H314.597V684.231H376.912L369.315 647.156Z" fill="#161616"/>
<path d="M314.603 618.129H265.83L259.885 647.148H314.603V618.129Z" fill="#161616"/>
<path d="M363.37 618.129H314.597V647.148H369.315L363.37 618.129Z" fill="#FFECE1"/>
<path d="M424.04 647.156H369.321L376.918 684.231H439.232L424.04 647.156Z" fill="#FFECE1"/>
<path d="M478.757 647.156H424.039L439.231 684.232H501.544L478.757 647.156Z" fill="#161616"/>
<path d="M412.132 618.129H363.359L369.304 647.148H424.024L412.132 618.129Z" fill="#161616"/>
<path d="M460.921 618.129H412.148L424.039 647.148H478.757L460.921 618.129Z" fill="#FFECE1"/>
<path d="M533.469 647.156H478.751L501.538 684.232H563.853L533.469 647.156Z" fill="#FFECE1"/>
<path d="M588.194 647.156H533.476L563.86 684.232H626.175L588.194 647.156Z" fill="#161616"/>
<path d="M509.689 618.129H460.916L478.752 647.148H533.47L509.689 618.129Z" fill="#161616"/>
<path d="M558.471 618.129H509.698L533.479 647.148H588.197L558.471 618.129Z" fill="#FFECE1"/>
<path d="M138.628 594.799H94.6353L70.7349 618.131H119.508L138.628 594.799Z" fill="#FFECE1"/>
<path d="M182.623 594.799H138.63L119.509 618.131H168.282L182.623 594.799Z" fill="#161616"/>
<path d="M154.326 575.633H114.259L94.6255 594.799H138.619L154.326 575.633Z" fill="#161616"/>
<path d="M194.425 575.633H154.359L138.652 594.799H182.645L194.425 575.633Z" fill="#FFECE1"/>
<path d="M226.618 594.799H182.625L168.285 618.131H217.058L226.618 594.799Z" fill="#FFECE1"/>
<path d="M270.602 594.799H226.609L217.049 618.131H265.822L270.602 594.799Z" fill="#161616"/>
<path d="M234.466 575.633H194.4L182.62 594.799H226.613L234.466 575.633Z" fill="#161616"/>
<path d="M274.532 575.633H234.465L226.612 594.799H270.605L274.532 575.633Z" fill="#FFECE1"/>
<path d="M314.614 594.799H270.621L265.841 618.131H314.614V594.799Z" fill="#FFECE1"/>
<path d="M358.59 594.799H314.597V618.131H363.37L358.59 594.799Z" fill="#161616"/>
<path d="M314.598 575.633H274.532L270.605 594.799H314.598V575.633Z" fill="#161616"/>
<path d="M354.663 575.633H314.597V594.799H358.59L354.663 575.633Z" fill="#FFECE1"/>
<path d="M402.585 594.799H358.592L363.372 618.131H412.145L402.585 594.799Z" fill="#FFECE1"/>
<path d="M446.573 594.799H402.58L412.14 618.131H460.913L446.573 594.799Z" fill="#161616"/>
<path d="M394.733 575.633H354.667L358.593 594.799H402.586L394.733 575.633Z" fill="#161616"/>
<path d="M434.804 575.633H394.738L402.591 594.799H446.584L434.804 575.633Z" fill="#FFECE1"/>
<path d="M490.573 594.799H446.581L460.921 618.131H509.694L490.573 594.799Z" fill="#FFECE1"/>
<path d="M534.567 594.799H490.574L509.695 618.131H558.468L534.567 594.799Z" fill="#161616"/>
<path d="M474.876 575.633H434.81L446.59 594.799H490.583L474.876 575.633Z" fill="#161616"/>
<path d="M514.926 575.633H474.858L490.565 594.799H534.558L514.926 575.633Z" fill="#FFECE1"/>
<path d="M167.473 559.611H130.69L114.274 575.636H154.34L167.473 559.611Z" fill="#FFECE1"/>
<path d="M204.248 559.611H167.465L154.332 575.636H194.398L204.248 559.611Z" fill="#161616"/>
<path d="M178.622 546.013H144.624L130.696 559.611H167.479L178.622 546.013Z" fill="#161616"/>
<path d="M212.616 546.013H178.618L167.475 559.611H204.258L212.616 546.013Z" fill="#FFECE1"/>
<path d="M241.031 559.611H204.248L194.398 575.636H234.464L241.031 559.611Z" fill="#FFECE1"/>
<path d="M277.816 559.611H241.033L234.466 575.636H274.533L277.816 559.611Z" fill="#161616"/>
<path d="M246.613 546.013H212.615L204.257 559.611H241.04L246.613 546.013Z" fill="#161616"/>
<path d="M280.605 546.013H246.609L241.037 559.611H277.819L280.605 546.013Z" fill="#FFECE1"/>
<path d="M314.6 559.611H277.817L274.534 575.636H314.6V559.611Z" fill="#FFECE1"/>
<path d="M351.38 559.611H314.597V575.636H354.663L351.38 559.611Z" fill="#161616"/>
<path d="M314.597 546.013H280.599L277.813 559.611H314.597V546.013Z" fill="#161616"/>
<path d="M348.594 546.013H314.597V559.611H351.38L348.594 546.013Z" fill="#FFECE1"/>
<path d="M388.172 559.611H351.387L354.67 575.636H394.737L388.172 559.611Z" fill="#FFECE1"/>
<path d="M424.938 559.611H388.155L394.72 575.636H434.786L424.938 559.611Z" fill="#161616"/>
<path d="M382.606 546.013H348.608L351.394 559.611H388.178L382.606 546.013Z" fill="#161616"/>
<path d="M416.593 546.013H382.596L388.168 559.611H424.951L416.593 546.013Z" fill="#FFECE1"/>
<path d="M461.74 559.611H424.957L434.805 575.636H474.872L461.74 559.611Z" fill="#FFECE1"/>
<path d="M498.518 559.611H461.735L474.867 575.636H514.935L498.518 559.611Z" fill="#161616"/>
<path d="M450.595 546.013H416.597L424.955 559.611H461.738L450.595 546.013Z" fill="#161616"/>
<path d="M484.586 546.013H450.59L461.733 559.611H498.516L484.586 546.013Z" fill="#FFECE1"/>
</g>
<defs>
<clipPath id="clip0_11877_117">
<rect width="631" height="750" fill="white"/>
</clipPath>
<clipPath id="clip1_11877_117">
<rect width="566.648" height="566.648" fill="white" transform="translate(30.0352 144.173)"/>
</clipPath>
</defs>
</svg>
