<svg width="30" height="31" viewBox="0 0 30 31" fill="none" xmlns="http://www.w3.org/2000/svg">
<path d="M19.2417 2.00879L26.9438 3.50293C28.1176 3.5386 29.0579 4.4993 29.0581 5.68164C29.0581 6.88672 28.0815 7.86422 26.8765 7.86426H26.8188L26.7632 7.85059L19.6655 6.19922L10.7954 8.97754L10.6509 9.02246L10.5063 8.97949L3.24268 6.85938C2.07719 6.81449 1.146 5.85812 1.146 4.68164C1.14621 3.47685 2.12284 2.50021 3.32764 2.5H3.39502L3.45947 2.51758L10.6411 4.47949L19.0054 2.02051L19.1216 1.98633L19.2417 2.00879Z" fill="#DF0586" stroke="#DF0586"/>
<path d="M19.2417 12.5088L26.9438 14.0029C28.1176 14.0386 29.0579 14.9993 29.0581 16.1816C29.0581 17.3867 28.0815 18.3642 26.8765 18.3643H26.8188L26.7632 18.3506L19.6655 16.6992L10.7954 19.4775L10.6509 19.5225L10.5063 19.4795L3.24268 17.3594C2.07719 17.3145 1.146 16.3581 1.146 15.1816C1.14621 13.9768 2.12284 13.0002 3.32764 13H3.39502L3.45947 13.0176L10.6411 14.9795L19.0054 12.5205L19.1216 12.4863L19.2417 12.5088Z" fill="#DF0586" stroke="#DF0586"/>
<path d="M19.5957 22.5088L27.2979 24.0029C28.4716 24.0386 29.4119 24.9993 29.4121 26.1816C29.4121 27.3867 28.4355 28.3642 27.2305 28.3643H27.1729L27.1172 28.3506L20.0195 26.6992L11.1494 29.4775L11.0049 29.5225L10.8604 29.4795L3.59668 27.3594C2.43119 27.3145 1.5 26.3581 1.5 25.1816C1.50021 23.9768 2.47685 23.0002 3.68164 23H3.74902L3.81348 23.0176L10.9951 24.9795L19.3594 22.5205L19.4756 22.4863L19.5957 22.5088Z" fill="#DF0586" stroke="#DF0586"/>
</svg>
