<svg width="440" height="384" viewBox="0 0 440 384" fill="none" xmlns="http://www.w3.org/2000/svg">
<path d="M230.561 533.602L384.132 455.325L355.726 435.365L126.867 433.503L-103.103 540.748C-103.103 540.748 134.661 566.043 230.561 533.602Z" fill="#DF0586" stroke="#161616" stroke-width="1.20728" stroke-linecap="round" stroke-linejoin="round"/>
<path d="M-111.209 421.011L114.617 305.906L128.392 432.991L-101.989 542.878L-111.209 421.011Z" fill="#7A44BC" stroke="#161616" stroke-width="1.20728" stroke-linecap="round" stroke-linejoin="round"/>
<path d="M385.519 128.822L497.48 71.7539L491.423 162.921L491.861 311.754L426.855 390.322L350.363 422.577C313.296 417.676 253.702 400.463 311.861 370.819C365.688 343.383 374.596 222.083 372.128 151.92C371.788 142.264 376.911 133.209 385.519 128.822Z" fill="#7A44BC" stroke="#161616" stroke-width="1.20728" stroke-linecap="round" stroke-linejoin="round"/>
<path d="M564.102 89.8027C533.727 82.0523 508.906 92.9062 499.106 123.772C495.552 134.999 494.786 146.222 494.91 157.636C494.934 161.02 495.051 164.423 495.195 167.845C498.952 216.502 507.634 266.242 499.321 315.213C489.325 386.626 444.454 440.067 376.74 455.752C293.242 476.249 193.206 459.057 128.549 432.653L114.748 305.518C208.71 347.061 409.587 449.15 454.808 307.183C464.39 277.088 464.895 243.787 464.22 210.89C463.864 172.273 458.374 126.66 476.26 93.7169C504.634 44.7271 568.173 64.9234 610.241 89.1385C686.978 133.673 734.535 209.652 782.494 282.986L773.275 290.125C772.856 289.53 772.438 288.935 772 288.334C717.453 211.499 648.808 114.644 564.102 89.8027Z" fill="#A35BFB" stroke="#161616" stroke-width="1.20728" stroke-linecap="round" stroke-linejoin="round"/>
</svg>
