<svg width="205" height="345" viewBox="0 0 205 345" fill="none" xmlns="http://www.w3.org/2000/svg">
<g clip-path="url(#clip0_2547_6161)">
<path d="M252.275 160.749C257.555 154.638 261.499 147.374 263.49 139.355C275.655 136.126 300.917 113.554 296.049 100.332C294.299 98.7408 291.537 99.5778 289.352 100.483C246.615 118.196 201.331 129.752 155.332 134.683C163.27 122.973 162.545 106.877 153.246 96.1873C162.657 86.1446 172.837 70.754 168.133 56.6307C164.716 49.5512 154.072 48.7701 149.663 55.2798C160.387 41.729 165.625 23.232 163.718 6.05654C163.571 0.0114269 158.176 -2.63353 154.797 3.4583C141.13 23.7757 127.464 44.0936 113.797 64.4116C94.6763 96.1066 57.7698 126.919 66.3816 167.487C68.2286 171.614 67.5677 178.138 62.4191 179.127C60.031 179.496 57.765 178.082 55.7896 176.689C46.0762 169.527 33.3006 160.172 21.0079 166.388C11.8221 171.285 9.02634 184.132 0.0852661 189.138C-0.327881 189.37 -0.27298 189.971 0.171906 190.133C48.4955 207.721 42.2387 272.734 126.452 274.94C149.747 297.599 180.113 333.033 212.751 345.422C215.695 345.32 215.681 342.148 213.538 340.716C202.686 330.617 191.834 320.517 180.981 310.418C183.526 312.627 187.594 312.383 190.231 310.284C198.378 316.401 223.18 326.402 231.924 320.088C232.864 317.89 230.3 315.892 228.152 314.844C191.018 296.732 156.96 272.335 127.861 243.006C144.209 247.138 171.067 243.566 170.248 221.918C192.835 226.092 213.709 201.86 205.483 180.139C223.194 181.77 240.859 173.957 252.275 160.749Z" fill="#DF0586"/>
<mask id="mask0_2547_6161" style="mask-type:luminance" maskUnits="userSpaceOnUse" x="-1" y="0" width="298" height="346">
<path d="M252.279 160.749C257.559 154.638 261.503 147.374 263.494 139.355C275.659 136.126 300.921 113.554 296.053 100.332C294.303 98.7408 291.54 99.5778 289.356 100.483C246.619 118.196 201.335 129.752 155.336 134.683C163.274 122.973 162.549 106.877 153.25 96.1873C162.661 86.1446 172.84 70.754 168.137 56.6307C164.72 49.5512 154.076 48.7701 149.667 55.2798C160.391 41.729 165.629 23.232 163.722 6.05654C163.575 0.0114269 158.18 -2.63353 154.801 3.4583C141.134 23.7757 127.467 44.0936 113.801 64.4116C94.6802 96.1066 57.7737 126.919 66.3855 167.487C68.2325 171.614 67.5716 178.138 62.423 179.127C60.0349 179.496 57.7689 178.082 55.7935 176.689C46.0801 169.527 33.3045 160.172 21.0118 166.388C11.826 171.285 9.03024 184.132 0.0891724 189.138C-0.323975 189.37 -0.269073 189.971 0.175812 190.133C48.4994 207.721 42.2426 272.734 126.456 274.94C149.751 297.599 180.117 333.033 212.755 345.422C215.699 345.32 215.685 342.148 213.542 340.716C202.69 330.617 191.837 320.517 180.985 310.418C183.53 312.627 187.598 312.383 190.235 310.284C198.382 316.401 223.184 326.402 231.928 320.088C232.868 317.89 230.304 315.892 228.156 314.844C191.022 296.732 156.964 272.335 127.865 243.006C144.213 247.138 171.071 243.566 170.252 221.918C192.839 226.092 213.713 201.86 205.487 180.139C223.198 181.77 240.863 173.957 252.279 160.749Z" fill="white"/>
</mask>
<g mask="url(#mask0_2547_6161)">
<path d="M62.1069 186.621C64.7992 193.118 66.325 200.097 66.59 207.126C66.693 209.86 66.5031 212.871 64.6355 214.87C63.194 216.413 60.9518 217.046 58.8484 216.858C56.7449 216.671 54.7671 215.744 53.0143 214.566C53.9185 216.988 54.8466 218.941 55.188 221.503C55.5375 224.125 55.5031 227.041 53.8322 229.091C52.314 230.953 49.6733 231.67 47.3075 231.251C44.9417 230.832 42.8446 229.415 41.1927 227.671C39.5407 225.926 38.2807 223.855 37.0337 221.802C38.8482 229.951 43.0325 236.785 48.5828 243.022C54.1333 249.259 60.7653 254.433 67.5344 259.32C74.8901 264.631 82.509 269.676 90.8367 273.276C99.1643 276.875 108.28 278.991 117.319 278.224C119.561 278.033 121.838 277.651 123.808 276.564C125.778 275.478 127.409 273.58 127.682 271.347C127.955 269.114 126.562 266.654 124.368 266.161C126.348 265.855 128.033 263.389 128.641 261.479C129.25 259.569 129.076 257.501 128.731 255.526C127.235 246.986 122.513 239.052 115.721 233.664C119.135 235.194 124.08 233.459 126.712 230.798C129.343 228.138 130.104 223.805 128.536 220.407C130.885 222.153 134.733 221.133 136.791 219.052C138.849 216.972 139.489 213.772 138.971 210.892C138.453 208.011 136.914 205.409 135.113 203.102C141.279 203.276 148.476 202.762 154.115 200.263C159.755 197.765 164.376 191.82 163.258 185.754C162.487 181.568 159.16 178.202 155.329 176.349C151.497 174.496 147.185 173.932 142.948 173.532C155.953 171.924 168.996 166.191 178.701 157.385C188.406 148.58 195.303 136.726 198.164 123.938C177.774 127.796 157.857 133.269 137.467 137.127C126.606 139.182 115.729 141.241 105.081 144.208C96.3524 146.639 86.9757 150.36 82.875 158.439C80.7934 162.541 80.3737 167.248 79.659 171.792C78.9444 176.336 77.7792 181.066 74.6155 184.405C71.452 187.744 65.6067 189.606 62.1069 186.621Z" fill="#A30462"/>
</g>
<path d="M30.1761 177.506C29.7426 183.606 24.8628 186.347 18.7612 185.936C18.2387 182.392 18.6121 179.408 21.0736 177.729C22.9763 176.432 25.1771 176.163 30.1761 177.506Z" fill="white"/>
<path d="M30.1761 177.506C29.7426 183.606 24.8628 186.347 18.7612 185.936C18.2387 182.392 18.6121 179.408 21.0736 177.729C22.9763 176.432 25.1771 176.163 30.1761 177.506Z" fill="white"/>
<path d="M24.4657 183.24C24.576 181.689 23.407 180.346 21.8547 180.241C20.3024 180.137 18.9546 181.31 18.8443 182.862C18.734 184.414 19.9029 185.757 21.4552 185.861C23.0076 185.966 24.3554 184.792 24.4657 183.24Z" fill="#DF0586"/>
<path d="M22.0543 185.717C22.6916 185.162 22.7602 184.197 22.2074 183.562C21.6546 182.927 20.6898 182.862 20.0525 183.417C19.4151 183.972 19.3466 184.937 19.8993 185.572C20.4521 186.207 21.4169 186.272 22.0543 185.717Z" fill="#161616"/>
</g>
<defs>
<clipPath id="clip0_2547_6161">
<rect width="331" height="345" fill="white" transform="matrix(-1 0 0 1 331 0)"/>
</clipPath>
</defs>
</svg>
