<svg width="441" height="731" viewBox="0 0 441 731" fill="none" xmlns="http://www.w3.org/2000/svg">
<g clip-path="url(#clip0_2328_6472)">
<path d="M533.822 340.158C544.996 327.228 553.34 311.855 557.555 294.887C583.296 288.054 636.753 240.291 626.452 212.31C622.748 208.944 616.903 210.715 612.281 212.631C521.844 250.113 426.02 274.566 328.681 285C345.479 260.221 343.946 226.162 324.268 203.541C344.183 182.289 365.723 149.722 355.77 119.835C348.54 104.855 326.016 103.202 316.685 116.977C339.378 88.3021 350.462 49.1609 346.428 12.8162C346.117 0.0241804 334.7 -5.57278 327.551 7.31807C298.63 50.3115 269.71 93.3058 240.79 136.301C200.329 203.37 122.232 268.572 140.455 354.417C144.364 363.15 142.965 376.955 132.07 379.048C127.017 379.83 122.222 376.836 118.042 373.889C97.4873 358.733 70.4532 338.937 44.4407 352.091C25.0026 362.454 19.0867 389.64 0.166565 400.233C-0.707642 400.723 -0.591492 401.995 0.349976 402.337C102.607 439.556 89.3669 577.13 267.57 581.797C316.863 629.745 381.122 704.727 450.187 730.942C456.415 730.727 456.385 724.014 451.851 720.984C428.887 699.613 405.923 678.242 382.957 656.871C388.343 661.545 396.952 661.029 402.532 656.588C419.772 669.532 472.255 690.695 490.757 677.334C492.747 672.682 487.321 668.455 482.775 666.238C404.198 627.91 332.127 576.285 270.552 514.221C305.145 522.965 361.978 515.407 360.246 469.598C408.042 478.43 452.213 427.153 434.806 381.19C472.284 384.642 509.665 368.109 533.822 340.158Z" fill="#DF0586"/>
<mask id="mask0_2328_6472" style="mask-type:luminance" maskUnits="userSpaceOnUse" x="-1" y="0" width="629" height="731">
<path d="M339.374 0.905273C335.914 -0.361893 331.493 1.22791 327.981 7.56055L327.97 7.5791L327.958 7.59668C299.042 50.5831 270.127 93.5709 241.211 136.559H241.21C231.079 153.352 218.596 170.023 205.872 186.905C193.142 203.795 180.17 220.899 169.031 238.585C146.764 273.941 131.878 311.548 140.927 354.262C142.906 358.717 143.539 364.443 142.291 369.346C141.034 374.284 137.844 378.447 132.157 379.539L132.148 379.541L132.139 379.542C126.859 380.358 121.905 377.229 117.746 374.298L117.737 374.292C107.451 366.707 95.6022 358.008 83.0889 352.836C70.5923 347.671 57.4966 346.05 44.669 352.532H44.668C35.0787 357.644 28.8047 366.917 22.5176 376.353C16.2607 385.743 9.98808 395.303 0.403381 400.67C-0.0562194 400.927 -0.0419527 401.579 0.416077 401.824L0.512756 401.867C26.1817 411.21 44.5945 426.85 60.5518 445.094C68.528 454.213 75.8938 463.987 83.2442 473.948C90.5979 483.914 97.9336 494.064 105.862 503.961C121.715 523.75 139.915 542.493 165.252 556.584C190.587 570.674 223.092 580.132 267.575 581.297L267.771 581.302L267.91 581.438C292.588 605.443 320.936 636.136 351.792 664.149C382.609 692.127 415.851 717.352 450.26 730.437C451.675 730.37 452.691 729.948 453.373 729.347C454.07 728.733 454.459 727.901 454.55 726.971C454.734 725.095 453.7 722.827 451.565 721.4L451.532 721.378L451.503 721.351C428.539 699.979 405.574 678.608 382.609 657.237L383.277 656.493C388.45 660.982 396.787 660.514 402.213 656.196L402.516 655.956L402.824 656.188C411.383 662.615 428.756 671.119 446.306 676.347C455.077 678.959 463.867 680.745 471.603 681.05C479.287 681.353 485.853 680.19 490.342 677.009C491.146 674.979 490.413 673.007 488.833 671.202C487.218 669.356 484.79 667.781 482.548 666.688C403.92 628.335 331.804 576.677 270.19 514.573L268.921 513.295L270.667 513.736C287.887 518.089 310.64 518.379 328.845 511.896C337.942 508.656 345.877 503.735 351.429 496.812C356.974 489.899 360.167 480.957 359.738 469.617L359.715 468.993L360.329 469.106C384.02 473.484 406.841 462.968 421.588 445.618C436.334 428.269 442.958 404.147 434.331 381.366L434.047 380.618L434.844 380.691C472.149 384.128 509.376 367.669 533.436 339.831C544.562 326.956 552.867 311.653 557.062 294.767L557.133 294.479L557.419 294.403C563.773 292.717 571.886 288.487 580.336 282.626C588.778 276.77 597.525 269.307 605.148 261.187C612.773 253.064 619.256 244.301 623.191 235.846C627.108 227.431 628.467 219.394 626.017 212.603C624.321 211.116 622.135 210.739 619.755 210.987C617.327 211.241 614.765 212.139 612.464 213.093C521.984 250.593 426.113 275.058 328.727 285.497L327.654 285.612L328.26 284.72C344.935 260.123 343.407 226.314 323.883 203.869L323.587 203.528L323.896 203.198C333.831 192.595 344.157 179.186 350.757 164.719C357.352 150.261 360.207 134.796 355.299 120.024C351.769 112.739 344.514 108.673 336.971 108.121C330.221 107.627 323.295 109.951 318.651 115.243C318.13 115.93 317.604 116.612 317.069 117.287L316.264 116.696C316.765 115.956 317.306 115.262 317.877 114.608C339.411 86.24 349.847 48.2249 345.923 12.8711L345.921 12.8496L345.92 12.8281C345.768 6.5528 342.899 2.19627 339.374 0.905273Z" fill="white" stroke="white"/>
</mask>
<g mask="url(#mask0_2328_6472)">
<path d="M418.642 262.893C397.336 266.945 376.27 271.821 355.192 276.7C333.871 281.636 312.536 286.576 290.951 290.66C267.965 295.01 244.971 299.362 222.462 305.633C203.986 310.78 184.353 318.609 175.784 335.493C171.425 344.082 170.547 353.934 169.026 363.601C167.513 373.223 165.032 383.371 158.224 390.557C154.809 394.16 149.955 396.962 145.001 398.062C140.646 399.03 136.163 398.689 132.522 396.357C137.825 409.691 140.836 423.933 141.377 438.272C141.595 444.054 141.214 450.624 137.107 455.021C133.928 458.424 129.017 459.792 124.451 459.385C120.401 459.023 116.587 457.401 113.161 455.282C114.884 459.75 116.583 463.674 117.246 468.649C117.988 474.213 117.946 480.575 114.269 485.087C110.917 489.198 105.131 490.745 99.9874 489.834C94.8422 488.922 90.3135 485.851 86.7715 482.11C83.9709 479.153 81.7026 475.76 79.5714 472.323C83.7164 488.115 92.1489 501.56 103.147 513.918C114.854 527.074 128.852 537.997 143.169 548.334C158.726 559.566 174.813 570.217 192.384 577.812C209.953 585.405 229.158 589.857 248.184 588.242C252.908 587.841 257.641 587.038 261.715 584.792C265.787 582.546 269.105 578.649 269.657 574.128C270.21 569.601 267.371 564.678 263.03 563.703L263.064 562.721C264.986 562.424 266.826 561.062 268.366 559.214C269.899 557.375 271.082 555.117 271.707 553.156C272.956 549.235 272.608 544.957 271.88 540.798C268.736 522.847 258.809 506.165 244.531 494.84L245.047 493.992C248.517 495.547 252.809 495.457 256.954 494.261C261.095 493.065 265.027 490.781 267.745 488.033C273.166 482.552 274.737 473.606 271.508 466.605L272.26 465.994C274.598 467.732 277.72 468.119 280.83 467.509C283.939 466.899 286.971 465.304 289.073 463.178C293.285 458.919 294.624 452.329 293.55 446.349C292.475 440.369 289.273 434.937 285.484 430.084L284.831 429.247L285.894 429.277C298.919 429.646 314.057 428.554 325.887 423.312C337.697 418.08 347.253 405.682 344.944 393.156C343.35 384.505 336.454 377.49 328.44 373.614C320.421 369.737 311.377 368.549 302.411 367.703L302.397 366.709C329.82 363.317 357.323 351.227 377.778 332.666C398.049 314.273 412.511 289.568 418.642 262.893Z" fill="#A30462" stroke="#FFD007"/>
</g>
<path d="M63.8676 375.625C62.9501 388.533 52.624 394.334 39.7125 393.464C38.6069 385.965 39.3971 379.651 44.6058 376.098C48.6321 373.352 53.2892 372.783 63.8676 375.625Z" fill="white"/>
<path d="M63.8676 375.625C62.9501 388.533 52.624 394.334 39.7125 393.464C38.6069 385.965 39.3971 379.651 44.6058 376.098C48.6321 373.352 53.2892 372.783 63.8676 375.625Z" fill="white"/>
<path d="M51.7898 387.753C52.0232 384.469 49.5496 381.628 46.2647 381.407C42.9799 381.185 40.1278 383.668 39.8944 386.952C39.661 390.236 42.1346 393.078 45.4195 393.299C48.7043 393.52 51.5564 391.037 51.7898 387.753Z" fill="#DF0586"/>
<path d="M46.681 392.998C48.0297 391.824 48.1748 389.783 47.005 388.439C45.8353 387.095 43.7937 386.958 42.445 388.132C41.0963 389.306 40.9513 391.347 42.121 392.691C43.2907 394.034 45.3323 394.172 46.681 392.998Z" fill="#161616"/>
</g>
<defs>
<clipPath id="clip0_2328_6472">
<rect width="440.628" height="731" fill="white" transform="matrix(-1 0 0 1 440.628 0)"/>
</clipPath>
</defs>
</svg>
