<svg width="441" height="737" viewBox="0 0 441 737" fill="none" xmlns="http://www.w3.org/2000/svg">
<g clip-path="url(#clip0_2328_6459)">
<path d="M-93.2014 346.158C-104.375 333.228 -112.72 317.855 -116.935 300.887C-142.676 294.054 -196.133 246.291 -185.832 218.31C-182.128 214.944 -176.283 216.715 -171.66 218.631C-81.2241 256.113 14.6004 280.566 111.939 291C95.1407 266.221 96.6737 232.162 116.352 209.541C96.4375 188.289 74.8969 155.722 84.8498 125.835C92.0803 110.855 114.604 109.202 123.935 122.977C101.242 94.3021 90.1577 55.1609 94.1921 18.8162C94.5027 6.02418 105.92 0.427218 113.07 13.3181C141.99 56.3115 170.91 99.3058 199.831 142.301C240.291 209.37 318.388 274.572 300.165 360.417C296.256 369.15 297.655 382.955 308.55 385.048C313.603 385.83 318.398 382.836 322.578 379.889C343.133 364.733 370.167 344.937 396.179 358.091C415.618 368.454 421.534 395.64 440.454 406.233C441.328 406.723 441.212 407.995 440.27 408.337C338.013 445.556 351.253 583.13 173.05 587.797C123.757 635.745 59.4986 710.727 -9.56638 736.942C-15.795 736.727 -15.765 730.014 -11.2308 726.984C11.733 705.613 34.6977 684.242 57.6627 662.871C52.277 667.545 43.6682 667.029 38.0881 662.588C20.8485 675.532 -31.6344 696.695 -50.137 683.334C-52.1272 678.682 -46.7005 674.455 -42.1548 672.238C36.4225 633.91 108.493 582.285 170.068 520.221C135.476 528.965 78.6423 521.407 80.3742 475.598C32.5778 484.43 -11.5925 433.153 5.81407 387.19C-31.6635 390.642 -69.0448 374.109 -93.2014 346.158Z" fill="#DF0586"/>
<mask id="mask0_2328_6459" style="mask-type:luminance" maskUnits="userSpaceOnUse" x="-188" y="6" width="630" height="731">
<path d="M101.238 6.90527C104.698 5.63811 109.12 7.22791 112.632 13.5605L112.643 13.5791L112.654 13.5967C141.57 56.5831 170.486 99.5709 199.401 142.559H199.402C209.533 159.352 222.016 176.023 234.74 192.905C247.47 209.795 260.442 226.899 271.581 244.585C293.848 279.941 308.735 317.548 299.686 360.262C297.706 364.717 297.073 370.443 298.321 375.346C299.578 380.284 302.769 384.447 308.455 385.539L308.464 385.541L308.474 385.542C313.753 386.358 318.708 383.229 322.866 380.298L322.875 380.292C333.161 372.707 345.01 364.008 357.523 358.836C370.02 353.671 383.116 352.05 395.943 358.532H395.944C405.534 363.644 411.808 372.917 418.095 382.353C424.352 391.743 430.624 401.303 440.209 406.67C440.669 406.927 440.654 407.579 440.196 407.824L440.1 407.867C414.431 417.21 396.018 432.85 380.061 451.094C372.084 460.213 364.719 469.987 357.368 479.948C350.014 489.914 342.679 500.064 334.75 509.961C318.897 529.75 300.697 548.493 275.36 562.584C250.025 576.674 217.521 586.132 173.037 587.297L172.842 587.302L172.702 587.438C148.024 611.443 119.676 642.136 88.8203 670.149C58.0032 698.127 24.7613 723.352 -9.64746 736.437C-11.0628 736.37 -12.0785 735.948 -12.7607 735.347C-13.4575 734.733 -13.8462 733.901 -13.9375 732.971C-14.1214 731.095 -13.088 728.827 -10.9531 727.4L-10.9199 727.378L-10.8906 727.351C12.0731 705.979 35.038 684.608 58.0029 663.237L57.335 662.493C52.1627 666.982 43.8257 666.514 38.3994 662.196L38.0967 661.956L37.7881 662.188C29.229 668.615 11.8568 677.119 -5.69336 682.347C-14.4643 684.959 -23.2548 686.745 -30.9902 687.05C-38.6743 687.353 -45.2407 686.19 -49.7295 683.009C-50.534 680.979 -49.8002 679.007 -48.2207 677.202C-46.6056 675.356 -44.1775 673.781 -41.9355 672.688C36.6921 634.335 108.808 582.677 170.423 520.573L171.691 519.295L169.945 519.736C152.725 524.089 129.973 524.379 111.768 517.896C102.67 514.656 94.7352 509.735 89.1836 502.812C83.6387 495.899 80.4453 486.957 80.874 475.617L80.8975 474.993L80.2832 475.106C56.5921 479.484 33.7718 468.968 19.0244 451.618C4.27788 434.269 -2.34579 410.147 6.28125 387.366L6.56543 386.618L5.76855 386.691C-31.5364 390.128 -68.7641 373.669 -92.8232 345.831C-103.95 332.956 -112.255 317.653 -116.449 300.767L-116.521 300.479L-116.807 300.403C-123.161 298.717 -131.274 294.487 -139.724 288.626C-148.166 282.77 -156.912 275.307 -164.535 267.187C-172.16 259.064 -178.644 250.301 -182.579 241.846C-186.495 233.431 -187.855 225.394 -185.404 218.603C-183.709 217.116 -181.523 216.739 -179.143 216.987C-176.715 217.241 -174.152 218.139 -171.852 219.093C-81.3712 256.593 14.4998 281.058 111.886 291.497L112.958 291.612L112.353 290.72C95.6776 266.123 97.205 232.314 116.729 209.869L117.025 209.528L116.717 209.198C106.781 198.595 96.4553 185.186 89.8555 170.719C83.26 156.261 80.4055 140.796 85.3135 126.024C88.8436 118.739 96.098 114.673 103.642 114.121C110.391 113.627 117.317 115.951 121.961 121.243C122.482 121.93 123.009 122.612 123.543 123.287L124.349 122.696C123.847 121.956 123.307 121.262 122.735 120.608C101.202 92.24 90.765 54.2249 94.6895 18.8711L94.6914 18.8496L94.6924 18.8281C94.8448 12.5528 97.7132 8.19627 101.238 6.90527Z" fill="white" stroke="white"/>
</mask>
<g mask="url(#mask0_2328_6459)">
<path d="M21.9707 268.893C43.2764 272.945 64.3427 277.821 85.4199 282.7C106.742 287.636 128.076 292.576 149.661 296.66C172.647 301.01 195.642 305.362 218.15 311.633C236.626 316.78 256.259 324.609 264.828 341.493C269.187 350.082 270.066 359.934 271.586 369.601C273.099 379.223 275.58 389.371 282.389 396.557C285.803 400.16 290.657 402.962 295.611 404.062C299.967 405.03 304.449 404.689 308.091 402.357C302.787 415.691 299.776 429.933 299.235 444.272C299.017 450.054 299.399 456.624 303.505 461.021C306.684 464.424 311.595 465.792 316.161 465.385C320.212 465.023 324.025 463.401 327.451 461.282C325.728 465.75 324.029 469.674 323.366 474.649C322.625 480.213 322.666 486.575 326.344 491.087C329.695 495.198 335.481 496.745 340.625 495.834C345.77 494.922 350.299 491.851 353.841 488.11C356.641 485.153 358.91 481.76 361.041 478.323C356.896 494.115 348.463 507.56 337.466 519.918C325.758 533.074 311.761 543.997 297.443 554.334C281.886 565.566 265.799 576.217 248.229 583.812C230.659 591.405 211.454 595.857 192.429 594.242C187.705 593.841 182.971 593.038 178.897 590.792C174.825 588.546 171.507 584.649 170.955 580.128C170.402 575.601 173.241 570.678 177.582 569.703L177.549 568.721C175.626 568.424 173.786 567.062 172.246 565.214C170.713 563.375 169.53 561.117 168.905 559.156C167.656 555.235 168.004 550.957 168.732 546.798C171.876 528.847 181.803 512.165 196.081 500.84L195.565 499.992C192.096 501.547 187.803 501.457 183.658 500.261C179.517 499.065 175.585 496.781 172.867 494.033C167.446 488.552 165.875 479.606 169.104 472.605L168.353 471.994C166.014 473.732 162.893 474.119 159.782 473.509C156.674 472.899 153.642 471.304 151.539 469.178C147.328 464.919 145.988 458.329 147.062 452.349C148.137 446.369 151.34 440.937 155.128 436.084L155.781 435.247L154.719 435.277C141.694 435.646 126.555 434.554 114.726 429.312C102.915 424.08 93.3598 411.682 95.668 399.156C97.2622 390.505 104.158 383.49 112.173 379.614C120.192 375.737 129.236 374.549 138.201 373.703L138.216 372.709C110.792 369.317 83.2891 357.227 62.834 338.666C42.5629 320.273 28.1015 295.568 21.9707 268.893Z" fill="#A30462" stroke="#FFD007"/>
</g>
<path d="M370.901 382.617C371.819 395.525 382.145 401.326 395.056 400.456C396.162 392.957 395.372 386.644 390.163 383.091C386.137 380.344 381.479 379.775 370.901 382.617Z" fill="white"/>
<path d="M370.901 382.617C371.819 395.525 382.145 401.326 395.056 400.456C396.162 392.957 395.372 386.644 390.163 383.091C386.137 380.344 381.479 379.775 370.901 382.617Z" fill="white"/>
<path d="M382.416 394.746C382.183 391.462 384.657 388.62 387.941 388.399C391.226 388.178 394.078 390.66 394.312 393.944C394.545 397.228 392.071 400.07 388.787 400.291C385.502 400.512 382.65 398.03 382.416 394.746Z" fill="#DF0586"/>
<path d="M387.439 399.998C386.09 398.824 385.945 396.783 387.115 395.439C388.285 394.095 390.326 393.958 391.675 395.132C393.024 396.306 393.169 398.347 391.999 399.691C390.829 401.034 388.788 401.172 387.439 399.998Z" fill="#161616"/>
</g>
<defs>
<clipPath id="clip0_2328_6459">
<rect width="441" height="737" fill="white"/>
</clipPath>
</defs>
</svg>
