<svg width="205" height="344" viewBox="0 0 205 344" fill="none" xmlns="http://www.w3.org/2000/svg">
<g clip-path="url(#clip0_2547_6147)">
<path d="M-45.7944 159.801C-51.0438 153.727 -54.9638 146.505 -56.9439 138.533C-69.0369 135.323 -94.15 112.885 -89.3105 99.74C-87.5707 98.1586 -84.8246 98.9907 -82.6532 99.8907C-40.1676 117.499 4.84916 128.987 50.5772 133.888C42.6857 122.248 43.4059 106.247 52.6504 95.6201C43.295 85.6366 33.1755 70.3369 37.8512 56.2968C41.248 49.2591 51.8294 48.4825 56.2127 54.9539C45.5519 41.4829 40.3448 23.095 42.2401 6.02083C42.386 0.0113595 47.7497 -2.618 51.1084 3.43791C64.6947 23.6355 78.281 43.8336 91.8673 64.0318C110.875 95.5399 147.564 126.171 139.003 166.499C137.167 170.602 137.824 177.088 142.942 178.071C145.316 178.438 147.569 177.032 149.532 175.647C159.188 168.527 171.889 159.227 184.109 165.407C193.241 170.275 196.02 183.047 204.908 188.023C205.319 188.253 205.264 188.851 204.822 189.012C156.783 206.496 163.003 271.126 79.2864 273.319C56.1293 295.844 25.9417 331.07 -6.50399 343.385C-9.43012 343.284 -9.41603 340.13 -7.2859 338.707C3.50212 328.667 14.2906 318.627 25.0792 308.588C22.549 310.783 18.5048 310.541 15.8833 308.455C7.78443 314.535 -16.8712 324.478 -25.5634 318.201C-26.4984 316.015 -23.949 314.03 -21.8135 312.988C15.1008 294.982 48.9584 270.73 77.8854 241.573C61.6344 245.681 34.935 242.13 35.7487 220.61C13.2947 224.759 -7.45582 200.67 0.721497 179.077C-16.8849 180.699 -34.446 172.932 -45.7944 159.801Z" fill="#DF0586"/>
<mask id="mask0_2547_6147" style="mask-type:luminance" maskUnits="userSpaceOnUse" x="-90" y="0" width="296" height="344">
<path d="M-45.7944 159.801C-51.0438 153.727 -54.9638 146.505 -56.9439 138.533C-69.0369 135.323 -94.15 112.885 -89.3105 99.74C-87.5707 98.1586 -84.8246 98.9907 -82.6532 99.8907C-40.1676 117.499 4.84916 128.987 50.5772 133.888C42.6857 122.248 43.4059 106.247 52.6504 95.6201C43.295 85.6366 33.1755 70.3369 37.8512 56.2968C41.248 49.2591 51.8294 48.4825 56.2127 54.9539C45.5519 41.4829 40.3448 23.095 42.2401 6.02083C42.386 0.0113595 47.7497 -2.618 51.1084 3.43791C64.6947 23.6355 78.281 43.8336 91.8673 64.0318C110.875 95.5399 147.564 126.171 139.003 166.499C137.167 170.602 137.824 177.088 142.942 178.071C145.316 178.438 147.569 177.032 149.532 175.647C159.188 168.527 171.889 159.227 184.109 165.407C193.241 170.275 196.02 183.047 204.908 188.023C205.319 188.253 205.264 188.851 204.822 189.012C156.783 206.496 163.003 271.126 79.2864 273.319C56.1293 295.844 25.9417 331.07 -6.50399 343.385C-9.43012 343.284 -9.41603 340.13 -7.2859 338.707C3.50212 328.667 14.2906 318.627 25.0792 308.588C22.549 310.783 18.5048 310.541 15.8833 308.455C7.78443 314.535 -16.8712 324.478 -25.5634 318.201C-26.4984 316.015 -23.949 314.03 -21.8135 312.988C15.1008 294.982 48.9584 270.73 77.8854 241.573C61.6344 245.681 34.935 242.13 35.7487 220.61C13.2947 224.759 -7.45582 200.67 0.721497 179.077C-16.8849 180.699 -34.446 172.932 -45.7944 159.801Z" fill="white"/>
</mask>
<g mask="url(#mask0_2547_6147)">
<path d="M143.263 185.524C140.586 191.984 139.07 198.922 138.806 205.909C138.704 208.627 138.892 211.62 140.749 213.608C142.182 215.142 144.411 215.771 146.502 215.584C148.593 215.397 150.559 214.476 152.302 213.306C151.403 215.713 150.48 217.654 150.141 220.201C149.793 222.807 149.828 225.707 151.489 227.744C152.998 229.595 155.623 230.308 157.975 229.891C160.327 229.475 162.411 228.067 164.054 226.333C165.696 224.598 166.948 222.54 168.188 220.498C166.384 228.6 162.225 235.393 156.707 241.593C151.189 247.793 144.596 252.937 137.867 257.795C130.555 263.074 122.981 268.09 114.702 271.669C106.424 275.247 97.3624 277.35 88.3758 276.587C86.1476 276.398 83.8835 276.018 81.9252 274.938C79.967 273.858 78.3452 271.971 78.0743 269.751C77.8033 267.531 79.1875 265.086 81.3692 264.596C79.4001 264.292 77.7257 261.84 77.1209 259.941C76.516 258.043 76.6883 255.987 77.0319 254.024C78.5187 245.534 83.2127 237.646 89.9652 232.29C86.5708 233.811 81.6547 232.086 79.039 229.442C76.4233 226.797 75.6668 222.489 77.2251 219.112C74.8903 220.847 71.0647 219.834 69.019 217.765C66.9732 215.696 66.3374 212.516 66.8519 209.652C67.3664 206.789 68.8967 204.202 70.6868 201.909C64.5574 202.082 57.4028 201.57 51.7967 199.087C46.1904 196.603 41.5964 190.693 42.7077 184.663C43.4743 180.502 46.7817 177.155 50.5904 175.313C54.3993 173.471 58.6861 172.911 62.8983 172.513C49.9699 170.914 37.0035 165.215 27.3561 156.462C17.7086 147.708 10.8518 135.924 8.00781 123.211C28.2777 127.046 48.0776 132.488 68.3475 136.323C79.1444 138.366 89.9568 140.413 100.542 143.362C109.219 145.779 118.541 149.477 122.617 157.509C124.686 161.587 125.104 166.267 125.814 170.784C126.525 175.301 127.683 180.003 130.828 183.322C133.973 186.641 139.784 188.492 143.263 185.524Z" fill="#A30462"/>
</g>
<path d="M-33.748 99.835C-33.7468 99.838 -33.7456 99.8412 -33.7441 99.8447C-33.7332 99.8712 -33.7162 99.9116 -33.6924 99.9619C-33.6447 100.062 -33.5706 100.205 -33.4648 100.369C-33.2524 100.698 -32.9154 101.111 -32.4189 101.449C-31.439 102.116 -29.7869 102.524 -27.1182 101.301C-24.4585 100.081 -23.3284 98.0863 -22.2617 96.54C-21.7334 95.7742 -21.2062 95.098 -20.499 94.7266C-19.778 94.348 -18.9023 94.3002 -17.7109 94.7119C-16.5785 95.1032 -15.7811 95.1065 -15.1748 94.9287C-14.5665 94.7503 -14.1241 94.3828 -13.7109 93.9775C-13.3089 93.5832 -12.912 93.1251 -12.4297 92.8506C-11.924 92.5629 -11.3269 92.4723 -10.5205 92.7559C-9.79682 93.0103 -9.29744 92.9715 -8.89746 92.8018C-8.48492 92.6267 -8.15566 92.3044 -7.78125 91.9326C-7.41481 91.5687 -7.00945 91.1637 -6.4668 90.8896C-5.91711 90.612 -5.23814 90.4736 -4.32422 90.6123C-3.44047 90.7465 -2.77676 90.8807 -2.2373 90.998C-1.69467 91.1161 -1.28912 91.2145 -0.905273 91.2803C-0.155246 91.4088 0.499606 91.4112 1.8418 91.1475C2.20399 91.0763 2.50512 91.0904 2.75488 91.1875C3.00747 91.2858 3.18764 91.4614 3.32031 91.6758C3.45081 91.8867 3.53781 92.1391 3.6084 92.4004C3.6786 92.6603 3.73748 92.9492 3.80078 93.2256C3.93066 93.7928 4.08819 94.3348 4.42773 94.7383C4.75705 95.1295 5.27844 95.413 6.19238 95.4131C8.06293 95.4131 9.1873 94.852 10.1289 94.2842C11.0645 93.72 11.8783 93.1006 13.0625 93.1006C14.1593 93.1006 15.7536 92.7873 17.5713 92.4668C19.3767 92.1484 21.3852 91.8272 23.2734 91.8271C24.2621 91.8271 24.9785 92.1863 25.583 92.7031C26.1741 93.2085 26.6757 93.8833 27.2109 94.4941C27.7548 95.1148 28.3527 95.6968 29.1699 96.082C29.9847 96.4661 31.0338 96.6624 32.4893 96.4824C33.9575 96.3008 35.2102 95.9522 36.3418 95.583C37.4653 95.2164 38.4938 94.8203 39.4756 94.5586C40.4659 94.2946 41.4358 94.159 42.4707 94.3135C43.5061 94.468 44.5918 94.9109 45.8203 95.7812C47.0431 96.6477 47.8913 97.4673 48.5889 98.1748C49.2913 98.8871 49.824 99.4657 50.4365 99.8809C51.6292 100.689 53.1521 100.893 56.8818 99.916C58.7449 99.4279 60.046 98.9864 61.0146 98.6357C61.9745 98.2883 62.6334 98.0205 63.1846 97.8945C63.7548 97.7643 64.2252 97.7808 64.8203 97.9922C65.4006 98.1984 66.1039 98.5913 67.1445 99.2012C69.1587 100.381 70.793 99.9172 72.2949 99.4004C73.0396 99.1441 73.7742 98.8656 74.4863 98.7979C75.2145 98.7286 75.9267 98.8776 76.6299 99.4648C77.9462 100.564 79.0267 101.33 80.1514 101.768C81.27 102.203 82.4459 102.318 83.959 102.091C87.0415 101.627 88.1841 101.553 89.9922 102.216C90.3913 102.362 91.0439 102.395 91.7354 102.322C92.4232 102.25 93.1137 102.076 93.5811 101.84C93.8165 101.721 93.9765 101.595 94.0586 101.475C94.1323 101.367 94.1448 101.265 94.0879 101.147C94.0226 101.013 93.8575 100.841 93.5244 100.646C93.1953 100.452 92.7211 100.247 92.0684 100.035C90.7725 99.6143 89.7813 99.5562 88.9697 99.6377C88.1496 99.72 87.5161 99.9421 86.8936 100.1C86.2768 100.256 85.6819 100.343 85.0098 100.102C84.345 99.8631 83.6314 99.3133 82.7432 98.2627C80.9792 96.1762 79.5358 94.5501 77.8535 93.5898C76.1859 92.6381 74.2668 92.3323 71.5322 92.9365C70.11 93.2508 69.0796 93.0838 68.2354 92.6553C67.4026 92.2325 66.7642 91.5608 66.1221 90.9131C65.473 90.2583 64.8118 89.6178 63.9131 89.1943C63.0195 88.7733 61.8755 88.5595 60.2568 88.7949C58.6173 89.0334 57.1057 89.3077 55.7217 89.4697C54.3332 89.6323 53.0472 89.686 51.8389 89.4814C49.4014 89.0687 47.324 87.6118 45.3252 84.0264C44.3293 82.2399 43.652 80.5841 43.0645 79.1455C42.4742 77.7005 41.98 76.4897 41.3477 75.5635C40.7216 74.6465 39.966 74.0185 38.8545 73.7344C37.7327 73.4477 36.2281 73.5061 34.0957 74.0098C29.7392 75.0389 25.8376 73.4982 23.0547 72.1875C22.7065 72.0235 22.3748 71.8626 22.0625 71.7109C21.7499 71.5591 21.4563 71.4167 21.1826 71.2881C20.6326 71.0297 20.1727 70.8333 19.8037 70.7334C19.4244 70.6307 19.1971 70.6456 19.0674 70.7314C18.9468 70.8113 18.8428 71.001 18.8428 71.4434C18.8428 72.3442 18.9907 73.3249 19.1523 74.2939C19.3128 75.2557 19.4873 76.2111 19.5293 77.0361C19.5709 77.8544 19.4869 78.5995 19.0791 79.1055C18.6592 79.6262 17.9456 79.8397 16.8721 79.7139C15.7454 79.5818 14.7963 78.7289 13.9482 77.6035C13.0963 76.473 12.3118 75.0199 11.5312 73.6172C10.7459 72.206 9.96449 70.8465 9.11035 69.8691C8.25512 68.8906 7.3625 68.3352 6.35547 68.4473C4.20248 68.6869 3.07865 69.4621 2.18164 70.0977C1.73483 70.4142 1.32063 70.7144 0.862305 70.8818C0.391627 71.0537 -0.118235 71.0844 -0.759766 70.8896C-1.12145 70.7798 -1.35957 70.5382 -1.50586 70.2197C-1.6485 69.9091 -1.70467 69.5245 -1.71875 69.1113C-1.7329 68.6961 -1.70484 68.2345 -1.66699 67.7617C-1.62882 67.2849 -1.58104 66.7988 -1.55371 66.3193C-1.49863 65.3528 -1.53265 64.4777 -1.86133 63.876C-2.02156 63.5827 -2.25224 63.354 -2.58496 63.21C-2.92132 63.0644 -3.37489 62.9994 -3.98633 63.0586C-6.53291 63.3051 -8.95231 63.0635 -10.7939 61.8018C-12.6445 60.5337 -13.8705 58.2652 -14.0928 54.5547C-14.3093 50.9397 -15.9837 48.6679 -17.8027 47.4766C-18.7146 46.8794 -19.6622 46.5542 -20.4824 46.4658C-21.3094 46.3767 -21.977 46.5306 -22.3613 46.8516C-22.8275 47.2409 -23.6668 47.661 -24.6797 47.9932C-25.697 48.3268 -26.9079 48.5776 -28.1279 48.6143C-30.3104 48.6798 -32.5666 48.0576 -33.748 45.958V99.835Z" fill="#FFECE1" stroke="black" stroke-width="0.378485"/>
<path d="M172.253 176.933C172.684 182.997 177.535 185.722 183.601 185.313C184.12 181.791 183.749 178.824 181.302 177.155C179.411 175.865 177.223 175.598 172.253 176.933Z" fill="white"/>
<path d="M172.253 176.933C172.684 182.997 177.535 185.722 183.601 185.313C184.12 181.791 183.749 178.824 181.302 177.155C179.411 175.865 177.223 175.598 172.253 176.933Z" fill="white"/>
<path d="M177.655 182.63C177.545 181.087 178.707 179.752 180.25 179.648C181.793 179.544 183.133 180.711 183.243 182.253C183.353 183.796 182.19 185.131 180.647 185.235C179.104 185.339 177.764 184.173 177.655 182.63Z" fill="#DF0586"/>
<path d="M180.019 185.092C179.385 184.54 179.317 183.582 179.867 182.95C180.416 182.319 181.375 182.254 182.009 182.806C182.643 183.358 182.711 184.316 182.161 184.948C181.612 185.579 180.653 185.644 180.019 185.092Z" fill="#161616"/>
</g>
<defs>
<clipPath id="clip0_2547_6147">
<rect width="207" height="343.412" fill="white" transform="translate(-2)"/>
</clipPath>
</defs>
</svg>
