<svg width="301" height="303" viewBox="0 0 301 303" fill="none" xmlns="http://www.w3.org/2000/svg">
<path d="M97.1513 102.026C96.3799 102.883 95.5275 103.489 94.5938 103.844C93.6584 104.165 92.6588 104.234 91.5949 104.052C90.5472 103.852 89.4504 103.365 88.3047 102.592L87.8949 103.047L92.0762 106.909L88.8462 110.496L82.4216 104.711L69.7332 93.2855L73.6381 88.9489L78.162 93.0226C78.6082 93.4243 79.049 93.8858 79.4844 94.4072C79.918 94.8946 80.3712 95.432 80.8441 96.0194C81.2992 96.5907 81.756 97.1959 82.2145 97.8351L82.6966 97.2997C81.8901 96.1857 81.3415 95.1261 81.0508 94.1211C80.7422 93.1 80.6996 92.1245 80.923 91.1945C81.1464 90.2646 81.6357 89.3803 82.3909 88.5415C83.4194 87.3994 84.6057 86.6741 85.9499 86.3656C87.2941 86.0571 88.7283 86.1691 90.2526 86.7014C91.7768 87.2337 93.3242 88.2069 94.8946 89.621C96.4651 91.0352 97.5866 92.4813 98.2591 93.9594C98.9299 95.4037 99.1741 96.8193 98.9917 98.2062C98.8093 99.5931 98.1958 100.866 97.1513 102.026ZM92.2492 100.472C92.7634 99.9012 93.0527 99.2569 93.1172 98.5394C93.1638 97.8057 92.9971 97.0578 92.617 96.2955C92.2192 95.5171 91.6366 94.7824 90.8692 94.0914C90.084 93.3844 89.2924 92.8817 88.4946 92.5834C87.7129 92.2673 86.9677 92.1618 86.259 92.2669C85.5664 92.3542 84.9549 92.6923 84.4246 93.2812C84.1033 93.6381 83.8773 94.0325 83.7469 94.4645C83.5987 94.8804 83.5281 95.3177 83.5351 95.7764C83.5582 96.2173 83.6411 96.6636 83.7837 97.1152C83.9264 97.5669 84.1369 98.015 84.4153 98.4595C84.6919 98.8701 85.0354 99.2602 85.4458 99.6298L85.9009 100.04C86.3471 100.441 86.8414 100.79 87.384 101.084C87.9426 101.361 88.5129 101.535 89.0948 101.607C89.6767 101.678 90.2354 101.632 90.7709 101.468C91.3225 101.286 91.8153 100.954 92.2492 100.472Z" fill="#FFD007"/>
<path d="M107.939 90.7938C106.605 91.7346 105.302 92.388 104.033 92.7541C102.769 93.0868 101.551 93.1517 100.38 92.949C99.2087 92.7462 98.1074 92.2884 97.0762 91.5756C96.0311 90.8432 95.0796 89.8685 94.2218 88.6515C93.3779 87.4542 92.763 86.2276 92.3773 84.9717C91.9973 83.6823 91.8614 82.4266 91.9696 81.2045C92.0836 79.9489 92.486 78.7692 93.1769 77.6652C93.854 76.5416 94.8304 75.5301 96.1063 74.6308C97.3626 73.7454 98.614 73.1865 99.8605 72.9542C101.113 72.6885 102.327 72.7436 103.503 73.1195C104.665 73.4757 105.767 74.1234 106.811 75.0623C107.861 75.9679 108.815 77.1757 109.674 78.6858L97.8115 87.1791L96.0474 84.6764L104.936 78.2792L104.424 80.4912C103.883 79.4325 103.281 78.682 102.616 78.2395C101.958 77.7636 101.289 77.5444 100.61 77.582C99.9514 77.6058 99.3176 77.8321 98.7091 78.261C98.0025 78.7591 97.5254 79.3745 97.278 80.1071C97.0501 80.826 97.0576 81.6286 97.3005 82.5151C97.5296 83.382 97.9969 84.316 98.7025 85.3171C99.837 86.9266 100.984 87.8663 102.144 88.136C103.323 88.3918 104.452 88.1393 105.532 87.3783C106.042 87.0186 106.416 86.6525 106.653 86.2798C106.896 85.8738 107.049 85.4867 107.112 85.1186C107.162 84.7309 107.149 84.3581 107.073 84.0003C106.984 83.6228 106.855 83.273 106.686 82.9509L111.365 80.7106C111.785 81.4726 112.059 82.2784 112.188 83.1278C112.303 83.9577 112.241 84.8088 112.004 85.6811C111.787 86.5396 111.346 87.3939 110.682 88.244C110.051 89.0999 109.137 89.9498 107.939 90.7938Z" fill="#FFD007"/>
<path d="M125.756 81.1246L123.828 72.1067L121.78 62.5252L126.5 61.516L127.979 68.0883L128.577 67.9602C128.375 66.2107 128.389 64.7834 128.62 63.6782C128.845 62.5495 129.297 61.6792 129.977 61.0673C130.675 60.427 131.599 59.9838 132.75 59.7378C133.009 59.6825 133.284 59.6483 133.575 59.635C133.867 59.6217 134.199 59.6244 134.572 59.643L135.671 65.8176C135.203 65.6966 134.727 65.6511 134.242 65.681C133.776 65.6825 133.366 65.7209 133.014 65.7962C132.145 65.9819 131.434 66.3305 130.88 66.8418C130.345 67.3246 129.981 67.9794 129.79 68.8062C129.598 69.633 129.576 70.62 129.723 71.7673L131.462 79.9046L125.756 81.1246Z" fill="#FFD007"/>
<path d="M145.607 77.9462C143.974 77.9833 142.529 77.8 141.27 77.3962C140.036 76.9679 138.988 76.3431 138.129 75.5219C137.27 74.7007 136.61 73.7068 136.152 72.5402C135.692 71.3496 135.445 70.01 135.412 68.5215C135.378 67.057 135.552 65.6959 135.931 64.4381C136.335 63.1559 136.922 62.0375 137.693 61.0832C138.487 60.1043 139.479 59.3491 140.668 58.8177C141.856 58.2622 143.231 57.9667 144.791 57.9312C146.328 57.8963 147.678 58.1299 148.843 58.6318C150.031 59.1093 151.008 59.8317 151.775 60.7992C152.541 61.7426 153.095 62.895 153.439 64.2564C153.805 65.5932 153.924 67.1279 153.795 68.8603L139.213 69.2999L139.143 66.2388L150.089 65.8819L148.43 67.4329C148.572 66.2527 148.49 65.2937 148.185 64.556C147.903 63.7937 147.47 63.239 146.886 62.892C146.325 62.5444 145.673 62.3791 144.929 62.396C144.065 62.4157 143.325 62.6607 142.712 63.131C142.122 63.6008 141.681 64.2714 141.388 65.1428C141.095 65.9902 140.963 67.0261 140.99 68.2506C141.035 70.2193 141.464 71.6388 142.276 72.5091C143.113 73.3789 144.191 73.7987 145.512 73.7687C146.136 73.7545 146.65 73.6588 147.054 73.4814C147.482 73.2795 147.825 73.0435 148.083 72.7734C148.341 72.4793 148.538 72.1626 148.674 71.8232C148.81 71.4598 148.898 71.0975 148.938 70.7363L154.071 71.4843C153.995 72.3508 153.773 73.1726 153.407 73.9496C153.039 74.7026 152.514 75.3751 151.831 75.9671C151.172 76.5586 150.33 77.0221 149.304 77.3577C148.304 77.7168 147.071 77.9129 145.607 77.9462Z" fill="#FFD007"/>
<path d="M153.945 77.0699L155.845 65.4086L157.004 58.298L161.591 59.0455L160.671 65.1366L161.275 65.2351C161.807 63.7646 162.413 62.5859 163.093 61.6991C163.796 60.8162 164.576 60.2133 165.431 59.8904C166.314 59.5477 167.289 59.4633 168.356 59.6372C169.47 59.8187 170.342 60.2163 170.972 60.83C171.625 61.4475 172.074 62.2749 172.319 63.3124C172.564 64.3499 172.615 65.5992 172.475 67.0605L173.008 67.1474C173.567 65.657 174.222 64.4742 174.973 63.599C175.748 62.7277 176.598 62.1364 177.525 61.8251C178.452 61.5138 179.436 61.4432 180.479 61.6132C181.522 61.7831 182.39 62.1314 183.083 62.658C183.799 63.1884 184.343 63.8852 184.713 64.7485C185.107 65.6157 185.338 66.6631 185.405 67.8907C185.473 69.1183 185.379 70.5142 185.124 72.0786L183.525 81.8912L177.765 80.9524L179.255 71.8153C179.444 70.6539 179.505 69.6785 179.439 68.8892C179.377 68.0761 179.176 67.4471 178.835 67.0022C178.521 66.5374 178.044 66.2529 177.404 66.1486C176.693 66.0327 176.023 66.1911 175.393 66.6237C174.786 67.0601 174.263 67.7292 173.824 68.6309C173.385 69.5326 173.062 70.6235 172.853 71.9034L171.543 79.9383L165.926 79.0228L167.41 69.9212C167.607 68.7124 167.66 67.7114 167.571 66.9182C167.481 66.1249 167.265 65.5059 166.924 65.0609C166.587 64.5923 166.11 64.3078 165.494 64.2074C164.783 64.0915 164.126 64.2399 163.524 64.6527C162.945 65.0693 162.436 65.7284 161.997 66.6302C161.558 67.5319 161.23 68.6464 161.014 69.9737L159.704 78.0087L153.945 77.0699Z" fill="#FFD007"/>
<path d="M187.442 84.601C186.536 84.1061 185.806 83.4886 185.252 82.7485C184.731 81.9988 184.45 81.1612 184.408 80.2354C184.367 79.3097 184.628 78.3304 185.192 77.2977C185.721 76.3281 186.338 75.6251 187.041 75.1884C187.766 74.7633 188.58 74.5509 189.482 74.5514C190.406 74.5633 191.389 74.7171 192.432 75.0128C193.507 75.2989 194.665 75.6578 195.907 76.0897C196.714 76.3661 197.367 76.5724 197.867 76.7087C198.389 76.8566 198.806 76.8932 199.121 76.8186C199.447 76.7229 199.713 76.4854 199.92 76.106C200.22 75.558 200.267 74.9955 200.062 74.4185C199.857 73.8415 199.344 73.3286 198.522 72.8797C197.974 72.5805 197.4 72.4038 196.8 72.3499C196.212 72.2749 195.634 72.356 195.066 72.5934C194.531 72.8212 194.039 73.2225 193.588 73.7973L189.654 70.2535C190.417 69.3569 191.221 68.6875 192.064 68.2451C192.94 67.7933 193.857 67.5417 194.816 67.4904C195.786 67.418 196.765 67.5287 197.754 67.8224C198.775 68.1066 199.792 68.5249 200.803 69.0773C202.468 69.9866 203.683 71.0193 204.447 72.1754C205.223 73.3104 205.553 74.585 205.437 75.9994C205.343 77.4253 204.818 79.013 203.862 80.7623L202.395 83.4496C201.992 84.1873 201.594 84.9413 201.201 85.7116C200.819 86.4608 200.431 87.2205 200.038 87.9908C199.677 88.7515 199.322 89.5285 198.97 90.3218L194.513 87.8875C194.76 87.2839 195.042 86.6171 195.359 85.887C195.687 85.1359 196.048 84.3752 196.441 83.6049L195.935 83.3286C195.243 84.0451 194.422 84.5957 193.473 84.9805C192.546 85.3768 191.561 85.5507 190.521 85.5023C189.501 85.4654 188.475 85.1649 187.442 84.601ZM191.672 82.191C192.052 82.3982 192.465 82.5421 192.914 82.6228C193.395 82.694 193.884 82.7009 194.38 82.6437C194.909 82.5768 195.42 82.418 195.913 82.1672C196.417 81.8953 196.876 81.5304 197.29 81.0725L198.332 79.0146L199.025 79.4749C198.538 79.5648 198.022 79.5569 197.478 79.4512C196.955 79.357 196.411 79.2245 195.848 79.0537C195.317 78.8732 194.781 78.7034 194.238 78.544C193.708 78.3636 193.212 78.2436 192.752 78.1839C192.292 78.1243 191.877 78.1576 191.507 78.284C191.158 78.4218 190.863 78.712 190.621 79.1546C190.299 79.7448 190.236 80.312 190.431 80.8565C190.647 81.4124 191.061 81.8572 191.672 82.191Z" fill="#FFD007"/>
<path d="M199.76 90.8243L205.477 83.5885L211.551 75.9006L215.339 78.8931L211.219 84.2232L211.7 84.6028C212.918 83.3315 214.027 82.4322 215.025 81.9048C216.038 81.3586 216.997 81.1521 217.902 81.2854C218.84 81.4147 219.771 81.8441 220.694 82.5737C220.902 82.7374 221.103 82.9275 221.3 83.1438C221.496 83.3602 221.706 83.6177 221.929 83.9164L217.874 88.7004C217.668 88.2628 217.4 87.8669 217.068 87.5126C216.769 87.1544 216.479 86.8636 216.196 86.6403C215.499 86.0894 214.777 85.7637 214.03 85.6633C213.316 85.5588 212.58 85.6964 211.821 86.0761C211.062 86.4557 210.288 87.068 209.498 87.9129L204.339 94.442L199.76 90.8243Z" fill="#FFD007"/>
<path d="M206.776 97.7847L226.95 81.774L230.489 86.2322L219.484 94.9653C220.323 95.2499 221.146 95.4556 221.951 95.5825C222.776 95.6945 223.582 95.7446 224.37 95.7326C225.191 95.7246 225.968 95.6601 226.7 95.5392C227.465 95.4222 228.193 95.2582 228.884 95.0471L233.005 100.239C232.092 100.595 231.097 100.848 230.02 100.998C228.977 101.151 227.906 101.173 226.807 101.064C225.728 100.94 224.634 100.643 223.525 100.174C222.451 99.7082 221.392 99.0308 220.349 98.1416L219.926 98.4775C221.216 99.6002 222.076 100.665 222.507 101.672C222.953 102.697 223.107 103.664 222.968 104.571C222.863 105.482 222.558 106.353 222.052 107.183C221.58 108.018 221.044 108.811 220.445 109.562L218.285 112.288L214.367 107.35L215.813 105.696C216.522 104.889 217.097 104.126 217.538 103.408C218.014 102.693 218.251 101.968 218.25 101.233C218.264 100.517 217.928 99.7261 217.241 98.8608L216.211 97.5628L210.314 102.243L206.776 97.7847Z" fill="#FFD007"/>
<path d="M220.233 116.379C219.815 115.435 219.611 114.501 219.621 113.577C219.664 112.665 219.95 111.829 220.48 111.069C221.01 110.309 221.813 109.69 222.888 109.213C223.898 108.766 224.815 108.583 225.639 108.664C226.473 108.767 227.248 109.094 227.965 109.643C228.691 110.214 229.377 110.934 230.025 111.803C230.705 112.684 231.406 113.673 232.129 114.771C232.601 115.481 232.994 116.043 233.308 116.455C233.632 116.889 233.942 117.173 234.237 117.304C234.553 117.427 234.909 117.4 235.305 117.225C235.875 116.972 236.255 116.554 236.443 115.972C236.632 115.389 236.536 114.67 236.157 113.814C235.904 113.243 235.556 112.754 235.112 112.346C234.691 111.928 234.183 111.641 233.588 111.485C233.025 111.34 232.39 111.359 231.682 111.541L230.715 106.336C231.866 106.088 232.911 106.045 233.849 106.207C234.82 106.381 235.701 106.74 236.493 107.282C237.306 107.814 238.017 108.498 238.623 109.332C239.261 110.179 239.813 111.129 240.28 112.183C241.049 113.917 241.385 115.476 241.289 116.858C241.214 118.231 240.701 119.444 239.749 120.496C238.806 121.57 237.424 122.511 235.602 123.319L232.803 124.559C232.034 124.9 231.26 125.256 230.479 125.629C229.72 125.991 228.951 126.359 228.17 126.731C227.421 127.115 226.666 127.516 225.905 127.932L223.847 123.288C224.41 122.96 225.04 122.602 225.735 122.215C226.452 121.818 227.201 121.434 227.982 121.062L227.748 120.535C226.763 120.682 225.777 120.62 224.79 120.349C223.812 120.099 222.925 119.638 222.129 118.967C221.342 118.318 220.71 117.455 220.233 116.379ZM225.057 117.039C225.232 117.434 225.473 117.8 225.78 118.137C226.118 118.486 226.502 118.789 226.931 119.045C227.391 119.314 227.893 119.499 228.437 119.599C229.003 119.69 229.589 119.68 230.196 119.568L232.275 118.568L232.545 119.355C232.104 119.13 231.699 118.81 231.331 118.395C230.973 118.002 230.623 117.567 230.279 117.088C229.968 116.622 229.645 116.161 229.312 115.705C229 115.239 228.68 114.842 228.351 114.515C228.022 114.188 227.672 113.962 227.302 113.837C226.941 113.735 226.53 113.785 226.069 113.99C225.454 114.262 225.059 114.674 224.883 115.225C224.716 115.798 224.774 116.402 225.057 117.039Z" fill="#FFD007"/>
<path d="M228.138 140.09C227.889 138.965 227.891 137.919 228.144 136.953C228.425 136.005 228.949 135.151 229.716 134.39C230.487 133.653 231.52 133.043 232.815 132.559L232.682 131.961L227.11 133.123L226.065 128.411L234.505 126.539L251.175 122.843L252.438 128.54L246.495 129.858C245.909 129.988 245.277 130.079 244.6 130.13C243.951 130.2 243.25 130.257 242.498 130.301C241.768 130.34 241.01 130.361 240.224 130.363L240.38 131.066C241.755 131.056 242.936 131.225 243.923 131.572C244.934 131.913 245.753 132.445 246.38 133.167C247.008 133.889 247.443 134.801 247.688 135.903C248.021 137.403 247.922 138.79 247.393 140.064C246.864 141.337 245.94 142.44 244.621 143.372C243.303 144.304 241.612 144.998 239.549 145.456C237.486 145.913 235.657 145.987 234.063 145.676C232.498 145.384 231.203 144.761 230.18 143.807C229.157 142.853 228.476 141.614 228.138 140.09ZM232.25 137.001C232.416 137.752 232.773 138.361 233.32 138.83C233.89 139.294 234.596 139.593 235.437 139.726C236.302 139.854 237.238 139.806 238.246 139.583C239.278 139.354 240.147 139.001 240.853 138.525C241.564 138.072 242.083 137.527 242.409 136.889C242.74 136.274 242.82 135.58 242.648 134.806C242.544 134.337 242.354 133.924 242.078 133.568C241.826 133.205 241.511 132.894 241.133 132.633C240.761 132.396 240.349 132.204 239.899 132.058C239.448 131.912 238.961 131.824 238.437 131.792C237.943 131.779 237.426 131.832 236.886 131.952L236.288 132.084C235.702 132.214 235.132 132.414 234.577 132.685C234.027 132.979 233.554 133.342 233.158 133.774C232.762 134.207 232.475 134.688 232.298 135.22C232.126 135.774 232.11 136.368 232.25 137.001Z" fill="#FFD007"/>
<path d="M230.668 148.315L256.254 150.938L255.669 156.636L230.084 154.013L230.668 148.315Z" fill="#FFD007"/>
<path d="M227.636 164.903C227.92 163.295 228.385 161.914 229.028 160.76C229.691 159.633 230.51 158.73 231.484 158.049C232.458 157.368 233.562 156.917 234.796 156.696C236.054 156.48 237.416 156.502 238.882 156.762C240.324 157.017 241.625 157.455 242.783 158.075C243.961 158.722 244.942 159.518 245.726 160.462C246.53 161.433 247.075 162.554 247.362 163.824C247.673 165.099 247.692 166.504 247.42 168.042C247.152 169.555 246.657 170.833 245.936 171.876C245.234 172.947 244.333 173.763 243.234 174.324C242.158 174.89 240.919 175.207 239.517 175.275C238.134 175.372 236.606 175.187 234.933 174.719L237.371 160.335L240.386 160.869L238.582 171.671L237.388 169.74C238.517 170.111 239.474 170.219 240.257 170.065C241.06 169.939 241.689 169.624 242.144 169.119C242.595 168.638 242.885 168.031 243.015 167.298C243.166 166.447 243.071 165.674 242.731 164.979C242.386 164.309 241.816 163.744 241.019 163.286C240.246 162.832 239.256 162.498 238.05 162.285C236.111 161.941 234.635 162.082 233.622 162.707C232.604 163.357 231.981 164.331 231.75 165.632C231.641 166.247 231.634 166.77 231.728 167.201C231.842 167.66 232.006 168.043 232.22 168.349C232.458 168.659 232.73 168.915 233.035 169.115C233.365 169.32 233.703 169.478 234.049 169.588L232.306 174.474C231.471 174.228 230.709 173.849 230.02 173.337C229.354 172.829 228.798 172.182 228.351 171.395C227.901 170.633 227.612 169.716 227.485 168.644C227.33 167.593 227.38 166.346 227.636 164.903Z" fill="#FFD007"/>
<path d="M225.93 179.595C226.379 178.43 226.962 177.651 227.679 177.258C228.388 176.888 229.258 176.901 230.289 177.298C231.342 177.704 232.007 178.282 232.284 179.032C232.553 179.805 232.463 180.773 232.014 181.939C231.556 183.126 230.969 183.917 230.251 184.309C229.534 184.702 228.649 184.696 227.595 184.29C225.578 183.513 225.023 181.948 225.93 179.595Z" fill="#FFD007"/>
<path d="M207.927 195.193C208.667 194.309 209.497 193.673 210.418 193.284C211.341 192.93 212.337 192.824 213.407 192.968C214.461 193.131 215.575 193.578 216.748 194.309L217.141 193.84L212.823 190.131L215.922 186.43L222.551 191.98L235.642 202.941L231.896 207.415L227.228 203.507C226.768 203.122 226.311 202.676 225.857 202.171C225.406 201.699 224.934 201.179 224.44 200.609C223.965 200.054 223.486 199.466 223.005 198.844L222.543 199.396C223.389 200.48 223.975 201.519 224.302 202.513C224.647 203.523 224.725 204.496 224.535 205.433C224.345 206.371 223.888 207.272 223.163 208.137C222.177 209.316 221.017 210.083 219.685 210.44C218.353 210.797 216.916 210.737 215.373 210.259C213.831 209.782 212.249 208.865 210.629 207.509C209.009 206.152 207.836 204.747 207.11 203.294C206.388 201.875 206.093 200.469 206.225 199.077C206.358 197.684 206.925 196.389 207.927 195.193ZM212.882 196.569C212.389 197.159 212.123 197.813 212.084 198.532C212.064 199.267 212.258 200.009 212.665 200.757C213.09 201.52 213.699 202.233 214.491 202.896C215.301 203.575 216.11 204.049 216.918 204.318C217.711 204.606 218.459 204.684 219.164 204.554C219.853 204.442 220.452 204.082 220.96 203.474C221.269 203.106 221.48 202.703 221.595 202.267C221.728 201.846 221.783 201.407 221.76 200.948C221.721 200.509 221.622 200.066 221.463 199.619C221.304 199.173 221.077 198.733 220.783 198.299C220.492 197.898 220.135 197.521 219.711 197.166L219.242 196.773C218.781 196.388 218.275 196.058 217.722 195.783C217.154 195.526 216.578 195.373 215.994 195.322C215.409 195.271 214.853 195.338 214.323 195.521C213.779 195.723 213.298 196.072 212.882 196.569Z" fill="#FFD007"/>
<path d="M197.529 206.801C198.829 205.813 200.107 205.113 201.363 204.701C202.614 204.324 203.828 204.215 205.006 204.375C206.184 204.536 207.301 204.954 208.357 205.629C209.428 206.323 210.414 207.263 211.315 208.448C212.201 209.614 212.86 210.818 213.291 212.059C213.717 213.334 213.898 214.584 213.834 215.809C213.765 217.068 213.405 218.262 212.755 219.39C212.118 220.537 211.179 221.583 209.936 222.528C208.713 223.458 207.482 224.061 206.245 224.338C205.003 224.649 203.788 224.638 202.599 224.304C201.425 223.99 200.3 223.383 199.223 222.482C198.141 221.615 197.144 220.442 196.232 218.964L207.78 210.049L209.633 212.486L200.981 219.2L201.413 216.971C201.992 218.009 202.621 218.737 203.301 219.156C203.976 219.608 204.652 219.803 205.329 219.741C205.987 219.693 206.612 219.444 207.204 218.994C207.893 218.47 208.347 217.838 208.568 217.097C208.77 216.371 208.734 215.569 208.459 214.691C208.199 213.833 207.698 212.917 206.957 211.942C205.765 210.374 204.585 209.476 203.416 209.249C202.229 209.035 201.109 209.328 200.058 210.128C199.561 210.506 199.2 210.885 198.977 211.266C198.749 211.68 198.61 212.073 198.56 212.443C198.524 212.832 198.55 213.204 198.639 213.559C198.742 213.933 198.884 214.278 199.064 214.594L194.468 217.001C194.021 216.255 193.719 215.459 193.559 214.615C193.415 213.79 193.445 212.937 193.651 212.057C193.837 211.191 194.247 210.322 194.88 209.448C195.48 208.57 196.363 207.688 197.529 206.801Z" fill="#FFD007"/>
<path d="M180.052 217.145L182.303 226.088L184.695 235.59L180.014 236.768L178.3 230.253L177.706 230.403C177.971 232.144 178.008 233.571 177.818 234.684C177.633 235.82 177.212 236.706 176.555 237.342C175.881 238.007 174.973 238.483 173.832 238.77C173.576 238.835 173.302 238.879 173.011 238.903C172.72 238.926 172.388 238.936 172.015 238.93L170.694 232.799C171.166 232.903 171.644 232.932 172.127 232.884C172.593 232.866 173.001 232.813 173.35 232.725C174.212 232.508 174.91 232.134 175.445 231.603C175.963 231.102 176.302 230.434 176.464 229.601C176.626 228.768 176.612 227.781 176.424 226.639L174.393 218.57L180.052 217.145Z" fill="#FFD007"/>
<path d="M160.335 221.017C161.965 220.921 163.416 221.052 164.688 221.41C165.938 221.794 167.006 222.38 167.895 223.17C168.783 223.96 169.478 224.929 169.978 226.079C170.48 227.252 170.775 228.582 170.863 230.068C170.949 231.531 170.824 232.897 170.49 234.168C170.133 235.464 169.587 236.602 168.851 237.584C168.092 238.591 167.128 239.381 165.959 239.955C164.791 240.553 163.428 240.898 161.87 240.989C160.336 241.079 158.978 240.895 157.796 240.435C156.592 240.001 155.589 239.314 154.788 238.375C153.989 237.459 153.393 236.328 153.001 234.98C152.586 233.657 152.412 232.127 152.478 230.391L167.036 229.427L167.216 232.484L156.29 233.234L157.891 231.625C157.793 232.809 157.909 233.765 158.24 234.491C158.549 235.243 159.002 235.781 159.598 236.107C160.171 236.434 160.829 236.576 161.572 236.532C162.435 236.482 163.165 236.21 163.761 235.718C164.334 235.227 164.751 234.541 165.012 233.66C165.274 232.802 165.369 231.762 165.297 230.54C165.182 228.574 164.702 227.171 163.859 226.33C162.992 225.491 161.899 225.11 160.58 225.188C159.957 225.225 159.446 225.339 159.049 225.531C158.628 225.748 158.294 225.996 158.046 226.275C157.799 226.578 157.614 226.902 157.49 227.246C157.367 227.614 157.292 227.979 157.265 228.342L152.108 227.779C152.153 226.91 152.345 226.081 152.684 225.291C153.024 224.526 153.524 223.835 154.186 223.219C154.823 222.604 155.648 222.11 156.661 221.738C157.648 221.343 158.872 221.103 160.335 221.017Z" fill="#FFD007"/>
<path d="M152.013 222.171L150.533 233.894L149.631 241.041L145.021 240.459L145.721 234.339L145.113 234.262C144.635 235.751 144.072 236.951 143.424 237.862C142.753 238.769 141.996 239.4 141.152 239.753C140.282 240.128 139.311 240.247 138.239 240.112C137.119 239.97 136.233 239.604 135.582 239.014C134.906 238.42 134.428 237.61 134.146 236.582C133.864 235.554 133.767 234.307 133.856 232.842L133.319 232.774C132.814 234.283 132.202 235.489 131.483 236.391C130.74 237.289 129.912 237.911 128.997 238.255C128.082 238.6 127.1 238.706 126.052 238.574C125.004 238.441 124.124 238.124 123.413 237.623C122.677 237.119 122.109 236.442 121.708 235.593C121.283 234.74 121.015 233.702 120.903 232.477C120.792 231.253 120.835 229.855 121.033 228.282L122.278 218.418L128.068 219.149L126.909 228.334C126.761 229.501 126.735 230.478 126.829 231.265C126.921 232.075 127.145 232.696 127.502 233.129C127.832 233.582 128.318 233.849 128.962 233.93C129.677 234.021 130.341 233.838 130.955 233.383C131.546 232.925 132.044 232.238 132.45 231.321C132.856 230.404 133.14 229.302 133.303 228.015L134.322 219.938L139.969 220.651L138.814 229.8C138.661 231.015 138.643 232.018 138.761 232.807C138.88 233.597 139.117 234.208 139.474 234.64C139.828 235.096 140.315 235.363 140.934 235.441C141.649 235.532 142.3 235.36 142.887 234.926C143.451 234.488 143.936 233.811 144.342 232.894C144.748 231.977 145.035 230.852 145.204 229.518L146.223 221.441L152.013 222.171Z" fill="#FFD007"/>
<path d="M118.286 215.843C119.209 216.305 119.961 216.896 120.541 217.615C121.088 218.346 121.4 219.173 121.475 220.096C121.55 221.02 121.324 222.008 120.798 223.06C120.303 224.048 119.713 224.773 119.025 225.235C118.316 225.686 117.511 225.927 116.609 225.959C115.685 225.981 114.697 225.862 113.645 225.605C112.56 225.357 111.389 225.04 110.133 224.653C109.317 224.406 108.656 224.224 108.151 224.105C107.625 223.976 107.206 223.955 106.895 224.041C106.573 224.148 106.315 224.395 106.121 224.782C105.842 225.34 105.815 225.904 106.041 226.473C106.266 227.042 106.798 227.536 107.635 227.955C108.194 228.235 108.774 228.391 109.375 228.423C109.966 228.477 110.54 228.375 111.099 228.117C111.625 227.87 112.103 227.451 112.533 226.861L116.592 230.261C115.861 231.184 115.083 231.882 114.256 232.355C113.396 232.838 112.489 233.122 111.533 233.208C110.566 233.315 109.584 233.24 108.585 232.982C107.554 232.735 106.523 232.353 105.492 231.838C103.795 230.989 102.544 230.001 101.739 228.873C100.923 227.766 100.547 226.504 100.612 225.087C100.655 223.658 101.123 222.053 102.014 220.27L103.384 217.532C103.76 216.78 104.131 216.012 104.496 215.228C104.851 214.466 105.211 213.693 105.576 212.909C105.909 212.136 106.237 211.346 106.559 210.541L111.101 212.813C110.876 213.425 110.618 214.102 110.328 214.843C110.027 215.605 109.694 216.378 109.329 217.162L109.844 217.42C110.51 216.679 111.31 216.099 112.245 215.681C113.158 215.251 114.135 215.042 115.177 215.053C116.197 215.053 117.233 215.316 118.286 215.843ZM114.145 218.404C113.759 218.21 113.34 218.081 112.889 218.017C112.405 217.963 111.917 217.974 111.423 218.049C110.896 218.135 110.392 218.312 109.908 218.58C109.414 218.87 108.968 219.251 108.571 219.724L107.604 221.818L106.895 221.383C107.379 221.275 107.894 221.265 108.442 221.351C108.968 221.426 109.516 221.539 110.085 221.689C110.622 221.85 111.164 222.001 111.712 222.141C112.249 222.302 112.748 222.404 113.21 222.447C113.672 222.49 114.085 222.442 114.451 222.302C114.794 222.152 115.079 221.851 115.305 221.4C115.605 220.799 115.648 220.23 115.434 219.693C115.198 219.145 114.768 218.715 114.145 218.404Z" fill="#FFD007"/>
<path d="M105.737 210.107L100.284 217.544L94.4906 225.445L90.5979 222.591L94.5228 217.116L94.029 216.754C92.8568 218.068 91.7815 219.007 90.8029 219.57C89.8101 220.152 88.8593 220.393 87.9504 220.293C87.0079 220.197 86.0622 219.802 85.1132 219.106C84.9002 218.95 84.6917 218.767 84.4877 218.558C84.2837 218.349 84.0648 218.099 83.8311 217.808L87.7116 212.881C87.9324 213.311 88.2152 213.697 88.5599 214.039C88.8711 214.387 89.1719 214.667 89.4624 214.88C90.179 215.405 90.9123 215.705 91.6624 215.778C92.379 215.857 93.1097 215.693 93.8546 215.286C94.5995 214.879 95.3515 214.24 96.1105 213.367L101.031 206.656L105.737 210.107Z" fill="#FFD007"/>
<path d="M98.4921 203.378L78.9068 220.104L75.2106 215.776L85.8934 206.653C85.0447 206.399 84.2154 206.223 83.4055 206.125C82.5774 206.043 81.7699 206.022 80.9832 206.062C80.1626 206.099 79.3888 206.192 78.6619 206.339C77.901 206.484 77.1791 206.674 76.4963 206.91L72.1918 201.869C73.0911 201.48 74.0762 201.192 75.1471 201.003C76.1842 200.813 77.2536 200.752 78.3552 200.822C79.4387 200.907 80.5426 201.164 81.6671 201.593C82.7578 202.02 83.8402 202.659 84.9145 203.51L85.3253 203.159C83.9962 202.083 83.0981 201.05 82.631 200.06C82.1484 199.051 81.9599 198.09 82.0658 197.179C82.1377 196.265 82.4115 195.384 82.8871 194.535C83.3288 193.684 83.8356 192.873 84.4074 192.1L86.4676 189.298L90.5615 194.092L89.1753 195.797C88.4966 196.629 87.9495 197.412 87.534 198.146C87.0847 198.877 86.8737 199.61 86.9011 200.345C86.9128 201.061 87.2774 201.839 87.9948 202.679L89.0709 203.939L94.7958 199.05L98.4921 203.378Z" fill="#FFD007"/>
<path d="M84.376 185.281C84.8281 186.21 85.0655 187.136 85.0881 188.06C85.0785 188.972 84.8227 189.818 84.3205 190.597C83.8183 191.376 83.0382 192.023 81.9803 192.538C80.9871 193.022 80.0773 193.238 79.2508 193.186C78.4139 193.113 77.6276 192.815 76.8919 192.292C76.1458 191.747 75.4335 191.052 74.7549 190.207C74.0443 189.351 73.3079 188.388 72.5458 187.316C72.0482 186.624 71.635 186.077 71.3063 185.676C70.967 185.254 70.6476 184.982 70.3482 184.861C70.0271 184.75 69.6723 184.789 69.2836 184.978C68.7223 185.252 68.358 185.683 68.1907 186.272C68.0235 186.861 68.1449 187.576 68.555 188.418C68.8283 188.98 69.1939 189.456 69.6516 189.848C70.0878 190.25 70.6059 190.518 71.2059 190.653C71.7739 190.777 72.408 190.736 73.1083 190.528L74.2626 195.696C73.1211 195.984 72.0784 196.065 71.1346 195.937C70.1587 195.798 69.2653 195.472 68.4544 194.958C67.6219 194.456 66.8877 193.798 66.2518 192.986C65.5837 192.163 64.9974 191.233 64.4926 190.197C63.662 188.491 63.27 186.946 63.3167 185.561C63.3418 184.186 63.8111 182.956 64.7246 181.87C65.6276 180.762 66.9752 179.772 68.7672 178.899L71.52 177.559C72.2756 177.191 73.0368 176.807 73.8036 176.407C74.5487 176.017 75.3047 175.622 76.0714 175.222C76.8061 174.811 77.5462 174.384 78.2919 173.94L80.5158 178.507C79.9644 178.855 79.3482 179.235 78.6673 179.647C77.9648 180.07 77.2301 180.481 76.4634 180.881L76.7157 181.399C77.695 181.216 78.6829 181.242 79.6792 181.478C80.6651 181.693 81.5682 182.121 82.3885 182.763C83.1983 183.384 83.8608 184.223 84.376 185.281ZM79.5318 184.796C79.3425 184.407 79.0885 184.05 78.7697 183.724C78.4188 183.388 78.0244 183.099 77.5866 182.858C77.1166 182.606 76.6082 182.44 76.0613 182.359C75.4928 182.288 74.9071 182.32 74.3043 182.453L72.2631 183.527L71.9651 182.751C72.4141 182.96 72.8297 183.265 73.2122 183.666C73.5841 184.046 73.9503 184.469 74.3106 184.934C74.6388 185.389 74.9778 185.838 75.3276 186.282C75.6558 186.737 75.9901 187.121 76.3305 187.436C76.6709 187.751 77.0284 187.965 77.4032 188.076C77.7674 188.166 78.1762 188.1 78.6296 187.879C79.2342 187.585 79.6145 187.159 79.7707 186.602C79.9164 186.024 79.8367 185.422 79.5318 184.796Z" fill="#FFD007"/>
<path d="M75.6149 161.845C75.9048 162.96 75.9407 164.006 75.7225 164.98C75.4751 165.938 74.9822 166.81 74.244 167.598C73.4997 168.362 72.4892 169.009 71.2127 169.539L71.3667 170.132L76.8934 168.77L78.1074 173.442L69.74 175.616L53.2143 179.91L51.7466 174.262L57.6387 172.731C58.2198 172.58 58.8478 172.467 59.5228 172.391C60.1684 172.297 60.8666 172.215 61.6174 172.144C62.3448 172.079 63.1016 172.031 63.8877 172.001L63.7065 171.303C62.3324 171.363 61.1459 171.237 60.147 170.926C59.1249 170.621 58.2873 170.119 57.6343 169.42C56.9813 168.721 56.5128 167.826 56.229 166.733C55.8424 165.246 55.8907 163.856 56.3739 162.564C56.857 161.273 57.7406 160.137 59.0246 159.159C60.3086 158.18 61.9733 157.425 64.0187 156.893C66.0641 156.362 67.8888 156.223 69.493 156.476C71.0678 156.712 72.3837 157.288 73.4406 158.204C74.4975 159.12 75.2223 160.334 75.6149 161.845ZM71.617 165.079C71.4238 164.336 71.0455 163.739 70.4821 163.29C69.8956 162.847 69.1795 162.574 68.334 162.471C67.4652 162.374 66.5311 162.456 65.5317 162.716C64.509 162.981 63.6534 163.365 62.9649 163.866C62.2704 164.345 61.7717 164.908 61.469 165.558C61.1603 166.184 61.1056 166.88 61.3049 167.647C61.4257 168.112 61.6304 168.518 61.919 168.865C62.1844 169.218 62.5104 169.518 62.8972 169.765C63.2778 169.988 63.6959 170.165 64.1515 170.295C64.607 170.424 65.0969 170.496 65.6213 170.508C66.1163 170.504 66.6311 170.432 67.1657 170.293L67.7584 170.139C68.3395 169.988 68.9024 169.767 69.4473 169.477C69.9861 169.163 70.4456 168.783 70.8259 168.337C71.2062 167.891 71.4754 167.399 71.6335 166.862C71.7856 166.301 71.7801 165.707 71.617 165.079Z" fill="#FFD007"/>
<path d="M72.7733 153.75L47.1098 152.049L47.4885 146.334L73.152 148.035L72.7733 153.75Z" fill="#FFD007"/>
<path d="M75.2273 137.061C75.0005 138.678 74.5864 140.075 73.985 141.252C73.3631 142.401 72.5776 143.334 71.6285 144.049C70.6794 144.765 69.5922 145.255 68.3669 145.52C67.1177 145.781 65.7559 145.809 64.2814 145.602C62.8307 145.399 61.5154 145.008 60.3354 144.43C59.1349 143.826 58.126 143.066 57.3085 142.151C56.4706 141.209 55.8853 140.108 55.5526 138.849C55.1961 137.587 55.1262 136.183 55.3429 134.637C55.5563 133.115 56.0046 131.82 56.6879 130.751C57.3507 129.656 58.2213 128.808 59.2998 128.208C60.3544 127.604 61.5812 127.242 62.9801 127.123C64.3586 126.977 65.8923 127.107 67.5813 127.514L65.6627 141.976L62.6305 141.551L64.0439 130.691L65.3072 132.578C64.1652 132.248 63.2055 132.174 62.4283 132.356C61.6306 132.511 61.0133 132.849 60.5766 133.37C60.1432 133.867 59.8748 134.484 59.7714 135.221C59.6514 136.077 59.7739 136.846 60.1391 137.528C60.5076 138.186 61.0983 138.729 61.9111 139.159C62.7001 139.585 63.7011 139.883 64.914 140.053C66.8641 140.326 68.3342 140.132 69.3241 139.471C70.3174 138.785 70.9058 137.789 71.0892 136.481C71.1759 135.862 71.1643 135.339 71.0545 134.912C70.9243 134.457 70.7467 134.08 70.5218 133.782C70.2731 133.481 69.9922 133.235 69.6793 133.046C69.3426 132.853 68.9992 132.708 68.6491 132.61L70.2155 127.665C71.0583 127.88 71.8335 128.231 72.5412 128.718C73.2251 129.202 73.8041 129.829 74.2782 130.599C74.7556 131.345 75.0772 132.25 75.243 133.316C75.4359 134.362 75.4307 135.61 75.2273 137.061Z" fill="#FFD007"/>
<path d="M76.3942 122.318C75.9876 123.498 75.4328 124.298 74.73 124.716C74.0349 125.112 73.1652 125.13 72.1207 124.77C71.0535 124.403 70.3679 123.849 70.0639 123.109C69.7677 122.347 69.8229 121.375 70.2296 120.195C70.6441 118.991 71.2027 118.18 71.9056 117.762C72.6084 117.344 73.4934 117.318 74.5606 117.686C76.6041 118.39 77.2153 119.934 76.3942 122.318Z" fill="#FFD007"/>
<circle cx="151.32" cy="151.379" r="56.8459" stroke="#FFD007" stroke-width="2.26933"/>
<circle cx="151.304" cy="151.484" r="52.7534" fill="#FFD007"/>
<path d="M174.773 174.421H149.179C152.445 172.447 153.9 169.469 154.249 166.3H144.411C144.004 168.236 142.308 169.979 138.102 169.979C134.031 169.978 130.91 167.978 130.639 163.267H154.181C155.198 152.811 151.264 142.742 138.034 142.742C133.731 142.742 130.48 143.568 128.039 144.948V131.727H174.773V174.421ZM137.559 149.648C142.511 149.648 144.479 152.23 144.615 156.489H130.639C130.842 152.23 132.878 149.649 137.559 149.648Z" fill="#DF0586"/>
</svg>
