<svg width="436" height="446" viewBox="0 0 436 446" fill="none" xmlns="http://www.w3.org/2000/svg">
<g filter="url(#filter0_d_2547_1182)">
<path d="M89.2246 251.263C63.0402 241.211 64.5967 204.201 91.5533 195.64C108.532 190.25 117.242 171.645 110.28 155.63C99.2229 130.208 126.891 104.776 151.861 117.419C167.586 125.381 187.029 118.116 193.667 101.801C204.214 75.8921 241.791 76.9489 250.141 103.379C255.398 120.027 274.187 128.363 290.545 121.302C316.512 110.09 341.992 137.003 328.827 161.751C320.537 177.335 327.667 196.384 344.155 202.71C370.339 212.762 368.783 249.772 341.826 258.333C324.847 263.723 316.137 282.328 323.1 298.343C334.157 323.765 306.489 349.197 281.518 336.554C265.794 328.592 246.351 335.857 239.713 352.172C229.173 378.08 191.597 377.03 183.245 350.592C177.988 333.945 159.2 325.608 142.842 332.669C116.867 343.884 91.3951 316.968 104.552 292.222C112.843 276.638 105.712 257.589 89.2246 251.263Z" fill="#DF0586"/>
<path d="M89.3616 250.91C63.5213 240.99 65.0395 204.457 91.6659 196.001C108.852 190.545 117.681 171.705 110.626 155.477C99.72 130.401 127.014 105.264 151.689 117.758C167.609 125.818 187.293 118.465 194.016 101.943C204.353 76.552 240.962 77.3979 249.583 102.889L249.781 103.495C255.108 120.363 274.136 128.796 290.692 121.649C316.353 110.569 341.479 137.163 328.494 161.574C320.095 177.362 327.321 196.658 344.018 203.064C369.858 212.984 368.34 249.515 341.714 257.972C324.528 263.427 315.698 282.268 322.753 298.496C333.659 323.572 306.365 348.71 281.69 336.216C265.77 328.156 246.086 335.508 239.363 352.031C228.952 377.62 191.848 376.566 183.606 350.476C178.279 333.609 159.251 325.176 142.694 332.322C117.026 343.404 91.9072 316.808 104.885 292.399C113.284 276.611 106.058 257.316 89.3616 250.91Z" stroke="white" stroke-width="0.756444"/>
</g>
<defs>
<filter id="filter0_d_2547_1182" x="70.4336" y="82.9511" width="296.96" height="296.97" filterUnits="userSpaceOnUse" color-interpolation-filters="sRGB">
<feFlood flood-opacity="0" result="BackgroundImageFix"/>
<feColorMatrix in="SourceAlpha" type="matrix" values="0 0 0 0 0 0 0 0 0 0 0 0 0 0 0 0 0 0 127 0" result="hardAlpha"/>
<feOffset dx="4.44789" dy="8.89578"/>
<feComposite in2="hardAlpha" operator="out"/>
<feColorMatrix type="matrix" values="0 0 0 0 0.529412 0 0 0 0 0.196078 0 0 0 0 0.396078 0 0 0 1 0"/>
<feBlend mode="normal" in2="BackgroundImageFix" result="effect1_dropShadow_2547_1182"/>
<feBlend mode="normal" in="SourceGraphic" in2="effect1_dropShadow_2547_1182" result="shape"/>
</filter>
</defs>
</svg>
