<svg width="436" height="446" viewBox="0 0 436 446" fill="none" xmlns="http://www.w3.org/2000/svg">
<g filter="url(#filter0_d_2547_1182)">
<path d="M89.2246 251.263C63.0402 241.211 64.5967 204.201 91.5533 195.64C108.532 190.25 117.242 171.645 110.28 155.63C99.2229 130.208 126.891 104.776 151.861 117.419C167.586 125.381 187.029 118.116 193.667 101.801C204.214 75.8921 241.791 76.9489 250.141 103.379C255.398 120.027 274.187 128.363 290.545 121.302C316.512 110.09 341.992 137.003 328.827 161.751C320.537 177.335 327.667 196.384 344.155 202.71C370.339 212.762 368.783 249.772 341.826 258.333C324.847 263.723 316.137 282.328 323.1 298.343C334.157 323.765 306.489 349.197 281.518 336.554C265.794 328.592 246.351 335.857 239.713 352.172C229.173 378.08 191.597 377.03 183.245 350.592C177.988 333.945 159.2 325.608 142.842 332.669C116.867 343.884 91.3951 316.968 104.552 292.222C112.843 276.638 105.712 257.589 89.2246 251.263Z" fill="#DF0586"/>
<path d="M89.3616 250.91C63.5213 240.99 65.0395 204.457 91.6659 196.001C108.852 190.545 117.681 171.705 110.626 155.477C99.72 130.401 127.014 105.264 151.689 117.758C167.609 125.818 187.293 118.465 194.016 101.943C204.353 76.552 240.962 77.3979 249.583 102.889L249.781 103.495C255.108 120.363 274.136 128.796 290.692 121.649C316.353 110.569 341.479 137.163 328.494 161.574C320.095 177.362 327.321 196.658 344.018 203.064C369.858 212.984 368.34 249.515 341.714 257.972C324.528 263.427 315.698 282.268 322.753 298.496C333.659 323.572 306.365 348.71 281.69 336.216C265.77 328.156 246.086 335.508 239.363 352.031C228.952 377.62 191.848 376.566 183.606 350.476C178.279 333.609 159.251 325.176 142.694 332.322C117.026 343.404 91.9072 316.808 104.885 292.399C113.284 276.611 106.058 257.316 89.3616 250.91Z" stroke="white" stroke-width="0.756444"/>
</g>
<path d="M164.171 175.802C163.399 176.658 162.547 177.264 161.613 177.619C160.678 177.94 159.678 178.01 158.614 177.827C157.567 177.627 156.47 177.14 155.324 176.367L154.914 176.822L159.096 180.684L155.866 184.271L149.441 178.486L136.753 167.061L140.658 162.724L145.182 166.798C145.628 167.2 146.068 167.661 146.504 168.182C146.938 168.67 147.391 169.207 147.864 169.795C148.319 170.366 148.775 170.971 149.234 171.61L149.716 171.075C148.91 169.961 148.361 168.901 148.07 167.896C147.762 166.875 147.719 165.9 147.943 164.97C148.166 164.04 148.655 163.156 149.41 162.317C150.439 161.175 151.625 160.449 152.969 160.141C154.314 159.832 155.748 159.944 157.272 160.477C158.796 161.009 160.344 161.982 161.914 163.396C163.485 164.81 164.606 166.257 165.279 167.735C165.949 169.179 166.194 170.595 166.011 171.981C165.829 173.368 165.215 174.642 164.171 175.802ZM159.269 174.248C159.783 173.677 160.072 173.032 160.137 172.315C160.183 171.581 160.017 170.833 159.637 170.071C159.239 169.292 158.656 168.558 157.889 167.867C157.104 167.16 156.312 166.657 155.514 166.359C154.732 166.043 153.987 165.937 153.279 166.042C152.586 166.13 151.974 166.468 151.444 167.057C151.123 167.413 150.897 167.808 150.766 168.24C150.618 168.656 150.548 169.093 150.555 169.552C150.578 169.993 150.661 170.439 150.803 170.891C150.946 171.342 151.156 171.79 151.435 172.235C151.711 172.645 152.055 173.036 152.465 173.405L152.92 173.815C153.367 174.217 153.861 174.565 154.404 174.86C154.962 175.136 155.532 175.311 156.114 175.382C156.696 175.454 157.255 175.407 157.79 175.243C158.342 175.061 158.835 174.729 159.269 174.248Z" fill="#FFD007"/>
<path d="M174.959 164.569C173.624 165.51 172.322 166.163 171.052 166.529C169.788 166.862 168.571 166.927 167.399 166.724C166.228 166.522 165.127 166.064 164.096 165.351C163.051 164.619 162.099 163.644 161.241 162.427C160.397 161.23 159.783 160.003 159.397 158.747C159.017 157.458 158.881 156.202 158.989 154.98C159.103 153.724 159.506 152.544 160.196 151.44C160.873 150.317 161.85 149.305 163.126 148.406C164.382 147.521 165.633 146.962 166.88 146.73C168.132 146.464 169.346 146.519 170.522 146.895C171.684 147.251 172.787 147.899 173.831 148.838C174.88 149.743 175.835 150.951 176.693 152.461L164.831 160.954L163.067 158.452L171.955 152.055L171.443 154.267C170.903 153.208 170.3 152.457 169.636 152.015C168.977 151.539 168.309 151.32 167.63 151.357C166.971 151.381 166.337 151.607 165.729 152.036C165.022 152.534 164.545 153.15 164.297 153.882C164.07 154.601 164.077 155.404 164.32 156.29C164.549 157.157 165.016 158.091 165.722 159.092C166.857 160.702 168.004 161.642 169.163 161.911C170.343 162.167 171.472 161.915 172.552 161.154C173.062 160.794 173.436 160.428 173.672 160.055C173.915 159.649 174.068 159.262 174.132 158.894C174.182 158.506 174.169 158.133 174.093 157.776C174.003 157.398 173.874 157.048 173.706 156.726L178.385 154.486C178.804 155.248 179.079 156.054 179.207 156.903C179.322 157.733 179.261 158.584 179.024 159.456C178.806 160.315 178.365 161.169 177.701 162.019C177.07 162.875 176.156 163.725 174.959 164.569Z" fill="#FFD007"/>
<path d="M192.775 154.9L190.847 145.882L188.799 136.3L193.519 135.291L194.998 141.864L195.597 141.736C195.395 139.986 195.409 138.559 195.639 137.454C195.865 136.325 196.317 135.455 196.997 134.843C197.695 134.202 198.619 133.759 199.77 133.513C200.028 133.458 200.303 133.424 200.595 133.41C200.887 133.397 201.219 133.4 201.591 133.418L202.69 139.593C202.222 139.472 201.746 139.426 201.261 139.456C200.795 139.458 200.386 139.496 200.034 139.571C199.165 139.757 198.453 140.106 197.9 140.617C197.364 141.1 197.001 141.755 196.809 142.581C196.618 143.408 196.595 144.395 196.742 145.543L198.482 153.68L192.775 154.9Z" fill="#FFD007"/>
<path d="M212.626 151.722C210.994 151.759 209.548 151.575 208.29 151.172C207.055 150.743 206.008 150.118 205.149 149.297C204.289 148.476 203.63 147.482 203.171 146.316C202.712 145.125 202.465 143.785 202.431 142.297C202.398 140.832 202.571 139.471 202.951 138.213C203.354 136.931 203.941 135.813 204.712 134.859C205.507 133.88 206.498 133.124 207.687 132.593C208.876 132.038 210.25 131.742 211.811 131.707C213.347 131.672 214.698 131.905 215.862 132.407C217.05 132.885 218.027 133.607 218.794 134.574C219.56 135.518 220.115 136.67 220.458 138.032C220.825 139.369 220.944 140.903 220.815 142.636L206.232 143.075L206.163 140.014L217.108 139.657L215.45 141.208C215.591 140.028 215.509 139.069 215.204 138.331C214.923 137.569 214.49 137.014 213.905 136.667C213.345 136.32 212.693 136.154 211.948 136.171C211.084 136.191 210.345 136.436 209.731 136.906C209.141 137.376 208.7 138.047 208.408 138.918C208.115 139.766 207.982 140.801 208.01 142.026C208.055 143.995 208.483 145.414 209.296 146.284C210.132 147.154 211.211 147.574 212.531 147.544C213.155 147.53 213.67 147.434 214.074 147.257C214.502 147.055 214.845 146.819 215.103 146.549C215.36 146.255 215.557 145.938 215.694 145.599C215.83 145.235 215.917 144.873 215.957 144.512L221.091 145.26C221.014 146.126 220.793 146.948 220.426 147.725C220.059 148.478 219.534 149.15 218.851 149.742C218.191 150.334 217.349 150.797 216.324 151.133C215.323 151.492 214.091 151.688 212.626 151.722Z" fill="#FFD007"/>
<path d="M220.964 150.845L222.865 139.184L224.024 132.073L228.61 132.821L227.69 138.912L228.295 139.01C228.827 137.54 229.432 136.361 230.112 135.474C230.816 134.591 231.595 133.989 232.451 133.666C233.334 133.323 234.309 133.239 235.375 133.412C236.489 133.594 237.361 133.992 237.991 134.605C238.645 135.223 239.094 136.05 239.339 137.088C239.583 138.125 239.635 139.375 239.494 140.836L240.027 140.923C240.587 139.432 241.242 138.25 241.993 137.374C242.767 136.503 243.618 135.912 244.545 135.6C245.471 135.289 246.456 135.219 247.499 135.388C248.542 135.558 249.41 135.907 250.102 136.433C250.819 136.964 251.362 137.661 251.733 138.524C252.127 139.391 252.357 140.438 252.425 141.666C252.492 142.894 252.399 144.29 252.144 145.854L250.544 155.666L244.785 154.728L246.274 145.591C246.463 144.429 246.525 143.454 246.459 142.664C246.397 141.851 246.195 141.222 245.854 140.778C245.541 140.313 245.064 140.028 244.424 139.924C243.713 139.808 243.042 139.966 242.412 140.399C241.806 140.835 241.283 141.505 240.844 142.406C240.405 143.308 240.081 144.399 239.873 145.679L238.563 153.714L232.946 152.798L234.429 143.697C234.626 142.488 234.68 141.487 234.59 140.693C234.5 139.9 234.285 139.281 233.944 138.836C233.607 138.368 233.13 138.083 232.514 137.983C231.803 137.867 231.146 138.015 230.543 138.428C229.964 138.845 229.455 139.504 229.016 140.405C228.577 141.307 228.25 142.422 228.033 143.749L226.724 151.784L220.964 150.845Z" fill="#FFD007"/>
<path d="M254.462 158.376C253.555 157.881 252.825 157.264 252.272 156.524C251.751 155.774 251.47 154.936 251.428 154.011C251.386 153.085 251.647 152.106 252.211 151.073C252.741 150.103 253.357 149.4 254.061 148.964C254.785 148.539 255.599 148.326 256.502 148.327C257.426 148.339 258.409 148.492 259.451 148.788C260.526 149.074 261.685 149.433 262.926 149.865C263.733 150.141 264.387 150.348 264.887 150.484C265.408 150.632 265.826 150.668 266.14 150.594C266.466 150.498 266.733 150.261 266.94 149.881C267.239 149.333 267.286 148.771 267.081 148.194C266.877 147.617 266.363 147.104 265.541 146.655C264.993 146.356 264.419 146.179 263.82 146.125C263.231 146.05 262.653 146.131 262.086 146.369C261.551 146.597 261.058 146.998 260.608 147.573L256.674 144.029C257.437 143.132 258.24 142.463 259.084 142.02C259.96 141.569 260.877 141.317 261.835 141.266C262.805 141.193 263.784 141.304 264.773 141.598C265.795 141.882 266.811 142.3 267.823 142.853C269.488 143.762 270.703 144.795 271.467 145.951C272.242 147.086 272.572 148.36 272.457 149.775C272.362 151.201 271.837 152.788 270.882 154.538L269.414 157.225C269.012 157.963 268.613 158.717 268.22 159.487C267.838 160.236 267.451 160.996 267.058 161.766C266.697 162.527 266.341 163.304 265.99 164.097L261.532 161.663C261.78 161.059 262.062 160.392 262.378 159.662C262.706 158.911 263.067 158.15 263.46 157.38L262.955 157.104C262.262 157.82 261.442 158.371 260.493 158.756C259.565 159.152 258.581 159.326 257.54 159.278C256.521 159.241 255.494 158.94 254.462 158.376ZM258.692 155.966C259.071 156.173 259.485 156.317 259.933 156.398C260.414 156.469 260.903 156.476 261.4 156.419C261.929 156.352 262.439 156.193 262.932 155.943C263.436 155.671 263.896 155.306 264.31 154.848L265.351 152.79L266.044 153.25C265.557 153.34 265.042 153.332 264.497 153.226C263.974 153.132 263.431 153 262.868 152.829C262.337 152.649 261.8 152.479 261.258 152.319C260.727 152.139 260.232 152.019 259.772 151.959C259.312 151.9 258.897 151.933 258.527 152.059C258.178 152.197 257.883 152.487 257.641 152.93C257.319 153.52 257.255 154.087 257.45 154.632C257.667 155.188 258.08 155.633 258.692 155.966Z" fill="#FFD007"/>
<path d="M266.78 164.6L272.497 157.364L278.571 149.676L282.358 152.668L278.239 157.999L278.719 158.378C279.938 157.107 281.046 156.207 282.045 155.68C283.058 155.134 284.017 154.927 284.921 155.061C285.86 155.19 286.791 155.619 287.714 156.349C287.921 156.513 288.123 156.703 288.319 156.919C288.516 157.135 288.725 157.393 288.948 157.692L284.893 162.476C284.688 162.038 284.419 161.642 284.087 161.288C283.789 160.93 283.498 160.639 283.215 160.416C282.518 159.865 281.796 159.539 281.049 159.439C280.336 159.334 279.6 159.472 278.841 159.851C278.082 160.231 277.307 160.843 276.517 161.688L271.358 168.217L266.78 164.6Z" fill="#FFD007"/>
<path d="M273.795 171.56L293.97 155.549L297.508 160.008L286.504 168.741C287.343 169.025 288.165 169.231 288.971 169.358C289.796 169.47 290.602 169.52 291.389 169.508C292.211 169.5 292.987 169.435 293.719 169.315C294.485 169.198 295.213 169.034 295.904 168.822L300.024 174.014C299.111 174.371 298.117 174.624 297.04 174.773C295.996 174.927 294.925 174.949 293.827 174.839C292.747 174.715 291.653 174.418 290.545 173.949C289.47 173.483 288.412 172.806 287.369 171.917L286.946 172.253C288.235 173.376 289.095 174.44 289.527 175.447C289.973 176.473 290.126 177.439 289.988 178.346C289.883 179.257 289.578 180.128 289.072 180.959C288.6 181.793 288.064 182.586 287.465 183.338L285.305 186.063L281.386 181.125L282.833 179.471C283.541 178.664 284.116 177.901 284.558 177.183C285.033 176.468 285.27 175.744 285.27 175.008C285.284 174.292 284.947 173.501 284.261 172.636L283.231 171.338L277.333 176.018L273.795 171.56Z" fill="#FFD007"/>
<path d="M287.252 190.155C286.834 189.211 286.63 188.276 286.641 187.352C286.683 186.44 286.969 185.604 287.499 184.844C288.029 184.084 288.832 183.465 289.908 182.989C290.918 182.541 291.835 182.358 292.659 182.439C293.493 182.543 294.268 182.869 294.984 183.418C295.71 183.99 296.397 184.71 297.045 185.578C297.724 186.459 298.425 187.449 299.148 188.547C299.621 189.257 300.014 189.818 300.328 190.23C300.652 190.665 300.961 190.948 301.256 191.08C301.573 191.202 301.929 191.176 302.324 191C302.895 190.747 303.275 190.33 303.463 189.747C303.651 189.165 303.556 188.445 303.176 187.589C302.923 187.018 302.575 186.529 302.132 186.121C301.71 185.704 301.202 185.417 300.607 185.26C300.044 185.116 299.409 185.134 298.702 185.317L297.734 180.111C298.885 179.863 299.93 179.821 300.869 179.983C301.839 180.157 302.72 180.515 303.512 181.057C304.326 181.589 305.036 182.273 305.642 183.107C306.28 183.954 306.833 184.904 307.3 185.958C308.069 187.693 308.405 189.251 308.308 190.634C308.234 192.006 307.72 193.219 306.768 194.271C305.826 195.346 304.444 196.287 302.621 197.094L299.822 198.335C299.054 198.675 298.279 199.032 297.499 199.404C296.74 199.767 295.97 200.134 295.19 200.506C294.441 200.891 293.685 201.291 292.924 201.707L290.866 197.064C291.43 196.735 292.059 196.377 292.755 195.99C293.472 195.594 294.221 195.209 295.002 194.837L294.768 194.31C293.783 194.458 292.797 194.396 291.809 194.124C290.832 193.874 289.945 193.414 289.148 192.742C288.361 192.093 287.729 191.23 287.252 190.155ZM292.076 190.814C292.251 191.209 292.492 191.575 292.799 191.912C293.138 192.261 293.521 192.564 293.95 192.821C294.411 193.089 294.913 193.274 295.457 193.374C296.022 193.465 296.609 193.455 297.216 193.343L299.294 192.343L299.564 193.13C299.123 192.905 298.719 192.585 298.351 192.17C297.993 191.777 297.642 191.342 297.299 190.864C296.987 190.398 296.665 189.936 296.331 189.48C296.019 189.014 295.699 188.617 295.37 188.29C295.042 187.963 294.692 187.737 294.321 187.613C293.961 187.51 293.55 187.561 293.089 187.765C292.474 188.037 292.078 188.449 291.902 189C291.736 189.573 291.794 190.178 292.076 190.814Z" fill="#FFD007"/>
<path d="M295.158 213.865C294.908 212.74 294.91 211.694 295.163 210.728C295.445 209.78 295.969 208.926 296.735 208.166C297.506 207.429 298.539 206.818 299.834 206.335L299.702 205.737L294.13 206.899L293.085 202.186L301.525 200.314L318.194 196.618L319.458 202.315L313.514 203.633C312.928 203.763 312.297 203.854 311.619 203.906C310.971 203.976 310.27 204.033 309.517 204.077C308.788 204.115 308.03 204.136 307.243 204.138L307.399 204.841C308.775 204.832 309.956 205 310.943 205.347C311.953 205.689 312.772 206.221 313.4 206.942C314.027 207.664 314.463 208.576 314.707 209.678C315.04 211.178 314.942 212.565 314.412 213.839C313.883 215.112 312.959 216.215 311.641 217.147C310.322 218.079 308.632 218.774 306.568 219.231C304.505 219.689 302.677 219.762 301.083 219.451C299.517 219.159 298.223 218.536 297.2 217.582C296.176 216.628 295.496 215.389 295.158 213.865ZM299.27 210.777C299.436 211.527 299.793 212.137 300.339 212.606C300.91 213.07 301.615 213.368 302.457 213.501C303.321 213.629 304.258 213.582 305.266 213.358C306.298 213.129 307.166 212.777 307.873 212.3C308.584 211.848 309.102 211.302 309.428 210.664C309.759 210.049 309.839 209.355 309.668 208.582C309.564 208.113 309.374 207.7 309.098 207.343C308.845 206.981 308.53 206.669 308.153 206.409C307.78 206.171 307.369 205.98 306.918 205.834C306.468 205.688 305.981 205.599 305.457 205.567C304.962 205.554 304.445 205.607 303.906 205.727L303.308 205.859C302.722 205.989 302.151 206.19 301.596 206.46C301.047 206.754 300.574 207.118 300.178 207.55C299.781 207.982 299.495 208.464 299.317 208.995C299.145 209.55 299.129 210.144 299.27 210.777Z" fill="#FFD007"/>
<path d="M297.687 222.09L323.273 224.714L322.689 230.411L297.103 227.788L297.687 222.09Z" fill="#FFD007"/>
<path d="M294.655 238.678C294.94 237.07 295.404 235.689 296.048 234.535C296.71 233.409 297.529 232.505 298.503 231.824C299.478 231.143 300.582 230.692 301.816 230.472C303.073 230.256 304.435 230.277 305.901 230.537C307.344 230.792 308.644 231.23 309.803 231.85C310.981 232.498 311.962 233.293 312.746 234.237C313.549 235.208 314.094 236.329 314.382 237.6C314.692 238.874 314.712 240.28 314.439 241.817C314.171 243.33 313.677 244.608 312.955 245.651C312.254 246.722 311.353 247.538 310.254 248.099C309.178 248.665 307.939 248.982 306.537 249.051C305.154 249.147 303.626 248.962 301.952 248.495L304.391 234.111L307.405 234.645L305.602 245.446L304.408 243.515C305.537 243.886 306.493 243.995 307.277 243.841C308.079 243.714 308.708 243.399 309.164 242.894C309.615 242.413 309.905 241.806 310.035 241.073C310.186 240.222 310.091 239.449 309.75 238.755C309.406 238.084 308.835 237.52 308.038 237.061C307.265 236.607 306.276 236.274 305.07 236.06C303.131 235.716 301.654 235.857 300.641 236.483C299.624 237.132 299 238.107 298.77 239.407C298.661 240.022 298.654 240.545 298.748 240.976C298.862 241.436 299.026 241.818 299.24 242.124C299.477 242.435 299.749 242.69 300.055 242.891C300.385 243.095 300.723 243.253 301.069 243.363L299.325 248.249C298.491 248.004 297.729 247.625 297.039 247.112C296.373 246.604 295.817 245.957 295.371 245.171C294.921 244.408 294.632 243.491 294.505 242.42C294.35 241.368 294.4 240.121 294.655 238.678Z" fill="#FFD007"/>
<path d="M292.949 253.37C293.398 252.205 293.981 251.426 294.699 251.033C295.408 250.663 296.277 250.676 297.308 251.073C298.361 251.479 299.027 252.057 299.304 252.807C299.572 253.58 299.482 254.549 299.033 255.714C298.576 256.902 297.988 257.692 297.271 258.085C296.553 258.477 295.668 258.471 294.615 258.065C292.598 257.288 292.043 255.723 292.949 253.37Z" fill="#FFD007"/>
<path d="M274.947 268.968C275.687 268.084 276.517 267.448 277.437 267.06C278.36 266.705 279.357 266.6 280.427 266.744C281.481 266.906 282.594 267.353 283.767 268.084L284.16 267.615L279.843 263.906L282.941 260.205L289.57 265.755L302.662 276.716L298.916 281.19L294.248 277.282C293.787 276.897 293.33 276.452 292.876 275.946C292.426 275.475 291.953 274.954 291.46 274.384C290.984 273.829 290.506 273.241 290.025 272.619L289.562 273.171C290.408 274.256 290.995 275.295 291.321 276.289C291.666 277.298 291.744 278.271 291.554 279.209C291.365 280.146 290.908 281.047 290.183 281.913C289.196 283.091 288.037 283.859 286.705 284.215C285.372 284.572 283.935 284.512 282.393 284.035C280.85 283.558 279.269 282.641 277.649 281.284C276.028 279.927 274.855 278.523 274.13 277.07C273.408 275.65 273.113 274.245 273.245 272.852C273.377 271.459 273.945 270.165 274.947 268.968ZM279.902 270.345C279.408 270.934 279.142 271.588 279.104 272.308C279.084 273.042 279.277 273.784 279.684 274.532C280.11 275.296 280.719 276.009 281.51 276.672C282.321 277.35 283.13 277.824 283.938 278.093C284.73 278.381 285.479 278.46 286.183 278.329C286.872 278.217 287.471 277.857 287.98 277.249C288.288 276.881 288.5 276.479 288.615 276.042C288.748 275.621 288.803 275.182 288.779 274.724C288.74 274.284 288.641 273.841 288.482 273.395C288.324 272.949 288.097 272.508 287.803 272.074C287.512 271.674 287.154 271.296 286.731 270.942L286.261 270.548C285.801 270.163 285.294 269.833 284.742 269.558C284.173 269.301 283.597 269.148 283.013 269.097C282.429 269.047 281.872 269.113 281.343 269.296C280.798 269.498 280.318 269.847 279.902 270.345Z" fill="#FFD007"/>
<path d="M264.548 280.577C265.848 279.588 267.126 278.888 268.382 278.477C269.633 278.099 270.848 277.99 272.025 278.151C273.203 278.311 274.32 278.729 275.376 279.404C276.447 280.098 277.433 281.038 278.334 282.224C279.221 283.39 279.879 284.593 280.31 285.835C280.736 287.109 280.917 288.359 280.853 289.585C280.784 290.844 280.425 292.037 279.774 293.165C279.138 294.312 278.198 295.358 276.956 296.303C275.732 297.233 274.502 297.837 273.264 298.114C272.022 298.424 270.807 298.413 269.619 298.08C268.445 297.765 267.319 297.158 266.242 296.257C265.161 295.39 264.164 294.217 263.251 292.739L274.8 283.824L276.653 286.262L268.001 292.975L268.433 290.746C269.011 291.784 269.64 292.513 270.32 292.931C270.995 293.383 271.672 293.578 272.348 293.516C273.006 293.468 273.631 293.219 274.224 292.769C274.912 292.246 275.367 291.614 275.588 290.872C275.79 290.146 275.753 289.344 275.478 288.467C275.218 287.609 274.718 286.692 273.977 285.717C272.785 284.15 271.605 283.252 270.436 283.024C269.248 282.811 268.129 283.104 267.077 283.903C266.58 284.281 266.22 284.66 265.997 285.041C265.769 285.456 265.63 285.848 265.579 286.218C265.543 286.608 265.57 286.98 265.658 287.335C265.762 287.708 265.903 288.053 266.083 288.369L261.488 290.777C261.041 290.03 260.738 289.235 260.579 288.39C260.434 287.565 260.465 286.713 260.67 285.832C260.857 284.967 261.267 284.097 261.9 283.223C262.499 282.345 263.382 281.463 264.548 280.577Z" fill="#FFD007"/>
<path d="M247.071 290.921L249.322 299.863L251.714 309.365L247.034 310.543L245.319 304.029L244.725 304.178C244.99 305.919 245.028 307.346 244.837 308.459C244.653 309.595 244.232 310.481 243.575 311.117C242.9 311.782 241.992 312.258 240.851 312.545C240.595 312.61 240.321 312.654 240.03 312.678C239.739 312.702 239.407 312.711 239.034 312.706L237.714 306.575C238.186 306.679 238.663 306.707 239.147 306.66C239.613 306.642 240.02 306.588 240.37 306.5C241.231 306.284 241.93 305.91 242.464 305.379C242.982 304.877 243.322 304.21 243.483 303.376C243.645 302.543 243.632 301.556 243.444 300.415L241.412 292.345L247.071 290.921Z" fill="#FFD007"/>
<path d="M227.354 294.792C228.985 294.696 230.436 294.827 231.708 295.185C232.957 295.569 234.026 296.156 234.914 296.945C235.803 297.735 236.497 298.705 236.998 299.854C237.5 301.027 237.795 302.357 237.882 303.843C237.968 305.306 237.844 306.672 237.51 307.943C237.153 309.239 236.606 310.378 235.87 311.359C235.112 312.366 234.148 313.156 232.979 313.73C231.811 314.328 230.448 314.673 228.89 314.765C227.355 314.855 225.997 314.67 224.816 314.21C223.611 313.776 222.609 313.089 221.808 312.15C221.008 311.235 220.412 310.103 220.02 308.755C219.606 307.432 219.432 305.903 219.498 304.167L234.055 303.202L234.235 306.259L223.31 307.01L224.911 305.4C224.812 306.585 224.929 307.54 225.26 308.266C225.569 309.018 226.021 309.557 226.618 309.882C227.191 310.21 227.848 310.351 228.592 310.308C229.455 310.257 230.184 309.985 230.781 309.493C231.353 309.003 231.77 308.316 232.031 307.435C232.293 306.578 232.389 305.538 232.317 304.315C232.201 302.349 231.722 300.946 230.878 300.106C230.011 299.267 228.918 298.886 227.6 298.963C226.976 299 226.466 299.114 226.068 299.306C225.648 299.523 225.314 299.771 225.066 300.051C224.819 300.354 224.633 300.677 224.509 301.021C224.387 301.389 224.312 301.755 224.285 302.117L219.128 301.554C219.173 300.686 219.365 299.856 219.703 299.067C220.043 298.301 220.544 297.61 221.205 296.994C221.843 296.379 222.668 295.885 223.68 295.513C224.667 295.118 225.892 294.878 227.354 294.792Z" fill="#FFD007"/>
<path d="M219.032 295.947L217.553 307.669L216.651 314.817L212.04 314.235L212.74 308.114L212.133 308.038C211.654 309.527 211.091 310.726 210.444 311.637C209.773 312.545 209.015 313.175 208.172 313.529C207.302 313.903 206.331 314.022 205.258 313.887C204.139 313.746 203.253 313.38 202.601 312.789C201.926 312.196 201.447 311.385 201.165 310.357C200.884 309.329 200.787 308.082 200.875 306.617L200.339 306.549C199.834 308.059 199.222 309.264 198.503 310.166C197.76 311.065 196.931 311.686 196.016 312.031C195.101 312.375 194.12 312.481 193.072 312.349C192.023 312.217 191.143 311.9 190.432 311.398C189.697 310.894 189.129 310.217 188.728 309.368C188.303 308.516 188.035 307.477 187.923 306.253C187.811 305.028 187.854 303.63 188.053 302.057L189.298 292.194L195.088 292.924L193.928 302.109C193.781 303.277 193.754 304.254 193.849 305.04C193.94 305.85 194.164 306.472 194.521 306.904C194.851 307.357 195.338 307.624 195.981 307.706C196.696 307.796 197.361 307.613 197.975 307.158C198.565 306.7 199.063 306.013 199.47 305.096C199.876 304.179 200.16 303.077 200.322 301.791L201.342 293.714L206.989 294.427L205.834 303.576C205.68 304.791 205.663 305.793 205.781 306.583C205.899 307.372 206.137 307.983 206.494 308.415C206.848 308.871 207.334 309.139 207.954 309.217C208.669 309.307 209.32 309.135 209.907 308.701C210.47 308.264 210.955 307.587 211.361 306.67C211.768 305.753 212.055 304.627 212.223 303.293L213.243 295.216L219.032 295.947Z" fill="#FFD007"/>
<path d="M185.305 289.618C186.229 290.08 186.981 290.671 187.56 291.391C188.108 292.121 188.419 292.948 188.494 293.872C188.569 294.795 188.344 295.783 187.817 296.836C187.323 297.824 186.732 298.549 186.045 299.01C185.336 299.461 184.53 299.703 183.628 299.735C182.705 299.756 181.717 299.638 180.664 299.38C179.579 299.133 178.409 298.816 177.152 298.429C176.336 298.182 175.676 297.999 175.171 297.881C174.645 297.752 174.226 297.73 173.914 297.816C173.592 297.923 173.334 298.17 173.141 298.557C172.862 299.115 172.835 299.679 173.06 300.248C173.286 300.818 173.817 301.312 174.655 301.731C175.213 302.01 175.793 302.166 176.395 302.198C176.985 302.252 177.56 302.15 178.118 301.892C178.645 301.646 179.123 301.227 179.552 300.636L183.611 304.036C182.881 304.959 182.102 305.657 181.275 306.13C180.416 306.613 179.508 306.897 178.552 306.983C177.586 307.09 176.603 307.015 175.604 306.757C174.573 306.51 173.542 306.129 172.512 305.613C170.815 304.764 169.564 303.776 168.759 302.648C167.942 301.542 167.567 300.28 167.631 298.862C167.675 297.434 168.142 295.828 169.034 294.046L170.404 291.307C170.78 290.555 171.15 289.788 171.516 289.004C171.87 288.241 172.23 287.468 172.595 286.684C172.928 285.911 173.256 285.122 173.578 284.316L178.121 286.588C177.895 287.2 177.637 287.877 177.347 288.618C177.047 289.381 176.713 290.154 176.348 290.938L176.864 291.195C177.53 290.455 178.33 289.875 179.264 289.456C180.177 289.027 181.155 288.817 182.196 288.828C183.217 288.828 184.253 289.092 185.305 289.618ZM181.165 292.179C180.778 291.986 180.359 291.857 179.908 291.792C179.425 291.738 178.936 291.749 178.442 291.824C177.916 291.91 177.411 292.087 176.928 292.355C176.434 292.645 175.988 293.026 175.591 293.499L174.624 295.593L173.915 295.158C174.398 295.051 174.914 295.04 175.461 295.126C175.988 295.201 176.535 295.314 177.105 295.465C177.641 295.626 178.184 295.776 178.732 295.916C179.268 296.077 179.768 296.179 180.23 296.222C180.691 296.265 181.105 296.217 181.47 296.077C181.814 295.927 182.098 295.627 182.324 295.176C182.625 294.574 182.668 294.005 182.453 293.468C182.217 292.92 181.788 292.49 181.165 292.179Z" fill="#FFD007"/>
<path d="M172.756 283.882L167.304 291.319L161.51 299.221L157.617 296.366L161.542 290.891L161.049 290.529C159.876 291.844 158.801 292.782 157.822 293.345C156.83 293.928 155.879 294.169 154.97 294.068C154.027 293.973 153.082 293.577 152.133 292.881C151.92 292.725 151.711 292.542 151.507 292.333C151.303 292.124 151.084 291.874 150.851 291.584L154.731 286.657C154.952 287.087 155.235 287.473 155.579 287.815C155.891 288.162 156.191 288.442 156.482 288.655C157.199 289.181 157.932 289.48 158.682 289.554C159.398 289.632 160.129 289.468 160.874 289.061C161.619 288.655 162.371 288.015 163.13 287.142L168.05 280.432L172.756 283.882Z" fill="#FFD007"/>
<path d="M165.512 277.153L145.926 293.88L142.23 289.552L152.913 280.428C152.064 280.174 151.235 279.998 150.425 279.9C149.597 279.818 148.789 279.797 148.003 279.837C147.182 279.875 146.408 279.967 145.681 280.114C144.921 280.259 144.199 280.449 143.516 280.685L139.211 275.645C140.111 275.256 141.096 274.967 142.167 274.779C143.204 274.588 144.273 274.527 145.375 274.597C146.458 274.682 147.562 274.939 148.687 275.369C149.777 275.795 150.86 276.434 151.934 277.285L152.345 276.934C151.016 275.859 150.118 274.826 149.651 273.835C149.168 272.826 148.979 271.866 149.085 270.954C149.157 270.04 149.431 269.159 149.907 268.311C150.348 267.46 150.855 266.648 151.427 265.875L153.487 263.074L157.581 267.867L156.195 269.572C155.516 270.404 154.969 271.188 154.554 271.921C154.104 272.652 153.893 273.385 153.921 274.12C153.932 274.836 154.297 275.614 155.014 276.454L156.09 277.714L161.815 272.825L165.512 277.153Z" fill="#FFD007"/>
<path d="M151.396 259.056C151.848 259.985 152.085 260.911 152.108 261.835C152.098 262.748 151.842 263.594 151.34 264.372C150.838 265.151 150.058 265.798 149 266.313C148.007 266.797 147.097 267.013 146.27 266.961C145.433 266.888 144.647 266.59 143.911 266.067C143.165 265.522 142.453 264.827 141.774 263.982C141.064 263.126 140.327 262.163 139.565 261.092C139.068 260.399 138.655 259.852 138.326 259.452C137.987 259.029 137.667 258.757 137.368 258.636C137.047 258.525 136.692 258.565 136.303 258.754C135.742 259.027 135.378 259.458 135.21 260.047C135.043 260.636 135.164 261.352 135.574 262.194C135.848 262.755 136.213 263.232 136.671 263.623C137.107 264.025 137.625 264.293 138.225 264.429C138.793 264.553 139.428 264.511 140.128 264.304L141.282 269.471C140.141 269.76 139.098 269.84 138.154 269.712C137.178 269.573 136.285 269.247 135.474 268.734C134.641 268.231 133.907 267.573 133.271 266.761C132.603 265.938 132.017 265.008 131.512 263.972C130.682 262.266 130.29 260.721 130.336 259.336C130.361 257.961 130.831 256.731 131.744 255.645C132.647 254.538 133.995 253.547 135.787 252.675L138.539 251.334C139.295 250.966 140.056 250.582 140.823 250.182C141.568 249.792 142.324 249.397 143.091 248.997C143.826 248.586 144.566 248.159 145.311 247.716L147.535 252.282C146.984 252.631 146.368 253.011 145.687 253.423C144.984 253.845 144.25 254.256 143.483 254.656L143.735 255.174C144.715 254.991 145.702 255.018 146.699 255.254C147.685 255.468 148.588 255.896 149.408 256.539C150.218 257.159 150.88 257.999 151.396 259.056ZM146.551 258.571C146.362 258.182 146.108 257.825 145.789 257.5C145.438 257.163 145.044 256.874 144.606 256.633C144.136 256.381 143.628 256.215 143.081 256.134C142.512 256.064 141.927 256.095 141.324 256.229L139.283 257.303L138.985 256.526C139.434 256.735 139.849 257.04 140.232 257.442C140.604 257.821 140.97 258.244 141.33 258.71C141.658 259.164 141.997 259.613 142.347 260.057C142.675 260.512 143.01 260.897 143.35 261.212C143.69 261.527 144.048 261.74 144.423 261.851C144.787 261.941 145.196 261.875 145.649 261.655C146.254 261.36 146.634 260.935 146.79 260.378C146.936 259.799 146.856 259.197 146.551 258.571Z" fill="#FFD007"/>
<path d="M142.634 235.62C142.924 236.736 142.96 237.781 142.742 238.756C142.495 239.713 142.002 240.586 141.264 241.373C140.519 242.137 139.509 242.784 138.232 243.314L138.386 243.907L143.913 242.545L145.127 247.217L136.76 249.391L120.234 253.686L118.766 248.038L124.658 246.507C125.239 246.356 125.867 246.242 126.542 246.166C127.188 246.073 127.886 245.99 128.637 245.919C129.364 245.854 130.121 245.807 130.907 245.776L130.726 245.079C129.352 245.138 128.165 245.012 127.167 244.701C126.144 244.396 125.307 243.894 124.654 243.195C124.001 242.497 123.532 241.601 123.248 240.509C122.862 239.021 122.91 237.631 123.393 236.34C123.877 235.048 124.76 233.913 126.044 232.934C127.328 231.955 128.993 231.2 131.038 230.669C133.084 230.137 134.908 229.998 136.512 230.251C138.087 230.487 139.403 231.063 140.46 231.979C141.517 232.896 142.242 234.109 142.634 235.62ZM138.637 238.855C138.443 238.111 138.065 237.515 137.502 237.065C136.915 236.622 136.199 236.349 135.354 236.247C134.485 236.15 133.551 236.231 132.551 236.491C131.529 236.757 130.673 237.14 129.984 237.642C129.29 238.12 128.791 238.684 128.489 239.333C128.18 239.959 128.125 240.656 128.324 241.423C128.445 241.888 128.65 242.293 128.939 242.64C129.204 242.993 129.53 243.293 129.917 243.54C130.297 243.763 130.715 243.94 131.171 244.07C131.627 244.2 132.116 244.271 132.641 244.283C133.136 244.279 133.651 244.207 134.185 244.068L134.778 243.914C135.359 243.763 135.922 243.543 136.467 243.252C137.006 242.938 137.465 242.558 137.845 242.112C138.226 241.666 138.495 241.174 138.653 240.637C138.805 240.076 138.8 239.482 138.637 238.855Z" fill="#FFD007"/>
<path d="M139.793 227.525L114.129 225.825L114.508 220.11L140.172 221.81L139.793 227.525Z" fill="#FFD007"/>
<path d="M142.247 210.836C142.02 212.453 141.606 213.85 141.005 215.027C140.383 216.176 139.597 217.109 138.648 217.825C137.699 218.54 136.612 219.031 135.386 219.295C134.137 219.557 132.775 219.584 131.301 219.377C129.85 219.174 128.535 218.783 127.355 218.206C126.154 217.601 125.146 216.841 124.328 215.926C123.49 214.984 122.905 213.884 122.572 212.625C122.216 211.362 122.146 209.958 122.362 208.412C122.576 206.89 123.024 205.595 123.707 204.527C124.37 203.431 125.241 202.583 126.319 201.983C127.374 201.379 128.601 201.018 130 200.898C131.378 200.752 132.912 200.882 134.601 201.289L132.682 215.752L129.65 215.326L131.063 204.467L132.327 206.354C131.185 206.024 130.225 205.95 129.448 206.132C128.65 206.287 128.033 206.624 127.596 207.145C127.163 207.642 126.894 208.259 126.791 208.997C126.671 209.853 126.793 210.622 127.159 211.303C127.527 211.961 128.118 212.505 128.931 212.934C129.72 213.36 130.721 213.658 131.933 213.828C133.884 214.101 135.354 213.907 136.344 213.246C137.337 212.561 137.925 211.564 138.109 210.256C138.195 209.638 138.184 209.115 138.074 208.687C137.944 208.232 137.766 207.856 137.541 207.557C137.293 207.256 137.012 207.01 136.699 206.821C136.362 206.628 136.019 206.483 135.669 206.386L137.235 201.44C138.078 201.655 138.853 202.006 139.561 202.494C140.245 202.977 140.824 203.604 141.298 204.374C141.775 205.12 142.097 206.026 142.263 207.092C142.455 208.137 142.45 209.385 142.247 210.836Z" fill="#FFD007"/>
<path d="M143.414 196.093C143.007 197.274 142.452 198.073 141.749 198.492C141.054 198.887 140.185 198.905 139.14 198.545C138.073 198.178 137.387 197.624 137.083 196.885C136.787 196.122 136.842 195.151 137.249 193.97C137.664 192.766 138.222 191.956 138.925 191.537C139.628 191.119 140.513 191.094 141.58 191.461C143.624 192.165 144.235 193.709 143.414 196.093Z" fill="#FFD007"/>
<circle cx="218.34" cy="225.154" r="56.8459" stroke="#FFD007" stroke-width="2.26933"/>
<circle cx="218.324" cy="225.259" r="52.7534" fill="#FFD007"/>
<path d="M241.793 248.196H216.198C219.465 246.223 220.92 243.244 221.269 240.075H211.431C211.024 242.011 209.327 243.754 205.121 243.754C201.051 243.754 197.93 241.753 197.658 237.042H221.2C222.218 226.586 218.283 216.518 205.054 216.518C200.751 216.518 197.5 217.343 195.059 218.724V205.502H241.793V248.196ZM204.578 223.424C209.531 223.424 211.499 226.005 211.635 230.265H197.658C197.862 226.005 199.897 223.424 204.578 223.424Z" fill="#DF0586"/>
<defs>
<filter id="filter0_d_2547_1182" x="70.4336" y="82.9511" width="296.96" height="296.97" filterUnits="userSpaceOnUse" color-interpolation-filters="sRGB">
<feFlood flood-opacity="0" result="BackgroundImageFix"/>
<feColorMatrix in="SourceAlpha" type="matrix" values="0 0 0 0 0 0 0 0 0 0 0 0 0 0 0 0 0 0 127 0" result="hardAlpha"/>
<feOffset dx="4.44789" dy="8.89578"/>
<feComposite in2="hardAlpha" operator="out"/>
<feColorMatrix type="matrix" values="0 0 0 0 0.529412 0 0 0 0 0.196078 0 0 0 0 0.396078 0 0 0 1 0"/>
<feBlend mode="normal" in2="BackgroundImageFix" result="effect1_dropShadow_2547_1182"/>
<feBlend mode="normal" in="SourceGraphic" in2="effect1_dropShadow_2547_1182" result="shape"/>
</filter>
</defs>
</svg>
