<svg width="1916" height="1080" viewBox="0 0 1916 1080" fill="none" xmlns="http://www.w3.org/2000/svg">
<rect x="171" y="-291" width="1541" height="2647" fill="#FFD007"/>
<path d="M1698.72 268.892C1698.69 268.978 1698.64 269.089 1698.58 269.22C1698.4 269.592 1698.12 270.126 1697.72 270.743C1696.92 271.983 1695.66 273.529 1693.81 274.792C1690.2 277.247 1683.97 278.884 1673.62 274.142C1663.35 269.432 1659 261.759 1654.76 255.608C1652.68 252.59 1650.5 249.771 1647.53 248.209C1644.45 246.59 1640.76 246.439 1635.93 248.109C1631.56 249.618 1628.58 249.6 1626.38 248.954C1624.16 248.303 1622.52 246.959 1620.92 245.384C1619.4 243.894 1617.72 241.965 1615.7 240.817C1613.5 239.566 1610.91 239.203 1607.54 240.389C1604.82 241.344 1603.05 241.17 1601.68 240.588C1600.21 239.963 1599.01 238.804 1597.51 237.316C1596.07 235.892 1594.4 234.204 1592.13 233.06C1589.81 231.887 1586.97 231.326 1583.22 231.896C1579.71 232.428 1577.08 232.961 1574.94 233.427C1572.77 233.898 1571.21 234.277 1569.71 234.533C1566.87 235.021 1564.38 235.042 1559.14 234.013C1557.62 233.714 1556.28 233.755 1555.12 234.206C1553.94 234.666 1553.11 235.487 1552.52 236.439C1551.95 237.365 1551.58 238.444 1551.29 239.5C1551.01 240.544 1550.77 241.722 1550.53 242.785C1550.02 245.025 1549.43 247.001 1548.21 248.44C1547.08 249.783 1545.25 250.836 1541.82 250.836C1534.63 250.836 1530.32 248.688 1526.67 246.487C1523.07 244.315 1519.64 241.708 1514.71 241.708C1510.46 241.708 1504.26 240.491 1497.04 239.218C1489.91 237.961 1481.93 236.681 1474.4 236.681C1470.29 236.681 1467.29 238.187 1464.8 240.318C1462.41 242.36 1460.35 245.119 1458.3 247.464C1456.17 249.887 1453.89 252.091 1450.81 253.546C1447.74 254.991 1443.75 255.757 1438.12 255.061C1432.39 254.352 1427.5 252.993 1423.05 251.544C1418.67 250.115 1414.54 248.527 1410.64 247.487C1406.68 246.43 1402.74 245.872 1398.52 246.502C1394.29 247.133 1389.89 248.937 1384.97 252.426C1380.09 255.883 1376.71 259.156 1373.94 261.962C1371.14 264.807 1369.1 267.015 1366.76 268.601C1362.34 271.596 1356.62 272.48 1341.93 268.634C1334.61 266.714 1329.5 264.977 1325.69 263.599C1321.95 262.245 1319.27 261.157 1317.03 260.646C1314.65 260.101 1312.65 260.175 1310.16 261.059C1307.79 261.901 1304.95 263.492 1300.85 265.891C1293.2 270.372 1287.04 268.638 1281.15 266.612C1278.26 265.616 1275.25 264.474 1272.33 264.196C1269.28 263.906 1266.26 264.539 1263.31 267.001C1258.13 271.33 1253.94 274.287 1249.62 275.968C1245.35 277.63 1240.85 278.082 1234.98 277.199C1222.8 275.366 1218.12 275.047 1210.79 277.733C1209.38 278.251 1206.94 278.394 1204.25 278.11C1201.59 277.83 1198.96 277.163 1197.23 276.285C1196.34 275.839 1195.84 275.412 1195.62 275.09C1195.47 274.864 1195.47 274.75 1195.57 274.553C1195.73 274.219 1196.23 273.635 1197.49 272.891C1198.73 272.165 1200.54 271.374 1203.09 270.546C1208.11 268.916 1211.92 268.7 1215.01 269.011C1218.18 269.328 1220.57 270.176 1223.1 270.815C1225.58 271.443 1228.11 271.831 1230.97 270.803C1233.78 269.796 1236.7 267.508 1240.24 263.321C1247.22 255.066 1252.83 248.759 1259.34 245.046C1265.73 241.399 1273.1 240.195 1283.76 242.549C1289.52 243.822 1293.76 243.153 1297.27 241.372C1300.69 239.637 1303.3 236.884 1305.81 234.354C1308.37 231.768 1310.9 229.331 1314.31 227.722C1317.69 226.132 1322.05 225.3 1328.32 226.211C1334.75 227.146 1340.77 228.235 1346.24 228.876C1351.75 229.521 1356.9 229.742 1361.78 228.917C1371.69 227.239 1380.05 221.297 1388.02 207.011L1388.02 207.01C1391.97 199.913 1394.66 193.338 1396.98 187.66C1399.32 181.932 1401.24 177.238 1403.68 173.662C1406.07 170.16 1408.91 167.815 1413.09 166.748C1417.34 165.66 1423.14 165.86 1431.51 167.837C1448.97 171.962 1464.58 165.78 1475.59 160.596C1476.97 159.946 1478.28 159.31 1479.51 158.711C1480.75 158.111 1481.9 157.55 1482.97 157.045C1485.15 156.025 1486.91 155.275 1488.3 154.899C1489.76 154.502 1490.37 154.65 1490.59 154.795C1490.74 154.892 1491.14 155.296 1491.14 156.976C1491.14 160.461 1490.56 164.275 1489.92 168.104C1489.3 171.875 1488.6 175.702 1488.43 179.014C1488.26 182.271 1488.58 185.46 1490.37 187.689C1492.26 190.038 1495.4 190.878 1499.76 190.367C1504.53 189.808 1508.44 186.218 1511.81 181.744C1515.21 177.23 1518.34 171.437 1521.41 165.922C1524.52 160.339 1527.56 155.043 1530.87 151.255C1534.19 147.458 1537.49 145.496 1541.1 145.897C1549.41 146.823 1553.72 149.797 1557.22 152.276C1558.96 153.508 1560.68 154.765 1562.61 155.468C1564.63 156.206 1566.81 156.323 1569.49 155.51V155.509C1571.15 155.004 1572.24 153.882 1572.9 152.459C1573.52 151.099 1573.75 149.464 1573.8 147.796C1573.86 146.111 1573.75 144.251 1573.6 142.382C1573.45 140.481 1573.26 138.589 1573.15 136.708C1572.93 132.884 1573.09 129.633 1574.27 127.467C1574.83 126.444 1575.62 125.665 1576.77 125.169C1577.94 124.66 1579.6 124.405 1581.93 124.631C1592.05 125.61 1601.81 124.669 1609.3 119.541C1616.85 114.363 1621.76 105.152 1622.64 90.3574C1623.49 76.3232 1629.97 67.5742 1636.95 63.0039C1640.46 60.7063 1644.08 59.4668 1647.19 59.1318C1650.36 58.7911 1652.75 59.4022 1654.05 60.4844C1655.99 62.1091 1659.41 63.8065 1663.45 65.1309C1667.52 66.4665 1672.37 67.4701 1677.27 67.6172C1685.23 67.8563 1693.62 65.8065 1698.72 58.9346V268.892ZM1698.81 268.677L1698.81 268.679V268.678L1698.81 268.676V268.677Z" fill="#FFECE1" stroke="black" stroke-width="3"/>
<path d="M220.322 743.823C226.673 739.942 235.507 737.311 245.853 742.036C256.196 746.76 260.182 755.594 263.293 763.675C264.815 767.629 266.187 771.581 268.051 774.478C269.988 777.488 272.616 779.612 276.664 779.612C283.645 779.612 292.839 778.71 301.069 782.148C309.064 785.489 316.355 793.075 318.899 810.774C320.238 820.084 323.487 825.98 327.814 829.818C332.107 833.626 337.295 835.254 342.174 836.36C343.397 836.638 344.613 836.885 345.793 837.123C346.979 837.362 348.125 837.592 349.235 837.839C351.463 838.335 353.467 838.884 355.197 839.659C356.914 840.429 358.317 841.402 359.379 842.725C360.436 844.041 361.223 845.79 361.581 848.221C361.968 850.852 362.276 853.35 362.567 855.724C362.857 858.09 363.132 860.341 363.453 862.443C364.093 866.63 364.934 870.383 366.549 873.497C368.194 876.67 370.62 879.14 374.312 880.787C377.951 882.41 382.742 883.199 389.09 883.199C395.392 883.199 401.36 882.806 406.754 882.455C412.176 882.103 416.972 881.798 421.044 881.95C425.137 882.104 428.273 882.716 430.479 884.038C432.579 885.297 433.983 887.289 434.449 890.642C434.724 892.615 435.23 894.198 436.115 895.311C437.073 896.513 438.347 897.011 439.726 897.024C441.01 897.037 442.39 896.633 443.752 896.113C445.13 895.587 446.669 894.868 448.268 894.14C454.765 891.18 463.067 887.721 472.83 891.817C482.584 895.91 483.875 902.946 487.553 910.294C489.377 913.94 491.778 917.515 496.174 920.308C500.54 923.082 506.733 924.994 515.988 925.628C534.404 926.889 543.668 924.676 549.992 923.255C553.151 922.545 555.333 922.101 557.536 922.292C559.685 922.478 561.988 923.289 565.245 925.392C571.999 929.752 576.616 932.384 581.314 933.544C586.06 934.715 590.745 934.352 597.561 933.095C604.102 931.888 611.968 932.206 618.701 933.669C622.063 934.399 625.092 935.405 627.505 936.613C629.794 937.76 631.402 939.027 632.278 940.302L632.444 940.557C633.09 941.614 633.979 942.449 635.234 942.609C636.382 942.756 637.453 942.274 638.332 941.749C639.242 941.206 640.247 940.425 641.308 939.597C642.395 938.748 643.599 937.802 644.991 936.834C650.482 933.014 658.963 928.797 673.091 930.611C687.723 932.491 702.485 933.137 715.343 930.595C728.228 928.047 739.322 922.267 746.375 911.211C747.991 908.677 749.524 907.213 750.729 906.523C751.949 905.826 752.55 906.039 752.769 906.197C753.053 906.404 753.508 907.079 753.403 908.683C753.302 910.233 752.675 912.374 751.219 914.975C745.385 925.392 726.839 942.081 682.229 955.141C637.541 968.223 620.205 966.555 611.796 963.887C609.686 963.217 608.104 962.475 606.715 961.827C605.373 961.202 604.048 960.578 602.658 960.363C599.636 959.897 596.811 961.389 592.144 965.43C582.979 973.364 574.131 977.293 564.016 978.809C553.831 980.335 542.304 979.427 527.734 977.556C512.821 975.64 504.466 978.528 497.241 981.896C490.094 985.229 484.454 988.775 474.452 988.775C464.029 988.775 449.31 988.773 435.003 986.455C420.651 984.13 407.009 979.517 398.509 970.525C394.215 965.984 390.969 960.738 388.144 955.606C385.361 950.552 382.902 945.435 380.323 941.52C377.738 937.595 374.752 934.408 370.643 933.551C366.518 932.69 361.776 934.278 355.933 938.565C343.82 947.453 344.372 959.993 343.485 969.787C343.032 974.797 342.236 979.016 339.688 982.237C337.184 985.401 332.756 987.872 324.388 988.784C307.983 990.572 296.728 980.796 287.242 970.98C282.583 966.159 278.247 961.212 274.079 958.021C269.86 954.791 265.349 953.002 260.435 955.211C256.639 956.917 253.101 956.824 250.078 955.564C247.025 954.292 244.399 951.786 242.582 948.518C238.943 941.973 238.694 932.641 244.542 925.045C247.809 920.802 248.703 916.912 247.301 913.886C245.911 910.886 242.595 909.456 239.097 909.37C231.999 909.196 222.792 914.372 220.031 926.287C217.442 937.462 214.333 947.712 211.87 955.172C211.386 956.637 210.925 957.994 210.5 959.229V752.422C210.598 752.3 210.718 752.148 210.863 751.975C211.31 751.441 211.979 750.681 212.85 749.797C214.595 748.025 217.136 745.771 220.322 743.823Z" fill="#FFECE1" stroke="black" stroke-width="3"/>
<path d="M958.039 -1241.48C1486.18 -1241.48 1914.32 -813.337 1914.32 -285.199V1926.69H1807.41V-256.933C1807.41 -726.024 1427.13 -1106.3 958.039 -1106.3C488.944 -1106.3 108.669 -726.027 108.669 -256.933V1926.69H1.75781V-285.199C1.75781 -813.339 429.899 -1241.48 958.039 -1241.48Z" fill="#A35BFB" stroke="black" stroke-width="2"/>
<path d="M957.956 -1104.3C1425.95 -1104.3 1805.33 -724.917 1805.33 -256.927V1934.25H1698.42V-228.659C1698.42 -637.604 1366.9 -969.121 957.956 -969.121C549.012 -969.121 217.497 -637.604 217.497 -228.659V1929.2H110.586V-256.927C110.586 -724.914 489.966 -1104.3 957.956 -1104.3Z" fill="#7A44BC" stroke="black" stroke-width="2"/>
</svg>
