<svg width="65" height="62" viewBox="0 0 65 62" fill="none" xmlns="http://www.w3.org/2000/svg">
<path d="M49.0855 39.5252L14.2125 54.3328L0.799774 15.7042L35.7801 1.00391L49.0855 39.5252Z" fill="#FFDC47" stroke="black" stroke-width="0.288551" stroke-linecap="round" stroke-linejoin="round"/>
<path d="M29.1249 61.6275L14.2099 54.331L49.0829 39.5234L63.9979 46.8199L29.1249 61.6275Z" fill="#7A034A" stroke="black" stroke-width="0.288551" stroke-linecap="round" stroke-linejoin="round"/>
<path d="M64.0001 46.8217L50.5874 8.30043L35.7798 1.00391L49.0851 39.5252L64.0001 46.8217Z" fill="#A30462" stroke="black" stroke-width="0.288551" stroke-linecap="round" stroke-linejoin="round"/>
<path d="M14.2175 53.8165C14.4995 53.8657 14.7886 53.9045 15.085 53.9333L14.3658 54.2355L14.2175 53.8165ZM49.1353 39.664L31.3439 47.12C33.2377 44.5938 33.4992 41.8385 32.8688 39.2594L25.0474 42.2618C25.2875 43.9354 24.4466 45.8476 21.1027 47.1312C17.8665 48.3734 14.8021 47.7242 13.2141 44.0368L31.9304 36.8523C29.694 28.175 23.6336 21.319 13.116 25.3563C9.73799 26.653 7.40915 28.2803 5.86979 30.102L0.806661 15.7173L35.8635 0.998905L49.1353 39.664ZM14.7499 31.0274C18.6873 29.516 21.0037 30.9816 22.3523 34.3489L11.2405 38.6143C10.1616 35.1434 11.0282 32.456 14.7499 31.0274Z" fill="#DF0586"/>
</svg>
