<svg width="440" height="172" viewBox="0 0 440 172" fill="none" xmlns="http://www.w3.org/2000/svg">
<g clip-path="url(#clip0_2593_1018)">
<mask id="mask0_2593_1018" style="mask-type:luminance" maskUnits="userSpaceOnUse" x="-213" y="-274" width="822" height="452">
<path d="M608.932 -273.105H-213V177.632H608.932V-273.105Z" fill="white"/>
</mask>
<g mask="url(#mask0_2593_1018)">
<path d="M40.8579 14.9502H-37.6963L-11.5562 2.70703H58.2849L40.8579 14.9502Z" fill="#7654C5"/>
<path d="M127.758 2.89844L119.317 14.7588H41.4688L58.3506 2.89844H127.758Z" fill="#FFD007" stroke="#A35BFB" stroke-width="0.383574"/>
<path d="M197.969 14.9502H119.414L128.128 2.70703H197.969V14.9502Z" fill="#7654C5"/>
<path d="M267.71 2.89844L276.151 14.7588H198.16V2.89844H267.71Z" fill="#FFD007" stroke="#A35BFB" stroke-width="0.383574"/>
<path d="M355.078 14.9502H276.523L267.81 2.70703H337.651L355.078 14.9502Z" fill="#7654C5"/>
<path d="M407.446 2.89844L432.77 14.7588H355.138L338.256 2.89844H407.446Z" fill="#FFD007" stroke="#A35BFB" stroke-width="0.383574"/>
<path d="M512.185 14.9502H433.63L407.49 2.70703H477.331L512.185 14.9502Z" fill="#7654C5"/>
<path d="M18.4698 30.6826H-71.2822L-37.6897 14.9492H40.8645L18.4698 30.6826Z" fill="#FFD007"/>
<path d="M108.217 30.6826H18.4648L40.8595 14.9492H119.414L108.217 30.6826Z" fill="#7654C5"/>
<path d="M197.974 30.6826H108.222L119.419 14.9492H197.974V30.6826Z" fill="#FFD007"/>
<path d="M287.724 30.6826H197.972V14.9492H276.526L287.724 30.6826Z" fill="#7654C5"/>
<path d="M377.473 30.6826H287.721L276.523 14.9492H355.078L377.473 30.6826Z" fill="#FFD007"/>
<path d="M467.225 30.6826H377.473L355.078 14.9492H433.633L467.225 30.6826Z" fill="#7654C5"/>
<path d="M556.977 30.6826H467.225L433.633 14.9492H512.187L556.977 30.6826Z" fill="#FFD007"/>
<path d="M-11.5875 51.7957H-116.363L-71.5196 30.793H18.3083L-11.5875 51.7957Z" fill="#7654C5"/>
<path d="M93.1918 51.7957H-11.584L18.3118 30.793H108.14L93.1918 51.7957Z" fill="#FFD007"/>
<path d="M197.964 51.7957H93.1885L108.136 30.793H197.964V51.7957Z" fill="#7654C5"/>
<path d="M302.743 51.7957H197.967V30.793H287.795L302.743 51.7957Z" fill="#FFD007"/>
<path d="M407.519 51.7957H302.743L287.795 30.793H377.623L407.519 51.7957Z" fill="#7654C5"/>
<path d="M512.292 51.7957H407.517L377.621 30.793H467.449L512.292 51.7957Z" fill="#FFD007"/>
<path d="M72.2737 81.1814H-53.418L-11.5866 51.793H93.1892L72.2737 81.1814Z" fill="#7654C5"/>
<path d="M197.97 81.1814H72.2783L93.1938 51.793H197.97V81.1814Z" fill="#FFD007"/>
<path d="M323.659 81.1814H197.968V51.793H302.744L323.659 81.1814Z" fill="#7654C5"/>
<path d="M449.353 81.1814H323.662L302.746 51.793H407.522L449.353 81.1814Z" fill="#FFD007"/>
<path d="M575.046 81.1814H449.354L407.522 51.793H512.298L575.046 81.1814Z" fill="#7654C5"/>
<path d="M40.693 125.556H-116.58L-53.7148 81.3906H72.126L40.693 125.556Z" fill="#FFD007"/>
<path d="M197.971 125.556H40.6973L72.1302 81.3906H197.971V125.556Z" fill="#7654C5"/>
<path d="M355.242 125.556H197.969V81.3906H323.81L355.242 125.556Z" fill="#FFD007"/>
<path d="M512.515 125.556H355.241L323.809 81.3906H449.649L512.515 125.556Z" fill="#7654C5"/>
<path d="M-11.6698 199.134H-221.307L-116.58 125.559H40.6932L-11.6698 199.134Z" fill="#7654C5"/>
<path d="M197.969 199.134H-11.668L40.6951 125.559H197.969V199.134Z" fill="#FFD007"/>
<path d="M407.604 199.134H197.967V125.559H355.24L407.604 199.134Z" fill="#7654C5"/>
<path d="M617.238 199.134H407.602L355.238 125.559H512.512L617.238 199.134Z" fill="#FFD007"/>
</g>
</g>
<defs>
<clipPath id="clip0_2593_1018">
<rect width="822" height="177.595" fill="white" transform="translate(-213)"/>
</clipPath>
</defs>
</svg>
