<svg width="1920" height="251" viewBox="0 0 1920 251" fill="none" xmlns="http://www.w3.org/2000/svg">
<path d="M566.194 223.918H465.243L383.877 303.349H501.102L566.194 223.918Z" fill="#161616"/>
<path d="M667.159 223.918H566.205L501.113 303.349H618.338L667.159 223.918Z" fill="#FFECE1"/>
<path d="M768.108 223.918H667.154L618.334 303.349H735.562L768.108 223.918Z" fill="#161616"/>
<path d="M869.062 223.918H768.108L735.562 303.349H852.787L869.062 223.918Z" fill="#FFECE1"/>
<path d="M970.016 223.918H869.065L852.791 303.349H970.016V223.918Z" fill="#161616"/>
<path d="M1070.96 223.918H970.004V303.349H1087.23L1070.96 223.918Z" fill="#FFECE1"/>
<path d="M1171.91 223.918H1070.96L1087.23 303.349H1204.45L1171.91 223.918Z" fill="#161616"/>
<path d="M1272.87 223.918H1171.92L1204.47 303.349H1321.69L1272.87 223.918Z" fill="#FFECE1"/>
<path d="M1373.82 223.918H1272.86L1321.68 303.349H1438.91L1373.82 223.918Z" fill="#161616"/>
<path d="M1474.78 223.918H1373.82L1438.92 303.349H1556.14L1474.78 223.918Z" fill="#FFECE1"/>
<path d="M615.405 163.855H526.757L465.229 223.92H566.179L615.405 163.855Z" fill="#FFECE1"/>
<path d="M704.083 163.855H615.437L566.211 223.92H667.164L704.083 163.855Z" fill="#161616"/>
<path d="M653.937 116.836H574.922L526.764 163.848H615.412L653.937 116.836Z" fill="#161616"/>
<path d="M732.969 116.836H653.954L615.43 163.848H704.076L732.969 116.836Z" fill="#FFECE1"/>
<path d="M792.725 163.855H704.079L667.16 223.92H768.113L792.725 163.855Z" fill="#FFECE1"/>
<path d="M881.354 163.855H792.708L768.096 223.92H869.049L881.354 163.855Z" fill="#161616"/>
<path d="M811.987 116.836H732.972L704.078 163.848H792.724L811.987 116.836Z" fill="#161616"/>
<path d="M890.982 116.836H811.967L792.705 163.848H881.351L890.982 116.836Z" fill="#FFECE1"/>
<path d="M969.998 163.855H881.351L869.047 223.92H969.998V163.855Z" fill="#FFECE1"/>
<path d="M1058.65 163.855H970.004V223.92H1070.96L1058.65 163.855Z" fill="#161616"/>
<path d="M970.015 116.836H891L881.369 163.848H970.015V116.836Z" fill="#161616"/>
<path d="M1049.02 116.836H970.004V163.848H1058.65L1049.02 116.836Z" fill="#FFECE1"/>
<path d="M1147.31 163.855H1058.66L1070.97 223.92H1171.92L1147.31 163.855Z" fill="#FFECE1"/>
<path d="M1235.96 163.855H1147.31L1171.92 223.92H1272.87L1235.96 163.855Z" fill="#161616"/>
<path d="M1128.02 116.836H1049L1058.63 163.848H1147.28L1128.02 116.836Z" fill="#161616"/>
<path d="M1207.06 116.836H1128.04L1147.31 163.848H1235.96L1207.06 116.836Z" fill="#FFECE1"/>
<path d="M1324.59 163.855H1235.95L1272.86 223.92H1373.82L1324.59 163.855Z" fill="#FFECE1"/>
<path d="M1413.25 163.855H1324.6L1373.83 223.92H1474.78L1413.25 163.855Z" fill="#161616"/>
<path d="M1286.06 116.836H1207.05L1235.94 163.848H1324.59L1286.06 116.836Z" fill="#161616"/>
<path d="M1365.09 116.836H1286.08L1324.61 163.848H1413.25L1365.09 116.836Z" fill="#FFECE1"/>
<path d="M684.925 79.0391H613.654L574.934 116.838H653.949L684.925 79.0391Z" fill="#FFECE1"/>
<path d="M756.2 79.0391H684.929L653.953 116.838H732.968L756.2 79.0391Z" fill="#161616"/>
<path d="M710.358 47.9883H645.449L613.641 79.038H684.912L710.358 47.9883Z" fill="#161616"/>
<path d="M775.319 47.9883H710.409L684.963 79.038H756.234L775.319 47.9883Z" fill="#FFECE1"/>
<path d="M827.478 79.0391H756.207L732.975 116.838H811.99L827.478 79.0391Z" fill="#FFECE1"/>
<path d="M898.73 79.0391H827.459L811.971 116.838H890.986L898.73 79.0391Z" fill="#161616"/>
<path d="M840.19 47.9883H775.28L756.195 79.038H827.466L840.19 47.9883Z" fill="#161616"/>
<path d="M905.097 47.9883H840.188L827.465 79.038H898.736L905.097 47.9883Z" fill="#FFECE1"/>
<path d="M970.029 79.0391H898.758L891.014 116.838H970.029V79.0391Z" fill="#FFECE1"/>
<path d="M1041.27 79.0391H970.004V116.838H1049.02L1041.27 79.0391Z" fill="#161616"/>
<path d="M970.005 47.9883H905.096L898.734 79.038H970.005V47.9883Z" fill="#161616"/>
<path d="M1034.91 47.9883H970.004V79.038H1041.27L1034.91 47.9883Z" fill="#FFECE1"/>
<path d="M1112.55 79.0391H1041.28L1049.03 116.838H1128.04L1112.55 79.0391Z" fill="#FFECE1"/>
<path d="M1183.82 79.0391H1112.54L1128.03 116.838H1207.05L1183.82 79.0391Z" fill="#161616"/>
<path d="M1099.83 47.9883H1034.92L1041.28 79.038H1112.55L1099.83 47.9883Z" fill="#161616"/>
<path d="M1164.75 47.9883H1099.84L1112.56 79.038H1183.83L1164.75 47.9883Z" fill="#FFECE1"/>
<path d="M1255.1 79.0391H1183.83L1207.06 116.838H1286.07L1255.1 79.0391Z" fill="#FFECE1"/>
<path d="M1326.37 79.0391H1255.1L1286.08 116.838H1365.09L1326.37 79.0391Z" fill="#161616"/>
<path d="M1229.66 47.9883H1164.75L1183.84 79.038H1255.11L1229.66 47.9883Z" fill="#161616"/>
<path d="M1294.55 47.9883H1229.64L1255.08 79.038H1326.35L1294.55 47.9883Z" fill="#FFECE1"/>
<path d="M731.658 22.0312H672.068L645.473 47.9924H710.382L731.658 22.0312Z" fill="#FFECE1"/>
<path d="M791.232 22.0312H731.642L710.365 47.9924H775.275L791.232 22.0312Z" fill="#161616"/>
<path d="M749.723 0H694.645L672.08 22.0295H731.671L749.723 0Z" fill="#161616"/>
<path d="M804.79 0H749.712L731.66 22.0295H791.25L804.79 0Z" fill="#FFECE1"/>
<path d="M850.821 22.0312H791.231L775.273 47.9924H840.183L850.821 22.0312Z" fill="#FFECE1"/>
<path d="M910.416 22.0312H850.826L840.188 47.9924H905.097L910.416 22.0312Z" fill="#161616"/>
<path d="M859.866 0H804.788L791.248 22.0295H850.839L859.866 0Z" fill="#161616"/>
<path d="M914.939 0H859.863L850.836 22.0295H910.426L914.939 0Z" fill="#FFECE1"/>
<path d="M970.013 22.0312H910.422L905.104 47.9924H970.013V22.0312Z" fill="#FFECE1"/>
<path d="M1029.59 22.0312H970.004V47.9924H1034.91L1029.59 22.0312Z" fill="#161616"/>
<path d="M970.006 0H914.929L910.416 22.0295H970.006V0Z" fill="#161616"/>
<path d="M1025.08 0H970.004V22.0295H1029.59L1025.08 0Z" fill="#FFECE1"/>
<path d="M1089.2 22.0312H1029.61L1034.93 47.9924H1099.84L1089.2 22.0312Z" fill="#FFECE1"/>
<path d="M1148.76 22.0312H1089.17L1099.81 47.9924H1164.72L1148.76 22.0312Z" fill="#161616"/>
<path d="M1080.18 0H1025.1L1029.61 22.0295H1089.21L1080.18 0Z" fill="#161616"/>
<path d="M1135.25 0H1080.17L1089.2 22.0295H1148.79L1135.25 0Z" fill="#FFECE1"/>
<path d="M1208.39 22.0312H1148.8L1164.75 47.9924H1229.66L1208.39 22.0312Z" fill="#FFECE1"/>
<path d="M1267.97 22.0312H1208.38L1229.65 47.9924H1294.56L1267.97 22.0312Z" fill="#161616"/>
<path d="M1190.32 0H1135.24L1148.78 22.0295H1208.37L1190.32 0Z" fill="#161616"/>
<path d="M1245.4 0H1190.33L1208.38 22.0295H1267.97L1245.4 0Z" fill="#FFECE1"/>
</svg>
