<svg width="1920" height="250" viewBox="0 0 1920 250" fill="none" xmlns="http://www.w3.org/2000/svg">
<g clip-path="url(#clip0_2593_506)">
<mask id="mask0_2593_506" style="mask-type:luminance" maskUnits="userSpaceOnUse" x="-111" y="-712" width="2143" height="1176">
<path d="M2031.82 -712H-111V463.097H2031.82V-712Z" fill="white"/>
</mask>
<g mask="url(#mask0_2593_506)">
<path d="M-63.5711 38.9732H-268.367L-132.069 7.05469H50.0106L-63.5711 38.9732Z" fill="#FFD007"/>
<path d="M141.226 38.9732H-63.5703L50.0115 7.05469H232.091L141.226 38.9732Z" fill="#7654C5"/>
<path d="M411.924 7.55469L345.91 38.4736H144.159L232.177 7.55469H411.924Z" fill="#FFD007" stroke="#A35BFB"/>
<path d="M550.819 38.9732H346.023L414.172 7.05469H596.252L550.819 38.9732Z" fill="#7654C5"/>
<path d="M777.371 7.55469L755.366 38.4736H552.409L596.42 7.55469H777.371Z" fill="#FFD007" stroke="#A35BFB"/>
<path d="M960.413 38.9732H755.617L778.334 7.05469H960.413V38.9732Z" fill="#7654C5"/>
<path d="M1142.24 7.55469L1164.24 38.4736H960.914V7.55469H1142.24Z" fill="#FFD007" stroke="#A35BFB"/>
<path d="M1370 38.9732H1165.21L1142.49 7.05469H1324.57L1370 38.9732Z" fill="#7654C5"/>
<path d="M1506.54 7.55469L1572.55 38.4736H1370.16L1326.15 7.55469H1506.54Z" fill="#FFD007" stroke="#A35BFB"/>
<path d="M1779.59 38.9732H1574.8L1506.65 7.05469H1688.73L1779.59 38.9732Z" fill="#7654C5"/>
<path d="M1984.39 38.9732H1779.6L1688.73 7.05469H1870.81L1984.39 38.9732Z" fill="#FFD007"/>
<path d="M2189.18 38.9732H1984.39L1870.8 7.05469H2052.88L2189.18 38.9732Z" fill="#7654C5"/>
<path d="M24.4573 79.9943H-209.531L-63.5687 38.9766H141.227L24.4573 79.9943Z" fill="#FFD007"/>
<path d="M258.449 79.9943H24.4609L141.231 38.9766H346.027L258.449 79.9943Z" fill="#7654C5"/>
<path d="M492.45 79.9943H258.461L346.038 38.9766H550.834L492.45 79.9943Z" fill="#FFD007"/>
<path d="M726.425 79.9943H492.438L550.822 38.9766H755.618L726.425 79.9943Z" fill="#7654C5"/>
<path d="M960.426 79.9943H726.438L755.63 38.9766H960.426V79.9943Z" fill="#FFD007"/>
<path d="M1194.41 79.9943H960.422V38.9766H1165.22L1194.41 79.9943Z" fill="#7654C5"/>
<path d="M1428.39 79.9943H1194.4L1165.21 38.9766H1370.01L1428.39 79.9943Z" fill="#FFD007"/>
<path d="M1662.38 79.9943H1428.39L1370.01 38.9766H1574.8L1662.38 79.9943Z" fill="#7654C5"/>
<path d="M1896.37 79.9943H1662.38L1574.8 38.9766H1779.6L1896.37 79.9943Z" fill="#FFD007"/>
<path d="M2130.36 79.9943H1896.37L1779.6 38.9766H1984.4L2130.36 79.9943Z" fill="#7654C5"/>
<path d="M-132.219 135.029H-405.375L-210.526 80.2734H23.6606L-132.219 135.029Z" fill="#7654C5"/>
<path d="M140.945 135.029H-132.211L23.6682 80.2734H257.856L140.945 135.029Z" fill="#FFD007"/>
<path d="M414.094 135.029H140.938L257.848 80.2734H492.034L414.094 135.029Z" fill="#7654C5"/>
<path d="M687.258 135.029H414.102L492.042 80.2734H726.228L687.258 135.029Z" fill="#FFD007"/>
<path d="M960.406 135.029H687.25L726.22 80.2734H960.406V135.029Z" fill="#7654C5"/>
<path d="M1233.57 135.029H960.414V80.2734H1194.6L1233.57 135.029Z" fill="#FFD007"/>
<path d="M1506.73 135.029H1233.57L1194.6 80.2734H1428.79L1506.73 135.029Z" fill="#7654C5"/>
<path d="M1779.88 135.029H1506.72L1428.78 80.2734H1662.97L1779.88 135.029Z" fill="#FFD007"/>
<path d="M2053.04 135.029H1779.89L1662.98 80.2734H1897.16L2053.04 135.029Z" fill="#7654C5"/>
<path d="M2326.19 135.029H2053.04L1897.16 80.2734H2131.34L2326.19 135.029Z" fill="#FFD007"/>
<path d="M-22.636 211.645H-350.32L-132.208 135.027H140.949L-22.636 211.645Z" fill="#7654C5"/>
<path d="M305.052 211.645H-22.6328L140.952 135.027H414.108L305.052 211.645Z" fill="#FFD007"/>
<path d="M632.724 211.645H305.039L414.096 135.027H687.252L632.724 211.645Z" fill="#7654C5"/>
<path d="M960.419 211.645H632.734L687.262 135.027H960.419V211.645Z" fill="#FFD007"/>
<path d="M1288.1 211.645H960.414V135.027H1233.57L1288.1 211.645Z" fill="#7654C5"/>
<path d="M1615.79 211.645H1288.11L1233.58 135.027H1506.73L1615.79 211.645Z" fill="#FFD007"/>
<path d="M1943.48 211.645H1615.79L1506.73 135.027H1779.89L1943.48 211.645Z" fill="#7654C5"/>
<path d="M2271.16 211.645H1943.48L1779.89 135.027H2053.05L2271.16 211.645Z" fill="#FFD007"/>
<path d="M140.364 327.329H-269.656L-23.8156 212.188H304.258L140.364 327.329Z" fill="#7654C5"/>
<path d="M550.387 327.329H140.367L304.26 212.188H632.334L550.387 327.329Z" fill="#FFD007"/>
<path d="M960.419 327.329H550.398L632.346 212.188H960.419V327.329Z" fill="#7654C5"/>
<path d="M1370.43 327.329H960.414V212.188H1288.49L1370.43 327.329Z" fill="#FFD007"/>
<path d="M1780.45 327.329H1370.43L1288.48 212.188H1616.56L1780.45 327.329Z" fill="#7654C5"/>
<path d="M2190.48 327.329H1780.46L1616.56 212.188H1944.64L2190.48 327.329Z" fill="#FFD007"/>
</g>
</g>
<defs>
<clipPath id="clip0_2593_506">
<rect width="2143" height="463" fill="white" transform="translate(-111)"/>
</clipPath>
</defs>
</svg>
