<svg width="440" height="809" viewBox="0 0 440 809" fill="none" xmlns="http://www.w3.org/2000/svg">
<path d="M50.1685 529.308L-225.981 797.232L-523.998 1090L-491.693 11L47.0042 253.223L50.1685 529.308Z" fill="#FCDAC6"/>
<path d="M-489.308 1053.55L-487.653 14.2305L47.8231 252.687L47.8296 253.212L50.9979 529.65L50.7459 529.898L-489.308 1053.55ZM-486 16.8004L-487.655 1049.62L49.3391 528.963L46.1845 253.755L-486 16.8004Z" fill="#232325"/>
<g opacity="0.63">
<path d="M23.5678 299.7C13.8737 296.425 5.27246 324.165 5.27246 361.97V521.015V572.727L38.9525 539.685V362.459C38.9525 330.669 32.3783 302.677 23.5678 299.7Z" fill="#808080"/>
<path d="M23.8705 299.677C14.1765 296.401 5.5752 324.142 5.5752 361.947V520.992L39.2552 362.436C39.2552 330.645 32.681 302.654 23.8705 299.677Z" fill="#232325"/>
</g>
<path d="M39.4866 539.598H5.80664V572.64L39.4866 539.598Z" fill="#232325"/>
<path d="M4.74805 574.671V361.948C4.74805 331.27 10.4588 305.747 18.6361 299.878C20.4218 298.597 22.2704 298.266 24.1336 298.895C33.2252 301.966 40.0804 329.283 40.0804 362.437V540.009L39.8324 540.251L4.74805 574.671ZM22.3108 300.24C21.4087 300.24 20.513 300.566 19.5996 301.221C13.0408 305.928 6.3996 328.298 6.3996 361.948V570.736L38.4272 539.315V362.438C38.4272 331.024 31.7779 303.223 23.6046 300.461L23.6038 300.461C23.1701 300.314 22.7397 300.24 22.3108 300.24Z" fill="#232325"/>
<g clip-path="url(#clip0_2578_1700)">
<path d="M53.9432 761.965H-27.1705L-85.0586 856.15H15.3511L53.9432 761.965Z" fill="#161616"/>
<path d="M135.075 761.965H53.9613L15.3691 856.15H115.777L135.075 761.965Z" fill="#FFECE1"/>
<path d="M216.167 761.965H135.055L115.758 856.15H216.167V761.965Z" fill="#161616"/>
<path d="M297.284 761.965H216.17V856.15H316.58L297.284 761.965Z" fill="#FFECE1"/>
<path d="M378.375 761.965H297.262L316.558 856.15H416.967L378.375 761.965Z" fill="#161616"/>
<path d="M459.524 761.965H378.41L417.002 856.15H517.412L459.524 761.965Z" fill="#FFECE1"/>
<path d="M12.039 698.148H-55.9985L-108.3 761.968H-27.1863L12.039 698.148Z" fill="#161616"/>
<path d="M40.3828 652.043H-18.2107L-55.9902 698.145H12.0473L40.3828 652.043Z" fill="#FFECE1"/>
<path d="M80.0964 698.148H12.0573L-27.168 761.968H53.9457L80.0964 698.148Z" fill="#FFECE1"/>
<path d="M148.149 698.148H80.1117L53.9609 761.968H135.075L148.149 698.148Z" fill="#161616"/>
<path d="M98.9894 652.043H40.396L12.0605 698.145H80.0997L98.9894 652.043Z" fill="#161616"/>
<path d="M157.569 652.043H98.9756L80.0859 698.145H148.123L157.569 652.043Z" fill="#FFECE1"/>
<path d="M216.165 698.148H148.127L135.053 761.968H216.165V698.148Z" fill="#FFECE1"/>
<path d="M284.209 698.148H216.17V761.968H297.284L284.209 698.148Z" fill="#161616"/>
<path d="M216.194 652.043H157.602L148.156 698.145H216.194V652.043Z" fill="#161616"/>
<path d="M274.763 652.043H216.17V698.145H284.209L274.763 652.043Z" fill="#FFECE1"/>
<path d="M352.257 698.148H284.22L297.294 761.968H378.408L352.257 698.148Z" fill="#FFECE1"/>
<path d="M420.287 698.148H352.249L378.4 761.968H459.513L420.287 698.148Z" fill="#161616"/>
<path d="M333.359 652.043H274.766L284.211 698.145H352.249L333.359 652.043Z" fill="#161616"/>
<path d="M391.952 652.039H333.36L352.25 698.141H420.288L391.952 652.039Z" fill="#FFECE1"/>
<path d="M488.314 698.148H420.274L459.501 761.968H540.613L488.314 698.148Z" fill="#FFECE1"/>
<path d="M450.534 652.043H391.94L420.276 698.145H488.315L450.534 652.043Z" fill="#161616"/>
<path d="M10.3464 617.18H-41.1054L-76.8164 652.041H-18.2245L10.3464 617.18Z" fill="#FFECE1"/>
<path d="M61.8415 617.18H10.3912L-18.1797 652.041H40.4138L61.8415 617.18Z" fill="#161616"/>
<path d="M32.7431 589.891H-13.1173L-41.0684 617.176H10.3834L32.7431 589.891Z" fill="#161616"/>
<path d="M78.6098 589.891H32.7494L10.3896 617.176H61.84L78.6098 589.891Z" fill="#FFECE1"/>
<path d="M113.273 617.18H61.8223L40.3945 652.041H98.9878L113.273 617.18Z" fill="#FFECE1"/>
<path d="M164.71 617.18H113.259L98.9746 652.041H157.568L164.71 617.18Z" fill="#161616"/>
<path d="M124.474 589.891H78.6135L61.8438 617.176H113.294L124.474 589.891Z" fill="#161616"/>
<path d="M170.31 589.891H124.449L113.27 617.176H164.72L170.31 589.891Z" fill="#FFECE1"/>
<path d="M216.161 617.18H164.711L157.569 652.041H216.161V617.18Z" fill="#FFECE1"/>
<path d="M267.62 617.18H216.17V652.041H274.763L267.62 617.18Z" fill="#161616"/>
<path d="M216.178 589.891H170.317L164.728 617.176H216.178V589.891Z" fill="#161616"/>
<path d="M262.03 589.891H216.17V617.176H267.62L262.03 589.891Z" fill="#FFECE1"/>
<path d="M319.08 617.18H267.628L274.771 652.041H333.364L319.08 617.18Z" fill="#FFECE1"/>
<path d="M370.536 617.18H319.086L333.371 652.041H391.963L370.536 617.18Z" fill="#161616"/>
<path d="M307.882 589.891H262.021L267.611 617.176H319.063L307.882 589.891Z" fill="#161616"/>
<path d="M353.749 589.891H307.889L319.07 617.176H370.52L353.749 589.891Z" fill="#FFECE1"/>
<path d="M421.958 617.18H370.508L391.934 652.041H450.528L421.958 617.18Z" fill="#FFECE1"/>
<path d="M473.437 617.18H421.986L450.556 652.041H509.149L473.437 617.18Z" fill="#161616"/>
<path d="M399.62 589.891H353.76L370.531 617.176H421.981L399.62 589.891Z" fill="#161616"/>
<path d="M445.472 589.891H399.611L421.972 617.176H473.423L445.472 589.891Z" fill="#FFECE1"/>
<path d="M50.71 567.957H9.3442L-13.1289 589.896H32.7315L50.71 567.957Z" fill="#FFECE1"/>
<path d="M92.067 567.957H50.7012L32.7227 589.896H78.5831L92.067 567.957Z" fill="#161616"/>
<path d="M65.4718 549.934H27.7983L9.33691 567.955H50.7027L65.4718 549.934Z" fill="#161616"/>
<path d="M103.161 549.934H65.4878L50.7188 567.955H92.0846L103.161 549.934Z" fill="#FFECE1"/>
<path d="M133.444 567.957H92.0787L78.5947 589.896H124.455L133.444 567.957Z" fill="#FFECE1"/>
<path d="M174.816 567.957H133.45L124.461 589.896H170.321L174.816 567.957Z" fill="#161616"/>
<path d="M140.823 549.934H103.149L92.0723 567.955H133.438L140.823 549.934Z" fill="#161616"/>
<path d="M178.492 549.934H140.818L133.434 567.955H174.799L178.492 549.934Z" fill="#FFECE1"/>
<path d="M216.194 567.957H174.829L170.334 589.896H216.194V567.957Z" fill="#FFECE1"/>
<path d="M257.536 567.957H216.17V589.896H262.03L257.536 567.957Z" fill="#161616"/>
<path d="M216.165 549.934H178.491L174.799 567.955H216.165V549.934Z" fill="#161616"/>
<path d="M253.843 549.934H216.17V567.955H257.536L253.843 549.934Z" fill="#FFECE1"/>
<path d="M298.921 567.957H257.556L262.05 589.896H307.911L298.921 567.957Z" fill="#FFECE1"/>
<path d="M340.266 567.957H298.9L307.89 589.896H353.75L340.266 567.957Z" fill="#161616"/>
<path d="M291.519 549.934H253.846L257.538 567.955H298.904L291.519 549.934Z" fill="#161616"/>
<path d="M329.19 549.934H291.517L298.901 567.955H340.267L329.19 549.934Z" fill="#FFECE1"/>
<path d="M381.627 567.957H340.262L353.745 589.896H399.606L381.627 567.957Z" fill="#FFECE1"/>
<path d="M423.013 567.957H381.647L399.626 589.896H445.486L423.013 567.957Z" fill="#161616"/>
<path d="M366.886 549.934H329.213L340.29 567.955H381.655L366.886 549.934Z" fill="#161616"/>
<path d="M404.534 549.934H366.859L381.628 567.955H422.994L404.534 549.934Z" fill="#FFECE1"/>
<path d="M77.8329 534.867H43.2465L27.8105 549.935H65.484L77.8329 534.867Z" fill="#FFECE1"/>
<path d="M112.411 534.867H77.8245L65.4756 549.935H103.149L112.411 534.867Z" fill="#161616"/>
<path d="M88.3266 522.082H56.3594L43.2627 534.868H77.8491L88.3266 522.082Z" fill="#161616"/>
<path d="M120.289 522.082H88.3213L77.8438 534.868H112.43L120.289 522.082Z" fill="#FFECE1"/>
<path d="M146.991 534.867H112.404L103.143 549.935H140.816L146.991 534.867Z" fill="#FFECE1"/>
<path d="M181.579 534.867H146.993L140.818 549.935H178.492L181.579 534.867Z" fill="#161616"/>
<path d="M152.222 522.082H120.255L112.396 534.868H146.983L152.222 522.082Z" fill="#161616"/>
<path d="M184.204 522.082H152.239L146.999 534.868H181.585L184.204 522.082Z" fill="#FFECE1"/>
<path d="M216.173 534.867H181.587L178.5 549.935H216.173V534.867Z" fill="#FFECE1"/>
<path d="M250.756 534.867H216.17V549.935H253.843L250.756 534.867Z" fill="#161616"/>
<path d="M216.168 522.082H184.201L181.582 534.868H216.168V522.082Z" fill="#161616"/>
<path d="M248.137 522.082H216.17V534.868H250.756L248.137 522.082Z" fill="#FFECE1"/>
<path d="M285.34 534.867H250.752L253.839 549.935H291.513L285.34 534.867Z" fill="#FFECE1"/>
<path d="M319.906 534.867H285.319L291.492 549.935H329.166L319.906 534.867Z" fill="#161616"/>
<path d="M280.12 522.082H248.152L250.771 534.868H285.359L280.12 522.082Z" fill="#161616"/>
<path d="M312.072 522.082H280.104L285.344 534.868H319.93L312.072 522.082Z" fill="#FFECE1"/>
<path d="M354.524 534.867H319.938L329.198 549.935H366.871L354.524 534.867Z" fill="#FFECE1"/>
<path d="M389.112 534.867H354.525L366.873 549.935H404.548L389.112 534.867Z" fill="#161616"/>
<path d="M344.044 522.082H312.076L319.935 534.868H354.521L344.044 522.082Z" fill="#161616"/>
<path d="M376.004 522.082H344.038L354.516 534.868H389.102L376.004 522.082Z" fill="#FFECE1"/>
</g>
<path d="M373.825 518.308L649.974 786.232L947.991 1079L915.686 0L376.989 242.223L373.825 518.308Z" fill="#FCDAC6"/>
<path d="M913.301 1042.55L911.646 3.23047L376.17 241.687L376.164 242.212L372.995 518.65L373.247 518.898L913.301 1042.55ZM909.994 5.80037L911.648 1038.62L374.654 517.963L377.809 242.755L909.994 5.80037Z" fill="#232325"/>
<path d="M453.919 270.496C469.979 265.069 484.616 300.354 484.616 349.982V558.763V626.646L429.328 572.406V350.785C429.329 311.032 439.705 275.299 453.919 270.496Z" fill="#808080"/>
<path d="M454.222 270.519C470.282 265.093 484.919 300.378 484.919 350.005V558.787L429.631 350.809C429.631 311.055 440.008 275.322 454.222 270.519Z" fill="#232325"/>
<g opacity="0.63">
<path d="M400.425 288.7C410.119 285.425 418.721 313.165 418.721 350.97V510.015V561.727L385.041 528.685V351.459C385.041 319.669 391.615 291.677 400.425 288.7Z" fill="#808080"/>
<path d="M400.123 288.677C409.817 285.401 418.418 313.142 418.418 350.947V509.992L384.738 351.436C384.738 319.645 391.312 291.654 400.123 288.677Z" fill="#232325"/>
</g>
<path d="M428.313 572.211H483.602V626.451L428.313 572.211Z" fill="#232325"/>
<path d="M384.507 528.598H418.188V561.64L384.507 528.598Z" fill="#232325"/>
<path d="M485.443 628.617V349.986C485.443 312.186 476.95 280.695 464.308 271.623C460.849 269.139 457.265 268.497 453.655 269.718C439.316 274.562 428.503 309.416 428.503 350.789V572.757L428.751 572.999L485.443 628.617ZM457.174 270.777C459.249 270.777 461.315 271.508 463.344 272.965C475.383 281.604 483.791 313.277 483.791 349.985V624.681L430.154 572.062V350.788C430.154 310.759 440.709 275.835 454.184 271.282C455.181 270.945 456.179 270.777 457.174 270.777Z" fill="#232325"/>
<path d="M419.244 563.671V350.948C419.244 320.27 413.533 294.747 405.356 288.878C403.57 287.597 401.722 287.266 399.859 287.895C390.767 290.966 383.912 318.283 383.912 351.437V529.009L384.16 529.251L419.244 563.671ZM401.681 289.24C402.583 289.24 403.479 289.566 404.393 290.221C410.951 294.928 417.593 317.298 417.593 350.948V559.736L385.565 528.315V351.438C385.565 320.024 392.214 292.223 400.388 289.461L400.388 289.461C400.822 289.314 401.252 289.24 401.681 289.24Z" fill="#232325"/>
<defs>
<clipPath id="clip0_2578_1700">
<rect width="1284.99" height="663" fill="white" transform="translate(-395 523)"/>
</clipPath>
</defs>
</svg>
