<svg width="440" height="286" viewBox="0 0 440 286" fill="none" xmlns="http://www.w3.org/2000/svg">
<path d="M53.9432 238.965H-27.1705L-85.0586 333.15H15.3511L53.9432 238.965Z" fill="#161616"/>
<path d="M135.075 238.965H53.9613L15.3691 333.15H115.777L135.075 238.965Z" fill="#FFECE1"/>
<path d="M216.167 238.965H135.055L115.758 333.15H216.167V238.965Z" fill="#161616"/>
<path d="M297.284 238.965H216.17V333.15H316.58L297.284 238.965Z" fill="#FFECE1"/>
<path d="M378.375 238.965H297.262L316.558 333.15H416.967L378.375 238.965Z" fill="#161616"/>
<path d="M459.524 238.965H378.41L417.002 333.15H517.412L459.524 238.965Z" fill="#FFECE1"/>
<path d="M12.038 175.148H-55.9995L-108.301 238.968H-27.1873L12.038 175.148Z" fill="#161616"/>
<path d="M40.3828 129.043H-18.2107L-55.9902 175.145H12.0473L40.3828 129.043Z" fill="#FFECE1"/>
<path d="M80.0964 175.148H12.0573L-27.168 238.968H53.9457L80.0964 175.148Z" fill="#FFECE1"/>
<path d="M148.149 175.148H80.1117L53.9609 238.968H135.075L148.149 175.148Z" fill="#161616"/>
<path d="M98.9894 129.043H40.396L12.0605 175.145H80.0997L98.9894 129.043Z" fill="#161616"/>
<path d="M157.569 129.043H98.9756L80.0859 175.145H148.123L157.569 129.043Z" fill="#FFECE1"/>
<path d="M216.165 175.148H148.127L135.053 238.968H216.165V175.148Z" fill="#FFECE1"/>
<path d="M284.209 175.148H216.17V238.968H297.284L284.209 175.148Z" fill="#161616"/>
<path d="M216.194 129.043H157.602L148.156 175.145H216.194V129.043Z" fill="#161616"/>
<path d="M274.763 129.043H216.17V175.145H284.209L274.763 129.043Z" fill="#FFECE1"/>
<path d="M352.256 175.148H284.219L297.293 238.968H378.407L352.256 175.148Z" fill="#FFECE1"/>
<path d="M420.288 175.148H352.25L378.401 238.968H459.514L420.288 175.148Z" fill="#161616"/>
<path d="M333.359 129.043H274.766L284.211 175.145H352.249L333.359 129.043Z" fill="#161616"/>
<path d="M391.951 129.039H333.359L352.249 175.141H420.287L391.951 129.039Z" fill="#FFECE1"/>
<path d="M488.313 175.148H420.273L459.5 238.968H540.612L488.313 175.148Z" fill="#FFECE1"/>
<path d="M450.533 129.043H391.939L420.275 175.145H488.314L450.533 129.043Z" fill="#161616"/>
<path d="M10.3464 94.1797H-41.1054L-76.8164 129.041H-18.2245L10.3464 94.1797Z" fill="#FFECE1"/>
<path d="M61.8415 94.1797H10.3912L-18.1797 129.041H40.4138L61.8415 94.1797Z" fill="#161616"/>
<path d="M32.7431 66.8906H-13.1173L-41.0684 94.1762H10.3834L32.7431 66.8906Z" fill="#161616"/>
<path d="M78.6107 66.8906H32.7503L10.3906 94.1762H61.841L78.6107 66.8906Z" fill="#FFECE1"/>
<path d="M113.273 94.1797H61.8223L40.3945 129.041H98.9878L113.273 94.1797Z" fill="#FFECE1"/>
<path d="M164.71 94.1797H113.259L98.9746 129.041H157.568L164.71 94.1797Z" fill="#161616"/>
<path d="M124.474 66.8906H78.6135L61.8438 94.1762H113.294L124.474 66.8906Z" fill="#161616"/>
<path d="M170.31 66.8906H124.449L113.27 94.1762H164.72L170.31 66.8906Z" fill="#FFECE1"/>
<path d="M216.162 94.1797H164.712L157.57 129.041H216.162V94.1797Z" fill="#FFECE1"/>
<path d="M267.62 94.1797H216.17V129.041H274.763L267.62 94.1797Z" fill="#161616"/>
<path d="M216.177 66.8906H170.316L164.727 94.1762H216.177V66.8906Z" fill="#161616"/>
<path d="M262.03 66.8906H216.17V94.1762H267.62L262.03 66.8906Z" fill="#FFECE1"/>
<path d="M319.079 94.1797H267.627L274.77 129.041H333.363L319.079 94.1797Z" fill="#FFECE1"/>
<path d="M370.536 94.1797H319.086L333.371 129.041H391.963L370.536 94.1797Z" fill="#161616"/>
<path d="M307.882 66.8906H262.021L267.611 94.1762H319.063L307.882 66.8906Z" fill="#161616"/>
<path d="M353.749 66.8906H307.889L319.07 94.1762H370.52L353.749 66.8906Z" fill="#FFECE1"/>
<path d="M421.958 94.1797H370.508L391.934 129.041H450.528L421.958 94.1797Z" fill="#FFECE1"/>
<path d="M473.437 94.1797H421.986L450.556 129.041H509.149L473.437 94.1797Z" fill="#161616"/>
<path d="M399.62 66.8906H353.76L370.531 94.1762H421.981L399.62 66.8906Z" fill="#161616"/>
<path d="M445.472 66.8906H399.611L421.972 94.1762H473.423L445.472 66.8906Z" fill="#FFECE1"/>
<path d="M50.71 44.957H9.3442L-13.1289 66.8957H32.7315L50.71 44.957Z" fill="#FFECE1"/>
<path d="M92.067 44.957H50.7012L32.7227 66.8957H78.5831L92.067 44.957Z" fill="#161616"/>
<path d="M65.4708 26.9336H27.7973L9.33594 44.9549H50.7018L65.4708 26.9336Z" fill="#161616"/>
<path d="M103.161 26.9336H65.4878L50.7188 44.9549H92.0846L103.161 26.9336Z" fill="#FFECE1"/>
<path d="M133.445 44.957H92.0796L78.5957 66.8957H124.456L133.445 44.957Z" fill="#FFECE1"/>
<path d="M174.816 44.957H133.45L124.461 66.8957H170.321L174.816 44.957Z" fill="#161616"/>
<path d="M140.823 26.9336H103.149L92.0723 44.9549H133.438L140.823 26.9336Z" fill="#161616"/>
<path d="M178.492 26.9336H140.818L133.434 44.9549H174.799L178.492 26.9336Z" fill="#FFECE1"/>
<path d="M216.194 44.957H174.829L170.334 66.8957H216.194V44.957Z" fill="#FFECE1"/>
<path d="M257.536 44.957H216.17V66.8957H262.03L257.536 44.957Z" fill="#161616"/>
<path d="M216.165 26.9336H178.491L174.799 44.9549H216.165V26.9336Z" fill="#161616"/>
<path d="M253.843 26.9336H216.17V44.9549H257.536L253.843 26.9336Z" fill="#FFECE1"/>
<path d="M298.921 44.957H257.555L262.049 66.8957H307.91L298.921 44.957Z" fill="#FFECE1"/>
<path d="M340.266 44.957H298.9L307.89 66.8957H353.75L340.266 44.957Z" fill="#161616"/>
<path d="M291.519 26.9336H253.846L257.538 44.9549H298.904L291.519 26.9336Z" fill="#161616"/>
<path d="M329.191 26.9336H291.518L298.902 44.9549H340.268L329.191 26.9336Z" fill="#FFECE1"/>
<path d="M381.627 44.957H340.262L353.745 66.8957H399.606L381.627 44.957Z" fill="#FFECE1"/>
<path d="M423.014 44.957H381.648L399.627 66.8957H445.487L423.014 44.957Z" fill="#161616"/>
<path d="M366.886 26.9336H329.213L340.29 44.9549H381.655L366.886 26.9336Z" fill="#161616"/>
<path d="M404.534 26.9336H366.859L381.628 44.9549H422.994L404.534 26.9336Z" fill="#FFECE1"/>
<path d="M77.8329 11.8672H43.2465L27.8105 26.9351H65.484L77.8329 11.8672Z" fill="#FFECE1"/>
<path d="M112.41 11.8672H77.8235L65.4746 26.9351H103.148L112.41 11.8672Z" fill="#161616"/>
<path d="M88.3256 -0.917969H56.3584L43.2617 11.868H77.8481L88.3256 -0.917969Z" fill="#161616"/>
<path d="M120.289 -0.917969H88.3213L77.8438 11.868H112.43L120.289 -0.917969Z" fill="#FFECE1"/>
<path d="M146.991 11.8672H112.404L103.143 26.9351H140.816L146.991 11.8672Z" fill="#FFECE1"/>
<path d="M181.579 11.8672H146.993L140.818 26.9351H178.492L181.579 11.8672Z" fill="#161616"/>
<path d="M152.222 -0.917969H120.255L112.396 11.868H146.983L152.222 -0.917969Z" fill="#161616"/>
<path d="M184.203 -0.917969H152.238L146.998 11.868H181.584L184.203 -0.917969Z" fill="#FFECE1"/>
<path d="M216.173 11.8672H181.587L178.5 26.9351H216.173V11.8672Z" fill="#FFECE1"/>
<path d="M250.756 11.8672H216.17V26.9351H253.843L250.756 11.8672Z" fill="#161616"/>
<path d="M216.168 -0.917969H184.201L181.582 11.868H216.168V-0.917969Z" fill="#161616"/>
<path d="M248.137 -0.917969H216.17V11.868H250.756L248.137 -0.917969Z" fill="#FFECE1"/>
<path d="M285.34 11.8672H250.752L253.839 26.9351H291.513L285.34 11.8672Z" fill="#FFECE1"/>
<path d="M319.907 11.8672H285.32L291.493 26.9351H329.167L319.907 11.8672Z" fill="#161616"/>
<path d="M280.12 -0.917969H248.152L250.771 11.868H285.359L280.12 -0.917969Z" fill="#161616"/>
<path d="M312.071 -0.917969H280.104L285.343 11.868H319.929L312.071 -0.917969Z" fill="#FFECE1"/>
<path d="M354.524 11.8672H319.938L329.198 26.9351H366.871L354.524 11.8672Z" fill="#FFECE1"/>
<path d="M389.112 11.8672H354.525L366.873 26.9351H404.548L389.112 11.8672Z" fill="#161616"/>
<path d="M344.044 -0.917969H312.076L319.935 11.868H354.521L344.044 -0.917969Z" fill="#161616"/>
<path d="M376.005 -0.917969H344.039L354.517 11.868H389.103L376.005 -0.917969Z" fill="#FFECE1"/>
</svg>
