<svg width="1920" height="902" viewBox="0 0 1920 902" fill="none" xmlns="http://www.w3.org/2000/svg">
<path d="M1246.03 652.261L1587.96 984L1928.5 1325L1928.51 7.5L1249.95 310.417L1246.03 652.261Z" fill="#FFECE1"/>
<path d="M1464.34 303.83C1503.49 290.603 1540.96 350.421 1540.96 439.827V815.962V938.257L1408.06 807.88V441.759C1408.06 376.085 1431.29 314.995 1464.34 303.83Z" fill="#6F6F6F"/>
<path d="M1933 1321.36L1930.96 2L1248.94 309.755L1248.93 310.404L1245.01 652.686L1245.32 652.992L1933 1321.36ZM1928.91 5.18201L1930.96 1316.5L1247.06 651.835L1250.97 311.077L1928.91 5.18201Z" fill="#131313"/>
<path d="M1675.87 228.471C1734.67 208.603 1790.96 298.455 1790.96 432.751V997.738V1181.44L1591.33 985.598V435.653C1591.33 337.005 1626.23 245.242 1675.87 228.471Z" fill="#6F6F6F"/>
<path d="M1790.71 1187.71V435.371C1790.71 344.864 1764.49 267.564 1723.91 238.441C1707.92 226.964 1690.53 223.914 1673.6 229.634C1624.81 246.12 1588.02 335.814 1588.02 438.271V988.862L1588.48 989.313L1790.71 1187.71ZM1690.32 229.911C1701.14 229.911 1711.92 233.618 1722.12 240.939C1761.92 269.503 1787.64 345.822 1787.64 435.372V1180.4L1591.09 987.572V438.273C1591.09 337.073 1626.98 248.63 1674.58 232.547C1679.79 230.785 1685.06 229.911 1690.32 229.911Z" fill="#131313"/>
<path d="M1674.1 231.089C1732.9 211.221 1789.18 301.072 1789.18 435.369V1000.36L1589.56 438.271C1589.56 339.622 1624.46 247.859 1674.1 231.089Z" fill="#353535"/>
<path d="M1540.8 942.438V441.572C1540.8 381.318 1523.34 329.856 1496.33 310.468C1485.68 302.827 1474.1 300.797 1462.83 304.605C1430.35 315.58 1405.86 375.293 1405.86 443.503V810.054L1406.16 810.354L1540.8 942.438ZM1473.96 304.789C1481.17 304.789 1488.34 307.257 1495.14 312.131C1521.63 331.147 1538.75 381.956 1538.75 441.573V937.567L1407.9 809.195V443.504C1407.9 376.131 1431.8 317.251 1463.49 306.544C1466.96 305.371 1470.46 304.789 1473.96 304.789Z" fill="#131313"/>
<g opacity="0.63">
<path d="M1463.16 305.572C1502.31 292.345 1539.78 352.163 1539.78 441.57V817.705L1406.88 443.502C1406.88 377.827 1430.11 316.737 1463.16 305.572Z" fill="#131313"/>
</g>
<path d="M1384.24 788.842V443.846C1384.24 397.043 1373.72 358.051 1358.07 346.818C1353.78 343.742 1349.35 342.948 1344.88 344.459C1327.12 350.457 1313.73 393.612 1313.73 444.84V719.676L1314.04 719.977L1384.24 788.842ZM1349.23 345.771C1351.8 345.771 1354.36 346.675 1356.87 348.479C1371.78 359.176 1382.19 398.393 1382.19 443.845V783.969L1315.78 718.816V444.839C1315.78 395.275 1328.85 352.033 1345.53 346.396C1346.77 345.979 1348 345.771 1349.23 345.771Z" fill="#131313"/>
<path d="M1345.2 345.424C1365.09 338.705 1383.21 382.394 1383.21 443.842V702.352V785.497L1314.76 718.497V444.837C1314.76 395.615 1327.61 351.371 1345.2 345.424Z" fill="#6F6F6F"/>
<path d="M1345.45 345.182C1365.33 338.463 1383.46 382.152 1383.46 443.6V702.11L1315 444.595C1315 395.373 1327.85 351.129 1345.45 345.182Z" fill="#4A4949"/>
<path d="M1302.27 708.426V445.036C1302.27 407.051 1295.2 375.448 1285.07 368.182C1282.86 366.596 1280.57 366.186 1278.27 366.965C1267.01 370.767 1258.52 404.59 1258.52 445.641V665.508L1258.83 665.808L1302.27 708.426ZM1280.52 368.63C1281.64 368.63 1282.75 369.033 1283.88 369.844C1292 375.672 1300.22 403.371 1300.22 445.036V703.554L1260.57 664.649V445.642C1260.57 406.746 1268.8 372.323 1278.92 368.904L1278.92 368.903C1279.46 368.722 1279.99 368.63 1280.52 368.63Z" fill="#131313"/>
<g opacity="0.63">
<path d="M1278.39 368.466C1290.39 364.411 1301.04 398.758 1301.04 445.568V642.495V706.523L1259.34 665.611V446.173C1259.34 406.811 1267.48 372.152 1278.39 368.466Z" fill="#6F6F6F"/>
<path d="M1278.59 367.935C1290.6 363.879 1301.25 398.227 1301.25 445.037V641.964L1259.54 445.643C1259.54 406.28 1267.68 371.621 1278.59 367.935Z" fill="#131313"/>
</g>
<path d="M1259.25 665H1300.96V705.912L1259.25 665Z" fill="#131313"/>
<path d="M1315.5 719H1383.96V786.159L1315.5 719Z" fill="#131313"/>
<path d="M1407.01 807.5H1539.9V937.878L1407.01 807.5Z" fill="#131313"/>
<path d="M690.976 650.261L349.052 982L0.489746 1323L0.497559 2.5L687.058 308.417L690.976 650.261Z" fill="#FFECE1"/>
<path d="M472.669 301.83C433.521 288.603 396.052 348.421 396.052 437.827V813.962V936.257L528.948 805.88V439.759C528.948 374.085 505.715 312.995 472.669 301.83Z" fill="#6F6F6F"/>
<path d="M-5.99512 1319.36L-3.9491 0L688.071 307.755L688.079 308.404L692.002 650.686L691.69 650.992L-5.99512 1319.36ZM-1.90308 3.18201L-3.9491 1314.5L689.948 649.835L686.042 309.077L-1.90308 3.18201Z" fill="#131313"/>
<path d="M261.138 226.471C202.334 206.603 146.052 296.455 146.052 430.751V995.738V1179.44L345.673 983.598V433.653C345.673 335.005 310.776 243.242 261.138 226.471Z" fill="#6F6F6F"/>
<path d="M146.294 1185.71V433.371C146.294 342.864 172.515 265.564 213.094 236.441C229.086 224.964 246.481 221.914 263.409 227.634C312.198 244.12 348.989 333.814 348.989 436.271V986.862L348.528 987.313L146.294 1185.71ZM246.688 227.911C235.867 227.911 225.086 231.618 214.886 238.939C175.085 267.503 149.368 343.822 149.368 433.372V1178.4L345.917 985.572V436.273C345.917 335.073 310.023 246.63 262.425 230.547C257.213 228.785 251.945 227.911 246.688 227.911Z" fill="#131313"/>
<path d="M262.911 229.089C204.107 209.221 147.826 299.072 147.826 433.369V998.356L347.447 436.271C347.447 337.622 312.549 245.859 262.911 229.089Z" fill="#353535"/>
<path d="M396.208 940.438V439.572C396.208 379.318 413.664 327.856 440.679 308.468C451.326 300.827 462.907 298.797 474.177 302.605C506.658 313.58 531.151 373.293 531.151 441.503V808.054L530.844 808.354L396.208 940.438ZM463.044 302.789C455.84 302.789 448.663 305.257 441.872 310.131C415.375 329.147 398.255 379.956 398.255 439.573V935.567L529.105 807.195V441.504C529.105 374.131 505.209 315.251 473.521 304.544C470.051 303.371 466.544 302.789 463.044 302.789Z" fill="#131313"/>
<g opacity="0.63">
<path d="M473.849 303.572C434.701 290.345 397.232 350.163 397.232 439.57V815.705L530.128 441.502C530.128 375.827 506.895 314.737 473.849 303.572Z" fill="#131313"/>
</g>
<path d="M552.771 786.842V441.846C552.771 395.043 563.287 356.051 578.941 344.818C583.224 341.742 587.661 340.948 592.131 342.459C609.885 348.457 623.274 391.612 623.274 442.84V717.676L622.967 717.977L552.771 786.842ZM587.774 343.771C585.204 343.771 582.647 344.675 580.134 346.479C565.228 357.176 554.817 396.393 554.817 441.845V781.969L621.229 716.816V442.839C621.229 393.275 608.16 350.033 591.476 344.396C590.242 343.979 589.006 343.771 587.774 343.771Z" fill="#131313"/>
<path d="M591.803 343.424C571.917 336.705 553.794 380.394 553.794 441.842V700.352V783.497L622.251 716.497V442.837C622.25 393.615 609.402 349.371 591.803 343.424Z" fill="#6F6F6F"/>
<path d="M591.561 343.182C571.675 336.463 553.552 380.152 553.552 441.6V700.11L622.009 442.595C622.008 393.373 609.16 349.129 591.561 343.182Z" fill="#4A4949"/>
<path d="M634.74 706.426V443.036C634.74 405.051 641.811 373.448 651.936 366.182C654.147 364.596 656.436 364.186 658.743 364.965C670 368.767 678.488 402.59 678.488 443.641V663.508L678.181 663.808L634.74 706.426ZM656.486 366.63C655.369 366.63 654.26 367.033 653.129 367.844C645.008 373.672 636.785 401.371 636.785 443.036V701.554L676.441 662.649V443.642C676.441 404.746 668.208 370.323 658.088 366.904L658.087 366.903C657.55 366.722 657.017 366.63 656.486 366.63Z" fill="#131313"/>
<g opacity="0.63">
<path d="M658.619 366.466C646.616 362.411 635.966 396.758 635.966 443.568V640.495V704.523L677.668 663.611V444.173C677.668 404.811 669.528 370.152 658.619 366.466Z" fill="#6F6F6F"/>
<path d="M658.416 365.935C646.413 361.879 635.763 396.227 635.763 443.037V639.964L677.465 443.643C677.465 404.28 669.325 369.621 658.416 365.935Z" fill="#131313"/>
</g>
<path d="M677.754 663H636.052V703.912L677.754 663Z" fill="#131313"/>
<path d="M621.509 717H553.052V784.159L621.509 717Z" fill="#131313"/>
<path d="M530 805.5H397.104V935.878L530 805.5Z" fill="#131313"/>
<path d="M566.194 874.918H465.244L383.877 954.349H501.102L566.194 874.918Z" fill="#161616"/>
<path d="M667.159 874.918H566.205L501.113 954.349H618.338L667.159 874.918Z" fill="#FFECE1"/>
<path d="M768.108 874.918H667.155L618.334 954.349H735.562L768.108 874.918Z" fill="#161616"/>
<path d="M869.062 874.918H768.108L735.562 954.349H852.787L869.062 874.918Z" fill="#FFECE1"/>
<path d="M970.016 874.918H869.065L852.791 954.349H970.016V874.918Z" fill="#161616"/>
<path d="M1070.96 874.918H970.005V954.349H1087.23L1070.96 874.918Z" fill="#FFECE1"/>
<path d="M1171.91 874.918H1070.96L1087.23 954.349H1204.45L1171.91 874.918Z" fill="#161616"/>
<path d="M1272.87 874.918H1171.92L1204.47 954.349H1321.69L1272.87 874.918Z" fill="#FFECE1"/>
<path d="M1373.82 874.918H1272.86L1321.68 954.349H1438.91L1373.82 874.918Z" fill="#161616"/>
<path d="M1474.77 874.918H1373.82L1438.92 954.349H1556.14L1474.77 874.918Z" fill="#FFECE1"/>
<path d="M615.406 814.855H526.758L465.229 874.92H566.18L615.406 814.855Z" fill="#FFECE1"/>
<path d="M704.082 814.855H615.436L566.21 874.92H667.163L704.082 814.855Z" fill="#161616"/>
<path d="M653.937 767.836H574.922L526.764 814.848H615.413L653.937 767.836Z" fill="#161616"/>
<path d="M732.968 767.836H653.953L615.429 814.848H704.075L732.968 767.836Z" fill="#FFECE1"/>
<path d="M792.726 814.855H704.079L667.161 874.92H768.114L792.726 814.855Z" fill="#FFECE1"/>
<path d="M881.354 814.855H792.708L768.096 874.92H869.049L881.354 814.855Z" fill="#161616"/>
<path d="M811.987 767.836H732.972L704.078 814.848H792.724L811.987 767.836Z" fill="#161616"/>
<path d="M890.982 767.836H811.967L792.705 814.848H881.351L890.982 767.836Z" fill="#FFECE1"/>
<path d="M969.998 814.855H881.351L869.047 874.92H969.998V814.855Z" fill="#FFECE1"/>
<path d="M1058.65 814.855H970.005V874.92H1070.96L1058.65 814.855Z" fill="#161616"/>
<path d="M970.016 767.836H891.001L881.37 814.848H970.016V767.836Z" fill="#161616"/>
<path d="M1049.02 767.836H970.005V814.848H1058.65L1049.02 767.836Z" fill="#FFECE1"/>
<path d="M1147.31 814.855H1058.66L1070.97 874.92H1171.92L1147.31 814.855Z" fill="#FFECE1"/>
<path d="M1235.96 814.855H1147.31L1171.92 874.92H1272.87L1235.96 814.855Z" fill="#161616"/>
<path d="M1128.02 767.836H1049L1058.63 814.848H1147.28L1128.02 767.836Z" fill="#161616"/>
<path d="M1207.06 767.836H1128.04L1147.31 814.848H1235.96L1207.06 767.836Z" fill="#FFECE1"/>
<path d="M1324.59 814.855H1235.95L1272.86 874.92H1373.82L1324.59 814.855Z" fill="#FFECE1"/>
<path d="M1413.25 814.855H1324.6L1373.83 874.92H1474.78L1413.25 814.855Z" fill="#161616"/>
<path d="M1286.06 767.836H1207.05L1235.95 814.848H1324.59L1286.06 767.836Z" fill="#161616"/>
<path d="M1365.09 767.836H1286.08L1324.61 814.848H1413.25L1365.09 767.836Z" fill="#FFECE1"/>
<path d="M684.925 730.039H613.654L574.934 767.838H653.949L684.925 730.039Z" fill="#FFECE1"/>
<path d="M756.201 730.039H684.93L653.954 767.838H732.969L756.201 730.039Z" fill="#161616"/>
<path d="M710.357 698.988H645.448L613.64 730.038H684.911L710.357 698.988Z" fill="#161616"/>
<path d="M775.319 698.988H710.409L684.963 730.038H756.234L775.319 698.988Z" fill="#FFECE1"/>
<path d="M827.477 730.039H756.206L732.974 767.838H811.989L827.477 730.039Z" fill="#FFECE1"/>
<path d="M898.731 730.039H827.46L811.972 767.838H890.987L898.731 730.039Z" fill="#161616"/>
<path d="M840.19 698.988H775.28L756.195 730.038H827.466L840.19 698.988Z" fill="#161616"/>
<path d="M905.097 698.988H840.188L827.465 730.038H898.736L905.097 698.988Z" fill="#FFECE1"/>
<path d="M970.03 730.039H898.759L891.015 767.838H970.03V730.039Z" fill="#FFECE1"/>
<path d="M1041.28 730.039H970.005V767.838H1049.02L1041.28 730.039Z" fill="#161616"/>
<path d="M970.005 698.988H905.096L898.734 730.038H970.005V698.988Z" fill="#161616"/>
<path d="M1034.91 698.988H970.005V730.038H1041.28L1034.91 698.988Z" fill="#FFECE1"/>
<path d="M1112.55 730.039H1041.28L1049.03 767.838H1128.04L1112.55 730.039Z" fill="#FFECE1"/>
<path d="M1183.82 730.039H1112.54L1128.03 767.838H1207.05L1183.82 730.039Z" fill="#161616"/>
<path d="M1099.83 698.988H1034.92L1041.28 730.038H1112.55L1099.83 698.988Z" fill="#161616"/>
<path d="M1164.75 698.988H1099.84L1112.56 730.038H1183.83L1164.75 698.988Z" fill="#FFECE1"/>
<path d="M1255.1 730.039H1183.83L1207.06 767.838H1286.08L1255.1 730.039Z" fill="#FFECE1"/>
<path d="M1326.37 730.039H1255.1L1286.07 767.838H1365.09L1326.37 730.039Z" fill="#161616"/>
<path d="M1229.66 698.988H1164.75L1183.84 730.038H1255.11L1229.66 698.988Z" fill="#161616"/>
<path d="M1294.55 698.988H1229.64L1255.08 730.038H1326.35L1294.55 698.988Z" fill="#FFECE1"/>
<path d="M731.657 673.031H672.067L645.472 698.992H710.381L731.657 673.031Z" fill="#FFECE1"/>
<path d="M791.231 673.031H731.641L710.365 698.992H775.274L791.231 673.031Z" fill="#161616"/>
<path d="M749.724 651H694.646L672.081 673.029H731.672L749.724 651Z" fill="#161616"/>
<path d="M804.791 651H749.713L731.661 673.029H791.251L804.791 651Z" fill="#FFECE1"/>
<path d="M850.821 673.031H791.23L775.273 698.992H840.183L850.821 673.031Z" fill="#FFECE1"/>
<path d="M910.417 673.031H850.827L840.188 698.992H905.098L910.417 673.031Z" fill="#161616"/>
<path d="M859.867 651H804.789L791.249 673.029H850.839L859.867 651Z" fill="#161616"/>
<path d="M914.94 651H859.864L850.837 673.029H910.427L914.94 651Z" fill="#FFECE1"/>
<path d="M970.013 673.031H910.422L905.104 698.992H970.013V673.031Z" fill="#FFECE1"/>
<path d="M1029.6 673.031H970.005V698.992H1034.91L1029.6 673.031Z" fill="#161616"/>
<path d="M970.007 651H914.93L910.417 673.029H970.007V651Z" fill="#161616"/>
<path d="M1025.08 651H970.005V673.029H1029.6L1025.08 651Z" fill="#FFECE1"/>
<path d="M1089.2 673.031H1029.61L1034.93 698.992H1099.84L1089.2 673.031Z" fill="#FFECE1"/>
<path d="M1148.76 673.031H1089.17L1099.81 698.992H1164.72L1148.76 673.031Z" fill="#161616"/>
<path d="M1080.18 651H1025.1L1029.61 673.029H1089.21L1080.18 651Z" fill="#161616"/>
<path d="M1135.25 651H1080.17L1089.2 673.029H1148.79L1135.25 651Z" fill="#FFECE1"/>
<path d="M1208.39 673.031H1148.8L1164.75 698.992H1229.66L1208.39 673.031Z" fill="#FFECE1"/>
<path d="M1267.97 673.031H1208.38L1229.65 698.992H1294.56L1267.97 673.031Z" fill="#161616"/>
<path d="M1190.32 651H1135.24L1148.78 673.029H1208.37L1190.32 651Z" fill="#161616"/>
<path d="M1245.4 651H1190.33L1208.38 673.029H1267.97L1245.4 651Z" fill="#FFECE1"/>
</svg>
