<svg width="439" height="367" viewBox="0 0 439 367" fill="none" xmlns="http://www.w3.org/2000/svg">
<g clip-path="url(#clip0_2783_2794)">
<mask id="mask0_2783_2794" style="mask-type:luminance" maskUnits="userSpaceOnUse" x="-95" y="8" width="707" height="431">
<path d="M611.387 8.27734H-95V438.047H611.387V8.27734Z" fill="white"/>
</mask>
<g mask="url(#mask0_2783_2794)">
<path d="M383.472 136.697C383.472 136.697 434.216 92.4427 449.802 90.2964C465.388 88.0479 441.319 77.4697 420.878 85.4416C400.386 93.4136 370.594 123.922 370.594 123.922L383.472 136.748V136.697Z" fill="#A35BFB"/>
<path d="M355.978 153.714C355.978 153.714 429.003 48.1364 434.625 43.435C446.634 33.4701 416.943 34.5943 405.087 49.0562C400.233 54.9841 358.124 110.175 358.124 110.175L274.266 144.209L355.978 153.663V153.714Z" fill="#A35BFB"/>
<path d="M392.414 129.134C407.694 116.41 438.355 91.8807 449.853 90.2454C465.439 88.048 441.37 77.4188 420.929 85.3907C412.14 88.8146 401.561 96.3777 392.465 103.941" fill="#A35BFB"/>
<path d="M392.414 129.134C407.694 116.41 438.355 91.8807 449.853 90.2454C465.439 88.048 441.37 77.4188 420.929 85.3907C412.14 88.8146 401.561 96.3777 392.465 103.941" stroke="#161616" stroke-width="0.66433" stroke-linecap="round" stroke-linejoin="round"/>
<path d="M392.414 101.385C411.629 74.0456 431.763 45.786 434.625 43.3842C446.634 33.4193 416.943 34.5435 405.087 49.0055C403.605 50.8451 398.597 57.284 392.414 65.3582" fill="#A35BFB"/>
<path d="M392.414 101.385C411.629 74.0456 431.763 45.786 434.625 43.3842C446.634 33.4193 416.943 34.5435 405.087 49.0055C403.605 50.8451 398.597 57.284 392.414 65.3582" stroke="#161616" stroke-width="0.66433" stroke-linecap="round" stroke-linejoin="round"/>
<path d="M298.898 134.192L332.626 120.496" stroke="#161616" stroke-width="0.66433" stroke-linecap="round" stroke-linejoin="round"/>
<path d="M367.477 97.9102C361.958 105.064 358.125 110.124 358.125 110.124L367.477 97.9102Z" fill="#A35BFB"/>
<path d="M367.477 97.9102C361.958 105.064 358.125 110.124 358.125 110.124" stroke="#161616" stroke-width="0.66433" stroke-linecap="round" stroke-linejoin="round"/>
<path d="M211.41 204.355C245.495 167.868 319.951 154.224 319.951 154.224L327.668 134.09" fill="#A35BFB"/>
<path d="M211.41 204.355C245.495 167.868 319.951 154.224 319.951 154.224L327.668 134.09" stroke="#161616" stroke-width="0.66433" stroke-linecap="round" stroke-linejoin="round"/>
<path d="M249.328 150.952L258.424 136.234" stroke="#161616" stroke-width="0.66433" stroke-linecap="round" stroke-linejoin="round"/>
<path d="M355.469 134.496L351.023 166.026" stroke="#161616" stroke-width="0.66433" stroke-linecap="round" stroke-linejoin="round"/>
<path d="M367.887 105.32L377.647 106.649" stroke="#161616" stroke-width="0.66433" stroke-linecap="round" stroke-linejoin="round"/>
<path d="M335.945 110.172L344.224 111.398" stroke="#161616" stroke-width="0.66433" stroke-linecap="round" stroke-linejoin="round"/>
<path d="M282.853 92.7468L276.363 89.5273" stroke="#161616" stroke-width="0.66433" stroke-linecap="round" stroke-linejoin="round"/>
<path d="M154.789 399.157L-94.5898 483.731L280.297 439.937L176.048 365.889L611.235 281.162L332.983 151.26L417.557 86.2578L263.382 151.26L364.82 257.042L91.2691 356.844L154.738 399.157H154.789Z" fill="#DF0586" stroke="#FFD007" stroke-width="0.45992"/>
<mask id="mask1_2783_2794" style="mask-type:luminance" maskUnits="userSpaceOnUse" x="116" y="16" width="339" height="345">
<path d="M454.608 16.043H116.004V360.728H454.608V16.043Z" fill="white"/>
</mask>
<g mask="url(#mask1_2783_2794)">
<path d="M383.319 136.693C383.319 136.693 434.064 92.4388 449.65 90.2925C465.236 88.044 441.167 77.4658 420.726 85.4377C400.234 93.4097 370.441 123.918 370.441 123.918L383.319 136.744V136.693Z" fill="#A35BFB"/>
<path d="M355.775 153.71C355.775 153.71 428.8 48.1325 434.421 43.4311C446.379 33.4661 416.74 34.5904 404.884 49.0523C400.03 54.9802 357.921 110.171 357.921 110.171L274.062 144.205L355.775 153.659V153.71Z" fill="#A35BFB"/>
<path d="M116.055 348.462L165.931 241.659C165.931 241.659 149.527 183.555 184.021 148.193C218.515 112.83 251.373 98.1634 271.048 76.956C290.722 55.7485 293.431 62.0341 287.656 80.5842C281.882 99.1343 258.272 136.286 258.272 136.286C258.272 136.286 311.674 133.22 325.472 133.628C339.269 134.088 306.768 170.32 306.768 170.32C306.768 170.32 254.695 203.485 236.86 270.685C219.077 337.884 223.983 348.513 223.983 348.513H116.055V348.462Z" fill="#A35BFB"/>
<path d="M198.535 223.313C219.896 172.466 319.75 154.172 319.75 154.172C319.75 154.172 333.905 118.093 335.694 110.581C337.482 103.069 326.751 53.0914 346.834 49.5653L357.974 110.122L355.317 134.446L367.786 105.267C367.786 105.267 361.091 28.3579 392.264 26.1094V130C392.264 130 374.889 172.006 355.777 191.885C336.613 211.764 258.274 220.605 240.03 252.901C221.787 285.198 198.637 223.313 198.637 223.313H198.535Z" fill="#A35BFB"/>
<path d="M392.262 129.13C407.541 116.406 438.203 91.8768 449.701 90.2415C465.287 88.0441 441.218 77.4149 420.777 85.3868C411.987 88.8107 401.409 96.3738 392.262 103.937" fill="#A35BFB"/>
<path d="M392.262 129.13C407.541 116.406 438.203 91.8768 449.701 90.2415C465.287 88.0441 441.218 77.4149 420.777 85.3868C411.987 88.8107 401.409 96.3738 392.262 103.937" stroke="#161616" stroke-width="0.66433" stroke-linecap="round" stroke-linejoin="round"/>
<path d="M392.262 101.381C411.476 74.0417 431.61 45.7821 434.472 43.3803C446.43 33.4154 416.791 34.5396 404.935 49.0016C403.453 50.8412 398.445 57.2801 392.262 65.3543" fill="#A35BFB"/>
<path d="M392.262 101.381C411.476 74.0417 431.61 45.7821 434.472 43.3803C446.43 33.4154 416.791 34.5396 404.935 49.0016C403.453 50.8412 398.445 57.2801 392.262 65.3543" stroke="#161616" stroke-width="0.66433" stroke-linecap="round" stroke-linejoin="round"/>
<path d="M298.746 134.192L332.474 120.496" stroke="#161616" stroke-width="0.66433" stroke-linecap="round" stroke-linejoin="round"/>
<path d="M367.324 97.9102C361.805 105.064 357.973 110.124 357.973 110.124L367.324 97.9102Z" fill="#A35BFB"/>
<path d="M367.324 97.9102C361.805 105.064 357.973 110.124 357.973 110.124" stroke="#161616" stroke-width="0.66433" stroke-linecap="round" stroke-linejoin="round"/>
<path d="M367.734 105.318L355.265 134.497L357.922 110.223L346.782 49.6672C326.75 53.1933 337.43 103.171 335.642 110.683C334.773 114.312 331.094 124.532 327.414 134.139C326.903 133.833 326.239 133.679 325.37 133.628C311.573 133.168 258.171 136.286 258.171 136.286C258.171 136.286 281.78 99.1342 287.555 80.5841C293.38 62.034 290.672 55.7484 270.946 76.9558C251.272 98.1633 218.413 112.83 183.919 148.192C149.425 183.555 165.829 241.658 165.829 241.658L115.953 348.462H223.881C224.392 332.007 226.232 317.75 228.276 306.149C229.451 299.608 231.955 286.628 236.81 270.633C239.825 260.668 242.942 252.185 245.651 245.44C270.742 219.173 338.146 210.179 355.725 191.936C374.888 172.057 392.212 130.051 392.212 130.051V26.1602C361.04 28.3576 367.734 105.318 367.734 105.318Z" fill="#A35BFB" stroke="#161616" stroke-width="0.66433" stroke-linecap="round" stroke-linejoin="round"/>
<path d="M211.258 204.355C245.343 167.868 319.799 154.224 319.799 154.224L327.515 134.09" fill="#A35BFB"/>
<path d="M211.258 204.355C245.343 167.868 319.799 154.224 319.799 154.224L327.515 134.09" stroke="#161616" stroke-width="0.66433" stroke-linecap="round" stroke-linejoin="round"/>
<path d="M249.125 150.952L258.221 136.234" stroke="#161616" stroke-width="0.66433" stroke-linecap="round" stroke-linejoin="round"/>
<path d="M355.266 134.496L350.82 166.026" stroke="#161616" stroke-width="0.66433" stroke-linecap="round" stroke-linejoin="round"/>
<path d="M367.734 105.316L377.495 106.645" stroke="#161616" stroke-width="0.66433" stroke-linecap="round" stroke-linejoin="round"/>
<path d="M335.742 110.172L344.021 111.398" stroke="#161616" stroke-width="0.66433" stroke-linecap="round" stroke-linejoin="round"/>
<path d="M282.701 92.7468L276.211 89.5273" stroke="#161616" stroke-width="0.66433" stroke-linecap="round" stroke-linejoin="round"/>
</g>
</g>
<path d="M339.404 103.314L246.287 142.838L210.457 39.6182L303.829 0.399414L339.404 103.314Z" fill="#FFD007" stroke="black" stroke-width="0.6"/>
<path d="M379.07 123.032L286.076 162.504L246.78 143.257L339.72 103.759L379.07 123.032Z" fill="#7A034A" stroke="black" stroke-width="0.6"/>
<path d="M343.573 19.8379L379.32 122.515L340.021 103.267L304.529 0.591797L343.573 19.8379Z" fill="#A30462" stroke="black" stroke-width="0.6"/>
<path d="M246.058 141.911C246.825 142.064 247.591 142.167 248.409 142.218L246.467 143.035L246.058 141.911ZM339.882 103.891L292.101 123.923C297.211 117.126 297.876 109.717 296.189 102.818L275.186 110.892C275.851 115.389 273.551 120.55 264.608 123.974C255.921 127.296 247.693 125.558 243.401 115.644L293.685 96.3278C287.655 73.0252 271.405 54.5772 243.145 65.462C234.049 68.937 227.815 73.3318 223.675 78.1865L210.082 39.5532L304.212 0L339.882 103.891ZM247.489 80.6905C258.067 76.6534 264.302 80.5883 267.93 89.6334L238.086 101.08C235.173 91.7797 237.524 84.5232 247.54 80.6905H247.489Z" fill="#DF0586"/>
<path d="M367.885 105.323L355.416 134.503L358.073 110.178L346.933 49.6217C326.901 53.1477 337.581 103.126 335.793 110.638C335.179 113.244 331.704 122.698 327.565 134.094C324.601 142.321 322.046 149.067 320.309 153.717L355.263 191.942C357 190 359.351 187.342 361.957 183.97C364.819 180.29 369.213 174.311 374.988 164.244C382.245 151.622 387.815 139.306 391.647 129.954C391.647 95.4604 391.647 61.0175 391.647 26.5234C388.888 26.7789 386.895 27.5966 385.617 28.2098C381.887 30.0495 379.792 32.8601 377.799 35.5174C376.521 37.2038 375.755 38.8902 375.652 39.0435C375.499 39.4012 375.397 39.6056 375.192 40.1677C373.506 44.2559 373.302 44.4603 372.893 45.6868C372.586 46.6066 372.28 47.6798 371.717 49.8772C371.309 51.5124 370.798 53.5054 370.184 56.0606C369.571 58.7179 368.907 62.295 368.345 66.6387C367.68 73.2309 367.22 80.4363 367.783 105.374L367.885 105.323Z" fill="#A35BFB"/>
<path d="M321.941 148.299C327.052 135.217 330.731 125.457 331.906 122.186C332.366 120.908 333.95 116.309 334.615 114.265C334.717 113.959 334.87 113.499 335.075 112.783C335.586 111.25 335.841 110.892 335.943 110.279C336.199 108.797 336.046 107.571 335.943 107.213C335.024 100.825 335.177 94.3353 334.717 87.8964C334.155 79.9755 334.41 74.5076 334.461 72.6679C334.615 69.5507 334.972 64.6959 337.017 59.1769C338.192 56.0086 339.265 54.22 340.9 52.7891C343.047 50.7961 345.448 50.0296 346.879 49.6719C350.61 69.6018 354.391 89.5828 358.122 109.513C357.355 117.178 356.589 124.894 355.873 132.56M355.873 132.56C354.8 140.225 353.216 151.723 351.121 167.054M355.873 132.56C359.91 123.515 363.947 114.47 367.985 105.424C367.422 100.314 367.065 94.7952 367.014 88.9695C366.86 74.0477 368.802 60.9655 371.306 50.234" stroke="black" stroke-width="0.613227" stroke-miterlimit="10"/>
<path d="M110.891 349.793C151.619 334.871 192.399 319.949 233.127 305.027L230.163 352.348C201.086 358.378 172.009 364.459 142.881 370.489C132.2 363.591 121.571 356.641 110.891 349.742V349.793Z" fill="#DF0586"/>
<path d="M109.613 350.203C151.159 335.077 192.706 319.9 234.252 304.773" stroke="#FFD007" stroke-width="0.45992"/>
</g>
<defs>
<clipPath id="clip0_2783_2794">
<rect width="707" height="483.99" fill="white" transform="translate(-95)"/>
</clipPath>
</defs>
</svg>
