<svg width="1415" height="889" viewBox="0 0 1415 889" fill="none" xmlns="http://www.w3.org/2000/svg">
<mask id="mask0_2783_2852" style="mask-type:luminance" maskUnits="userSpaceOnUse" x="0" y="16" width="1414" height="861">
<path d="M1413.77 16.5664H0V876.715H1413.77V16.5664Z" fill="white"/>
</mask>
<g mask="url(#mask0_2783_2852)">
<path d="M957.618 273.588C957.618 273.588 1059.18 185.017 1090.37 180.721C1121.57 176.221 1073.39 155.049 1032.48 171.005C991.471 186.96 931.844 248.019 931.844 248.019L957.618 273.691V273.588Z" fill="#A35BFB"/>
<path d="M902.595 307.643C902.595 307.643 1048.75 96.3395 1060 86.93C1084.03 66.986 1024.61 69.2361 1000.88 98.1805C991.167 110.045 906.891 220.504 906.891 220.504L739.055 288.62L902.595 307.541V307.643Z" fill="#A35BFB"/>
<path d="M975.516 258.452C1006.1 232.985 1067.46 183.892 1090.47 180.619C1121.67 176.221 1073.5 154.948 1032.59 170.903C1014.99 177.755 993.823 192.892 975.618 208.029" fill="#A35BFB"/>
<path d="M975.516 258.452C1006.1 232.985 1067.46 183.892 1090.47 180.619C1121.67 176.221 1073.5 154.948 1032.59 170.903C1014.99 177.755 993.823 192.892 975.618 208.029" stroke="#161616" stroke-width="1.3296" stroke-linecap="round" stroke-linejoin="round"/>
<path d="M975.516 202.913C1013.97 148.195 1054.27 91.6355 1060 86.8284C1084.03 66.8845 1024.61 69.1345 1000.88 98.0789C997.914 101.761 987.891 114.648 975.516 130.807" fill="#A35BFB"/>
<path d="M975.516 202.913C1013.97 148.195 1054.27 91.6354 1060 86.8284C1084.03 66.8845 1024.61 69.1345 1000.88 98.0789C997.914 101.761 987.891 114.648 975.516 130.807" stroke="#161616" stroke-width="1.3296" stroke-linecap="round" stroke-linejoin="round"/>
<path d="M788.336 268.574L855.839 241.164" stroke="#161616" stroke-width="1.3296" stroke-linecap="round" stroke-linejoin="round"/>
<path d="M925.607 195.961C914.561 210.28 906.891 220.405 906.891 220.405L925.607 195.961Z" fill="#A35BFB"/>
<path d="M925.607 195.961C914.561 210.28 906.891 220.405 906.891 220.405" stroke="#161616" stroke-width="1.3296" stroke-linecap="round" stroke-linejoin="round"/>
<path d="M613.242 408.998C681.461 335.972 830.478 308.664 830.478 308.664L845.922 268.367" fill="#A35BFB"/>
<path d="M613.242 408.998C681.461 335.972 830.478 308.664 830.478 308.664L845.922 268.367" stroke="#161616" stroke-width="1.3296" stroke-linecap="round" stroke-linejoin="round"/>
<path d="M689.141 302.116L707.346 272.66" stroke="#161616" stroke-width="1.3296" stroke-linecap="round" stroke-linejoin="round"/>
<path d="M901.562 269.184L892.664 332.288" stroke="#161616" stroke-width="1.3296" stroke-linecap="round" stroke-linejoin="round"/>
<path d="M926.422 210.789L945.957 213.448" stroke="#161616" stroke-width="1.3296" stroke-linecap="round" stroke-linejoin="round"/>
<path d="M862.5 220.496L879.069 222.951" stroke="#161616" stroke-width="1.3296" stroke-linecap="round" stroke-linejoin="round"/>
<path d="M756.231 185.623L743.242 179.18" stroke="#161616" stroke-width="1.3296" stroke-linecap="round" stroke-linejoin="round"/>
<path d="M499.923 798.878L0.8125 968.146L751.115 880.495L542.471 732.296L1413.46 562.721L856.563 302.733L1025.83 172.637L717.262 302.733L920.281 514.446L372.793 714.193L499.821 798.878H499.923Z" fill="#DF0586" stroke="#FFD007" stroke-width="0.920491"/>
<mask id="mask1_2783_2852" style="mask-type:luminance" maskUnits="userSpaceOnUse" x="422" y="32" width="678" height="690">
<path d="M1099.98 32.1055H422.297V721.963H1099.98V32.1055Z" fill="white"/>
</mask>
<g mask="url(#mask1_2783_2852)">
<path d="M957.313 273.577C957.313 273.577 1058.87 185.005 1090.07 180.709C1121.26 176.209 1073.09 155.038 1032.18 170.993C991.166 186.948 931.539 248.007 931.539 248.007L957.313 273.679V273.577Z" fill="#A35BFB"/>
<path d="M902.173 307.636C902.173 307.636 1048.33 96.3317 1059.58 86.9222C1083.51 66.9782 1024.19 69.2283 1000.46 98.1726C990.745 110.037 906.469 220.496 906.469 220.496L738.633 288.612L902.173 307.533V307.636Z" fill="#A35BFB"/>
<path d="M422.391 697.414L522.213 483.655C522.213 483.655 489.382 367.366 558.419 296.591C627.456 225.815 693.22 196.462 732.596 154.017C771.973 111.572 777.393 124.152 765.836 161.278C754.279 198.405 707.027 272.76 707.027 272.76C707.027 272.76 813.906 266.623 841.521 267.442C869.136 268.362 804.088 340.876 804.088 340.876C804.088 340.876 699.868 407.254 664.173 541.748C628.581 676.242 638.399 697.516 638.399 697.516H422.391V697.414Z" fill="#A35BFB"/>
<path d="M587.461 446.94C630.213 345.175 830.062 308.56 830.062 308.56C830.062 308.56 858.392 236.352 861.972 221.317C865.552 206.283 844.073 106.256 884.268 99.199L906.565 220.397L901.246 269.081L926.202 210.681C926.202 210.681 912.804 56.7541 975.192 52.2539V260.183C975.192 260.183 940.418 344.254 902.167 384.04C863.813 423.826 707.023 441.52 670.51 506.158C633.997 570.797 587.665 446.94 587.665 446.94H587.461Z" fill="#A35BFB"/>
<path d="M975.211 258.44C1005.79 232.973 1067.16 183.88 1090.17 180.607C1121.36 176.209 1073.19 154.936 1032.28 170.891C1014.69 177.744 993.518 192.881 975.211 208.018" fill="#A35BFB"/>
<path d="M975.211 258.44C1005.79 232.973 1067.16 183.88 1090.17 180.607C1121.36 176.209 1073.19 154.936 1032.28 170.891C1014.69 177.744 993.518 192.881 975.211 208.018" stroke="#161616" stroke-width="1.3296" stroke-linecap="round" stroke-linejoin="round"/>
<path d="M975.211 202.905C1013.67 148.187 1053.96 91.6276 1059.69 86.8206C1083.62 66.8766 1024.3 69.1267 1000.58 98.0711C997.61 101.753 987.586 114.64 975.211 130.8" fill="#A35BFB"/>
<path d="M975.211 202.905C1013.67 148.187 1053.96 91.6276 1059.69 86.8206C1083.62 66.8766 1024.3 69.1267 1000.58 98.0711C997.61 101.753 987.586 114.64 975.211 130.8" stroke="#161616" stroke-width="1.3296" stroke-linecap="round" stroke-linejoin="round"/>
<path d="M788.023 268.574L855.526 241.164" stroke="#161616" stroke-width="1.3296" stroke-linecap="round" stroke-linejoin="round"/>
<path d="M925.295 195.961C914.249 210.28 906.578 220.405 906.578 220.405L925.295 195.961Z" fill="#A35BFB"/>
<path d="M925.295 195.961C914.249 210.28 906.578 220.405 906.578 220.405" stroke="#161616" stroke-width="1.3296" stroke-linecap="round" stroke-linejoin="round"/>
<path d="M926.105 210.782L901.15 269.182L906.468 220.601L884.172 99.4028C844.079 106.46 865.455 206.487 861.876 221.521C860.137 228.783 852.773 249.238 845.409 268.466C844.386 267.853 843.057 267.546 841.318 267.444C813.703 266.523 706.824 272.762 706.824 272.762C706.824 272.762 754.076 198.407 765.633 161.28C777.293 124.154 771.872 111.574 732.393 154.019C693.017 196.464 627.253 225.817 558.216 296.593C489.179 367.368 522.01 483.657 522.01 483.657L422.188 697.415H638.196C639.219 664.482 642.901 635.947 646.992 612.73C649.344 599.639 654.356 573.66 664.072 541.648C670.107 521.704 676.345 504.726 681.766 491.225C731.984 438.655 866.887 420.654 902.07 384.141C940.424 344.356 975.096 260.284 975.096 260.284V52.3555C912.707 56.7534 926.105 210.782 926.105 210.782Z" fill="#A35BFB" stroke="#161616" stroke-width="1.3296" stroke-linecap="round" stroke-linejoin="round"/>
<path d="M612.93 408.998C681.148 335.972 830.166 308.664 830.166 308.664L845.609 268.367" fill="#A35BFB"/>
<path d="M612.93 408.998C681.148 335.972 830.166 308.664 830.166 308.664L845.609 268.367" stroke="#161616" stroke-width="1.3296" stroke-linecap="round" stroke-linejoin="round"/>
<path d="M688.719 302.116L706.924 272.66" stroke="#161616" stroke-width="1.3296" stroke-linecap="round" stroke-linejoin="round"/>
<path d="M901.156 269.184L892.258 332.288" stroke="#161616" stroke-width="1.3296" stroke-linecap="round" stroke-linejoin="round"/>
<path d="M926.102 210.781L945.636 213.44" stroke="#161616" stroke-width="1.3296" stroke-linecap="round" stroke-linejoin="round"/>
<path d="M862.078 220.496L878.647 222.951" stroke="#161616" stroke-width="1.3296" stroke-linecap="round" stroke-linejoin="round"/>
<path d="M755.919 185.623L742.93 179.18" stroke="#161616" stroke-width="1.3296" stroke-linecap="round" stroke-linejoin="round"/>
</g>
</g>
<path d="M869.539 206.832L682.987 286.013L611.212 79.2363L798.272 0.666992L869.539 206.832Z" fill="#FFD007" stroke="black"/>
<path d="M949.041 246.245L762.674 325.347L683.788 286.709L870.044 207.553L949.041 246.245Z" fill="#7A034A" stroke="black"/>
<path d="M877.847 39.6318L949.484 245.4L870.576 206.751L799.447 0.985352L877.847 39.6318Z" fill="#A30462" stroke="black"/>
<path d="M682.589 284.023C684.123 284.33 685.657 284.534 687.294 284.636L683.407 286.273L682.589 284.023ZM870.369 207.929L774.74 248.021C784.968 234.419 786.298 219.588 782.922 205.781L740.887 221.941C742.216 230.941 737.614 241.271 719.715 248.124C702.328 254.772 685.862 251.294 677.27 231.452L777.911 192.792C765.842 146.154 733.318 109.232 676.759 131.017C658.554 137.971 646.076 146.767 637.792 156.484L610.586 79.1623L798.98 0L870.369 207.929ZM685.453 161.495C706.624 153.415 719.102 161.291 726.363 179.394L666.634 202.304C660.804 183.689 665.509 169.166 685.555 161.495H685.453Z" fill="#DF0586"/>
<path d="M926.415 210.793L901.46 269.193L906.778 220.509L884.482 99.3112C844.389 106.368 865.765 206.395 862.185 221.43C860.958 226.646 854.003 245.567 845.719 268.375C839.787 284.841 834.673 298.342 831.195 307.649L901.153 384.152C904.63 380.266 909.335 374.947 914.551 368.197C920.278 360.833 929.074 348.867 940.632 328.718C955.155 303.456 966.303 278.807 973.974 260.09C973.974 191.053 973.974 122.119 973.974 53.082C968.451 53.5934 964.462 55.2298 961.905 56.4572C954.439 60.1391 950.246 65.7644 946.257 71.0828C943.7 74.4579 942.166 77.833 941.961 78.1399C941.654 78.8558 941.45 79.2649 941.041 80.3899C937.665 88.5721 937.256 88.9812 936.438 91.4358C935.824 93.2768 935.211 95.4246 934.086 99.8225C933.268 103.095 932.245 107.084 931.017 112.198C929.79 117.516 928.461 124.676 927.336 133.369C926.006 146.563 925.085 160.984 926.21 210.895L926.415 210.793Z" fill="#A35BFB"/>
<path d="M834.477 296.808C844.704 270.626 852.068 251.091 854.421 244.545C855.341 241.988 858.512 232.783 859.841 228.692C860.046 228.078 860.353 227.158 860.762 225.726C861.784 222.658 862.296 221.942 862.5 220.714C863.012 217.748 862.705 215.294 862.5 214.578C860.659 201.793 860.966 188.804 860.046 175.917C858.921 160.064 859.432 149.121 859.534 145.439C859.841 139.2 860.557 129.483 864.648 118.438C867.001 112.096 869.148 108.517 872.421 105.653C876.717 101.664 881.524 100.13 884.388 99.4141C891.854 139.302 899.422 179.292 906.889 219.18C905.354 234.522 903.82 249.966 902.388 265.307M902.388 265.307C900.241 280.649 897.07 303.661 892.877 334.344M902.388 265.307C910.468 247.204 918.548 229.101 926.628 210.998C925.503 200.77 924.787 189.725 924.685 178.065C924.378 148.2 928.264 122.017 933.276 100.539" stroke="black" stroke-width="1.22732" stroke-miterlimit="10"/>
<path d="M412.07 700.079C493.585 670.214 575.202 640.349 656.716 610.484L650.784 705.193C592.589 717.261 534.393 729.432 476.096 741.501C454.72 727.694 433.446 713.784 412.07 699.977V700.079Z" fill="#DF0586"/>
<path d="M409.523 700.901C492.675 670.627 575.826 640.251 658.977 609.977" stroke="#FFD007" stroke-width="0.920491"/>
</svg>
