<svg width="1501" height="1356" viewBox="0 0 1501 1356" fill="none" xmlns="http://www.w3.org/2000/svg">
<path d="M810.982 1004.54L588.889 825.059L641.77 802.439L1013.34 877.826L1349.34 1130.44C1349.34 1130.44 955.303 1089.98 810.982 1004.54Z" fill="#DF0586" stroke="#161616" stroke-width="2" stroke-linecap="round" stroke-linejoin="round"/>
<path d="M1403.5 939.14L1076.91 675.211L1011.05 876.471L1346.8 1133.5L1403.5 939.14Z" fill="#7A44BC" stroke="#161616" stroke-width="2" stroke-linecap="round" stroke-linejoin="round"/>
<path d="M688.238 287.088L536.582 164.527L515.168 314.366L463.468 555.446L541.914 705.06L654.842 783.543C716.599 788.298 819.086 780.816 734.978 712.845C660.004 652.255 682.395 464.818 709.198 350.234C714.666 326.856 706.912 302.178 688.238 287.088Z" fill="#7A44BC" stroke="#161616" stroke-width="2" stroke-linecap="round" stroke-linejoin="round"/>
<path d="M17.6213 421.291L168.457 543.189C266.906 452.374 387.236 341.225 511.506 304.383C515.616 285.926 518.22 267.473 516.306 248.06C510.996 194.674 474.485 168.579 422.598 170.734C276.796 181.977 132.353 315.443 17.6213 421.291Z" fill="#DF0586" stroke="#161616" stroke-width="2" stroke-linecap="round" stroke-linejoin="round"/>
<path d="M422.417 170.956C474.304 168.801 510.815 194.896 516.125 248.282C518.039 267.695 515.435 286.148 511.325 304.605C510.125 310.081 508.77 315.557 507.365 321.055C484.607 398.63 453.493 476.275 450.19 558.495C441.926 677.666 496.344 779.657 600.722 828.276C729.035 890.105 897.063 896.511 1010.9 875.866L1076.83 674.534C910.303 709.675 549.745 806.323 525.088 560.731C519.868 508.669 530.458 454.521 542.823 401.433C556.629 338.965 581.154 266.916 563.45 207.394C534.245 118.271 424.342 129.237 347.862 154.073C208.229 199.965 105.119 306.819 2.26388 409.249L14.7596 423.978C15.6417 423.158 16.5239 422.337 17.4403 421.513C132.172 315.665 276.615 182.199 422.417 170.956Z" fill="#A35BFB" stroke="#161616" stroke-width="2" stroke-linecap="round" stroke-linejoin="round"/>
<path d="M359.729 183.57C365.54 265.336 430.949 302.079 512.736 296.57C519.739 249.07 514.733 209.075 481.74 186.57C456.236 169.173 426.736 165.57 359.729 183.57Z" fill="white"/>
<path d="M359.726 183.57C365.537 265.336 430.947 302.079 512.733 296.57C519.736 249.07 514.731 209.075 481.737 186.57C456.233 169.173 426.733 165.57 359.726 183.57Z" fill="white"/>
<path d="M435.68 233.739C434.201 212.937 449.87 194.938 470.678 193.537C491.485 192.135 509.551 207.863 511.03 228.665C512.508 249.467 496.839 267.466 476.032 268.867C455.225 270.269 437.159 254.541 435.68 233.739Z" fill="#DF0586"/>
<path d="M465.373 242.257C456.83 234.82 455.911 221.891 463.32 213.38C470.73 204.868 483.662 203.997 492.205 211.434C500.748 218.871 501.667 231.8 494.258 240.312C486.848 248.823 473.916 249.694 465.373 242.257Z" fill="#161616"/>
<path d="M717.503 720.5C709.98 614.653 630.872 540.37 524.998 547.5C528.418 595.62 540.101 631.675 570.502 663C606.972 700.579 661.504 716 717.503 720.5Z" fill="white"/>
<path d="M673.75 620.914C675.356 643.509 658.337 663.059 635.736 664.582C613.135 666.104 593.511 649.021 591.905 626.426C590.299 603.831 607.319 584.28 629.92 582.758C652.521 581.236 672.144 598.319 673.75 620.914Z" fill="#DF0586"/>
<path d="M647.926 602.227C657.206 610.305 658.204 624.349 650.156 633.594C642.107 642.839 628.061 643.785 618.781 635.707C609.502 627.629 608.503 613.585 616.552 604.34C624.6 595.095 638.647 594.149 647.926 602.227Z" fill="#161616"/>
</svg>
