<svg width="195" height="447" viewBox="0 0 195 447" fill="none" xmlns="http://www.w3.org/2000/svg">
<path d="M-245.248 425.834L11.0186 462.914L10.9424 422.223L-244.634 386.305L-245.248 425.834Z" fill="#532E80" stroke="black" stroke-width="0.899619"/>
<path d="M-244.991 384.871C-245.202 384.822 -245.456 384.897 -245.682 385.088C-245.877 385.253 -245.992 385.499 -245.996 385.771L-246.625 426.205V426.206C-246.634 426.668 -246.299 427.063 -245.844 427.128H-245.843L11.3301 464.339L11.3389 464.34L11.3467 464.342C11.3726 464.346 11.3928 464.347 11.4668 464.347C11.6913 464.347 11.9017 464.268 12.0625 464.124L12.0713 464.117L12.1426 464.049C12.2994 463.882 12.3856 463.662 12.3857 463.429L12.3086 421.833V421.832C12.3086 421.37 11.9693 420.989 11.5234 420.929L11.5215 420.928L-244.951 384.879L-244.972 384.876L-244.991 384.871ZM-243.672 386.913L10.083 422.58L10.4697 422.635L10.4707 423.024L10.542 461.851L10.543 462.371L10.0273 462.297L-244.382 425.481L-244.773 425.425L-244.768 425.029L-244.184 387.352L-244.176 386.843L-243.672 386.913Z" fill="#532E80" stroke="black" stroke-width="0.899619"/>
<path d="M11.8379 422.107L11.9131 462.688L49.1787 442.411L49.1094 401.838L11.8379 422.107Z" fill="#DABFFB" stroke="black" stroke-width="0.899619"/>
<path d="M49.9961 400.278C49.7369 400.115 49.3995 400.102 49.1035 400.266L49.1016 400.267L10.9395 421.03V421.031C10.6485 421.192 10.465 421.501 10.4648 421.837L10.543 463.433V463.434C10.5431 463.758 10.7145 464.06 10.9902 464.217L11 464.222L11.0088 464.229C11.1419 464.313 11.29 464.353 11.4619 464.353C11.6122 464.352 11.7622 464.317 11.8965 464.241L11.9014 464.238L50.0664 443.473C50.3557 443.312 50.5377 443.003 50.5381 442.669L50.4609 401.072V401.071C50.4608 400.747 50.2885 400.445 50.0127 400.288L50.0049 400.283L49.9961 400.278ZM48.6357 403.374L48.7129 441.862L48.7139 442.13L48.4785 442.259L13.0449 461.532L12.3818 461.893L12.3809 461.138L12.3027 422.649L12.3018 422.381L12.5371 422.253L47.9707 402.979L48.6338 402.619L48.6357 403.374Z" fill="#532E80" stroke="black" stroke-width="0.899619"/>
<path d="M-243.666 385.533L11.3047 421.365L48.1475 401.328L-206.828 365.489L-243.666 385.533Z" fill="#A35BFB" stroke="black" stroke-width="0.899619"/>
<path d="M-206.868 364.095C-206.965 364.065 -207.133 364.086 -207.369 364.215L-207.37 364.216L-245.532 384.967V384.968C-245.837 385.135 -246.016 385.452 -246.009 385.794L-245.994 385.941L-245.993 385.945C-245.929 386.328 -245.618 386.631 -245.224 386.684H-245.22L11.2529 422.733L11.2871 422.738L11.3193 422.748C11.3105 422.745 11.3099 422.746 11.3232 422.747C11.3375 422.748 11.3542 422.749 11.3848 422.749C11.5404 422.749 11.6842 422.714 11.8193 422.638L11.8252 422.635L49.9893 401.869H49.9902C50.3368 401.677 50.5194 401.292 50.4492 400.896L50.4482 400.893C50.3838 400.51 50.0735 400.206 49.6787 400.154L49.6748 400.153L-206.798 364.11L-206.833 364.105L-206.868 364.095ZM-206.595 366.009L45.3242 401.403L46.6729 401.593L45.4766 402.244L11.3408 420.811L11.21 420.882L11.0625 420.86L-240.855 385.453L-242.205 385.264L-241.008 384.612L-206.872 366.06L-206.741 365.988L-206.595 366.009Z" fill="#532E80" stroke="black" stroke-width="0.899619"/>
<path d="M-164.181 195.582L4.45508 219.982L4.40137 193.467L-163.775 169.832L-164.181 195.582Z" fill="#532E80" stroke="black" stroke-width="0.899619"/>
<path d="M5.2998 193.336L5.35449 219.739L29.6123 206.543L29.5645 180.139L5.2998 193.336Z" fill="#DABFFB" stroke="black" stroke-width="0.899619"/>
<path d="M-162.803 169.059L4.76758 192.607L28.6045 179.644L-138.972 156.095L-162.803 169.059Z" fill="#A35BFB" stroke="black" stroke-width="0.899619"/>
<path d="M-95.5859 128.213L46.999 148.845L46.9609 126.544L-95.2539 106.555L-95.5859 128.213Z" fill="#532E80" stroke="black" stroke-width="0.899619"/>
<path d="M47.8584 126.432L47.8955 148.621L68.2959 137.526L68.2539 115.338L47.8584 126.432Z" fill="#DABFFB" stroke="black" stroke-width="0.899619"/>
<path d="M-94.2852 105.785L47.3242 125.688L67.292 114.827L-74.3105 94.9229L-94.2852 105.785Z" fill="#A35BFB" stroke="black" stroke-width="0.899619"/>
<path d="M-21.2051 79.7783L95.3389 96.6357L95.3066 78.5498L-20.9297 62.2109L-21.2051 79.7783Z" fill="#532E80" stroke="black" stroke-width="0.899619"/>
<path d="M96.1973 78.4355L96.2285 96.4092L112.761 87.417L112.729 69.4434L96.1973 78.4355Z" fill="#DABFFB" stroke="black" stroke-width="0.899619"/>
<path d="M-19.9619 61.4443L95.6689 77.6973L111.773 68.9375L-3.85742 52.6846L-19.9619 61.4443Z" fill="#A35BFB" stroke="black" stroke-width="0.899619"/>
<path d="M52.6182 43.3506L143.116 56.4414L143.09 42.5713L52.8271 29.8828L52.6182 43.3506Z" fill="#532E80" stroke="black" stroke-width="0.899619"/>
<path d="M143.987 42.4434L144.014 56.2012L156.683 49.3105L156.657 35.5527L143.987 42.4434Z" fill="#DABFFB" stroke="black" stroke-width="0.899619"/>
<path d="M53.7969 29.1113L143.454 41.7139L155.694 35.0566L66.0322 22.4541L53.7969 29.1113Z" fill="#A35BFB" stroke="black" stroke-width="0.899619"/>
<path d="M120.085 15.1602L184.541 24.4873L184.521 14.8213L120.232 5.78906L120.085 15.1602Z" fill="#532E80" stroke="black" stroke-width="0.899619"/>
<path d="M185.428 14.7012L185.448 24.2549L194.249 19.4658L194.234 9.91211L185.428 14.7012Z" fill="#DABFFB" stroke="black" stroke-width="0.899619"/>
<path d="M121.211 5.02148L184.894 13.9678L193.271 9.41211L129.584 0.46582L121.211 5.02148Z" fill="#A35BFB" stroke="black" stroke-width="0.899619"/>
</svg>
