<svg width="594" height="742" viewBox="0 0 594 742" fill="none" xmlns="http://www.w3.org/2000/svg">
<path d="M273.133 527.592L201.023 411.979L228.399 410.038L384.166 502.06L496.213 668.434C496.213 668.434 324.863 588.654 273.133 527.592Z" fill="#DF0586" stroke="#161616" stroke-width="0.954352" stroke-linecap="round" stroke-linejoin="round"/>
<path d="M550.512 590.637L444.475 420.629L383.345 501.09L494.594 669.421L550.512 590.637Z" fill="#7A44BC" stroke="#161616" stroke-width="0.954352" stroke-linecap="round" stroke-linejoin="round"/>
<path d="M333.168 190.268L280.597 105.98L247.54 170.198L186.579 270.825L198.583 350.537L237.245 403.561C264.348 415.35 311.728 427.982 284.419 384.199C259.145 343.676 302.553 257.887 332.823 211.372C336.989 204.97 337.21 196.749 333.168 190.268Z" fill="#7A44BC" stroke="#161616" stroke-width="0.954352" stroke-linecap="round" stroke-linejoin="round"/>
<path d="M6.50039 140.704L55.4743 219.223C114.047 193.65 185.662 162.326 247.449 165.122C252.184 157.442 256.24 149.528 258.409 140.476C264.352 115.575 251.965 98.107 228.233 90.9755C160.736 73.2744 74.7631 110.895 6.50039 140.704Z" fill="#DF0586" stroke="#161616" stroke-width="0.954352" stroke-linecap="round" stroke-linejoin="round"/>
<path d="M228.118 91.0486C251.851 98.1801 264.238 115.648 258.295 140.549C256.126 149.601 252.07 157.515 247.334 165.195C245.938 167.477 244.472 169.734 242.979 171.994C220.603 203.418 194.448 233.568 180.117 270.125C157.78 322.568 166.389 377.054 205.859 415.277C254.059 463.195 328.821 492.325 383.376 500.796L444.544 420.311C363.97 410.15 186.302 397.418 213.54 282.831C219.316 258.541 232.548 235.78 246.414 213.774C262.396 187.763 284.706 159.107 286.019 129.504C286.769 84.7577 235.502 72.5382 197.138 71.7923C127.012 70.6778 63.8319 102.755 1.4583 132.876L4.79222 141.469C5.31809 141.237 5.84396 141.005 6.38584 140.777C74.6486 110.968 160.621 73.3475 228.118 91.0486Z" fill="#A35BFB" stroke="#161616" stroke-width="0.954352" stroke-linecap="round" stroke-linejoin="round"/>
</svg>
