<svg width="573" height="345" viewBox="0 0 573 345" fill="none" xmlns="http://www.w3.org/2000/svg">
<path d="M220.922 259.808C233.793 268.634 246.771 277.355 259.642 286.182C279.108 302.453 296.127 313.407 309.636 320.958C310.487 321.49 311.338 321.915 312.508 322.553C318.572 325.744 338.782 336.06 364.843 341.271C378.14 343.929 421.433 351.906 469.619 331.061C528.443 305.538 552.696 255.234 556.951 246.088C582.905 189.83 569.396 138.676 565.567 125.808C549.185 70.8257 510.253 41.6861 498.553 33.6035C489.298 28.3925 480.044 23.075 470.896 17.8639C470.896 30.5194 470.683 43.1749 470.577 55.8304C480.15 61.9987 489.724 68.1669 499.191 74.3351C508.445 81.4605 523.975 95.4985 534.293 118.044C550.462 153.352 543.441 186.108 540.038 200.89C536.421 216.417 525.252 253.214 490.468 281.184C445.473 317.449 385.905 318.618 347.292 303.304C338.782 299.901 322.933 291.925 306.232 280.439C295.382 272.995 289.426 268.422 260.918 246.514C250.813 238.75 240.707 231.2 230.602 223.436C209.54 207.271 145.398 159.095 -11.5 42.3242C-11.0745 59.659 -10.5427 76.8875 -10.1172 94.2224C66.8959 149.417 143.909 204.612 220.816 259.914L220.922 259.808Z" fill="#A30462"/>
<path d="M470.147 56.1531C470.147 67.4261 469.935 78.699 469.935 89.972C477.168 93.3752 488.656 99.9688 498.761 112.199C513.015 129.534 515.887 148.038 517.589 159.205C521.1 182.389 516.526 200.362 515.249 204.935C513.547 210.997 508.654 226.63 495.996 242.689C479.402 263.746 459.723 272.679 450.469 276.827C429.407 286.186 411.217 287.462 404.197 287.674C395.368 287.993 374.307 287.781 351.224 277.784C342.076 273.849 335.481 269.595 325.269 262.895C308.569 252.048 297.187 242.476 294.847 240.456C275.594 224.397 156.457 130.916 -10.8656 0.000854492C-10.8656 14.1453 -10.8656 28.396 -10.9719 42.5404C85.8264 115.07 182.625 187.6 279.529 260.13C287.507 267.043 299.102 276.295 314.1 285.547C329.099 294.906 341.757 302.776 359.734 307.881C385.263 315.112 406.537 312.56 417.281 311.178C428.556 309.689 456.319 305.754 484.827 285.973C494.294 279.379 531.843 251.516 542.48 202.489C547.054 181.326 545.14 163.459 544.182 156.121C543.012 146.337 540.566 126.981 529.397 107.094C510.994 74.5514 481.423 60.5134 470.36 55.9404L470.147 56.1531Z" fill="#DE0686"/>
</svg>
