<svg width="1501" height="1356" viewBox="0 0 1501 1356" fill="none" xmlns="http://www.w3.org/2000/svg">
<path d="M810.982 1004.54L588.89 825.059L641.77 802.439L1013.34 877.826L1349.34 1130.44C1349.34 1130.44 955.303 1089.98 810.982 1004.54Z" fill="#DF0586" stroke="#161616" stroke-width="2" stroke-linecap="round" stroke-linejoin="round"/>
<path d="M1403.5 939.14L1076.91 675.211L1011.05 876.471L1346.8 1133.5L1403.5 939.14Z" fill="#7A44BC" stroke="#161616" stroke-width="2" stroke-linecap="round" stroke-linejoin="round"/>
<path d="M688.239 287.088L536.583 164.527L515.168 314.366L463.468 555.446L541.914 705.06L654.842 783.543C716.599 788.298 819.086 780.816 734.979 712.845C660.004 652.255 682.395 464.818 709.198 350.234C714.666 326.856 706.912 302.178 688.239 287.088Z" fill="#7A44BC" stroke="#161616" stroke-width="2" stroke-linecap="round" stroke-linejoin="round"/>
<path d="M17.6215 421.291L168.457 543.189C266.906 452.374 387.237 341.225 511.506 304.383C515.616 285.926 518.22 267.473 516.306 248.06C510.996 194.674 474.485 168.579 422.598 170.734C276.796 181.977 132.353 315.443 17.6215 421.291Z" fill="#DF0586" stroke="#161616" stroke-width="2" stroke-linecap="round" stroke-linejoin="round"/>
<path d="M422.417 170.956C474.304 168.801 510.815 194.896 516.125 248.282C518.039 267.695 515.435 286.148 511.325 304.605C510.125 310.081 508.77 315.557 507.365 321.055C484.607 398.63 453.493 476.275 450.19 558.495C441.926 677.666 496.345 779.657 600.723 828.276C729.035 890.105 897.063 896.511 1010.9 875.866L1076.83 674.534C910.304 709.675 549.746 806.323 525.089 560.731C519.868 508.669 530.458 454.521 542.823 401.433C556.629 338.965 581.154 266.916 563.45 207.394C534.246 118.271 424.342 129.237 347.862 154.073C208.229 199.965 105.119 306.819 2.26412 409.249L14.7598 423.978C15.642 423.158 16.5241 422.337 17.4405 421.513C132.172 315.665 276.615 182.199 422.417 170.956Z" fill="#A35BFB" stroke="#161616" stroke-width="2" stroke-linecap="round" stroke-linejoin="round"/>
</svg>
