<svg width="488" height="304" viewBox="0 0 488 304" fill="none" xmlns="http://www.w3.org/2000/svg">
<path d="M-188.498 289.13C-188.443 289.261 -188.362 289.448 -188.253 289.679C-188.009 290.194 -187.625 290.929 -187.078 291.777C-185.981 293.478 -184.247 295.603 -181.692 297.342C-176.687 300.748 -168.149 302.921 -154.172 296.514C-140.267 290.139 -134.373 279.73 -128.715 271.528C-125.925 267.484 -123.079 263.81 -119.221 261.784C-115.253 259.701 -110.473 259.475 -104.09 261.681C-98.1744 263.724 -94.0709 263.722 -90.9932 262.819C-87.8995 261.912 -85.6355 260.04 -83.4688 257.915C-81.3886 255.875 -79.2154 253.374 -76.5908 251.881C-73.7829 250.284 -70.4776 249.801 -66.0908 251.344C-62.359 252.656 -59.8518 252.438 -57.875 251.599C-55.7987 250.717 -54.1246 249.09 -52.1328 247.112C-50.2045 245.197 -48.0133 242.996 -45.0645 241.507C-42.0587 239.989 -38.3622 239.248 -33.4375 239.996C-28.7545 240.707 -25.2396 241.419 -22.3818 242.041C-19.4981 242.668 -17.3773 243.181 -15.3633 243.526C-11.4758 244.192 -8.07861 244.214 -1.02637 242.828C0.948085 242.44 2.64021 242.503 4.0752 243.062C5.53231 243.628 6.55982 244.642 7.30469 245.846C8.03251 247.022 8.51034 248.41 8.8877 249.808C9.26189 251.193 9.57605 252.745 9.90625 254.187C10.5928 257.185 11.405 259.941 13.1143 261.972C14.7419 263.905 17.3461 265.359 22.0586 265.359C31.8196 265.359 37.6699 262.438 42.6006 259.465C47.4837 256.52 51.9291 253.14 58.3613 253.14C64.1007 253.14 72.4636 251.496 82.1006 249.797C91.6401 248.115 102.291 246.409 112.317 246.409C117.684 246.409 121.578 248.365 124.844 251.157C128.004 253.859 130.708 257.488 133.498 260.672C136.356 263.934 139.463 266.946 143.689 268.938C147.896 270.921 153.341 271.952 160.955 271.011C168.669 270.057 175.252 268.227 181.216 266.281C187.117 264.356 192.6 262.247 197.805 260.859C203.075 259.454 208.272 258.721 213.832 259.551C219.397 260.381 225.209 262.758 231.751 267.394C238.248 271.997 242.75 276.354 246.445 280.102C250.18 283.889 252.951 286.895 256.136 289.054C262.057 293.066 269.613 294.252 287.976 289.635L289.786 289.169C299.613 286.595 306.471 284.264 311.579 282.415C316.62 280.59 320.155 279.155 323.107 278.48C326.21 277.772 328.789 277.865 332.025 279.015C335.145 280.123 338.906 282.226 344.396 285.443C354.84 291.562 363.285 289.174 371.194 286.452C375.1 285.108 379.053 283.608 382.892 283.243C386.856 282.866 390.754 283.683 394.584 286.882C401.533 292.685 407.191 296.688 413.056 298.97C418.872 301.232 424.994 301.839 432.921 300.647C449.217 298.195 455.362 297.788 465.045 301.337C467.047 302.07 470.406 302.252 474.035 301.869C477.634 301.49 481.216 300.586 483.612 299.373C484.825 298.759 485.583 298.141 485.948 297.606C486.247 297.169 486.279 296.824 486.063 296.38C485.782 295.8 485.013 294.955 483.284 293.938C481.587 292.941 479.121 291.868 475.689 290.754C468.905 288.551 463.738 288.253 459.521 288.677C455.236 289.107 451.96 290.261 448.623 291.105C445.332 291.938 442.069 292.428 438.376 291.104C434.741 289.8 430.901 286.815 426.186 281.236C416.854 270.198 409.284 261.68 400.484 256.657C391.8 251.7 381.789 250.088 367.434 253.261C359.821 254.943 354.26 254.052 349.682 251.729C345.194 249.45 341.761 245.833 338.385 242.428C334.954 238.967 331.515 235.642 326.854 233.446C322.233 231.269 316.289 230.15 307.816 231.382C299.179 232.638 291.156 234.09 283.836 234.947C276.481 235.808 269.633 236.1 263.179 235.007C250.107 232.793 239.02 224.968 228.408 205.933C223.128 196.462 219.539 187.685 216.434 180.083C213.308 172.431 210.717 166.09 207.411 161.248C204.156 156.48 200.261 153.252 194.529 151.787C188.715 150.301 180.856 150.589 169.618 153.243C146.42 158.723 125.67 150.515 110.949 143.582C109.106 142.714 107.352 141.863 105.701 141.062C104.048 140.259 102.502 139.507 101.059 138.829C98.1511 137.463 95.7543 136.442 93.8506 135.927C91.8655 135.389 90.8595 135.528 90.3682 135.854C89.9494 136.131 89.4033 136.904 89.4033 139.196C89.4033 143.91 90.1814 149.054 91.0361 154.177C91.8814 159.243 92.8106 164.329 93.0342 168.726C93.255 173.068 92.8219 177.167 90.543 179.995C88.1677 182.942 84.1824 184.069 78.4307 183.395C72.2613 182.671 67.1379 178.017 62.6406 172.049C58.1126 166.04 53.9486 158.323 49.832 150.926C45.6774 143.46 41.5729 136.322 37.0996 131.204C32.6183 126.077 28.0498 123.296 22.9736 123.861C11.7205 125.114 5.86663 129.153 1.1543 132.491C-1.19012 134.152 -3.43822 135.788 -5.9375 136.7C-8.37114 137.589 -10.9886 137.783 -14.1797 136.932L-14.8262 136.747C-16.8944 136.119 -18.2537 134.731 -19.0771 132.938C-19.8717 131.207 -20.1728 129.098 -20.248 126.89C-20.3238 124.664 -20.1729 122.2 -19.9727 119.699C-19.77 117.168 -19.519 114.618 -19.375 112.092C-19.0835 106.978 -19.2766 102.489 -20.9375 99.4482C-21.7354 97.9876 -22.8745 96.8628 -24.5225 96.1494C-26.1992 95.4237 -28.5051 95.0811 -31.6826 95.3887C-45.1838 96.6953 -58.1085 95.4268 -67.9834 88.6611C-77.9309 81.8455 -84.4537 69.6878 -85.6338 49.9814C-86.7685 31.0352 -95.5317 19.1754 -105.01 12.9678C-109.768 9.85151 -114.703 8.16184 -118.952 7.7041C-123.121 7.25511 -126.414 8.0063 -128.328 9.48438L-129.007 10.0273C-131.608 12.0241 -135.879 14.104 -140.922 15.7578C-146.335 17.5333 -152.781 18.8652 -159.283 19.0605C-170.36 19.3932 -181.924 16.3983 -188.498 6.32227V289.13Z" fill="#FFECE1" stroke="black" stroke-width="3"/>
</svg>
