<svg width="594" height="742" viewBox="0 0 594 742" fill="none" xmlns="http://www.w3.org/2000/svg">
<path d="M273.133 527.592L201.023 411.979L228.399 410.038L384.166 502.06L496.213 668.434C496.213 668.434 324.863 588.654 273.133 527.592Z" fill="#DF0586" stroke="#161616" stroke-width="0.954352" stroke-linecap="round" stroke-linejoin="round"/>
<path d="M550.512 590.637L444.475 420.629L383.345 501.09L494.594 669.421L550.512 590.637Z" fill="#7A44BC" stroke="#161616" stroke-width="0.954352" stroke-linecap="round" stroke-linejoin="round"/>
<path d="M333.168 190.268L280.597 105.98L247.54 170.198L186.579 270.825L198.583 350.537L237.245 403.561C264.348 415.35 311.728 427.982 284.419 384.199C259.144 343.676 302.553 257.887 332.823 211.372C336.989 204.97 337.21 196.749 333.168 190.268Z" fill="#7A44BC" stroke="#161616" stroke-width="0.954352" stroke-linecap="round" stroke-linejoin="round"/>
<path d="M280.442 388.679C240.793 371.117 207.212 348.59 210.648 294.484C232.573 292.696 249.673 299.649 263.438 314.083C280.305 332.632 279.31 361.921 280.442 388.679Z" fill="white"/>
<path d="M241.094 339.274C251.323 339.899 259.975 331.677 260.419 320.909C260.864 310.142 252.933 300.906 242.705 300.281C232.477 299.655 223.825 307.877 223.38 318.645C222.935 329.413 230.866 338.649 241.094 339.274Z" fill="#DF0586"/>
<path d="M237.105 322.834C240.855 327.202 247.212 327.59 251.303 323.702C255.395 319.814 255.671 313.122 251.921 308.755C248.17 304.387 241.813 303.999 237.722 307.887C233.631 311.775 233.354 318.467 237.105 322.834Z" fill="#161616"/>
<path d="M6.50038 140.704L55.4743 219.223C114.047 193.65 185.662 162.326 247.449 165.122C252.184 157.442 256.24 149.528 258.409 140.476C264.352 115.575 251.965 98.107 228.233 90.9755C160.736 73.2744 74.7631 110.895 6.50038 140.704Z" fill="#DF0586" stroke="#161616" stroke-width="0.954352" stroke-linecap="round" stroke-linejoin="round"/>
<path d="M228.118 91.0486C251.851 98.1801 264.238 115.648 258.295 140.549C256.126 149.601 252.07 157.515 247.334 165.195C245.938 167.477 244.472 169.734 242.979 171.994C220.603 203.418 194.448 233.568 180.117 270.125C157.78 322.568 166.389 377.054 205.859 415.277C254.059 463.195 328.821 492.325 383.376 500.796L444.544 420.311C363.97 410.15 186.302 397.418 213.54 282.831C219.316 258.541 232.548 235.78 246.414 213.774C262.395 187.763 284.706 159.107 286.019 129.504C286.769 84.7577 235.502 72.5382 197.138 71.7923C127.012 70.6778 63.8319 102.755 1.45829 132.876L4.7922 141.469C5.31808 141.237 5.84394 141.005 6.38582 140.777C74.6486 110.968 160.621 73.3475 228.118 91.0486Z" fill="#A35BFB" stroke="#161616" stroke-width="0.954352" stroke-linecap="round" stroke-linejoin="round"/>
<path d="M201.622 91.0605C194.962 126.663 217.498 150.25 251.353 157.782C259.441 138.354 261.82 120.678 250.89 107.085C242.442 96.5776 230.847 91.4749 201.622 91.0605Z" fill="white"/>
<path d="M201.739 87.7289C195.079 123.331 217.909 150.433 251.764 157.966C259.748 139.799 262.36 120.615 251.431 107.022C243.418 97.056 230.964 88.1433 201.739 87.7289Z" fill="white"/>
<path d="M214.339 107.108C216.033 98.0499 224.389 92.2608 233.002 94.1771C241.615 96.0934 247.224 104.99 245.53 114.047C243.835 123.105 235.48 128.894 226.866 126.977C218.253 125.061 212.644 116.165 214.339 107.108Z" fill="#DF0586"/>
<path d="M224.021 113.235C221.369 109.028 222.422 103.399 226.373 100.661C230.325 97.9237 235.678 99.1147 238.33 103.321C240.982 107.528 239.929 113.158 235.978 115.895C232.027 118.633 226.674 117.442 224.021 113.235Z" fill="#161616"/>
</svg>
