<svg width="199" height="400" viewBox="0 0 199 400" fill="none" xmlns="http://www.w3.org/2000/svg">
<path d="M-12.459 214.91L-12.3984 244.262L14.5664 229.592L14.5127 200.242L-12.459 214.91Z" fill="#DABFFB" stroke="black"/>
<path d="M-199.323 187.924L-13.0518 214.101L13.4424 199.691L-172.833 173.514L-199.323 187.924Z" fill="#A35BFB" stroke="black"/>
<path d="M-124.604 142.523L33.8896 165.458L33.8477 140.669L-124.234 118.448L-124.604 142.523Z" fill="#532E80" stroke="black"/>
<path d="M34.8438 140.539L34.8848 165.204L57.5625 152.871L57.5146 128.207L34.8438 140.539Z" fill="#DABFFB" stroke="black"/>
<path d="M-123.158 117.591L34.252 139.717L56.4463 127.644L-100.957 105.518L-123.158 117.591Z" fill="#A35BFB" stroke="black"/>
<path d="M-41.9229 88.6816L87.624 107.422L87.5889 87.3174L-41.6172 69.1553L-41.9229 88.6816Z" fill="#532E80" stroke="black"/>
<path d="M88.5801 87.1865L88.6152 107.167L106.992 97.1699L106.957 77.1914L88.5801 87.1865Z" fill="#DABFFB" stroke="black"/>
<path d="M-40.541 68.3008L87.9912 86.3691L105.894 76.6318L-22.6406 58.5645L-40.541 68.3008Z" fill="#A35BFB" stroke="black"/>
<path d="M40.1377 48.1895L140.733 62.7402L140.704 47.3223L40.3701 33.2178L40.1377 48.1895Z" fill="#532E80" stroke="black"/>
<path d="M141.7 47.1787L141.729 62.4727L155.812 54.8125L155.783 39.5195L141.7 47.1787Z" fill="#DABFFB" stroke="black"/>
<path d="M41.4482 32.3633L141.109 46.373L154.716 38.9727L55.0498 24.9629L41.4482 32.3633Z" fill="#A35BFB" stroke="black"/>
<path d="M115.132 16.8525L186.78 27.2217L186.758 16.4766L115.295 6.43652L115.132 16.8525Z" fill="#532E80" stroke="black"/>
<path d="M187.765 16.3428L187.787 26.9629L197.57 21.6396L197.554 11.0195L187.765 16.3428Z" fill="#DABFFB" stroke="black"/>
<path d="M116.384 5.58105L187.174 15.5264L196.486 10.4629L125.69 0.517578L116.384 5.58105Z" fill="#A35BFB" stroke="black"/>
</svg>
