<svg width="167" height="456" viewBox="0 0 167 456" fill="none" xmlns="http://www.w3.org/2000/svg">
<path d="M-148.983 383.089L42.1904 410.751L42.1338 380.674L-148.53 353.878L-148.983 383.089Z" fill="#532E80" stroke="black"/>
<path d="M43.1377 380.54L43.1943 410.491L70.7148 395.518L70.6631 365.57L43.1377 380.54Z" fill="#DABFFB" stroke="black"/>
<path d="M-147.453 353.018L42.5391 379.719L69.5869 365.009L-120.408 338.303L-147.453 353.018Z" fill="#A35BFB" stroke="black"/>
<path d="M-18.1201 302.559L-18.0732 327.521L4.87109 315.037L4.82812 290.078L-18.1201 302.559Z" fill="#DABFFB" stroke="black"/>
<path d="M-177.948 279.359L-18.7119 301.738L3.75879 289.518L-155.48 267.135L-177.948 279.359Z" fill="#A35BFB" stroke="black"/>
<path d="M-95.6621 78.0342L17.2256 94.3682L17.1934 76.9561L-95.3994 61.1318L-95.6621 78.0342Z" fill="#532E80" stroke="black"/>
<path d="M18.1816 76.8184L18.2139 94.1064L34.1172 85.4521L34.0879 68.168L18.1816 76.8184Z" fill="#DABFFB" stroke="black"/>
<path d="M-94.3232 60.2744L17.5957 76.0039L33.0244 67.6133L-78.8975 51.8809L-94.3232 60.2744Z" fill="#A35BFB" stroke="black"/>
<path d="M-7.79688 50.7334L79.2061 63.3223L79.1816 50.0977L-7.59668 37.9014L-7.79688 50.7334Z" fill="#532E80" stroke="black"/>
<path d="M80.1826 49.9639L80.208 63.0635L92.2695 56.5L92.2471 43.4023L80.1826 49.9639Z" fill="#DABFFB" stroke="black"/>
<path d="M-6.53516 37.0439L79.5703 49.1455L91.1572 42.8438L5.0498 30.7402L-6.53516 37.0439Z" fill="#A35BFB" stroke="black"/>
<path d="M61.0732 27.0625L124.776 36.2803L124.759 26.8242L61.2148 17.8936L61.0732 27.0625Z" fill="#532E80" stroke="black"/>
<path d="M125.761 26.6885L125.778 36.0195L134.383 31.3369L134.367 22.0078L125.761 26.6885Z" fill="#DABFFB" stroke="black"/>
<path d="M62.292 17.0381L125.165 25.874L133.294 21.4531L70.4219 12.6152L62.292 17.0381Z" fill="#A35BFB" stroke="black"/>
<path d="M113.741 10.8672L159.828 17.5352L159.815 10.5049L113.847 4.04492L113.741 10.8672Z" fill="#532E80" stroke="black" stroke-width="0.5"/>
<path d="M160.308 10.4395L160.32 17.4082L166.734 13.9189L166.723 6.95117L160.308 10.4395Z" fill="#DABFFB" stroke="black" stroke-width="0.5"/>
<path d="M114.367 3.61914L159.999 10.0322L166.178 6.67285L120.544 0.258789L114.367 3.61914Z" fill="#A35BFB" stroke="black" stroke-width="0.5"/>
<path d="M-111.549 464.588L110.452 496.71L110.387 461.646L-111.02 430.53L-111.549 464.588Z" fill="#532E80" stroke="black"/>
<path d="M111.39 461.513L111.455 496.452L143.551 478.987L143.491 444.055L111.39 461.513Z" fill="#DABFFB" stroke="black"/>
<path d="M-109.942 429.671L110.792 460.692L142.415 443.494L-78.3232 412.467L-109.942 429.671Z" fill="#A35BFB" stroke="black"/>
</svg>
