<svg width="688" height="902" viewBox="0 0 688 902" fill="none" xmlns="http://www.w3.org/2000/svg">
<path d="M686.974 650.261L345.051 982L4.50391 1323L4.49609 5.5L683.056 308.417L686.974 650.261Z" fill="#FFECE1"/>
<path d="M468.668 301.83C429.52 288.603 392.051 348.421 392.051 437.827V813.962V936.257L524.947 805.88V439.759C524.947 374.085 501.714 312.995 468.668 301.83Z" fill="#6F6F6F"/>
<path d="M0.00390625 1319.36L2.04993 0L684.07 307.755L684.078 308.404L688.001 650.686L687.689 650.992L0.00390625 1319.36ZM4.09595 3.18201L2.04993 1314.5L685.947 649.835L682.041 309.077L4.09595 3.18201Z" fill="#131313"/>
<path d="M257.138 226.471C198.334 206.603 142.053 296.455 142.053 430.751V995.738V1179.44L341.674 983.598V433.653C341.674 335.005 306.776 243.242 257.138 226.471Z" fill="#6F6F6F"/>
<path d="M142.295 1185.71V433.371C142.295 342.864 168.515 265.564 209.094 236.441C225.087 224.964 242.481 221.914 259.41 227.634C308.199 244.12 344.989 333.814 344.989 436.271V986.862L344.528 987.313L142.295 1185.71ZM242.688 227.911C231.867 227.911 221.087 231.618 210.886 238.939C171.085 267.503 145.368 343.822 145.368 433.372V1178.4L341.918 985.572V436.273C341.918 335.073 306.024 246.63 258.426 230.547C253.213 228.785 247.946 227.911 242.688 227.911Z" fill="#131313"/>
<path d="M258.912 229.089C200.108 209.221 143.826 299.072 143.826 433.369V998.356L343.447 436.271C343.447 337.622 308.55 245.859 258.912 229.089Z" fill="#131313"/>
<path d="M392.209 940.438V439.572C392.209 379.318 409.665 327.856 436.68 308.468C447.327 300.827 458.907 298.797 470.177 302.605C502.658 313.58 527.151 373.293 527.151 441.503V808.054L526.844 808.354L392.209 940.438ZM459.045 302.789C451.841 302.789 444.664 305.257 437.873 310.131C411.376 329.147 394.255 379.956 394.255 439.573V935.567L525.106 807.195V441.504C525.106 374.131 501.21 315.251 469.522 304.544C466.052 303.371 462.545 302.789 459.045 302.789Z" fill="#131313"/>
<g opacity="0.63">
<path d="M469.849 303.572C430.701 290.345 393.232 350.163 393.232 439.57V815.705L526.128 441.502C526.128 375.827 502.895 314.737 469.849 303.572Z" fill="#131313"/>
</g>
<path d="M548.771 786.842V441.846C548.771 395.043 559.287 356.051 574.941 344.818C579.224 341.742 583.661 340.948 588.131 342.459C605.885 348.457 619.274 391.612 619.274 442.84V717.676L618.967 717.977L548.771 786.842ZM583.774 343.771C581.204 343.771 578.647 344.675 576.134 346.479C561.228 357.176 550.817 396.393 550.817 441.845V781.969L617.229 716.816V442.839C617.229 393.275 604.16 350.033 587.476 344.396C586.242 343.979 585.006 343.771 583.774 343.771Z" fill="#131313"/>
<path d="M587.804 343.424C567.918 336.705 549.795 380.394 549.795 441.842V700.352V783.497L618.252 716.497V442.837C618.251 393.615 605.403 349.371 587.804 343.424Z" fill="#6F6F6F"/>
<path d="M587.562 343.182C567.676 336.463 549.553 380.152 549.553 441.6V700.11L618.01 442.595C618.009 393.373 605.161 349.129 587.562 343.182Z" fill="#131313"/>
<path d="M630.74 706.426V443.036C630.74 405.051 637.811 373.448 647.936 366.182C650.147 364.596 652.436 364.186 654.743 364.965C666 368.767 674.488 402.59 674.488 443.641V663.508L674.181 663.808L630.74 706.426ZM652.486 366.63C651.369 366.63 650.26 367.033 649.129 367.844C641.008 373.672 632.785 401.371 632.785 443.036V701.554L672.441 662.649V443.642C672.441 404.746 664.208 370.323 654.088 366.904L654.087 366.903C653.55 366.722 653.017 366.63 652.486 366.63Z" fill="#131313"/>
<g opacity="0.63">
<path d="M654.62 366.466C642.617 362.411 631.967 396.758 631.967 443.568V640.495V704.523L673.669 663.611V444.173C673.669 404.811 665.529 370.152 654.62 366.466Z" fill="#6F6F6F"/>
<path d="M654.417 365.935C642.414 361.879 631.764 396.227 631.764 443.037V639.964L673.466 443.643C673.466 404.28 665.326 369.621 654.417 365.935Z" fill="#131313"/>
</g>
<path d="M673.755 663H632.053V703.912L673.755 663Z" fill="#131313"/>
<path d="M617.51 717H549.053V784.159L617.51 717Z" fill="#131313"/>
<path d="M526 805.5H393.104V935.878L526 805.5Z" fill="#131313"/>
</svg>
