<svg width="215" height="107" viewBox="0 0 215 107" fill="none" xmlns="http://www.w3.org/2000/svg">
<g clip-path="url(#clip0_2496_1296)">
<path d="M-11.0195 2.77539C-8.40221 1.17575 -4.79521 0.106131 -0.560547 2.04004C3.6726 3.97337 5.31574 7.58199 6.62891 10.9932C7.26342 12.6414 7.8602 14.3636 8.6748 15.6299C9.53811 16.9716 10.7516 17.9696 12.626 17.9697C15.6316 17.9697 19.4161 17.5965 22.8105 19.0146C26.0482 20.3673 29.0711 23.4496 30.1338 30.8408C30.7095 34.8433 32.1143 37.425 34.0244 39.1191C35.9116 40.7929 38.1811 41.4981 40.2607 41.9697C40.7831 42.0882 41.3018 42.1933 41.8008 42.2939C42.3035 42.3954 42.7845 42.4921 43.25 42.5957C44.1853 42.8038 45.0047 43.0291 45.7021 43.3418C46.391 43.6506 46.9314 44.0316 47.335 44.5342C47.7353 45.0329 48.047 45.7097 48.1904 46.6836C48.3536 47.7919 48.4833 48.8452 48.6064 49.8496C48.729 50.8492 48.8465 51.8071 48.9834 52.7031C49.2551 54.4821 49.6173 56.1192 50.3291 57.4922C51.0612 58.9041 52.148 60.0102 53.7891 60.7422C55.3943 61.4581 57.4799 61.7939 60.1904 61.7939C62.8703 61.7939 65.4072 61.6267 67.6875 61.4785C69.9866 61.3291 71.9954 61.2019 73.6953 61.2656C75.4101 61.3299 76.6607 61.587 77.5127 62.0977C78.2946 62.5663 78.8346 63.3046 79.0186 64.6279C79.1381 65.4876 79.3643 66.2342 79.7988 66.7803C80.2818 67.387 80.9316 67.6369 81.6094 67.6436C82.2237 67.6495 82.8604 67.4581 83.4463 67.2344C84.043 67.0066 84.7083 66.6957 85.3779 66.3906C88.1244 65.1395 91.5034 63.745 95.4766 65.4121C99.4438 67.0767 99.9246 69.8667 101.521 73.0557C102.309 74.6311 103.362 76.2075 105.298 77.4375C107.214 78.6549 109.9 79.4734 113.852 79.7441C121.69 80.2811 125.648 79.3381 128.343 78.7324C129.688 78.43 130.556 78.2569 131.423 78.332C132.253 78.4041 133.17 78.7169 134.518 79.5869C137.372 81.4295 139.373 82.576 141.427 83.083C143.513 83.5978 145.559 83.4315 148.454 82.8975C151.167 82.3971 154.445 82.5284 157.254 83.1387C158.655 83.4431 159.906 83.8593 160.893 84.3535C161.898 84.8573 162.534 85.3942 162.834 85.8857C163.138 86.3831 163.595 86.8383 164.279 86.9258C164.892 87.0039 165.436 86.7455 165.824 86.5137C166.232 86.2698 166.676 85.9234 167.12 85.5771C167.582 85.2169 168.083 84.8228 168.662 84.4199C170.928 82.8438 174.427 81.0959 180.295 81.8496C186.5 82.6465 192.791 82.9259 198.288 81.8389C203.804 80.7482 208.601 78.2631 211.654 73.4766C212.32 72.4331 212.93 71.8664 213.37 71.6143C213.659 71.4487 213.798 71.4536 213.842 71.4629C213.874 71.5046 213.988 71.6859 213.955 72.1865C213.917 72.7724 213.676 73.6259 213.077 74.6943C210.677 78.979 202.941 86.0005 184.105 91.5146C165.218 97.0442 157.971 96.3129 154.521 95.2178C153.653 94.9423 153.003 94.6372 152.415 94.3633C151.859 94.1041 151.249 93.814 150.6 93.7139C149.139 93.4887 147.827 94.2363 145.856 95.9424C142.029 99.256 138.349 100.886 134.142 101.517C129.888 102.154 125.056 101.778 118.893 100.986C112.5 100.165 108.896 101.406 105.791 102.854C102.738 104.277 100.436 105.729 96.3037 105.729C91.8912 105.729 85.6925 105.728 79.6729 104.753C73.6231 103.773 67.9518 101.838 64.4404 98.123C62.6558 96.2354 61.3008 94.0478 60.1104 91.8857C58.9485 89.7756 57.8882 87.5733 56.7871 85.9014C55.682 84.2234 54.3474 82.7677 52.46 82.374C50.5619 81.9783 48.4472 82.7236 45.9463 84.5586C40.6605 88.4372 40.9018 93.9494 40.5322 98.0293C40.3406 100.144 40.0088 101.831 39.0029 103.103C38.0271 104.336 36.2639 105.355 32.7773 105.735C26.0248 106.471 21.3745 102.462 17.3643 98.3125C15.4149 96.2956 13.5471 94.1651 11.7549 92.793C9.92899 91.3952 7.87214 90.5447 5.61035 91.5615C4.09406 92.2431 2.70282 92.2002 1.51953 91.707C0.316481 91.2057 -0.737597 90.2094 -1.47363 88.8857C-2.94872 86.2328 -3.05133 82.4434 -0.673828 79.3555C0.743473 77.5149 1.21265 75.7198 0.535156 74.2578C-0.134084 72.814 -1.70228 72.1739 -3.25781 72.1357C-6.43644 72.058 -10.4828 74.3688 -11.6895 79.5762C-12.7352 84.0888 -13.9833 88.2453 -15 91.3545V6.23047C-14.9787 6.20452 -14.9564 6.176 -14.9316 6.14648C-14.7479 5.92718 -14.472 5.61321 -14.1113 5.24707C-13.3875 4.51224 -12.3355 3.57968 -11.0195 2.77539Z" fill="#FFECE1" stroke="black" stroke-width="2"/>
</g>
<defs>
<clipPath id="clip0_2496_1296">
<rect width="229" height="107" fill="white" transform="translate(-14)"/>
</clipPath>
</defs>
</svg>
