<svg width="410" height="514" viewBox="0 0 410 514" fill="none" xmlns="http://www.w3.org/2000/svg">
<path d="M273.44 270.188C273.44 270.188 348.548 260.352 364.514 268.018C380.506 275.646 364.571 250.746 340.429 245.435C316.286 240.125 269.341 250.153 269.341 250.153L273.44 270.188Z" fill="#EB5328"/>
<path d="M237.053 268.977C237.053 268.977 371.258 215.504 379.466 214.617C396.903 212.741 368.436 195.316 348.293 201.514C340.052 204.05 266.198 229.525 266.198 229.525L166.43 209.217L237.091 269.002L237.053 268.977Z" fill="#EB5328"/>
<path d="M-108.943 302.192L4.35679 233.149C4.35679 233.149 25.1839 168.463 79.5472 156.8C133.911 145.136 173.812 151.853 205.479 144.245C237.147 136.638 235.771 144.183 218.759 157.973C201.747 171.764 156.497 191.88 156.497 191.88C156.497 191.88 208.454 222.253 221.107 231.278C233.76 240.304 180.722 254.018 180.722 254.018C180.722 254.018 111.275 252.645 52.6899 304.526C-5.85597 356.433 -7.89323 369.438 -7.89323 369.438L-109.007 302.205L-108.943 302.192Z" fill="#EB5328"/>
<path d="M46.3491 236.296C98.0477 201.933 202.981 246.993 202.981 246.993C202.981 246.993 238.708 221.991 245.074 216.039C251.441 210.087 272.547 156.607 293.517 165.763L266.177 229.459L248.55 250.577L278.438 230.987C278.438 230.987 320.121 154.734 350.68 172.047L285.933 269.422C285.933 269.422 243.481 297.967 213.178 304.701C182.837 311.409 103.941 270.917 66.7297 289.81C29.5184 308.704 46.4137 236.283 46.4137 236.283L46.3491 236.296Z" fill="#EB5328"/>
<path d="M286.481 268.678C308.706 266.257 352.746 262.367 364.507 268.017C380.473 275.683 364.59 250.706 340.422 245.434C330.056 243.162 315.429 243.677 302.187 245.057" stroke="#161616" stroke-width="0.733641" stroke-linecap="round" stroke-linejoin="round"/>
<path d="M303.787 242.664C338.812 228.995 375.295 215.072 379.464 214.616C396.901 212.74 368.434 195.315 348.316 201.474C345.789 202.243 337.059 205.177 326.242 208.893" stroke="#161616" stroke-width="0.733641" stroke-linecap="round" stroke-linejoin="round"/>
<path d="M195.733 215.175L235.898 223.348" stroke="#161616" stroke-width="0.733641" stroke-linecap="round" stroke-linejoin="round"/>
<path d="M282.594 223.895C272.962 227.175 266.193 229.52 266.193 229.52" stroke="#161616" stroke-width="0.733641" stroke-linecap="round" stroke-linejoin="round"/>
<path d="M278.383 231.059L248.496 250.649L266.123 229.531L293.462 165.835C272.493 156.679 251.386 210.159 245.02 216.111C241.946 218.965 232.124 226.238 222.701 232.996C222.414 232.416 221.857 231.822 221.105 231.267C208.452 222.242 156.495 191.869 156.495 191.869C156.495 191.869 201.745 171.753 218.758 157.962C235.77 144.172 237.145 136.627 205.478 144.234C173.81 151.842 133.909 145.125 79.5455 156.789C25.1822 168.452 4.35506 233.138 4.35506 233.138L-108.944 302.181L-7.83043 369.414C-7.83043 369.414 -5.79328 356.409 52.7526 304.502C60.6257 297.548 68.6578 291.534 76.7321 286.384C116.606 277.386 185.324 310.945 213.163 304.799C243.504 298.09 285.917 269.52 285.917 269.52L350.664 172.145C320.067 154.805 278.422 231.085 278.422 231.085L278.383 231.059Z" stroke="#161616" stroke-width="0.733641" stroke-linecap="round" stroke-linejoin="round"/>
<path d="M70.0633 226.41C124.731 213.446 202.952 247.034 202.952 247.034L222.727 232.965" stroke="#161616" stroke-width="0.733641" stroke-linecap="round" stroke-linejoin="round"/>
<path d="M138.855 199.954L156.523 191.832" stroke="#161616" stroke-width="0.733641" stroke-linecap="round" stroke-linejoin="round"/>
<path d="M248.539 250.676L224.725 277.476" stroke="#161616" stroke-width="0.733641" stroke-linecap="round" stroke-linejoin="round"/>
<path d="M278.387 231.067L286.694 238.372" stroke="#161616" stroke-width="0.733641" stroke-linecap="round" stroke-linejoin="round"/>
<path d="M245.411 215.705L252.41 222.029" stroke="#161616" stroke-width="0.733641" stroke-linecap="round" stroke-linejoin="round"/>
<path d="M206.545 166.319L202.487 159.279" stroke="#161616" stroke-width="0.733641" stroke-linecap="round" stroke-linejoin="round"/>
</svg>
