<svg width="51" height="798" viewBox="0 0 51 798" fill="none" xmlns="http://www.w3.org/2000/svg">
<path d="M50.1685 518.308L-225.981 786.232L-523.998 1079L-491.693 0L47.0042 242.223L50.1685 518.308Z" fill="#FCDAC6"/>
<path d="M-489.309 1042.55L-487.654 3.23047L47.8221 241.688L47.8286 242.212L50.9969 518.65L50.745 518.898L-489.309 1042.55ZM-486.001 5.80037L-487.656 1038.62L49.3381 517.963L46.1835 242.755L-486.001 5.80037Z" fill="#232325"/>
<g opacity="0.63">
<path d="M23.5688 288.7C13.8747 285.425 5.27344 313.165 5.27344 350.97V510.015V561.727L38.9534 528.685V351.459C38.9534 319.669 32.3792 291.677 23.5688 288.7Z" fill="#808080"/>
<path d="M23.8715 288.677C14.1774 285.401 5.57617 313.142 5.57617 350.947V509.992L39.2562 351.436C39.2562 319.645 32.682 291.654 23.8715 288.677Z" fill="#232325"/>
</g>
<path d="M39.4866 528.598H5.80664V561.64L39.4866 528.598Z" fill="#232325"/>
<path d="M4.74805 563.671V350.948C4.74805 320.27 10.4588 294.747 18.6361 288.878C20.4218 287.597 22.2704 287.266 24.1336 287.895C33.2252 290.966 40.0804 318.283 40.0804 351.437V529.009L39.8324 529.251L4.74805 563.671ZM22.3109 289.24C21.4087 289.24 20.513 289.566 19.5996 290.221C13.0408 294.928 6.3996 317.298 6.3996 350.948V559.736L38.4272 528.315V351.438C38.4272 320.024 31.7779 292.223 23.6046 289.461L23.6038 289.461C23.1701 289.314 22.7397 289.24 22.3109 289.24Z" fill="#232325"/>
</svg>
