<svg width="47" height="498" viewBox="0 0 47 498" fill="none" xmlns="http://www.w3.org/2000/svg">
<path d="M-58.9307 27.0625L4.77246 36.2803L4.75488 26.8242L-58.7891 17.8936L-58.9307 27.0625Z" fill="#532E80" stroke="black"/>
<path d="M5.75684 26.6885L5.77441 36.0195L14.3789 31.3369L14.3633 22.0078L5.75684 26.6885Z" fill="#DABFFB" stroke="black"/>
<path d="M-57.7119 17.0381L5.16113 25.874L13.29 21.4531L-49.582 12.6152L-57.7119 17.0381Z" fill="#A35BFB" stroke="black"/>
<path d="M-6.00977 10.6514L39.5732 17.2471L39.5615 10.7227L-5.91113 4.33105L-6.00977 10.6514Z" fill="#532E80" stroke="black"/>
<path d="M40.5576 10.5879L40.5693 16.9873L46.4844 13.7695L46.4736 7.37109L40.5576 10.5879Z" fill="#DABFFB" stroke="black"/>
<path d="M-4.84766 3.47656L39.9521 9.77344L45.3916 6.81543L0.59082 0.517578L-4.84766 3.47656Z" fill="#A35BFB" stroke="black"/>
<path d="M-8.61035 461.513L-8.54492 496.452L23.5508 478.987L23.4912 444.055L-8.61035 461.513Z" fill="#DABFFB" stroke="black"/>
<path d="M-229.942 429.671L-9.20801 460.692L22.415 443.494L-198.323 412.467L-229.942 429.671Z" fill="#A35BFB" stroke="black"/>
</svg>
