<svg width="556" height="753" viewBox="0 0 556 753" fill="none" xmlns="http://www.w3.org/2000/svg">
<path d="M241.786 530.544L178.855 409.689L206.299 409.877L354.464 513.695L453.277 688.253C453.277 688.253 288.627 595.431 241.786 530.544Z" fill="#DF0586" stroke="#161616" stroke-width="0.569147" stroke-linecap="round" stroke-linejoin="round"/>
<path d="M513.442 614.903L420.902 437.188L353.719 512.667L451.585 689.115L513.442 614.903Z" fill="#7A44BC" stroke="#161616" stroke-width="0.569147" stroke-linecap="round" stroke-linejoin="round"/>
<path d="M330.129 203.397L281.903 110.78L243.968 172.242L175.389 267.84L181.179 348.242L215.614 404.103C241.722 417.958 287.979 434.225 264.147 388.456C241.4 344.771 295.211 258.753 328.923 215.885C331.738 212.305 332.233 207.437 330.129 203.397Z" fill="#7A44BC" stroke="#161616" stroke-width="0.569147" stroke-linecap="round" stroke-linejoin="round"/>
<path d="M5.94239 124.156L48.6823 206.235C109.061 185.279 182.889 159.602 244.272 167.178C249.589 159.888 254.246 152.313 257.11 143.456C264.966 119.091 253.97 100.715 230.862 91.7654C164.94 68.8855 76.3102 99.7288 5.94239 124.156Z" fill="#DF0586" stroke="#161616" stroke-width="0.569147" stroke-linecap="round" stroke-linejoin="round"/>
<path d="M230.745 91.8301C253.853 100.78 264.848 119.156 256.993 143.52C254.129 152.377 249.471 159.953 244.155 167.243C242.586 169.41 240.949 171.546 239.286 173.683C214.541 203.278 186.127 231.31 169.007 266.647C142.671 317.2 147.03 372.189 183.419 413.357C227.759 464.866 300.039 499.704 353.772 512.378L420.995 436.877C341.452 420.5 165.306 394.035 201.343 281.904C208.986 258.135 223.942 236.469 239.472 215.604C257.421 190.91 281.886 164.07 285.49 134.658C289.707 90.1045 239.54 73.9477 201.35 70.2303C131.521 63.6832 66.0451 90.7659 1.52434 115.962L4.18212 124.787C4.72441 124.597 5.26669 124.406 5.82464 124.22C76.1925 99.7935 164.823 68.9502 230.745 91.8301Z" fill="#A35BFB" stroke="#161616" stroke-width="0.569147" stroke-linecap="round" stroke-linejoin="round"/>
<path d="M259.769 391.048C221.198 370.089 189.339 344.936 198.561 292.955C221.105 293.424 237.806 301.863 250.316 317.202C265.554 336.831 261.444 365.057 259.769 391.048Z" fill="white"/>
<path d="M224.871 339.326C235.234 340.956 244.925 333.871 246.516 323.503C248.108 313.134 240.997 303.407 230.635 301.777C220.272 300.147 210.581 307.231 208.989 317.6C207.397 327.968 214.508 337.696 224.871 339.326Z" fill="#DF0586"/>
<path d="M222.54 323.024C225.903 327.624 232.344 328.637 236.926 325.287C241.509 321.937 242.498 315.493 239.136 310.893C235.773 306.293 229.333 305.28 224.75 308.63C220.167 311.98 219.178 318.424 222.54 323.024Z" fill="#161616"/>
<path d="M204.792 89.9169C194.238 123.68 214.723 148.75 248.447 159.429C258.747 141.451 263.041 124.595 253.334 110.353C245.83 99.3447 234.547 93.2476 204.792 89.9169Z" fill="white"/>
<path d="M205.263 86.7052C194.709 120.468 215.123 148.968 248.847 159.646C258.908 142.878 263.598 124.586 253.891 110.345C246.775 99.9038 235.018 90.0359 205.263 86.7052Z" fill="white"/>
<path d="M216.062 106.709C218.747 98.1197 227.879 93.3588 236.459 96.0755C245.038 98.7922 249.817 107.958 247.132 116.548C244.447 125.137 235.316 129.898 226.736 127.181C218.156 124.465 213.378 115.299 216.062 106.709Z" fill="#DF0586"/>
<path d="M225.287 113.607C223.027 109.273 224.696 103.934 229.014 101.683C233.332 99.4312 238.665 101.12 240.925 105.454C243.184 109.788 241.516 115.127 237.197 117.378C232.879 119.63 227.547 117.941 225.287 113.607Z" fill="#161616"/>
</svg>
