<svg width="415" height="260" viewBox="0 0 415 260" fill="none" xmlns="http://www.w3.org/2000/svg">
<path d="M-17.8167 89.1738L357.696 143.507L357.584 83.6104L-16.9114 30.9795L-17.8167 89.1738Z" fill="#532E80" stroke="black"/>
<path d="M358.581 83.4775L358.693 143.25L413.569 113.391L413.466 53.6289L358.581 83.4775Z" fill="#DABFFB" stroke="black"/>
<path d="M-15.8324 30.1172L357.99 82.6533L412.398 53.0635L38.567 0.517578L-15.8324 30.1172Z" fill="#A35BFB" stroke="black"/>
<path d="M-138.495 225.872L297.411 288.944L297.28 219.278L-137.442 158.183L-138.495 225.872Z" fill="#532E80" stroke="black"/>
<path d="M298.282 219.15L298.413 288.691L362.252 253.956L362.133 184.426L298.282 219.15Z" fill="#DABFFB" stroke="black"/>
<path d="M-136.364 157.322L297.687 218.323L361.06 183.857L-73.002 122.846L-136.364 157.322Z" fill="#A35BFB" stroke="black"/>
</svg>
