<svg width="149" height="211" viewBox="0 0 149 211" fill="none" xmlns="http://www.w3.org/2000/svg">
<path d="M99.9878 71.5091C99.9878 71.5091 131.487 42.5426 141.356 40.8927C151.223 39.2165 135.766 32.895 122.886 38.2918C110.006 43.6887 91.5789 63.5862 91.5789 63.5862L99.9878 71.5091Z" fill="#EB5328"/>
<path d="M82.783 82.7883C82.783 82.7883 127.395 14.4469 130.898 11.368C138.344 4.8319 119.526 6.03823 112.236 15.4514C109.254 19.3023 83.4191 55.0858 83.4191 55.0858L30.7258 78.1448L82.8094 82.7876L82.783 82.7883Z" fill="#EB5328"/>
<path d="M-66.256 210.63L-36.3652 141.893C-36.3652 141.893 -47.777 105.238 -26.4553 82.1732C-5.13353 59.1081 15.4837 49.2366 27.6395 35.425C39.7953 21.6133 41.6132 25.5464 38.2382 37.4488C34.8632 49.3512 20.4997 73.358 20.4997 73.358C20.4997 73.358 54.3786 70.4949 63.1588 70.5502C71.9389 70.6054 51.8963 94.1866 51.8963 94.1866C51.8963 94.1866 19.3672 116.135 9.17239 159.151C-0.9961 202.168 2.29156 208.838 2.29156 208.838L-66.2816 210.657L-66.256 210.63Z" fill="#EB5328"/>
<path d="M-15.9388 129.693C-3.22912 97.0076 59.8988 83.7036 59.8988 83.7036C59.8988 83.7036 68.2739 60.5367 69.2796 55.7167C70.2853 50.8968 62.6465 19.3277 75.3109 16.7392L83.3923 55.0543L82.1159 70.5418L89.5532 51.7739C89.5532 51.7739 84.0149 2.99288 103.762 1.05469L105.513 67.0924C105.513 67.0924 95.1834 94.0829 83.3742 107.047C71.5387 120.012 21.9243 126.96 10.8773 147.788C-0.169741 168.616 -15.9131 129.666 -15.9131 129.666L-15.9388 129.693Z" fill="#EB5328"/>
<path d="M105.521 66.5762C115.001 58.2312 134.082 42.1142 141.352 40.8998C151.22 39.2499 135.761 32.876 122.882 38.299C117.355 40.6196 110.765 45.6139 105.096 50.5575" stroke="#161616" stroke-width="0.414457" stroke-linecap="round" stroke-linejoin="round"/>
<path d="M105.054 48.9348C116.79 31.2316 129.117 12.9364 130.894 11.3701C138.34 4.83399 119.523 6.04032 112.232 15.4273C111.314 16.6042 108.235 20.7981 104.446 26.0324" stroke="#161616" stroke-width="0.414457" stroke-linecap="round" stroke-linejoin="round"/>
<path d="M46.2013 71.3708L67.4141 62.0859" stroke="#161616" stroke-width="0.414457" stroke-linecap="round" stroke-linejoin="round"/>
<path d="M89.1641 47.1484C85.7811 51.7957 83.4166 55.0801 83.4166 55.0801" stroke="#161616" stroke-width="0.414457" stroke-linecap="round" stroke-linejoin="round"/>
<path d="M89.5503 51.8293L82.113 70.5972L83.3894 55.1096L75.308 16.7946C62.6436 19.3831 70.2824 50.9522 69.2767 55.7721C68.7846 58.0901 66.6122 64.6435 64.4563 70.8298C64.1354 70.655 63.6848 70.5621 63.1572 70.55C54.377 70.4947 20.4981 73.3578 20.4981 73.3578C20.4981 73.3578 34.8616 49.351 38.2366 37.4486C41.6116 25.5462 39.7937 21.6131 27.6379 35.4248C15.4821 49.2364 -5.13513 59.1079 -26.4569 82.173C-47.7787 105.238 -36.3668 141.893 -36.3668 141.893L-66.2576 210.63L2.31564 208.811C2.31564 208.811 -0.972107 202.141 9.19638 159.124C10.5723 153.352 12.3274 147.962 14.3828 142.957C29.8779 125.835 72.5354 118.993 83.3977 107.102C95.2332 94.1369 105.537 67.1471 105.537 67.1471L103.785 1.10938C84.012 3.04826 89.5767 51.8286 89.5767 51.8286L89.5503 51.8293Z" stroke="#161616" stroke-width="0.414457" stroke-linecap="round" stroke-linejoin="round"/>
<path d="M-8.20055 117.417C12.839 93.6519 59.8966 83.7339 59.8966 83.7339L64.457 70.8047" stroke="#161616" stroke-width="0.414457" stroke-linecap="round" stroke-linejoin="round"/>
<path d="M14.9746 82.8332L20.4961 73.3359" stroke="#161616" stroke-width="0.414457" stroke-linecap="round" stroke-linejoin="round"/>
<path d="M82.1367 70.6016L79.8497 90.7258" stroke="#161616" stroke-width="0.414457" stroke-linecap="round" stroke-linejoin="round"/>
<path d="M89.5514 51.8283L95.7644 52.5016" stroke="#161616" stroke-width="0.414457" stroke-linecap="round" stroke-linejoin="round"/>
<path d="M69.3211 55.4601L74.6107 56.1055" stroke="#161616" stroke-width="0.414457" stroke-linecap="round" stroke-linejoin="round"/>
<path d="M35.3081 45.2838L31.1443 43.3512" stroke="#161616" stroke-width="0.414457" stroke-linecap="round" stroke-linejoin="round"/>
</svg>
