<svg width="167" height="160" viewBox="0 0 167 160" fill="none" xmlns="http://www.w3.org/2000/svg">
<path d="M39.898 101.458L130.842 140.074L165.82 39.3363L74.5965 1L39.898 101.458Z" fill="white" stroke="black" stroke-width="0.752496" stroke-linecap="round" stroke-linejoin="round"/>
<path d="M92.2267 159.097L130.843 140.069L39.8991 101.453L1.0033 120.481L92.2267 159.097Z" fill="#7A034A" stroke="black" stroke-width="0.752496" stroke-linecap="round" stroke-linejoin="round"/>
<path d="M1.00333 120.486L35.9816 20.0282L74.5977 1L39.8992 101.458L1.00333 120.486Z" fill="#DF0586" stroke="black" stroke-width="0.752496" stroke-linecap="round" stroke-linejoin="round"/>
<path d="M116.584 31.2109L115.465 32.6101C103.712 46.8812 86.0832 55.276 67.3348 55.276L68.734 56.6752C81.606 69.827 88.8814 87.456 88.8814 105.925V109.562L90.0008 108.163C101.754 93.892 119.383 85.4972 138.131 85.4972L136.732 84.0981C123.86 70.9463 116.584 53.3172 116.584 34.8486V31.2109Z" fill="#A35BFB"/>
</svg>
