<svg width="131" height="153" viewBox="0 0 131 153" fill="none" xmlns="http://www.w3.org/2000/svg">
<path d="M124.879 1L2.59644 76.9879L129.668 144.674L124.879 1Z" fill="white" stroke="black" stroke-width="0.858584" stroke-linecap="round" stroke-linejoin="round"/>
<path d="M129.032 145.951C122.966 157.445 89.4417 151.698 54.3212 133.18C19.2008 114.342 -4.10635 90.0774 1.9599 78.2641C8.02615 66.7702 41.5502 72.5172 76.6706 91.0352C111.791 109.873 135.098 134.137 129.032 145.951Z" fill="#DF0586" stroke="black" stroke-width="0.858584" stroke-linecap="round" stroke-linejoin="round"/>
<path d="M122.008 125.528C122.646 127.763 122.327 129.678 121.689 131.275C116.899 140.534 90.3995 135.745 62.3032 121.058C34.5261 106.371 16.0081 86.8952 20.7972 77.6362C22.0743 75.4012 24.3093 74.1242 27.8213 73.4856C14.731 71.2507 4.83339 72.8471 1.9599 78.5941C-4.10635 90.088 19.2008 114.672 54.3212 133.51C89.4417 152.347 122.966 158.094 129.032 146.281C131.586 141.172 129.032 134.148 122.008 125.847V125.528Z" fill="#7A034A" stroke="black" stroke-width="0.858584" stroke-linecap="round" stroke-linejoin="round"/>
<path d="M71.5499 48.2422C70.5921 53.6699 72.1884 59.4168 75.7005 63.5674C70.2728 62.6096 64.5258 64.2059 60.3752 67.718C61.333 62.2903 59.7367 56.5433 56.2246 52.3927C61.6523 53.3506 67.3993 51.7542 71.5499 48.2422Z" fill="#A35BFB"/>
<path d="M109.569 32.9297C108.611 38.3574 110.207 44.1044 113.72 48.255C108.292 47.2972 102.545 48.8935 98.3943 52.4056C99.3521 46.9779 97.7557 41.2309 94.2437 37.0803C99.6714 38.0382 105.418 36.4417 109.569 32.9297Z" fill="#A35BFB"/>
<path d="M112.755 71.8906C111.797 77.3183 113.394 83.0653 116.906 87.2159C111.478 86.258 105.731 87.8545 101.58 91.3665C102.538 85.9388 100.942 80.1918 97.4297 76.0412C102.857 76.999 108.604 75.4027 112.755 71.8906Z" fill="#A35BFB"/>
</svg>
