<svg width="360" height="509" viewBox="0 0 360 509" fill="none" xmlns="http://www.w3.org/2000/svg">
<rect width="360" height="509" rx="180" fill="#A35BFB"/>
<path d="M258.138 294.978C271.928 294.978 283.089 306.151 283.089 319.909C283.089 333.688 271.907 344.841 258.138 344.841C244.347 344.841 233.187 333.668 233.187 319.909C233.187 306.13 244.368 294.978 258.138 294.978Z" fill="#FFD007" stroke="black" stroke-width="0.611888"/>
<path d="M101.659 73.5947C115.45 73.5948 126.61 84.7678 126.61 98.5264C126.61 112.306 115.429 123.458 101.659 123.458C87.8687 123.458 76.708 112.285 76.708 98.5264C76.7081 84.7471 87.8894 73.5947 101.659 73.5947Z" fill="#DF0586" stroke="black" stroke-width="0.611888"/>
<path d="M179.386 119.92C196.478 119.522 212.342 119.71 226.039 120.108C226.641 122.414 227.17 125.369 227.218 128.785C227.266 132.557 226.689 135.785 226.039 138.258C210.608 138.153 195.178 138.048 179.747 137.943C178.231 137.943 176.161 138.048 173.729 138.404C171.755 138.698 169.372 139.075 166.989 140.039C161.693 142.219 159.069 146.305 157.818 148.254C157.264 149.114 155.675 151.754 154.857 155.527C154.592 156.721 153.46 162.506 156.301 169.38C157.505 172.272 158.732 175.269 162.054 177.909C166.339 181.305 171.707 182.227 174.716 182.751C175.511 182.897 177.1 183.044 180.277 183.379C186.729 184.029 188.317 184.008 190.676 184.302C196.839 185.056 201.437 187.11 203.507 188.053C205.625 189.017 211.018 191.7 216.025 196.813C223.006 203.981 224.907 211.525 225.991 216.115C226.737 219.322 228.061 225.127 226.592 232.588C225.317 239.106 222.548 243.612 221.922 244.639C216.073 253.944 207.214 258.303 204.325 259.686C201.894 260.839 197.176 263.06 190.7 263.941C188.414 264.255 185.164 264.464 178.712 264.905C173.128 265.282 172.598 265.24 171.081 265.617C165.497 267 162.006 270.249 161.019 271.192C156.831 275.195 155.819 279.512 155.025 282.886C154.255 286.177 152.907 291.814 155.94 297.85C156.325 298.625 157.721 301.245 160.61 303.865C165.184 308.014 170.311 309.272 171.298 309.502C173.994 310.131 176.137 310.131 176.883 310.131C186.464 310.131 227.772 310.257 281.405 310.341C282.296 312.122 283.668 315.391 283.596 319.625C283.524 323.523 282.296 326.562 281.405 328.28C246.476 328.218 211.571 328.134 176.642 328.071C172.718 328.029 164.534 327.505 155.795 323.209C153.292 321.993 145.974 318.116 140.269 310.32C139.041 308.622 133.552 300.847 133.24 289.635C132.951 279.114 137.38 271.506 139.306 268.321C141.015 265.47 143.518 261.321 148.526 257.339C159.334 248.746 173.753 247.321 177.148 246.986C181.673 246.546 184.201 246.797 189.039 245.498C192.747 244.513 197.994 243.109 201.894 239.378C209.862 231.75 206.396 219.95 205.77 217.834C204.903 214.858 203.026 208.487 196.55 204.735C192.313 202.283 187.354 201.696 184.658 201.361C180.903 200.9 178.857 201.172 176.161 201.151C168.145 201.089 161.91 198.469 158.227 196.939C148.55 192.894 138.198 183.61 134.467 170.973C128.786 151.796 141.833 136.833 144.409 134.024C146.287 131.97 150.861 127.129 158.708 123.671C166.628 120.192 173.826 119.962 179.435 119.836L179.386 119.92Z" fill="#DF0586"/>
<path d="M79.2312 88.7788C78.2895 90.2248 76.8648 92.8654 76.5268 96.3652C76.0922 101.039 77.8548 104.601 78.7482 106.173C112.143 106.278 145.537 106.383 178.955 106.466C181.322 106.445 184.75 106.613 188.71 107.64C190.787 108.185 194.385 109.107 197.838 111.433C204.599 116.023 206.096 122.897 206.506 124.762C208.027 131.741 205.492 137.336 204.357 139.474C203.729 141.045 202.546 143.33 200.252 145.509C195.52 150.036 189.435 151 187.407 151.231C184.195 151.251 179.921 151.461 174.923 152.153C171.542 152.635 166.906 153.284 161.884 154.94C158.841 155.946 150.873 158.691 144.209 165.314C136.844 172.649 135.202 180.654 134.405 184.825C133.85 187.696 131.798 200.249 139.766 213.158C141.722 216.323 144.837 221.227 151.187 225.397C158.431 230.134 167.22 232.187 172.967 232.523C173.909 232.585 176.203 232.669 179.559 232.984C182.964 233.298 186.151 233.612 188.976 234.262C190.208 234.555 195.978 235.876 200.277 239.48C209.356 247.088 206.144 260.039 205.758 261.485C205.082 264.042 203.85 268.443 199.383 272.32C194.168 276.847 187.889 277.79 185.644 278.041C168.572 278.146 151.477 278.23 134.405 278.335C133.729 280.64 133.126 283.595 133.005 287.074C132.884 290.657 133.343 293.717 133.898 296.085C159.614 295.75 170.963 295.896 176.179 296.169C177.072 296.211 180.018 296.378 183.954 296.169C186.272 296.043 190.739 295.771 195.882 294.45C198.876 293.675 205.275 291.978 211.529 287.346C217.131 283.197 219.859 278.754 221.694 275.694C226.693 267.353 227.369 259.767 227.489 256.791C227.61 253.752 227.827 247.255 224.302 239.69C223.36 237.678 217.758 226.089 204.647 220.368C202.305 219.341 200.156 218.691 198.417 218.167C193.371 216.637 190.111 216.239 180.066 214.751C168.452 213.054 166.906 212.718 164.685 211.461C160.411 209.009 158.262 205.698 157.272 204.168C153.94 198.908 154.012 193.983 154.085 191.175C154.157 188.408 154.23 185.055 156.451 181.241C159.276 176.337 163.816 173.843 165.699 172.921C168.959 171.349 171.856 170.951 177.651 170.155C184.171 169.254 184.726 169.882 189.773 169.128C197.838 167.933 203.464 165.272 204.575 164.748C211.239 161.541 215.271 157.601 216.696 156.134C223.554 149.03 225.34 141.548 226.282 137.294C227.658 131.196 227.32 126.166 226.958 123.274C226.693 121.22 226.258 117.93 224.592 113.927C221.139 105.586 215.054 100.473 212.808 98.7333C211.336 97.6017 205.685 93.3474 196.655 90.8535C191.391 89.3865 186.779 89.0093 183.519 88.9464C148.748 88.8836 114.002 88.8207 79.2312 88.7578V88.7788Z" fill="#FFD007"/>
<path d="M226.364 137.838C218.757 137.838 211.126 137.838 203.52 137.838V120.276L226.436 120.234C227.038 122.549 227.543 125.524 227.543 128.995C227.543 132.508 226.99 135.504 226.364 137.838Z" fill="#DF0586"/>
<path d="M206.064 219.924C206.642 221.867 207.389 225.42 206.353 229.684C204.932 235.64 200.933 239.402 199.246 240.802C200.547 242.683 202.137 245.526 203.101 249.183C204.209 253.468 203.968 257.125 203.583 259.466C207.678 257.94 213.653 254.993 218.375 249.539C223.169 243.979 224.639 238.211 225.868 233.279C226.759 229.788 226.928 226.8 226.952 226.34C227.072 224.25 226.976 222.452 226.855 221.115C219.483 219.317 212.111 217.52 204.739 215.723C205.173 217.123 205.582 218.523 206.016 219.924H206.064Z" fill="#DF0586"/>
<rect x="26.0934" y="36.279" width="306.833" height="434.239" rx="153.417" stroke="#FFD007" stroke-width="1.19857"/>
<path d="M159.231 382.814V378.359C159.231 377.719 159.254 377.057 159.3 376.372C159.368 375.663 159.448 374.955 159.539 374.247C159.654 373.516 159.756 372.819 159.848 372.157H159.539C159.334 373.55 158.968 374.693 158.443 375.583C157.918 376.474 157.255 377.137 156.456 377.571C155.679 378.005 154.777 378.222 153.749 378.222C152.492 378.222 151.361 377.891 150.356 377.228C149.351 376.543 148.552 375.492 147.958 374.076C147.387 372.659 147.101 370.843 147.101 368.628C147.101 366.572 147.352 364.847 147.855 363.453C148.38 362.037 149.134 360.975 150.116 360.267C151.122 359.536 152.332 359.17 153.749 359.17C154.868 359.17 155.816 359.399 156.593 359.855C157.392 360.29 158.043 360.963 158.546 361.877C159.048 362.768 159.425 363.887 159.677 365.235H159.882V359.65H164.782V366.058V382.814H159.231ZM155.839 373.665C156.159 373.665 156.478 373.619 156.798 373.528C157.118 373.413 157.426 373.242 157.723 373.014C158.02 372.785 158.283 372.5 158.511 372.157C158.763 371.791 158.957 371.357 159.094 370.855C159.231 370.329 159.3 369.724 159.3 369.039V368.833C159.3 367.965 159.197 367.223 158.991 366.606C158.808 365.989 158.557 365.486 158.237 365.098C157.918 364.687 157.552 364.39 157.141 364.207C156.73 364.002 156.307 363.899 155.873 363.899C155.188 363.899 154.605 364.127 154.125 364.584C153.669 365.018 153.315 365.612 153.063 366.366C152.835 367.097 152.721 367.919 152.721 368.833C152.721 369.655 152.823 370.444 153.029 371.197C153.257 371.928 153.6 372.522 154.057 372.979C154.514 373.436 155.108 373.665 155.839 373.665ZM172.876 378.222C170.912 378.222 169.45 377.537 168.49 376.166C167.554 374.795 167.085 372.694 167.085 369.861V359.65H172.636V369.793C172.636 371.117 172.819 372.043 173.185 372.568C173.573 373.093 174.121 373.356 174.829 373.356C175.332 373.356 175.789 373.231 176.2 372.979C176.634 372.705 177.011 372.305 177.331 371.78C177.651 371.232 177.891 370.535 178.05 369.69C178.233 368.845 178.325 367.828 178.325 366.64V359.65H183.876V369.587V377.742H179.147V370.683H178.907C178.77 372.442 178.462 373.882 177.982 375.001C177.502 376.097 176.84 376.908 175.995 377.434C175.149 377.959 174.11 378.222 172.876 378.222ZM186.33 377.742V359.65H191.881V377.742H186.33ZM189.072 358.348C188.021 358.348 187.21 358.131 186.639 357.697C186.091 357.24 185.816 356.589 185.816 355.744C185.816 354.876 186.091 354.224 186.639 353.79C187.21 353.334 188.021 353.105 189.072 353.105C190.145 353.105 190.956 353.334 191.505 353.79C192.076 354.247 192.361 354.898 192.361 355.744C192.361 356.566 192.076 357.206 191.505 357.662C190.956 358.119 190.145 358.348 189.072 358.348ZM193.813 377.742V373.082L202.414 364.31V364.104H193.985V359.65H208.89V364.344L200.289 373.151V373.288H208.993V377.742H193.813Z" fill="white"/>
<path d="M103.597 412.342V410.257C103.597 410.002 103.612 409.743 103.641 409.478C103.67 409.204 103.709 408.925 103.758 408.641C103.807 408.357 103.851 408.083 103.891 407.819H103.641C103.514 408.24 103.342 408.627 103.127 408.979C102.921 409.331 102.647 409.611 102.305 409.816C101.962 410.022 101.526 410.125 100.998 410.125C100.332 410.125 99.7689 409.953 99.3088 409.611C98.8584 409.258 98.5157 408.783 98.2808 408.186C98.0556 407.579 97.943 406.899 97.943 406.145C97.943 405.362 98.0605 404.666 98.2955 404.059C98.5402 403.452 98.8976 402.978 99.3675 402.635C99.8472 402.283 100.425 402.106 101.1 402.106C101.59 402.106 102.006 402.199 102.349 402.385C102.691 402.562 102.965 402.816 103.171 403.149C103.386 403.482 103.538 403.873 103.626 404.324H103.891L103.817 402.312H105.212V406.101V412.342H103.597ZM101.497 408.788C101.781 408.788 102.035 408.734 102.26 408.627C102.486 408.509 102.681 408.357 102.848 408.171C103.024 407.985 103.166 407.78 103.274 407.555C103.391 407.329 103.474 407.104 103.523 406.879C103.582 406.644 103.612 406.429 103.612 406.233V406.013C103.612 405.729 103.563 405.44 103.465 405.146C103.377 404.843 103.244 404.569 103.068 404.324C102.892 404.069 102.672 403.864 102.407 403.707C102.143 403.55 101.84 403.472 101.497 403.472C101.105 403.472 100.767 403.585 100.484 403.81C100.2 404.025 99.9794 404.329 99.8227 404.72C99.6759 405.112 99.6025 405.577 99.6025 406.115C99.6025 406.634 99.6759 407.094 99.8227 407.496C99.9696 407.897 100.18 408.215 100.454 408.45C100.738 408.676 101.086 408.788 101.497 408.788ZM109.9 410.125C109.038 410.125 108.387 409.831 107.946 409.243C107.506 408.646 107.286 407.75 107.286 406.556V402.297H108.886V406.38C108.886 407.183 109.009 407.78 109.253 408.171C109.498 408.563 109.885 408.759 110.414 408.759C110.707 408.759 110.967 408.685 111.192 408.538C111.417 408.392 111.613 408.186 111.779 407.922C111.956 407.657 112.093 407.349 112.191 406.997C112.298 406.634 112.372 406.238 112.411 405.807V402.297H113.997V406.762V409.934H112.646L112.719 407.511H112.47C112.342 408.118 112.161 408.617 111.926 409.008C111.701 409.39 111.417 409.674 111.074 409.86C110.742 410.036 110.35 410.125 109.9 410.125ZM116.194 409.934V402.297H117.78V409.934H116.194ZM116.987 401.02C116.645 401.02 116.385 400.951 116.209 400.814C116.033 400.667 115.945 400.452 115.945 400.168C115.945 399.894 116.033 399.683 116.209 399.536C116.385 399.39 116.645 399.316 116.987 399.316C117.34 399.316 117.604 399.39 117.78 399.536C117.956 399.683 118.045 399.894 118.045 400.168C118.045 400.452 117.956 400.667 117.78 400.814C117.604 400.951 117.34 401.02 116.987 401.02ZM123.343 410.125C122.687 410.125 122.119 410.022 121.639 409.816C121.169 409.611 120.783 409.327 120.479 408.964C120.176 408.602 119.951 408.186 119.804 407.716C119.657 407.246 119.583 406.742 119.583 406.204C119.583 405.626 119.662 405.092 119.818 404.603C119.975 404.104 120.205 403.668 120.509 403.296C120.822 402.914 121.209 402.62 121.669 402.415C122.129 402.209 122.662 402.106 123.269 402.106C123.867 402.106 124.386 402.209 124.826 402.415C125.276 402.611 125.644 402.894 125.927 403.266C126.211 403.629 126.397 404.055 126.486 404.544L124.988 404.999C124.958 404.715 124.875 404.451 124.738 404.206C124.601 403.962 124.405 403.771 124.151 403.634C123.896 403.487 123.588 403.413 123.225 403.413C122.883 403.413 122.584 403.482 122.33 403.619C122.075 403.746 121.865 403.937 121.698 404.192C121.532 404.436 121.404 404.725 121.316 405.058C121.238 405.391 121.199 405.758 121.199 406.159C121.199 406.708 121.272 407.187 121.419 407.599C121.576 408 121.816 408.313 122.139 408.538C122.462 408.754 122.868 408.862 123.358 408.862C123.769 408.862 124.107 408.788 124.371 408.641C124.635 408.494 124.841 408.299 124.988 408.054C125.134 407.799 125.232 407.506 125.281 407.173L126.706 407.511C126.647 407.912 126.53 408.279 126.353 408.612C126.177 408.935 125.947 409.209 125.663 409.434C125.379 409.659 125.041 409.831 124.65 409.948C124.268 410.066 123.832 410.125 123.343 410.125ZM128.14 409.934V399.566H129.712V405.425C130.074 405.229 130.417 405.004 130.74 404.75C131.073 404.485 131.376 404.211 131.65 403.927C131.934 403.643 132.179 403.364 132.384 403.09C132.6 402.806 132.766 402.542 132.884 402.297H134.734C134.558 402.669 134.333 403.041 134.059 403.413C133.794 403.776 133.491 404.118 133.148 404.441C132.805 404.755 132.428 405.029 132.017 405.264C131.616 405.489 131.195 405.645 130.754 405.734V405.925C131.303 405.866 131.773 405.91 132.164 406.057C132.556 406.204 132.894 406.424 133.177 406.718C133.461 407.011 133.711 407.354 133.926 407.745C134.152 408.127 134.362 408.519 134.558 408.92L134.969 409.934H133.207L132.913 409.243C132.698 408.744 132.468 408.304 132.223 407.922C131.988 407.53 131.704 407.222 131.371 406.997C131.048 406.771 130.647 406.659 130.167 406.659H129.712V409.934H128.14ZM135.616 411.916C135.792 411.466 135.914 411.055 135.983 410.683C136.061 410.311 136.105 409.953 136.115 409.611C136.135 409.258 136.144 408.901 136.144 408.538H137.642C137.642 409.097 137.608 409.586 137.539 410.007C137.471 410.428 137.378 410.795 137.26 411.108C137.143 411.422 137.025 411.691 136.908 411.916H135.616ZM143.327 409.934V404.72H142.006V403.487L143.959 403.59V403.325C143.685 403.237 143.455 403.11 143.269 402.943C143.092 402.767 142.955 402.566 142.857 402.341C142.769 402.106 142.725 401.857 142.725 401.592C142.725 401.181 142.823 400.824 143.019 400.52C143.215 400.207 143.489 399.967 143.841 399.801C144.204 399.625 144.625 399.536 145.104 399.536C145.506 399.536 145.868 399.59 146.191 399.698C146.514 399.796 146.778 399.928 146.984 400.094L146.837 401.563C146.632 401.397 146.392 401.259 146.118 401.152C145.843 401.044 145.574 400.99 145.31 400.99C144.997 400.99 144.737 401.088 144.532 401.284C144.336 401.47 144.238 401.764 144.238 402.165C144.238 402.41 144.277 402.615 144.355 402.782C144.434 402.948 144.536 403.085 144.664 403.193C144.791 403.291 144.918 403.369 145.046 403.428H146.881V404.72H144.884V409.934H143.327ZM150.801 410.125C149.939 410.125 149.288 409.831 148.847 409.243C148.407 408.646 148.187 407.75 148.187 406.556V402.297H149.787V406.38C149.787 407.183 149.91 407.78 150.154 408.171C150.399 408.563 150.786 408.759 151.314 408.759C151.608 408.759 151.868 408.685 152.093 408.538C152.318 408.392 152.514 408.186 152.68 407.922C152.856 407.657 152.994 407.349 153.091 406.997C153.199 406.634 153.273 406.238 153.312 405.807V402.297H154.898V406.762V409.934H153.547L153.62 407.511H153.37C153.243 408.118 153.062 408.617 152.827 409.008C152.602 409.39 152.318 409.674 151.975 409.86C151.642 410.036 151.251 410.125 150.801 410.125ZM157.095 409.934V405.234V402.297H158.476L158.387 404.676H158.637C158.774 404.089 158.955 403.609 159.18 403.237C159.415 402.855 159.709 402.571 160.062 402.385C160.424 402.199 160.845 402.106 161.324 402.106C162.176 402.106 162.822 402.41 163.263 403.017C163.713 403.624 163.938 404.549 163.938 405.792V409.934H162.323V405.954C162.323 405.102 162.196 404.48 161.941 404.089C161.687 403.687 161.305 403.487 160.796 403.487C160.355 403.487 159.978 403.629 159.665 403.913C159.362 404.187 159.127 404.549 158.96 404.999C158.794 405.45 158.701 405.939 158.681 406.468V409.934H157.095ZM164.958 411.916C165.134 411.466 165.256 411.055 165.325 410.683C165.403 410.311 165.447 409.953 165.457 409.611C165.476 409.258 165.486 408.901 165.486 408.538H166.984C166.984 409.097 166.95 409.586 166.881 410.007C166.813 410.428 166.72 410.795 166.602 411.108C166.485 411.422 166.367 411.691 166.25 411.916H164.958ZM172.067 409.934V405.249V399.58H173.683V401.959C173.683 402.165 173.678 402.38 173.668 402.606C173.658 402.821 173.639 403.041 173.609 403.266C173.58 403.492 173.55 403.717 173.521 403.942C173.492 404.167 173.457 404.397 173.418 404.632H173.683C173.829 404.084 174.011 403.624 174.226 403.252C174.451 402.87 174.73 402.586 175.063 402.4C175.406 402.204 175.817 402.106 176.297 402.106C177.178 402.106 177.834 402.415 178.264 403.031C178.695 403.638 178.911 404.554 178.911 405.778V409.934H177.295V405.983C177.295 405.122 177.163 404.49 176.899 404.089C176.644 403.687 176.257 403.487 175.739 403.487C175.308 403.487 174.946 403.614 174.652 403.869C174.368 404.123 174.143 404.466 173.976 404.897C173.81 405.327 173.702 405.817 173.653 406.365V409.934H172.067ZM181.002 409.934V402.297H182.588V409.934H181.002ZM181.795 401.02C181.452 401.02 181.193 400.951 181.016 400.814C180.84 400.667 180.752 400.452 180.752 400.168C180.752 399.894 180.84 399.683 181.016 399.536C181.193 399.39 181.452 399.316 181.795 399.316C182.147 399.316 182.412 399.39 182.588 399.536C182.764 399.683 182.852 399.894 182.852 400.168C182.852 400.452 182.764 400.667 182.588 400.814C182.412 400.951 182.147 401.02 181.795 401.02ZM187.71 412.548C186.887 412.548 186.212 412.484 185.683 412.357C185.164 412.229 184.783 412.038 184.538 411.784C184.293 411.529 184.171 411.216 184.171 410.844C184.171 410.394 184.347 410.027 184.699 409.743C185.052 409.449 185.585 409.263 186.3 409.185V408.891C185.771 408.901 185.37 408.847 185.096 408.729C184.832 408.602 184.699 408.406 184.699 408.142C184.699 407.868 184.832 407.638 185.096 407.452C185.37 407.256 185.811 407.085 186.418 406.938V406.659C185.82 406.639 185.36 406.453 185.037 406.101C184.714 405.748 184.553 405.298 184.553 404.75C184.553 404.25 184.685 403.815 184.949 403.443C185.223 403.061 185.62 402.767 186.139 402.562C186.667 402.346 187.304 402.238 188.048 402.238H191.734V403.531L189.369 403.178V403.472C189.957 403.58 190.397 403.766 190.691 404.03C190.985 404.294 191.132 404.652 191.132 405.102C191.132 405.504 191.004 405.861 190.75 406.174C190.505 406.487 190.143 406.732 189.663 406.908C189.183 407.075 188.596 407.158 187.901 407.158C187.774 407.158 187.636 407.153 187.49 407.143C187.343 407.134 187.127 407.109 186.843 407.07C186.608 407.217 186.418 407.354 186.271 407.481C186.134 407.608 186.065 407.721 186.065 407.819C186.065 407.917 186.124 407.995 186.241 408.054C186.369 408.113 186.525 408.152 186.711 408.171C186.897 408.191 187.074 408.201 187.24 408.201H189.12C189.315 408.201 189.565 408.22 189.869 408.259C190.172 408.289 190.476 408.367 190.779 408.494C191.083 408.622 191.337 408.822 191.543 409.097C191.748 409.361 191.851 409.733 191.851 410.213C191.851 410.761 191.694 411.206 191.381 411.549C191.068 411.892 190.603 412.141 189.986 412.298C189.369 412.464 188.611 412.548 187.71 412.548ZM187.813 411.241C188.439 411.241 188.943 411.201 189.325 411.123C189.707 411.055 189.986 410.937 190.162 410.771C190.339 410.604 190.427 410.394 190.427 410.139C190.427 409.904 190.368 409.723 190.25 409.596C190.133 409.459 189.986 409.366 189.81 409.317C189.643 409.258 189.472 409.224 189.296 409.214C189.12 409.204 188.968 409.199 188.841 409.199H187.093C186.574 409.287 186.212 409.439 186.006 409.655C185.801 409.86 185.698 410.09 185.698 410.345C185.698 410.59 185.786 410.776 185.962 410.903C186.139 411.04 186.383 411.128 186.697 411.167C187.02 411.216 187.392 411.241 187.813 411.241ZM187.915 406.218C188.483 406.218 188.909 406.096 189.193 405.851C189.487 405.597 189.634 405.264 189.634 404.852C189.634 404.412 189.487 404.055 189.193 403.78C188.899 403.497 188.464 403.355 187.886 403.355C187.318 403.355 186.883 403.492 186.579 403.766C186.285 404.04 186.139 404.387 186.139 404.808C186.139 405.092 186.207 405.342 186.344 405.557C186.481 405.763 186.677 405.925 186.932 406.042C187.196 406.159 187.524 406.218 187.915 406.218ZM193.436 409.934V405.249V399.58H195.051V401.959C195.051 402.165 195.046 402.38 195.036 402.606C195.026 402.821 195.007 403.041 194.977 403.266C194.948 403.492 194.919 403.717 194.889 403.942C194.86 404.167 194.826 404.397 194.787 404.632H195.051C195.198 404.084 195.379 403.624 195.594 403.252C195.819 402.87 196.098 402.586 196.431 402.4C196.774 402.204 197.185 402.106 197.665 402.106C198.546 402.106 199.202 402.415 199.633 403.031C200.064 403.638 200.279 404.554 200.279 405.778V409.934H198.664V405.983C198.664 405.122 198.531 404.49 198.267 404.089C198.012 403.687 197.626 403.487 197.107 403.487C196.676 403.487 196.314 403.614 196.02 403.869C195.736 404.123 195.511 404.466 195.345 404.897C195.178 405.327 195.071 405.817 195.022 406.365V409.934H193.436ZM201.825 406.747V405.308H205.848V406.747H201.825ZM207.432 409.934V399.58H209.004V409.934H207.432ZM214.567 410.125C213.96 410.125 213.422 410.036 212.952 409.86C212.482 409.674 212.085 409.415 211.762 409.082C211.439 408.739 211.194 408.333 211.028 407.863C210.862 407.383 210.778 406.845 210.778 406.248C210.778 405.65 210.862 405.102 211.028 404.603C211.194 404.094 211.429 403.653 211.733 403.281C212.046 402.909 212.428 402.62 212.878 402.415C213.338 402.209 213.857 402.106 214.435 402.106C214.973 402.106 215.453 402.194 215.874 402.371C216.305 402.547 216.667 402.816 216.961 403.178C217.255 403.531 217.475 403.976 217.622 404.515C217.769 405.043 217.822 405.665 217.783 406.38L211.806 406.424V405.425L216.843 405.381L216.285 405.998C216.344 405.411 216.295 404.926 216.138 404.544C215.982 404.162 215.757 403.878 215.463 403.692C215.169 403.506 214.831 403.413 214.45 403.413C214.019 403.413 213.642 403.526 213.319 403.751C213.006 403.966 212.761 404.285 212.585 404.706C212.408 405.127 212.32 405.631 212.32 406.218C212.32 407.099 212.516 407.765 212.908 408.215C213.299 408.656 213.857 408.876 214.582 408.876C214.885 408.876 215.145 408.842 215.36 408.773C215.576 408.695 215.757 408.597 215.903 408.48C216.05 408.352 216.168 408.206 216.256 408.039C216.354 407.863 216.432 407.682 216.491 407.496L217.886 407.819C217.798 408.181 217.661 408.504 217.475 408.788C217.299 409.062 217.073 409.302 216.799 409.508C216.525 409.704 216.202 409.855 215.83 409.963C215.468 410.071 215.047 410.125 214.567 410.125ZM221.385 410.125C220.964 410.125 220.587 410.046 220.254 409.89C219.921 409.723 219.657 409.478 219.461 409.155C219.275 408.832 219.182 408.431 219.182 407.951C219.182 407.569 219.25 407.241 219.387 406.967C219.534 406.683 219.75 406.448 220.034 406.262C220.327 406.066 220.699 405.91 221.15 405.792C221.6 405.665 222.134 405.557 222.75 405.469C223.093 405.42 223.372 405.371 223.587 405.322C223.813 405.273 223.974 405.195 224.072 405.087C224.18 404.98 224.234 404.818 224.234 404.603C224.234 404.27 224.116 403.986 223.881 403.751C223.656 403.506 223.289 403.384 222.78 403.384C222.496 403.384 222.212 403.433 221.928 403.531C221.654 403.629 221.414 403.79 221.208 404.015C221.013 404.231 220.88 404.525 220.812 404.897L219.373 404.441C219.461 404.069 219.603 403.741 219.799 403.457C219.994 403.164 220.239 402.919 220.533 402.723C220.827 402.518 221.164 402.366 221.546 402.268C221.938 402.16 222.364 402.106 222.824 402.106C223.499 402.106 224.057 402.219 224.498 402.444C224.939 402.669 225.266 403.017 225.482 403.487C225.707 403.947 225.82 404.539 225.82 405.264V406.82C225.82 407.143 225.825 407.486 225.834 407.848C225.854 408.201 225.873 408.558 225.893 408.92C225.922 409.273 225.957 409.611 225.996 409.934H224.542C224.513 409.64 224.483 409.336 224.454 409.023C224.434 408.71 224.415 408.392 224.395 408.069H224.175C224.038 408.441 223.842 408.783 223.587 409.097C223.343 409.41 223.034 409.659 222.662 409.845C222.3 410.031 221.874 410.125 221.385 410.125ZM221.943 408.891C222.148 408.891 222.354 408.857 222.559 408.788C222.775 408.72 222.985 408.617 223.191 408.48C223.406 408.333 223.602 408.147 223.778 407.922C223.964 407.697 224.126 407.427 224.263 407.114L224.248 405.734L224.63 405.807C224.464 405.954 224.253 406.066 223.999 406.145C223.754 406.223 223.485 406.287 223.191 406.336C222.897 406.375 222.604 406.424 222.31 406.483C222.026 406.531 221.762 406.605 221.517 406.703C221.282 406.791 221.091 406.918 220.944 407.085C220.807 407.251 220.739 407.481 220.739 407.775C220.739 408.137 220.851 408.416 221.076 408.612C221.301 408.798 221.59 408.891 221.943 408.891ZM227.955 409.934V405.954V402.297H229.335L229.262 404.941H229.511C229.599 404.343 229.736 403.834 229.922 403.413C230.108 402.992 230.363 402.674 230.686 402.459C231.009 402.234 231.411 402.121 231.89 402.121C231.988 402.121 232.096 402.126 232.213 402.136C232.331 402.145 232.463 402.175 232.61 402.224L232.536 403.898C232.39 403.839 232.238 403.8 232.081 403.78C231.925 403.751 231.783 403.736 231.655 403.736C231.264 403.736 230.931 403.849 230.657 404.074C230.383 404.29 230.153 404.593 229.967 404.985C229.79 405.366 229.653 405.812 229.555 406.321V409.934H227.955ZM233.992 409.934V405.234V402.297H235.373L235.285 404.676H235.534C235.671 404.089 235.852 403.609 236.078 403.237C236.313 402.855 236.606 402.571 236.959 402.385C237.321 402.199 237.742 402.106 238.222 402.106C239.073 402.106 239.72 402.41 240.16 403.017C240.61 403.624 240.836 404.549 240.836 405.792V409.934H239.22V405.954C239.22 405.102 239.093 404.48 238.838 404.089C238.584 403.687 238.202 403.487 237.693 403.487C237.252 403.487 236.875 403.629 236.562 403.913C236.259 404.187 236.024 404.549 235.857 404.999C235.691 405.45 235.598 405.939 235.578 406.468V409.934H233.992ZM242.927 409.934V402.297H244.513V409.934H242.927ZM243.72 401.02C243.377 401.02 243.118 400.951 242.941 400.814C242.765 400.667 242.677 400.452 242.677 400.168C242.677 399.894 242.765 399.683 242.941 399.536C243.118 399.39 243.377 399.316 243.72 399.316C244.072 399.316 244.337 399.39 244.513 399.536C244.689 399.683 244.777 399.894 244.777 400.168C244.777 400.452 244.689 400.667 244.513 400.814C244.337 400.951 244.072 401.02 243.72 401.02ZM246.727 409.934V405.234V402.297H248.108L248.019 404.676H248.269C248.406 404.089 248.587 403.609 248.812 403.237C249.047 402.855 249.341 402.571 249.694 402.385C250.056 402.199 250.477 402.106 250.957 402.106C251.808 402.106 252.454 402.41 252.895 403.017C253.345 403.624 253.571 404.549 253.571 405.792V409.934H251.955V405.954C251.955 405.102 251.828 404.48 251.573 404.089C251.319 403.687 250.937 403.487 250.428 403.487C249.987 403.487 249.61 403.629 249.297 403.913C248.994 404.187 248.759 404.549 248.592 404.999C248.426 405.45 248.333 405.939 248.313 406.468V409.934H246.727ZM258.569 412.548C257.747 412.548 257.071 412.484 256.543 412.357C256.024 412.229 255.642 412.038 255.397 411.784C255.153 411.529 255.03 411.216 255.03 410.844C255.03 410.394 255.206 410.027 255.559 409.743C255.911 409.449 256.445 409.263 257.16 409.185V408.891C256.631 408.901 256.23 408.847 255.955 408.729C255.691 408.602 255.559 408.406 255.559 408.142C255.559 407.868 255.691 407.638 255.955 407.452C256.23 407.256 256.67 407.085 257.277 406.938V406.659C256.68 406.639 256.22 406.453 255.897 406.101C255.574 405.748 255.412 405.298 255.412 404.75C255.412 404.25 255.544 403.815 255.809 403.443C256.083 403.061 256.479 402.767 256.998 402.562C257.527 402.346 258.163 402.238 258.907 402.238H262.593V403.531L260.229 403.178V403.472C260.816 403.58 261.257 403.766 261.551 404.03C261.844 404.294 261.991 404.652 261.991 405.102C261.991 405.504 261.864 405.861 261.609 406.174C261.364 406.487 261.002 406.732 260.523 406.908C260.043 407.075 259.455 407.158 258.76 407.158C258.633 407.158 258.496 407.153 258.349 407.143C258.202 407.134 257.987 407.109 257.703 407.07C257.468 407.217 257.277 407.354 257.13 407.481C256.993 407.608 256.925 407.721 256.925 407.819C256.925 407.917 256.983 407.995 257.101 408.054C257.228 408.113 257.385 408.152 257.571 408.171C257.757 408.191 257.933 408.201 258.099 408.201H259.979C260.175 408.201 260.425 408.22 260.728 408.259C261.032 408.289 261.335 408.367 261.639 408.494C261.942 408.622 262.197 408.822 262.402 409.097C262.608 409.361 262.711 409.733 262.711 410.213C262.711 410.761 262.554 411.206 262.241 411.549C261.927 411.892 261.462 412.141 260.846 412.298C260.229 412.464 259.47 412.548 258.569 412.548ZM258.672 411.241C259.299 411.241 259.803 411.201 260.185 411.123C260.567 411.055 260.846 410.937 261.022 410.771C261.198 410.604 261.286 410.394 261.286 410.139C261.286 409.904 261.227 409.723 261.11 409.596C260.992 409.459 260.846 409.366 260.669 409.317C260.503 409.258 260.332 409.224 260.155 409.214C259.979 409.204 259.827 409.199 259.7 409.199H257.953C257.434 409.287 257.071 409.439 256.866 409.655C256.66 409.86 256.558 410.09 256.558 410.345C256.558 410.59 256.646 410.776 256.822 410.903C256.998 411.04 257.243 411.128 257.556 411.167C257.879 411.216 258.251 411.241 258.672 411.241ZM258.775 406.218C259.343 406.218 259.769 406.096 260.053 405.851C260.346 405.597 260.493 405.264 260.493 404.852C260.493 404.412 260.346 404.055 260.053 403.78C259.759 403.497 259.323 403.355 258.746 403.355C258.178 403.355 257.742 403.492 257.439 403.766C257.145 404.04 256.998 404.387 256.998 404.808C256.998 405.092 257.067 405.342 257.204 405.557C257.341 405.763 257.537 405.925 257.791 406.042C258.055 406.159 258.383 406.218 258.775 406.218ZM127.422 425.125C126.776 425.125 126.218 424.958 125.748 424.625C125.278 424.283 124.921 423.813 124.676 423.215C124.432 422.608 124.309 421.908 124.309 421.115C124.309 420.342 124.422 419.657 124.647 419.059C124.882 418.452 125.225 417.978 125.675 417.635C126.135 417.292 126.698 417.121 127.364 417.121C127.892 417.121 128.328 417.229 128.671 417.444C129.013 417.65 129.287 417.934 129.493 418.296C129.708 418.658 129.87 419.059 129.978 419.5H130.271C130.222 419.216 130.174 418.922 130.125 418.619C130.076 418.306 130.036 418.007 130.007 417.723C129.978 417.429 129.963 417.17 129.963 416.945V414.58H131.578V421.174V424.934H130.183L130.242 422.819H129.978C129.86 423.299 129.694 423.71 129.478 424.052C129.263 424.395 128.984 424.659 128.641 424.845C128.308 425.031 127.902 425.125 127.422 425.125ZM127.863 423.773C128.206 423.773 128.509 423.695 128.774 423.538C129.038 423.382 129.258 423.176 129.434 422.922C129.611 422.667 129.743 422.393 129.831 422.099C129.929 421.796 129.978 421.512 129.978 421.248V421.042C129.978 420.846 129.948 420.636 129.89 420.411C129.841 420.176 129.757 419.945 129.64 419.72C129.532 419.485 129.395 419.275 129.229 419.089C129.062 418.903 128.862 418.756 128.627 418.648C128.401 418.531 128.147 418.472 127.863 418.472C127.452 418.472 127.104 418.59 126.82 418.825C126.546 419.05 126.336 419.363 126.189 419.764C126.042 420.166 125.969 420.626 125.969 421.145C125.969 421.673 126.042 422.138 126.189 422.54C126.346 422.931 126.566 423.235 126.85 423.45C127.134 423.666 127.471 423.773 127.863 423.773ZM137.132 425.125C136.525 425.125 135.987 425.036 135.517 424.86C135.047 424.674 134.65 424.415 134.327 424.082C134.004 423.739 133.759 423.333 133.593 422.863C133.427 422.383 133.343 421.845 133.343 421.248C133.343 420.65 133.427 420.102 133.593 419.603C133.759 419.094 133.994 418.653 134.298 418.281C134.611 417.909 134.993 417.62 135.443 417.415C135.904 417.209 136.422 417.106 137 417.106C137.539 417.106 138.018 417.194 138.439 417.371C138.87 417.547 139.232 417.816 139.526 418.178C139.82 418.531 140.04 418.976 140.187 419.515C140.334 420.043 140.387 420.665 140.348 421.38L134.371 421.424V420.425L139.408 420.381L138.85 420.998C138.909 420.411 138.86 419.926 138.704 419.544C138.547 419.162 138.322 418.878 138.028 418.692C137.734 418.506 137.397 418.413 137.015 418.413C136.584 418.413 136.207 418.526 135.884 418.751C135.571 418.966 135.326 419.285 135.15 419.706C134.973 420.127 134.885 420.631 134.885 421.218C134.885 422.099 135.081 422.765 135.473 423.215C135.864 423.656 136.422 423.876 137.147 423.876C137.45 423.876 137.71 423.842 137.925 423.773C138.141 423.695 138.322 423.597 138.469 423.48C138.615 423.352 138.733 423.206 138.821 423.039C138.919 422.863 138.997 422.682 139.056 422.496L140.451 422.819C140.363 423.181 140.226 423.504 140.04 423.788C139.864 424.062 139.639 424.302 139.364 424.508C139.09 424.704 138.767 424.855 138.395 424.963C138.033 425.071 137.612 425.125 137.132 425.125ZM145.153 425.125C144.624 425.125 144.154 425.071 143.743 424.963C143.332 424.855 142.979 424.704 142.685 424.508C142.402 424.302 142.181 424.057 142.025 423.773C141.868 423.49 141.775 423.181 141.746 422.848L143.038 422.422C143.038 422.706 143.126 422.961 143.302 423.186C143.478 423.411 143.728 423.587 144.051 423.715C144.384 423.832 144.781 423.891 145.241 423.891C145.779 423.891 146.195 423.803 146.489 423.627C146.783 423.45 146.929 423.206 146.929 422.892C146.929 422.657 146.846 422.471 146.68 422.334C146.523 422.197 146.293 422.085 145.99 421.997C145.696 421.908 145.348 421.825 144.947 421.747C144.585 421.669 144.222 421.58 143.86 421.483C143.508 421.375 143.18 421.238 142.876 421.071C142.583 420.905 142.343 420.69 142.157 420.425C141.981 420.151 141.892 419.808 141.892 419.397C141.892 418.927 142.015 418.526 142.26 418.193C142.504 417.85 142.857 417.586 143.317 417.4C143.787 417.204 144.345 417.106 144.991 417.106C145.618 417.106 146.156 417.199 146.606 417.385C147.067 417.571 147.434 417.831 147.708 418.164C147.982 418.497 148.148 418.888 148.207 419.338L146.856 419.735C146.836 419.431 146.743 419.177 146.577 418.971C146.42 418.766 146.205 418.614 145.931 418.516C145.657 418.408 145.334 418.355 144.962 418.355C144.472 418.355 144.085 418.443 143.802 418.619C143.527 418.795 143.39 419.035 143.39 419.338C143.39 419.573 143.474 419.764 143.64 419.911C143.816 420.048 144.051 420.161 144.345 420.249C144.648 420.327 144.991 420.406 145.373 420.484C145.764 420.562 146.141 420.65 146.504 420.748C146.866 420.846 147.189 420.978 147.473 421.145C147.767 421.301 147.997 421.517 148.163 421.791C148.339 422.055 148.427 422.393 148.427 422.804C148.427 423.304 148.29 423.729 148.016 424.082C147.752 424.425 147.375 424.684 146.885 424.86C146.396 425.036 145.818 425.125 145.153 425.125ZM150.118 424.934V417.297H151.704V424.934H150.118ZM150.911 416.02C150.569 416.02 150.309 415.951 150.133 415.814C149.957 415.667 149.869 415.452 149.869 415.168C149.869 414.894 149.957 414.683 150.133 414.536C150.309 414.39 150.569 414.316 150.911 414.316C151.264 414.316 151.528 414.39 151.704 414.536C151.88 414.683 151.969 414.894 151.969 415.168C151.969 415.452 151.88 415.667 151.704 415.814C151.528 415.951 151.264 416.02 150.911 416.02ZM156.826 427.548C156.004 427.548 155.328 427.484 154.8 427.357C154.281 427.229 153.899 427.038 153.654 426.784C153.409 426.529 153.287 426.216 153.287 425.844C153.287 425.394 153.463 425.027 153.816 424.743C154.168 424.449 154.702 424.263 155.416 424.185V423.891C154.888 423.901 154.486 423.847 154.212 423.729C153.948 423.602 153.816 423.406 153.816 423.142C153.816 422.868 153.948 422.638 154.212 422.452C154.486 422.256 154.927 422.085 155.534 421.938V421.659C154.937 421.639 154.477 421.453 154.154 421.101C153.83 420.748 153.669 420.298 153.669 419.75C153.669 419.25 153.801 418.815 154.065 418.443C154.34 418.061 154.736 417.767 155.255 417.562C155.784 417.346 156.42 417.238 157.164 417.238H160.85V418.531L158.486 418.178V418.472C159.073 418.58 159.514 418.766 159.807 419.03C160.101 419.294 160.248 419.652 160.248 420.102C160.248 420.504 160.121 420.861 159.866 421.174C159.621 421.487 159.259 421.732 158.779 421.908C158.3 422.075 157.712 422.158 157.017 422.158C156.89 422.158 156.753 422.153 156.606 422.143C156.459 422.134 156.244 422.109 155.96 422.07C155.725 422.217 155.534 422.354 155.387 422.481C155.25 422.608 155.181 422.721 155.181 422.819C155.181 422.917 155.24 422.995 155.358 423.054C155.485 423.113 155.642 423.152 155.828 423.171C156.014 423.191 156.19 423.201 156.356 423.201H158.236C158.432 423.201 158.681 423.22 158.985 423.259C159.288 423.289 159.592 423.367 159.895 423.494C160.199 423.622 160.454 423.822 160.659 424.097C160.865 424.361 160.968 424.733 160.968 425.213C160.968 425.761 160.811 426.206 160.498 426.549C160.184 426.892 159.719 427.141 159.102 427.298C158.486 427.464 157.727 427.548 156.826 427.548ZM156.929 426.241C157.556 426.241 158.06 426.201 158.442 426.123C158.823 426.055 159.102 425.937 159.279 425.771C159.455 425.604 159.543 425.394 159.543 425.139C159.543 424.904 159.484 424.723 159.367 424.596C159.249 424.459 159.102 424.366 158.926 424.317C158.76 424.258 158.588 424.224 158.412 424.214C158.236 424.204 158.084 424.199 157.957 424.199H156.209C155.691 424.287 155.328 424.439 155.123 424.655C154.917 424.86 154.814 425.09 154.814 425.345C154.814 425.59 154.902 425.776 155.079 425.903C155.255 426.04 155.5 426.128 155.813 426.167C156.136 426.216 156.508 426.241 156.929 426.241ZM157.032 421.218C157.6 421.218 158.026 421.096 158.309 420.851C158.603 420.597 158.75 420.264 158.75 419.852C158.75 419.412 158.603 419.055 158.309 418.78C158.016 418.497 157.58 418.355 157.002 418.355C156.435 418.355 155.999 418.492 155.695 418.766C155.402 419.04 155.255 419.387 155.255 419.808C155.255 420.092 155.323 420.342 155.461 420.557C155.598 420.763 155.793 420.925 156.048 421.042C156.312 421.159 156.64 421.218 157.032 421.218ZM162.552 424.934V420.234V417.297H163.932L163.844 419.676H164.094C164.231 419.089 164.412 418.609 164.637 418.237C164.872 417.855 165.166 417.571 165.518 417.385C165.881 417.199 166.302 417.106 166.781 417.106C167.633 417.106 168.279 417.41 168.72 418.017C169.17 418.624 169.395 419.549 169.395 420.792V424.934H167.78V420.954C167.78 420.102 167.653 419.48 167.398 419.089C167.144 418.687 166.762 418.487 166.253 418.487C165.812 418.487 165.435 418.629 165.122 418.913C164.818 419.187 164.583 419.549 164.417 419.999C164.251 420.45 164.158 420.939 164.138 421.468V424.934H162.552ZM175.1 427.342V421.145V417.297H176.481L176.437 419.309L176.672 419.324C176.779 418.864 176.941 418.472 177.156 418.149C177.372 417.816 177.646 417.562 177.979 417.385C178.321 417.199 178.728 417.106 179.198 417.106C179.883 417.106 180.461 417.278 180.93 417.62C181.41 417.963 181.768 418.438 182.003 419.045C182.247 419.652 182.37 420.347 182.37 421.13C182.37 421.894 182.252 422.579 182.017 423.186C181.792 423.783 181.449 424.258 180.989 424.611C180.529 424.953 179.966 425.125 179.3 425.125C178.782 425.125 178.351 425.022 178.008 424.816C177.665 424.601 177.386 424.322 177.171 423.979C176.956 423.627 176.789 423.24 176.672 422.819H176.407C176.466 423.083 176.515 423.357 176.554 423.641C176.593 423.915 176.628 424.19 176.657 424.464C176.686 424.738 176.701 424.997 176.701 425.242V427.342H175.1ZM178.83 423.788C179.232 423.788 179.57 423.676 179.844 423.45C180.128 423.215 180.343 422.897 180.49 422.496C180.637 422.094 180.71 421.634 180.71 421.115C180.71 420.577 180.632 420.112 180.475 419.72C180.328 419.329 180.113 419.025 179.829 418.81C179.545 418.585 179.207 418.472 178.816 418.472C178.473 418.472 178.17 418.55 177.905 418.707C177.641 418.864 177.416 419.069 177.23 419.324C177.054 419.569 176.916 419.843 176.819 420.146C176.73 420.44 176.686 420.729 176.686 421.013V421.233C176.686 421.429 176.716 421.639 176.775 421.864C176.833 422.09 176.916 422.315 177.024 422.54C177.142 422.765 177.284 422.976 177.45 423.171C177.626 423.357 177.827 423.509 178.052 423.627C178.287 423.734 178.547 423.788 178.83 423.788ZM184.178 424.934V420.954V417.297H185.559L185.485 419.941H185.735C185.823 419.343 185.96 418.834 186.146 418.413C186.332 417.992 186.587 417.674 186.91 417.459C187.233 417.234 187.634 417.121 188.114 417.121C188.212 417.121 188.32 417.126 188.437 417.136C188.555 417.145 188.687 417.175 188.834 417.224L188.76 418.898C188.613 418.839 188.462 418.8 188.305 418.78C188.148 418.751 188.006 418.736 187.879 418.736C187.487 418.736 187.155 418.849 186.88 419.074C186.606 419.29 186.376 419.593 186.19 419.985C186.014 420.366 185.877 420.812 185.779 421.321V424.934H184.178ZM193.463 425.125C192.729 425.125 192.078 424.968 191.51 424.655C190.942 424.341 190.497 423.886 190.174 423.289C189.861 422.692 189.704 421.957 189.704 421.086C189.704 420.195 189.87 419.456 190.203 418.869C190.536 418.281 190.982 417.841 191.54 417.547C192.108 417.253 192.744 417.106 193.449 417.106C194.173 417.106 194.819 417.258 195.387 417.562C195.955 417.865 196.401 418.315 196.724 418.913C197.056 419.51 197.223 420.254 197.223 421.145C197.223 422.026 197.056 422.765 196.724 423.362C196.401 423.95 195.955 424.39 195.387 424.684C194.819 424.978 194.178 425.125 193.463 425.125ZM193.522 423.862C193.963 423.862 194.34 423.759 194.653 423.553C194.966 423.348 195.206 423.044 195.373 422.643C195.539 422.241 195.622 421.762 195.622 421.204C195.622 420.626 195.534 420.131 195.358 419.72C195.182 419.299 194.927 418.976 194.594 418.751C194.271 418.526 193.875 418.413 193.405 418.413C192.984 418.413 192.612 418.516 192.289 418.722C191.975 418.918 191.735 419.216 191.569 419.618C191.403 420.009 191.319 420.489 191.319 421.057C191.319 421.948 191.515 422.638 191.907 423.127C192.298 423.617 192.837 423.862 193.522 423.862ZM198.993 424.934V420.146V417.297H200.344L200.256 419.676H200.52C200.647 419.099 200.819 418.624 201.034 418.252C201.259 417.87 201.528 417.586 201.842 417.4C202.165 417.204 202.537 417.106 202.958 417.106C203.428 417.106 203.814 417.219 204.118 417.444C204.431 417.669 204.666 417.973 204.823 418.355C204.989 418.736 205.077 419.167 205.087 419.647H205.322C205.449 419.089 205.626 418.624 205.851 418.252C206.086 417.87 206.375 417.586 206.717 417.4C207.06 417.204 207.442 417.106 207.863 417.106C208.264 417.106 208.617 417.19 208.92 417.356C209.223 417.513 209.478 417.748 209.684 418.061C209.889 418.374 210.041 418.766 210.139 419.236C210.247 419.696 210.3 420.229 210.3 420.836V424.934H208.7V421.042C208.7 420.474 208.651 420.004 208.553 419.632C208.455 419.26 208.303 418.981 208.098 418.795C207.892 418.609 207.633 418.516 207.319 418.516C206.967 418.516 206.654 418.638 206.379 418.883C206.115 419.118 205.9 419.446 205.733 419.867C205.567 420.288 205.464 420.773 205.425 421.321V424.934H203.854V421.145C203.854 420.557 203.805 420.073 203.707 419.691C203.609 419.299 203.457 419.006 203.251 418.81C203.046 418.614 202.786 418.516 202.473 418.516C202.101 418.516 201.778 418.643 201.504 418.898C201.24 419.143 201.029 419.48 200.872 419.911C200.716 420.342 200.618 420.827 200.579 421.365V424.934H198.993ZM212.387 427.342V421.145V417.297H213.768L213.724 419.309L213.959 419.324C214.066 418.864 214.228 418.472 214.443 418.149C214.659 417.816 214.933 417.562 215.266 417.385C215.608 417.199 216.015 417.106 216.485 417.106C217.17 417.106 217.747 417.278 218.217 417.62C218.697 417.963 219.054 418.438 219.289 419.045C219.534 419.652 219.657 420.347 219.657 421.13C219.657 421.894 219.539 422.579 219.304 423.186C219.079 423.783 218.736 424.258 218.276 424.611C217.816 424.953 217.253 425.125 216.587 425.125C216.068 425.125 215.638 425.022 215.295 424.816C214.952 424.601 214.673 424.322 214.458 423.979C214.243 423.627 214.076 423.24 213.959 422.819H213.694C213.753 423.083 213.802 423.357 213.841 423.641C213.88 423.915 213.915 424.19 213.944 424.464C213.973 424.738 213.988 424.997 213.988 425.242V427.342H212.387ZM216.117 423.788C216.519 423.788 216.857 423.676 217.131 423.45C217.415 423.215 217.63 422.897 217.777 422.496C217.924 422.094 217.997 421.634 217.997 421.115C217.997 420.577 217.919 420.112 217.762 419.72C217.615 419.329 217.4 419.025 217.116 418.81C216.832 418.585 216.494 418.472 216.103 418.472C215.76 418.472 215.457 418.55 215.192 418.707C214.928 418.864 214.703 419.069 214.517 419.324C214.34 419.569 214.203 419.843 214.106 420.146C214.017 420.44 213.973 420.729 213.973 421.013V421.233C213.973 421.429 214.003 421.639 214.061 421.864C214.12 422.09 214.203 422.315 214.311 422.54C214.429 422.765 214.571 422.976 214.737 423.171C214.913 423.357 215.114 423.509 215.339 423.627C215.574 423.734 215.833 423.788 216.117 423.788ZM223.991 425.095C223.237 425.095 222.674 424.89 222.302 424.478C221.94 424.067 221.759 423.436 221.759 422.584V418.604H220.628L220.658 417.297H221.392C221.646 417.297 221.837 417.258 221.965 417.18C222.092 417.092 222.17 416.94 222.2 416.725L222.346 415.594H223.301V417.297H225.401V418.634H223.301V422.54C223.301 422.922 223.389 423.196 223.565 423.362C223.741 423.529 224.001 423.612 224.344 423.612C224.53 423.612 224.716 423.592 224.902 423.553C225.097 423.504 225.283 423.416 225.46 423.289V424.831C225.166 424.929 224.897 424.997 224.652 425.036C224.407 425.076 224.187 425.095 223.991 425.095ZM229.952 425.125C229.423 425.125 228.953 425.071 228.542 424.963C228.131 424.855 227.778 424.704 227.485 424.508C227.201 424.302 226.98 424.057 226.824 423.773C226.667 423.49 226.574 423.181 226.545 422.848L227.837 422.422C227.837 422.706 227.925 422.961 228.101 423.186C228.278 423.411 228.527 423.587 228.85 423.715C229.183 423.832 229.58 423.891 230.04 423.891C230.578 423.891 230.994 423.803 231.288 423.627C231.582 423.45 231.729 423.206 231.729 422.892C231.729 422.657 231.645 422.471 231.479 422.334C231.322 422.197 231.092 422.085 230.789 421.997C230.495 421.908 230.147 421.825 229.746 421.747C229.384 421.669 229.022 421.58 228.659 421.483C228.307 421.375 227.979 421.238 227.675 421.071C227.382 420.905 227.142 420.69 226.956 420.425C226.78 420.151 226.692 419.808 226.692 419.397C226.692 418.927 226.814 418.526 227.059 418.193C227.303 417.85 227.656 417.586 228.116 417.4C228.586 417.204 229.144 417.106 229.79 417.106C230.417 417.106 230.955 417.199 231.406 417.385C231.866 417.571 232.233 417.831 232.507 418.164C232.781 418.497 232.947 418.888 233.006 419.338L231.655 419.735C231.636 419.431 231.543 419.177 231.376 418.971C231.219 418.766 231.004 418.614 230.73 418.516C230.456 418.408 230.133 418.355 229.761 418.355C229.271 418.355 228.885 418.443 228.601 418.619C228.326 418.795 228.189 419.035 228.189 419.338C228.189 419.573 228.273 419.764 228.439 419.911C228.615 420.048 228.85 420.161 229.144 420.249C229.447 420.327 229.79 420.406 230.172 420.484C230.564 420.562 230.94 420.65 231.303 420.748C231.665 420.846 231.988 420.978 232.272 421.145C232.566 421.301 232.796 421.517 232.962 421.791C233.138 422.055 233.226 422.393 233.226 422.804C233.226 423.304 233.089 423.729 232.815 424.082C232.551 424.425 232.174 424.684 231.685 424.86C231.195 425.036 230.617 425.125 229.952 425.125ZM235.369 425.11C235.007 425.11 234.733 425.031 234.547 424.875C234.371 424.718 234.283 424.473 234.283 424.141C234.283 423.798 234.376 423.548 234.562 423.392C234.748 423.235 235.017 423.157 235.369 423.157C235.741 423.157 236.02 423.235 236.206 423.392C236.392 423.548 236.485 423.798 236.485 424.141C236.485 424.787 236.113 425.11 235.369 425.11Z" fill="white"/>
</svg>
