<svg width="361" height="509" viewBox="0 0 361 509" fill="none" xmlns="http://www.w3.org/2000/svg">
<g clip-path="url(#clip0_2355_10262)">
<rect width="360" height="509" rx="180" fill="#A35BFB"/>
<path d="M179.822 67.9963C150.367 115.171 120.912 162.373 91.457 209.547C120.912 256.529 150.395 303.484 179.85 350.466C209.415 303.594 238.98 256.722 268.545 209.822C238.98 162.538 209.415 115.253 179.822 67.9688V67.9963Z" fill="#FFD007"/>
<path d="M253.312 212.602C229.015 251.14 204.69 289.706 180.366 328.271C168.271 308.989 156.177 289.714 144.082 270.438C131.935 251.079 119.787 231.72 107.64 212.354C119.787 192.906 131.928 173.458 144.068 154.01C156.156 134.646 168.244 115.281 180.339 95.917C204.663 134.812 228.987 173.707 253.312 212.602Z" fill="#DF0586" stroke="black" stroke-width="0.611888"/>
<path d="M232.062 214.854C223.383 228.622 214.706 242.384 206.027 256.146C197.401 269.824 188.774 283.502 180.147 297.187C171.549 283.475 162.95 269.769 154.352 256.063C145.7 242.275 137.049 228.486 128.397 214.69C145.623 187.068 162.876 159.446 180.129 131.824C197.458 159.519 214.759 187.187 232.062 214.854Z" fill="#FFD007" stroke="black" stroke-width="0.611888"/>
<path d="M196.035 193.255C200.898 201.032 205.76 208.809 210.63 216.586C200.938 231.956 191.273 247.299 181.581 262.643C176.786 254.995 171.984 247.34 167.182 239.686C162.333 231.956 157.483 224.227 152.641 216.504C157.483 208.74 162.333 200.977 167.182 193.214C171.984 185.526 176.785 177.837 181.58 170.149C186.402 177.851 191.219 185.553 196.035 193.255Z" fill="#DF0586" stroke="black" stroke-width="0.54764"/>
<path d="M128.5 223.231C128.39 213.659 128.273 204.087 128.156 194.515L127.812 165.797C127.802 164.142 129.14 162.833 130.781 162.833C146.953 162.984 163.119 163.136 179.284 163.287C195.449 163.438 211.614 163.589 227.786 163.74V163.741C229.411 163.766 230.706 165.063 230.706 166.681V166.682L230.898 223.429C230.898 225.076 229.575 226.396 227.956 226.396H227.954C222.848 226.437 218.171 226.471 213.497 226.502L199.061 226.588C197.83 226.589 196.685 227.219 196.05 228.273C192.142 234.599 188.205 240.953 184.296 247.307C183.173 249.102 180.577 249.176 179.354 247.431C177.07 244.144 174.793 240.851 172.516 237.558C170.238 234.264 167.959 230.969 165.674 227.682C165.011 226.719 163.927 226.147 162.753 226.147H131.442C129.844 226.147 128.5 224.849 128.5 223.235V223.231Z" fill="#FFD007" stroke="black" stroke-width="0.611888"/>
<path d="M134.83 191.409C138.244 187.311 145.704 179.499 157.871 174.575C162.854 172.567 175.269 168.303 190.767 171.274C210.698 175.125 222.149 188.329 225.315 192.235C221.819 197.764 215.543 205.851 205.164 211.957C200.237 214.845 186.666 222.85 170.617 219.357C163.459 217.816 158.559 214.57 154.568 211.957C144.162 205.108 138.051 196.691 134.83 191.409Z" fill="white"/>
<path d="M178.979 208.657C187.25 208.657 193.955 201.711 193.955 193.143C193.955 184.575 187.25 177.629 178.979 177.629C170.709 177.629 164.004 184.575 164.004 193.143C164.004 201.711 170.709 208.657 178.979 208.657Z" fill="#A35BFB"/>
<path d="M178.9 202.139C183.902 202.139 187.957 197.939 187.957 192.759C187.957 187.578 183.902 183.379 178.9 183.379C173.899 183.379 169.844 187.578 169.844 192.759C169.844 197.939 173.899 202.139 178.9 202.139Z" fill="black"/>
<rect x="26.0934" y="36.279" width="306.833" height="434.239" rx="153.417" stroke="#FFD007" stroke-width="1.19857"/>
<path d="M120.276 377.742L115.993 359.65H121.887L123.977 373.082H124.148L126.478 359.65H132.612L134.873 373.082H135.045L137.306 359.65H142.823L138.608 377.742H131.378L129.528 365.544H129.357L127.438 377.742H120.276ZM152.122 378.222C150.409 378.222 148.97 377.982 147.805 377.502C146.663 377 145.737 376.326 145.029 375.481C144.321 374.613 143.807 373.63 143.487 372.534C143.19 371.437 143.042 370.284 143.042 369.073C143.042 367.771 143.202 366.526 143.522 365.338C143.864 364.15 144.378 363.099 145.064 362.186C145.772 361.249 146.674 360.518 147.771 359.993C148.89 359.444 150.226 359.17 151.78 359.17C153.333 359.17 154.658 359.444 155.755 359.993C156.874 360.518 157.765 361.26 158.427 362.22C159.09 363.179 159.512 364.287 159.695 365.544C159.901 366.8 159.878 368.159 159.627 369.621L146.503 369.827V366.811L155.378 366.64L154.658 368.388C154.795 367.337 154.772 366.457 154.589 365.749C154.43 365.018 154.121 364.47 153.664 364.104C153.207 363.716 152.579 363.522 151.78 363.522C150.934 363.522 150.261 363.739 149.758 364.173C149.255 364.607 148.901 365.224 148.696 366.023C148.49 366.8 148.387 367.725 148.387 368.799C148.387 370.649 148.696 371.997 149.313 372.842C149.929 373.687 150.877 374.11 152.157 374.11C152.705 374.11 153.162 374.041 153.527 373.904C153.893 373.767 154.19 373.573 154.418 373.322C154.647 373.048 154.806 372.728 154.898 372.362C154.989 371.974 155.024 371.54 155.001 371.06L160.072 371.334C160.141 372.088 160.061 372.865 159.832 373.665C159.627 374.464 159.227 375.207 158.633 375.892C158.039 376.577 157.205 377.137 156.131 377.571C155.081 378.005 153.744 378.222 152.122 378.222ZM172.855 378.222C171.827 378.222 170.925 377.993 170.148 377.537C169.372 377.08 168.721 376.406 168.195 375.515C167.693 374.601 167.316 373.482 167.064 372.157H166.824V377.742H161.993V371.369V353.756H167.544V359.067C167.544 359.684 167.51 360.347 167.441 361.055C167.396 361.763 167.316 362.494 167.201 363.248C167.11 364.002 166.996 364.767 166.859 365.544H167.167C167.373 364.036 167.738 362.814 168.264 361.877C168.789 360.941 169.463 360.255 170.285 359.821C171.108 359.387 172.044 359.17 173.095 359.17C174.443 359.17 175.608 359.513 176.59 360.198C177.595 360.883 178.372 361.911 178.92 363.282C179.469 364.653 179.743 366.377 179.743 368.456C179.743 370.672 179.434 372.5 178.817 373.939C178.224 375.378 177.401 376.452 176.35 377.16C175.322 377.868 174.157 378.222 172.855 378.222ZM170.902 373.802C171.587 373.802 172.17 373.585 172.65 373.151C173.129 372.694 173.495 372.1 173.746 371.369C173.997 370.615 174.123 369.793 174.123 368.902C174.123 368.011 174.009 367.177 173.78 366.4C173.552 365.624 173.198 364.995 172.718 364.516C172.238 364.036 171.633 363.796 170.902 363.796C170.582 363.796 170.251 363.853 169.908 363.967C169.589 364.082 169.28 364.264 168.983 364.516C168.709 364.744 168.458 365.052 168.229 365.441C168.001 365.806 167.818 366.263 167.681 366.811C167.544 367.337 167.476 367.942 167.476 368.628V368.867C167.476 369.713 167.567 370.444 167.75 371.06C167.955 371.677 168.218 372.191 168.538 372.602C168.858 373.014 169.223 373.322 169.634 373.528C170.045 373.71 170.468 373.802 170.902 373.802ZM181.736 377.742V359.65H187.287V377.742H181.736ZM184.477 358.348C183.426 358.348 182.615 358.131 182.044 357.697C181.496 357.24 181.222 356.589 181.222 355.744C181.222 354.876 181.496 354.224 182.044 353.79C182.615 353.334 183.426 353.105 184.477 353.105C185.551 353.105 186.362 353.334 186.91 353.79C187.481 354.247 187.767 354.898 187.767 355.744C187.767 356.566 187.481 357.206 186.91 357.662C186.362 358.119 185.551 358.348 184.477 358.348ZM189.767 377.742V367.497V359.65H194.461V367.017H194.736C194.873 365.235 195.17 363.773 195.626 362.631C196.083 361.466 196.734 360.598 197.58 360.027C198.425 359.456 199.498 359.17 200.801 359.17C202.765 359.17 204.239 359.821 205.221 361.123C206.226 362.425 206.729 364.367 206.729 366.948V377.742H201.177V367.668C201.177 366.434 200.983 365.509 200.595 364.893C200.229 364.276 199.636 363.967 198.813 363.967C198.128 363.967 197.522 364.207 196.997 364.687C196.472 365.167 196.06 365.943 195.764 367.017C195.467 368.091 195.318 369.53 195.318 371.334V377.742H189.767ZM213.804 378.222C212.891 378.222 212.023 378.062 211.2 377.742C210.378 377.422 209.704 376.908 209.179 376.2C208.653 375.469 208.39 374.498 208.39 373.288C208.39 372.168 208.607 371.266 209.041 370.581C209.476 369.872 210.058 369.313 210.789 368.902C211.52 368.468 212.32 368.148 213.188 367.942C214.056 367.714 214.912 367.52 215.758 367.36C216.945 367.131 217.836 366.948 218.43 366.811C219.024 366.674 219.424 366.514 219.63 366.332C219.858 366.149 219.972 365.898 219.972 365.578C219.972 364.915 219.721 364.413 219.218 364.07C218.739 363.728 218.099 363.556 217.3 363.556C216.797 363.556 216.294 363.648 215.792 363.83C215.289 364.013 214.878 364.344 214.558 364.824C214.238 365.281 214.09 365.943 214.113 366.811L209.179 366.469C209.133 365.03 209.35 363.842 209.83 362.905C210.309 361.946 210.96 361.203 211.783 360.678C212.628 360.13 213.542 359.741 214.524 359.513C215.529 359.284 216.523 359.17 217.505 359.17C219.31 359.17 220.795 359.513 221.96 360.198C223.125 360.861 223.981 361.831 224.53 363.111C225.101 364.367 225.386 365.898 225.386 367.702V370.923C225.386 371.677 225.386 372.442 225.386 373.219C225.386 373.973 225.386 374.727 225.386 375.481C225.386 376.234 225.386 376.988 225.386 377.742H220.589C220.589 376.92 220.589 376.086 220.589 375.241C220.589 374.396 220.589 373.505 220.589 372.568H220.383C220.292 373.596 219.949 374.544 219.355 375.412C218.784 376.257 218.019 376.943 217.06 377.468C216.123 377.971 215.038 378.222 213.804 378.222ZM216.1 374.179C216.489 374.179 216.9 374.11 217.334 373.973C217.791 373.813 218.213 373.562 218.602 373.219C219.013 372.876 219.344 372.408 219.595 371.814C219.847 371.197 219.972 370.444 219.972 369.553V368.73L220.897 368.628C220.715 368.924 220.406 369.164 219.972 369.347C219.561 369.53 219.093 369.678 218.567 369.793C218.042 369.884 217.505 369.987 216.957 370.101C216.431 370.192 215.94 370.329 215.483 370.512C215.027 370.672 214.65 370.9 214.353 371.197C214.079 371.472 213.941 371.86 213.941 372.362C213.941 372.956 214.147 373.413 214.558 373.733C214.992 374.03 215.506 374.179 216.1 374.179ZM227.647 377.742V367.908V359.65H232.444V366.846H232.718C232.855 364.927 233.118 363.419 233.506 362.323C233.917 361.203 234.42 360.415 235.014 359.958C235.631 359.479 236.316 359.239 237.07 359.239C237.481 359.239 237.904 359.296 238.338 359.41C238.794 359.524 239.24 359.707 239.674 359.958L239.4 366.126C238.897 365.829 238.406 365.612 237.926 365.475C237.447 365.315 236.99 365.235 236.556 365.235C235.825 365.235 235.208 365.441 234.705 365.852C234.203 366.263 233.815 366.869 233.54 367.668C233.289 368.468 233.163 369.438 233.163 370.581V377.742H227.647Z" fill="white"/>
<path d="M100.125 409.934V404.72H98.8031V403.487L100.756 403.59V403.325C100.482 403.237 100.252 403.11 100.066 402.943C99.8898 402.767 99.7527 402.566 99.6548 402.341C99.5667 402.106 99.5227 401.857 99.5227 401.592C99.5227 401.181 99.6206 400.824 99.8164 400.52C100.012 400.207 100.286 399.967 100.639 399.801C101.001 399.625 101.422 399.536 101.902 399.536C102.303 399.536 102.665 399.59 102.988 399.698C103.311 399.796 103.576 399.928 103.781 400.094L103.635 401.563C103.429 401.397 103.189 401.259 102.915 401.152C102.641 401.044 102.372 400.99 102.107 400.99C101.794 400.99 101.535 401.088 101.329 401.284C101.133 401.47 101.035 401.764 101.035 402.165C101.035 402.41 101.074 402.615 101.153 402.782C101.231 402.948 101.334 403.085 101.461 403.193C101.588 403.291 101.716 403.369 101.843 403.428H103.679V404.72H101.681V409.934H100.125ZM105.087 409.934V405.954V402.297H106.467L106.394 404.941H106.644C106.732 404.343 106.869 403.834 107.055 403.413C107.241 402.992 107.495 402.674 107.818 402.459C108.142 402.234 108.543 402.121 109.023 402.121C109.121 402.121 109.228 402.126 109.346 402.136C109.463 402.145 109.595 402.175 109.742 402.224L109.669 403.898C109.522 403.839 109.37 403.8 109.214 403.78C109.057 403.751 108.915 403.736 108.788 403.736C108.396 403.736 108.063 403.849 107.789 404.074C107.515 404.29 107.285 404.593 107.099 404.985C106.923 405.366 106.786 405.812 106.688 406.321V409.934H105.087ZM114.387 410.125C113.78 410.125 113.242 410.036 112.772 409.86C112.302 409.674 111.905 409.415 111.582 409.082C111.259 408.739 111.014 408.333 110.848 407.863C110.682 407.383 110.598 406.845 110.598 406.248C110.598 405.65 110.682 405.102 110.848 404.603C111.014 404.094 111.249 403.653 111.553 403.281C111.866 402.909 112.248 402.62 112.698 402.415C113.159 402.209 113.677 402.106 114.255 402.106C114.793 402.106 115.273 402.194 115.694 402.371C116.125 402.547 116.487 402.816 116.781 403.178C117.075 403.531 117.295 403.976 117.442 404.515C117.589 405.043 117.642 405.665 117.603 406.38L111.626 406.424V405.425L116.663 405.381L116.105 405.998C116.164 405.411 116.115 404.926 115.959 404.544C115.802 404.162 115.577 403.878 115.283 403.692C114.989 403.506 114.652 403.413 114.27 403.413C113.839 403.413 113.462 403.526 113.139 403.751C112.826 403.966 112.581 404.285 112.405 404.706C112.228 405.127 112.14 405.631 112.14 406.218C112.14 407.099 112.336 407.765 112.728 408.215C113.119 408.656 113.677 408.876 114.402 408.876C114.705 408.876 114.965 408.842 115.18 408.773C115.396 408.695 115.577 408.597 115.724 408.48C115.87 408.352 115.988 408.206 116.076 408.039C116.174 407.863 116.252 407.682 116.311 407.496L117.706 407.819C117.618 408.181 117.481 408.504 117.295 408.788C117.119 409.062 116.893 409.302 116.619 409.508C116.345 409.704 116.022 409.855 115.65 409.963C115.288 410.071 114.867 410.125 114.387 410.125ZM122.805 410.125C122.198 410.125 121.66 410.036 121.19 409.86C120.72 409.674 120.324 409.415 120.001 409.082C119.677 408.739 119.433 408.333 119.266 407.863C119.1 407.383 119.017 406.845 119.017 406.248C119.017 405.65 119.1 405.102 119.266 404.603C119.433 404.094 119.668 403.653 119.971 403.281C120.284 402.909 120.666 402.62 121.117 402.415C121.577 402.209 122.096 402.106 122.673 402.106C123.212 402.106 123.691 402.194 124.112 402.371C124.543 402.547 124.905 402.816 125.199 403.178C125.493 403.531 125.713 403.976 125.86 404.515C126.007 405.043 126.061 405.665 126.022 406.38L120.045 406.424V405.425L125.082 405.381L124.524 405.998C124.582 405.411 124.533 404.926 124.377 404.544C124.22 404.162 123.995 403.878 123.701 403.692C123.408 403.506 123.07 403.413 122.688 403.413C122.257 403.413 121.88 403.526 121.557 403.751C121.244 403.966 120.999 404.285 120.823 404.706C120.647 405.127 120.559 405.631 120.559 406.218C120.559 407.099 120.754 407.765 121.146 408.215C121.538 408.656 122.096 408.876 122.82 408.876C123.124 408.876 123.383 408.842 123.598 408.773C123.814 408.695 123.995 408.597 124.142 408.48C124.289 408.352 124.406 408.206 124.494 408.039C124.592 407.863 124.67 407.682 124.729 407.496L126.124 407.819C126.036 408.181 125.899 408.504 125.713 408.788C125.537 409.062 125.312 409.302 125.038 409.508C124.763 409.704 124.44 409.855 124.068 409.963C123.706 410.071 123.285 410.125 122.805 410.125ZM126.703 411.916C126.879 411.466 127.001 411.055 127.07 410.683C127.148 410.311 127.192 409.953 127.202 409.611C127.222 409.258 127.231 408.901 127.231 408.538H128.729C128.729 409.097 128.695 409.586 128.626 410.007C128.558 410.428 128.465 410.795 128.347 411.108C128.23 411.422 128.112 411.691 127.995 411.916H126.703ZM134.414 409.934V404.72H133.093V403.487L135.046 403.59V403.325C134.772 403.237 134.542 403.11 134.356 402.943C134.179 402.767 134.042 402.566 133.944 402.341C133.856 402.106 133.812 401.857 133.812 401.592C133.812 401.181 133.91 400.824 134.106 400.52C134.302 400.207 134.576 399.967 134.928 399.801C135.291 399.625 135.712 399.536 136.191 399.536C136.593 399.536 136.955 399.59 137.278 399.698C137.601 399.796 137.865 399.928 138.071 400.094L137.924 401.563C137.719 401.397 137.479 401.259 137.205 401.152C136.93 401.044 136.661 400.99 136.397 400.99C136.084 400.99 135.824 401.088 135.619 401.284C135.423 401.47 135.325 401.764 135.325 402.165C135.325 402.41 135.364 402.615 135.442 402.782C135.521 402.948 135.623 403.085 135.751 403.193C135.878 403.291 136.005 403.369 136.133 403.428H137.968V404.72H135.971V409.934H134.414ZM142.725 410.125C141.99 410.125 141.339 409.968 140.771 409.655C140.204 409.341 139.758 408.886 139.435 408.289C139.122 407.692 138.965 406.957 138.965 406.086C138.965 405.195 139.132 404.456 139.464 403.869C139.797 403.281 140.243 402.841 140.801 402.547C141.369 402.253 142.005 402.106 142.71 402.106C143.434 402.106 144.081 402.258 144.648 402.562C145.216 402.865 145.662 403.315 145.985 403.913C146.318 404.51 146.484 405.254 146.484 406.145C146.484 407.026 146.318 407.765 145.985 408.362C145.662 408.95 145.216 409.39 144.648 409.684C144.081 409.978 143.439 410.125 142.725 410.125ZM142.783 408.862C143.224 408.862 143.601 408.759 143.914 408.553C144.227 408.348 144.467 408.044 144.634 407.643C144.8 407.241 144.883 406.762 144.883 406.204C144.883 405.626 144.795 405.131 144.619 404.72C144.443 404.299 144.188 403.976 143.855 403.751C143.532 403.526 143.136 403.413 142.666 403.413C142.245 403.413 141.873 403.516 141.55 403.722C141.236 403.918 140.997 404.216 140.83 404.618C140.664 405.009 140.581 405.489 140.581 406.057C140.581 406.948 140.776 407.638 141.168 408.127C141.56 408.617 142.098 408.862 142.783 408.862ZM148.254 409.934V405.954V402.297H149.634L149.561 404.941H149.81C149.899 404.343 150.036 403.834 150.222 403.413C150.408 402.992 150.662 402.674 150.985 402.459C151.308 402.234 151.71 402.121 152.189 402.121C152.287 402.121 152.395 402.126 152.513 402.136C152.63 402.145 152.762 402.175 152.909 402.224L152.836 403.898C152.689 403.839 152.537 403.8 152.38 403.78C152.224 403.751 152.082 403.736 151.955 403.736C151.563 403.736 151.23 403.849 150.956 404.074C150.682 404.29 150.452 404.593 150.266 404.985C150.089 405.366 149.952 405.812 149.855 406.321V409.934H148.254ZM157.554 410.125C156.947 410.125 156.409 410.036 155.939 409.86C155.469 409.674 155.072 409.415 154.749 409.082C154.426 408.739 154.181 408.333 154.015 407.863C153.848 407.383 153.765 406.845 153.765 406.248C153.765 405.65 153.848 405.102 154.015 404.603C154.181 404.094 154.416 403.653 154.72 403.281C155.033 402.909 155.415 402.62 155.865 402.415C156.325 402.209 156.844 402.106 157.422 402.106C157.96 402.106 158.44 402.194 158.861 402.371C159.292 402.547 159.654 402.816 159.948 403.178C160.241 403.531 160.462 403.976 160.609 404.515C160.755 405.043 160.809 405.665 160.77 406.38L154.793 406.424V405.425L159.83 405.381L159.272 405.998C159.331 405.411 159.282 404.926 159.125 404.544C158.969 404.162 158.743 403.878 158.45 403.692C158.156 403.506 157.818 403.413 157.436 403.413C157.006 403.413 156.629 403.526 156.306 403.751C155.992 403.966 155.748 404.285 155.571 404.706C155.395 405.127 155.307 405.631 155.307 406.218C155.307 407.099 155.503 407.765 155.895 408.215C156.286 408.656 156.844 408.876 157.569 408.876C157.872 408.876 158.132 408.842 158.347 408.773C158.562 408.695 158.743 408.597 158.89 408.48C159.037 408.352 159.155 408.206 159.243 408.039C159.341 407.863 159.419 407.682 159.478 407.496L160.873 407.819C160.785 408.181 160.648 408.504 160.462 408.788C160.285 409.062 160.06 409.302 159.786 409.508C159.512 409.704 159.189 409.855 158.817 409.963C158.455 410.071 158.034 410.125 157.554 410.125ZM164.258 409.934L161.585 402.312H163.362L165.271 408.627H165.491L167.415 402.312H169.133L166.461 409.934H164.258ZM173.673 410.125C173.066 410.125 172.528 410.036 172.058 409.86C171.588 409.674 171.192 409.415 170.869 409.082C170.545 408.739 170.301 408.333 170.134 407.863C169.968 407.383 169.885 406.845 169.885 406.248C169.885 405.65 169.968 405.102 170.134 404.603C170.301 404.094 170.536 403.653 170.839 403.281C171.152 402.909 171.534 402.62 171.985 402.415C172.445 402.209 172.964 402.106 173.541 402.106C174.08 402.106 174.559 402.194 174.98 402.371C175.411 402.547 175.773 402.816 176.067 403.178C176.361 403.531 176.581 403.976 176.728 404.515C176.875 405.043 176.929 405.665 176.889 406.38L170.913 406.424V405.425L175.95 405.381L175.392 405.998C175.45 405.411 175.401 404.926 175.245 404.544C175.088 404.162 174.863 403.878 174.569 403.692C174.276 403.506 173.938 403.413 173.556 403.413C173.125 403.413 172.748 403.526 172.425 403.751C172.112 403.966 171.867 404.285 171.691 404.706C171.515 405.127 171.427 405.631 171.427 406.218C171.427 407.099 171.622 407.765 172.014 408.215C172.406 408.656 172.964 408.876 173.688 408.876C173.992 408.876 174.251 408.842 174.466 408.773C174.682 408.695 174.863 408.597 175.01 408.48C175.157 408.352 175.274 408.206 175.362 408.039C175.46 407.863 175.538 407.682 175.597 407.496L176.992 407.819C176.904 408.181 176.767 408.504 176.581 408.788C176.405 409.062 176.18 409.302 175.906 409.508C175.631 409.704 175.308 409.855 174.936 409.963C174.574 410.071 174.153 410.125 173.673 410.125ZM178.686 409.934V405.954V402.297H180.066L179.993 404.941H180.242C180.33 404.343 180.468 403.834 180.654 403.413C180.84 402.992 181.094 402.674 181.417 402.459C181.74 402.234 182.142 402.121 182.621 402.121C182.719 402.121 182.827 402.126 182.944 402.136C183.062 402.145 183.194 402.175 183.341 402.224L183.268 403.898C183.121 403.839 182.969 403.8 182.812 403.78C182.656 403.751 182.514 403.736 182.386 403.736C181.995 403.736 181.662 403.849 181.388 404.074C181.114 404.29 180.884 404.593 180.698 404.985C180.521 405.366 180.384 405.812 180.286 406.321V409.934H178.686ZM184.057 410.11C183.695 410.11 183.42 410.031 183.234 409.875C183.058 409.718 182.97 409.473 182.97 409.141C182.97 408.798 183.063 408.548 183.249 408.392C183.435 408.235 183.704 408.157 184.057 408.157C184.429 408.157 184.708 408.235 184.894 408.392C185.08 408.548 185.173 408.798 185.173 409.141C185.173 409.787 184.801 410.11 184.057 410.11ZM190.23 409.934V399.58H191.802V409.934H190.23ZM197.365 410.125C196.758 410.125 196.219 410.036 195.75 409.86C195.28 409.674 194.883 409.415 194.56 409.082C194.237 408.739 193.992 408.333 193.826 407.863C193.659 407.383 193.576 406.845 193.576 406.248C193.576 405.65 193.659 405.102 193.826 404.603C193.992 404.094 194.227 403.653 194.531 403.281C194.844 402.909 195.226 402.62 195.676 402.415C196.136 402.209 196.655 402.106 197.233 402.106C197.771 402.106 198.251 402.194 198.672 402.371C199.103 402.547 199.465 402.816 199.759 403.178C200.052 403.531 200.273 403.976 200.419 404.515C200.566 405.043 200.62 405.665 200.581 406.38L194.604 406.424V405.425L199.641 405.381L199.083 405.998C199.142 405.411 199.093 404.926 198.936 404.544C198.78 404.162 198.554 403.878 198.261 403.692C197.967 403.506 197.629 403.413 197.247 403.413C196.817 403.413 196.44 403.526 196.117 403.751C195.803 403.966 195.559 404.285 195.382 404.706C195.206 405.127 195.118 405.631 195.118 406.218C195.118 407.099 195.314 407.765 195.706 408.215C196.097 408.656 196.655 408.876 197.38 408.876C197.683 408.876 197.943 408.842 198.158 408.773C198.373 408.695 198.554 408.597 198.701 408.48C198.848 408.352 198.966 408.206 199.054 408.039C199.152 407.863 199.23 407.682 199.289 407.496L200.684 407.819C200.596 408.181 200.459 408.504 200.273 408.788C200.096 409.062 199.871 409.302 199.597 409.508C199.323 409.704 199 409.855 198.628 409.963C198.266 410.071 197.845 410.125 197.365 410.125ZM204.182 410.125C203.762 410.125 203.385 410.046 203.052 409.89C202.719 409.723 202.455 409.478 202.259 409.155C202.073 408.832 201.98 408.431 201.98 407.951C201.98 407.569 202.048 407.241 202.185 406.967C202.332 406.683 202.548 406.448 202.831 406.262C203.125 406.066 203.497 405.91 203.948 405.792C204.398 405.665 204.931 405.557 205.548 405.469C205.891 405.42 206.17 405.371 206.385 405.322C206.61 405.273 206.772 405.195 206.87 405.087C206.978 404.98 207.031 404.818 207.031 404.603C207.031 404.27 206.914 403.986 206.679 403.751C206.454 403.506 206.087 403.384 205.578 403.384C205.294 403.384 205.01 403.433 204.726 403.531C204.452 403.629 204.212 403.79 204.006 404.015C203.81 404.231 203.678 404.525 203.61 404.897L202.171 404.441C202.259 404.069 202.401 403.741 202.596 403.457C202.792 403.164 203.037 402.919 203.331 402.723C203.624 402.518 203.962 402.366 204.344 402.268C204.736 402.16 205.162 402.106 205.622 402.106C206.297 402.106 206.855 402.219 207.296 402.444C207.736 402.669 208.064 403.017 208.28 403.487C208.505 403.947 208.617 404.539 208.617 405.264V406.82C208.617 407.143 208.622 407.486 208.632 407.848C208.652 408.201 208.671 408.558 208.691 408.92C208.72 409.273 208.755 409.611 208.794 409.934H207.34C207.31 409.64 207.281 409.336 207.252 409.023C207.232 408.71 207.213 408.392 207.193 408.069H206.973C206.836 408.441 206.64 408.783 206.385 409.097C206.141 409.41 205.832 409.659 205.46 409.845C205.098 410.031 204.672 410.125 204.182 410.125ZM204.741 408.891C204.946 408.891 205.152 408.857 205.357 408.788C205.573 408.72 205.783 408.617 205.989 408.48C206.204 408.333 206.4 408.147 206.576 407.922C206.762 407.697 206.924 407.427 207.061 407.114L207.046 405.734L207.428 405.807C207.262 405.954 207.051 406.066 206.796 406.145C206.552 406.223 206.282 406.287 205.989 406.336C205.695 406.375 205.401 406.424 205.108 406.483C204.824 406.531 204.559 406.605 204.315 406.703C204.08 406.791 203.889 406.918 203.742 407.085C203.605 407.251 203.536 407.481 203.536 407.775C203.536 408.137 203.649 408.416 203.874 408.612C204.099 408.798 204.388 408.891 204.741 408.891ZM210.752 409.934V405.954V402.297H212.133L212.059 404.941H212.309C212.397 404.343 212.534 403.834 212.72 403.413C212.906 402.992 213.161 402.674 213.484 402.459C213.807 402.234 214.208 402.121 214.688 402.121C214.786 402.121 214.894 402.126 215.011 402.136C215.129 402.145 215.261 402.175 215.408 402.224L215.334 403.898C215.187 403.839 215.036 403.8 214.879 403.78C214.722 403.751 214.58 403.736 214.453 403.736C214.062 403.736 213.729 403.849 213.455 404.074C213.18 404.29 212.95 404.593 212.764 404.985C212.588 405.366 212.451 405.812 212.353 406.321V409.934H210.752ZM216.79 409.934V405.234V402.297H218.17L218.082 404.676H218.332C218.469 404.089 218.65 403.609 218.875 403.237C219.11 402.855 219.404 402.571 219.756 402.385C220.119 402.199 220.54 402.106 221.019 402.106C221.871 402.106 222.517 402.41 222.958 403.017C223.408 403.624 223.633 404.549 223.633 405.792V409.934H222.018V405.954C222.018 405.102 221.891 404.48 221.636 404.089C221.382 403.687 221 403.487 220.491 403.487C220.05 403.487 219.673 403.629 219.36 403.913C219.056 404.187 218.822 404.549 218.655 404.999C218.489 405.45 218.396 405.939 218.376 406.468V409.934H216.79ZM229.941 409.934V404.72H228.619V403.487L230.572 403.59V403.325C230.298 403.237 230.068 403.11 229.882 402.943C229.706 402.767 229.569 402.566 229.471 402.341C229.383 402.106 229.339 401.857 229.339 401.592C229.339 401.181 229.436 400.824 229.632 400.52C229.828 400.207 230.102 399.967 230.455 399.801C230.817 399.625 231.238 399.536 231.718 399.536C232.119 399.536 232.481 399.59 232.804 399.698C233.127 399.796 233.392 399.928 233.597 400.094L233.45 401.563C233.245 401.397 233.005 401.259 232.731 401.152C232.457 401.044 232.188 400.99 231.923 400.99C231.61 400.99 231.35 401.088 231.145 401.284C230.949 401.47 230.851 401.764 230.851 402.165C230.851 402.41 230.89 402.615 230.969 402.782C231.047 402.948 231.15 403.085 231.277 403.193C231.404 403.291 231.532 403.369 231.659 403.428H233.494V404.72H231.497V409.934H229.941ZM234.903 409.934V405.954V402.297H236.283L236.21 404.941H236.46C236.548 404.343 236.685 403.834 236.871 403.413C237.057 402.992 237.311 402.674 237.634 402.459C237.957 402.234 238.359 402.121 238.839 402.121C238.936 402.121 239.044 402.126 239.162 402.136C239.279 402.145 239.411 402.175 239.558 402.224L239.485 403.898C239.338 403.839 239.186 403.8 239.029 403.78C238.873 403.751 238.731 403.736 238.604 403.736C238.212 403.736 237.879 403.849 237.605 404.074C237.331 404.29 237.101 404.593 236.915 404.985C236.739 405.366 236.602 405.812 236.504 406.321V409.934H234.903ZM244.188 410.125C243.454 410.125 242.803 409.968 242.235 409.655C241.667 409.341 241.222 408.886 240.899 408.289C240.585 407.692 240.429 406.957 240.429 406.086C240.429 405.195 240.595 404.456 240.928 403.869C241.261 403.281 241.706 402.841 242.264 402.547C242.832 402.253 243.468 402.106 244.173 402.106C244.898 402.106 245.544 402.258 246.112 402.562C246.68 402.865 247.125 403.315 247.448 403.913C247.781 404.51 247.947 405.254 247.947 406.145C247.947 407.026 247.781 407.765 247.448 408.362C247.125 408.95 246.68 409.39 246.112 409.684C245.544 409.978 244.903 410.125 244.188 410.125ZM244.247 408.862C244.687 408.862 245.064 408.759 245.378 408.553C245.691 408.348 245.931 408.044 246.097 407.643C246.264 407.241 246.347 406.762 246.347 406.204C246.347 405.626 246.259 405.131 246.082 404.72C245.906 404.299 245.652 403.976 245.319 403.751C244.996 403.526 244.599 403.413 244.129 403.413C243.708 403.413 243.336 403.516 243.013 403.722C242.7 403.918 242.46 404.216 242.294 404.618C242.127 405.009 242.044 405.489 242.044 406.057C242.044 406.948 242.24 407.638 242.631 408.127C243.023 408.617 243.561 408.862 244.247 408.862ZM249.717 409.934V405.146V402.297H251.068L250.98 404.676H251.245C251.372 404.099 251.543 403.624 251.759 403.252C251.984 402.87 252.253 402.586 252.566 402.4C252.889 402.204 253.261 402.106 253.682 402.106C254.152 402.106 254.539 402.219 254.842 402.444C255.156 402.669 255.391 402.973 255.547 403.355C255.714 403.736 255.802 404.167 255.812 404.647H256.047C256.174 404.089 256.35 403.624 256.575 403.252C256.81 402.87 257.099 402.586 257.442 402.4C257.784 402.204 258.166 402.106 258.587 402.106C258.989 402.106 259.341 402.19 259.645 402.356C259.948 402.513 260.203 402.748 260.408 403.061C260.614 403.374 260.766 403.766 260.863 404.236C260.971 404.696 261.025 405.229 261.025 405.836V409.934H259.424V406.042C259.424 405.474 259.375 405.004 259.277 404.632C259.18 404.26 259.028 403.981 258.822 403.795C258.617 403.609 258.357 403.516 258.044 403.516C257.691 403.516 257.378 403.638 257.104 403.883C256.84 404.118 256.624 404.446 256.458 404.867C256.291 405.288 256.189 405.773 256.149 406.321V409.934H254.578V406.145C254.578 405.557 254.529 405.073 254.431 404.691C254.333 404.299 254.182 404.006 253.976 403.81C253.77 403.614 253.511 403.516 253.198 403.516C252.826 403.516 252.503 403.643 252.228 403.898C251.964 404.143 251.754 404.48 251.597 404.911C251.44 405.342 251.342 405.827 251.303 406.365V409.934H249.717ZM128.34 425.125C127.694 425.125 127.136 424.958 126.666 424.625C126.196 424.283 125.839 423.813 125.594 423.215C125.349 422.608 125.227 421.908 125.227 421.115C125.227 420.342 125.34 419.657 125.565 419.059C125.8 418.452 126.142 417.978 126.593 417.635C127.053 417.292 127.616 417.121 128.282 417.121C128.81 417.121 129.246 417.229 129.589 417.444C129.931 417.65 130.205 417.934 130.411 418.296C130.626 418.658 130.788 419.059 130.896 419.5H131.189C131.14 419.216 131.091 418.922 131.042 418.619C130.993 418.306 130.954 418.007 130.925 417.723C130.896 417.429 130.881 417.17 130.881 416.945V414.58H132.496V421.174V424.934H131.101L131.16 422.819H130.896C130.778 423.299 130.612 423.71 130.396 424.052C130.181 424.395 129.902 424.659 129.559 424.845C129.226 425.031 128.82 425.125 128.34 425.125ZM128.781 423.773C129.124 423.773 129.427 423.695 129.691 423.538C129.956 423.382 130.176 423.176 130.352 422.922C130.528 422.667 130.661 422.393 130.749 422.099C130.847 421.796 130.896 421.512 130.896 421.248V421.042C130.896 420.846 130.866 420.636 130.807 420.411C130.758 420.176 130.675 419.945 130.558 419.72C130.45 419.485 130.313 419.275 130.147 419.089C129.98 418.903 129.779 418.756 129.544 418.648C129.319 418.531 129.065 418.472 128.781 418.472C128.37 418.472 128.022 418.59 127.738 418.825C127.464 419.05 127.254 419.363 127.107 419.764C126.96 420.166 126.886 420.626 126.886 421.145C126.886 421.673 126.96 422.138 127.107 422.54C127.263 422.931 127.484 423.235 127.768 423.45C128.051 423.666 128.389 423.773 128.781 423.773ZM134.687 424.934V417.297H136.273V424.934H134.687ZM135.48 416.02C135.137 416.02 134.878 415.951 134.702 415.814C134.526 415.667 134.437 415.452 134.437 415.168C134.437 414.894 134.526 414.683 134.702 414.536C134.878 414.39 135.137 414.316 135.48 414.316C135.833 414.316 136.097 414.39 136.273 414.536C136.449 414.683 136.537 414.894 136.537 415.168C136.537 415.452 136.449 415.667 136.273 415.814C136.097 415.951 135.833 416.02 135.48 416.02ZM140.294 424.934L137.621 417.312H139.398L141.307 423.627H141.527L143.451 417.312H145.169L142.497 424.934H140.294ZM149.709 425.125C149.102 425.125 148.564 425.036 148.094 424.86C147.624 424.674 147.228 424.415 146.904 424.082C146.581 423.739 146.337 423.333 146.17 422.863C146.004 422.383 145.921 421.845 145.921 421.248C145.921 420.65 146.004 420.102 146.17 419.603C146.337 419.094 146.572 418.653 146.875 418.281C147.188 417.909 147.57 417.62 148.021 417.415C148.481 417.209 149 417.106 149.577 417.106C150.116 417.106 150.595 417.194 151.016 417.371C151.447 417.547 151.809 417.816 152.103 418.178C152.397 418.531 152.617 418.976 152.764 419.515C152.911 420.043 152.965 420.665 152.925 421.38L146.949 421.424V420.425L151.986 420.381L151.428 420.998C151.486 420.411 151.437 419.926 151.281 419.544C151.124 419.162 150.899 418.878 150.605 418.692C150.311 418.506 149.974 418.413 149.592 418.413C149.161 418.413 148.784 418.526 148.461 418.751C148.148 418.966 147.903 419.285 147.727 419.706C147.551 420.127 147.463 420.631 147.463 421.218C147.463 422.099 147.658 422.765 148.05 423.215C148.442 423.656 149 423.876 149.724 423.876C150.028 423.876 150.287 423.842 150.502 423.773C150.718 423.695 150.899 423.597 151.046 423.48C151.193 423.352 151.31 423.206 151.398 423.039C151.496 422.863 151.574 422.682 151.633 422.496L153.028 422.819C152.94 423.181 152.803 423.504 152.617 423.788C152.441 424.062 152.216 424.302 151.942 424.508C151.667 424.704 151.344 424.855 150.972 424.963C150.61 425.071 150.189 425.125 149.709 425.125ZM154.722 424.934V420.954V417.297H156.102L156.029 419.941H156.278C156.366 419.343 156.503 418.834 156.689 418.413C156.876 417.992 157.13 417.674 157.453 417.459C157.776 417.234 158.178 417.121 158.657 417.121C158.755 417.121 158.863 417.126 158.98 417.136C159.098 417.145 159.23 417.175 159.377 417.224L159.303 418.898C159.157 418.839 159.005 418.8 158.848 418.78C158.692 418.751 158.55 418.736 158.422 418.736C158.031 418.736 157.698 418.849 157.424 419.074C157.15 419.29 156.92 419.593 156.734 419.985C156.557 420.366 156.42 420.812 156.322 421.321V424.934H154.722ZM163.638 425.125C163.11 425.125 162.64 425.071 162.228 424.963C161.817 424.855 161.465 424.704 161.171 424.508C160.887 424.302 160.667 424.057 160.51 423.773C160.354 423.49 160.261 423.181 160.231 422.848L161.524 422.422C161.524 422.706 161.612 422.961 161.788 423.186C161.964 423.411 162.214 423.587 162.537 423.715C162.87 423.832 163.266 423.891 163.726 423.891C164.265 423.891 164.681 423.803 164.975 423.627C165.268 423.45 165.415 423.206 165.415 422.892C165.415 422.657 165.332 422.471 165.166 422.334C165.009 422.197 164.779 422.085 164.475 421.997C164.182 421.908 163.834 421.825 163.433 421.747C163.07 421.669 162.708 421.58 162.346 421.483C161.994 421.375 161.666 421.238 161.362 421.071C161.068 420.905 160.828 420.69 160.642 420.425C160.466 420.151 160.378 419.808 160.378 419.397C160.378 418.927 160.501 418.526 160.745 418.193C160.99 417.85 161.342 417.586 161.803 417.4C162.273 417.204 162.831 417.106 163.477 417.106C164.103 417.106 164.642 417.199 165.092 417.385C165.552 417.571 165.919 417.831 166.194 418.164C166.468 418.497 166.634 418.888 166.693 419.338L165.342 419.735C165.322 419.431 165.229 419.177 165.063 418.971C164.906 418.766 164.691 418.614 164.417 418.516C164.142 418.408 163.819 418.355 163.447 418.355C162.958 418.355 162.571 418.443 162.287 418.619C162.013 418.795 161.876 419.035 161.876 419.338C161.876 419.573 161.959 419.764 162.126 419.911C162.302 420.048 162.537 420.161 162.831 420.249C163.134 420.327 163.477 420.406 163.859 420.484C164.25 420.562 164.627 420.65 164.989 420.748C165.352 420.846 165.675 420.978 165.959 421.145C166.252 421.301 166.482 421.517 166.649 421.791C166.825 422.055 166.913 422.393 166.913 422.804C166.913 423.304 166.776 423.729 166.502 424.082C166.238 424.425 165.861 424.684 165.371 424.86C164.882 425.036 164.304 425.125 163.638 425.125ZM171.995 425.125C171.389 425.125 170.85 425.036 170.38 424.86C169.91 424.674 169.514 424.415 169.191 424.082C168.868 423.739 168.623 423.333 168.456 422.863C168.29 422.383 168.207 421.845 168.207 421.248C168.207 420.65 168.29 420.102 168.456 419.603C168.623 419.094 168.858 418.653 169.161 418.281C169.475 417.909 169.856 417.62 170.307 417.415C170.767 417.209 171.286 417.106 171.863 417.106C172.402 417.106 172.882 417.194 173.302 417.371C173.733 417.547 174.095 417.816 174.389 418.178C174.683 418.531 174.903 418.976 175.05 419.515C175.197 420.043 175.251 420.665 175.212 421.38L169.235 421.424V420.425L174.272 420.381L173.714 420.998C173.772 420.411 173.723 419.926 173.567 419.544C173.41 419.162 173.185 418.878 172.891 418.692C172.598 418.506 172.26 418.413 171.878 418.413C171.447 418.413 171.07 418.526 170.747 418.751C170.434 418.966 170.189 419.285 170.013 419.706C169.837 420.127 169.749 420.631 169.749 421.218C169.749 422.099 169.944 422.765 170.336 423.215C170.728 423.656 171.286 423.876 172.01 423.876C172.314 423.876 172.573 423.842 172.789 423.773C173.004 423.695 173.185 423.597 173.332 423.48C173.479 423.352 173.596 423.206 173.684 423.039C173.782 422.863 173.861 422.682 173.919 422.496L175.314 422.819C175.226 423.181 175.089 423.504 174.903 423.788C174.727 424.062 174.502 424.302 174.228 424.508C173.954 424.704 173.63 424.855 173.258 424.963C172.896 425.071 172.475 425.125 171.995 425.125ZM183.985 425.125C183.378 425.125 182.839 425.036 182.369 424.86C181.899 424.674 181.503 424.415 181.18 424.082C180.857 423.739 180.612 423.333 180.446 422.863C180.279 422.383 180.196 421.845 180.196 421.248C180.196 420.65 180.279 420.102 180.446 419.603C180.612 419.094 180.847 418.653 181.15 418.281C181.464 417.909 181.846 417.62 182.296 417.415C182.756 417.209 183.275 417.106 183.853 417.106C184.391 417.106 184.871 417.194 185.292 417.371C185.722 417.547 186.085 417.816 186.378 418.178C186.672 418.531 186.892 418.976 187.039 419.515C187.186 420.043 187.24 420.665 187.201 421.38L181.224 421.424V420.425L186.261 420.381L185.703 420.998C185.762 420.411 185.713 419.926 185.556 419.544C185.399 419.162 185.174 418.878 184.88 418.692C184.587 418.506 184.249 418.413 183.867 418.413C183.436 418.413 183.06 418.526 182.736 418.751C182.423 418.966 182.178 419.285 182.002 419.706C181.826 420.127 181.738 420.631 181.738 421.218C181.738 422.099 181.934 422.765 182.325 423.215C182.717 423.656 183.275 423.876 183.999 423.876C184.303 423.876 184.562 423.842 184.778 423.773C184.993 423.695 185.174 423.597 185.321 423.48C185.468 423.352 185.585 423.206 185.673 423.039C185.771 422.863 185.85 422.682 185.908 422.496L187.304 422.819C187.215 423.181 187.078 423.504 186.892 423.788C186.716 424.062 186.491 424.302 186.217 424.508C185.943 424.704 185.62 424.855 185.248 424.963C184.885 425.071 184.464 425.125 183.985 425.125ZM188.032 424.934L190.587 421.115L188.017 417.297H189.868L191.527 420.308H191.747L193.377 417.297H195.242L192.672 421.115L195.286 424.934H193.421L191.733 421.908H191.527L189.882 424.934H188.032ZM196.669 427.342V421.145V417.297H198.05L198.006 419.309L198.241 419.324C198.348 418.864 198.51 418.472 198.725 418.149C198.941 417.816 199.215 417.562 199.548 417.385C199.89 417.199 200.297 417.106 200.767 417.106C201.452 417.106 202.03 417.278 202.5 417.62C202.979 417.963 203.337 418.438 203.572 419.045C203.816 419.652 203.939 420.347 203.939 421.13C203.939 421.894 203.821 422.579 203.586 423.186C203.361 423.783 203.018 424.258 202.558 424.611C202.098 424.953 201.535 425.125 200.869 425.125C200.351 425.125 199.92 425.022 199.577 424.816C199.234 424.601 198.955 424.322 198.74 423.979C198.525 423.627 198.358 423.24 198.241 422.819H197.976C198.035 423.083 198.084 423.357 198.123 423.641C198.162 423.915 198.197 424.19 198.226 424.464C198.255 424.738 198.27 424.997 198.27 425.242V427.342H196.669ZM200.4 423.788C200.801 423.788 201.139 423.676 201.413 423.45C201.697 423.215 201.912 422.897 202.059 422.496C202.206 422.094 202.279 421.634 202.279 421.115C202.279 420.577 202.201 420.112 202.044 419.72C201.897 419.329 201.682 419.025 201.398 418.81C201.114 418.585 200.776 418.472 200.385 418.472C200.042 418.472 199.739 418.55 199.474 418.707C199.21 418.864 198.985 419.069 198.799 419.324C198.623 419.569 198.486 419.843 198.388 420.146C198.3 420.44 198.255 420.729 198.255 421.013V421.233C198.255 421.429 198.285 421.639 198.344 421.864C198.402 422.09 198.486 422.315 198.593 422.54C198.711 422.765 198.853 422.976 199.019 423.171C199.195 423.357 199.396 423.509 199.621 423.627C199.856 423.734 200.116 423.788 200.4 423.788ZM209.125 425.125C208.518 425.125 207.979 425.036 207.509 424.86C207.039 424.674 206.643 424.415 206.32 424.082C205.997 423.739 205.752 423.333 205.586 422.863C205.419 422.383 205.336 421.845 205.336 421.248C205.336 420.65 205.419 420.102 205.586 419.603C205.752 419.094 205.987 418.653 206.29 418.281C206.604 417.909 206.986 417.62 207.436 417.415C207.896 417.209 208.415 417.106 208.993 417.106C209.531 417.106 210.011 417.194 210.432 417.371C210.862 417.547 211.225 417.816 211.518 418.178C211.812 418.531 212.032 418.976 212.179 419.515C212.326 420.043 212.38 420.665 212.341 421.38L206.364 421.424V420.425L211.401 420.381L210.843 420.998C210.902 420.411 210.853 419.926 210.696 419.544C210.539 419.162 210.314 418.878 210.02 418.692C209.727 418.506 209.389 418.413 209.007 418.413C208.576 418.413 208.2 418.526 207.876 418.751C207.563 418.966 207.318 419.285 207.142 419.706C206.966 420.127 206.878 420.631 206.878 421.218C206.878 422.099 207.074 422.765 207.465 423.215C207.857 423.656 208.415 423.876 209.139 423.876C209.443 423.876 209.702 423.842 209.918 423.773C210.133 423.695 210.314 423.597 210.461 423.48C210.608 423.352 210.725 423.206 210.813 423.039C210.911 422.863 210.99 422.682 211.048 422.496L212.444 422.819C212.355 423.181 212.218 423.504 212.032 423.788C211.856 424.062 211.631 424.302 211.357 424.508C211.083 424.704 210.76 424.855 210.388 424.963C210.025 425.071 209.604 425.125 209.125 425.125ZM214.137 424.934V420.954V417.297H215.517L215.444 419.941H215.694C215.782 419.343 215.919 418.834 216.105 418.413C216.291 417.992 216.545 417.674 216.868 417.459C217.191 417.234 217.593 417.121 218.073 417.121C218.171 417.121 218.278 417.126 218.396 417.136C218.513 417.145 218.645 417.175 218.792 417.224L218.719 418.898C218.572 418.839 218.42 418.8 218.264 418.78C218.107 418.751 217.965 418.736 217.838 418.736C217.446 418.736 217.113 418.849 216.839 419.074C216.565 419.29 216.335 419.593 216.149 419.985C215.973 420.366 215.836 420.812 215.738 421.321V424.934H214.137ZM223.073 425.095C222.319 425.095 221.757 424.89 221.384 424.478C221.022 424.067 220.841 423.436 220.841 422.584V418.604H219.71L219.74 417.297H220.474C220.729 417.297 220.919 417.258 221.047 417.18C221.174 417.092 221.252 416.94 221.282 416.725L221.429 415.594H222.383V417.297H224.483V418.634H222.383V422.54C222.383 422.922 222.471 423.196 222.647 423.362C222.824 423.529 223.083 423.612 223.426 423.612C223.612 423.612 223.798 423.592 223.984 423.553C224.18 423.504 224.366 423.416 224.542 423.289V424.831C224.248 424.929 223.979 424.997 223.734 425.036C223.489 425.076 223.269 425.095 223.073 425.095ZM229.034 425.125C228.505 425.125 228.035 425.071 227.624 424.963C227.213 424.855 226.86 424.704 226.567 424.508C226.283 424.302 226.062 424.057 225.906 423.773C225.749 423.49 225.656 423.181 225.627 422.848L226.919 422.422C226.919 422.706 227.007 422.961 227.183 423.186C227.36 423.411 227.609 423.587 227.932 423.715C228.265 423.832 228.662 423.891 229.122 423.891C229.66 423.891 230.076 423.803 230.37 423.627C230.664 423.45 230.811 423.206 230.811 422.892C230.811 422.657 230.728 422.471 230.561 422.334C230.404 422.197 230.174 422.085 229.871 421.997C229.577 421.908 229.23 421.825 228.828 421.747C228.466 421.669 228.104 421.58 227.742 421.483C227.389 421.375 227.061 421.238 226.758 421.071C226.464 420.905 226.224 420.69 226.038 420.425C225.862 420.151 225.774 419.808 225.774 419.397C225.774 418.927 225.896 418.526 226.141 418.193C226.386 417.85 226.738 417.586 227.198 417.4C227.668 417.204 228.226 417.106 228.872 417.106C229.499 417.106 230.037 417.199 230.488 417.385C230.948 417.571 231.315 417.831 231.589 418.164C231.863 418.497 232.03 418.888 232.088 419.338L230.737 419.735C230.718 419.431 230.625 419.177 230.458 418.971C230.302 418.766 230.086 418.614 229.812 418.516C229.538 418.408 229.215 418.355 228.843 418.355C228.353 418.355 227.967 418.443 227.683 418.619C227.409 418.795 227.272 419.035 227.272 419.338C227.272 419.573 227.355 419.764 227.521 419.911C227.697 420.048 227.932 420.161 228.226 420.249C228.53 420.327 228.872 420.406 229.254 420.484C229.646 420.562 230.023 420.65 230.385 420.748C230.747 420.846 231.07 420.978 231.354 421.145C231.648 421.301 231.878 421.517 232.044 421.791C232.221 422.055 232.309 422.393 232.309 422.804C232.309 423.304 232.172 423.729 231.897 424.082C231.633 424.425 231.256 424.684 230.767 424.86C230.277 425.036 229.7 425.125 229.034 425.125ZM234.452 425.11C234.089 425.11 233.815 425.031 233.629 424.875C233.453 424.718 233.365 424.473 233.365 424.141C233.365 423.798 233.458 423.548 233.644 423.392C233.83 423.235 234.099 423.157 234.452 423.157C234.824 423.157 235.103 423.235 235.289 423.392C235.475 423.548 235.568 423.798 235.568 424.141C235.568 424.787 235.196 425.11 234.452 425.11Z" fill="white"/>
</g>
<defs>
<clipPath id="clip0_2355_10262">
<rect width="361" height="509" fill="white"/>
</clipPath>
</defs>
</svg>
