<svg width="114" height="162" viewBox="0 0 114 162" fill="none" xmlns="http://www.w3.org/2000/svg">
<rect width="114" height="162" rx="57" fill="#A35BFB"/>
<path d="M86.0947 113.317C91.2485 113.318 95.4199 117.513 95.4199 122.68C95.4197 127.854 91.2407 132.041 86.0947 132.041C80.9408 132.041 76.7687 127.847 76.7686 122.68C76.7686 117.505 80.9484 113.317 86.0947 113.317Z" fill="#FFD007" stroke="black" stroke-width="0.212733"/>
<path d="M28.0791 30.2588C33.2329 30.259 37.4043 34.4542 37.4043 39.6211C37.4041 44.7956 33.2251 48.9822 28.0791 48.9824C22.9252 48.9824 18.7531 44.7879 18.7529 39.6211C18.7529 34.4463 22.9328 30.2588 28.0791 30.2588Z" fill="#DF0586" stroke="black" stroke-width="0.212733"/>
<path d="M56.6858 47.6452C63.0687 47.4958 68.9931 47.5666 74.1084 47.716C74.3331 48.5809 74.5309 49.6895 74.5489 50.9712C74.5668 52.3865 74.3511 53.5973 74.1084 54.5251C68.3458 54.4858 62.5832 54.4465 56.8207 54.4072C56.2543 54.4072 55.4812 54.4465 54.5732 54.5802C53.836 54.6903 52.946 54.8318 52.056 55.1935C50.0782 56.0112 49.0983 57.5444 48.6308 58.2757C48.4241 58.598 47.8307 59.5887 47.5251 61.004C47.4262 61.4522 47.0036 63.6223 48.0645 66.2013C48.514 67.2864 48.9724 68.4107 50.2131 69.4014C51.8133 70.6752 53.818 71.0212 54.9418 71.2177C55.2384 71.2728 55.8318 71.3278 57.0185 71.4536C59.4278 71.6974 60.0211 71.6895 60.9021 71.7996C63.2035 72.0826 64.9206 72.8532 65.6938 73.207C66.4849 73.5687 68.4986 74.5751 70.3685 76.4936C72.9756 79.1827 73.6858 82.0133 74.0904 83.7352C74.3691 84.9382 74.8635 87.1162 74.3151 89.9154C73.8387 92.3607 72.8048 94.0512 72.5711 94.4364C70.3865 97.9275 67.0782 99.563 65.9994 100.082C65.0914 100.514 63.3294 101.348 60.9111 101.678C60.0571 101.796 58.8434 101.875 56.4341 102.04C54.3484 102.181 54.1507 102.166 53.5843 102.307C51.4986 102.826 50.1951 104.045 49.8265 104.399C48.2622 105.9 47.8847 107.52 47.588 108.786C47.3003 110.02 46.7969 112.135 47.9296 114.4C48.0735 114.691 48.5949 115.674 49.6737 116.657C51.3818 118.213 53.2966 118.685 53.6652 118.772C54.6721 119.008 55.4722 119.008 55.7509 119.008C59.3289 119.008 74.7556 119.055 94.7852 119.086C95.1179 119.754 95.6303 120.981 95.6033 122.569C95.5764 124.032 95.1179 125.172 94.7852 125.817C81.7408 125.793 68.7054 125.762 55.661 125.738C54.1956 125.722 51.139 125.526 47.8757 123.914C46.9407 123.458 44.2078 122.003 42.0772 119.078C41.6187 118.441 39.569 115.524 39.4521 111.318C39.3442 107.371 40.9984 104.516 41.7176 103.321C42.3558 102.252 43.2908 100.695 45.1607 99.2013C49.1972 95.9775 54.5822 95.4429 55.8498 95.3171C57.5399 95.1519 58.4838 95.2463 60.2908 94.7588C61.6753 94.3893 63.6351 93.8625 65.0914 92.4629C68.0671 89.6008 66.7726 85.1741 66.5388 84.38C66.2152 83.2635 65.514 80.8732 63.0957 79.4658C61.5134 78.5458 59.6615 78.3257 58.6546 78.1999C57.2522 78.0269 56.4881 78.1291 55.4812 78.1212C52.4875 78.0976 50.1591 77.1148 48.7837 76.5408C45.1697 75.0233 41.304 71.5401 39.9106 66.7989C37.7889 59.6045 42.6615 53.9905 43.6234 52.9369C44.3246 52.1663 46.0327 50.35 48.9635 49.0527C51.9212 47.7474 54.6091 47.661 56.7038 47.6138L56.6858 47.6452Z" fill="#DF0586"/>
<path d="M19.2814 35.9649C18.9297 36.5074 18.3977 37.4981 18.2714 38.8111C18.1091 40.5645 18.7674 41.9011 19.101 42.4908C31.5723 42.5301 44.0435 42.5694 56.5238 42.6008C57.4075 42.593 58.688 42.6559 60.1669 43.0411C60.9424 43.2456 62.286 43.5915 63.5755 44.4643C66.1004 46.1861 66.6595 48.765 66.8128 49.4648C67.3809 52.083 66.4341 54.1823 66.0102 54.9843C65.7758 55.574 65.3339 56.431 64.4773 57.2487C62.7098 58.947 60.4374 59.3087 59.6799 59.3951C58.4806 59.403 56.8845 59.4816 55.0179 59.7411C53.7554 59.9219 52.024 60.1657 50.1484 60.7868C49.0122 61.1642 46.0364 62.1942 43.5476 64.6787C40.7972 67.4306 40.184 70.4341 39.8864 71.9987C39.679 73.0759 38.9125 77.7855 41.8883 82.6288C42.6188 83.8161 43.782 85.6559 46.1536 87.2205C48.8589 88.9975 52.1413 89.768 54.2874 89.8938C54.6391 89.9174 55.4958 89.9488 56.7492 90.0668C58.0207 90.1847 59.211 90.3026 60.2661 90.5464C60.726 90.6564 62.8812 91.1518 64.4863 92.5041C67.8769 95.3582 66.6775 100.217 66.5333 100.76C66.2808 101.719 65.8209 103.37 64.1526 104.825C62.2048 106.523 59.8603 106.877 59.0216 106.971C52.6463 107.01 46.2618 107.042 39.8864 107.081C39.634 107.946 39.4085 109.055 39.3634 110.36C39.3183 111.704 39.4897 112.852 39.6971 113.741C49.3007 113.615 53.539 113.67 55.4868 113.772C55.8204 113.788 56.9206 113.851 58.3904 113.772C59.2561 113.725 60.9243 113.623 62.8451 113.127C63.9633 112.837 66.3529 112.2 68.6884 110.462C70.7805 108.905 71.7995 107.238 72.4848 106.091C74.3515 102.961 74.6039 100.115 74.649 98.9986C74.6941 97.8585 74.7753 95.4211 73.4587 92.5828C73.107 91.828 71.015 87.48 66.1184 85.3335C65.2437 84.9483 64.4412 84.7045 63.7919 84.508C61.9073 83.934 60.6899 83.7846 56.9386 83.2264C52.6012 82.5895 52.024 82.4637 51.1944 81.992C49.5983 81.0721 48.7958 79.8298 48.426 79.2558C47.1816 77.2823 47.2087 75.4346 47.2357 74.3811C47.2628 73.3432 47.2898 72.0852 48.1194 70.6542C49.1745 68.8144 50.8698 67.8788 51.5732 67.5328C52.7905 66.9431 53.8726 66.7938 56.0368 66.495C58.4716 66.1569 58.679 66.3928 60.5636 66.1097C63.5755 65.6616 65.6766 64.663 66.0914 64.4665C68.5802 63.2635 70.0862 61.7853 70.6182 61.235C73.1792 58.5696 73.8465 55.7627 74.1982 54.1666C74.7122 51.8786 74.5859 49.9916 74.4506 48.9066C74.3515 48.136 74.1891 46.9016 73.5669 45.3999C72.2774 42.2706 70.005 40.3522 69.1664 39.6996C68.6163 39.275 66.5062 37.6789 63.1336 36.7433C61.1678 36.1929 59.4455 36.0514 58.2281 36.0278C45.2429 36.0042 32.2666 35.9806 19.2814 35.957V35.9649Z" fill="#FFD007"/>
<path d="M74.2286 54.3663C71.3878 54.3663 68.538 54.3663 65.6973 54.3663V47.7772L74.2556 47.7617C74.4803 48.6299 74.6691 49.7462 74.6691 51.0485C74.6691 52.3663 74.4623 53.4903 74.2286 54.3663Z" fill="#DF0586"/>
<path d="M66.6497 85.1659C66.8657 85.8951 67.1446 87.2281 66.7577 88.8277C66.2269 91.0624 64.7333 92.4738 64.1035 92.9991C64.5894 93.7048 65.1832 94.7712 65.5431 96.1434C65.9569 97.7508 65.867 99.123 65.723 100.001C67.2525 99.4288 69.4838 98.3232 71.2473 96.2767C73.0377 94.191 73.5866 92.0268 74.0454 90.1763C74.3783 88.8669 74.4413 87.7456 74.4503 87.5731C74.4953 86.789 74.4593 86.1147 74.4143 85.6128C71.6612 84.9385 68.908 84.2642 66.1549 83.5898C66.3168 84.1152 66.4698 84.6406 66.6317 85.1659H66.6497Z" fill="#DF0586"/>
<rect x="6.1974" y="9.1974" width="101.066" height="143.032" rx="50.5332" stroke="#FFD007" stroke-width="0.39479"/>
</svg>
