<svg width="360" height="509" viewBox="0 0 360 509" fill="none" xmlns="http://www.w3.org/2000/svg">
<rect width="360" height="509" rx="180" fill="#A35BFB"/>
<path d="M178.328 157.247C231.059 157.247 273.806 141.547 273.806 122.18C273.806 102.813 231.059 87.1133 178.328 87.1133C125.597 87.1133 82.8496 102.813 82.8496 122.18C82.8496 141.547 125.597 157.247 178.328 157.247Z" fill="#FFD007"/>
<path d="M180.304 243.965C233.036 243.965 275.783 228.265 275.783 208.899C275.783 189.532 233.036 173.832 180.304 173.832C127.573 173.832 84.8262 189.532 84.8262 208.899C84.8262 228.265 127.573 243.965 180.304 243.965Z" fill="url(#paint0_linear_2355_10109)"/>
<path d="M181.672 331.321C234.403 331.321 277.15 315.621 277.15 296.254C277.15 276.887 234.403 261.188 181.672 261.188C128.94 261.188 86.1934 276.887 86.1934 296.254C86.1934 315.621 128.94 331.321 181.672 331.321Z" fill="#FFD007"/>
<path d="M106.102 230.624C110.801 228.742 117.598 226.265 125.97 224.025C147.604 218.26 165.016 218.046 178.969 217.95C190.489 217.879 204.085 217.879 221.735 221.309C235.092 223.906 246.04 227.527 253.982 230.624C251.907 231.696 248.926 233.102 245.253 234.507C242.224 235.651 238.097 237.008 229.988 238.747C226.648 239.462 218.992 241.011 208.64 242.249C199.386 243.345 191.992 243.703 187.866 243.845C178.492 244.155 171.312 243.845 168.736 243.75C166.638 243.655 159.434 243.274 149.798 242.059C140.496 240.891 133.484 239.986 124.587 237.485C119.841 236.151 113.448 234.031 106.078 230.648L106.102 230.624Z" fill="#DE0686"/>
<path d="M104.293 187.597C109.159 185.5 116.195 182.737 124.877 180.283C145.962 174.304 162.968 173.994 177.756 173.803C183.695 173.732 201.584 173.708 220.618 176.996C232.496 179.044 240.558 181.641 243.658 182.689C248.19 184.214 251.935 185.739 254.678 186.906C252.078 188.145 248.524 189.693 244.207 191.241C242.776 191.742 237.624 193.624 228.942 195.482C225.603 196.197 217.946 197.745 207.595 198.984C198.34 200.08 190.946 200.437 186.82 200.58C177.446 200.89 170.267 200.58 167.691 200.485C165.592 200.389 158.389 200.008 148.752 198.793C140.858 197.793 133.225 196.816 123.541 194.219C118.628 192.909 111.973 190.837 104.293 187.597Z" fill="#A35BFB"/>
<path d="M103.725 144.1C108.853 141.908 115.961 139.216 124.666 136.929C134.875 134.237 142.841 133.285 150.522 132.403C156.818 131.665 166.144 130.831 177.569 130.759C199.489 130.616 215.637 133.308 220.598 134.214C230.83 136.048 237.604 138.073 242.112 139.598C246.692 141.146 250.484 142.694 253.203 143.886C250.985 145.053 247.836 146.554 243.973 148.031C241.253 149.055 237.103 150.484 228.707 152.271C225.368 152.986 217.712 154.534 207.36 155.773C198.106 156.869 190.712 157.226 186.585 157.369C177.212 157.679 170.032 157.369 167.456 157.274C165.357 157.178 158.154 156.797 148.518 155.582C140.265 154.534 132.776 153.581 123.307 151.008C118.274 149.651 111.5 147.507 103.725 144.1Z" fill="#DE0686"/>
<path d="M180.304 288.059C233.036 288.059 275.783 272.359 275.783 252.992C275.783 233.626 233.036 217.926 180.304 217.926C127.573 217.926 84.8262 233.626 84.8262 252.992C84.8262 272.359 127.573 288.059 180.304 288.059Z" stroke="black" stroke-width="0.987064" stroke-miterlimit="10"/>
<path d="M178.73 200.848C231.461 200.848 274.209 185.148 274.209 165.781C274.209 146.415 231.461 130.715 178.73 130.715C125.999 130.715 83.252 146.415 83.252 165.781C83.252 185.148 125.999 200.848 178.73 200.848Z" stroke="black" stroke-width="0.987064" stroke-miterlimit="10"/>
<path d="M104.914 274.948C109.78 272.852 116.816 270.088 125.498 267.635C146.583 261.655 163.589 261.346 178.377 261.155C184.316 261.084 202.205 261.06 221.239 264.347C233.117 266.396 241.179 268.993 244.279 270.041C248.811 271.565 252.556 273.09 255.299 274.257C252.699 275.496 249.145 277.045 244.828 278.593C243.397 279.093 238.245 280.975 229.563 282.833C226.224 283.548 218.567 285.097 208.216 286.335C198.961 287.431 191.567 287.789 187.441 287.931C178.067 288.241 170.888 287.931 168.312 287.836C166.213 287.741 159.01 287.36 149.374 286.145C141.479 285.144 133.846 284.167 124.162 281.571C119.249 280.261 112.594 278.188 104.914 274.948Z" fill="#A35BFB"/>
<rect x="26.7549" y="37.2178" width="305.513" height="432.37" rx="152.756" stroke="#FFD007" stroke-width="1.19341"/>
<path d="M101.194 376.716C99.5792 376.716 98.1918 376.477 97.0317 375.999C95.8717 375.499 94.9278 374.817 94.1999 373.952C93.4721 373.088 92.9375 372.099 92.5964 370.984C92.2552 369.87 92.0846 368.687 92.0846 367.436C92.0846 366.162 92.2552 364.957 92.5964 363.819C92.9375 362.659 93.4607 361.624 94.1658 360.714C94.8937 359.782 95.8262 359.054 96.9635 358.531C98.1235 358.008 99.511 357.746 101.126 357.746C103.037 357.746 104.572 358.11 105.732 358.838C106.915 359.543 107.733 360.464 108.188 361.602C108.666 362.739 108.803 363.967 108.598 365.286L103.821 365.662C103.867 364.843 103.776 364.172 103.548 363.649C103.344 363.103 103.025 362.705 102.593 362.455C102.161 362.182 101.638 362.045 101.024 362.045C100.478 362.045 99.9887 362.147 99.5565 362.352C99.1471 362.557 98.7945 362.875 98.4988 363.307C98.2259 363.717 98.0098 364.24 97.8506 364.877C97.7141 365.514 97.6459 366.276 97.6459 367.163C97.6459 368.3 97.771 369.278 98.0212 370.097C98.2941 370.916 98.6922 371.541 99.2153 371.973C99.7612 372.406 100.444 372.622 101.262 372.622C102.104 372.622 102.741 372.417 103.173 372.008C103.605 371.598 103.89 371.086 104.026 370.472C104.162 369.835 104.185 369.21 104.094 368.596L109.178 368.835C109.314 369.835 109.269 370.813 109.041 371.769C108.814 372.701 108.37 373.543 107.711 374.294C107.074 375.044 106.21 375.636 105.118 376.068C104.049 376.5 102.741 376.716 101.194 376.716ZM119.347 376.716C117.619 376.716 116.083 376.375 114.741 375.692C113.399 374.987 112.353 373.941 111.602 372.554C110.852 371.143 110.476 369.381 110.476 367.265C110.476 365.059 110.863 363.262 111.636 361.874C112.433 360.464 113.502 359.429 114.844 358.77C116.208 358.087 117.744 357.746 119.45 357.746C121.224 357.746 122.77 358.099 124.09 358.804C125.432 359.486 126.467 360.533 127.194 361.943C127.945 363.33 128.32 365.093 128.32 367.231C128.32 369.437 127.922 371.246 127.126 372.656C126.353 374.043 125.284 375.067 123.919 375.727C122.577 376.386 121.053 376.716 119.347 376.716ZM119.484 372.656C120.189 372.656 120.78 372.463 121.258 372.076C121.735 371.666 122.099 371.075 122.35 370.302C122.6 369.528 122.725 368.607 122.725 367.538C122.725 366.355 122.588 365.366 122.316 364.57C122.043 363.751 121.645 363.125 121.121 362.693C120.621 362.261 120.007 362.045 119.279 362.045C118.597 362.045 118.017 362.25 117.539 362.659C117.061 363.046 116.697 363.626 116.447 364.399C116.197 365.173 116.072 366.105 116.072 367.197C116.072 368.926 116.368 370.268 116.959 371.223C117.573 372.178 118.415 372.656 119.484 372.656ZM130.312 376.238V366.242V358.224H134.986V365.559H135.259C135.419 363.649 135.726 362.125 136.181 360.987C136.658 359.85 137.284 359.031 138.057 358.531C138.853 358.008 139.797 357.746 140.889 357.746C142.026 357.746 142.947 358.03 143.652 358.599C144.358 359.145 144.881 359.998 145.222 361.158C145.563 362.295 145.722 363.762 145.7 365.559H145.973C146.132 363.671 146.462 362.159 146.962 361.022C147.462 359.884 148.122 359.054 148.941 358.531C149.76 358.008 150.726 357.746 151.841 357.746C152.773 357.746 153.581 357.917 154.263 358.258C154.946 358.599 155.514 359.111 155.969 359.793C156.447 360.476 156.799 361.34 157.027 362.386C157.254 363.41 157.368 364.615 157.368 366.003V376.238H151.841V366.48C151.841 365.616 151.761 364.9 151.602 364.331C151.466 363.74 151.249 363.307 150.954 363.035C150.658 362.739 150.283 362.591 149.828 362.591C149.237 362.591 148.691 362.864 148.19 363.41C147.69 363.933 147.28 364.729 146.962 365.798C146.666 366.867 146.518 368.22 146.518 369.858V376.238H141.128V366.344C141.128 365.48 141.048 364.775 140.889 364.229C140.752 363.683 140.525 363.273 140.207 363C139.911 362.727 139.536 362.591 139.081 362.591C138.512 362.591 137.977 362.83 137.477 363.307C136.999 363.762 136.601 364.524 136.283 365.593C135.987 366.662 135.839 368.084 135.839 369.858V376.238H130.312ZM159.666 376.238V366.242V358.224H164.34V365.559H164.613C164.772 363.649 165.079 362.125 165.534 360.987C166.012 359.85 166.637 359.031 167.411 358.531C168.207 358.008 169.151 357.746 170.243 357.746C171.38 357.746 172.301 358.03 173.006 358.599C173.711 359.145 174.234 359.998 174.576 361.158C174.917 362.295 175.076 363.762 175.053 365.559H175.326C175.485 363.671 175.815 362.159 176.316 361.022C176.816 359.884 177.476 359.054 178.295 358.531C179.113 358.008 180.08 357.746 181.195 357.746C182.127 357.746 182.935 357.917 183.617 358.258C184.299 358.599 184.868 359.111 185.323 359.793C185.801 360.476 186.153 361.34 186.381 362.386C186.608 363.41 186.722 364.615 186.722 366.003V376.238H181.195V366.48C181.195 365.616 181.115 364.9 180.956 364.331C180.819 363.74 180.603 363.307 180.307 363.035C180.012 362.739 179.637 362.591 179.182 362.591C178.59 362.591 178.044 362.864 177.544 363.41C177.044 363.933 176.634 364.729 176.316 365.798C176.02 366.867 175.872 368.22 175.872 369.858V376.238H170.481V366.344C170.481 365.48 170.402 364.775 170.243 364.229C170.106 363.683 169.879 363.273 169.56 363C169.265 362.727 168.889 362.591 168.434 362.591C167.866 362.591 167.331 362.83 166.831 363.307C166.353 363.762 165.955 364.524 165.637 365.593C165.341 366.662 165.193 368.084 165.193 369.858V376.238H159.666ZM194.615 376.716C192.659 376.716 191.203 376.034 190.248 374.669C189.315 373.304 188.849 371.212 188.849 368.391V358.224H194.376V368.323C194.376 369.642 194.558 370.563 194.922 371.086C195.309 371.61 195.855 371.871 196.56 371.871C197.06 371.871 197.515 371.746 197.925 371.496C198.357 371.223 198.732 370.825 199.05 370.302C199.369 369.756 199.608 369.062 199.767 368.22C199.949 367.379 200.04 366.367 200.04 365.184V358.224H205.567V368.118V376.238H200.859V369.21H200.62C200.483 370.961 200.176 372.394 199.699 373.509C199.221 374.601 198.561 375.408 197.72 375.931C196.878 376.454 195.843 376.716 194.615 376.716ZM208.011 376.238V366.037V358.224H212.685V365.559H212.958C213.095 363.785 213.391 362.329 213.845 361.192C214.3 360.032 214.949 359.168 215.79 358.599C216.632 358.03 217.701 357.746 218.997 357.746C220.953 357.746 222.421 358.394 223.399 359.691C224.399 360.987 224.9 362.921 224.9 365.491V376.238H219.373V366.208C219.373 364.979 219.179 364.058 218.793 363.444C218.429 362.83 217.837 362.523 217.018 362.523C216.336 362.523 215.733 362.762 215.21 363.239C214.687 363.717 214.278 364.49 213.982 365.559C213.686 366.628 213.538 368.061 213.538 369.858V376.238H208.011ZM227.169 376.238V358.224H232.697V376.238H227.169ZM229.899 356.927C228.853 356.927 228.045 356.711 227.477 356.279C226.931 355.824 226.658 355.176 226.658 354.334C226.658 353.47 226.931 352.822 227.477 352.39C228.045 351.935 228.853 351.707 229.899 351.707C230.968 351.707 231.775 351.935 232.321 352.39C232.89 352.845 233.174 353.493 233.174 354.334C233.174 355.153 232.89 355.79 232.321 356.245C231.775 356.7 230.968 356.927 229.899 356.927ZM242.365 376.648C240.25 376.648 238.669 376.113 237.622 375.044C236.599 373.952 236.087 372.269 236.087 369.995V362.523H234.108V359.043H234.211C235.621 358.861 236.622 358.394 237.213 357.644C237.804 356.87 238.168 355.71 238.305 354.164V354.096H241.546V358.224H245.674V362.659H241.546V369.483C241.546 370.347 241.751 370.961 242.16 371.325C242.592 371.689 243.115 371.871 243.73 371.871C244.048 371.871 244.378 371.826 244.719 371.735C245.06 371.644 245.379 371.519 245.674 371.359V376.17C244.969 376.375 244.344 376.5 243.798 376.545C243.252 376.614 242.774 376.648 242.365 376.648ZM254.175 381.561C253.493 381.561 252.742 381.504 251.924 381.39C251.105 381.276 250.286 381.094 249.467 380.844C248.648 380.594 247.886 380.276 247.181 379.889L248.444 374.328C249.262 375.101 250.172 375.647 251.173 375.965C252.197 376.284 253.106 376.443 253.902 376.443C255.017 376.443 255.95 376.227 256.7 375.795C257.474 375.34 258.054 374.692 258.44 373.85C258.827 372.986 259.02 371.939 259.02 370.711V367.572H258.713C258.668 369.164 258.406 370.472 257.928 371.496C257.474 372.497 256.848 373.236 256.052 373.714C255.256 374.191 254.335 374.43 253.288 374.43C251.992 374.43 250.911 374.1 250.047 373.441C249.206 372.781 248.569 371.792 248.136 370.472C247.704 369.153 247.488 367.504 247.488 365.525V358.224H252.981V364.092C252.981 366.026 253.186 367.436 253.595 368.323C254.005 369.21 254.653 369.653 255.54 369.653C255.995 369.653 256.393 369.54 256.734 369.312C257.098 369.062 257.394 368.698 257.621 368.22C257.849 367.72 258.019 367.106 258.133 366.378C258.247 365.627 258.304 364.763 258.304 363.785V358.224H263.797V370.916C263.797 372.144 263.672 373.304 263.421 374.396C263.171 375.465 262.796 376.432 262.296 377.296C261.795 378.183 261.158 378.945 260.385 379.582C259.634 380.219 258.736 380.708 257.69 381.049C256.666 381.39 255.495 381.561 254.175 381.561Z" fill="white"/>
<path d="M106.586 408.409C106.167 408.409 105.792 408.331 105.46 408.175C105.129 408.009 104.866 407.765 104.671 407.444C104.486 407.122 104.393 406.722 104.393 406.245C104.393 405.865 104.461 405.538 104.598 405.265C104.744 404.982 104.958 404.748 105.241 404.563C105.534 404.368 105.904 404.212 106.352 404.095C106.801 403.969 107.332 403.861 107.946 403.774C108.287 403.725 108.565 403.676 108.78 403.627C109.004 403.579 109.165 403.501 109.262 403.393C109.369 403.286 109.423 403.125 109.423 402.911C109.423 402.579 109.306 402.297 109.072 402.063C108.848 401.819 108.482 401.697 107.975 401.697C107.693 401.697 107.41 401.746 107.127 401.844C106.854 401.941 106.616 402.102 106.411 402.326C106.216 402.54 106.084 402.833 106.016 403.203L104.583 402.75C104.671 402.38 104.812 402.053 105.007 401.77C105.202 401.478 105.446 401.234 105.738 401.039C106.031 400.835 106.367 400.683 106.747 400.586C107.137 400.479 107.561 400.425 108.019 400.425C108.692 400.425 109.248 400.537 109.686 400.761C110.125 400.986 110.451 401.332 110.666 401.8C110.89 402.258 111.002 402.848 111.002 403.569V405.119C111.002 405.441 111.007 405.782 111.017 406.142C111.036 406.493 111.056 406.849 111.075 407.21C111.105 407.561 111.139 407.897 111.178 408.219H109.73C109.701 407.926 109.672 407.624 109.642 407.312C109.623 407 109.603 406.683 109.584 406.362H109.365C109.228 406.732 109.033 407.073 108.78 407.385C108.536 407.697 108.229 407.946 107.858 408.131C107.498 408.316 107.074 408.409 106.586 408.409ZM107.142 407.181C107.347 407.181 107.551 407.146 107.756 407.078C107.971 407.01 108.18 406.908 108.385 406.771C108.599 406.625 108.794 406.44 108.97 406.216C109.155 405.991 109.316 405.723 109.452 405.411L109.438 404.037L109.818 404.11C109.652 404.256 109.443 404.368 109.189 404.446C108.945 404.524 108.677 404.588 108.385 404.636C108.092 404.675 107.8 404.724 107.508 404.783C107.225 404.831 106.962 404.904 106.718 405.002C106.484 405.09 106.294 405.216 106.148 405.382C106.011 405.548 105.943 405.777 105.943 406.069C105.943 406.43 106.055 406.708 106.279 406.903C106.503 407.088 106.791 407.181 107.142 407.181ZM119.622 408.409C119.095 408.409 118.627 408.355 118.218 408.248C117.808 408.141 117.458 407.99 117.165 407.795C116.882 407.59 116.663 407.346 116.507 407.064C116.351 406.781 116.259 406.474 116.229 406.142L117.516 405.718C117.516 406.001 117.604 406.255 117.779 406.479C117.955 406.703 118.203 406.878 118.525 407.005C118.856 407.122 119.251 407.181 119.709 407.181C120.245 407.181 120.66 407.093 120.952 406.917C121.245 406.742 121.391 406.498 121.391 406.186C121.391 405.952 121.308 405.767 121.142 405.631C120.986 405.494 120.757 405.382 120.455 405.294C120.163 405.207 119.817 405.124 119.417 405.046C119.056 404.968 118.696 404.88 118.335 404.783C117.984 404.675 117.657 404.539 117.355 404.373C117.063 404.207 116.824 403.993 116.639 403.73C116.463 403.457 116.376 403.116 116.376 402.706C116.376 402.238 116.497 401.839 116.741 401.507C116.985 401.166 117.336 400.903 117.794 400.718C118.262 400.523 118.817 400.425 119.461 400.425C120.085 400.425 120.621 400.518 121.069 400.703C121.527 400.888 121.893 401.147 122.166 401.478C122.439 401.809 122.605 402.199 122.663 402.648L121.318 403.043C121.298 402.74 121.206 402.487 121.04 402.282C120.884 402.077 120.67 401.926 120.397 401.829C120.124 401.722 119.802 401.668 119.432 401.668C118.944 401.668 118.559 401.756 118.276 401.931C118.003 402.107 117.867 402.346 117.867 402.648C117.867 402.882 117.95 403.072 118.116 403.218C118.291 403.354 118.525 403.467 118.817 403.554C119.12 403.632 119.461 403.71 119.841 403.788C120.231 403.866 120.606 403.954 120.967 404.051C121.328 404.149 121.649 404.281 121.932 404.446C122.224 404.602 122.453 404.817 122.619 405.09C122.795 405.353 122.882 405.689 122.882 406.099C122.882 406.596 122.746 407.02 122.473 407.371C122.21 407.712 121.834 407.97 121.347 408.146C120.86 408.321 120.284 408.409 119.622 408.409ZM126.392 408.409C125.973 408.409 125.597 408.331 125.266 408.175C124.935 408.009 124.671 407.765 124.476 407.444C124.291 407.122 124.199 406.722 124.199 406.245C124.199 405.865 124.267 405.538 124.403 405.265C124.549 404.982 124.764 404.748 125.047 404.563C125.339 404.368 125.71 404.212 126.158 404.095C126.606 403.969 127.138 403.861 127.752 403.774C128.093 403.725 128.371 403.676 128.585 403.627C128.809 403.579 128.97 403.501 129.068 403.393C129.175 403.286 129.229 403.125 129.229 402.911C129.229 402.579 129.112 402.297 128.878 402.063C128.653 401.819 128.288 401.697 127.781 401.697C127.498 401.697 127.216 401.746 126.933 401.844C126.66 401.941 126.421 402.102 126.216 402.326C126.021 402.54 125.89 402.833 125.822 403.203L124.389 402.75C124.476 402.38 124.618 402.053 124.813 401.77C125.008 401.478 125.251 401.234 125.544 401.039C125.836 400.835 126.173 400.683 126.553 400.586C126.943 400.479 127.367 400.425 127.825 400.425C128.497 400.425 129.053 400.537 129.492 400.761C129.93 400.986 130.257 401.332 130.471 401.8C130.696 402.258 130.808 402.848 130.808 403.569V405.119C130.808 405.441 130.813 405.782 130.822 406.142C130.842 406.493 130.861 406.849 130.881 407.21C130.91 407.561 130.944 407.897 130.983 408.219H129.536C129.506 407.926 129.477 407.624 129.448 407.312C129.428 407 129.409 406.683 129.389 406.362H129.17C129.034 406.732 128.839 407.073 128.585 407.385C128.342 407.697 128.034 407.946 127.664 408.131C127.303 408.316 126.879 408.409 126.392 408.409ZM126.948 407.181C127.152 407.181 127.357 407.146 127.562 407.078C127.776 407.01 127.986 406.908 128.19 406.771C128.405 406.625 128.6 406.44 128.775 406.216C128.961 405.991 129.121 405.723 129.258 405.411L129.243 404.037L129.623 404.11C129.458 404.256 129.248 404.368 128.995 404.446C128.751 404.524 128.483 404.588 128.19 404.636C127.898 404.675 127.606 404.724 127.313 404.783C127.03 404.831 126.767 404.904 126.523 405.002C126.29 405.09 126.099 405.216 125.953 405.382C125.817 405.548 125.749 405.777 125.749 406.069C125.749 406.43 125.861 406.708 126.085 406.903C126.309 407.088 126.597 407.181 126.948 407.181ZM133.519 408.219V403.028H132.203V401.8L134.148 401.902V401.639C133.875 401.551 133.646 401.424 133.46 401.259C133.285 401.083 133.148 400.883 133.051 400.659C132.963 400.425 132.919 400.177 132.919 399.913C132.919 399.504 133.017 399.148 133.212 398.846C133.407 398.534 133.68 398.295 134.031 398.129C134.391 397.954 134.81 397.866 135.288 397.866C135.688 397.866 136.048 397.92 136.37 398.027C136.692 398.125 136.955 398.256 137.16 398.422L137.013 399.884C136.809 399.718 136.57 399.582 136.297 399.475C136.024 399.367 135.756 399.314 135.493 399.314C135.181 399.314 134.923 399.411 134.718 399.606C134.523 399.792 134.425 400.084 134.425 400.484C134.425 400.727 134.464 400.932 134.542 401.098C134.62 401.263 134.723 401.4 134.849 401.507C134.976 401.605 135.103 401.683 135.23 401.741H137.057V403.028H135.069V408.219H133.519ZM141.808 408.409C141.204 408.409 140.668 408.321 140.2 408.146C139.732 407.96 139.337 407.702 139.015 407.371C138.694 407.029 138.45 406.625 138.284 406.157C138.119 405.679 138.036 405.143 138.036 404.549C138.036 403.954 138.119 403.408 138.284 402.911C138.45 402.404 138.684 401.965 138.986 401.595C139.298 401.225 139.678 400.937 140.127 400.732C140.585 400.528 141.101 400.425 141.677 400.425C142.213 400.425 142.69 400.513 143.11 400.688C143.538 400.864 143.899 401.132 144.192 401.493C144.484 401.844 144.703 402.287 144.85 402.823C144.996 403.35 145.049 403.969 145.01 404.68L139.059 404.724V403.73L144.075 403.686L143.519 404.3C143.577 403.715 143.529 403.233 143.373 402.852C143.217 402.472 142.993 402.19 142.7 402.004C142.408 401.819 142.071 401.727 141.691 401.727C141.262 401.727 140.887 401.839 140.565 402.063C140.253 402.277 140.01 402.594 139.834 403.013C139.659 403.432 139.571 403.934 139.571 404.519C139.571 405.397 139.766 406.06 140.156 406.508C140.546 406.947 141.101 407.166 141.823 407.166C142.125 407.166 142.383 407.132 142.598 407.064C142.812 406.986 142.993 406.888 143.139 406.771C143.285 406.644 143.402 406.498 143.49 406.332C143.587 406.157 143.665 405.977 143.724 405.791L145.113 406.113C145.025 406.474 144.889 406.796 144.703 407.078C144.528 407.351 144.304 407.59 144.031 407.795C143.758 407.99 143.436 408.141 143.066 408.248C142.705 408.355 142.286 408.409 141.808 408.409ZM145.689 410.193C145.864 409.744 145.986 409.335 146.054 408.964C146.132 408.594 146.176 408.238 146.186 407.897C146.205 407.546 146.215 407.19 146.215 406.83H147.706C147.706 407.385 147.672 407.873 147.604 408.292C147.536 408.711 147.443 409.077 147.326 409.389C147.209 409.7 147.092 409.969 146.975 410.193H145.689ZM154.522 408.409C154.103 408.409 153.728 408.331 153.396 408.175C153.065 408.009 152.802 407.765 152.607 407.444C152.422 407.122 152.329 406.722 152.329 406.245C152.329 405.865 152.397 405.538 152.534 405.265C152.68 404.982 152.894 404.748 153.177 404.563C153.47 404.368 153.84 404.212 154.288 404.095C154.737 403.969 155.268 403.861 155.882 403.774C156.223 403.725 156.501 403.676 156.716 403.627C156.94 403.579 157.101 403.501 157.198 403.393C157.305 403.286 157.359 403.125 157.359 402.911C157.359 402.579 157.242 402.297 157.008 402.063C156.784 401.819 156.418 401.697 155.911 401.697C155.629 401.697 155.346 401.746 155.063 401.844C154.79 401.941 154.552 402.102 154.347 402.326C154.152 402.54 154.02 402.833 153.952 403.203L152.519 402.75C152.607 402.38 152.748 402.053 152.943 401.77C153.138 401.478 153.382 401.234 153.674 401.039C153.967 400.835 154.303 400.683 154.683 400.586C155.073 400.479 155.497 400.425 155.955 400.425C156.628 400.425 157.184 400.537 157.622 400.761C158.061 400.986 158.387 401.332 158.602 401.8C158.826 402.258 158.938 402.848 158.938 403.569V405.119C158.938 405.441 158.943 405.782 158.953 406.142C158.972 406.493 158.992 406.849 159.011 407.21C159.041 407.561 159.075 407.897 159.114 408.219H157.666C157.637 407.926 157.608 407.624 157.578 407.312C157.559 407 157.539 406.683 157.52 406.362H157.301C157.164 406.732 156.969 407.073 156.716 407.385C156.472 407.697 156.165 407.946 155.794 408.131C155.434 408.316 155.01 408.409 154.522 408.409ZM155.078 407.181C155.283 407.181 155.487 407.146 155.692 407.078C155.907 407.01 156.116 406.908 156.321 406.771C156.535 406.625 156.73 406.44 156.906 406.216C157.091 405.991 157.252 405.723 157.388 405.411L157.374 404.037L157.754 404.11C157.588 404.256 157.379 404.368 157.125 404.446C156.881 404.524 156.613 404.588 156.321 404.636C156.028 404.675 155.736 404.724 155.444 404.783C155.161 404.831 154.898 404.904 154.654 405.002C154.42 405.09 154.23 405.216 154.084 405.382C153.947 405.548 153.879 405.777 153.879 406.069C153.879 406.43 153.991 406.708 154.215 406.903C154.439 407.088 154.727 407.181 155.078 407.181ZM164.398 408.409C163.745 408.409 163.179 408.306 162.702 408.102C162.234 407.897 161.849 407.614 161.547 407.254C161.244 406.893 161.02 406.479 160.874 406.011C160.728 405.543 160.655 405.041 160.655 404.505C160.655 403.93 160.733 403.398 160.889 402.911C161.045 402.414 161.274 401.98 161.576 401.61C161.888 401.229 162.273 400.937 162.731 400.732C163.189 400.528 163.72 400.425 164.325 400.425C164.919 400.425 165.436 400.528 165.875 400.732C166.323 400.927 166.689 401.21 166.971 401.58C167.254 401.941 167.439 402.365 167.527 402.852L166.036 403.306C166.006 403.023 165.923 402.76 165.787 402.516C165.65 402.272 165.456 402.082 165.202 401.946C164.949 401.8 164.642 401.727 164.281 401.727C163.94 401.727 163.642 401.795 163.389 401.931C163.135 402.058 162.926 402.248 162.76 402.502C162.594 402.745 162.468 403.033 162.38 403.364C162.302 403.696 162.263 404.061 162.263 404.461C162.263 405.007 162.336 405.484 162.482 405.894C162.638 406.294 162.877 406.605 163.199 406.83C163.521 407.044 163.925 407.151 164.412 407.151C164.822 407.151 165.158 407.078 165.421 406.932C165.685 406.786 165.889 406.591 166.036 406.347C166.182 406.094 166.279 405.801 166.328 405.47L167.746 405.806C167.688 406.206 167.571 406.571 167.395 406.903C167.22 407.224 166.991 407.497 166.708 407.722C166.425 407.946 166.089 408.116 165.699 408.233C165.319 408.35 164.885 408.409 164.398 408.409ZM171.69 408.38C170.939 408.38 170.379 408.175 170.008 407.765C169.647 407.356 169.467 406.727 169.467 405.879V401.917H168.341L168.37 400.615H169.102C169.355 400.615 169.545 400.576 169.672 400.498C169.799 400.411 169.877 400.259 169.906 400.045L170.052 398.919H171.002V400.615H173.093V401.946H171.002V405.835C171.002 406.216 171.09 406.488 171.266 406.654C171.441 406.82 171.699 406.903 172.041 406.903C172.226 406.903 172.411 406.883 172.596 406.844C172.791 406.796 172.976 406.708 173.152 406.581V408.116C172.859 408.214 172.591 408.282 172.348 408.321C172.104 408.36 171.885 408.38 171.69 408.38ZM174.729 408.219V400.615H176.309V408.219H174.729ZM175.519 399.343C175.178 399.343 174.919 399.275 174.744 399.138C174.569 398.992 174.481 398.778 174.481 398.495C174.481 398.222 174.569 398.013 174.744 397.866C174.919 397.72 175.178 397.647 175.519 397.647C175.87 397.647 176.133 397.72 176.309 397.866C176.484 398.013 176.572 398.222 176.572 398.495C176.572 398.778 176.484 398.992 176.309 399.138C176.133 399.275 175.87 399.343 175.519 399.343ZM180.312 408.219L177.651 400.63H179.42L181.321 406.917H181.54L183.456 400.63H185.167L182.505 408.219H180.312ZM189.687 408.409C189.083 408.409 188.546 408.321 188.079 408.146C187.611 407.96 187.216 407.702 186.894 407.371C186.573 407.029 186.329 406.625 186.163 406.157C185.997 405.679 185.915 405.143 185.915 404.549C185.915 403.954 185.997 403.408 186.163 402.911C186.329 402.404 186.563 401.965 186.865 401.595C187.177 401.225 187.557 400.937 188.005 400.732C188.464 400.528 188.98 400.425 189.555 400.425C190.092 400.425 190.569 400.513 190.988 400.688C191.417 400.864 191.778 401.132 192.07 401.493C192.363 401.844 192.582 402.287 192.728 402.823C192.875 403.35 192.928 403.969 192.889 404.68L186.938 404.724V403.73L191.953 403.686L191.398 404.3C191.456 403.715 191.408 403.233 191.252 402.852C191.096 402.472 190.871 402.19 190.579 402.004C190.287 401.819 189.95 401.727 189.57 401.727C189.141 401.727 188.766 401.839 188.444 402.063C188.132 402.277 187.889 402.594 187.713 403.013C187.538 403.432 187.45 403.934 187.45 404.519C187.45 405.397 187.645 406.06 188.035 406.508C188.425 406.947 188.98 407.166 189.702 407.166C190.004 407.166 190.262 407.132 190.477 407.064C190.691 406.986 190.871 406.888 191.018 406.771C191.164 406.644 191.281 406.498 191.369 406.332C191.466 406.157 191.544 405.977 191.603 405.791L192.992 406.113C192.904 406.474 192.767 406.796 192.582 407.078C192.407 407.351 192.183 407.59 191.91 407.795C191.637 407.99 191.315 408.141 190.945 408.248C190.584 408.355 190.165 408.409 189.687 408.409ZM201.171 408.409C200.645 408.409 200.177 408.355 199.768 408.248C199.358 408.141 199.007 407.99 198.715 407.795C198.432 407.59 198.213 407.346 198.057 407.064C197.901 406.781 197.808 406.474 197.779 406.142L199.066 405.718C199.066 406.001 199.153 406.255 199.329 406.479C199.504 406.703 199.753 406.878 200.075 407.005C200.406 407.122 200.801 407.181 201.259 407.181C201.795 407.181 202.209 407.093 202.502 406.917C202.794 406.742 202.941 406.498 202.941 406.186C202.941 405.952 202.858 405.767 202.692 405.631C202.536 405.494 202.307 405.382 202.005 405.294C201.712 405.207 201.366 405.124 200.967 405.046C200.606 404.968 200.245 404.88 199.885 404.783C199.534 404.675 199.207 404.539 198.905 404.373C198.612 404.207 198.374 403.993 198.188 403.73C198.013 403.457 197.925 403.116 197.925 402.706C197.925 402.238 198.047 401.839 198.291 401.507C198.534 401.166 198.885 400.903 199.344 400.718C199.811 400.523 200.367 400.425 201.01 400.425C201.634 400.425 202.171 400.518 202.619 400.703C203.077 400.888 203.443 401.147 203.716 401.478C203.989 401.809 204.154 402.199 204.213 402.648L202.867 403.043C202.848 402.74 202.755 402.487 202.59 402.282C202.434 402.077 202.219 401.926 201.946 401.829C201.673 401.722 201.352 401.668 200.981 401.668C200.494 401.668 200.109 401.756 199.826 401.931C199.553 402.107 199.417 402.346 199.417 402.648C199.417 402.882 199.5 403.072 199.665 403.218C199.841 403.354 200.075 403.467 200.367 403.554C200.669 403.632 201.01 403.71 201.391 403.788C201.781 403.866 202.156 403.954 202.517 404.051C202.877 404.149 203.199 404.281 203.482 404.446C203.774 404.602 204.003 404.817 204.169 405.09C204.344 405.353 204.432 405.689 204.432 406.099C204.432 406.596 204.296 407.02 204.023 407.371C203.759 407.712 203.384 407.97 202.897 408.146C202.409 408.321 201.834 408.409 201.171 408.409ZM206.116 410.617V404.446V400.615H207.49L207.446 402.618L207.68 402.633C207.787 402.175 207.948 401.785 208.163 401.463C208.377 401.132 208.65 400.878 208.981 400.703C209.323 400.518 209.727 400.425 210.195 400.425C210.877 400.425 211.453 400.596 211.921 400.937C212.398 401.278 212.754 401.751 212.988 402.355C213.232 402.96 213.353 403.652 213.353 404.432C213.353 405.192 213.237 405.874 213.003 406.479C212.778 407.073 212.437 407.546 211.979 407.897C211.521 408.238 210.96 408.409 210.297 408.409C209.781 408.409 209.352 408.306 209.011 408.102C208.67 407.887 208.392 407.609 208.177 407.268C207.963 406.917 207.797 406.532 207.68 406.113H207.417C207.475 406.376 207.524 406.649 207.563 406.932C207.602 407.205 207.636 407.478 207.665 407.751C207.695 408.024 207.709 408.282 207.709 408.526V410.617H206.116ZM209.83 407.078C210.229 407.078 210.566 406.966 210.838 406.742C211.121 406.508 211.336 406.191 211.482 405.791C211.628 405.392 211.701 404.934 211.701 404.417C211.701 403.881 211.623 403.418 211.467 403.028C211.321 402.638 211.107 402.336 210.824 402.121C210.541 401.897 210.205 401.785 209.815 401.785C209.474 401.785 209.172 401.863 208.908 402.019C208.645 402.175 208.421 402.38 208.236 402.633C208.06 402.877 207.924 403.15 207.826 403.452C207.739 403.744 207.695 404.032 207.695 404.315V404.534C207.695 404.729 207.724 404.939 207.782 405.163C207.841 405.387 207.924 405.611 208.031 405.835C208.148 406.06 208.289 406.269 208.455 406.464C208.631 406.649 208.83 406.8 209.055 406.917C209.289 407.025 209.547 407.078 209.83 407.078ZM216.923 408.409C216.504 408.409 216.129 408.331 215.797 408.175C215.466 408.009 215.203 407.765 215.008 407.444C214.823 407.122 214.73 406.722 214.73 406.245C214.73 405.865 214.798 405.538 214.935 405.265C215.081 404.982 215.295 404.748 215.578 404.563C215.871 404.368 216.241 404.212 216.689 404.095C217.138 403.969 217.669 403.861 218.283 403.774C218.624 403.725 218.902 403.676 219.117 403.627C219.341 403.579 219.502 403.501 219.599 403.393C219.706 403.286 219.76 403.125 219.76 402.911C219.76 402.579 219.643 402.297 219.409 402.063C219.185 401.819 218.819 401.697 218.312 401.697C218.03 401.697 217.747 401.746 217.464 401.844C217.191 401.941 216.953 402.102 216.748 402.326C216.553 402.54 216.421 402.833 216.353 403.203L214.92 402.75C215.008 402.38 215.149 402.053 215.344 401.77C215.539 401.478 215.783 401.234 216.075 401.039C216.368 400.835 216.704 400.683 217.084 400.586C217.474 400.479 217.898 400.425 218.356 400.425C219.029 400.425 219.585 400.537 220.023 400.761C220.462 400.986 220.788 401.332 221.003 401.8C221.227 402.258 221.339 402.848 221.339 403.569V405.119C221.339 405.441 221.344 405.782 221.354 406.142C221.373 406.493 221.393 406.849 221.412 407.21C221.442 407.561 221.476 407.897 221.515 408.219H220.067C220.038 407.926 220.009 407.624 219.979 407.312C219.96 407 219.94 406.683 219.921 406.362H219.702C219.565 406.732 219.37 407.073 219.117 407.385C218.873 407.697 218.566 407.946 218.195 408.131C217.835 408.316 217.411 408.409 216.923 408.409ZM217.479 407.181C217.684 407.181 217.888 407.146 218.093 407.078C218.308 407.01 218.517 406.908 218.722 406.771C218.936 406.625 219.131 406.44 219.307 406.216C219.492 405.991 219.653 405.723 219.789 405.411L219.775 404.037L220.155 404.11C219.989 404.256 219.78 404.368 219.526 404.446C219.282 404.524 219.014 404.588 218.722 404.636C218.429 404.675 218.137 404.724 217.845 404.783C217.562 404.831 217.299 404.904 217.055 405.002C216.821 405.09 216.631 405.216 216.485 405.382C216.348 405.548 216.28 405.777 216.28 406.069C216.28 406.43 216.392 406.708 216.616 406.903C216.84 407.088 217.128 407.181 217.479 407.181ZM226.799 408.409C226.146 408.409 225.58 408.306 225.103 408.102C224.635 407.897 224.25 407.614 223.948 407.254C223.645 406.893 223.421 406.479 223.275 406.011C223.129 405.543 223.056 405.041 223.056 404.505C223.056 403.93 223.134 403.398 223.29 402.911C223.446 402.414 223.675 401.98 223.977 401.61C224.289 401.229 224.674 400.937 225.132 400.732C225.59 400.528 226.121 400.425 226.726 400.425C227.32 400.425 227.837 400.528 228.276 400.732C228.724 400.927 229.09 401.21 229.372 401.58C229.655 401.941 229.84 402.365 229.928 402.852L228.437 403.306C228.407 403.023 228.324 402.76 228.188 402.516C228.051 402.272 227.857 402.082 227.603 401.946C227.35 401.8 227.043 401.727 226.682 401.727C226.341 401.727 226.043 401.795 225.79 401.931C225.536 402.058 225.327 402.248 225.161 402.502C224.995 402.745 224.869 403.033 224.781 403.364C224.703 403.696 224.664 404.061 224.664 404.461C224.664 405.007 224.737 405.484 224.883 405.894C225.039 406.294 225.278 406.605 225.6 406.83C225.922 407.044 226.326 407.151 226.813 407.151C227.223 407.151 227.559 407.078 227.822 406.932C228.086 406.786 228.29 406.591 228.437 406.347C228.583 406.094 228.68 405.801 228.729 405.47L230.147 405.806C230.089 406.206 229.972 406.571 229.796 406.903C229.621 407.224 229.392 407.497 229.109 407.722C228.826 407.946 228.49 408.116 228.1 408.233C227.72 408.35 227.286 408.409 226.799 408.409ZM234.924 408.409C234.32 408.409 233.784 408.321 233.316 408.146C232.848 407.96 232.453 407.702 232.131 407.371C231.81 407.029 231.566 406.625 231.4 406.157C231.235 405.679 231.152 405.143 231.152 404.549C231.152 403.954 231.235 403.408 231.4 402.911C231.566 402.404 231.8 401.965 232.102 401.595C232.414 401.225 232.794 400.937 233.243 400.732C233.701 400.528 234.217 400.425 234.793 400.425C235.329 400.425 235.806 400.513 236.226 400.688C236.654 400.864 237.015 401.132 237.308 401.493C237.6 401.844 237.819 402.287 237.966 402.823C238.112 403.35 238.165 403.969 238.126 404.68L232.175 404.724V403.73L237.191 403.686L236.635 404.3C236.693 403.715 236.645 403.233 236.489 402.852C236.333 402.472 236.109 402.19 235.816 402.004C235.524 401.819 235.187 401.727 234.807 401.727C234.378 401.727 234.003 401.839 233.681 402.063C233.369 402.277 233.126 402.594 232.95 403.013C232.775 403.432 232.687 403.934 232.687 404.519C232.687 405.397 232.882 406.06 233.272 406.508C233.662 406.947 234.217 407.166 234.939 407.166C235.241 407.166 235.499 407.132 235.714 407.064C235.928 406.986 236.109 406.888 236.255 406.771C236.401 406.644 236.518 406.498 236.606 406.332C236.703 406.157 236.781 405.977 236.84 405.791L238.229 406.113C238.141 406.474 238.005 406.796 237.819 407.078C237.644 407.351 237.42 407.59 237.147 407.795C236.874 407.99 236.552 408.141 236.182 408.248C235.821 408.355 235.402 408.409 234.924 408.409ZM246.028 408.38C245.278 408.38 244.717 408.175 244.347 407.765C243.986 407.356 243.806 406.727 243.806 405.879V401.917H242.68L242.709 400.615H243.44C243.694 400.615 243.884 400.576 244.01 400.498C244.137 400.411 244.215 400.259 244.244 400.045L244.391 398.919H245.341V400.615H247.432V401.946H245.341V405.835C245.341 406.216 245.429 406.488 245.604 406.654C245.78 406.82 246.038 406.903 246.379 406.903C246.564 406.903 246.75 406.883 246.935 406.844C247.13 406.796 247.315 406.708 247.491 406.581V408.116C247.198 408.214 246.93 408.282 246.686 408.321C246.443 408.36 246.223 408.38 246.028 408.38ZM252.287 408.409C251.556 408.409 250.908 408.253 250.343 407.941C249.777 407.629 249.334 407.176 249.012 406.581C248.7 405.986 248.544 405.255 248.544 404.388C248.544 403.501 248.71 402.765 249.041 402.18C249.373 401.595 249.816 401.156 250.372 400.864C250.937 400.571 251.571 400.425 252.273 400.425C252.994 400.425 253.637 400.576 254.203 400.878C254.768 401.181 255.212 401.629 255.533 402.224C255.865 402.818 256.031 403.559 256.031 404.446C256.031 405.324 255.865 406.06 255.533 406.654C255.212 407.239 254.768 407.678 254.203 407.97C253.637 408.263 252.999 408.409 252.287 408.409ZM252.346 407.151C252.784 407.151 253.16 407.049 253.472 406.844C253.784 406.64 254.022 406.337 254.188 405.938C254.354 405.538 254.437 405.06 254.437 404.505C254.437 403.93 254.349 403.437 254.174 403.028C253.998 402.609 253.745 402.287 253.413 402.063C253.091 401.839 252.697 401.727 252.229 401.727C251.81 401.727 251.439 401.829 251.117 402.034C250.806 402.229 250.567 402.526 250.401 402.926C250.235 403.315 250.152 403.793 250.152 404.359C250.152 405.246 250.347 405.933 250.737 406.42C251.127 406.908 251.663 407.151 252.346 407.151ZM96.5349 423.409C95.8818 423.409 95.3164 423.306 94.8388 423.102C94.3709 422.897 93.9858 422.614 93.6836 422.254C93.3814 421.893 93.1572 421.479 93.011 421.011C92.8648 420.543 92.7917 420.041 92.7917 419.505C92.7917 418.93 92.8697 418.398 93.0256 417.911C93.1816 417.414 93.4107 416.98 93.7129 416.61C94.0248 416.229 94.4099 415.937 94.868 415.732C95.3262 415.528 95.8575 415.425 96.4618 415.425C97.0565 415.425 97.5731 415.528 98.0118 415.732C98.4602 415.927 98.8257 416.21 99.1084 416.58C99.3911 416.941 99.5763 417.365 99.6641 417.852L98.1726 418.306C98.1434 418.023 98.0605 417.76 97.924 417.516C97.7876 417.272 97.5926 417.082 97.3392 416.946C97.0857 416.8 96.7786 416.727 96.418 416.727C96.0768 416.727 95.7795 416.795 95.526 416.931C95.2726 417.058 95.063 417.248 94.8973 417.502C94.7316 417.745 94.6048 418.033 94.5171 418.364C94.4391 418.696 94.4001 419.061 94.4001 419.461C94.4001 420.007 94.4732 420.484 94.6195 420.894C94.7754 421.294 95.0142 421.605 95.3359 421.83C95.6576 422.044 96.0622 422.151 96.5496 422.151C96.959 422.151 97.2953 422.078 97.5585 421.932C97.8217 421.786 98.0264 421.591 98.1726 421.347C98.3188 421.094 98.4163 420.801 98.4651 420.47L99.8834 420.806C99.8249 421.206 99.7079 421.571 99.5325 421.903C99.357 422.224 99.1279 422.497 98.8452 422.722C98.5625 422.946 98.2262 423.116 97.8363 423.233C97.4561 423.35 97.0224 423.409 96.5349 423.409ZM104.631 423.409C103.9 423.409 103.252 423.253 102.686 422.941C102.121 422.629 101.677 422.176 101.356 421.581C101.044 420.986 100.888 420.255 100.888 419.388C100.888 418.501 101.053 417.765 101.385 417.18C101.716 416.595 102.16 416.156 102.716 415.864C103.281 415.571 103.915 415.425 104.616 415.425C105.338 415.425 105.981 415.576 106.547 415.878C107.112 416.181 107.555 416.629 107.877 417.224C108.209 417.818 108.374 418.559 108.374 419.446C108.374 420.324 108.209 421.06 107.877 421.654C107.555 422.239 107.112 422.678 106.547 422.97C105.981 423.263 105.343 423.409 104.631 423.409ZM104.69 422.151C105.128 422.151 105.503 422.049 105.815 421.844C106.127 421.64 106.366 421.337 106.532 420.938C106.698 420.538 106.78 420.06 106.78 419.505C106.78 418.93 106.693 418.437 106.517 418.028C106.342 417.609 106.088 417.287 105.757 417.063C105.435 416.839 105.04 416.727 104.573 416.727C104.153 416.727 103.783 416.829 103.461 417.034C103.149 417.229 102.91 417.526 102.745 417.926C102.579 418.315 102.496 418.793 102.496 419.359C102.496 420.246 102.691 420.933 103.081 421.42C103.471 421.908 104.007 422.151 104.69 422.151ZM110.136 423.219V418.54V415.615H111.511L111.423 417.984H111.672C111.808 417.399 111.989 416.921 112.213 416.551C112.447 416.171 112.739 415.888 113.09 415.703C113.451 415.518 113.87 415.425 114.348 415.425C115.196 415.425 115.839 415.727 116.278 416.332C116.726 416.936 116.95 417.857 116.95 419.095V423.219H115.342V419.256C115.342 418.408 115.215 417.789 114.962 417.399C114.708 416.999 114.328 416.8 113.821 416.8C113.383 416.8 113.007 416.941 112.695 417.224C112.393 417.497 112.159 417.857 111.993 418.306C111.828 418.754 111.735 419.242 111.716 419.768V423.219H110.136ZM119.033 423.219V418.54V415.615H120.407L120.319 417.984H120.568C120.704 417.399 120.885 416.921 121.109 416.551C121.343 416.171 121.635 415.888 121.986 415.703C122.347 415.518 122.766 415.425 123.244 415.425C124.092 415.425 124.735 415.727 125.174 416.332C125.622 416.936 125.846 417.857 125.846 419.095V423.219H124.238V419.256C124.238 418.408 124.111 417.789 123.858 417.399C123.604 416.999 123.224 416.8 122.717 416.8C122.279 416.8 121.903 416.941 121.591 417.224C121.289 417.497 121.055 417.857 120.89 418.306C120.724 418.754 120.631 419.242 120.612 419.768V423.219H119.033ZM131.277 423.409C130.673 423.409 130.137 423.321 129.669 423.146C129.201 422.96 128.806 422.702 128.484 422.371C128.163 422.029 127.919 421.625 127.753 421.157C127.587 420.679 127.505 420.143 127.505 419.549C127.505 418.954 127.587 418.408 127.753 417.911C127.919 417.404 128.153 416.965 128.455 416.595C128.767 416.225 129.147 415.937 129.596 415.732C130.054 415.528 130.57 415.425 131.145 415.425C131.682 415.425 132.159 415.513 132.578 415.688C133.007 415.864 133.368 416.132 133.66 416.493C133.953 416.844 134.172 417.287 134.318 417.823C134.465 418.35 134.518 418.969 134.479 419.68L128.528 419.724V418.73L133.544 418.686L132.988 419.3C133.046 418.715 132.998 418.233 132.842 417.852C132.686 417.472 132.461 417.19 132.169 417.004C131.877 416.819 131.54 416.727 131.16 416.727C130.731 416.727 130.356 416.839 130.034 417.063C129.722 417.277 129.479 417.594 129.303 418.013C129.128 418.432 129.04 418.934 129.04 419.519C129.04 420.397 129.235 421.06 129.625 421.508C130.015 421.947 130.57 422.166 131.292 422.166C131.594 422.166 131.852 422.132 132.067 422.064C132.281 421.986 132.461 421.888 132.608 421.771C132.754 421.644 132.871 421.498 132.959 421.332C133.056 421.157 133.134 420.977 133.193 420.791L134.582 421.113C134.494 421.474 134.357 421.796 134.172 422.078C133.997 422.351 133.773 422.59 133.5 422.795C133.227 422.99 132.905 423.141 132.535 423.248C132.174 423.355 131.755 423.409 131.277 423.409ZM139.644 423.409C138.991 423.409 138.426 423.306 137.948 423.102C137.48 422.897 137.095 422.614 136.793 422.254C136.491 421.893 136.267 421.479 136.121 421.011C135.974 420.543 135.901 420.041 135.901 419.505C135.901 418.93 135.979 418.398 136.135 417.911C136.291 417.414 136.52 416.98 136.822 416.61C137.134 416.229 137.519 415.937 137.978 415.732C138.436 415.528 138.967 415.425 139.571 415.425C140.166 415.425 140.683 415.528 141.121 415.732C141.57 415.927 141.935 416.21 142.218 416.58C142.501 416.941 142.686 417.365 142.774 417.852L141.282 418.306C141.253 418.023 141.17 417.76 141.034 417.516C140.897 417.272 140.702 417.082 140.449 416.946C140.195 416.8 139.888 416.727 139.528 416.727C139.186 416.727 138.889 416.795 138.636 416.931C138.382 417.058 138.173 417.248 138.007 417.502C137.841 417.745 137.714 418.033 137.627 418.364C137.549 418.696 137.51 419.061 137.51 419.461C137.51 420.007 137.583 420.484 137.729 420.894C137.885 421.294 138.124 421.605 138.445 421.83C138.767 422.044 139.172 422.151 139.659 422.151C140.069 422.151 140.405 422.078 140.668 421.932C140.931 421.786 141.136 421.591 141.282 421.347C141.428 421.094 141.526 420.801 141.575 420.47L142.993 420.806C142.934 421.206 142.817 421.571 142.642 421.903C142.467 422.224 142.237 422.497 141.955 422.722C141.672 422.946 141.336 423.116 140.946 423.233C140.566 423.35 140.132 423.409 139.644 423.409ZM146.936 423.38C146.186 423.38 145.625 423.175 145.255 422.765C144.894 422.356 144.714 421.727 144.714 420.879V416.917H143.588L143.617 415.615H144.348C144.602 415.615 144.792 415.576 144.918 415.498C145.045 415.411 145.123 415.259 145.152 415.045L145.299 413.919H146.249V415.615H148.34V416.946H146.249V420.835C146.249 421.216 146.337 421.488 146.512 421.654C146.688 421.82 146.946 421.903 147.287 421.903C147.472 421.903 147.658 421.883 147.843 421.844C148.038 421.796 148.223 421.708 148.399 421.581V423.116C148.106 423.214 147.838 423.282 147.594 423.321C147.351 423.36 147.131 423.38 146.936 423.38ZM149.366 425.193C149.541 424.744 149.663 424.335 149.731 423.964C149.809 423.594 149.853 423.238 149.863 422.897C149.882 422.546 149.892 422.19 149.892 421.83H151.383C151.383 422.385 151.349 422.873 151.281 423.292C151.213 423.711 151.12 424.077 151.003 424.389C150.886 424.7 150.769 424.969 150.652 425.193H149.366ZM159.34 423.409C158.813 423.409 158.345 423.355 157.936 423.248C157.527 423.141 157.176 422.99 156.883 422.795C156.601 422.59 156.381 422.346 156.225 422.064C156.069 421.781 155.977 421.474 155.947 421.142L157.234 420.718C157.234 421.001 157.322 421.255 157.497 421.479C157.673 421.703 157.921 421.878 158.243 422.005C158.575 422.122 158.969 422.181 159.428 422.181C159.964 422.181 160.378 422.093 160.67 421.917C160.963 421.742 161.109 421.498 161.109 421.186C161.109 420.952 161.026 420.767 160.86 420.631C160.705 420.494 160.475 420.382 160.173 420.294C159.881 420.207 159.535 420.124 159.135 420.046C158.774 419.968 158.414 419.88 158.053 419.783C157.702 419.675 157.376 419.539 157.073 419.373C156.781 419.207 156.542 418.993 156.357 418.73C156.181 418.457 156.094 418.116 156.094 417.706C156.094 417.238 156.216 416.839 156.459 416.507C156.703 416.166 157.054 415.903 157.512 415.718C157.98 415.523 158.536 415.425 159.179 415.425C159.803 415.425 160.339 415.518 160.787 415.703C161.246 415.888 161.611 416.147 161.884 416.478C162.157 416.809 162.323 417.199 162.381 417.648L161.036 418.043C161.016 417.74 160.924 417.487 160.758 417.282C160.602 417.077 160.388 416.926 160.115 416.829C159.842 416.722 159.52 416.668 159.15 416.668C158.662 416.668 158.277 416.756 157.995 416.931C157.722 417.107 157.585 417.346 157.585 417.648C157.585 417.882 157.668 418.072 157.834 418.218C158.009 418.354 158.243 418.467 158.536 418.554C158.838 418.632 159.179 418.71 159.559 418.788C159.949 418.866 160.324 418.954 160.685 419.051C161.046 419.149 161.367 419.281 161.65 419.446C161.943 419.602 162.172 419.817 162.337 420.09C162.513 420.353 162.601 420.689 162.601 421.099C162.601 421.596 162.464 422.02 162.191 422.371C161.928 422.712 161.553 422.97 161.065 423.146C160.578 423.321 160.003 423.409 159.34 423.409ZM164.284 423.219V418.554V412.91H165.892V415.279C165.892 415.484 165.888 415.698 165.878 415.922C165.868 416.137 165.849 416.356 165.819 416.58C165.79 416.805 165.761 417.029 165.732 417.253C165.702 417.477 165.668 417.706 165.629 417.94H165.892C166.039 417.394 166.219 416.936 166.433 416.566C166.658 416.186 166.935 415.903 167.267 415.718C167.608 415.523 168.018 415.425 168.495 415.425C169.373 415.425 170.026 415.732 170.455 416.346C170.883 416.951 171.098 417.862 171.098 419.081V423.219H169.489V419.285C169.489 418.428 169.358 417.799 169.095 417.399C168.841 416.999 168.456 416.8 167.94 416.8C167.511 416.8 167.15 416.926 166.857 417.18C166.575 417.433 166.351 417.774 166.185 418.203C166.019 418.632 165.912 419.12 165.863 419.666V423.219H164.284ZM174.935 423.409C174.516 423.409 174.14 423.331 173.809 423.175C173.477 423.009 173.214 422.765 173.019 422.444C172.834 422.122 172.741 421.722 172.741 421.245C172.741 420.865 172.81 420.538 172.946 420.265C173.092 419.982 173.307 419.748 173.589 419.563C173.882 419.368 174.252 419.212 174.701 419.095C175.149 418.969 175.68 418.861 176.295 418.774C176.636 418.725 176.914 418.676 177.128 418.627C177.352 418.579 177.513 418.501 177.611 418.393C177.718 418.286 177.771 418.125 177.771 417.911C177.771 417.579 177.654 417.297 177.42 417.063C177.196 416.819 176.831 416.697 176.324 416.697C176.041 416.697 175.758 416.746 175.476 416.844C175.203 416.941 174.964 417.102 174.759 417.326C174.564 417.54 174.433 417.833 174.364 418.203L172.932 417.75C173.019 417.38 173.161 417.053 173.356 416.77C173.551 416.478 173.794 416.234 174.087 416.039C174.379 415.835 174.715 415.683 175.096 415.586C175.485 415.479 175.91 415.425 176.368 415.425C177.04 415.425 177.596 415.537 178.035 415.761C178.473 415.986 178.8 416.332 179.014 416.8C179.239 417.258 179.351 417.848 179.351 418.569V420.119C179.351 420.441 179.355 420.782 179.365 421.142C179.385 421.493 179.404 421.849 179.424 422.21C179.453 422.561 179.487 422.897 179.526 423.219H178.078C178.049 422.926 178.02 422.624 177.991 422.312C177.971 422 177.952 421.683 177.932 421.362H177.713C177.576 421.732 177.381 422.073 177.128 422.385C176.884 422.697 176.577 422.946 176.207 423.131C175.846 423.316 175.422 423.409 174.935 423.409ZM175.49 422.181C175.695 422.181 175.9 422.146 176.105 422.078C176.319 422.01 176.529 421.908 176.733 421.771C176.948 421.625 177.143 421.44 177.318 421.216C177.503 420.991 177.664 420.723 177.801 420.411L177.786 419.037L178.166 419.11C178.001 419.256 177.791 419.368 177.537 419.446C177.294 419.524 177.026 419.588 176.733 419.636C176.441 419.675 176.148 419.724 175.856 419.783C175.573 419.831 175.31 419.904 175.066 420.002C174.832 420.09 174.642 420.216 174.496 420.382C174.36 420.548 174.291 420.777 174.291 421.069C174.291 421.43 174.403 421.708 174.628 421.903C174.852 422.088 175.139 422.181 175.49 422.181ZM181.476 423.219V419.256V415.615H182.851L182.778 418.247H183.026C183.114 417.653 183.251 417.146 183.436 416.727C183.621 416.307 183.874 415.991 184.196 415.776C184.518 415.552 184.917 415.44 185.395 415.44C185.493 415.44 185.6 415.445 185.717 415.454C185.834 415.464 185.965 415.493 186.112 415.542L186.039 417.209C185.892 417.151 185.741 417.112 185.585 417.092C185.429 417.063 185.288 417.048 185.161 417.048C184.771 417.048 184.44 417.16 184.167 417.385C183.894 417.599 183.665 417.901 183.48 418.291C183.304 418.671 183.168 419.115 183.07 419.622V423.219H181.476ZM190.737 423.409C190.132 423.409 189.596 423.321 189.128 423.146C188.66 422.96 188.265 422.702 187.944 422.371C187.622 422.029 187.378 421.625 187.213 421.157C187.047 420.679 186.964 420.143 186.964 419.549C186.964 418.954 187.047 418.408 187.213 417.911C187.378 417.404 187.612 416.965 187.914 416.595C188.226 416.225 188.607 415.937 189.055 415.732C189.513 415.528 190.03 415.425 190.605 415.425C191.141 415.425 191.619 415.513 192.038 415.688C192.467 415.864 192.828 416.132 193.12 416.493C193.412 416.844 193.632 417.287 193.778 417.823C193.924 418.35 193.978 418.969 193.939 419.68L187.988 419.724V418.73L193.003 418.686L192.447 419.3C192.506 418.715 192.457 418.233 192.301 417.852C192.145 417.472 191.921 417.19 191.628 417.004C191.336 416.819 191 416.727 190.62 416.727C190.191 416.727 189.815 416.839 189.494 417.063C189.182 417.277 188.938 417.594 188.763 418.013C188.587 418.432 188.499 418.934 188.499 419.519C188.499 420.397 188.694 421.06 189.084 421.508C189.474 421.947 190.03 422.166 190.751 422.166C191.053 422.166 191.312 422.132 191.526 422.064C191.741 421.986 191.921 421.888 192.067 421.771C192.213 421.644 192.33 421.498 192.418 421.332C192.516 421.157 192.594 420.977 192.652 420.791L194.041 421.113C193.953 421.474 193.817 421.796 193.632 422.078C193.456 422.351 193.232 422.59 192.959 422.795C192.686 422.99 192.364 423.141 191.994 423.248C191.633 423.355 191.214 423.409 190.737 423.409ZM194.617 425.193C194.792 424.744 194.914 424.335 194.983 423.964C195.061 423.594 195.104 423.238 195.114 422.897C195.134 422.546 195.143 422.19 195.143 421.83H196.635C196.635 422.385 196.601 422.873 196.533 423.292C196.464 423.711 196.372 424.077 196.255 424.389C196.138 424.7 196.021 424.969 195.904 425.193H194.617ZM203.451 423.409C203.032 423.409 202.656 423.331 202.325 423.175C201.993 423.009 201.73 422.765 201.535 422.444C201.35 422.122 201.257 421.722 201.257 421.245C201.257 420.865 201.326 420.538 201.462 420.265C201.608 419.982 201.823 419.748 202.105 419.563C202.398 419.368 202.768 419.212 203.217 419.095C203.665 418.969 204.196 418.861 204.811 418.774C205.152 418.725 205.43 418.676 205.644 418.627C205.868 418.579 206.029 418.501 206.127 418.393C206.234 418.286 206.287 418.125 206.287 417.911C206.287 417.579 206.17 417.297 205.936 417.063C205.712 416.819 205.347 416.697 204.84 416.697C204.557 416.697 204.274 416.746 203.992 416.844C203.719 416.941 203.48 417.102 203.275 417.326C203.08 417.54 202.949 417.833 202.88 418.203L201.447 417.75C201.535 417.38 201.677 417.053 201.872 416.77C202.066 416.478 202.31 416.234 202.603 416.039C202.895 415.835 203.231 415.683 203.612 415.586C204.001 415.479 204.426 415.425 204.884 415.425C205.556 415.425 206.112 415.537 206.551 415.761C206.989 415.986 207.316 416.332 207.53 416.8C207.754 417.258 207.867 417.848 207.867 418.569V420.119C207.867 420.441 207.871 420.782 207.881 421.142C207.901 421.493 207.92 421.849 207.94 422.21C207.969 422.561 208.003 422.897 208.042 423.219H206.594C206.565 422.926 206.536 422.624 206.507 422.312C206.487 422 206.468 421.683 206.448 421.362H206.229C206.092 421.732 205.897 422.073 205.644 422.385C205.4 422.697 205.093 422.946 204.723 423.131C204.362 423.316 203.938 423.409 203.451 423.409ZM204.006 422.181C204.211 422.181 204.416 422.146 204.62 422.078C204.835 422.01 205.045 421.908 205.249 421.771C205.464 421.625 205.659 421.44 205.834 421.216C206.019 420.991 206.18 420.723 206.317 420.411L206.302 419.037L206.682 419.11C206.516 419.256 206.307 419.368 206.053 419.446C205.81 419.524 205.542 419.588 205.249 419.636C204.957 419.675 204.664 419.724 204.372 419.783C204.089 419.831 203.826 419.904 203.582 420.002C203.348 420.09 203.158 420.216 203.012 420.382C202.876 420.548 202.807 420.777 202.807 421.069C202.807 421.43 202.919 421.708 203.144 421.903C203.368 422.088 203.655 422.181 204.006 422.181ZM209.992 423.219V418.54V415.615H211.367L211.279 417.984H211.528C211.664 417.399 211.845 416.921 212.069 416.551C212.303 416.171 212.595 415.888 212.946 415.703C213.307 415.518 213.726 415.425 214.204 415.425C215.052 415.425 215.695 415.727 216.134 416.332C216.582 416.936 216.806 417.857 216.806 419.095V423.219H215.198V419.256C215.198 418.408 215.071 417.789 214.818 417.399C214.564 416.999 214.184 416.8 213.677 416.8C213.239 416.8 212.863 416.941 212.551 417.224C212.249 417.497 212.015 417.857 211.849 418.306C211.684 418.754 211.591 419.242 211.572 419.768V423.219H209.992ZM221.608 423.409C220.964 423.409 220.409 423.243 219.941 422.912C219.473 422.571 219.117 422.103 218.874 421.508C218.63 420.904 218.508 420.207 218.508 419.417C218.508 418.647 218.62 417.965 218.844 417.37C219.078 416.766 219.419 416.293 219.868 415.952C220.326 415.61 220.886 415.44 221.549 415.44C222.076 415.44 222.51 415.547 222.851 415.761C223.192 415.966 223.465 416.249 223.67 416.61C223.884 416.97 224.045 417.37 224.152 417.809H224.445C224.396 417.526 224.347 417.233 224.298 416.931C224.25 416.619 224.211 416.322 224.181 416.039C224.152 415.747 224.137 415.489 224.137 415.264V412.91H225.746V419.475V423.219H224.357L224.415 421.113H224.152C224.035 421.591 223.869 422 223.655 422.341C223.44 422.683 223.163 422.946 222.821 423.131C222.49 423.316 222.085 423.409 221.608 423.409ZM222.047 422.064C222.388 422.064 222.69 421.986 222.953 421.83C223.216 421.674 223.436 421.469 223.611 421.216C223.787 420.962 223.918 420.689 224.006 420.397C224.103 420.094 224.152 419.812 224.152 419.549V419.344C224.152 419.149 224.123 418.939 224.064 418.715C224.016 418.481 223.933 418.252 223.816 418.028C223.709 417.794 223.572 417.584 223.406 417.399C223.241 417.214 223.041 417.068 222.807 416.96C222.583 416.844 222.329 416.785 222.047 416.785C221.637 416.785 221.291 416.902 221.008 417.136C220.735 417.36 220.526 417.672 220.38 418.072C220.233 418.471 220.16 418.93 220.16 419.446C220.16 419.973 220.233 420.436 220.38 420.835C220.536 421.225 220.755 421.527 221.038 421.742C221.32 421.956 221.657 422.064 222.047 422.064ZM234.421 425.821C233.602 425.821 232.929 425.758 232.403 425.631C231.886 425.505 231.506 425.315 231.263 425.061C231.019 424.808 230.897 424.496 230.897 424.125C230.897 423.677 231.072 423.311 231.423 423.029C231.774 422.736 232.306 422.551 233.017 422.473V422.181C232.491 422.19 232.091 422.137 231.818 422.02C231.555 421.893 231.423 421.698 231.423 421.435C231.423 421.162 231.555 420.933 231.818 420.748C232.091 420.553 232.53 420.382 233.134 420.236V419.958C232.54 419.939 232.081 419.753 231.76 419.402C231.438 419.051 231.277 418.603 231.277 418.057C231.277 417.56 231.409 417.126 231.672 416.756C231.945 416.376 232.34 416.083 232.856 415.878C233.383 415.664 234.016 415.557 234.757 415.557H238.427V416.844L236.073 416.493V416.785C236.658 416.892 237.097 417.077 237.389 417.341C237.682 417.604 237.828 417.96 237.828 418.408C237.828 418.808 237.701 419.164 237.448 419.475C237.204 419.787 236.843 420.031 236.366 420.207C235.888 420.372 235.303 420.455 234.611 420.455C234.484 420.455 234.348 420.45 234.202 420.441C234.055 420.431 233.841 420.406 233.558 420.367C233.324 420.514 233.134 420.65 232.988 420.777C232.851 420.904 232.783 421.016 232.783 421.113C232.783 421.211 232.842 421.289 232.959 421.347C233.085 421.406 233.241 421.445 233.427 421.464C233.612 421.484 233.787 421.493 233.953 421.493H235.825C236.02 421.493 236.268 421.513 236.57 421.552C236.873 421.581 237.175 421.659 237.477 421.786C237.779 421.913 238.033 422.112 238.237 422.385C238.442 422.648 238.544 423.019 238.544 423.497C238.544 424.042 238.388 424.486 238.076 424.827C237.765 425.168 237.301 425.417 236.687 425.573C236.073 425.739 235.318 425.821 234.421 425.821ZM234.523 424.52C235.147 424.52 235.649 424.481 236.029 424.403C236.41 424.335 236.687 424.218 236.863 424.052C237.038 423.886 237.126 423.677 237.126 423.423C237.126 423.19 237.068 423.009 236.951 422.882C236.834 422.746 236.687 422.653 236.512 422.605C236.346 422.546 236.176 422.512 236 422.502C235.825 422.493 235.674 422.488 235.547 422.488H233.807C233.29 422.575 232.929 422.726 232.725 422.941C232.52 423.146 232.418 423.375 232.418 423.628C232.418 423.872 232.505 424.057 232.681 424.184C232.856 424.32 233.1 424.408 233.412 424.447C233.734 424.496 234.104 424.52 234.523 424.52ZM234.626 419.519C235.191 419.519 235.615 419.398 235.898 419.154C236.19 418.9 236.336 418.569 236.336 418.159C236.336 417.721 236.19 417.365 235.898 417.092C235.605 416.809 235.172 416.668 234.596 416.668C234.031 416.668 233.597 416.805 233.295 417.077C233.003 417.35 232.856 417.696 232.856 418.116C232.856 418.398 232.925 418.647 233.061 418.861C233.198 419.066 233.393 419.227 233.646 419.344C233.909 419.461 234.236 419.519 234.626 419.519ZM240.122 423.219V419.256V415.615H241.496L241.423 418.247H241.672C241.76 417.653 241.896 417.146 242.081 416.727C242.267 416.307 242.52 415.991 242.842 415.776C243.163 415.552 243.563 415.44 244.041 415.44C244.138 415.44 244.245 415.445 244.362 415.454C244.479 415.464 244.611 415.493 244.757 415.542L244.684 417.209C244.538 417.151 244.387 417.112 244.231 417.092C244.075 417.063 243.933 417.048 243.807 417.048C243.417 417.048 243.085 417.16 242.812 417.385C242.539 417.599 242.31 417.901 242.125 418.291C241.95 418.671 241.813 419.115 241.716 419.622V423.219H240.122ZM249.367 423.409C248.636 423.409 247.988 423.253 247.422 422.941C246.857 422.629 246.413 422.176 246.092 421.581C245.78 420.986 245.624 420.255 245.624 419.388C245.624 418.501 245.79 417.765 246.121 417.18C246.452 416.595 246.896 416.156 247.452 415.864C248.017 415.571 248.651 415.425 249.353 415.425C250.074 415.425 250.717 415.576 251.283 415.878C251.848 416.181 252.292 416.629 252.613 417.224C252.945 417.818 253.11 418.559 253.11 419.446C253.11 420.324 252.945 421.06 252.613 421.654C252.292 422.239 251.848 422.678 251.283 422.97C250.717 423.263 250.079 423.409 249.367 423.409ZM249.426 422.151C249.864 422.151 250.24 422.049 250.552 421.844C250.863 421.64 251.102 421.337 251.268 420.938C251.434 420.538 251.517 420.06 251.517 419.505C251.517 418.93 251.429 418.437 251.253 418.028C251.078 417.609 250.824 417.287 250.493 417.063C250.171 416.839 249.777 416.727 249.309 416.727C248.889 416.727 248.519 416.829 248.197 417.034C247.885 417.229 247.647 417.526 247.481 417.926C247.315 418.315 247.232 418.793 247.232 419.359C247.232 420.246 247.427 420.933 247.817 421.42C248.207 421.908 248.743 422.151 249.426 422.151ZM256.014 423.219L254.04 415.615H255.678L257.038 421.903H257.287L258.778 415.615H260.767L262.287 421.903H262.521L263.867 415.615H265.49L263.501 423.219H261.293L259.845 416.946H259.655L258.222 423.219H256.014ZM266.875 423.394C266.514 423.394 266.241 423.316 266.056 423.16C265.881 423.004 265.793 422.761 265.793 422.429C265.793 422.088 265.885 421.839 266.071 421.683C266.256 421.527 266.524 421.449 266.875 421.449C267.245 421.449 267.523 421.527 267.708 421.683C267.894 421.839 267.986 422.088 267.986 422.429C267.986 423.073 267.616 423.394 266.875 423.394Z" fill="white"/>
<defs>
<linearGradient id="paint0_linear_2355_10109" x1="180.304" y1="173.808" x2="180.304" y2="243.965" gradientUnits="userSpaceOnUse">
<stop offset="0.4" stop-color="#FFD007"/>
<stop offset="0.6" stop-color="#F5C806"/>
<stop offset="0.8" stop-color="#DCB405"/>
<stop offset="1" stop-color="#BF9C05"/>
</linearGradient>
</defs>
</svg>
