<svg width="114" height="162" viewBox="0 0 114 162" fill="none" xmlns="http://www.w3.org/2000/svg">
<rect width="114" height="162" rx="57" fill="#A35BFB"/>
<path d="M56.2698 60.7103C76.9029 60.7103 93.6294 54.536 93.6294 46.9196C93.6294 39.3032 76.9029 33.1289 56.2698 33.1289C35.6366 33.1289 18.9102 39.3032 18.9102 46.9196C18.9102 54.536 35.6366 60.7103 56.2698 60.7103Z" fill="#FFD007"/>
<path d="M57.0452 94.8119C77.6783 94.8119 94.4048 88.6376 94.4048 81.0212C94.4048 73.4048 77.6783 67.2305 57.0452 67.2305C36.412 67.2305 19.6855 73.4048 19.6855 81.0212C19.6855 88.6376 36.412 94.8119 57.0452 94.8119Z" fill="url(#paint0_linear_2355_8581)"/>
<path d="M57.5784 129.167C78.2115 129.167 94.938 122.993 94.938 115.377C94.938 107.76 78.2115 101.586 57.5784 101.586C36.9452 101.586 20.2188 107.76 20.2188 115.377C20.2188 122.993 36.9452 129.167 57.5784 129.167Z" fill="#FFD007"/>
<path d="M28.0093 89.565C29.8479 88.8249 32.5078 87.8505 35.7836 86.9699C44.2486 84.7027 51.0616 84.6183 56.5214 84.5809C61.0292 84.5528 66.3489 84.5528 73.2553 85.9019C78.4817 86.923 82.7655 88.3471 85.8734 89.565C85.0614 89.9866 83.8948 90.5394 82.4575 91.0921C81.2722 91.5418 79.6577 92.0758 76.4845 92.7597C75.1779 93.0408 72.182 93.6498 68.1315 94.1369C64.5103 94.5679 61.6171 94.7084 60.0025 94.7646C56.3347 94.8864 53.5255 94.7646 52.5175 94.7272C51.6963 94.6897 48.8777 94.5398 45.1072 94.062C41.4674 93.6029 38.7235 93.2469 35.2423 92.2632C33.3851 91.7385 30.8839 90.9047 28 89.5744L28.0093 89.565Z" fill="#DE0686"/>
<path d="M27.3008 72.6465C29.2047 71.8221 31.9579 70.7353 35.3551 69.7703C43.6054 67.4188 50.2597 67.297 56.0461 67.222C58.37 67.1939 65.3697 67.1846 72.8174 68.4775C77.4652 69.2832 80.6197 70.3043 81.833 70.7166C83.6062 71.3162 85.0715 71.9158 86.1448 72.3748C85.1275 72.862 83.7369 73.471 82.0476 74.0799C81.4876 74.2767 79.4717 75.0168 76.0746 75.7476C74.7679 76.0286 71.7721 76.6376 67.7216 77.1248C64.1004 77.5557 61.2072 77.6962 59.5926 77.7525C55.9248 77.8743 53.1156 77.7525 52.1076 77.715C51.2863 77.6775 48.4678 77.5276 44.6973 77.0498C41.6081 76.6563 38.6216 76.2722 34.8324 75.251C32.9099 74.7357 30.306 73.9207 27.3008 72.6465Z" fill="#A35BFB"/>
<path d="M27.0801 55.5377C29.0867 54.6758 31.8679 53.6171 35.2744 52.7177C39.2688 51.659 42.386 51.2843 45.3912 50.9377C47.8551 50.6472 51.5043 50.3193 55.9748 50.2912C64.5517 50.235 70.8701 51.2937 72.8113 51.6497C76.8151 52.3711 79.4657 53.1674 81.2296 53.767C83.0215 54.376 84.5055 54.9849 85.5694 55.4534C84.7014 55.9124 83.4695 56.5027 81.9576 57.0835C80.8936 57.4864 79.2697 58.0485 75.9845 58.7511C74.6779 59.0322 71.682 59.6412 67.6316 60.1283C64.0104 60.5593 61.1172 60.6998 59.5026 60.756C55.8348 60.8778 53.0256 60.756 52.0176 60.7186C51.1963 60.6811 48.3778 60.5312 44.6073 60.0534C41.3781 59.6412 38.4476 59.2664 34.7424 58.2546C32.7731 57.7206 30.1226 56.8774 27.0801 55.5377Z" fill="#DE0686"/>
<path d="M57.0452 112.156C77.6783 112.156 94.4048 105.981 94.4048 98.3649C94.4048 90.7485 77.6783 84.5742 57.0452 84.5742C36.412 84.5742 19.6855 90.7485 19.6855 98.3649C19.6855 105.981 36.412 112.156 57.0452 112.156Z" stroke="black" stroke-width="0.403476" stroke-miterlimit="10"/>
<path d="M56.428 77.8549C77.0612 77.8549 93.7876 71.6806 93.7876 64.0641C93.7876 56.4477 77.0612 50.2734 56.428 50.2734C35.7948 50.2734 19.0684 56.4477 19.0684 64.0641C19.0684 71.6806 35.7948 77.8549 56.428 77.8549Z" stroke="black" stroke-width="0.403476" stroke-miterlimit="10"/>
<path d="M27.5449 107.002C29.4488 106.178 32.202 105.091 35.5992 104.126C43.8495 101.774 50.5039 101.652 56.2903 101.578C58.6142 101.549 65.6139 101.54 73.0615 102.833C77.7093 103.639 80.8638 104.66 82.0771 105.072C83.8504 105.672 85.3156 106.271 86.3889 106.73C85.3716 107.217 83.981 107.826 82.2918 108.435C81.7318 108.632 79.7159 109.372 76.3187 110.103C75.0121 110.384 72.0162 110.993 67.9658 111.48C64.3446 111.911 61.4514 112.052 59.8368 112.108C56.169 112.23 53.3597 112.108 52.3518 112.07C51.5305 112.033 48.712 111.883 44.9415 111.405C41.8523 111.012 38.8657 110.628 35.0766 109.606C33.154 109.091 30.5501 108.276 27.5449 107.002Z" fill="#A35BFB"/>
<rect x="6.1974" y="9.1974" width="101.066" height="143.032" rx="50.5332" stroke="#FFD007" stroke-width="0.39479"/>
<path d="M57.1337 145.319C57.1262 145.319 57.1198 145.318 57.1144 145.315C57.109 145.313 57.1046 145.31 57.1012 145.306C57.0978 145.302 57.0953 145.297 57.0938 145.292C57.0922 145.287 57.0914 145.281 57.0914 145.275C57.0914 145.27 57.0922 145.264 57.0938 145.259C57.0953 145.253 57.0978 145.248 57.1011 145.244C57.1044 145.24 57.1088 145.237 57.1141 145.234C57.1195 145.232 57.1259 145.23 57.1334 145.23C57.1423 145.23 57.1494 145.232 57.1548 145.236C57.1603 145.239 57.1641 145.243 57.1662 145.248C57.1685 145.254 57.1691 145.259 57.1681 145.265L57.1459 145.267C57.1462 145.263 57.1457 145.26 57.1447 145.258C57.1437 145.255 57.1422 145.253 57.1402 145.252C57.1382 145.251 57.1358 145.25 57.1329 145.25C57.1304 145.25 57.1281 145.251 57.1261 145.252C57.1242 145.253 57.1226 145.254 57.1212 145.256C57.1199 145.258 57.1189 145.261 57.1182 145.264C57.1175 145.267 57.1172 145.27 57.1172 145.274C57.1172 145.28 57.1178 145.284 57.119 145.288C57.1202 145.292 57.1221 145.295 57.1245 145.297C57.1271 145.299 57.1302 145.3 57.134 145.3C57.138 145.3 57.1409 145.299 57.1429 145.297C57.1449 145.295 57.1463 145.292 57.1469 145.29C57.1475 145.287 57.1476 145.284 57.1472 145.281L57.1708 145.282C57.1715 145.287 57.1713 145.291 57.1702 145.296C57.1691 145.3 57.1671 145.304 57.164 145.307C57.1611 145.311 57.157 145.314 57.152 145.316C57.147 145.318 57.1409 145.319 57.1337 145.319ZM57.2181 145.319C57.2101 145.319 57.2029 145.317 57.1967 145.314C57.1905 145.311 57.1856 145.306 57.1821 145.299C57.1786 145.293 57.1769 145.285 57.1769 145.275C57.1769 145.264 57.1787 145.256 57.1823 145.25C57.186 145.243 57.1909 145.238 57.1972 145.235C57.2035 145.232 57.2107 145.23 57.2186 145.23C57.2268 145.23 57.234 145.232 57.2402 145.235C57.2464 145.239 57.2512 145.243 57.2546 145.25C57.2581 145.256 57.2598 145.265 57.2598 145.275C57.2598 145.285 57.258 145.293 57.2543 145.3C57.2507 145.306 57.2457 145.311 57.2394 145.314C57.2331 145.317 57.226 145.319 57.2181 145.319ZM57.2187 145.3C57.222 145.3 57.2248 145.299 57.227 145.297C57.2292 145.295 57.2309 145.292 57.2321 145.289C57.2332 145.285 57.2338 145.281 57.2338 145.276C57.2338 145.27 57.2332 145.266 57.2319 145.262C57.2306 145.258 57.2288 145.255 57.2264 145.253C57.224 145.251 57.2212 145.25 57.2178 145.25C57.2146 145.25 57.2119 145.251 57.2097 145.253C57.2075 145.255 57.2058 145.258 57.2046 145.261C57.2035 145.265 57.2029 145.269 57.2029 145.274C57.2029 145.282 57.2043 145.289 57.207 145.293C57.2099 145.298 57.2138 145.3 57.2187 145.3ZM57.2691 145.316V145.27V145.233H57.2908V145.267H57.2921C57.2928 145.258 57.2942 145.251 57.2964 145.246C57.2986 145.24 57.3015 145.236 57.3051 145.234C57.3088 145.232 57.3132 145.23 57.3183 145.23C57.3235 145.23 57.3278 145.232 57.3311 145.234C57.3344 145.237 57.3368 145.241 57.3384 145.246C57.34 145.252 57.3407 145.258 57.3406 145.267H57.3419C57.3426 145.258 57.3442 145.251 57.3465 145.246C57.3488 145.24 57.3519 145.237 57.3557 145.234C57.3595 145.232 57.364 145.23 57.3692 145.23C57.3735 145.23 57.3773 145.231 57.3804 145.233C57.3836 145.234 57.3862 145.237 57.3884 145.24C57.3906 145.243 57.3922 145.247 57.3933 145.252C57.3943 145.257 57.3949 145.262 57.3949 145.269V145.316H57.3692V145.271C57.3692 145.267 57.3688 145.264 57.3681 145.261C57.3674 145.258 57.3664 145.256 57.365 145.255C57.3637 145.254 57.3619 145.253 57.3598 145.253C57.3571 145.253 57.3545 145.254 57.3522 145.257C57.3499 145.259 57.348 145.263 57.3465 145.268C57.3451 145.273 57.3444 145.279 57.3444 145.287V145.316H57.3194V145.27C57.3194 145.266 57.319 145.263 57.3183 145.261C57.3176 145.258 57.3166 145.256 57.3151 145.255C57.3137 145.254 57.312 145.253 57.3098 145.253C57.3072 145.253 57.3047 145.254 57.3024 145.256C57.3002 145.258 57.2983 145.262 57.2968 145.267C57.2955 145.272 57.2948 145.279 57.2948 145.287V145.316H57.2691ZM57.4055 145.316V145.27V145.233H57.4273V145.267H57.4285C57.4293 145.258 57.4307 145.251 57.4328 145.246C57.435 145.24 57.4379 145.236 57.4415 145.234C57.4452 145.232 57.4496 145.23 57.4547 145.23C57.46 145.23 57.4643 145.232 57.4676 145.234C57.4708 145.237 57.4733 145.241 57.4748 145.246C57.4764 145.252 57.4772 145.258 57.4771 145.267H57.4783C57.4791 145.258 57.4806 145.251 57.4829 145.246C57.4853 145.24 57.4883 145.237 57.4921 145.234C57.4959 145.232 57.5004 145.23 57.5056 145.23C57.5099 145.23 57.5137 145.231 57.5169 145.233C57.52 145.234 57.5227 145.237 57.5248 145.24C57.527 145.243 57.5287 145.247 57.5297 145.252C57.5308 145.257 57.5313 145.262 57.5313 145.269V145.316H57.5056V145.271C57.5056 145.267 57.5052 145.264 57.5045 145.261C57.5039 145.258 57.5029 145.256 57.5015 145.255C57.5001 145.254 57.4984 145.253 57.4963 145.253C57.4935 145.253 57.491 145.254 57.4886 145.257C57.4863 145.259 57.4844 145.263 57.4829 145.268C57.4816 145.273 57.4809 145.279 57.4809 145.287V145.316H57.4558V145.27C57.4558 145.266 57.4554 145.263 57.4547 145.261C57.4541 145.258 57.453 145.256 57.4515 145.255C57.4502 145.254 57.4484 145.253 57.4463 145.253C57.4437 145.253 57.4412 145.254 57.4388 145.256C57.4366 145.258 57.4348 145.262 57.4333 145.267C57.4319 145.272 57.4312 145.279 57.4312 145.287V145.316H57.4055ZM57.568 145.319C57.5589 145.319 57.5521 145.315 57.5477 145.309C57.5434 145.303 57.5412 145.293 57.5412 145.28V145.233H57.5669V145.28C57.5669 145.286 57.5677 145.29 57.5694 145.292C57.5712 145.295 57.5738 145.296 57.577 145.296C57.5794 145.296 57.5815 145.296 57.5834 145.294C57.5854 145.293 57.5871 145.291 57.5886 145.289C57.5901 145.286 57.5912 145.283 57.5919 145.279C57.5928 145.275 57.5932 145.271 57.5932 145.265V145.233H57.6189V145.279V145.316H57.597V145.284H57.5959C57.5953 145.292 57.5939 145.299 57.5916 145.304C57.5894 145.309 57.5863 145.313 57.5824 145.315C57.5785 145.317 57.5737 145.319 57.568 145.319ZM57.6303 145.316V145.269V145.233H57.652V145.267H57.6533C57.6539 145.259 57.6553 145.252 57.6574 145.246C57.6595 145.241 57.6625 145.237 57.6664 145.234C57.6703 145.232 57.6753 145.23 57.6813 145.23C57.6904 145.23 57.6973 145.233 57.7018 145.239C57.7065 145.246 57.7088 145.254 57.7088 145.266V145.316H57.6831V145.27C57.6831 145.264 57.6822 145.26 57.6804 145.257C57.6787 145.254 57.676 145.253 57.6721 145.253C57.669 145.253 57.6662 145.254 57.6637 145.256C57.6613 145.258 57.6594 145.262 57.658 145.267C57.6567 145.272 57.656 145.278 57.656 145.287V145.316H57.6303ZM57.7193 145.316V145.233H57.745V145.316H57.7193ZM57.732 145.227C57.7272 145.227 57.7234 145.226 57.7208 145.224C57.7182 145.222 57.717 145.218 57.717 145.215C57.717 145.211 57.7182 145.208 57.7208 145.206C57.7234 145.203 57.7272 145.202 57.732 145.202C57.737 145.202 57.7407 145.203 57.7433 145.206C57.7459 145.208 57.7472 145.211 57.7472 145.215C57.7472 145.218 57.7459 145.221 57.7433 145.223C57.7407 145.226 57.737 145.227 57.732 145.227ZM57.79 145.318C57.7801 145.318 57.7728 145.316 57.7679 145.311C57.7632 145.306 57.7608 145.298 57.7608 145.287V145.253H57.7516V145.236H57.7521C57.7586 145.236 57.7633 145.233 57.766 145.23C57.7688 145.226 57.7705 145.221 57.7711 145.214V145.213H57.7862V145.233H57.8054V145.253H57.7862V145.285C57.7862 145.289 57.7871 145.292 57.789 145.294C57.791 145.295 57.7935 145.296 57.7963 145.296C57.7978 145.296 57.7993 145.296 57.8009 145.295C57.8025 145.295 57.804 145.294 57.8054 145.294V145.316C57.8021 145.317 57.7992 145.318 57.7966 145.318C57.7941 145.318 57.7919 145.318 57.79 145.318ZM57.8449 145.341C57.8417 145.341 57.8382 145.341 57.8344 145.34C57.8306 145.34 57.8268 145.339 57.823 145.338C57.8192 145.337 57.8156 145.335 57.8124 145.333L57.8182 145.308C57.822 145.311 57.8263 145.314 57.8309 145.315C57.8357 145.317 57.8399 145.317 57.8436 145.317C57.8488 145.317 57.8531 145.316 57.8566 145.314C57.8602 145.312 57.8629 145.309 57.8647 145.305C57.8665 145.301 57.8674 145.296 57.8674 145.291V145.276H57.866C57.8658 145.284 57.8645 145.29 57.8623 145.294C57.8602 145.299 57.8573 145.302 57.8536 145.305C57.8499 145.307 57.8456 145.308 57.8407 145.308C57.8347 145.308 57.8297 145.306 57.8257 145.303C57.8218 145.3 57.8188 145.296 57.8168 145.29C57.8148 145.283 57.8138 145.276 57.8138 145.267V145.233H57.8393V145.26C57.8393 145.269 57.8403 145.275 57.8422 145.28C57.8441 145.284 57.8471 145.286 57.8512 145.286C57.8533 145.286 57.8552 145.285 57.8568 145.284C57.8585 145.283 57.8598 145.281 57.8609 145.279C57.8619 145.277 57.8627 145.274 57.8633 145.271C57.8638 145.267 57.8641 145.263 57.8641 145.259V145.233H57.8896V145.292C57.8896 145.297 57.889 145.303 57.8879 145.308C57.8867 145.313 57.8849 145.317 57.8826 145.321C57.8803 145.325 57.8773 145.329 57.8737 145.332C57.8702 145.335 57.8661 145.337 57.8612 145.339C57.8564 145.34 57.851 145.341 57.8449 145.341Z" fill="white"/>
<path d="M57.158 145.54C57.156 145.54 57.1543 145.54 57.1527 145.539C57.1512 145.538 57.15 145.537 57.1491 145.535C57.1482 145.534 57.1478 145.532 57.1478 145.53C57.1478 145.528 57.1481 145.527 57.1487 145.525C57.1494 145.524 57.1504 145.523 57.1517 145.522C57.1531 145.521 57.1548 145.52 57.1569 145.52C57.159 145.519 57.1614 145.519 57.1643 145.518C57.1659 145.518 57.1672 145.518 57.1682 145.518C57.1692 145.517 57.1699 145.517 57.1704 145.517C57.1709 145.516 57.1711 145.515 57.1711 145.514C57.1711 145.513 57.1706 145.512 57.1695 145.51C57.1685 145.509 57.1668 145.509 57.1644 145.509C57.1631 145.509 57.1618 145.509 57.1605 145.509C57.1592 145.51 57.1581 145.511 57.1571 145.512C57.1562 145.513 57.1556 145.514 57.1553 145.516L57.1486 145.514C57.1491 145.512 57.1497 145.51 57.1506 145.509C57.1515 145.508 57.1527 145.507 57.154 145.506C57.1554 145.505 57.1569 145.504 57.1587 145.504C57.1605 145.503 57.1625 145.503 57.1646 145.503C57.1677 145.503 57.1703 145.503 57.1724 145.504C57.1744 145.505 57.1759 145.507 57.1769 145.509C57.178 145.511 57.1785 145.514 57.1785 145.517V145.525C57.1785 145.526 57.1785 145.528 57.1786 145.529C57.1786 145.531 57.1787 145.533 57.1788 145.534C57.179 145.536 57.1791 145.538 57.1793 145.539H57.1726C57.1724 145.538 57.1723 145.536 57.1722 145.535C57.1721 145.533 57.172 145.532 57.1719 145.53H57.1709C57.1702 145.532 57.1693 145.534 57.1682 145.535C57.167 145.537 57.1656 145.538 57.1639 145.539C57.1622 145.54 57.1602 145.54 57.158 145.54ZM57.1605 145.534C57.1615 145.534 57.1624 145.534 57.1634 145.534C57.1644 145.533 57.1654 145.533 57.1663 145.532C57.1673 145.532 57.1682 145.531 57.169 145.53C57.1699 145.529 57.1706 145.527 57.1713 145.526L57.1712 145.52L57.173 145.52C57.1722 145.521 57.1712 145.521 57.1701 145.522C57.1689 145.522 57.1677 145.522 57.1663 145.522C57.165 145.523 57.1636 145.523 57.1622 145.523C57.1609 145.523 57.1597 145.524 57.1586 145.524C57.1575 145.525 57.1566 145.525 57.1559 145.526C57.1553 145.527 57.155 145.528 57.155 145.529C57.155 145.531 57.1555 145.532 57.1565 145.533C57.1576 145.534 57.1589 145.534 57.1605 145.534ZM57.2186 145.54C57.2161 145.54 57.2139 145.54 57.212 145.539C57.2101 145.539 57.2085 145.538 57.2071 145.537C57.2058 145.536 57.2048 145.535 57.2041 145.534C57.2034 145.532 57.2029 145.531 57.2028 145.529L57.2088 145.527C57.2088 145.529 57.2092 145.53 57.21 145.531C57.2108 145.532 57.212 145.533 57.2135 145.533C57.215 145.534 57.2168 145.534 57.219 145.534C57.2215 145.534 57.2234 145.534 57.2247 145.533C57.2261 145.532 57.2268 145.531 57.2268 145.53C57.2268 145.529 57.2264 145.528 57.2256 145.527C57.2249 145.526 57.2238 145.526 57.2224 145.525C57.2211 145.525 57.2195 145.525 57.2176 145.524C57.2159 145.524 57.2142 145.524 57.2126 145.523C57.2109 145.523 57.2094 145.522 57.208 145.521C57.2067 145.52 57.2055 145.519 57.2047 145.518C57.2039 145.517 57.2035 145.515 57.2035 145.513C57.2035 145.511 57.204 145.509 57.2052 145.508C57.2063 145.506 57.2079 145.505 57.2101 145.504C57.2122 145.503 57.2148 145.503 57.2178 145.503C57.2207 145.503 57.2232 145.503 57.2253 145.504C57.2274 145.505 57.2291 145.506 57.2304 145.508C57.2316 145.509 57.2324 145.511 57.2327 145.513L57.2264 145.515C57.2263 145.514 57.2259 145.512 57.2251 145.511C57.2244 145.511 57.2234 145.51 57.2222 145.509C57.2209 145.509 57.2194 145.509 57.2177 145.509C57.2154 145.509 57.2136 145.509 57.2123 145.51C57.211 145.511 57.2104 145.512 57.2104 145.513C57.2104 145.514 57.2108 145.515 57.2116 145.516C57.2124 145.516 57.2135 145.517 57.2148 145.517C57.2162 145.518 57.2178 145.518 57.2196 145.518C57.2214 145.519 57.2231 145.519 57.2248 145.52C57.2265 145.52 57.228 145.521 57.2293 145.522C57.2307 145.522 57.2317 145.523 57.2325 145.525C57.2333 145.526 57.2337 145.527 57.2337 145.529C57.2337 145.532 57.2331 145.533 57.2318 145.535C57.2306 145.537 57.2288 145.538 57.2266 145.539C57.2243 145.54 57.2216 145.54 57.2186 145.54ZM57.25 145.54C57.2481 145.54 57.2463 145.54 57.2448 145.539C57.2433 145.538 57.242 145.537 57.2411 145.535C57.2403 145.534 57.2398 145.532 57.2398 145.53C57.2398 145.528 57.2401 145.527 57.2408 145.525C57.2415 145.524 57.2425 145.523 57.2438 145.522C57.2451 145.521 57.2469 145.52 57.2489 145.52C57.251 145.519 57.2535 145.519 57.2563 145.518C57.2579 145.518 57.2592 145.518 57.2602 145.518C57.2613 145.517 57.262 145.517 57.2625 145.517C57.263 145.516 57.2632 145.515 57.2632 145.514C57.2632 145.513 57.2627 145.512 57.2616 145.51C57.2605 145.509 57.2588 145.509 57.2565 145.509C57.2552 145.509 57.2539 145.509 57.2525 145.509C57.2513 145.51 57.2502 145.511 57.2492 145.512C57.2483 145.513 57.2477 145.514 57.2474 145.516L57.2407 145.514C57.2411 145.512 57.2418 145.51 57.2427 145.509C57.2436 145.508 57.2447 145.507 57.2461 145.506C57.2474 145.505 57.249 145.504 57.2508 145.504C57.2526 145.503 57.2546 145.503 57.2567 145.503C57.2598 145.503 57.2624 145.503 57.2644 145.504C57.2665 145.505 57.268 145.507 57.269 145.509C57.27 145.511 57.2706 145.514 57.2706 145.517V145.525C57.2706 145.526 57.2706 145.528 57.2706 145.529C57.2707 145.531 57.2708 145.533 57.2709 145.534C57.271 145.536 57.2712 145.538 57.2714 145.539H57.2646C57.2645 145.538 57.2644 145.536 57.2642 145.535C57.2641 145.533 57.2641 145.532 57.264 145.53H57.2629C57.2623 145.532 57.2614 145.534 57.2602 145.535C57.2591 145.537 57.2577 145.538 57.2559 145.539C57.2543 145.54 57.2523 145.54 57.25 145.54ZM57.2526 145.534C57.2536 145.534 57.2545 145.534 57.2555 145.534C57.2565 145.533 57.2574 145.533 57.2584 145.532C57.2594 145.532 57.2603 145.531 57.2611 145.53C57.262 145.529 57.2627 145.527 57.2633 145.526L57.2633 145.52L57.265 145.52C57.2643 145.521 57.2633 145.521 57.2621 145.522C57.261 145.522 57.2597 145.522 57.2584 145.522C57.257 145.523 57.2557 145.523 57.2543 145.523C57.253 145.523 57.2518 145.524 57.2506 145.524C57.2495 145.525 57.2487 145.525 57.248 145.526C57.2474 145.527 57.247 145.528 57.247 145.529C57.247 145.531 57.2476 145.532 57.2486 145.533C57.2496 145.534 57.251 145.534 57.2526 145.534ZM57.2832 145.539V145.515H57.277V145.509L57.2861 145.51V145.508C57.2848 145.508 57.2837 145.507 57.2829 145.507C57.2821 145.506 57.2814 145.505 57.281 145.504C57.2806 145.503 57.2804 145.502 57.2804 145.5C57.2804 145.499 57.2808 145.497 57.2817 145.495C57.2826 145.494 57.2839 145.493 57.2855 145.492C57.2872 145.491 57.2892 145.491 57.2914 145.491C57.2932 145.491 57.2949 145.491 57.2964 145.492C57.2979 145.492 57.2991 145.493 57.3001 145.494L57.2994 145.5C57.2984 145.5 57.2973 145.499 57.2961 145.498C57.2948 145.498 57.2936 145.498 57.2923 145.498C57.2909 145.498 57.2897 145.498 57.2887 145.499C57.2878 145.5 57.2874 145.501 57.2874 145.503C57.2874 145.504 57.2876 145.505 57.2879 145.506C57.2883 145.507 57.2888 145.507 57.2893 145.508C57.2899 145.508 57.2905 145.509 57.2911 145.509H57.2996V145.515H57.2904V145.539H57.2832ZM57.3217 145.54C57.3189 145.54 57.3164 145.54 57.3142 145.539C57.312 145.538 57.3102 145.537 57.3087 145.535C57.3072 145.534 57.3061 145.532 57.3053 145.529C57.3045 145.527 57.3042 145.525 57.3042 145.522C57.3042 145.519 57.3045 145.517 57.3053 145.514C57.3061 145.512 57.3072 145.51 57.3086 145.508C57.31 145.507 57.3118 145.505 57.3139 145.504C57.316 145.503 57.3184 145.503 57.3211 145.503C57.3236 145.503 57.3258 145.503 57.3277 145.504C57.3297 145.505 57.3314 145.506 57.3328 145.508C57.3341 145.509 57.3351 145.511 57.3358 145.514C57.3365 145.516 57.3368 145.519 57.3366 145.523L57.3089 145.523V145.518L57.3322 145.518L57.3296 145.521C57.3299 145.518 57.3297 145.516 57.329 145.514C57.3282 145.512 57.3272 145.511 57.3258 145.51C57.3245 145.509 57.3229 145.509 57.3211 145.509C57.3192 145.509 57.3174 145.509 57.3159 145.51C57.3145 145.511 57.3133 145.513 57.3125 145.515C57.3117 145.517 57.3113 145.519 57.3113 145.522C57.3113 145.526 57.3122 145.529 57.314 145.531C57.3158 145.533 57.3184 145.534 57.3218 145.534C57.3232 145.534 57.3244 145.534 57.3254 145.534C57.3264 145.533 57.3272 145.533 57.3279 145.532C57.3286 145.532 57.3291 145.531 57.3295 145.53C57.33 145.529 57.3303 145.529 57.3306 145.528L57.3371 145.529C57.3366 145.531 57.336 145.532 57.3351 145.534C57.3343 145.535 57.3333 145.536 57.332 145.537C57.3308 145.538 57.3293 145.539 57.3275 145.539C57.3259 145.54 57.3239 145.54 57.3217 145.54ZM57.3397 145.548C57.3405 145.546 57.3411 145.544 57.3414 145.543C57.3418 145.541 57.342 145.539 57.342 145.538C57.3421 145.536 57.3422 145.534 57.3422 145.533H57.3491C57.3491 145.535 57.3489 145.537 57.3486 145.539C57.3483 145.541 57.3479 145.543 57.3473 145.545C57.3468 145.546 57.3463 145.547 57.3457 145.548H57.3397ZM57.3808 145.54C57.3788 145.54 57.3771 145.54 57.3756 145.539C57.374 145.538 57.3728 145.537 57.3719 145.535C57.371 145.534 57.3706 145.532 57.3706 145.53C57.3706 145.528 57.3709 145.527 57.3715 145.525C57.3722 145.524 57.3732 145.523 57.3745 145.522C57.3759 145.521 57.3776 145.52 57.3797 145.52C57.3818 145.519 57.3843 145.519 57.3871 145.518C57.3887 145.518 57.39 145.518 57.391 145.518C57.392 145.517 57.3928 145.517 57.3932 145.517C57.3937 145.516 57.394 145.515 57.394 145.514C57.394 145.513 57.3934 145.512 57.3923 145.51C57.3913 145.509 57.3896 145.509 57.3872 145.509C57.3859 145.509 57.3846 145.509 57.3833 145.509C57.382 145.51 57.3809 145.511 57.38 145.512C57.3791 145.513 57.3785 145.514 57.3781 145.516L57.3715 145.514C57.3719 145.512 57.3725 145.51 57.3735 145.509C57.3744 145.508 57.3755 145.507 57.3768 145.506C57.3782 145.505 57.3798 145.504 57.3815 145.504C57.3834 145.503 57.3853 145.503 57.3875 145.503C57.3906 145.503 57.3932 145.503 57.3952 145.504C57.3972 145.505 57.3988 145.507 57.3998 145.509C57.4008 145.511 57.4013 145.514 57.4013 145.517V145.525C57.4013 145.526 57.4013 145.528 57.4014 145.529C57.4015 145.531 57.4016 145.533 57.4017 145.534C57.4018 145.536 57.402 145.538 57.4021 145.539H57.3954C57.3953 145.538 57.3951 145.536 57.395 145.535C57.3949 145.533 57.3948 145.532 57.3947 145.53H57.3937C57.3931 145.532 57.3922 145.534 57.391 145.535C57.3899 145.537 57.3884 145.538 57.3867 145.539C57.385 145.54 57.3831 145.54 57.3808 145.54ZM57.3834 145.534C57.3843 145.534 57.3853 145.534 57.3862 145.534C57.3872 145.533 57.3882 145.533 57.3892 145.532C57.3901 145.532 57.3911 145.531 57.3919 145.53C57.3927 145.529 57.3935 145.527 57.3941 145.526L57.394 145.52L57.3958 145.52C57.395 145.521 57.3941 145.521 57.3929 145.522C57.3918 145.522 57.3905 145.522 57.3892 145.522C57.3878 145.523 57.3864 145.523 57.3851 145.523C57.3838 145.523 57.3825 145.524 57.3814 145.524C57.3803 145.525 57.3794 145.525 57.3788 145.526C57.3781 145.527 57.3778 145.528 57.3778 145.529C57.3778 145.531 57.3783 145.532 57.3794 145.533C57.3804 145.534 57.3817 145.534 57.3834 145.534ZM57.4267 145.54C57.4237 145.54 57.421 145.539 57.4188 145.539C57.4166 145.538 57.4148 145.536 57.4134 145.535C57.412 145.533 57.411 145.531 57.4103 145.529C57.4096 145.527 57.4093 145.524 57.4093 145.522C57.4093 145.519 57.4097 145.517 57.4104 145.514C57.4111 145.512 57.4122 145.51 57.4136 145.508C57.415 145.507 57.4168 145.505 57.419 145.504C57.4211 145.503 57.4235 145.503 57.4264 145.503C57.4291 145.503 57.4315 145.503 57.4336 145.504C57.4356 145.505 57.4373 145.506 57.4387 145.508C57.44 145.51 57.4408 145.512 57.4412 145.514L57.4343 145.516C57.4342 145.515 57.4338 145.514 57.4332 145.513C57.4325 145.511 57.4316 145.511 57.4304 145.51C57.4293 145.509 57.4278 145.509 57.4262 145.509C57.4246 145.509 57.4232 145.509 57.422 145.51C57.4208 145.51 57.4199 145.511 57.4191 145.512C57.4183 145.514 57.4177 145.515 57.4173 145.516C57.417 145.518 57.4168 145.52 57.4168 145.522C57.4168 145.524 57.4171 145.526 57.4178 145.528C57.4185 145.53 57.4196 145.532 57.4211 145.533C57.4226 145.534 57.4245 145.534 57.4268 145.534C57.4287 145.534 57.4302 145.534 57.4315 145.533C57.4327 145.532 57.4336 145.531 57.4343 145.53C57.435 145.529 57.4354 145.528 57.4357 145.526L57.4423 145.528C57.442 145.53 57.4414 145.531 57.4406 145.533C57.4398 145.534 57.4388 145.536 57.4374 145.537C57.4361 145.538 57.4346 145.539 57.4327 145.539C57.431 145.54 57.429 145.54 57.4267 145.54ZM57.4606 145.54C57.4571 145.54 57.4545 145.539 57.4528 145.537C57.4511 145.535 57.4503 145.532 57.4503 145.528V145.51H57.445L57.4452 145.504H57.4486C57.4497 145.504 57.4506 145.504 57.4512 145.503C57.4518 145.503 57.4522 145.502 57.4523 145.501L57.453 145.496H57.4574V145.504H57.4671V145.51H57.4574V145.528C57.4574 145.53 57.4578 145.531 57.4586 145.532C57.4594 145.533 57.4606 145.533 57.4622 145.533C57.4631 145.533 57.4639 145.533 57.4648 145.533C57.4657 145.532 57.4666 145.532 57.4674 145.531V145.539C57.466 145.539 57.4648 145.539 57.4637 145.54C57.4625 145.54 57.4615 145.54 57.4606 145.54ZM57.4747 145.539V145.504H57.4821V145.539H57.4747ZM57.4784 145.498C57.4768 145.498 57.4756 145.497 57.4748 145.497C57.474 145.496 57.4736 145.495 57.4736 145.494C57.4736 145.493 57.474 145.492 57.4748 145.491C57.4756 145.49 57.4768 145.49 57.4784 145.49C57.48 145.49 57.4813 145.49 57.4821 145.491C57.4829 145.492 57.4833 145.493 57.4833 145.494C57.4833 145.495 57.4829 145.496 57.4821 145.497C57.4813 145.497 57.48 145.498 57.4784 145.498ZM57.5007 145.539L57.4883 145.504H57.4965L57.5054 145.533H57.5064L57.5153 145.504H57.5232L57.5109 145.539H57.5007ZM57.5443 145.54C57.5414 145.54 57.539 145.54 57.5368 145.539C57.5346 145.538 57.5328 145.537 57.5313 145.535C57.5298 145.534 57.5286 145.532 57.5279 145.529C57.5271 145.527 57.5267 145.525 57.5267 145.522C57.5267 145.519 57.5271 145.517 57.5279 145.514C57.5286 145.512 57.5297 145.51 57.5311 145.508C57.5326 145.507 57.5344 145.505 57.5364 145.504C57.5386 145.503 57.541 145.503 57.5436 145.503C57.5461 145.503 57.5484 145.503 57.5503 145.504C57.5523 145.505 57.554 145.506 57.5553 145.508C57.5567 145.509 57.5577 145.511 57.5584 145.514C57.5591 145.516 57.5593 145.519 57.5591 145.523L57.5315 145.523V145.518L57.5548 145.518L57.5522 145.521C57.5525 145.518 57.5523 145.516 57.5515 145.514C57.5508 145.512 57.5498 145.511 57.5484 145.51C57.547 145.509 57.5455 145.509 57.5437 145.509C57.5417 145.509 57.54 145.509 57.5385 145.51C57.537 145.511 57.5359 145.513 57.5351 145.515C57.5343 145.517 57.5339 145.519 57.5339 145.522C57.5339 145.526 57.5348 145.529 57.5366 145.531C57.5384 145.533 57.541 145.534 57.5443 145.534C57.5457 145.534 57.5469 145.534 57.5479 145.534C57.5489 145.533 57.5498 145.533 57.5504 145.532C57.5511 145.532 57.5517 145.531 57.5521 145.53C57.5525 145.529 57.5529 145.529 57.5532 145.528L57.5596 145.529C57.5592 145.531 57.5586 145.532 57.5577 145.534C57.5569 145.535 57.5559 145.536 57.5546 145.537C57.5533 145.538 57.5518 145.539 57.5501 145.539C57.5484 145.54 57.5465 145.54 57.5443 145.54ZM57.5976 145.54C57.5952 145.54 57.593 145.54 57.5911 145.539C57.5892 145.539 57.5876 145.538 57.5862 145.537C57.5849 145.536 57.5839 145.535 57.5832 145.534C57.5824 145.532 57.582 145.531 57.5819 145.529L57.5879 145.527C57.5879 145.529 57.5883 145.53 57.5891 145.531C57.5899 145.532 57.5911 145.533 57.5925 145.533C57.5941 145.534 57.5959 145.534 57.5981 145.534C57.6005 145.534 57.6025 145.534 57.6038 145.533C57.6052 145.532 57.6059 145.531 57.6059 145.53C57.6059 145.529 57.6055 145.528 57.6047 145.527C57.604 145.526 57.6029 145.526 57.6015 145.525C57.6002 145.525 57.5985 145.525 57.5967 145.524C57.595 145.524 57.5933 145.524 57.5917 145.523C57.59 145.523 57.5885 145.522 57.5871 145.521C57.5857 145.52 57.5846 145.519 57.5838 145.518C57.583 145.517 57.5826 145.515 57.5826 145.513C57.5826 145.511 57.5831 145.509 57.5843 145.508C57.5854 145.506 57.587 145.505 57.5891 145.504C57.5913 145.503 57.5939 145.503 57.5969 145.503C57.5998 145.503 57.6023 145.503 57.6044 145.504C57.6065 145.505 57.6082 145.506 57.6095 145.508C57.6107 145.509 57.6115 145.511 57.6118 145.513L57.6055 145.515C57.6054 145.514 57.605 145.512 57.6042 145.511C57.6035 145.511 57.6025 145.51 57.6012 145.509C57.6 145.509 57.5985 145.509 57.5968 145.509C57.5945 145.509 57.5927 145.509 57.5914 145.51C57.5901 145.511 57.5895 145.512 57.5895 145.513C57.5895 145.514 57.5899 145.515 57.5906 145.516C57.5915 145.516 57.5925 145.517 57.5939 145.517C57.5953 145.518 57.5969 145.518 57.5987 145.518C57.6005 145.519 57.6022 145.519 57.6039 145.52C57.6056 145.52 57.6071 145.521 57.6084 145.522C57.6097 145.522 57.6108 145.523 57.6116 145.525C57.6124 145.526 57.6128 145.527 57.6128 145.529C57.6128 145.532 57.6122 145.533 57.6109 145.535C57.6097 145.537 57.6079 145.538 57.6057 145.539C57.6034 145.54 57.6007 145.54 57.5976 145.54ZM57.6206 145.55V145.522V145.504H57.627L57.6268 145.513L57.6279 145.513C57.6284 145.511 57.6291 145.509 57.6301 145.508C57.6311 145.506 57.6324 145.505 57.6339 145.504C57.6355 145.503 57.6374 145.503 57.6396 145.503C57.6428 145.503 57.6454 145.504 57.6476 145.505C57.6498 145.507 57.6515 145.509 57.6526 145.512C57.6537 145.515 57.6543 145.518 57.6543 145.521C57.6543 145.525 57.6537 145.528 57.6526 145.531C57.6516 145.534 57.65 145.536 57.6479 145.538C57.6458 145.539 57.6431 145.54 57.6401 145.54C57.6377 145.54 57.6357 145.539 57.6341 145.539C57.6325 145.538 57.6312 145.536 57.6302 145.535C57.6292 145.533 57.6284 145.531 57.6279 145.529H57.6267C57.6269 145.53 57.6272 145.532 57.6274 145.533C57.6275 145.534 57.6277 145.536 57.6278 145.537C57.628 145.538 57.628 145.539 57.628 145.54V145.55H57.6206ZM57.6379 145.534C57.6397 145.534 57.6413 145.533 57.6426 145.532C57.6439 145.531 57.6449 145.53 57.6456 145.528C57.6463 145.526 57.6466 145.524 57.6466 145.521C57.6466 145.519 57.6462 145.517 57.6455 145.515C57.6448 145.513 57.6438 145.512 57.6425 145.511C57.6412 145.51 57.6396 145.509 57.6378 145.509C57.6362 145.509 57.6348 145.51 57.6336 145.51C57.6324 145.511 57.6313 145.512 57.6305 145.513C57.6297 145.514 57.629 145.515 57.6286 145.517C57.6282 145.518 57.628 145.52 57.628 145.521V145.522C57.628 145.523 57.6281 145.524 57.6284 145.525C57.6286 145.526 57.629 145.527 57.6295 145.528C57.6301 145.529 57.6307 145.53 57.6315 145.531C57.6323 145.532 57.6332 145.532 57.6343 145.533C57.6354 145.534 57.6366 145.534 57.6379 145.534ZM57.6709 145.54C57.6689 145.54 57.6672 145.54 57.6656 145.539C57.6641 145.538 57.6629 145.537 57.662 145.535C57.6611 145.534 57.6607 145.532 57.6607 145.53C57.6607 145.528 57.661 145.527 57.6616 145.525C57.6623 145.524 57.6633 145.523 57.6646 145.522C57.666 145.521 57.6677 145.52 57.6698 145.52C57.6719 145.519 57.6743 145.519 57.6772 145.518C57.6788 145.518 57.6801 145.518 57.6811 145.518C57.6821 145.517 57.6829 145.517 57.6833 145.517C57.6838 145.516 57.6841 145.515 57.6841 145.514C57.6841 145.513 57.6835 145.512 57.6824 145.51C57.6814 145.509 57.6797 145.509 57.6773 145.509C57.676 145.509 57.6747 145.509 57.6734 145.509C57.6721 145.51 57.671 145.511 57.6701 145.512C57.6691 145.513 57.6685 145.514 57.6682 145.516L57.6616 145.514C57.662 145.512 57.6626 145.51 57.6635 145.509C57.6644 145.508 57.6656 145.507 57.6669 145.506C57.6683 145.505 57.6698 145.504 57.6716 145.504C57.6734 145.503 57.6754 145.503 57.6775 145.503C57.6807 145.503 57.6832 145.503 57.6853 145.504C57.6873 145.505 57.6888 145.507 57.6898 145.509C57.6909 145.511 57.6914 145.514 57.6914 145.517V145.525C57.6914 145.526 57.6914 145.528 57.6915 145.529C57.6916 145.531 57.6916 145.533 57.6917 145.534C57.6919 145.536 57.692 145.538 57.6922 145.539H57.6855C57.6853 145.538 57.6852 145.536 57.6851 145.535C57.685 145.533 57.6849 145.532 57.6848 145.53H57.6838C57.6831 145.532 57.6822 145.534 57.6811 145.535C57.6799 145.537 57.6785 145.538 57.6768 145.539C57.6751 145.54 57.6731 145.54 57.6709 145.54ZM57.6735 145.534C57.6744 145.534 57.6754 145.534 57.6763 145.534C57.6773 145.533 57.6783 145.533 57.6792 145.532C57.6802 145.532 57.6811 145.531 57.6819 145.53C57.6828 145.529 57.6836 145.527 57.6842 145.526L57.6841 145.52L57.6859 145.52C57.6851 145.521 57.6841 145.521 57.683 145.522C57.6818 145.522 57.6806 145.522 57.6792 145.522C57.6779 145.523 57.6765 145.523 57.6752 145.523C57.6738 145.523 57.6726 145.524 57.6715 145.524C57.6704 145.525 57.6695 145.525 57.6688 145.526C57.6682 145.527 57.6679 145.528 57.6679 145.529C57.6679 145.531 57.6684 145.532 57.6694 145.533C57.6705 145.534 57.6718 145.534 57.6735 145.534ZM57.7168 145.54C57.7137 145.54 57.7111 145.539 57.7089 145.539C57.7067 145.538 57.7049 145.536 57.7035 145.535C57.7021 145.533 57.7011 145.531 57.7004 145.529C57.6997 145.527 57.6994 145.524 57.6994 145.522C57.6994 145.519 57.6997 145.517 57.7005 145.514C57.7012 145.512 57.7023 145.51 57.7037 145.508C57.7051 145.507 57.7069 145.505 57.709 145.504C57.7112 145.503 57.7136 145.503 57.7164 145.503C57.7192 145.503 57.7216 145.503 57.7236 145.504C57.7257 145.505 57.7274 145.506 57.7287 145.508C57.7301 145.51 57.7309 145.512 57.7313 145.514L57.7244 145.516C57.7243 145.515 57.7239 145.514 57.7232 145.513C57.7226 145.511 57.7217 145.511 57.7205 145.51C57.7193 145.509 57.7179 145.509 57.7162 145.509C57.7146 145.509 57.7133 145.509 57.7121 145.51C57.7109 145.51 57.7099 145.511 57.7092 145.512C57.7084 145.514 57.7078 145.515 57.7074 145.516C57.707 145.518 57.7069 145.52 57.7069 145.522C57.7069 145.524 57.7072 145.526 57.7079 145.528C57.7086 145.53 57.7097 145.532 57.7112 145.533C57.7127 145.534 57.7146 145.534 57.7168 145.534C57.7187 145.534 57.7203 145.534 57.7215 145.533C57.7228 145.532 57.7237 145.531 57.7244 145.53C57.7251 145.529 57.7255 145.528 57.7257 145.526L57.7323 145.528C57.7321 145.53 57.7315 145.531 57.7307 145.533C57.7299 145.534 57.7288 145.536 57.7275 145.537C57.7262 145.538 57.7246 145.539 57.7228 145.539C57.7211 145.54 57.719 145.54 57.7168 145.54ZM57.7545 145.54C57.7517 145.54 57.7492 145.54 57.7471 145.539C57.7449 145.538 57.7431 145.537 57.7416 145.535C57.7401 145.534 57.7389 145.532 57.7382 145.529C57.7374 145.527 57.737 145.525 57.737 145.522C57.737 145.519 57.7374 145.517 57.7382 145.514C57.7389 145.512 57.74 145.51 57.7414 145.508C57.7429 145.507 57.7446 145.505 57.7467 145.504C57.7489 145.503 57.7513 145.503 57.7539 145.503C57.7564 145.503 57.7586 145.503 57.7606 145.504C57.7626 145.505 57.7643 145.506 57.7656 145.508C57.767 145.509 57.768 145.511 57.7687 145.514C57.7694 145.516 57.7696 145.519 57.7694 145.523L57.7418 145.523V145.518L57.7651 145.518L57.7625 145.521C57.7628 145.518 57.7625 145.516 57.7618 145.514C57.7611 145.512 57.7601 145.511 57.7587 145.51C57.7573 145.509 57.7558 145.509 57.754 145.509C57.752 145.509 57.7503 145.509 57.7488 145.51C57.7473 145.511 57.7462 145.513 57.7454 145.515C57.7446 145.517 57.7441 145.519 57.7441 145.522C57.7441 145.526 57.7451 145.529 57.7469 145.531C57.7487 145.533 57.7513 145.534 57.7546 145.534C57.756 145.534 57.7572 145.534 57.7582 145.534C57.7592 145.533 57.7601 145.533 57.7607 145.532C57.7614 145.532 57.762 145.531 57.7624 145.53C57.7628 145.529 57.7632 145.529 57.7635 145.528L57.7699 145.529C57.7695 145.531 57.7689 145.532 57.768 145.534C57.7672 145.535 57.7661 145.536 57.7649 145.537C57.7636 145.538 57.7621 145.539 57.7604 145.539C57.7587 145.54 57.7568 145.54 57.7545 145.54ZM57.8062 145.54C57.8027 145.54 57.8001 145.539 57.7983 145.537C57.7967 145.535 57.7958 145.532 57.7958 145.528V145.51H57.7906L57.7907 145.504H57.7941C57.7953 145.504 57.7962 145.504 57.7968 145.503C57.7974 145.503 57.7977 145.502 57.7979 145.501L57.7986 145.496H57.803V145.504H57.8127V145.51H57.803V145.528C57.803 145.53 57.8034 145.531 57.8042 145.532C57.805 145.533 57.8062 145.533 57.8078 145.533C57.8087 145.533 57.8095 145.533 57.8104 145.533C57.8113 145.532 57.8121 145.532 57.813 145.531V145.539C57.8116 145.539 57.8104 145.539 57.8092 145.54C57.8081 145.54 57.8071 145.54 57.8062 145.54ZM57.8353 145.54C57.8319 145.54 57.8288 145.539 57.8262 145.538C57.8236 145.536 57.8215 145.534 57.82 145.531C57.8186 145.529 57.8179 145.525 57.8179 145.521C57.8179 145.517 57.8186 145.514 57.8202 145.511C57.8217 145.508 57.8238 145.506 57.8264 145.505C57.829 145.504 57.8319 145.503 57.8352 145.503C57.8385 145.503 57.8415 145.504 57.8442 145.505C57.8468 145.506 57.8489 145.508 57.8503 145.511C57.8519 145.514 57.8527 145.517 57.8527 145.522C57.8527 145.526 57.8519 145.529 57.8503 145.532C57.8489 145.535 57.8468 145.537 57.8442 145.538C57.8415 145.539 57.8386 145.54 57.8353 145.54ZM57.8355 145.534C57.8376 145.534 57.8393 145.534 57.8408 145.533C57.8422 145.532 57.8433 145.53 57.8441 145.528C57.8449 145.527 57.8453 145.524 57.8453 145.522C57.8453 145.519 57.8448 145.517 57.844 145.515C57.8432 145.513 57.842 145.511 57.8405 145.51C57.839 145.509 57.8372 145.509 57.835 145.509C57.833 145.509 57.8313 145.509 57.8298 145.51C57.8284 145.511 57.8273 145.513 57.8265 145.514C57.8257 145.516 57.8253 145.518 57.8253 145.521C57.8253 145.525 57.8262 145.528 57.8281 145.531C57.8299 145.533 57.8324 145.534 57.8355 145.534ZM57.1112 145.54C57.1082 145.54 57.1056 145.539 57.1033 145.539C57.1012 145.538 57.0994 145.536 57.098 145.535C57.0966 145.533 57.0955 145.531 57.0949 145.529C57.0942 145.527 57.0938 145.524 57.0938 145.522C57.0938 145.519 57.0942 145.517 57.0949 145.514C57.0956 145.512 57.0967 145.51 57.0981 145.508C57.0996 145.507 57.1014 145.505 57.1035 145.504C57.1056 145.503 57.1081 145.503 57.1109 145.503C57.1137 145.503 57.1161 145.503 57.1181 145.504C57.1202 145.505 57.1219 145.506 57.1232 145.508C57.1245 145.51 57.1254 145.512 57.1258 145.514L57.1188 145.516C57.1187 145.515 57.1183 145.514 57.1177 145.513C57.1171 145.511 57.1161 145.511 57.115 145.51C57.1138 145.509 57.1124 145.509 57.1107 145.509C57.1091 145.509 57.1077 145.509 57.1065 145.51C57.1054 145.51 57.1044 145.511 57.1036 145.512C57.1029 145.514 57.1023 145.515 57.1019 145.516C57.1015 145.518 57.1013 145.52 57.1013 145.522C57.1013 145.524 57.1016 145.526 57.1023 145.528C57.1031 145.53 57.1042 145.532 57.1057 145.533C57.1072 145.534 57.109 145.534 57.1113 145.534C57.1132 145.534 57.1148 145.534 57.116 145.533C57.1172 145.532 57.1182 145.531 57.1188 145.53C57.1195 145.529 57.12 145.528 57.1202 145.526L57.1268 145.528C57.1265 145.53 57.126 145.531 57.1252 145.533C57.1244 145.534 57.1233 145.536 57.122 145.537C57.1207 145.538 57.1191 145.539 57.1173 145.539C57.1155 145.54 57.1135 145.54 57.1112 145.54ZM57.1489 145.54C57.1455 145.54 57.1425 145.539 57.1398 145.538C57.1372 145.536 57.1351 145.534 57.1336 145.531C57.1322 145.529 57.1315 145.525 57.1315 145.521C57.1315 145.517 57.1322 145.514 57.1338 145.511C57.1353 145.508 57.1374 145.506 57.14 145.505C57.1426 145.504 57.1455 145.503 57.1488 145.503C57.1522 145.503 57.1551 145.504 57.1578 145.505C57.1604 145.506 57.1625 145.508 57.164 145.511C57.1655 145.514 57.1663 145.517 57.1663 145.522C57.1663 145.526 57.1655 145.529 57.164 145.532C57.1625 145.535 57.1604 145.537 57.1578 145.538C57.1551 145.539 57.1522 145.54 57.1489 145.54ZM57.1491 145.534C57.1512 145.534 57.1529 145.534 57.1544 145.533C57.1558 145.532 57.1569 145.53 57.1577 145.528C57.1585 145.527 57.1589 145.524 57.1589 145.522C57.1589 145.519 57.1585 145.517 57.1576 145.515C57.1568 145.513 57.1556 145.511 57.1541 145.51C57.1526 145.509 57.1508 145.509 57.1486 145.509C57.1466 145.509 57.1449 145.509 57.1434 145.51C57.142 145.511 57.1409 145.513 57.1401 145.514C57.1393 145.516 57.1389 145.518 57.1389 145.521C57.1389 145.525 57.1399 145.528 57.1417 145.531C57.1435 145.533 57.146 145.534 57.1491 145.534ZM57.1745 145.539V145.517V145.504H57.1809L57.1804 145.515H57.1816C57.1822 145.512 57.1831 145.51 57.1841 145.508C57.1852 145.506 57.1866 145.505 57.1882 145.504C57.1899 145.503 57.1918 145.503 57.194 145.503C57.198 145.503 57.201 145.504 57.203 145.507C57.2051 145.51 57.2061 145.514 57.2061 145.52V145.539H57.1987V145.521C57.1987 145.517 57.1981 145.514 57.1969 145.512C57.1957 145.51 57.1939 145.509 57.1916 145.509C57.1896 145.509 57.1878 145.51 57.1864 145.511C57.185 145.512 57.1839 145.514 57.1831 145.516C57.1823 145.518 57.1819 145.521 57.1818 145.523V145.539H57.1745ZM57.2158 145.539V145.517V145.504H57.2222L57.2218 145.515H57.223C57.2236 145.512 57.2244 145.51 57.2255 145.508C57.2266 145.506 57.2279 145.505 57.2295 145.504C57.2312 145.503 57.2332 145.503 57.2354 145.503C57.2393 145.503 57.2423 145.504 57.2444 145.507C57.2464 145.51 57.2475 145.514 57.2475 145.52V145.539H57.24V145.521C57.24 145.517 57.2394 145.514 57.2382 145.512C57.2371 145.51 57.2353 145.509 57.2329 145.509C57.2309 145.509 57.2292 145.51 57.2277 145.511C57.2263 145.512 57.2252 145.514 57.2244 145.516C57.2237 145.518 57.2232 145.521 57.2232 145.523V145.539H57.2158ZM57.2727 145.54C57.2699 145.54 57.2674 145.54 57.2653 145.539C57.2631 145.538 57.2612 145.537 57.2598 145.535C57.2583 145.534 57.2571 145.532 57.2564 145.529C57.2556 145.527 57.2552 145.525 57.2552 145.522C57.2552 145.519 57.2556 145.517 57.2564 145.514C57.2571 145.512 57.2582 145.51 57.2596 145.508C57.2611 145.507 57.2628 145.505 57.2649 145.504C57.267 145.503 57.2694 145.503 57.2721 145.503C57.2746 145.503 57.2768 145.503 57.2788 145.504C57.2808 145.505 57.2825 145.506 57.2838 145.508C57.2852 145.509 57.2862 145.511 57.2869 145.514C57.2876 145.516 57.2878 145.519 57.2876 145.523L57.26 145.523V145.518L57.2833 145.518L57.2807 145.521C57.281 145.518 57.2807 145.516 57.28 145.514C57.2793 145.512 57.2782 145.511 57.2769 145.51C57.2755 145.509 57.274 145.509 57.2722 145.509C57.2702 145.509 57.2685 145.509 57.267 145.51C57.2655 145.511 57.2644 145.513 57.2636 145.515C57.2627 145.517 57.2623 145.519 57.2623 145.522C57.2623 145.526 57.2632 145.529 57.2651 145.531C57.2669 145.533 57.2694 145.534 57.2728 145.534C57.2742 145.534 57.2754 145.534 57.2764 145.534C57.2774 145.533 57.2782 145.533 57.2789 145.532C57.2796 145.532 57.2801 145.531 57.2806 145.53C57.281 145.529 57.2814 145.529 57.2816 145.528L57.2881 145.529C57.2877 145.531 57.2871 145.532 57.2862 145.534C57.2854 145.535 57.2843 145.536 57.2831 145.537C57.2818 145.538 57.2803 145.539 57.2786 145.539C57.2769 145.54 57.275 145.54 57.2727 145.54ZM57.3116 145.54C57.3086 145.54 57.306 145.539 57.3037 145.539C57.3016 145.538 57.2998 145.536 57.2984 145.535C57.297 145.533 57.2959 145.531 57.2952 145.529C57.2946 145.527 57.2942 145.524 57.2942 145.522C57.2942 145.519 57.2946 145.517 57.2953 145.514C57.296 145.512 57.2971 145.51 57.2985 145.508C57.3 145.507 57.3018 145.505 57.3039 145.504C57.306 145.503 57.3085 145.503 57.3113 145.503C57.3141 145.503 57.3165 145.503 57.3185 145.504C57.3206 145.505 57.3223 145.506 57.3236 145.508C57.3249 145.51 57.3258 145.512 57.3262 145.514L57.3192 145.516C57.3191 145.515 57.3187 145.514 57.3181 145.513C57.3175 145.511 57.3165 145.511 57.3154 145.51C57.3142 145.509 57.3128 145.509 57.3111 145.509C57.3095 145.509 57.3081 145.509 57.3069 145.51C57.3058 145.51 57.3048 145.511 57.304 145.512C57.3032 145.514 57.3027 145.515 57.3023 145.516C57.3019 145.518 57.3017 145.52 57.3017 145.522C57.3017 145.524 57.302 145.526 57.3027 145.528C57.3035 145.53 57.3046 145.532 57.3061 145.533C57.3076 145.534 57.3094 145.534 57.3117 145.534C57.3136 145.534 57.3152 145.534 57.3164 145.533C57.3176 145.532 57.3186 145.531 57.3192 145.53C57.3199 145.529 57.3204 145.528 57.3206 145.526L57.3272 145.528C57.3269 145.53 57.3264 145.531 57.3256 145.533C57.3247 145.534 57.3237 145.536 57.3224 145.537C57.3211 145.538 57.3195 145.539 57.3177 145.539C57.3159 145.54 57.3139 145.54 57.3116 145.54ZM57.3455 145.54C57.342 145.54 57.3394 145.539 57.3377 145.537C57.336 145.535 57.3352 145.532 57.3352 145.528V145.51H57.33L57.3301 145.504H57.3335C57.3347 145.504 57.3356 145.504 57.3361 145.503C57.3367 145.503 57.3371 145.502 57.3372 145.501L57.3379 145.496H57.3423V145.504H57.3521V145.51H57.3423V145.528C57.3423 145.53 57.3427 145.531 57.3436 145.532C57.3444 145.533 57.3456 145.533 57.3472 145.533C57.348 145.533 57.3489 145.533 57.3497 145.533C57.3506 145.532 57.3515 145.532 57.3523 145.531V145.539C57.351 145.539 57.3497 145.539 57.3486 145.54C57.3475 145.54 57.3464 145.54 57.3455 145.54ZM57.3568 145.548C57.3576 145.546 57.3582 145.544 57.3585 145.543C57.3589 145.541 57.3591 145.539 57.3591 145.538C57.3592 145.536 57.3593 145.534 57.3593 145.533H57.3662C57.3662 145.535 57.366 145.537 57.3657 145.539C57.3654 145.541 57.365 145.543 57.3644 145.545C57.3639 145.546 57.3633 145.547 57.3628 145.548H57.3568ZM57.4032 145.54C57.4007 145.54 57.3986 145.54 57.3967 145.539C57.3948 145.539 57.3931 145.538 57.3918 145.537C57.3905 145.536 57.3894 145.535 57.3887 145.534C57.388 145.532 57.3876 145.531 57.3874 145.529L57.3934 145.527C57.3934 145.529 57.3938 145.53 57.3946 145.531C57.3954 145.532 57.3966 145.533 57.3981 145.533C57.3996 145.534 57.4015 145.534 57.4036 145.534C57.4061 145.534 57.408 145.534 57.4094 145.533C57.4107 145.532 57.4114 145.531 57.4114 145.53C57.4114 145.529 57.411 145.528 57.4103 145.527C57.4095 145.526 57.4085 145.526 57.4071 145.525C57.4057 145.525 57.4041 145.525 57.4022 145.524C57.4006 145.524 57.3989 145.524 57.3972 145.523C57.3956 145.523 57.3941 145.522 57.3927 145.521C57.3913 145.52 57.3902 145.519 57.3893 145.518C57.3885 145.517 57.3881 145.515 57.3881 145.513C57.3881 145.511 57.3887 145.509 57.3898 145.508C57.3909 145.506 57.3926 145.505 57.3947 145.504C57.3969 145.503 57.3994 145.503 57.4024 145.503C57.4053 145.503 57.4078 145.503 57.4099 145.504C57.412 145.505 57.4137 145.506 57.415 145.508C57.4163 145.509 57.4171 145.511 57.4173 145.513L57.4111 145.515C57.411 145.514 57.4105 145.512 57.4098 145.511C57.4091 145.511 57.4081 145.51 57.4068 145.509C57.4055 145.509 57.404 145.509 57.4023 145.509C57.4 145.509 57.3982 145.509 57.3969 145.51C57.3957 145.511 57.395 145.512 57.395 145.513C57.395 145.514 57.3954 145.515 57.3962 145.516C57.397 145.516 57.3981 145.517 57.3994 145.517C57.4009 145.518 57.4024 145.518 57.4042 145.518C57.406 145.519 57.4078 145.519 57.4094 145.52C57.4111 145.52 57.4126 145.521 57.4139 145.522C57.4153 145.522 57.4164 145.523 57.4171 145.525C57.4179 145.526 57.4183 145.527 57.4183 145.529C57.4183 145.532 57.4177 145.533 57.4164 145.535C57.4152 145.537 57.4135 145.538 57.4112 145.539C57.4089 145.54 57.4063 145.54 57.4032 145.54ZM57.4262 145.539V145.517V145.491H57.4336V145.502C57.4336 145.503 57.4336 145.504 57.4336 145.505C57.4335 145.506 57.4334 145.507 57.4333 145.508C57.4332 145.509 57.433 145.51 57.4329 145.511C57.4328 145.512 57.4326 145.513 57.4324 145.515H57.4336C57.4343 145.512 57.4352 145.51 57.4362 145.508C57.4372 145.506 57.4385 145.505 57.44 145.504C57.4416 145.503 57.4435 145.503 57.4457 145.503C57.4498 145.503 57.4529 145.504 57.4549 145.507C57.4568 145.51 57.4578 145.514 57.4578 145.52V145.539H57.4504V145.521C57.4504 145.517 57.4498 145.514 57.4485 145.512C57.4474 145.51 57.4456 145.509 57.4432 145.509C57.4412 145.509 57.4395 145.51 57.4381 145.511C57.4368 145.512 57.4358 145.514 57.435 145.516C57.4342 145.518 57.4337 145.52 57.4335 145.523V145.539H57.4262ZM57.4757 145.54C57.4737 145.54 57.472 145.54 57.4704 145.539C57.4689 145.538 57.4677 145.537 57.4668 145.535C57.4659 145.534 57.4655 145.532 57.4655 145.53C57.4655 145.528 57.4658 145.527 57.4664 145.525C57.4671 145.524 57.4681 145.523 57.4694 145.522C57.4708 145.521 57.4725 145.52 57.4746 145.52C57.4767 145.519 57.4791 145.519 57.482 145.518C57.4836 145.518 57.4849 145.518 57.4859 145.518C57.4869 145.517 57.4877 145.517 57.4881 145.517C57.4886 145.516 57.4889 145.515 57.4889 145.514C57.4889 145.513 57.4883 145.512 57.4872 145.51C57.4862 145.509 57.4845 145.509 57.4821 145.509C57.4808 145.509 57.4795 145.509 57.4782 145.509C57.4769 145.51 57.4758 145.511 57.4749 145.512C57.474 145.513 57.4733 145.514 57.473 145.516L57.4664 145.514C57.4668 145.512 57.4674 145.51 57.4683 145.509C57.4692 145.508 57.4704 145.507 57.4717 145.506C57.4731 145.505 57.4747 145.504 57.4764 145.504C57.4782 145.503 57.4802 145.503 57.4823 145.503C57.4855 145.503 57.4881 145.503 57.4901 145.504C57.4921 145.505 57.4936 145.507 57.4946 145.509C57.4957 145.511 57.4962 145.514 57.4962 145.517V145.525C57.4962 145.526 57.4962 145.528 57.4963 145.529C57.4964 145.531 57.4965 145.533 57.4965 145.534C57.4967 145.536 57.4968 145.538 57.497 145.539H57.4903C57.4902 145.538 57.49 145.536 57.4899 145.535C57.4898 145.533 57.4897 145.532 57.4896 145.53H57.4886C57.488 145.532 57.4871 145.534 57.4859 145.535C57.4847 145.537 57.4833 145.538 57.4816 145.539C57.4799 145.54 57.4779 145.54 57.4757 145.54ZM57.4783 145.534C57.4792 145.534 57.4802 145.534 57.4811 145.534C57.4821 145.533 57.4831 145.533 57.484 145.532C57.485 145.532 57.4859 145.531 57.4868 145.53C57.4876 145.529 57.4884 145.527 57.489 145.526L57.4889 145.52L57.4907 145.52C57.4899 145.521 57.489 145.521 57.4878 145.522C57.4866 145.522 57.4854 145.522 57.484 145.522C57.4827 145.523 57.4813 145.523 57.48 145.523C57.4786 145.523 57.4774 145.524 57.4763 145.524C57.4752 145.525 57.4743 145.525 57.4736 145.526C57.473 145.527 57.4727 145.528 57.4727 145.529C57.4727 145.531 57.4732 145.532 57.4743 145.533C57.4753 145.534 57.4766 145.534 57.4783 145.534ZM57.5061 145.539V145.521V145.504H57.5125L57.5121 145.516H57.5133C57.5137 145.513 57.5143 145.511 57.5152 145.509C57.5161 145.507 57.5172 145.505 57.5187 145.504C57.5202 145.503 57.5221 145.503 57.5243 145.503C57.5248 145.503 57.5253 145.503 57.5258 145.503C57.5263 145.503 57.527 145.503 57.5276 145.503L57.5273 145.511C57.5266 145.511 57.5259 145.511 57.5252 145.511C57.5245 145.51 57.5238 145.51 57.5232 145.51C57.5214 145.51 57.5199 145.511 57.5186 145.512C57.5173 145.513 57.5163 145.514 57.5154 145.516C57.5146 145.518 57.514 145.52 57.5135 145.522V145.539H57.5061ZM57.5491 145.54C57.5463 145.54 57.5438 145.54 57.5417 145.539C57.5395 145.538 57.5376 145.537 57.5362 145.535C57.5347 145.534 57.5335 145.532 57.5328 145.529C57.532 145.527 57.5316 145.525 57.5316 145.522C57.5316 145.519 57.532 145.517 57.5328 145.514C57.5335 145.512 57.5346 145.51 57.536 145.508C57.5375 145.507 57.5392 145.505 57.5413 145.504C57.5434 145.503 57.5459 145.503 57.5485 145.503C57.551 145.503 57.5532 145.503 57.5552 145.504C57.5572 145.505 57.5589 145.506 57.5602 145.508C57.5616 145.509 57.5626 145.511 57.5633 145.514C57.564 145.516 57.5642 145.519 57.564 145.523L57.5364 145.523V145.518L57.5597 145.518L57.5571 145.521C57.5574 145.518 57.5571 145.516 57.5564 145.514C57.5557 145.512 57.5546 145.511 57.5533 145.51C57.5519 145.509 57.5504 145.509 57.5486 145.509C57.5466 145.509 57.5449 145.509 57.5434 145.51C57.5419 145.511 57.5408 145.513 57.54 145.515C57.5391 145.517 57.5387 145.519 57.5387 145.522C57.5387 145.526 57.5396 145.529 57.5415 145.531C57.5433 145.533 57.5459 145.534 57.5492 145.534C57.5506 145.534 57.5518 145.534 57.5528 145.534C57.5538 145.533 57.5546 145.533 57.5553 145.532C57.556 145.532 57.5565 145.531 57.557 145.53C57.5574 145.529 57.5578 145.529 57.558 145.528L57.5645 145.529C57.5641 145.531 57.5635 145.532 57.5626 145.534C57.5618 145.535 57.5607 145.536 57.5595 145.537C57.5582 145.538 57.5567 145.539 57.555 145.539C57.5533 145.54 57.5514 145.54 57.5491 145.54ZM57.5672 145.548C57.568 145.546 57.5686 145.544 57.5689 145.543C57.5692 145.541 57.5694 145.539 57.5695 145.538C57.5696 145.536 57.5696 145.534 57.5696 145.533H57.5766C57.5766 145.535 57.5764 145.537 57.5761 145.539C57.5758 145.541 57.5753 145.543 57.5748 145.545C57.5742 145.546 57.5737 145.547 57.5732 145.548H57.5672ZM57.6082 145.54C57.6063 145.54 57.6045 145.54 57.603 145.539C57.6015 145.538 57.6002 145.537 57.5993 145.535C57.5985 145.534 57.598 145.532 57.598 145.53C57.598 145.528 57.5984 145.527 57.599 145.525C57.5997 145.524 57.6007 145.523 57.602 145.522C57.6033 145.521 57.6051 145.52 57.6072 145.52C57.6092 145.519 57.6117 145.519 57.6146 145.518C57.6161 145.518 57.6174 145.518 57.6184 145.518C57.6195 145.517 57.6202 145.517 57.6207 145.517C57.6212 145.516 57.6214 145.515 57.6214 145.514C57.6214 145.513 57.6209 145.512 57.6198 145.51C57.6188 145.509 57.6171 145.509 57.6147 145.509C57.6134 145.509 57.6121 145.509 57.6108 145.509C57.6095 145.51 57.6084 145.511 57.6074 145.512C57.6065 145.513 57.6059 145.514 57.6056 145.516L57.5989 145.514C57.5993 145.512 57.6 145.51 57.6009 145.509C57.6018 145.508 57.6029 145.507 57.6043 145.506C57.6057 145.505 57.6072 145.504 57.609 145.504C57.6108 145.503 57.6128 145.503 57.6149 145.503C57.618 145.503 57.6206 145.503 57.6226 145.504C57.6247 145.505 57.6262 145.507 57.6272 145.509C57.6282 145.511 57.6288 145.514 57.6288 145.517V145.525C57.6288 145.526 57.6288 145.528 57.6288 145.529C57.6289 145.531 57.629 145.533 57.6291 145.534C57.6292 145.536 57.6294 145.538 57.6296 145.539H57.6229C57.6227 145.538 57.6226 145.536 57.6224 145.535C57.6224 145.533 57.6223 145.532 57.6222 145.53H57.6212C57.6205 145.532 57.6196 145.534 57.6184 145.535C57.6173 145.537 57.6159 145.538 57.6142 145.539C57.6125 145.54 57.6105 145.54 57.6082 145.54ZM57.6108 145.534C57.6118 145.534 57.6127 145.534 57.6137 145.534C57.6147 145.533 57.6156 145.533 57.6166 145.532C57.6176 145.532 57.6185 145.531 57.6193 145.53C57.6202 145.529 57.6209 145.527 57.6216 145.526L57.6215 145.52L57.6233 145.52C57.6225 145.521 57.6215 145.521 57.6203 145.522C57.6192 145.522 57.618 145.522 57.6166 145.522C57.6152 145.523 57.6139 145.523 57.6125 145.523C57.6112 145.523 57.61 145.524 57.6089 145.524C57.6078 145.525 57.6069 145.525 57.6062 145.526C57.6056 145.527 57.6052 145.528 57.6052 145.529C57.6052 145.531 57.6058 145.532 57.6068 145.533C57.6079 145.534 57.6092 145.534 57.6108 145.534ZM57.6386 145.539V145.517V145.504H57.645L57.6446 145.515H57.6458C57.6464 145.512 57.6473 145.51 57.6483 145.508C57.6494 145.506 57.6507 145.505 57.6524 145.504C57.6541 145.503 57.656 145.503 57.6582 145.503C57.6622 145.503 57.6652 145.504 57.6672 145.507C57.6693 145.51 57.6703 145.514 57.6703 145.52V145.539H57.6628V145.521C57.6628 145.517 57.6623 145.514 57.6611 145.512C57.6599 145.51 57.6581 145.509 57.6558 145.509C57.6537 145.509 57.652 145.51 57.6505 145.511C57.6491 145.512 57.6481 145.514 57.6473 145.516C57.6465 145.518 57.6461 145.521 57.646 145.523V145.539H57.6386ZM57.6926 145.54C57.6897 145.54 57.6871 145.539 57.6849 145.538C57.6827 145.536 57.6811 145.534 57.6799 145.531C57.6788 145.528 57.6782 145.525 57.6782 145.521C57.6782 145.518 57.6788 145.515 57.6798 145.512C57.6809 145.509 57.6825 145.507 57.6846 145.505C57.6867 145.504 57.6893 145.503 57.6924 145.503C57.6948 145.503 57.6968 145.503 57.6984 145.504C57.7 145.505 57.7013 145.507 57.7022 145.508C57.7032 145.51 57.704 145.512 57.7045 145.514H57.7058C57.7056 145.513 57.7054 145.511 57.7052 145.51C57.7049 145.508 57.7047 145.507 57.7046 145.506C57.7045 145.504 57.7044 145.503 57.7044 145.502V145.491H57.7119V145.522V145.539H57.7054L57.7057 145.529H57.7045C57.7039 145.531 57.7032 145.533 57.7022 145.535C57.7012 145.537 57.6999 145.538 57.6983 145.539C57.6967 145.54 57.6949 145.54 57.6926 145.54ZM57.6947 145.534C57.6963 145.534 57.6977 145.533 57.6989 145.533C57.7001 145.532 57.7011 145.531 57.702 145.53C57.7028 145.529 57.7034 145.527 57.7038 145.526C57.7042 145.525 57.7045 145.523 57.7045 145.522V145.521C57.7045 145.52 57.7043 145.519 57.7041 145.518C57.7038 145.517 57.7035 145.516 57.7029 145.515C57.7024 145.514 57.7018 145.513 57.701 145.512C57.7002 145.511 57.6993 145.51 57.6982 145.51C57.6972 145.509 57.696 145.509 57.6947 145.509C57.6928 145.509 57.6912 145.51 57.6899 145.511C57.6886 145.512 57.6876 145.513 57.6869 145.515C57.6863 145.517 57.6859 145.519 57.6859 145.522C57.6859 145.524 57.6863 145.526 57.6869 145.528C57.6877 145.53 57.6887 145.531 57.69 145.532C57.6913 145.533 57.6929 145.534 57.6947 145.534ZM57.7522 145.551C57.7484 145.551 57.7453 145.551 57.7428 145.55C57.7404 145.55 57.7387 145.549 57.7375 145.548C57.7364 145.546 57.7358 145.545 57.7358 145.543C57.7358 145.541 57.7366 145.539 57.7383 145.538C57.7399 145.537 57.7424 145.536 57.7457 145.536V145.534C57.7432 145.534 57.7414 145.534 57.7401 145.533C57.7389 145.533 57.7383 145.532 57.7383 145.531C57.7383 145.53 57.7389 145.528 57.7401 145.528C57.7414 145.527 57.7434 145.526 57.7462 145.525V145.524C57.7435 145.524 57.7413 145.523 57.7398 145.521C57.7383 145.52 57.7376 145.518 57.7376 145.515C57.7376 145.513 57.7382 145.511 57.7394 145.509C57.7407 145.507 57.7425 145.506 57.7449 145.505C57.7474 145.504 57.7503 145.503 57.7538 145.503H57.7708V145.509L57.7599 145.508V145.509C57.7626 145.51 57.7646 145.511 57.766 145.512C57.7674 145.513 57.768 145.515 57.768 145.517C57.768 145.519 57.7675 145.52 57.7663 145.522C57.7651 145.523 57.7635 145.524 57.7612 145.525C57.759 145.526 57.7563 145.526 57.7531 145.526C57.7525 145.526 57.7519 145.526 57.7512 145.526C57.7505 145.526 57.7495 145.526 57.7482 145.526C57.7471 145.526 57.7462 145.527 57.7455 145.528C57.7449 145.528 57.7446 145.529 57.7446 145.529C57.7446 145.53 57.7449 145.53 57.7454 145.53C57.746 145.531 57.7467 145.531 57.7476 145.531C57.7484 145.531 57.7493 145.531 57.75 145.531H57.7587C57.7596 145.531 57.7608 145.531 57.7622 145.531C57.7636 145.531 57.765 145.532 57.7664 145.532C57.7678 145.533 57.769 145.534 57.7699 145.535C57.7709 145.536 57.7714 145.538 57.7714 145.54C57.7714 145.543 57.7706 145.545 57.7692 145.547C57.7677 145.548 57.7656 145.549 57.7627 145.55C57.7599 145.551 57.7564 145.551 57.7522 145.551ZM57.7527 145.545C57.7556 145.545 57.7579 145.545 57.7597 145.545C57.7615 145.544 57.7627 145.544 57.7636 145.543C57.7644 145.542 57.7648 145.541 57.7648 145.54C57.7648 145.539 57.7645 145.538 57.764 145.537C57.7634 145.537 57.7627 145.536 57.7619 145.536C57.7612 145.536 57.7604 145.536 57.7595 145.536C57.7587 145.536 57.758 145.536 57.7574 145.536H57.7494C57.747 145.536 57.7453 145.537 57.7443 145.538C57.7434 145.539 57.7429 145.54 57.7429 145.541C57.7429 145.542 57.7433 145.543 57.7441 145.544C57.7449 145.544 57.7461 145.545 57.7475 145.545C57.749 145.545 57.7507 145.545 57.7527 145.545ZM57.7532 145.522C57.7558 145.522 57.7578 145.521 57.7591 145.52C57.7604 145.519 57.7611 145.517 57.7611 145.516C57.7611 145.514 57.7604 145.512 57.7591 145.511C57.7577 145.509 57.7557 145.509 57.753 145.509C57.7504 145.509 57.7484 145.509 57.747 145.511C57.7456 145.512 57.7449 145.513 57.7449 145.515C57.7449 145.517 57.7453 145.518 57.7459 145.519C57.7465 145.52 57.7474 145.521 57.7486 145.521C57.7498 145.522 57.7513 145.522 57.7532 145.522ZM57.7787 145.539V145.521V145.504H57.7851L57.7848 145.516H57.7859C57.7863 145.513 57.787 145.511 57.7878 145.509C57.7887 145.507 57.7899 145.505 57.7914 145.504C57.7928 145.503 57.7947 145.503 57.7969 145.503C57.7974 145.503 57.7979 145.503 57.7984 145.503C57.799 145.503 57.7996 145.503 57.8003 145.503L57.7999 145.511C57.7992 145.511 57.7985 145.511 57.7978 145.511C57.7971 145.51 57.7964 145.51 57.7958 145.51C57.794 145.51 57.7925 145.511 57.7912 145.512C57.7899 145.513 57.7889 145.514 57.788 145.516C57.7872 145.518 57.7866 145.52 57.7861 145.522V145.539H57.7787ZM57.8217 145.54C57.8183 145.54 57.8153 145.539 57.8126 145.538C57.81 145.536 57.808 145.534 57.8065 145.531C57.805 145.529 57.8043 145.525 57.8043 145.521C57.8043 145.517 57.8051 145.514 57.8066 145.511C57.8081 145.508 57.8102 145.506 57.8128 145.505C57.8154 145.504 57.8184 145.503 57.8216 145.503C57.825 145.503 57.828 145.504 57.8306 145.505C57.8332 145.506 57.8353 145.508 57.8368 145.511C57.8383 145.514 57.8391 145.517 57.8391 145.522C57.8391 145.526 57.8383 145.529 57.8368 145.532C57.8353 145.535 57.8332 145.537 57.8306 145.538C57.828 145.539 57.825 145.54 57.8217 145.54ZM57.822 145.534C57.824 145.534 57.8257 145.534 57.8272 145.533C57.8286 145.532 57.8298 145.53 57.8305 145.528C57.8313 145.527 57.8317 145.524 57.8317 145.522C57.8317 145.519 57.8313 145.517 57.8305 145.515C57.8296 145.513 57.8285 145.511 57.8269 145.51C57.8254 145.509 57.8236 145.509 57.8214 145.509C57.8195 145.509 57.8177 145.509 57.8162 145.51C57.8148 145.511 57.8137 145.513 57.8129 145.514C57.8121 145.516 57.8118 145.518 57.8118 145.521C57.8118 145.525 57.8127 145.528 57.8145 145.531C57.8163 145.533 57.8188 145.534 57.822 145.534ZM57.8526 145.539L57.8434 145.504H57.851L57.8573 145.533H57.8585L57.8654 145.504H57.8747L57.8817 145.533H57.8828L57.8891 145.504H57.8966L57.8874 145.539H57.8771L57.8704 145.51H57.8695L57.8628 145.539H57.8526ZM57.9031 145.54C57.9014 145.54 57.9001 145.54 57.8993 145.539C57.8984 145.538 57.898 145.537 57.898 145.535C57.898 145.534 57.8985 145.533 57.8993 145.532C57.9002 145.531 57.9014 145.531 57.9031 145.531C57.9048 145.531 57.9061 145.531 57.9069 145.532C57.9078 145.533 57.9082 145.534 57.9082 145.535C57.9082 145.538 57.9065 145.54 57.9031 145.54Z" fill="white"/>
<defs>
<linearGradient id="paint0_linear_2355_8581" x1="57.0452" y1="67.2211" x2="57.0452" y2="94.8119" gradientUnits="userSpaceOnUse">
<stop offset="0.4" stop-color="#FFD007"/>
<stop offset="0.6" stop-color="#F5C806"/>
<stop offset="0.8" stop-color="#DCB405"/>
<stop offset="1" stop-color="#BF9C05"/>
</linearGradient>
</defs>
</svg>
