<svg width="114" height="162" viewBox="0 0 114 162" fill="none" xmlns="http://www.w3.org/2000/svg">
<rect width="114" height="162" rx="57" fill="#A35BFB"/>
<path d="M56.8568 26.1045C45.428 44.4929 33.9992 62.892 22.5703 81.2804C33.9992 99.5938 45.4387 117.896 56.8675 136.21C68.3391 117.939 79.8106 99.6689 91.2822 81.3877C79.8106 62.9564 68.3391 44.5251 56.8568 26.0938V26.1045Z" fill="#FFD007"/>
<path d="M71.1904 59.6738L85.3809 82.4688C75.9499 97.4966 66.508 112.535 57.0664 127.573C52.3714 120.054 47.6774 112.536 42.9824 105.02C38.2681 97.4717 33.5532 89.9235 28.8389 82.373C33.5531 74.7906 38.265 67.2084 42.9766 59.626C47.6691 52.0743 52.3615 44.5224 57.0566 36.9707C61.7678 44.5385 66.4793 52.106 71.1904 59.6738Z" fill="#DF0586" stroke="black" stroke-width="0.221024"/>
<path d="M77.1357 83.3477C73.7673 88.7161 70.3997 94.0824 67.0312 99.4482C63.6819 104.784 60.3318 110.119 56.9824 115.457C53.6438 110.109 50.3054 104.763 46.9668 99.417C43.6089 94.0404 40.2514 88.6634 36.8936 83.2842C43.5805 72.5121 50.278 61.7399 56.9756 50.9678C63.7026 61.7681 70.4192 72.5579 77.1357 83.3477Z" fill="#FFD007" stroke="black" stroke-width="0.221024"/>
<path d="M63.1426 74.9326C65.0288 77.9632 66.9149 80.9938 68.8037 84.0244C65.0449 90.0129 61.2967 95.9909 57.5381 101.969C55.6787 98.9898 53.816 96.0088 51.9541 93.0273C50.0729 90.0149 48.1921 87.002 46.3135 83.9922C48.1919 80.9668 50.0731 77.9415 51.9541 74.916C53.8161 71.9212 55.6786 68.9265 57.5381 65.9316C59.4079 68.9318 61.2753 71.9324 63.1426 74.9326Z" fill="#DF0586" stroke="black" stroke-width="0.221024"/>
<path d="M36.9365 86.6152C36.8938 82.8841 36.8481 79.153 36.8027 75.4219C36.7573 71.6906 36.7117 67.9588 36.6689 64.2275C36.665 63.5772 37.1884 63.0638 37.8291 63.0635C44.1042 63.1224 50.377 63.1813 56.6494 63.2402L75.4688 63.417C76.1031 63.4269 76.6094 63.9364 76.6094 64.5723L76.6846 86.6924C76.6843 87.3398 76.1663 87.8574 75.5342 87.8574H75.5332C73.5519 87.8735 71.7372 87.8864 69.9238 87.8984L64.3223 87.9326C63.8474 87.9329 63.4059 88.1768 63.1611 88.585C61.6445 91.0508 60.1164 93.528 58.5996 96.0049C58.1881 96.665 57.2723 96.7324 56.7656 96.1738L56.6699 96.0537C55.7835 94.7726 54.8995 93.489 54.0156 92.2051C53.1318 90.9211 52.248 89.6369 51.3613 88.3555H51.3623C51.1068 87.9824 50.6876 87.7607 50.2344 87.7607H38.0859C37.4622 87.7606 36.9367 87.2514 36.9365 86.6172V86.6152Z" fill="#FFD007" stroke="black" stroke-width="0.221024"/>
<path d="M39.4004 74.2112C40.7249 72.6136 43.6195 69.5685 48.3405 67.6492C50.2738 66.8665 55.091 65.2046 61.1045 66.3626C68.8377 67.8637 73.281 73.0103 74.5094 74.5328C73.1529 76.688 70.7175 79.8403 66.6907 82.2206C64.7788 83.3464 59.513 86.4665 53.2859 85.1048C50.5088 84.5044 48.6076 83.2392 47.0588 82.2206C43.0213 79.5508 40.6501 76.2698 39.4004 74.2112Z" fill="white"/>
<path d="M56.5332 80.9344C59.7423 80.9344 62.3438 78.2269 62.3438 74.8871C62.3438 71.5473 59.7423 68.8398 56.5332 68.8398C53.3241 68.8398 50.7227 71.5473 50.7227 74.8871C50.7227 78.2269 53.3241 80.9344 56.5332 80.9344Z" fill="#A35BFB"/>
<path d="M56.5004 78.3906C58.4412 78.3906 60.0145 76.7537 60.0145 74.7344C60.0145 72.7151 58.4412 71.0781 56.5004 71.0781C54.5596 71.0781 52.9863 72.7151 52.9863 74.7344C52.9863 76.7537 54.5596 78.3906 56.5004 78.3906Z" fill="black"/>
<rect x="6.1974" y="9.1974" width="101.066" height="143.032" rx="50.5332" stroke="#FFD007" stroke-width="0.39479"/>
</svg>
