<svg width="218" height="286" viewBox="0 0 218 286" fill="none" xmlns="http://www.w3.org/2000/svg">
<path d="M190.685 232.793C205.149 232.794 216.854 244.522 216.854 258.964C216.854 273.428 205.127 285.134 190.685 285.134C176.22 285.134 164.514 273.407 164.514 258.964C164.514 244.5 176.242 232.793 190.685 232.793Z" fill="#FFD007" stroke="black" stroke-width="0.660364"/>
<path d="M26.501 0.330078C40.965 0.330317 52.6709 12.0585 52.6709 26.501C52.6707 40.9649 40.9432 52.6707 26.501 52.6709C12.0369 52.6709 0.330319 40.9434 0.330078 26.501C0.330078 12.0367 12.0584 0.330078 26.501 0.330078Z" fill="#A35BFB" stroke="black" stroke-width="0.660364"/>
<path d="M108.053 48.9645C125.986 48.5463 142.631 48.7444 157.003 49.1625C157.634 51.5832 158.19 54.6862 158.24 58.2732C158.291 62.2344 157.685 65.6234 157.003 68.2202C140.813 68.1101 124.622 68.0001 108.432 67.8901C106.841 67.8901 104.668 68.0001 102.117 68.3742C100.046 68.6823 97.5458 69.0784 95.0452 70.0907C89.4885 72.3794 86.7354 76.6707 85.422 78.7173C84.8411 79.6196 83.174 82.3924 82.3153 86.3536C82.0374 87.6079 80.8503 93.6817 83.8308 100.9C85.0936 103.937 86.3818 107.084 89.8674 109.857C94.3633 113.422 99.9958 114.39 103.153 114.94C103.987 115.094 105.654 115.248 108.988 115.6C115.757 116.282 117.424 116.26 119.899 116.569C126.365 117.361 131.189 119.517 133.361 120.508C135.584 121.52 141.242 124.337 146.496 129.706C153.82 137.233 155.816 145.155 156.952 149.974C157.735 153.341 159.124 159.437 157.584 167.272C156.245 174.116 153.34 178.847 152.684 179.925C146.546 189.696 137.251 194.274 134.22 195.726C131.669 196.936 126.719 199.269 119.924 200.193C117.525 200.523 114.115 200.744 107.346 201.206C101.486 201.602 100.93 201.558 99.3391 201.954C93.4793 203.406 89.8169 206.817 88.7813 207.808C84.3864 212.011 83.3256 216.544 82.4921 220.087C81.6838 223.542 80.2694 229.462 83.4519 235.8C83.856 236.614 85.321 239.365 88.3519 242.116C93.1509 246.473 98.5308 247.794 99.5664 248.036C102.395 248.696 104.643 248.696 105.426 248.696C115.479 248.696 158.821 248.828 215.096 248.916C216.03 250.786 217.47 254.219 217.394 258.665C217.319 262.758 216.03 265.949 215.096 267.753C178.447 267.687 141.823 267.599 105.174 267.533C101.057 267.489 92.4689 266.939 83.3003 262.428C80.6735 261.151 72.9951 257.08 67.009 248.894C65.7209 247.111 59.9621 238.947 59.6337 227.173C59.3306 216.126 63.9781 208.138 65.9987 204.793C67.792 201.8 70.4188 197.443 75.6725 193.261C87.0132 184.239 102.143 182.742 105.704 182.39C110.453 181.928 113.105 182.192 118.181 180.828C122.071 179.793 127.577 178.319 131.669 174.402C140.029 166.391 136.392 154.002 135.736 151.779C134.826 148.654 132.856 141.964 126.062 138.025C121.617 135.45 116.413 134.834 113.585 134.482C109.644 133.998 107.497 134.284 104.668 134.262C96.2576 134.196 89.7158 131.445 85.8514 129.838C75.6977 125.591 64.8368 115.842 60.9219 102.572C54.961 82.4364 68.6508 66.7237 71.3534 63.7749C73.3235 61.6182 78.1225 56.5347 86.3565 52.9036C94.6664 49.2505 102.218 49.0085 108.104 48.8764L108.053 48.9645Z" fill="#A35BFB"/>
<path d="M2.9673 16.2681C1.97922 17.7865 0.484431 20.5592 0.129736 24.2342C-0.326301 29.1415 1.52318 32.8825 2.46059 34.533C37.4994 34.643 72.5382 34.753 107.602 34.841C110.085 34.819 113.683 34.9951 117.838 36.0734C120.017 36.6455 123.792 37.6138 127.415 40.0564C134.508 44.8757 136.079 52.0936 136.51 54.0521C138.106 61.3801 135.446 67.2556 134.255 69.5002C133.596 71.1507 132.355 73.5493 129.948 75.8379C124.982 80.5912 118.598 81.6034 116.47 81.8455C113.1 81.8675 108.616 82.0876 103.371 82.8138C99.8244 83.3199 94.96 84.0021 89.6902 85.7405C86.498 86.7968 78.1373 89.6796 71.1447 96.6334C63.4175 104.335 61.6947 112.742 60.8586 117.121C60.2759 120.136 58.1224 133.317 66.483 146.873C68.5352 150.196 71.8035 155.345 78.4667 159.724C86.0673 164.698 95.2894 166.854 101.319 167.206C102.307 167.272 104.714 167.36 108.236 167.69C111.808 168.02 115.152 168.35 118.117 169.033C119.409 169.341 125.464 170.727 129.973 174.512C139.5 182.5 136.13 196.1 135.725 197.618C135.015 200.303 133.723 204.924 129.036 208.995C123.564 213.749 116.976 214.739 114.62 215.003C96.7081 215.113 78.7707 215.201 60.8586 215.311C60.1492 217.732 59.5158 220.834 59.3891 224.487C59.2625 228.25 59.7438 231.463 60.3266 233.95C87.3087 233.598 99.2163 233.752 104.689 234.038C105.626 234.082 108.717 234.258 112.847 234.038C115.279 233.906 119.966 233.62 125.362 232.233C128.504 231.419 135.218 229.637 141.78 224.773C147.658 220.416 150.52 215.751 152.446 212.538C157.69 203.78 158.4 195.814 158.526 192.689C158.653 189.498 158.881 182.676 155.182 174.732C154.194 172.62 148.316 160.45 134.559 154.443C132.102 153.365 129.847 152.682 128.023 152.132C122.728 150.526 119.307 150.108 108.768 148.545C96.5814 146.763 94.96 146.411 92.6291 145.09C88.1448 142.516 85.8899 139.039 84.8512 137.432C81.3549 131.909 81.4309 126.737 81.5069 123.789C81.5829 120.884 81.6589 117.363 83.9898 113.358C86.954 108.209 91.7171 105.59 93.6932 104.622C97.1135 102.971 100.154 102.553 106.234 101.717C113.075 100.771 113.657 101.431 118.953 100.639C127.415 99.3842 133.318 96.5894 134.483 96.0393C141.476 92.6724 145.707 88.5353 147.202 86.9949C154.397 79.5349 156.272 71.6788 157.26 67.2116C158.704 60.8079 158.349 55.5265 157.969 52.4897C157.69 50.3331 157.234 46.8782 155.486 42.6751C151.863 33.9168 145.479 28.5474 143.123 26.7209C141.577 25.5326 135.649 21.0654 126.173 18.4467C120.65 16.9063 115.811 16.5102 112.391 16.4441C75.9078 16.3781 39.4502 16.3121 2.9673 16.2461V16.2681Z" fill="#FFD007"/>
<path d="M157.348 67.78C149.367 67.78 141.36 67.78 133.379 67.78V49.3383L157.424 49.2949C158.055 51.7249 158.586 54.8491 158.586 58.4941C158.586 62.1824 158.005 65.3284 157.348 67.78Z" fill="#A35BFB"/>
<path d="M136.048 153.973C136.655 156.014 137.439 159.745 136.352 164.222C134.86 170.476 130.664 174.427 128.895 175.897C130.26 177.872 131.928 180.857 132.939 184.697C134.102 189.196 133.849 193.037 133.445 195.495C137.742 193.893 144.011 190.798 148.965 185.07C153.996 179.233 155.538 173.176 156.827 167.997C157.762 164.332 157.939 161.193 157.964 160.711C158.091 158.516 157.99 156.629 157.863 155.224C150.128 153.337 142.393 151.449 134.658 149.562C135.113 151.032 135.543 152.503 135.998 153.973H136.048Z" fill="#A35BFB"/>
</svg>
