<svg width="202" height="223" viewBox="0 0 202 223" fill="none" xmlns="http://www.w3.org/2000/svg">
<path d="M49.2901 76.2801C49.2901 76.2801 14.382 45.8473 3.65866 44.3455C-7.06471 42.8153 9.47665 35.533 23.5653 41.0018C37.654 46.4707 58.1597 67.4676 58.1597 67.4676L49.2901 76.2801Z" fill="#A35BFB"/>
<path d="M68.2221 87.9808C68.2221 87.9808 17.9991 15.3274 14.1204 12.0971C5.87825 5.2398 26.2698 6.00488 34.4264 15.9791C37.7632 20.0595 66.7391 58.0297 66.7391 58.0297L124.406 81.4635L68.1936 87.9808H68.2221Z" fill="#A35BFB"/>
<path d="M233.124 222.01L198.815 148.506C198.815 148.506 210.108 108.524 186.38 84.1834C162.652 59.8428 140.064 49.7552 126.517 35.1622C112.971 20.5692 111.117 24.8762 115.11 37.6557C119.102 50.4353 135.33 75.9943 135.33 75.9943C135.33 75.9943 98.5967 73.8691 89.0997 74.1808C79.6027 74.4925 101.962 99.4282 101.962 99.4282C101.962 99.4282 137.783 122.239 150.046 168.483C162.281 214.727 158.916 222.038 158.916 222.038H233.152L233.124 222.01Z" fill="#A35BFB"/>
<path d="M176.37 135.897C161.683 100.902 93.0074 88.3211 93.0074 88.3211C93.0074 88.3211 83.2822 63.4988 82.0558 58.3134C80.8295 53.1279 88.1875 18.7564 74.4126 16.3195L66.7693 58.0017L68.5946 74.7199L60.0101 54.6297C60.0101 54.6297 64.6018 1.69811 43.1836 0.167969V71.6596C43.1836 71.6596 55.1333 100.562 68.2809 114.249C81.4569 127.935 135.33 134.027 147.879 156.242C160.428 178.458 176.342 135.869 176.342 135.869L176.37 135.897Z" fill="#A35BFB"/>
<path d="M43.1584 71.0868C32.6631 62.331 11.5586 45.4427 3.65866 44.3376C-7.06471 42.8358 9.47665 35.4968 23.5653 40.994C29.6115 43.3459 36.884 48.5597 43.1584 53.7451" fill="#A35BFB"/>
<path d="M43.1584 71.0868C32.6631 62.331 11.5586 45.4427 3.65866 44.3376C-7.06471 42.8358 9.47665 35.4968 23.5653 40.994C29.6115 43.3459 36.884 48.5597 43.1584 53.7451" stroke="#161616" stroke-width="0.448528" stroke-linecap="round" stroke-linejoin="round"/>
<path d="M43.1534 51.9886C29.9488 33.1735 16.0883 13.735 14.1204 12.0916C5.87825 5.23425 26.2698 5.99932 34.4264 15.9452C35.4531 17.192 38.904 21.6408 43.1534 27.1946" fill="#A35BFB"/>
<path d="M43.1534 51.9886C29.9488 33.1735 16.0883 13.735 14.1204 12.0916C5.87825 5.23425 26.2698 5.99932 34.4264 15.9452C35.4531 17.192 38.904 21.6408 43.1534 27.1946" stroke="#161616" stroke-width="0.448528" stroke-linecap="round" stroke-linejoin="round"/>
<path d="M107.461 74.5726L84.2461 65.1367" stroke="#161616" stroke-width="0.448528" stroke-linecap="round" stroke-linejoin="round"/>
<path d="M60.293 49.6133C64.0861 54.5437 66.7384 58.0291 66.7384 58.0291L60.293 49.6133Z" fill="#A35BFB"/>
<path d="M60.293 49.6133C64.0861 54.5437 66.7384 58.0291 66.7384 58.0291" stroke="#161616" stroke-width="0.448528" stroke-linecap="round" stroke-linejoin="round"/>
<path d="M60.0152 54.6844L68.5997 74.7746L66.7744 58.0563L74.4176 16.3741C88.1926 18.811 80.8346 53.1826 82.0609 58.368C82.6598 60.8616 85.1981 67.8889 87.7078 74.5195C88.05 74.3212 88.5348 74.2078 89.1052 74.1795C98.6023 73.8678 135.336 75.993 135.336 75.993C135.336 75.993 119.108 50.434 115.115 37.6545C111.122 24.8749 112.976 20.5679 126.523 35.1609C140.07 49.7539 162.657 59.8415 186.386 84.1821C210.114 108.523 198.82 148.505 198.82 148.505L233.129 222.008H158.893C158.893 222.008 162.258 214.698 150.023 168.453C148.369 162.248 146.316 156.467 143.948 151.112C126.694 133.033 80.3497 126.856 68.2574 114.303C55.0813 100.617 43.1602 71.7143 43.1602 71.7143V0.222656C64.6069 1.7528 59.9867 54.6844 59.9867 54.6844H60.0152Z" fill="#A35BFB" stroke="#161616" stroke-width="0.448528" stroke-linecap="round" stroke-linejoin="round"/>
<path d="M167.64 122.829C144.197 97.7238 93.0039 88.3446 93.0039 88.3446L87.6992 74.4883" fill="#A35BFB"/>
<path d="M167.64 122.829C144.197 97.7238 93.0039 88.3446 93.0039 88.3446L87.6992 74.4883" stroke="#161616" stroke-width="0.448528" stroke-linecap="round" stroke-linejoin="round"/>
<path d="M141.586 86.0808L135.34 75.9648" stroke="#161616" stroke-width="0.448528" stroke-linecap="round" stroke-linejoin="round"/>
<path d="M68.5664 74.7695L71.618 96.4749" stroke="#161616" stroke-width="0.448528" stroke-linecap="round" stroke-linejoin="round"/>
<path d="M60.0107 54.6836L53.3086 55.5903" stroke="#161616" stroke-width="0.448528" stroke-linecap="round" stroke-linejoin="round"/>
<path d="M82.0008 58.0273L76.2969 58.8774" stroke="#161616" stroke-width="0.448528" stroke-linecap="round" stroke-linejoin="round"/>
<path d="M118.504 46.0422L122.953 43.832" stroke="#161616" stroke-width="0.448528" stroke-linecap="round" stroke-linejoin="round"/>
</svg>
