<svg width="400" height="381" viewBox="0 0 400 381" fill="none" xmlns="http://www.w3.org/2000/svg">
<path d="M315.478 130.739C315.478 130.739 375.309 78.5786 393.689 76.0046C412.068 73.382 383.717 60.9003 359.57 70.2737C335.422 79.6471 300.276 115.635 300.276 115.635L315.478 130.739Z" fill="#A35BFB"/>
<path d="M283.019 150.8C283.019 150.8 369.099 26.2742 375.747 20.7376C389.874 8.98438 354.924 10.2957 340.944 27.3912C335.224 34.3849 285.561 99.4645 285.561 99.4645L186.722 139.629L283.068 150.8H283.019Z" fill="#A35BFB"/>
<path d="M0.386139 380.52L59.1907 254.538C59.1907 254.538 39.8335 186.01 80.5031 144.291C121.173 102.572 159.887 85.2826 183.106 60.2706C206.324 35.2587 209.502 42.6409 202.658 64.5445C195.815 86.4482 168.001 130.255 168.001 130.255C168.001 130.255 230.961 126.613 247.238 127.147C263.516 127.681 225.193 170.42 225.193 170.42C225.193 170.42 163.797 209.517 142.778 288.778C121.808 368.039 127.576 380.569 127.576 380.569H0.337219L0.386139 380.52Z" fill="#A35BFB"/>
<path d="M97.6603 232.924C122.834 172.944 240.541 151.381 240.541 151.381C240.541 151.381 257.21 108.836 259.312 99.9482C261.414 91.0605 248.802 32.1489 272.412 27.9722L285.512 99.414L282.384 128.068L297.097 93.6345C297.097 93.6345 289.227 2.91167 325.938 0.289062V122.823C325.938 122.823 305.456 172.361 282.922 195.819C260.338 219.277 168.001 229.719 146.493 267.795C124.985 305.872 97.7092 232.876 97.7092 232.876L97.6603 232.924Z" fill="#A35BFB"/>
<path d="M325.988 121.849C343.976 106.842 380.149 77.8964 393.689 76.0023C412.068 73.4282 383.717 60.8494 359.57 70.2714C349.207 74.3024 336.742 83.2387 325.988 92.1265" fill="#A35BFB"/>
<path d="M325.988 121.849C343.976 106.842 380.149 77.8964 393.689 76.0023C412.068 73.4282 383.717 60.8494 359.57 70.2714C349.207 74.3024 336.742 83.2387 325.988 92.1265" stroke="#161616" stroke-width="0.768762" stroke-linecap="round" stroke-linejoin="round"/>
<path d="M325.986 89.1157C348.618 56.8674 372.374 23.5505 375.747 20.7336C389.874 8.98045 354.924 10.2918 340.944 27.3387C339.184 29.4757 333.269 37.1007 325.986 46.6198" fill="#A35BFB"/>
<path d="M325.986 89.1157C348.618 56.8674 372.374 23.5505 375.747 20.7336C389.874 8.98046 354.924 10.2918 340.944 27.3387C339.184 29.4757 333.269 37.1007 325.986 46.6198" stroke="#161616" stroke-width="0.768762" stroke-linecap="round" stroke-linejoin="round"/>
<path d="M215.757 127.821L255.547 111.648" stroke="#161616" stroke-width="0.768762" stroke-linecap="round" stroke-linejoin="round"/>
<path d="M296.609 85.0312C290.108 93.4819 285.562 99.4556 285.562 99.4556L296.609 85.0312Z" fill="#A35BFB"/>
<path d="M296.609 85.0312C290.108 93.4819 285.562 99.4556 285.562 99.4556" stroke="#161616" stroke-width="0.768762" stroke-linecap="round" stroke-linejoin="round"/>
<path d="M297.095 93.7283L282.382 128.162L285.51 99.5077L272.41 28.0659C248.8 32.2427 261.412 91.1542 259.31 100.042C258.283 104.316 253.933 116.36 249.631 127.725C249.045 127.385 248.214 127.191 247.236 127.142C230.959 126.608 167.999 130.251 167.999 130.251C167.999 130.251 195.813 86.4433 202.656 64.5396C209.499 42.636 206.322 35.2538 183.103 60.2658C159.885 85.2777 121.17 102.567 80.5008 144.286C39.8313 186.005 59.1885 254.533 59.1885 254.533L0.383911 380.516H127.623C127.623 380.516 121.855 367.985 142.825 288.724C145.66 278.088 149.18 268.18 153.237 259.001C182.81 228.016 262.243 217.428 282.969 195.913C305.552 172.455 325.984 122.917 325.984 122.917V0.382812C289.225 3.00542 297.144 93.7283 297.144 93.7283H297.095Z" fill="#A35BFB" stroke="#161616" stroke-width="0.768762" stroke-linecap="round" stroke-linejoin="round"/>
<path d="M112.618 210.535C152.798 167.504 240.541 151.429 240.541 151.429L249.633 127.68" fill="#A35BFB"/>
<path d="M112.618 210.535C152.798 167.504 240.541 151.429 240.541 151.429L249.633 127.68" stroke="#161616" stroke-width="0.768762" stroke-linecap="round" stroke-linejoin="round"/>
<path d="M157.295 147.541L168 130.203" stroke="#161616" stroke-width="0.768762" stroke-linecap="round" stroke-linejoin="round"/>
<path d="M282.43 128.156L277.199 165.358" stroke="#161616" stroke-width="0.768762" stroke-linecap="round" stroke-linejoin="round"/>
<path d="M297.099 93.7266L308.586 95.2807" stroke="#161616" stroke-width="0.768762" stroke-linecap="round" stroke-linejoin="round"/>
<path d="M259.411 99.4609L269.188 100.918" stroke="#161616" stroke-width="0.768762" stroke-linecap="round" stroke-linejoin="round"/>
<path d="M196.844 78.9132L189.218 75.125" stroke="#161616" stroke-width="0.768762" stroke-linecap="round" stroke-linejoin="round"/>
</svg>
