<svg width="203" height="223" viewBox="0 0 203 223" fill="none" xmlns="http://www.w3.org/2000/svg">
<path d="M152.862 76.2801C152.862 76.2801 187.77 45.8473 198.494 44.3455C209.217 42.8153 192.676 35.533 178.587 41.0018C164.498 46.4707 143.993 67.4676 143.993 67.4676L152.862 76.2801Z" fill="#A35BFB"/>
<path d="M133.93 87.9808C133.93 87.9808 184.153 15.3274 188.032 12.0971C196.274 5.2398 175.883 6.00488 167.726 15.9791C164.389 20.0595 135.413 58.0297 135.413 58.0297L77.7466 81.4635L133.959 87.9808H133.93Z" fill="#A35BFB"/>
<path d="M-30.9714 222.01L3.33768 148.506C3.33768 148.506 -7.95614 108.524 15.7722 84.1834C39.5005 59.8428 62.0881 49.7552 75.6349 35.1622C89.1817 20.5692 91.0355 24.8762 87.0427 37.6557C83.05 50.4353 66.8223 75.9943 66.8223 75.9943C66.8223 75.9943 103.556 73.8691 113.053 74.1808C122.55 74.4925 100.19 99.4282 100.19 99.4282C100.19 99.4282 64.3697 122.239 52.1062 168.483C39.8713 214.727 43.2366 222.038 43.2366 222.038H-31L-30.9714 222.01Z" fill="#A35BFB"/>
<path d="M25.7822 135.897C40.4698 100.902 109.145 88.3211 109.145 88.3211C109.145 88.3211 118.87 63.4988 120.097 58.3134C121.323 53.1279 113.965 18.7564 127.74 16.3195L135.383 58.0017L133.558 74.7199L142.142 54.6297C142.142 54.6297 137.551 1.69811 158.969 0.167969V71.6596C158.969 71.6596 147.019 100.562 133.871 114.249C120.695 127.935 66.8219 134.027 54.2733 156.242C41.7246 178.458 25.8107 135.869 25.8107 135.869L25.7822 135.897Z" fill="#A35BFB"/>
<path d="M158.994 71.0868C169.489 62.331 190.594 45.4427 198.494 44.3376C209.217 42.8358 192.676 35.4968 178.587 40.994C172.541 43.3459 165.268 48.5597 158.994 53.7451" fill="#A35BFB"/>
<path d="M158.994 71.0868C169.489 62.331 190.594 45.4427 198.494 44.3376C209.217 42.8358 192.676 35.4968 178.587 40.994C172.541 43.3459 165.268 48.5597 158.994 53.7451" stroke="#161616" stroke-width="0.448528" stroke-linecap="round" stroke-linejoin="round"/>
<path d="M158.999 51.9886C172.204 33.1735 186.064 13.735 188.032 12.0916C196.274 5.23425 175.883 5.99932 167.726 15.9452C166.699 17.192 163.248 21.6408 158.999 27.1946" fill="#A35BFB"/>
<path d="M158.999 51.9886C172.204 33.1735 186.064 13.735 188.032 12.0916C196.274 5.23425 175.883 5.99932 167.726 15.9452C166.699 17.192 163.248 21.6408 158.999 27.1946" stroke="#161616" stroke-width="0.448528" stroke-linecap="round" stroke-linejoin="round"/>
<path d="M94.6874 74.5726L117.902 65.1367" stroke="#161616" stroke-width="0.448528" stroke-linecap="round" stroke-linejoin="round"/>
<path d="M141.859 49.6133C138.066 54.5437 135.414 58.0291 135.414 58.0291L141.859 49.6133Z" fill="#A35BFB"/>
<path d="M141.859 49.6133C138.066 54.5437 135.414 58.0291 135.414 58.0291" stroke="#161616" stroke-width="0.448528" stroke-linecap="round" stroke-linejoin="round"/>
<path d="M142.137 54.6844L133.553 74.7746L135.378 58.0563L127.735 16.3741C113.96 18.811 121.318 53.1826 120.091 58.368C119.493 60.8616 116.954 67.8889 114.445 74.5195C114.102 74.3212 113.618 74.2078 113.047 74.1795C103.55 73.8678 66.8168 75.993 66.8168 75.993C66.8168 75.993 83.0445 50.434 87.0372 37.6545C91.0299 24.8749 89.1762 20.5679 75.6294 35.1609C62.0825 49.7539 39.495 59.8415 15.7667 84.1821C-7.96165 108.523 3.33215 148.505 3.33215 148.505L-30.9769 222.008H43.2596C43.2596 222.008 39.8943 214.698 52.1292 168.453C53.7833 162.248 55.8367 156.467 58.2039 151.112C75.4582 133.033 121.803 126.856 133.895 114.303C147.071 100.617 158.992 71.7143 158.992 71.7143V0.222656C137.545 1.7528 142.166 54.6844 142.166 54.6844H142.137Z" fill="#A35BFB" stroke="#161616" stroke-width="0.448528" stroke-linecap="round" stroke-linejoin="round"/>
<path d="M34.5126 122.829C57.9558 97.7238 109.148 88.3446 109.148 88.3446L114.453 74.4883" fill="#A35BFB"/>
<path d="M34.5126 122.829C57.9558 97.7238 109.148 88.3446 109.148 88.3446L114.453 74.4883" stroke="#161616" stroke-width="0.448528" stroke-linecap="round" stroke-linejoin="round"/>
<path d="M60.5667 86.0808L66.8125 75.9648" stroke="#161616" stroke-width="0.448528" stroke-linecap="round" stroke-linejoin="round"/>
<path d="M133.586 74.7695L130.534 96.4749" stroke="#161616" stroke-width="0.448528" stroke-linecap="round" stroke-linejoin="round"/>
<path d="M142.142 54.6836L148.844 55.5903" stroke="#161616" stroke-width="0.448528" stroke-linecap="round" stroke-linejoin="round"/>
<path d="M120.152 58.0273L125.855 58.8774" stroke="#161616" stroke-width="0.448528" stroke-linecap="round" stroke-linejoin="round"/>
<path d="M83.6484 46.0422L79.1994 43.832" stroke="#161616" stroke-width="0.448528" stroke-linecap="round" stroke-linejoin="round"/>
</svg>
