<svg width="400" height="381" viewBox="0 0 400 381" fill="none" xmlns="http://www.w3.org/2000/svg">
<path d="M84.3659 130.557C84.3659 130.557 24.6178 78.4686 6.26384 75.8981C-12.0902 73.2791 16.2218 60.8148 40.3359 70.1752C64.4499 79.5356 99.5471 115.474 99.5471 115.474L84.3659 130.557Z" fill="#A35BFB"/>
<path d="M116.778 150.593C116.778 150.593 30.8165 26.2402 24.1778 20.7113C10.0706 8.97438 44.9725 10.2839 58.9332 27.3557C64.6444 34.3396 114.239 99.3289 114.239 99.3289L212.941 139.438L116.729 150.593H116.778Z" fill="#A35BFB"/>
<path d="M399.024 379.992L340.301 254.184C340.301 254.184 359.631 185.751 319.018 144.09C278.405 102.429 239.744 85.1635 216.558 60.1863C193.371 35.2091 190.198 42.581 197.032 64.4543C203.866 86.3275 231.641 130.074 231.641 130.074C231.641 130.074 168.769 126.437 152.514 126.97C136.259 127.504 174.529 170.183 174.529 170.183C174.529 170.183 235.839 209.225 256.829 288.376C277.77 367.527 272.01 380.04 272.01 380.04H399.072L399.024 379.992Z" fill="#A35BFB"/>
<path d="M301.875 232.601C276.735 172.705 159.192 151.171 159.192 151.171C159.192 151.171 142.546 108.685 140.447 99.81C138.348 90.9346 150.942 32.1047 127.365 27.9338L114.283 99.2765L117.407 127.891L102.714 93.505C102.714 93.505 110.573 2.90803 73.9141 0.289062V122.653C73.9141 122.653 94.3671 172.123 116.87 195.548C139.422 218.973 231.631 229.401 253.109 267.424C274.588 305.448 301.826 232.553 301.826 232.553L301.875 232.601Z" fill="#A35BFB"/>
<path d="M73.871 121.679C55.9075 106.693 19.7853 77.7873 6.26384 75.8958C-12.0902 73.3253 16.2218 60.7639 40.3359 70.1728C50.6844 74.1983 63.132 83.1222 73.871 91.9976" fill="#A35BFB"/>
<path d="M73.871 121.679C55.9075 106.693 19.7853 77.7873 6.26384 75.8958C-12.0902 73.3253 16.2218 60.7639 40.3359 70.1728C50.6844 74.1983 63.132 83.1222 73.871 91.9976" stroke="#161616" stroke-width="0.767695" stroke-linecap="round" stroke-linejoin="round"/>
<path d="M73.8703 88.9946C51.2695 56.7909 27.546 23.5203 24.1778 20.7073C10.0706 8.97045 44.9725 10.2799 58.9332 27.3032C60.6905 29.4372 66.597 37.0516 73.8703 46.5575" fill="#A35BFB"/>
<path d="M73.8703 88.9946C51.2695 56.7909 27.546 23.5203 24.1778 20.7073C10.0706 8.97045 44.9725 10.2799 58.9332 27.3032C60.6905 29.4372 66.597 37.0516 73.8703 46.5575" stroke="#161616" stroke-width="0.767695" stroke-linecap="round" stroke-linejoin="round"/>
<path d="M183.945 127.643L144.211 111.492" stroke="#161616" stroke-width="0.767695" stroke-linecap="round" stroke-linejoin="round"/>
<path d="M103.211 84.9141C109.703 93.353 114.243 99.3184 114.243 99.3184L103.211 84.9141Z" fill="#A35BFB"/>
<path d="M103.211 84.9141C109.703 93.353 114.243 99.3184 114.243 99.3184" stroke="#161616" stroke-width="0.767695" stroke-linecap="round" stroke-linejoin="round"/>
<path d="M102.724 93.5988L117.417 127.985L114.293 99.3702L127.375 28.0275C150.952 32.1984 138.358 91.0283 140.457 99.9037C141.482 104.172 145.827 116.2 150.122 127.548C150.708 127.209 151.538 127.015 152.514 126.966C168.769 126.433 231.641 130.07 231.641 130.07C231.641 130.07 203.866 86.3239 197.032 64.4506C190.198 42.5773 193.371 35.2054 216.558 60.1827C239.744 85.1599 278.405 102.426 319.018 144.087C359.631 185.748 340.301 254.18 340.301 254.18L399.024 379.988H271.961C271.961 379.988 277.721 367.475 256.78 288.324C253.949 277.703 250.435 267.809 246.383 258.642C216.851 227.7 137.528 217.127 116.831 195.642C94.2791 172.216 73.875 122.747 73.875 122.747V0.382812C110.583 3.00178 102.675 93.5988 102.675 93.5988H102.724Z" fill="#A35BFB" stroke="#161616" stroke-width="0.767695" stroke-linecap="round" stroke-linejoin="round"/>
<path d="M286.942 210.24C246.817 167.27 159.197 151.216 159.197 151.216L150.117 127.5" fill="#A35BFB"/>
<path d="M286.942 210.24C246.817 167.27 159.197 151.216 159.197 151.216L150.117 127.5" stroke="#161616" stroke-width="0.767695" stroke-linecap="round" stroke-linejoin="round"/>
<path d="M242.331 147.338L231.641 130.023" stroke="#161616" stroke-width="0.767695" stroke-linecap="round" stroke-linejoin="round"/>
<path d="M117.367 127.984L122.59 165.135" stroke="#161616" stroke-width="0.767695" stroke-linecap="round" stroke-linejoin="round"/>
<path d="M102.713 93.6016L91.2422 95.1535" stroke="#161616" stroke-width="0.767695" stroke-linecap="round" stroke-linejoin="round"/>
<path d="M140.349 99.3203L130.586 100.775" stroke="#161616" stroke-width="0.767695" stroke-linecap="round" stroke-linejoin="round"/>
<path d="M202.836 78.8064L210.451 75.0234" stroke="#161616" stroke-width="0.767695" stroke-linecap="round" stroke-linejoin="round"/>
</svg>
