<svg width="1920" height="1921" viewBox="0 0 1920 1921" fill="none" xmlns="http://www.w3.org/2000/svg">
<g clip-path="url(#clip0_2328_2998)">
<path d="M1920 0H0V1920.14H1920V0Z" fill="#FFDC47"/>
<path d="M523.268 0H331.926C545.874 635.098 736.421 1278.12 928.185 1920.14H934.556C802.466 1279.18 671.766 637.467 523.268 0ZM876.736 0C901.973 639.963 923.869 1280.06 946.145 1920.14H950.523C978.478 1280.06 1005.93 639.921 1037.6 0H876.736ZM1205.48 0C1114.57 639.038 1035.28 1279.78 954.816 1920.14H957.269C1066.73 1279.47 1174.8 638.216 1298.15 0H1205.48ZM1394.79 0C1237.97 637.198 1099.78 1279.07 960.165 1920.14H967.73C1167.34 1277.94 1365.81 634.767 1588.27 0H1394.79ZM1309.03 1920.14H1920V1812.17C1716.34 1848.16 1512.69 1884.15 1309.03 1920.14ZM1039.08 1920.14H1097.34C1371.49 1804.5 1645.67 1688.95 1920 1573.74V1325.43C1625.7 1522.69 1332.32 1721.35 1039.08 1920.14ZM0 871.937V1034.54C297.93 1327.42 592.565 1623.68 886.978 1920.14H896.578C599.731 1569.04 302.619 1218.09 0 871.937ZM0 1680.78V1802.99C206.23 1842.01 412.459 1881.08 618.685 1920.14H750.199C500.154 1840.29 250.11 1760.48 0 1680.78ZM0 1310.57V1555.54C268.822 1676.78 537.468 1798.42 806.068 1920.14H857.847C572.301 1716.35 286.652 1512.72 0 1310.57ZM1009.62 1920.14H1021.57C1320.32 1673.09 1619.22 1426.25 1920 1181.72V1028.36C1614.22 1323.22 1311.8 1621.57 1009.62 1920.14ZM217.396 0H92.0303C386.884 631.738 653.518 1276.39 920.816 1920.14H924.529C696.853 1277.34 470.117 633.527 217.396 0ZM983.39 1920.14H993.474C1299.28 1512.23 1605.39 1104.39 1920 703.205V318.413C1595.5 844.972 1289.39 1382.7 983.39 1920.14ZM1818.01 0C1518.27 631.515 1246.99 1276.28 975.138 1920.14H979.054C1283.84 1299.59 1588.43 678.387 1920 71.6015V0H1818.01ZM789.302 0H700.121C787.421 639.103 863.53 1279.8 940.788 1920.14H943.396C893.944 1279.98 845.282 639.656 789.302 0ZM0 307.684V693.559C307.042 1098.04 605.437 1509.04 903.544 1920.14H913.167C615.014 1379.23 316.773 837.979 0 307.684Z" fill="#FFD007"/>
</g>
<rect x="0.5" y="0.5" width="1919" height="1919.14" rx="959.5" stroke="black"/>
<defs>
<clipPath id="clip0_2328_2998">
<rect width="1920" height="1920.14" rx="960" fill="white"/>
</clipPath>
</defs>
</svg>
