<svg width="440" height="719" viewBox="0 0 440 719" fill="none" xmlns="http://www.w3.org/2000/svg">
<g clip-path="url(#clip0_2373_12591)">
<path d="M-439.719 56.5477C-439.719 421.884 -143.555 718.095 221.781 718.095C587.118 718.095 883.281 421.884 883.281 56.5477C883.281 -308.789 587.118 -605 221.781 -605C-143.555 -605 -439.719 -308.789 -439.719 56.5477Z" fill="#FFDC47"/>
<path d="M-79.1545 -605H-211.001C-63.5773 -167.378 67.7212 275.703 199.859 718.095H204.249C113.23 276.433 23.1702 -165.745 -79.1545 -605ZM164.407 -605C181.797 -164.025 196.885 277.044 212.234 718.095H215.251C234.514 277.044 253.428 -164.055 275.255 -605H164.407ZM390.932 -605C328.292 -164.663 273.654 276.846 218.209 718.095H219.9C295.325 276.631 369.792 -165.229 454.791 -605H390.932ZM521.376 -605C413.32 -165.931 318.097 276.359 221.895 718.095H227.108C364.654 275.581 501.409 -167.606 654.701 -605H521.376ZM462.287 718.095H883.281V643.7C742.944 668.501 602.622 693.297 462.287 718.095ZM276.274 718.095H316.417C505.325 638.41 694.249 558.789 883.279 479.408V308.302C680.487 444.231 478.335 581.118 276.274 718.095ZM-439.719 -4.18127V107.862C-234.426 309.678 -31.4043 513.814 171.464 718.098H178.079C-26.4668 476.164 -231.196 234.337 -439.719 -4.18127ZM-439.719 553.166V637.376C-297.614 664.262 -155.509 691.18 -13.4062 718.095H77.2153C-95.0811 663.074 -267.377 608.082 -439.719 553.166ZM-439.719 298.062V466.865C-254.483 550.406 -69.3698 634.222 115.712 718.095H151.391C-45.3676 577.673 -242.198 437.357 -439.719 298.062ZM255.973 718.095H264.205C470.061 547.86 676.023 377.776 883.281 209.279V103.607C672.578 306.78 464.192 512.361 255.973 718.095ZM-289.919 -605H-376.304C-173.131 -169.693 10.5962 274.515 194.781 718.095H197.34C40.4565 275.168 -115.778 -168.46 -289.919 -605ZM237.898 718.095H244.847C455.564 437.021 666.497 155.994 883.281 -120.448V-385.594C659.684 -22.7617 448.752 347.767 237.898 718.095ZM813.005 -605C606.464 -169.847 419.535 274.438 232.212 718.095H234.911C444.927 290.502 654.807 -137.549 883.281 -555.662V-605H813.005ZM104.16 -605H42.7083C102.863 -164.618 155.307 276.862 208.543 718.095H210.34C176.264 276.983 142.734 -164.237 104.16 -605ZM-439.719 -392.986V-127.095C-228.147 151.617 -22.5349 434.824 182.879 718.095H189.51C-15.9358 345.373 -221.442 -27.58 -439.719 -392.986Z" fill="#FFD007"/>
</g>
<rect x="-439.219" y="-604.5" width="1322" height="1322.1" rx="661" stroke="black"/>
<defs>
<clipPath id="clip0_2373_12591">
<rect x="-439.719" y="-605" width="1323" height="1323.1" rx="661.5" fill="white"/>
</clipPath>
</defs>
</svg>
