<svg width="594" height="742" viewBox="0 0 594 742" fill="none" xmlns="http://www.w3.org/2000/svg">
<path d="M320.414 527.592L392.524 411.979L365.147 410.038L209.381 502.06L97.3334 668.434C97.3334 668.434 268.683 588.654 320.414 527.592Z" fill="#DF0586" stroke="#161616" stroke-width="0.954352" stroke-linecap="round" stroke-linejoin="round"/>
<path d="M43.0343 590.637L149.071 420.629L210.201 501.09L98.952 669.421L43.0343 590.637Z" fill="#7A44BC" stroke="#161616" stroke-width="0.954352" stroke-linecap="round" stroke-linejoin="round"/>
<path d="M260.378 190.268L312.95 105.98L346.006 170.198L406.968 270.825L394.963 350.537L356.301 403.561C329.198 415.35 281.819 427.982 309.127 384.199C334.402 343.676 290.993 257.887 260.723 211.372C256.557 204.97 256.336 196.749 260.378 190.268Z" fill="#7A44BC" stroke="#161616" stroke-width="0.954352" stroke-linecap="round" stroke-linejoin="round"/>
<path d="M587.046 140.704L538.072 219.223C479.499 193.65 407.884 162.326 346.098 165.122C341.362 157.442 337.306 149.528 335.137 140.476C329.194 115.575 341.581 98.107 365.313 90.9755C432.811 73.2744 518.783 110.895 587.046 140.704Z" fill="#DF0586" stroke="#161616" stroke-width="0.954352" stroke-linecap="round" stroke-linejoin="round"/>
<path d="M365.428 91.0486C341.696 98.1801 329.309 115.648 335.252 140.549C337.421 149.601 341.477 157.515 346.212 165.195C347.608 167.477 349.075 169.734 350.567 171.994C372.944 203.418 399.099 233.568 413.429 270.125C435.767 322.568 427.158 377.054 387.687 415.277C339.488 463.195 264.725 492.325 210.17 500.796L149.003 420.311C229.576 410.15 407.244 397.418 380.007 282.831C374.23 258.541 360.999 235.78 347.132 213.774C331.151 187.763 308.841 159.107 307.527 129.504C306.777 84.7577 358.045 72.5382 396.408 71.7923C466.535 70.6778 529.714 102.755 592.088 132.876L588.754 141.469C588.228 141.237 587.702 141.005 587.161 140.777C518.898 110.968 432.925 73.3475 365.428 91.0486Z" fill="#A35BFB" stroke="#161616" stroke-width="0.954352" stroke-linecap="round" stroke-linejoin="round"/>
</svg>
