<svg width="149" height="211" viewBox="0 0 149 211" fill="none" xmlns="http://www.w3.org/2000/svg">
<path d="M48.8989 71.5091C48.8989 71.5091 17.3996 42.5426 7.5311 40.8927C-2.33673 39.2165 13.1212 32.895 26.0011 38.2918C38.881 43.6887 57.3078 63.5862 57.3078 63.5862L48.8989 71.5091Z" fill="#EB5328"/>
<path d="M66.1037 82.7805C66.1037 82.7805 21.4921 14.4391 17.9885 11.3602C10.5431 4.82408 29.3603 6.03042 36.6503 15.4436C39.6325 19.2945 65.4676 55.078 65.4676 55.078L118.161 78.137L66.0773 82.7798L66.1037 82.7805Z" fill="#EB5328"/>
<path d="M215.139 210.622L185.248 141.886C185.248 141.886 196.66 105.23 175.338 82.1654C154.016 59.1003 133.399 49.2288 121.243 35.4172C109.087 21.6055 107.27 25.5386 110.645 37.441C114.02 49.3434 128.383 73.3502 128.383 73.3502C128.383 73.3502 94.5042 70.4871 85.724 70.5423C76.9439 70.5976 96.9866 94.1788 96.9866 94.1788C96.9866 94.1788 129.516 116.127 139.71 159.144C149.879 202.16 146.591 208.83 146.591 208.83L215.164 210.649L215.139 210.622Z" fill="#EB5328"/>
<path d="M164.826 129.693C152.116 97.0076 88.9879 83.7036 88.9879 83.7036C88.9879 83.7036 80.6129 60.5367 79.6071 55.7167C78.6014 50.8968 86.2403 19.3277 73.5758 16.7392L65.4944 55.0543L66.7708 70.5418L59.3335 51.7739C59.3335 51.7739 64.8718 2.99288 45.125 1.05469L43.3733 67.0924C43.3733 67.0924 53.7033 94.0829 65.5125 107.047C77.3481 120.012 126.962 126.96 138.009 147.788C149.056 168.616 164.8 129.666 164.8 129.666L164.826 129.693Z" fill="#EB5328"/>
<path d="M43.3658 66.5683C33.8857 58.2233 14.805 42.1064 7.53481 40.892C-2.33371 39.242 13.1256 32.8682 26.0048 38.2912C31.5321 40.6118 38.122 45.6061 43.7907 50.5497" stroke="#161616" stroke-width="0.414457" stroke-linecap="round" stroke-linejoin="round"/>
<path d="M43.829 48.927C32.0928 31.2238 19.7659 12.9286 17.9885 11.3623C10.5431 4.82618 29.3602 6.03251 36.6509 15.4195C37.5687 16.5964 40.6474 20.7903 44.4365 26.0245" stroke="#161616" stroke-width="0.414457" stroke-linecap="round" stroke-linejoin="round"/>
<path d="M102.685 71.363L81.4727 62.0781" stroke="#161616" stroke-width="0.414457" stroke-linecap="round" stroke-linejoin="round"/>
<path d="M59.7188 47.1484C63.1017 51.7957 65.4663 55.0801 65.4663 55.0801" stroke="#161616" stroke-width="0.414457" stroke-linecap="round" stroke-linejoin="round"/>
<path d="M59.3364 51.8293L66.7737 70.5972L65.4973 55.1096L73.5787 16.7946C86.2432 19.3831 78.6043 50.9522 79.61 55.7721C80.1021 58.0901 82.2746 64.6435 84.4304 70.8298C84.7514 70.655 85.202 70.5621 85.7295 70.55C94.5097 70.4947 128.389 73.3578 128.389 73.3578C128.389 73.3578 114.025 49.351 110.65 37.4486C107.275 25.5462 109.093 21.6131 121.249 35.4248C133.405 49.2364 154.022 59.1079 175.344 82.173C196.665 105.238 185.254 141.893 185.254 141.893L215.144 210.63L146.571 208.811C146.571 208.811 149.859 202.141 139.69 159.124C138.314 153.352 136.559 147.962 134.504 142.957C119.009 125.835 76.3513 118.993 65.489 107.102C53.6535 94.1369 43.3499 67.1471 43.3499 67.1471L45.1016 1.10938C64.8747 3.04826 59.3101 51.8286 59.3101 51.8286L59.3364 51.8293Z" stroke="#161616" stroke-width="0.414457" stroke-linecap="round" stroke-linejoin="round"/>
<path d="M157.087 117.409C136.048 93.644 88.9902 83.7261 88.9902 83.7261L84.4297 70.7969" stroke="#161616" stroke-width="0.414457" stroke-linecap="round" stroke-linejoin="round"/>
<path d="M133.912 82.8254L128.391 73.3281" stroke="#161616" stroke-width="0.414457" stroke-linecap="round" stroke-linejoin="round"/>
<path d="M66.75 70.5938L69.037 90.718" stroke="#161616" stroke-width="0.414457" stroke-linecap="round" stroke-linejoin="round"/>
<path d="M59.3353 51.8205L53.1223 52.4938" stroke="#161616" stroke-width="0.414457" stroke-linecap="round" stroke-linejoin="round"/>
<path d="M79.5657 55.4523L74.276 56.0977" stroke="#161616" stroke-width="0.414457" stroke-linecap="round" stroke-linejoin="round"/>
<path d="M113.579 45.276L117.742 43.3434" stroke="#161616" stroke-width="0.414457" stroke-linecap="round" stroke-linejoin="round"/>
</svg>
