<svg width="574" height="345" viewBox="0 0 574 345" fill="none" xmlns="http://www.w3.org/2000/svg">
<path d="M351.578 259.808C338.707 268.634 325.729 277.355 312.858 286.182C293.392 302.453 276.373 313.407 262.864 320.958C262.013 321.49 261.162 321.915 259.992 322.553C253.928 325.744 233.718 336.06 207.657 341.271C194.36 343.929 151.067 351.906 102.881 331.061C44.0571 305.538 19.8042 255.234 15.5493 246.088C-10.4054 189.83 3.10387 138.676 6.93326 125.808C23.3145 70.8257 62.2466 41.6861 73.9475 33.6035C83.2018 28.3925 92.4561 23.075 101.604 17.8639C101.604 30.5194 101.817 43.1749 101.923 55.8304C92.3498 61.9987 82.7763 68.1669 73.3092 74.3351C64.0549 81.4605 48.5246 95.4985 38.2066 118.044C22.0381 153.352 29.0586 186.108 32.4625 200.89C36.0791 216.417 47.2481 253.214 82.0317 281.184C127.027 317.449 186.595 318.618 225.208 303.304C233.718 299.901 249.567 291.925 266.268 280.439C277.118 272.995 283.074 268.422 311.582 246.514C321.687 238.75 331.793 231.2 341.898 223.436C362.96 207.271 427.102 159.095 584 42.3242C583.575 59.659 583.043 76.8875 582.617 94.2224C505.604 149.417 428.591 204.612 351.684 259.914L351.578 259.808Z" fill="#A30462"/>
<path d="M102.353 56.1531C102.353 67.4261 102.565 78.699 102.565 89.972C95.332 93.3752 83.8439 99.9688 73.7386 112.199C59.4847 129.534 56.6126 148.038 54.9107 159.205C51.4004 182.389 55.9745 200.362 57.2509 204.935C58.9529 210.997 63.846 226.63 76.5042 242.689C93.0982 263.746 112.777 272.679 122.031 276.827C143.093 286.186 161.283 287.462 168.303 287.674C177.132 287.993 198.193 287.781 221.276 277.784C230.424 273.849 237.019 269.595 247.231 262.895C263.931 252.048 275.313 242.476 277.653 240.456C296.906 224.397 416.043 130.916 583.366 0.000854492C583.366 14.1453 583.366 28.396 583.472 42.5404C486.674 115.07 389.875 187.6 292.971 260.13C284.993 267.043 273.398 276.295 258.4 285.547C243.401 294.906 230.743 302.776 212.766 307.881C187.237 315.112 165.963 312.56 155.219 311.178C143.944 309.689 116.181 305.754 87.6732 285.973C78.2061 279.379 40.657 251.516 30.0198 202.489C25.4458 181.326 27.3604 163.459 28.3177 156.121C29.4878 146.337 31.9344 126.981 43.1034 107.094C61.5057 74.5514 91.0771 60.5134 102.14 55.9404L102.353 56.1531Z" fill="#DE0686"/>
</svg>
