<svg width="1501" height="1356" viewBox="0 0 1501 1356" fill="none" xmlns="http://www.w3.org/2000/svg">
<path d="M689.456 1004.54L911.548 825.059L858.668 802.439L487.096 877.826L151.101 1130.44C151.101 1130.44 545.135 1089.98 689.456 1004.54Z" fill="#DF0586" stroke="#161616" stroke-width="2" stroke-linecap="round" stroke-linejoin="round"/>
<path d="M96.9419 939.14L423.527 675.211L489.393 876.471L153.636 1133.5L96.9419 939.14Z" fill="#7A44BC" stroke="#161616" stroke-width="2" stroke-linecap="round" stroke-linejoin="round"/>
<path d="M812.199 287.088L963.855 164.527L985.27 314.366L1036.97 555.446L958.524 705.06L845.596 783.543C783.839 788.298 681.352 780.816 765.459 712.845C840.434 652.255 818.043 464.818 791.24 350.234C785.772 326.856 793.526 302.178 812.199 287.088Z" fill="#7A44BC" stroke="#161616" stroke-width="2" stroke-linecap="round" stroke-linejoin="round"/>
<path d="M1482.82 421.291L1331.98 543.189C1233.53 452.374 1113.2 341.225 988.932 304.383C984.822 285.926 982.218 267.473 984.132 248.06C989.442 194.674 1025.95 168.579 1077.84 170.734C1223.64 181.977 1368.08 315.443 1482.82 421.291Z" fill="#DF0586" stroke="#161616" stroke-width="2" stroke-linecap="round" stroke-linejoin="round"/>
<path d="M1078.02 170.956C1026.13 168.801 989.623 194.896 984.313 248.282C982.399 267.695 985.003 286.148 989.113 304.605C990.312 310.081 991.668 315.557 993.073 321.055C1015.83 398.63 1046.94 476.275 1050.25 558.495C1058.51 677.666 1004.09 779.657 899.715 828.276C771.403 890.105 603.375 896.511 489.533 875.866L423.609 674.534C590.134 709.675 950.692 806.323 975.349 560.731C980.57 508.669 969.98 454.521 957.615 401.433C943.809 338.965 919.284 266.916 936.988 207.394C966.192 118.271 1076.1 129.237 1152.58 154.073C1292.21 199.965 1395.32 306.819 1498.17 409.249L1485.68 423.978C1484.8 423.158 1483.91 422.337 1483 421.513C1368.27 315.665 1223.82 182.199 1078.02 170.956Z" fill="#A35BFB" stroke="#161616" stroke-width="2" stroke-linecap="round" stroke-linejoin="round"/>
<path d="M1140.52 183.498C1134.7 265.263 1069.3 302.006 987.509 296.498C980.506 248.998 985.511 209.003 1018.5 186.497C1044.01 169.101 1073.51 165.498 1140.52 183.498Z" fill="white"/>
<path d="M1140.52 183.498C1134.71 265.263 1069.3 302.006 987.512 296.498C980.509 248.998 985.514 209.003 1018.51 186.497C1044.01 169.101 1073.51 165.498 1140.52 183.498Z" fill="white"/>
<path d="M1064.03 237.737C1065.51 216.935 1049.84 198.936 1029.03 197.535C1008.22 196.134 990.156 211.861 988.677 232.663C987.199 253.465 1002.87 271.464 1023.67 272.865C1044.48 274.267 1062.55 258.539 1064.03 237.737Z" fill="#DF0586"/>
<path d="M1034.34 250.259C1042.88 242.822 1043.8 229.893 1036.39 221.382C1028.98 212.87 1016.05 211.999 1007.51 219.436C998.966 226.873 998.047 239.802 1005.46 248.314C1012.87 256.825 1025.8 257.696 1034.34 250.259Z" fill="#161616"/>
<path d="M782.546 720.762C790.069 614.915 869.177 540.631 975.052 547.762C971.632 595.882 959.949 631.937 929.548 663.261C893.077 700.841 838.545 716.262 782.546 720.762Z" fill="white"/>
<path d="M818.85 630.94C817.274 653.109 833.972 672.29 856.146 673.784C878.32 675.277 897.573 658.517 899.149 636.348C900.725 614.18 884.026 594.998 861.852 593.505C839.678 592.012 820.426 608.772 818.85 630.94Z" fill="#DF0586"/>
<path d="M843.164 612.533C834.06 620.458 833.081 634.236 840.977 643.307C848.873 652.377 862.655 653.305 871.759 645.38C880.863 637.454 881.843 623.676 873.946 614.606C866.05 605.535 852.269 604.607 843.164 612.533Z" fill="#161616"/>
</svg>
