<svg width="249" height="112" viewBox="0 0 249 112" fill="none" xmlns="http://www.w3.org/2000/svg">
<path d="M223.193 3.2793C224.716 3.11531 225.812 3.41713 226.373 3.88574C227.368 4.71633 229.085 5.56499 231.087 6.22168C233.112 6.88591 235.526 7.38564 237.967 7.45898C241.701 7.57115 245.674 6.66907 248.278 3.66211V106.254C248.265 106.285 248.25 106.321 248.231 106.36C248.149 106.535 248.016 106.788 247.827 107.081C247.447 107.67 246.848 108.404 245.971 109.001C244.285 110.148 241.315 110.964 236.287 108.659C231.306 106.376 229.206 102.666 227.105 99.6211C226.081 98.1363 224.98 96.6977 223.452 95.8955C221.952 95.1077 220.194 95.0028 217.981 95.6836L217.532 95.8301C215.418 96.5607 214.006 96.541 212.987 96.2422C211.958 95.9402 211.189 95.3161 210.407 94.5488C209.683 93.8382 208.817 92.847 207.785 92.2598C206.631 91.603 205.279 91.4214 203.553 92.0283C202.263 92.4818 201.459 92.3893 200.854 92.1328C200.184 91.8482 199.627 91.3164 198.883 90.5771C198.181 89.8798 197.327 89.0175 196.169 88.4326C194.973 87.8288 193.518 87.5472 191.623 87.835C189.889 88.0983 188.586 88.3617 187.528 88.5918C186.454 88.8256 185.694 89.0101 184.967 89.1348C183.605 89.368 182.413 89.3814 179.855 88.8789C179.075 88.7256 178.36 88.7418 177.729 88.9873C177.084 89.2386 176.636 89.6871 176.323 90.1934C176.021 90.6813 175.832 91.2414 175.689 91.7695C175.549 92.2901 175.428 92.8837 175.311 93.3975C175.058 94.5009 174.777 95.4165 174.225 96.0723C173.727 96.6634 172.905 97.1582 171.277 97.1582C167.797 97.1582 165.726 96.1241 163.953 95.0547C162.212 94.0044 160.447 92.6641 157.925 92.6641C155.865 92.6641 152.844 92.0715 149.271 91.4414C145.762 90.8228 141.81 90.1885 138.078 90.1885C135.977 90.1885 134.444 90.9603 133.179 92.042C131.984 93.0635 130.942 94.4553 129.95 95.5869C128.913 96.7703 127.819 97.8239 126.348 98.5176C124.89 99.2049 122.973 99.5791 120.242 99.2412C117.444 98.8951 115.053 98.2305 112.874 97.5195C110.737 96.8222 108.676 96.0326 106.748 95.5186C104.776 94.9929 102.799 94.71 100.672 95.0273C98.5414 95.3453 96.3385 96.2528 93.8877 97.9893C91.4671 99.7043 89.79 101.328 88.4229 102.715C87.0297 104.128 86.0505 105.189 84.9258 105.951C82.8487 107.359 80.1305 107.822 72.9131 105.932C69.3147 104.989 66.8057 104.136 64.9365 103.459C63.112 102.799 61.7644 102.252 60.6426 101.996C59.4207 101.717 58.385 101.755 57.1123 102.207C55.9171 102.632 54.4958 103.429 52.4854 104.607C48.8234 106.753 45.8853 105.934 43.001 104.941C41.5915 104.456 40.0734 103.879 38.5947 103.738C37.032 103.59 35.4761 103.918 33.9648 105.18C31.4166 107.308 29.3812 108.74 27.2949 109.552C25.2414 110.351 23.0707 110.572 20.2178 110.144C14.2165 109.24 11.8562 109.072 8.17969 110.42C7.5399 110.654 6.38638 110.729 5.07422 110.591C3.78219 110.455 2.52309 110.132 1.70703 109.719C1.28955 109.507 1.0881 109.322 1.01562 109.216C1.01345 109.213 1.00949 109.211 1.00781 109.209C1.05693 109.111 1.25255 108.858 1.85254 108.506C2.43818 108.162 3.31232 107.778 4.55762 107.374C6.99608 106.582 8.83436 106.481 10.3213 106.63C11.8531 106.784 12.9956 107.191 14.2646 107.512C15.5033 107.825 16.8098 108.031 18.2949 107.498C19.7412 106.979 21.2163 105.812 22.9707 103.736C26.4126 99.6649 29.1475 96.5965 32.3037 94.7949C35.3828 93.0374 38.9472 92.4459 44.1416 93.5938C47.0285 94.2317 49.1828 93.9012 50.9717 92.9932C52.7003 92.1157 54.0162 90.7241 55.2422 89.4873C56.5046 88.2139 57.7211 87.045 59.3564 86.2744C60.9648 85.5166 63.06 85.1103 66.1025 85.5527C69.2556 86.0113 72.2374 86.5493 74.9355 86.8652C77.6572 87.1839 80.2254 87.2962 82.6611 86.8838C87.6414 86.0404 91.8196 83.0486 95.7676 75.9668C97.7245 72.4567 99.0544 69.2049 100.196 66.4092C101.352 63.58 102.286 61.2976 103.47 59.5645C104.619 57.8805 105.968 56.772 107.949 56.2656C109.985 55.7453 112.793 55.8341 116.897 56.8037C125.589 58.8568 133.344 55.7763 138.772 53.2197C139.453 52.8991 140.1 52.5848 140.707 52.29C141.316 51.9942 141.882 51.7187 142.41 51.4707C143.479 50.9685 144.329 50.609 144.987 50.4307C145.694 50.2392 145.894 50.3388 145.903 50.3447C145.904 50.3449 145.904 50.3449 145.905 50.3457C145.906 50.3465 145.909 50.3492 145.914 50.3555C145.923 50.3679 145.942 50.3994 145.965 50.4609C146.012 50.5915 146.058 50.8218 146.058 51.2002C146.058 52.8922 145.779 54.7506 145.464 56.6367C145.155 58.485 144.807 60.3893 144.723 62.0391C144.641 63.6529 144.789 65.3111 145.738 66.4893C146.752 67.7466 148.41 68.1595 150.595 67.9033C153.057 67.6145 155.04 65.7684 156.708 63.5547C158.397 61.3136 159.946 58.4403 161.453 55.7324C162.985 52.9789 164.474 50.3967 166.083 48.5557C167.697 46.7087 169.244 45.8216 170.892 46.0049C174.92 46.4533 176.999 47.8891 178.708 49.0996C179.554 49.6993 180.434 50.3425 181.422 50.7031C182.474 51.0872 183.605 51.1441 184.975 50.7285C185.876 50.4549 186.467 49.8432 186.815 49.085C187.144 48.3688 187.259 47.5238 187.287 46.6895C187.316 45.8435 187.258 44.9149 187.185 43.9932C187.109 43.0509 187.018 42.1277 186.966 41.2051C186.858 39.3189 186.944 37.7887 187.486 36.7949C187.736 36.3379 188.083 35.9978 188.59 35.7783C189.116 35.5506 189.882 35.4248 191.002 35.5332C196.008 36.0177 200.891 35.5591 204.651 32.9824C208.461 30.3725 210.898 25.7474 211.337 18.4111C211.746 11.5817 214.897 7.34909 218.263 5.14453C219.958 4.03395 221.706 3.43946 223.193 3.2793Z" fill="#FFECE1" stroke="black" stroke-width="2"/>
</svg>
