<svg width="212" height="448" viewBox="0 0 212 448" fill="none" xmlns="http://www.w3.org/2000/svg">
<path d="M439.943 425.838L183.677 462.918L183.753 422.227L439.329 386.309L439.943 425.838Z" fill="#532E80" stroke="black" stroke-width="0.899619"/>
<path d="M439.687 384.875C439.897 384.826 440.152 384.901 440.377 385.092C440.572 385.257 440.687 385.503 440.691 385.774L441.32 426.209V426.21C441.329 426.672 440.994 427.067 440.539 427.132H440.538L183.365 464.343L183.356 464.344L183.349 464.346C183.323 464.35 183.302 464.351 183.229 464.351C183.004 464.351 182.794 464.272 182.633 464.128L182.624 464.121L182.553 464.053C182.396 463.886 182.31 463.666 182.31 463.433L182.387 421.837V421.836C182.387 421.374 182.726 420.993 183.172 420.933L183.174 420.932L439.646 384.883L439.667 384.88L439.687 384.875ZM438.367 386.917L184.612 422.584L184.226 422.639L184.225 423.028L184.153 461.854L184.152 462.375L184.668 462.301L439.077 425.485L439.469 425.429L439.463 425.033L438.879 387.355L438.871 386.847L438.367 386.917Z" fill="#532E80" stroke="black" stroke-width="0.899619"/>
<path d="M182.865 422.107L182.79 462.688L145.524 442.411L145.594 401.838L182.865 422.107Z" fill="#DABFFB" stroke="black" stroke-width="0.899619"/>
<path d="M144.703 400.282C144.962 400.119 145.3 400.106 145.596 400.27L145.598 400.271L183.76 421.034V421.035C184.051 421.196 184.234 421.505 184.234 421.841L184.156 463.437V463.438C184.156 463.762 183.985 464.064 183.709 464.221L183.699 464.226L183.69 464.232C183.557 464.317 183.409 464.356 183.237 464.356C183.087 464.356 182.937 464.321 182.803 464.245L182.798 464.242L144.633 443.477C144.344 443.316 144.162 443.007 144.161 442.673L144.238 401.076V401.075C144.238 400.751 144.411 400.449 144.687 400.292L144.694 400.287L144.703 400.282ZM146.063 403.378L145.986 441.866L145.985 442.134L146.221 442.263L181.654 461.536L182.317 461.896L182.318 461.142L182.396 422.653L182.397 422.385L182.162 422.257L146.729 402.983L146.065 402.623L146.063 403.378Z" fill="#532E80" stroke="black" stroke-width="0.899619"/>
<path d="M438.365 385.533L183.395 421.365L146.552 401.328L401.527 365.489L438.365 385.533Z" fill="#A35BFB" stroke="black" stroke-width="0.899619"/>
<path d="M401.567 364.099C401.664 364.069 401.832 364.089 402.068 364.219L402.069 364.22L440.231 384.971V384.972C440.536 385.139 440.715 385.456 440.708 385.798L440.693 385.945L440.692 385.949C440.628 386.331 440.317 386.635 439.923 386.688H439.919L183.446 422.737L183.412 422.742L183.38 422.752C183.389 422.749 183.389 422.75 183.376 422.751C183.362 422.752 183.345 422.753 183.314 422.753C183.159 422.753 183.015 422.718 182.88 422.642L182.874 422.639L144.71 401.873H144.709C144.362 401.681 144.18 401.296 144.25 400.9L144.251 400.896C144.315 400.514 144.626 400.21 145.021 400.158L145.024 400.157L401.497 364.114L401.532 364.109L401.567 364.099ZM401.294 366.013L149.375 401.407L148.026 401.597L149.223 402.248L183.358 420.814L183.489 420.886L183.637 420.864L435.555 385.457L436.904 385.268L435.707 384.616L401.571 366.063L401.44 365.992L401.294 366.013Z" fill="#532E80" stroke="black" stroke-width="0.899619"/>
<path d="M358.876 195.586L190.24 219.986L190.294 193.471L358.471 169.836L358.876 195.586Z" fill="#532E80" stroke="black" stroke-width="0.899619"/>
<path d="M358.841 168.598C359.019 168.56 359.212 168.618 359.392 168.77C359.526 168.883 359.614 169.05 359.636 169.232L359.641 169.312L360.055 195.966V195.968C360.062 196.335 359.795 196.648 359.435 196.699H359.434L189.891 221.23L189.874 221.232L189.857 221.236H189.831C189.82 221.236 189.809 221.237 189.793 221.237C189.614 221.237 189.448 221.174 189.321 221.061L189.312 221.054L189.256 221C189.132 220.868 189.064 220.693 189.063 220.508L189.113 193.081V193.08C189.113 192.713 189.383 192.411 189.736 192.363L189.738 192.362L358.812 168.604L358.841 168.598ZM357.702 170.233L190.96 193.663L190.573 193.718V194.108L190.528 219.147L190.527 219.668L191.043 219.594L358.204 195.403L358.596 195.347L358.589 194.951L358.215 170.672L358.207 170.163L357.702 170.233Z" fill="#532E80" stroke="black" stroke-width="0.899619"/>
<path d="M189.396 193.34L189.341 219.743L165.083 206.547L165.131 180.143L189.396 193.34Z" fill="#DABFFB" stroke="black" stroke-width="0.899619"/>
<path d="M357.502 169.062L189.932 192.611L166.095 179.647L333.671 156.099L357.502 169.062Z" fill="#A35BFB" stroke="black" stroke-width="0.899619"/>
<path d="M290.285 128.217L147.7 148.849L147.738 126.548L289.953 106.559L290.285 128.217Z" fill="#532E80" stroke="black" stroke-width="0.899619"/>
<path d="M146.841 126.432L146.804 148.621L126.403 137.526L126.445 115.338L146.841 126.432Z" fill="#DABFFB" stroke="black" stroke-width="0.899619"/>
<path d="M288.984 105.789L147.375 125.692L127.407 114.831L269.01 94.9268L288.984 105.789Z" fill="#A35BFB" stroke="black" stroke-width="0.899619"/>
<path d="M215.9 79.7822L99.3564 96.6396L99.3887 78.5537L215.625 62.2148L215.9 79.7822Z" fill="#532E80" stroke="black" stroke-width="0.899619"/>
<path d="M98.4941 78.4355L98.4629 96.4092L81.9307 87.417L81.9619 69.4434L98.4941 78.4355Z" fill="#DABFFB" stroke="black" stroke-width="0.899619"/>
<path d="M214.657 61.4482L99.0264 77.7012L82.9219 68.9414L198.553 52.6885L214.657 61.4482Z" fill="#A35BFB" stroke="black" stroke-width="0.899619"/>
<path d="M142.077 43.3506L51.5791 56.4414L51.6055 42.5713L141.868 29.8828L142.077 43.3506Z" fill="#532E80" stroke="black" stroke-width="0.899619"/>
<path d="M50.7119 42.4434L50.6855 56.2012L38.0166 49.3105L38.042 35.5527L50.7119 42.4434Z" fill="#DABFFB" stroke="black" stroke-width="0.899619"/>
<path d="M140.898 29.1152L51.2412 41.7178L39.001 35.0605L128.663 22.458L140.898 29.1152Z" fill="#A35BFB" stroke="black" stroke-width="0.899619"/>
<path d="M74.6104 15.1641L10.1543 24.4912L10.1738 14.8252L74.4629 5.79297L74.6104 15.1641Z" fill="#532E80" stroke="black" stroke-width="0.899619"/>
<path d="M9.27148 14.7051L9.25098 24.2588L0.450195 19.4697L0.464844 9.91602L9.27148 14.7051Z" fill="#DABFFB" stroke="black" stroke-width="0.899619"/>
<path d="M73.4883 5.02148L9.80566 13.9678L1.42773 9.41211L65.1152 0.46582L73.4883 5.02148Z" fill="#A35BFB" stroke="black" stroke-width="0.899619"/>
</svg>
