<svg width="67" height="809" viewBox="0 0 67 809" fill="none" xmlns="http://www.w3.org/2000/svg">
<path d="M0.825684 518.308L276.975 786.232L574.992 1079L542.687 0L3.98999 242.223L0.825684 518.308Z" fill="#FCDAC6"/>
<path d="M540.303 1042.55L538.648 3.23047L3.172 241.688L3.16553 242.212L-0.00280762 518.65L0.249146 518.898L540.303 1042.55ZM536.995 5.80037L538.65 1038.62L1.65601 517.963L4.81067 242.755L536.995 5.80037Z" fill="#232325"/>
<path d="M80.9198 270.496C96.9804 265.069 111.617 300.354 111.617 349.982V558.763V626.646L56.3289 572.406V350.785C56.3297 311.032 66.7062 275.299 80.9198 270.496Z" fill="#808080"/>
<path d="M81.2225 270.519C97.2831 265.093 111.92 300.378 111.92 350.005V558.787L56.6316 350.809C56.6325 311.055 67.0089 275.322 81.2225 270.519Z" fill="#232325"/>
<g opacity="0.63">
<path d="M27.4254 288.7C37.1194 285.425 45.7207 313.165 45.7207 350.97V510.015V561.727L12.0407 528.685V351.459C12.0407 319.669 18.6149 291.677 27.4254 288.7Z" fill="#808080"/>
<path d="M27.1227 288.677C36.8167 285.401 45.418 313.142 45.418 350.947V509.992L11.738 351.436C11.738 319.645 18.3122 291.654 27.1227 288.677Z" fill="#232325"/>
</g>
<path d="M55.3152 572.211H110.604V626.451L55.3152 572.211Z" fill="#232325"/>
<path d="M11.5075 528.598H45.1875V561.64L11.5075 528.598Z" fill="#232325"/>
<path d="M112.443 628.617V349.986C112.443 312.187 103.95 280.695 91.3076 271.623C87.8485 269.139 84.265 268.497 80.6549 269.718C66.3161 274.562 55.5027 309.416 55.5027 350.789V572.757L55.7507 572.999L112.443 628.617ZM84.1738 270.777C86.2494 270.777 88.3145 271.508 90.3441 272.965C102.383 281.604 110.791 313.277 110.791 349.985V624.681L57.1544 572.062V350.788C57.1544 310.759 67.7093 275.835 81.1839 271.282C82.1805 270.945 83.1788 270.777 84.1738 270.777Z" fill="#232325"/>
<path d="M46.2461 563.671V350.948C46.2461 320.27 40.5354 294.747 32.3581 288.878C30.5724 287.597 28.7237 287.266 26.8605 287.895C17.7689 290.966 10.9137 318.283 10.9137 351.437V529.009L11.1617 529.251L46.2461 563.671ZM28.6833 289.24C29.5854 289.24 30.4811 289.566 31.3946 290.221C37.9534 294.928 44.5945 317.298 44.5945 350.948V559.736L12.567 528.315V351.438C12.567 320.024 19.2163 292.223 27.3895 289.461L27.3903 289.461C27.824 289.314 28.2544 289.24 28.6833 289.24Z" fill="#232325"/>
</svg>
