<svg width="410" height="260" viewBox="0 0 410 260" fill="none" xmlns="http://www.w3.org/2000/svg">
<path d="M431.886 89.1738L56.373 143.507L56.4854 83.6104L430.98 30.9795L431.886 89.1738Z" fill="#532E80" stroke="black"/>
<path d="M55.4886 83.4775L55.3763 143.25L0.500366 113.391L0.602905 53.6289L55.4886 83.4775Z" fill="#DABFFB" stroke="black"/>
<path d="M429.901 30.1172L56.079 82.6533L1.67078 53.0635L375.502 0.517578L429.901 30.1172Z" fill="#A35BFB" stroke="black"/>
<path d="M552.564 225.872L116.658 288.944L116.789 219.278L551.511 158.183L552.564 225.872Z" fill="#532E80" stroke="black"/>
<path d="M115.787 219.15L115.656 288.691L51.8169 253.956L51.936 184.426L115.787 219.15Z" fill="#DABFFB" stroke="black"/>
<path d="M550.433 157.322L116.382 218.323L53.0093 183.857L487.071 122.846L550.433 157.322Z" fill="#A35BFB" stroke="black"/>
</svg>
