<svg width="205" height="401" viewBox="0 0 205 401" fill="none" xmlns="http://www.w3.org/2000/svg">
<path d="M210.529 214.91L210.469 244.262L183.504 229.592L183.558 200.242L210.529 214.91Z" fill="#DABFFB" stroke="black"/>
<path d="M397.394 187.924L211.122 214.101L184.628 199.691L370.903 173.514L397.394 187.924Z" fill="#A35BFB" stroke="black"/>
<path d="M322.675 142.523L164.181 165.458L164.223 140.669L322.305 118.448L322.675 142.523Z" fill="#532E80" stroke="black"/>
<path d="M163.227 140.539L163.186 165.204L140.508 152.871L140.556 128.207L163.227 140.539Z" fill="#DABFFB" stroke="black"/>
<path d="M321.229 117.591L163.818 139.717L141.624 127.644L299.027 105.518L321.229 117.591Z" fill="#A35BFB" stroke="black"/>
<path d="M239.989 88.6816L110.442 107.422L110.478 87.3174L239.684 69.1553L239.989 88.6816Z" fill="#532E80" stroke="black"/>
<path d="M109.486 87.1865L109.451 107.167L91.0742 97.1699L91.1094 77.1914L109.486 87.1865Z" fill="#DABFFB" stroke="black"/>
<path d="M238.607 68.3008L110.075 86.3691L92.1729 76.6318L220.707 58.5645L238.607 68.3008Z" fill="#A35BFB" stroke="black"/>
<path d="M157.933 48.1895L57.3369 62.7402L57.3662 47.3223L157.7 33.2178L157.933 48.1895Z" fill="#532E80" stroke="black"/>
<path d="M56.3701 47.1787L56.3408 62.4727L42.2578 54.8125L42.2871 39.5195L56.3701 47.1787Z" fill="#DABFFB" stroke="black"/>
<path d="M156.622 32.3633L56.9609 46.373L43.3545 38.9727L143.021 24.9629L156.622 32.3633Z" fill="#A35BFB" stroke="black"/>
<path d="M82.9346 16.8525L11.2861 27.2217L11.3086 16.4766L82.7715 6.43652L82.9346 16.8525Z" fill="#532E80" stroke="black"/>
<path d="M10.3057 16.3428L10.2832 26.9629L0.5 21.6396L0.516602 11.0195L10.3057 16.3428Z" fill="#DABFFB" stroke="black"/>
<path d="M81.6904 5.58105L10.9004 15.5264L1.58789 10.4629L72.3838 0.517578L81.6904 5.58105Z" fill="#A35BFB" stroke="black"/>
</svg>
