<svg width="595" height="742" viewBox="0 0 595 742" fill="none" xmlns="http://www.w3.org/2000/svg">
<path d="M322.122 527.92L394.07 412.567L366.498 410.47L210.198 501.733L98.3291 667.686C98.3291 667.686 270.385 588.767 322.122 527.92Z" fill="#DF0586" stroke="#161616" stroke-width="0.954352" stroke-linecap="round" stroke-linejoin="round"/>
<path d="M43.2282 589.489L149.026 419.863L211.019 500.767L99.9641 668.684L43.2282 589.489Z" fill="#7A44BC" stroke="#161616" stroke-width="0.954352" stroke-linecap="round" stroke-linejoin="round"/>
<path d="M259.839 189.764L312.245 105.742L345.884 170.225L407.82 271.319L396.181 351.062L357.556 403.936C330.337 415.587 282.709 427.97 309.956 384.285C335.18 343.843 290.97 257.673 260.235 210.937C256.021 204.53 255.78 196.271 259.839 189.764Z" fill="#7A44BC" stroke="#161616" stroke-width="0.954352" stroke-linecap="round" stroke-linejoin="round"/>
<path d="M588.381 142.045L539.518 220.387C480.407 194.454 408.134 162.69 345.947 165.143C341.137 157.427 337.009 149.48 334.775 140.405C328.652 115.44 341.025 98.0191 364.877 91.0119C432.729 73.667 519.492 111.817 588.381 142.045Z" fill="#DF0586" stroke="#161616" stroke-width="0.954352" stroke-linecap="round" stroke-linejoin="round"/>
<path d="M364.993 91.0856C341.14 98.0928 328.768 115.513 334.891 140.478C337.125 149.554 341.253 157.5 346.063 165.217C347.482 167.509 348.97 169.777 350.485 172.048C373.189 203.637 399.689 233.971 414.321 270.654C437.103 323.288 428.741 377.793 389.219 415.842C340.964 463.549 265.861 492.297 210.986 500.472L148.955 419.545C230.015 409.822 408.808 398.07 380.744 283.188C374.793 258.835 361.345 235.972 347.261 213.861C331.027 187.728 308.406 158.911 306.918 129.264C305.911 84.458 357.456 72.5107 396.073 71.9789C466.666 71.2561 530.451 103.727 593.414 134.236L590.106 142.821C589.575 142.585 589.044 142.35 588.497 142.118C519.608 111.89 432.845 73.7407 364.993 91.0856Z" fill="#A35BFB" stroke="#161616" stroke-width="0.954352" stroke-linecap="round" stroke-linejoin="round"/>
<path d="M298.536 392.794C292.559 336.917 324.668 289.678 380.522 283.494C386.579 308.056 382.29 330.285 369.314 348.305C352.484 370.532 325.873 383.447 298.536 392.794Z" fill="white"/>
<path d="M328.019 318.413C329.27 330.115 339.768 338.552 351.466 337.257C363.163 335.962 371.632 325.425 370.38 313.723C369.128 302.02 358.631 293.583 346.933 294.878C335.235 296.173 326.767 306.71 328.019 318.413Z" fill="#DF0586"/>
<path d="M340.63 305.45C336.625 310.433 337.403 317.706 342.367 321.696C347.332 325.685 354.602 324.88 358.606 319.898C362.611 314.915 361.833 307.642 356.869 303.652C351.905 299.663 344.634 300.467 340.63 305.45Z" fill="#161616"/>
<path d="M393.578 89.8359C402.115 126.036 378.649 150.314 342.344 158.36C332.872 138.654 329.636 120.671 340.936 106.702C349.67 95.9043 362.009 90.5785 393.578 89.8359Z" fill="white"/>
<path d="M393.599 87.1052C402.137 123.305 378.649 150.316 342.344 158.361C332.872 138.656 329.049 120.608 340.349 106.64C348.633 96.3982 362.03 87.8478 393.599 87.1052Z" fill="white"/>
<path d="M380.444 106.323C378.272 97.1138 369.024 91.3072 359.788 93.354C350.552 95.4008 344.825 104.526 346.997 113.736C349.169 122.945 358.417 128.752 367.654 126.705C376.89 124.658 382.617 115.533 380.444 106.323Z" fill="#DF0586"/>
<path d="M368.999 111.836C371.707 107.521 370.357 101.797 365.983 99.0515C361.61 96.3057 355.87 97.5779 353.162 101.893C350.454 106.208 351.804 111.932 356.177 114.678C360.55 117.424 366.291 116.151 368.999 111.836Z" fill="#161616"/>
</svg>
