<svg width="213" height="498" viewBox="0 0 213 498" fill="none" xmlns="http://www.w3.org/2000/svg">
<path d="M315.968 383.089L124.794 410.751L124.851 380.674L315.515 353.878L315.968 383.089Z" fill="#532E80" stroke="black"/>
<path d="M123.847 380.54L123.79 410.491L96.2695 395.518L96.3213 365.57L123.847 380.54Z" fill="#DABFFB" stroke="black"/>
<path d="M314.438 353.018L124.445 379.719L97.3975 365.009L287.393 338.303L314.438 353.018Z" fill="#A35BFB" stroke="black"/>
<path d="M346.402 304.58L186.067 327.779L186.114 302.691L346.023 280.218L346.402 304.58Z" fill="#532E80" stroke="black"/>
<path d="M185.104 302.559L185.058 327.521L162.113 315.037L162.156 290.078L185.104 302.559Z" fill="#DABFFB" stroke="black"/>
<path d="M344.933 279.359L185.696 301.738L163.226 289.518L322.465 267.135L344.933 279.359Z" fill="#A35BFB" stroke="black"/>
<path d="M222.774 227.607L222.73 251.175L201.066 239.388L201.106 215.824L222.774 227.607Z" fill="#DABFFB" stroke="black"/>
<path d="M373.995 205.616L223.362 226.786L202.171 215.262L352.808 194.088L373.995 205.616Z" fill="#A35BFB" stroke="black"/>
<path d="M333.549 115.025L204.271 133.73L204.308 113.667L333.246 95.5459L333.549 115.025Z" fill="#532E80" stroke="black"/>
<path d="M203.318 113.532L203.28 133.471L184.945 123.494L184.979 103.559L203.318 113.532Z" fill="#DABFFB" stroke="black"/>
<path d="M332.198 94.6846L203.932 112.711L186.068 102.996L314.337 84.9668L332.198 94.6846Z" fill="#A35BFB" stroke="black"/>
<path d="M262.646 78.0342L149.759 94.3682L149.791 76.9561L262.384 61.1318L262.646 78.0342Z" fill="#532E80" stroke="black"/>
<path d="M148.803 76.8184L148.771 94.1064L132.867 85.4521L132.896 68.168L148.803 76.8184Z" fill="#DABFFB" stroke="black"/>
<path d="M261.308 60.2744L149.389 76.0039L133.96 67.6133L245.882 51.8809L261.308 60.2744Z" fill="#A35BFB" stroke="black"/>
<path d="M174.781 50.7334L87.7783 63.3223L87.8027 50.0977L174.581 37.9014L174.781 50.7334Z" fill="#532E80" stroke="black"/>
<path d="M86.8018 49.9639L86.7764 63.0635L74.7148 56.5L74.7373 43.4023L86.8018 49.9639Z" fill="#DABFFB" stroke="black"/>
<path d="M173.52 37.0439L87.4141 49.1455L75.8271 42.8438L161.935 30.7402L173.52 37.0439Z" fill="#A35BFB" stroke="black"/>
<path d="M105.911 27.0625L42.208 36.2803L42.2256 26.8242L105.77 17.8936L105.911 27.0625Z" fill="#532E80" stroke="black"/>
<path d="M41.2236 26.6885L41.2061 36.0195L32.6016 31.3369L32.6172 22.0078L41.2236 26.6885Z" fill="#DABFFB" stroke="black"/>
<path d="M104.692 17.0381L41.8193 25.874L33.6904 21.4531L96.5625 12.6152L104.692 17.0381Z" fill="#A35BFB" stroke="black"/>
<path d="M53.2432 10.8672L7.15625 17.5352L7.16895 10.5049L53.1377 4.04492L53.2432 10.8672Z" fill="#532E80" stroke="black" stroke-width="0.5"/>
<path d="M6.67676 10.4395L6.66406 17.4082L0.25 13.9189L0.261719 6.95117L6.67676 10.4395Z" fill="#DABFFB" stroke="black" stroke-width="0.5"/>
<path d="M52.6172 3.61914L6.98535 10.0322L0.806641 6.67285L46.4404 0.258789L52.6172 3.61914Z" fill="#A35BFB" stroke="black" stroke-width="0.5"/>
<path d="M278.533 464.588L56.5322 496.71L56.5977 461.646L278.004 430.53L278.533 464.588Z" fill="#532E80" stroke="black"/>
<path d="M55.5947 461.513L55.5293 496.452L23.4336 478.987L23.4932 444.055L55.5947 461.513Z" fill="#DABFFB" stroke="black"/>
<path d="M276.927 429.671L56.1924 460.692L24.5693 443.494L245.308 412.467L276.927 429.671Z" fill="#A35BFB" stroke="black"/>
</svg>
