<svg width="675" height="900" viewBox="0 0 675 900" fill="none" xmlns="http://www.w3.org/2000/svg">
<path d="M1.03357 650.261L342.957 982L683.504 1323L683.512 5.5L4.95154 308.417L1.03357 650.261Z" fill="#FFECE1"/>
<path d="M219.34 301.83C258.488 288.603 295.957 348.421 295.957 437.827V813.962V936.257L163.061 805.88V439.759C163.061 374.085 186.294 312.995 219.34 301.83Z" fill="#6F6F6F"/>
<path d="M688.004 1319.36L685.958 0L3.9375 307.755L3.92944 308.404L0.00646973 650.686L0.318481 650.992L688.004 1319.36ZM683.912 3.18201L685.958 1314.5L2.06042 649.835L5.96643 309.077L683.912 3.18201Z" fill="#131313"/>
<path d="M430.87 226.471C489.673 206.603 545.955 296.455 545.955 430.751V995.738V1179.44L346.334 983.598V433.653C346.334 335.005 381.232 243.242 430.87 226.471Z" fill="#6F6F6F"/>
<path d="M545.713 1185.71V433.371C545.713 342.864 519.493 265.564 478.914 236.441C462.921 224.964 445.527 221.914 428.598 227.634C379.809 244.12 343.018 333.814 343.018 436.271V986.862L343.48 987.313L545.713 1185.71ZM445.32 227.911C456.141 227.911 466.921 231.618 477.122 238.939C516.923 267.503 542.64 343.822 542.64 433.372V1178.4L346.09 985.572V436.273C346.09 335.073 381.984 246.63 429.582 230.547C434.794 228.785 440.062 227.911 445.32 227.911Z" fill="#131313"/>
<path d="M429.096 229.089C487.9 209.221 544.182 299.072 544.182 433.369V998.356L344.56 436.271C344.56 337.622 379.458 245.859 429.096 229.089Z" fill="#131313"/>
<path d="M295.799 940.438V439.572C295.799 379.318 278.343 327.856 251.328 308.468C240.681 300.827 229.101 298.797 217.831 302.605C185.35 313.58 160.857 373.293 160.857 441.503V808.054L161.164 808.354L295.799 940.438ZM228.963 302.789C236.167 302.789 243.344 305.257 250.135 310.131C276.632 329.147 293.753 379.956 293.753 439.573V935.567L162.902 807.195V441.504C162.902 374.131 186.798 315.251 218.486 304.544C221.956 303.371 225.463 302.789 228.963 302.789Z" fill="#131313"/>
<g opacity="0.63">
<path d="M218.158 303.572C257.306 290.345 294.775 350.163 294.775 439.57V815.705L161.879 441.502C161.879 375.827 185.112 314.737 218.158 303.572Z" fill="#131313"/>
</g>
<path d="M139.236 786.842V441.846C139.236 395.043 128.72 356.051 113.066 344.818C108.783 341.742 104.346 340.948 99.8763 342.459C82.1223 348.457 68.7334 391.612 68.7334 442.84V717.676L69.0404 717.977L139.236 786.842ZM104.233 343.771C106.803 343.771 109.36 344.675 111.873 346.479C126.779 357.176 137.19 396.393 137.19 441.845V781.969L70.7784 716.816V442.839C70.7784 393.275 83.8474 350.033 100.531 344.396C101.765 343.979 103.001 343.771 104.233 343.771Z" fill="#131313"/>
<path d="M100.204 343.424C120.09 336.705 138.213 380.394 138.213 441.842V700.352V783.497L69.7559 716.497V442.837C69.7569 393.615 82.6049 349.371 100.204 343.424Z" fill="#6F6F6F"/>
<path d="M100.446 343.182C120.332 336.463 138.455 380.152 138.455 441.6V700.11L69.998 442.595C69.999 393.373 82.847 349.129 100.446 343.182Z" fill="#131313"/>
<path d="M57.2676 706.426V443.036C57.2676 405.051 50.1967 373.448 40.0717 366.182C37.8607 364.596 35.5716 364.186 33.2646 364.965C22.0076 368.767 13.5197 402.59 13.5197 443.641V663.508L13.8267 663.808L57.2676 706.426ZM35.5216 366.63C36.6386 366.63 37.7477 367.033 38.8787 367.844C46.9997 373.672 55.2227 401.371 55.2227 443.036V701.554L15.5667 662.649V443.642C15.5667 404.746 23.7997 370.323 33.9197 366.904L33.9207 366.903C34.4577 366.722 34.9906 366.63 35.5216 366.63Z" fill="#131313"/>
<g opacity="0.63">
<path d="M33.3881 366.466C45.3911 362.411 56.041 396.758 56.041 443.568V640.495V704.523L14.339 663.611V444.173C14.339 404.811 22.4791 370.152 33.3881 366.466Z" fill="#6F6F6F"/>
<path d="M33.5912 365.935C45.5942 361.879 56.2441 396.227 56.2441 443.037V639.964L14.5421 443.643C14.5421 404.28 22.6822 369.621 33.5912 365.935Z" fill="#131313"/>
</g>
<path d="M14.2531 663H55.9551V703.912L14.2531 663Z" fill="#131313"/>
<path d="M70.498 717H138.955V784.159L70.498 717Z" fill="#131313"/>
<path d="M162.008 805.5H294.904V935.878L162.008 805.5Z" fill="#131313"/>
</svg>
