<svg width="409" height="514" viewBox="0 0 409 514" fill="none" xmlns="http://www.w3.org/2000/svg">
<path d="M135.763 270.188C135.763 270.188 60.6546 260.352 44.6888 268.018C28.6972 275.646 44.6321 250.746 68.7745 245.435C92.9169 240.125 139.862 250.153 139.862 250.153L135.763 270.188Z" fill="#EB5328"/>
<path d="M172.15 268.977C172.15 268.977 37.9453 215.504 29.7368 214.617C12.3002 212.741 40.7674 195.316 60.9103 201.514C69.1506 204.05 143.005 229.525 143.005 229.525L242.773 209.217L172.112 269.002L172.15 268.977Z" fill="#EB5328"/>
<path d="M518.146 302.192L404.846 233.149C404.846 233.149 384.019 168.463 329.656 156.8C275.293 145.136 235.391 151.853 203.724 144.245C172.056 136.638 173.432 144.183 190.444 157.973C207.456 171.764 252.707 191.88 252.707 191.88C252.707 191.88 200.749 222.253 188.096 231.278C175.443 240.304 228.481 254.018 228.481 254.018C228.481 254.018 297.928 252.645 356.513 304.526C415.059 356.433 417.096 369.438 417.096 369.438L518.21 302.205L518.146 302.192Z" fill="#EB5328"/>
<path d="M362.854 236.296C311.155 201.933 206.222 246.993 206.222 246.993C206.222 246.993 170.496 221.991 164.129 216.039C157.762 210.087 136.656 156.607 115.687 165.763L143.026 229.459L160.653 250.577L130.766 230.987C130.766 230.987 89.0819 154.734 58.5234 172.047L123.27 269.422C123.27 269.422 165.722 297.967 196.025 304.701C226.366 311.409 305.262 270.917 342.473 289.81C379.685 308.704 362.789 236.283 362.789 236.283L362.854 236.296Z" fill="#EB5328"/>
<path d="M122.722 268.678C100.497 266.257 56.4567 262.367 44.6958 268.017C28.7299 275.683 44.6135 250.706 68.7815 245.434C79.1467 243.162 93.7741 243.677 107.016 245.057" stroke="#161616" stroke-width="0.733641" stroke-linecap="round" stroke-linejoin="round"/>
<path d="M105.424 242.664C70.3987 228.995 33.9154 215.072 29.7467 214.616C12.3101 212.74 40.7773 195.315 60.8945 201.474C63.4221 202.243 72.1515 205.177 82.9692 208.893" stroke="#161616" stroke-width="0.733641" stroke-linecap="round" stroke-linejoin="round"/>
<path d="M213.47 215.175L173.305 223.348" stroke="#161616" stroke-width="0.733641" stroke-linecap="round" stroke-linejoin="round"/>
<path d="M126.609 223.895C136.241 227.175 143.01 229.52 143.01 229.52" stroke="#161616" stroke-width="0.733641" stroke-linecap="round" stroke-linejoin="round"/>
<path d="M130.82 231.059L160.707 250.649L143.08 229.531L115.741 165.835C136.71 156.679 157.817 210.159 164.183 216.111C167.257 218.965 177.079 226.238 186.502 232.996C186.789 232.416 187.347 231.822 188.098 231.267C200.751 222.242 252.708 191.869 252.708 191.869C252.708 191.869 207.458 171.753 190.446 157.962C173.433 144.172 172.058 136.627 203.725 144.234C235.393 151.842 275.294 145.125 329.658 156.789C384.021 168.452 404.848 233.138 404.848 233.138L518.147 302.181L417.034 369.414C417.034 369.414 414.996 356.409 356.451 304.502C348.577 297.548 340.545 291.534 332.471 286.384C292.597 277.386 223.879 310.945 196.04 304.799C165.699 298.09 123.286 269.52 123.286 269.52L58.5391 172.145C89.1364 154.805 130.781 231.085 130.781 231.085L130.82 231.059Z" stroke="#161616" stroke-width="0.733641" stroke-linecap="round" stroke-linejoin="round"/>
<path d="M339.14 226.41C284.472 213.446 206.251 247.034 206.251 247.034L186.477 232.965" stroke="#161616" stroke-width="0.733641" stroke-linecap="round" stroke-linejoin="round"/>
<path d="M270.348 199.954L252.68 191.832" stroke="#161616" stroke-width="0.733641" stroke-linecap="round" stroke-linejoin="round"/>
<path d="M160.664 250.676L184.478 277.476" stroke="#161616" stroke-width="0.733641" stroke-linecap="round" stroke-linejoin="round"/>
<path d="M130.816 231.067L122.509 238.372" stroke="#161616" stroke-width="0.733641" stroke-linecap="round" stroke-linejoin="round"/>
<path d="M163.792 215.705L156.793 222.029" stroke="#161616" stroke-width="0.733641" stroke-linecap="round" stroke-linejoin="round"/>
<path d="M202.658 166.319L206.716 159.279" stroke="#161616" stroke-width="0.733641" stroke-linecap="round" stroke-linejoin="round"/>
</svg>
