<svg width="484" height="220" viewBox="0 0 484 220" fill="none" xmlns="http://www.w3.org/2000/svg">
<path d="M438.222 6.54688C441.27 6.21858 443.568 6.80931 444.804 7.8418C446.69 9.41688 449.994 11.059 453.896 12.3389C457.834 13.6301 462.523 14.5999 467.26 14.7422C474.913 14.9721 482.983 13.0165 487.93 6.46094V209.065C487.895 209.147 487.851 209.251 487.794 209.372C487.624 209.73 487.356 210.243 486.973 210.838C486.203 212.031 484.988 213.518 483.203 214.733C479.737 217.092 473.737 218.676 463.759 214.102C453.853 209.56 449.664 202.163 445.563 196.22C443.553 193.305 441.45 190.572 438.565 189.058C435.572 187.486 431.997 187.341 427.319 188.958C423.109 190.413 420.239 190.393 418.124 189.772C415.994 189.148 414.421 187.857 412.872 186.338C411.409 184.903 409.78 183.033 407.824 181.92C405.685 180.703 403.174 180.351 399.904 181.501C397.29 182.42 395.59 182.252 394.278 181.695C392.867 181.096 391.715 179.985 390.268 178.547C388.883 177.172 387.257 175.535 385.062 174.426C382.809 173.288 380.055 172.746 376.424 173.297C373.034 173.812 370.49 174.327 368.422 174.776C366.328 175.232 364.818 175.598 363.377 175.845C360.636 176.314 358.239 176.335 353.186 175.342C351.711 175.052 350.404 175.091 349.272 175.531C348.119 175.98 347.312 176.781 346.738 177.709C346.181 178.609 345.825 179.657 345.549 180.678C345.276 181.688 345.045 182.829 344.811 183.854C344.315 186.017 343.745 187.913 342.584 189.293C341.504 190.576 339.752 191.588 336.45 191.588C329.511 191.588 325.366 189.519 321.847 187.396C318.375 185.303 315.048 182.773 310.262 182.773C306.169 182.773 300.188 181.599 293.209 180.368C286.327 179.155 278.611 177.918 271.337 177.918C267.347 177.918 264.445 179.378 262.029 181.443C259.719 183.418 257.724 186.089 255.743 188.35C253.695 190.688 251.499 192.81 248.527 194.211C245.576 195.602 241.729 196.34 236.301 195.669C230.772 194.985 226.051 193.674 221.763 192.274C217.537 190.896 213.541 189.361 209.773 188.356C205.94 187.335 202.13 186.793 198.042 187.403C193.949 188.014 189.696 189.76 184.936 193.133C180.22 196.474 176.953 199.638 174.279 202.349C171.567 205.099 169.606 207.226 167.352 208.754C163.102 211.634 157.595 212.493 143.416 208.779C136.342 206.926 131.407 205.248 127.731 203.918C124.123 202.612 121.529 201.559 119.365 201.064C117.051 200.536 115.11 200.607 112.698 201.464C110.403 202.279 107.655 203.818 103.702 206.135C96.3356 210.451 90.4002 208.783 84.7178 206.827C81.9256 205.866 79.014 204.76 76.1826 204.491C73.2252 204.21 70.2991 204.825 67.4404 207.212C62.4347 211.392 58.3954 214.243 54.2305 215.863C50.1147 217.464 45.7742 217.901 40.1143 217.05C28.3515 215.28 23.8255 214.969 16.7334 217.568C15.3793 218.065 13.0328 218.202 10.4355 217.929C7.86865 217.658 5.33878 217.016 3.6709 216.172C2.82256 215.742 2.34823 215.335 2.14258 215.034C2.00287 214.83 2.00643 214.74 2.08984 214.567C2.23933 214.259 2.71019 213.701 3.93066 212.983C5.11882 212.285 6.86766 211.522 9.32715 210.724C14.1682 209.152 17.838 208.944 20.8203 209.243C23.8699 209.549 26.1753 210.365 28.6211 210.984C31.0215 211.592 33.4744 211.97 36.2568 210.972C38.9809 209.994 41.809 207.777 45.2295 203.73C51.9703 195.757 57.3851 189.673 63.6582 186.092C69.8157 182.577 76.9276 181.416 87.2041 183.687C92.7765 184.918 96.8896 184.272 100.29 182.546C103.6 180.866 106.126 178.2 108.547 175.758C111.022 173.261 113.459 170.912 116.748 169.362C119.996 167.832 124.2 167.029 130.243 167.908C136.452 168.811 142.268 169.863 147.554 170.481C152.875 171.105 157.861 171.32 162.575 170.521C172.166 168.897 180.256 163.146 187.953 149.339C191.776 142.482 194.374 136.129 196.614 130.646C198.875 125.112 200.727 120.584 203.081 117.136C205.385 113.761 208.117 111.506 212.133 110.479C216.231 109.432 221.824 109.622 229.904 111.531C246.787 115.519 261.871 109.541 272.503 104.533C273.835 103.906 275.103 103.291 276.293 102.713C277.487 102.133 278.599 101.592 279.638 101.104C281.735 100.119 283.434 99.3975 284.769 99.0361C286.183 98.653 286.748 98.8006 286.94 98.9277C287.06 99.007 287.45 99.3738 287.45 100.991C287.45 104.353 286.895 108.032 286.278 111.729C285.671 115.37 284.994 119.07 284.831 122.272C284.671 125.421 284.973 128.518 286.721 130.687C288.565 132.974 291.619 133.786 295.832 133.292C300.463 132.749 304.251 129.266 307.509 124.943C310.797 120.58 313.817 114.981 316.78 109.656C319.781 104.263 322.722 99.1546 325.915 95.501C329.116 91.8384 332.287 89.9591 335.744 90.3438C343.759 91.2359 347.914 94.1029 351.29 96.4951C352.966 97.6828 354.637 98.9013 356.504 99.583C358.467 100.3 360.584 100.412 363.181 99.624C364.804 99.1312 365.87 98.036 366.506 96.6504C367.113 95.3277 367.334 93.7415 367.389 92.1279C367.444 90.4971 367.333 88.6984 367.188 86.8926C367.041 85.0562 366.862 83.231 366.759 81.415C366.548 77.721 366.701 74.595 367.836 72.5176C368.371 71.5387 369.124 70.7959 370.221 70.3213C371.346 69.8342 372.933 69.5872 375.18 69.8047C384.957 70.7509 394.4 69.8428 401.644 64.8799C408.96 59.8671 413.701 50.9545 414.558 36.6562C415.368 23.1182 421.622 14.6831 428.348 10.2783C431.73 8.06345 435.227 6.86944 438.222 6.54688ZM488.02 208.853L488.019 208.854V208.854L488.02 208.853Z" fill="#FFECE1" stroke="black" stroke-width="3"/>
</svg>
