<svg width="603" height="787" viewBox="0 0 603 787" fill="none" xmlns="http://www.w3.org/2000/svg">
<path d="M326.978 549.796L397.635 433.29L370.236 431.692L215.634 525.656L105.678 693.419C105.678 693.419 276.015 611.501 326.978 549.796Z" fill="#DF0586" stroke="#161616" stroke-width="0.954352" stroke-linecap="round" stroke-linejoin="round"/>
<path d="M50.4093 616.31L154.31 444.987L216.442 524.677L107.309 694.387L50.4093 616.31Z" fill="#7A44BC" stroke="#161616" stroke-width="0.954352" stroke-linecap="round" stroke-linejoin="round"/>
<path d="M262.724 213.25L314.237 128.311L348.095 192.109L410.311 291.965L399.305 371.821L361.31 425.325C334.357 437.452 287.139 450.676 313.897 406.555C338.663 365.718 294.184 280.48 263.334 234.347C259.088 227.998 258.764 219.78 262.724 213.25Z" fill="#7A44BC" stroke="#161616" stroke-width="0.954352" stroke-linecap="round" stroke-linejoin="round"/>
<path d="M588.746 159.599L540.758 238.725C481.87 213.888 409.869 183.463 348.122 187.032C343.291 179.412 339.136 171.549 336.854 162.525C330.599 137.701 342.767 120.079 366.408 112.651C433.678 94.1059 520.115 130.648 588.746 159.599Z" fill="#DF0586" stroke="#161616" stroke-width="0.954352" stroke-linecap="round" stroke-linejoin="round"/>
<path d="M366.524 112.724C342.883 120.152 330.715 137.774 336.97 162.598C339.252 171.622 343.406 179.485 348.238 187.105C349.662 189.369 351.157 191.608 352.677 193.849C375.446 224.99 401.976 254.811 416.763 291.186C439.755 343.345 431.829 397.934 392.84 436.648C345.244 485.166 270.852 515.229 216.408 524.382L154.237 444.67C234.677 433.5 412.172 418.545 383.502 304.308C377.422 280.092 363.906 257.499 349.766 235.668C333.46 209.86 310.793 181.485 309.109 151.901C307.799 107.167 358.909 94.3071 397.26 93.0811C467.368 91.0888 530.944 122.372 593.69 151.711L590.464 160.345C589.935 160.119 589.406 159.894 588.861 159.672C520.231 130.721 433.794 94.179 366.524 112.724Z" fill="#A35BFB" stroke="#161616" stroke-width="0.954352" stroke-linecap="round" stroke-linejoin="round"/>
<path d="M302.958 414.889C296.151 359.108 327.554 311.396 383.309 304.382C389.731 328.851 385.773 351.141 373.067 369.353C356.569 391.827 330.154 405.136 302.958 414.889Z" fill="white"/>
<path d="M331.331 340.077C332.757 351.759 343.379 360.039 355.056 358.57C366.733 357.101 375.044 346.439 373.618 334.757C372.192 323.074 361.57 314.794 349.893 316.263C338.216 317.732 329.905 328.394 331.331 340.077Z" fill="#DF0586"/>
<path d="M343.748 326.928C339.818 331.969 340.704 339.23 345.727 343.145C350.75 347.061 358.008 346.148 361.938 341.106C365.868 336.065 364.981 328.804 359.959 324.888C354.936 320.973 347.678 321.886 343.748 326.928Z" fill="#161616"/>
<path d="M394.565 111.427C403.253 147.257 380.249 171.943 344.451 180.763C334.957 161.367 331.634 143.545 342.695 129.392C351.245 118.451 363.393 112.874 394.565 111.427Z" fill="white"/>
<path d="M394.567 108.709C403.255 144.539 380.249 171.944 344.451 180.764C334.957 161.368 331.054 143.496 342.115 129.342C350.224 118.965 363.394 110.156 394.567 108.709Z" fill="white"/>
<path d="M381.712 128.127C379.501 119.012 370.327 113.441 361.219 115.685C352.112 117.929 346.521 127.138 348.731 136.254C350.941 145.369 360.116 150.94 369.223 148.696C378.331 146.452 383.922 137.243 381.712 128.127Z" fill="#DF0586"/>
<path d="M370.446 133.87C373.09 129.516 371.717 123.85 367.378 121.216C363.04 118.582 357.379 119.977 354.735 124.331C352.091 128.686 353.465 134.351 357.804 136.985C362.142 139.62 367.802 138.225 370.446 133.87Z" fill="#161616"/>
</svg>
