<svg width="440" height="375" viewBox="0 0 440 375" fill="none" xmlns="http://www.w3.org/2000/svg">
<path d="M112.143 144.422C112.076 144.547 112.073 144.653 112.007 144.778C109.069 152.412 106.973 160.172 105.823 167.955C130.817 180.879 165.485 196.115 210.178 211.607C250.789 225.73 284.807 234.847 311.401 240.441C314.27 235.553 316.765 230.359 318.869 224.897C319.999 221.968 320.981 219.018 321.859 216.06C324.216 208.011 325.649 199.897 326.105 191.799C329.11 144.844 301.733 99.3221 255.497 81.4034C206.35 62.418 151.952 80.7436 123.629 122.622C119.072 129.287 115.192 136.58 112.143 144.422Z" fill="#DF0586" stroke="#FFD007" stroke-miterlimit="10"/>
<path d="M105.832 167.961C104.451 176.69 104.143 185.402 104.921 193.997C108.275 234.923 134.461 272.435 175.388 288.277C218.57 304.999 265.823 292.871 295.849 261.257C301.772 255.051 307.017 248.109 311.414 240.449C284.82 234.854 250.798 225.735 210.191 211.615C165.495 196.121 130.826 180.885 105.832 167.961Z" fill="#DF0586" stroke="#FFD007" stroke-miterlimit="10"/>
<path d="M105.216 119.192C111.061 120.162 117.24 121.309 123.649 122.638C119.087 129.301 115.207 136.594 112.158 144.436C87.0848 139.704 69.7349 138.546 60.9686 139.446C67.4193 145.714 82.3069 155.823 105.842 167.971C130.837 180.895 165.505 196.131 210.197 211.623C250.808 225.746 284.827 234.863 311.42 240.457C341.648 246.755 362.302 248.44 372.063 247.38C365.181 240.615 348.545 229.468 321.876 216.081C324.233 208.031 325.666 199.917 326.123 191.819C334.613 195.962 342.556 200.028 349.866 204.078C388.833 225.614 403.239 241.245 397.979 256.359C392.762 271.495 371.768 274.873 327.816 267.634C317.888 265.99 307.197 263.881 295.857 261.271C267.516 254.747 235.398 245.357 202.492 233.948C166.425 221.44 132.627 207.577 104.927 194.016C99.441 191.364 94.1843 188.674 89.2265 186.036C87.1416 184.927 85.1665 183.823 83.165 182.758C63.6933 172.023 50.3728 162.688 42.5396 154.192C34.7087 145.692 32.4553 137.971 35.074 130.435C40.3159 115.354 61.2635 111.953 105.216 119.192Z" fill="#A30462" stroke="#FFD007" stroke-miterlimit="10"/>
</svg>
