<svg width="217" height="157" viewBox="0 0 217 157" fill="none" xmlns="http://www.w3.org/2000/svg">
<path d="M165.062 98.1321C165.046 98.2034 165.011 98.2454 164.994 98.3167C163.541 102.285 161.717 106.017 159.518 109.435C145.4 105.962 126.733 100.099 104.08 90.9253C83.4802 82.6077 67.147 74.5849 54.8998 67.7169C55.4466 64.8398 56.2421 61.9706 57.2813 59.1308C57.8378 57.6068 58.4595 56.1255 59.1237 54.6767C60.9445 50.7439 63.1463 47.1005 65.7228 43.7952C80.5227 24.509 106.653 16.112 130.732 24.8664C156.306 34.1955 171.233 59.8239 168.008 85.7457C167.514 89.8883 166.543 94.0447 165.062 98.1321Z" fill="#DF0586" stroke="black" stroke-width="1.55006" stroke-miterlimit="10"/>
<path d="M159.522 109.438C157.091 113.303 154.247 116.797 151.022 119.875C135.799 134.654 112.856 140.34 91.5482 132.583C69.0646 124.402 54.8083 103.615 53.8806 81.1059C53.687 76.6775 54.0075 72.1937 54.9023 67.7188C67.1495 74.5867 83.485 82.61 104.082 90.9271C126.738 100.101 145.405 105.965 159.522 109.438Z" fill="#DF0586" stroke="black" stroke-width="1.55006" stroke-miterlimit="10"/>
<path d="M176.343 90.671C173.739 89.0604 170.946 87.4054 168.001 85.7427C167.509 89.8858 166.539 94.0423 165.058 98.1297C176.42 104.816 183.562 110.266 186.666 113.597C182.025 113.842 172.796 112.711 159.51 109.432C145.393 105.959 126.726 100.096 104.073 90.9224C83.4729 82.6047 67.1398 74.5819 54.8926 67.714C40.9932 59.8837 32.386 53.5151 28.9497 49.7828C33.9272 49.4919 44.1892 50.8137 59.1158 54.6761C60.9366 50.7433 63.1384 47.0999 65.7149 43.7946C61.0032 42.5187 56.5307 41.3989 52.3101 40.4882C29.8285 35.613 18.9091 36.7941 15.8149 44.4619C12.697 52.1241 19.7144 60.5774 39.273 72.7092C43.6936 75.446 48.5696 78.2615 53.8679 81.1029C67.1108 88.2035 82.7977 95.4738 99.4775 102.227C117.76 109.627 135.622 115.729 151.009 119.874C154.044 120.709 157.004 121.45 159.83 122.11C161.018 122.388 162.162 122.63 163.302 122.896C174.527 125.343 182.883 126.242 188.82 125.601C194.757 124.958 198.259 122.721 199.803 118.899C202.893 111.25 195.901 102.803 176.343 90.671Z" fill="#A30462" stroke="black" stroke-width="1.55006" stroke-miterlimit="10"/>
</svg>
