<svg width="440" height="375" viewBox="0 0 440 375" fill="none" xmlns="http://www.w3.org/2000/svg">
<path d="M327.529 144.418C327.596 144.543 327.599 144.649 327.665 144.774C330.603 152.408 332.699 160.168 333.849 167.951C308.855 180.875 274.186 196.111 229.494 211.603C188.883 225.726 154.865 234.843 128.271 240.438C125.402 235.549 122.906 230.355 120.803 224.893C119.672 221.964 118.691 219.014 117.813 216.057C115.456 208.007 114.023 199.893 113.567 191.795C110.562 144.84 137.939 99.3182 184.175 81.3995C233.322 62.4141 287.72 80.7397 316.042 122.618C320.6 129.283 324.48 136.576 327.529 144.418Z" fill="#DF0586" stroke="#FFD007" stroke-miterlimit="10"/>
<path d="M333.848 167.957C335.229 176.686 335.537 185.399 334.759 193.993C331.405 234.919 305.218 272.431 264.292 288.273C221.11 304.995 173.856 292.867 143.831 261.253C137.907 255.047 132.662 248.105 128.266 240.445C154.859 234.851 188.882 225.731 229.489 211.611C274.185 196.117 308.853 180.881 333.848 167.957Z" fill="#DF0586" stroke="#FFD007" stroke-miterlimit="10"/>
<path d="M334.456 119.18C328.611 120.15 322.432 121.297 316.023 122.626C320.584 129.289 324.465 136.582 327.514 144.424C352.587 139.692 369.937 138.534 378.703 139.434C372.253 145.702 357.365 155.811 333.83 167.959C308.835 180.883 274.167 196.119 229.474 211.611C188.864 225.734 154.845 234.851 128.251 240.446C98.0242 246.743 77.3702 248.428 67.6089 247.368C74.4907 240.603 91.1269 229.456 117.796 216.069C115.439 208.019 114.006 199.906 113.549 191.808C105.059 195.951 97.1154 200.017 89.8057 204.066C50.8384 225.602 36.4329 241.233 41.6925 256.347C46.9103 271.484 67.9037 274.861 111.856 267.622C121.784 265.978 132.475 263.869 143.815 261.26C172.156 254.735 204.274 245.345 237.18 233.936C273.246 221.429 307.045 207.565 334.745 194.004C340.231 191.353 345.488 188.663 350.445 186.025C352.53 184.915 354.505 183.811 356.507 182.746C375.979 172.011 389.299 162.677 397.132 154.181C404.963 145.68 407.217 137.96 404.598 130.423C399.356 115.343 378.408 111.941 334.456 119.18Z" fill="#A30462" stroke="#FFD007" stroke-miterlimit="10"/>
</svg>
