<svg width="196" height="157" viewBox="0 0 196 157" fill="none" xmlns="http://www.w3.org/2000/svg">
<path d="M30.2032 98.1321C30.2199 98.2034 30.2548 98.2454 30.2714 98.3167C31.7247 102.285 33.5487 106.017 35.7481 109.435C49.8659 105.962 68.5326 100.099 91.1856 90.9253C111.785 82.6077 128.119 74.5849 140.366 67.7169C139.819 64.8398 139.024 61.9706 137.984 59.1308C137.428 57.6068 136.806 56.1255 136.142 54.6767C134.321 50.7439 132.119 47.1005 129.543 43.7952C114.743 24.509 88.6126 16.112 64.5335 24.8664C38.9597 34.1955 24.0322 59.8239 27.2575 85.7457C27.7514 89.8883 28.7222 94.0447 30.2032 98.1321Z" fill="#DF0586" stroke="black" stroke-width="1.55006" stroke-miterlimit="10"/>
<path d="M35.7433 109.43C38.1749 113.295 41.0182 116.789 44.2434 119.867C59.4667 134.646 82.41 140.332 103.717 132.576C126.201 124.394 140.457 103.607 141.385 81.0981C141.579 76.6697 141.258 72.1859 140.363 67.7109C128.116 74.5789 111.781 82.6022 91.1832 90.9193C68.5279 100.093 49.8611 105.957 35.7433 109.43Z" fill="#DF0586" stroke="black" stroke-width="1.55006" stroke-miterlimit="10"/>
<path d="M18.9227 90.671C21.5263 89.0604 24.32 87.4054 27.2648 85.7427C27.7564 89.8858 28.7271 94.0423 30.2081 98.1297C18.8458 104.816 11.7033 110.266 8.59944 113.597C13.2402 113.842 22.4693 112.711 35.7553 109.432C49.8731 105.959 68.54 100.096 91.1929 90.9224C111.793 82.6047 128.126 74.5819 140.373 67.714C154.272 59.8837 162.88 53.5151 166.316 49.7828C161.338 49.4919 151.076 50.8137 136.15 54.6761C134.329 50.7433 132.127 47.0999 129.551 43.7946C134.262 42.5187 138.735 41.3989 142.956 40.4882C165.437 35.613 176.357 36.7941 179.451 44.4619C182.569 52.1241 175.551 60.5774 155.993 72.7092C151.572 75.446 146.696 78.2615 141.398 81.1029C128.155 88.2035 112.468 95.4738 95.7881 102.227C77.5052 109.627 59.6434 115.729 44.2567 119.874C41.2212 120.709 38.2616 121.45 35.436 122.11C34.2478 122.388 33.1039 122.63 31.9632 122.896C20.7383 125.343 12.3823 126.242 6.44599 125.601C0.509087 124.958 -2.99318 122.721 -4.53749 118.899C-7.62723 111.25 -0.635853 102.803 18.9227 90.671Z" fill="#A30462" stroke="black" stroke-width="1.55006" stroke-miterlimit="10"/>
</svg>
