<svg width="116" height="51" viewBox="0 0 116 51" fill="none" xmlns="http://www.w3.org/2000/svg">
<g clip-path="url(#clip0_3218_2590)">
<rect x="0.684095" y="0.684095" width="114.244" height="49.2549" rx="24.6274" fill="#FFD007" stroke="black" stroke-width="1.36819"/>
<path d="M36.2652 31.5725C35.5585 31.5725 34.9185 31.4992 34.3452 31.3525C33.7852 31.2192 33.3052 31.0258 32.9052 30.7725C32.5052 30.5058 32.1852 30.1925 31.9452 29.8325C31.7052 29.4592 31.5585 29.0458 31.5052 28.5925L33.4852 27.8525C33.5118 28.1992 33.6452 28.5125 33.8852 28.7925C34.1252 29.0592 34.4585 29.2725 34.8852 29.4325C35.3118 29.5925 35.8252 29.6725 36.4252 29.6725C37.0918 29.6725 37.6052 29.5725 37.9652 29.3725C38.3385 29.1592 38.5252 28.8592 38.5252 28.4725C38.5252 28.1925 38.4252 27.9725 38.2252 27.8125C38.0252 27.6392 37.7318 27.4992 37.3452 27.3925C36.9718 27.2725 36.5185 27.1592 35.9852 27.0525C35.4918 26.9458 34.9918 26.8258 34.4852 26.6925C33.9918 26.5458 33.5318 26.3592 33.1052 26.1325C32.6918 25.8925 32.3518 25.5858 32.0852 25.2125C31.8318 24.8258 31.7052 24.3392 31.7052 23.7525C31.7052 23.1125 31.8718 22.5592 32.2052 22.0925C32.5518 21.6258 33.0452 21.2592 33.6852 20.9925C34.3385 20.7258 35.1252 20.5925 36.0452 20.5925C36.9118 20.5925 37.6585 20.7125 38.2852 20.9525C38.9252 21.1925 39.4452 21.5392 39.8452 21.9925C40.2452 22.4325 40.4985 22.9592 40.6052 23.5725L38.5252 24.2325C38.4852 23.8592 38.3585 23.5458 38.1452 23.2925C37.9318 23.0258 37.6452 22.8258 37.2852 22.6925C36.9252 22.5592 36.5052 22.4925 36.0252 22.4925C35.4118 22.4925 34.9318 22.5992 34.5852 22.8125C34.2385 23.0258 34.0652 23.3125 34.0652 23.6725C34.0652 23.9658 34.1718 24.1992 34.3852 24.3725C34.6118 24.5458 34.9185 24.6858 35.3052 24.7925C35.7052 24.8992 36.1585 25.0058 36.6652 25.1125C37.1985 25.2192 37.7118 25.3458 38.2052 25.4925C38.7118 25.6258 39.1652 25.8058 39.5652 26.0325C39.9652 26.2592 40.2852 26.5592 40.5252 26.9325C40.7652 27.2925 40.8852 27.7592 40.8852 28.3325C40.8852 29.0258 40.6985 29.6192 40.3252 30.1125C39.9518 30.5925 39.4185 30.9592 38.7252 31.2125C38.0452 31.4525 37.2252 31.5725 36.2652 31.5725ZM47.7645 31.5725C46.8579 31.5725 46.0712 31.4392 45.4045 31.1725C44.7512 30.9058 44.2045 30.5325 43.7645 30.0525C43.3379 29.5592 43.0179 28.9858 42.8045 28.3325C42.5912 27.6792 42.4845 26.9725 42.4845 26.2125C42.4845 25.3992 42.5912 24.6525 42.8045 23.9725C43.0312 23.2925 43.3645 22.6992 43.8045 22.1925C44.2445 21.6858 44.7845 21.2925 45.4245 21.0125C46.0779 20.7325 46.8245 20.5925 47.6645 20.5925C48.5045 20.5925 49.2312 20.7325 49.8445 21.0125C50.4712 21.2925 50.9779 21.6858 51.3645 22.1925C51.7512 22.6858 52.0112 23.2658 52.1445 23.9325L49.7845 24.6725C49.7579 24.2725 49.6512 23.9192 49.4645 23.6125C49.2779 23.2925 49.0245 23.0458 48.7045 22.8725C48.3845 22.6992 48.0045 22.6125 47.5645 22.6125C47.1379 22.6125 46.7645 22.6992 46.4445 22.8725C46.1379 23.0325 45.8779 23.2658 45.6645 23.5725C45.4645 23.8792 45.3045 24.2525 45.1845 24.6925C45.0779 25.1192 45.0245 25.5992 45.0245 26.1325C45.0245 26.8658 45.1245 27.4925 45.3245 28.0125C45.5245 28.5325 45.8312 28.9392 46.2445 29.2325C46.6579 29.5125 47.1712 29.6525 47.7845 29.6525C48.3312 29.6525 48.7712 29.5525 49.1045 29.3525C49.4512 29.1392 49.7112 28.8658 49.8845 28.5325C50.0712 28.1992 50.1845 27.8325 50.2245 27.4325L52.4645 27.9325C52.3845 28.4792 52.2312 28.9725 52.0045 29.4125C51.7779 29.8525 51.4645 30.2392 51.0645 30.5725C50.6779 30.8925 50.2112 31.1392 49.6645 31.3125C49.1179 31.4858 48.4845 31.5725 47.7645 31.5725ZM54.2559 31.3125V26.0725V20.8525H56.3759L56.3359 24.4525H56.6959C56.8159 23.5992 57.0026 22.8925 57.2559 22.3325C57.5093 21.7592 57.8626 21.3325 58.3159 21.0525C58.7693 20.7592 59.3293 20.6125 59.9959 20.6125C60.1293 20.6125 60.2693 20.6192 60.4159 20.6325C60.5759 20.6458 60.7493 20.6792 60.9359 20.7325L60.8359 23.3925C60.6226 23.3125 60.4026 23.2592 60.1759 23.2325C59.9626 23.1925 59.7626 23.1725 59.5759 23.1725C59.0559 23.1725 58.6026 23.3058 58.2159 23.5725C57.8426 23.8392 57.5359 24.2192 57.2959 24.7125C57.0693 25.1925 56.8959 25.7658 56.7759 26.4325V31.3125H54.2559ZM67.2553 31.5725C66.2286 31.5725 65.322 31.3658 64.5353 30.9525C63.7486 30.5258 63.1286 29.9058 62.6753 29.0925C62.2353 28.2658 62.0153 27.2525 62.0153 26.0525C62.0153 24.8258 62.242 23.8125 62.6953 23.0125C63.162 22.1992 63.7886 21.5925 64.5753 21.1925C65.362 20.7925 66.2486 20.5925 67.2353 20.5925C68.262 20.5925 69.1686 20.7992 69.9553 21.2125C70.742 21.6258 71.362 22.2458 71.8153 23.0725C72.2686 23.8858 72.4953 24.8992 72.4953 26.1125C72.4953 27.3392 72.2686 28.3592 71.8153 29.1725C71.362 29.9858 70.7353 30.5925 69.9353 30.9925C69.1486 31.3792 68.2553 31.5725 67.2553 31.5725ZM67.3553 29.6525C67.9153 29.6525 68.3886 29.5258 68.7753 29.2725C69.162 29.0058 69.4553 28.6125 69.6553 28.0925C69.8686 27.5725 69.9753 26.9525 69.9753 26.2325C69.9753 25.4725 69.862 24.8258 69.6353 24.2925C69.422 23.7458 69.1086 23.3258 68.6953 23.0325C68.2953 22.7392 67.7886 22.5925 67.1753 22.5925C66.642 22.5925 66.1753 22.7258 65.7753 22.9925C65.3753 23.2458 65.0686 23.6258 64.8553 24.1325C64.6553 24.6392 64.5553 25.2658 64.5553 26.0125C64.5553 27.1858 64.802 28.0858 65.2953 28.7125C65.802 29.3392 66.4886 29.6525 67.3553 29.6525ZM74.7638 31.3125V17.1125H77.2438V31.3125H74.7638ZM80.0763 31.3125V17.1125H82.5563V31.3125H80.0763Z" fill="black"/>
</g>
<defs>
<clipPath id="clip0_3218_2590">
<rect width="115.612" height="50.623" fill="white"/>
</clipPath>
</defs>
</svg>
