<svg width="854" height="312" viewBox="0 0 854 312" fill="none" xmlns="http://www.w3.org/2000/svg">
<path d="M-217.802 328.315L134.774 379.339L134.654 322.623L-216.932 273.228L-217.802 328.315Z" fill="#532E80" stroke="black" stroke-width="0.397323"/>
<path d="M135.067 322.559L135.188 379.224L187.169 350.941L187.079 294.275L135.067 322.559Z" fill="#DABFFB" stroke="black" stroke-width="0.397323"/>
<path d="M-216.485 272.9L134.83 322.259L186.653 294.079L-164.693 244.721L-216.485 272.9Z" fill="#A35BFB" stroke="black" stroke-width="0.397323"/>
<path d="M74.2061 238.258L334.099 275.868L334.01 234.15L74.8457 197.739L74.2061 238.258Z" fill="#532E80" stroke="black" stroke-width="0.397323"/>
<path d="M334.419 234.118L334.507 275.786L372.735 254.986L372.669 213.318L334.419 234.118Z" fill="#DABFFB" stroke="black" stroke-width="0.397323"/>
<path d="M75.3008 197.418L334.198 233.791L372.259 213.095L113.342 176.721L75.3008 197.418Z" fill="#A35BFB" stroke="black" stroke-width="0.397323"/>
<path d="M296.208 170.609L523.899 203.561L523.822 167.053L296.768 135.152L296.208 170.609Z" fill="#532E80" stroke="black" stroke-width="0.397323"/>
<path d="M524.224 167.011L524.301 203.469L557.751 185.268L557.693 148.81L524.224 167.011Z" fill="#DABFFB" stroke="black" stroke-width="0.397323"/>
<path d="M297.21 134.817L523.995 166.68L557.275 148.583L330.471 116.721L297.21 134.817Z" fill="#A35BFB" stroke="black" stroke-width="0.397323"/>
<path d="M500.19 96.9346L695.681 125.225L695.614 93.9277L500.671 66.54L500.19 96.9346Z" fill="#532E80" stroke="black" stroke-width="0.397323"/>
<path d="M696.018 93.8857L696.083 125.134L724.755 109.533L724.705 78.2871L696.018 93.8857Z" fill="#DABFFB" stroke="black" stroke-width="0.397323"/>
<path d="M501.111 66.2178L695.788 93.5684L724.287 78.0713L529.596 50.7207L501.111 66.2178Z" fill="#A35BFB" stroke="black" stroke-width="0.397323"/>
<path d="M675.278 36.8604L830.517 59.3262L830.464 34.543L675.658 12.7939L675.278 36.8604Z" fill="#532E80" stroke="black" stroke-width="0.397323"/>
<path d="M830.863 34.4844L830.916 59.2178L853.614 46.8672L853.575 22.1338L830.863 34.4844Z" fill="#DABFFB" stroke="black" stroke-width="0.397323"/>
<path d="M676.077 12.4521L830.616 34.1641L853.139 21.917L698.589 0.205078L676.077 12.4521Z" fill="#A35BFB" stroke="black" stroke-width="0.397323"/>
</svg>
