<svg width="330" height="452" viewBox="0 0 330 452" fill="none" xmlns="http://www.w3.org/2000/svg">
<path d="M318.21 331.726L127.036 359.388L127.093 329.311L317.757 302.515L318.21 331.726Z" fill="#532E80" stroke="black"/>
<path d="M126.089 329.177L126.032 359.128L98.5117 344.154L98.5635 314.207L126.089 329.177Z" fill="#DABFFB" stroke="black"/>
<path d="M316.68 301.654L126.688 328.355L99.6396 313.646L289.635 286.939L316.68 301.654Z" fill="#A35BFB" stroke="black"/>
<path d="M348.645 253.217L188.31 276.416L188.356 251.328L348.266 228.854L348.645 253.217Z" fill="#532E80" stroke="black"/>
<path d="M187.347 251.195L187.3 276.158L164.355 263.674L164.398 238.715L187.347 251.195Z" fill="#DABFFB" stroke="black"/>
<path d="M347.175 227.996L187.938 250.375L165.468 238.154L324.707 215.771L347.175 227.996Z" fill="#A35BFB" stroke="black"/>
<path d="M377.686 178.122L225.978 200.073L226.021 176.381L377.328 155.116L377.686 178.122Z" fill="#532E80" stroke="black"/>
<path d="M225.017 176.244L224.973 199.812L203.309 188.024L203.349 164.461L225.017 176.244Z" fill="#DABFFB" stroke="black"/>
<path d="M376.237 154.253L225.604 175.423L204.413 163.898L355.05 142.725L376.237 154.253Z" fill="#A35BFB" stroke="black"/>
<path d="M401.718 111.649L256.048 132.727L256.09 110.011L401.375 89.5928L401.718 111.649Z" fill="#532E80" stroke="black"/>
<path d="M255.08 109.875L255.037 132.465L234.27 121.165L234.309 98.5781L255.08 109.875Z" fill="#DABFFB" stroke="black"/>
<path d="M400.28 88.7344L255.668 109.058L235.374 98.0205L379.988 77.6934L400.28 88.7344Z" fill="#A35BFB" stroke="black"/>
<path d="M336.044 63.8779L206.262 82.6562L206.3 62.0869L335.733 43.8965L336.044 63.8779Z" fill="#532E80" stroke="black" stroke-width="0.5"/>
<path d="M205.811 62.0195L205.771 82.5273L186.938 72.2803L186.973 51.7754L205.811 62.0195Z" fill="#DABFFB" stroke="black" stroke-width="0.5"/>
<path d="M335.224 43.4629L206.126 61.6064L187.525 51.4912L316.627 33.3447L335.224 43.4629Z" fill="#A35BFB" stroke="black" stroke-width="0.5"/>
<path d="M265.142 26.8867L151.75 43.293L151.783 25.375L264.871 9.48242L265.142 26.8867Z" fill="#532E80" stroke="black" stroke-width="0.5"/>
<path d="M151.295 25.3057L151.262 43.1621L134.859 34.2383L134.89 16.3848L151.295 25.3057Z" fill="#DABFFB" stroke="black" stroke-width="0.5"/>
<path d="M264.336 9.05371L151.584 24.8994L135.416 16.1074L248.171 0.258789L264.336 9.05371Z" fill="#A35BFB" stroke="black" stroke-width="0.5"/>
<path d="M255.596 419.021L33.5947 451.144L33.6602 416.08L255.066 384.964L255.596 419.021Z" fill="#532E80" stroke="black"/>
<path d="M32.6611 415.946L32.5957 450.886L0.5 433.421L0.55957 398.488L32.6611 415.946Z" fill="#DABFFB" stroke="black"/>
<path d="M253.989 384.104L33.2549 415.126L1.63184 397.928L222.37 366.9L253.989 384.104Z" fill="#A35BFB" stroke="black"/>
</svg>
