<svg width="403" height="375" viewBox="0 0 403 375" fill="none" xmlns="http://www.w3.org/2000/svg">
<path d="M318.21 254.55L127.036 282.212L127.093 252.135L317.757 225.339L318.21 254.55Z" fill="#532E80" stroke="black"/>
<path d="M126.089 252.001L126.032 281.952L98.5117 266.979L98.5635 237.031L126.089 252.001Z" fill="#DABFFB" stroke="black"/>
<path d="M316.68 224.479L126.688 251.18L99.6396 236.47L289.635 209.764L316.68 224.479Z" fill="#A35BFB" stroke="black"/>
<path d="M348.645 176.041L188.31 199.24L188.356 174.152L348.266 151.679L348.645 176.041Z" fill="#532E80" stroke="black"/>
<path d="M187.347 174.02L187.3 198.982L164.355 186.498L164.398 161.539L187.347 174.02Z" fill="#DABFFB" stroke="black"/>
<path d="M347.175 150.82L187.938 173.199L165.468 160.979L324.707 138.596L347.175 150.82Z" fill="#A35BFB" stroke="black"/>
<path d="M255.596 341.846L33.5947 373.968L33.6602 338.904L255.066 307.788L255.596 341.846Z" fill="#532E80" stroke="black"/>
<path d="M32.6611 338.771L32.5957 373.71L0.5 356.245L0.55957 321.312L32.6611 338.771Z" fill="#DABFFB" stroke="black"/>
<path d="M253.989 306.929L33.2549 337.95L1.63184 320.752L222.37 289.725L253.989 306.929Z" fill="#A35BFB" stroke="black"/>
</svg>
