<svg width="892" height="671" viewBox="0 0 892 671" fill="none" xmlns="http://www.w3.org/2000/svg">
<path d="M1139.86 675.116L676.116 740.302L607.316 702.868L1071.06 637.696L1139.86 675.116Z" fill="#A35BFB" stroke="black" stroke-width="0.175051"/>
<path d="M1053.93 590.568L650.736 648.907L650.868 583.831L1052.94 527.327L1053.93 590.568Z" fill="#532E80" stroke="black" stroke-width="0.175051"/>
<path d="M650.691 583.795L650.559 648.85L590.881 616.385L590.999 551.33L650.691 583.795Z" fill="#DABFFB" stroke="black" stroke-width="0.175051"/>
<path d="M1052.74 527.174L650.789 583.661L591.182 551.242L993.144 494.755L1052.74 527.174Z" fill="#A35BFB" stroke="black" stroke-width="0.175051"/>
<path d="M966.645 432.867L625.432 482.241L625.523 427.193L965.823 379.362L966.645 432.867Z" fill="#532E80" stroke="black" stroke-width="0.175051"/>
<path d="M625.356 427.188L625.264 482.214L574.764 454.75L574.869 399.726L625.356 427.188Z" fill="#DABFFB" stroke="black" stroke-width="0.175051"/>
<path d="M965.637 379.22L625.456 427.035L575.053 399.617L915.219 351.802L965.637 379.22Z" fill="#A35BFB" stroke="black" stroke-width="0.175051"/>
<path d="M851.799 297.37L572.541 337.766L572.619 292.747L851.11 253.601L851.799 297.37Z" fill="#532E80" stroke="black" stroke-width="0.175051"/>
<path d="M572.443 292.734L572.364 337.73L531.068 315.269L531.146 270.271L572.443 292.734Z" fill="#DABFFB" stroke="black" stroke-width="0.175051"/>
<path d="M850.922 253.452L572.551 292.582L531.338 270.166L809.709 231.036L850.922 253.452Z" fill="#A35BFB" stroke="black" stroke-width="0.175051"/>
<path d="M676.151 210.706L458.861 242.137L458.927 207.147L675.622 176.687L676.151 210.706Z" fill="#532E80" stroke="black" stroke-width="0.175051"/>
<path d="M458.751 207.112L458.686 242.081L426.58 224.618L426.646 189.651L458.751 207.112Z" fill="#DABFFB" stroke="black" stroke-width="0.175051"/>
<path d="M675.434 176.534L458.855 206.979L426.832 189.562L643.424 159.118L675.434 176.534Z" fill="#A35BFB" stroke="black" stroke-width="0.175051"/>
<path d="M515.642 143.633L360.307 166.112L360.358 141.124L515.259 119.362L515.642 143.633Z" fill="#532E80" stroke="black" stroke-width="0.175051"/>
<path d="M360.182 141.107L360.13 166.073L337.229 153.612L337.267 128.646L360.182 141.107Z" fill="#DABFFB" stroke="black" stroke-width="0.175051"/>
<path d="M515.063 119.22L360.282 140.966L337.449 128.551L492.245 106.806L515.063 119.22Z" fill="#A35BFB" stroke="black" stroke-width="0.175051"/>
<path d="M377.753 98.1504L263.252 114.722L263.29 96.3408L377.472 80.2998L377.753 98.1504Z" fill="#532E80" stroke="black" stroke-width="0.175051"/>
<path d="M263.112 96.3262L263.074 114.684L246.232 105.521L246.261 87.1631L263.112 96.3262Z" fill="#DABFFB" stroke="black" stroke-width="0.175051"/>
<path d="M377.27 80.1533L263.207 96.1787L246.438 87.0605L360.512 71.0361L377.27 80.1533Z" fill="#A35BFB" stroke="black" stroke-width="0.175051"/>
<path d="M271.57 62.3115L171.256 76.8281L171.289 60.7441L271.323 46.6904L271.57 62.3115Z" fill="#532E80" stroke="black" stroke-width="0.175051"/>
<path d="M171.112 60.7197L171.078 76.7812L156.342 68.7637L156.366 52.7012L171.112 60.7197Z" fill="#DABFFB" stroke="black" stroke-width="0.175051"/>
<path d="M271.128 46.5479L171.21 60.585L156.547 52.6123L256.473 38.5752L271.128 46.5479Z" fill="#A35BFB" stroke="black" stroke-width="0.175051"/>
<path d="M168.203 34.874L82.0762 47.3379L82.1045 33.5498L167.992 21.4834L168.203 34.874Z" fill="#532E80" stroke="black" stroke-width="0.175051"/>
<path d="M81.9238 33.5312L81.8955 47.2988L69.2637 40.4248L69.2842 26.6582L81.9238 33.5312Z" fill="#DABFFB" stroke="black" stroke-width="0.175051"/>
<path d="M167.788 21.3359L82.0176 33.3857L69.4629 26.5586L155.238 14.5088L167.788 21.3359Z" fill="#A35BFB" stroke="black" stroke-width="0.175051"/>
<path d="M78.8828 16.3203L10.4902 26.2188L10.5127 15.2998L78.7158 5.71777L78.8828 16.3203Z" fill="#532E80" stroke="black" stroke-width="0.175051"/>
<path d="M10.333 15.2793L10.3105 26.1768L0.310547 20.7354L0.327148 9.83887L10.333 15.2793Z" fill="#DABFFB" stroke="black" stroke-width="0.175051"/>
<path d="M78.5283 5.56738L10.4434 15.1328L0.521484 9.73828L68.6113 0.172852L78.5283 5.56738Z" fill="#A35BFB" stroke="black" stroke-width="0.175051"/>
</svg>
