<svg width="403" height="375" viewBox="0 0 403 375" fill="none" xmlns="http://www.w3.org/2000/svg">
<path d="M318.21 254.55L127.036 282.212L127.093 252.135L317.757 225.339L318.21 254.55Z" fill="#532E80" stroke="black"/>
<path d="M126.089 252.001L126.032 281.952L98.5117 266.979L98.5635 237.031L126.089 252.001Z" fill="#DABFFB" stroke="black"/>
<path d="M316.68 224.479L126.688 251.18L99.6396 236.47L289.635 209.764L316.68 224.479Z" fill="#A35BFB" stroke="black"/>
<path d="M348.645 176.041L188.31 199.24L188.356 174.152L348.266 151.679L348.645 176.041Z" fill="#532E80" stroke="black"/>
<path d="M187.347 174.02L187.3 198.982L164.355 186.498L164.398 161.539L187.347 174.02Z" fill="#DABFFB" stroke="black"/>
<path d="M347.175 150.82L187.938 173.199L165.468 160.979L324.707 138.596L347.175 150.82Z" fill="#A35BFB" stroke="black"/>
<path d="M377.686 100.946L225.978 122.897L226.021 99.2051L377.328 77.9404L377.686 100.946Z" fill="#532E80" stroke="black"/>
<path d="M225.017 99.0684L224.973 122.636L203.309 110.849L203.349 87.2852L225.017 99.0684Z" fill="#DABFFB" stroke="black"/>
<path d="M376.237 77.0771L225.604 98.2471L204.413 86.7227L355.05 65.5488L376.237 77.0771Z" fill="#A35BFB" stroke="black"/>
<path d="M401.718 34.4736L256.048 55.5508L256.09 32.835L401.375 12.417L401.718 34.4736Z" fill="#532E80" stroke="black"/>
<path d="M255.08 32.6992L255.037 55.2891L234.27 43.9893L234.309 21.4023L255.08 32.6992Z" fill="#DABFFB" stroke="black"/>
<path d="M400.28 11.5586L255.668 31.8818L235.374 20.8447L379.988 0.517578L400.28 11.5586Z" fill="#A35BFB" stroke="black"/>
<path d="M255.596 341.846L33.5947 373.968L33.6602 338.904L255.066 307.788L255.596 341.846Z" fill="#532E80" stroke="black"/>
<path d="M32.6611 338.771L32.5957 373.71L0.5 356.245L0.55957 321.312L32.6611 338.771Z" fill="#DABFFB" stroke="black"/>
<path d="M253.989 306.929L33.2549 337.95L1.63184 320.752L222.37 289.725L253.989 306.929Z" fill="#A35BFB" stroke="black"/>
</svg>
