<svg width="920" height="671" viewBox="0 0 920 671" fill="none" xmlns="http://www.w3.org/2000/svg">
<path d="M-220.625 675.567L243.485 740.805L312.338 703.342L-151.771 638.118L-220.625 675.567Z" fill="#A35BFB" stroke="black" stroke-width="0.175189"/>
<path d="M-134.632 590.95L268.881 649.335L268.749 584.207L-133.636 527.659L-134.632 590.95Z" fill="#532E80" stroke="black" stroke-width="0.175189"/>
<path d="M268.926 584.169L269.059 649.273L328.783 616.783L328.665 551.678L268.926 584.169Z" fill="#DABFFB" stroke="black" stroke-width="0.175189"/>
<path d="M-133.438 527.5L268.828 584.032L328.484 551.587L-73.7969 495.056L-133.438 527.5Z" fill="#A35BFB" stroke="black" stroke-width="0.175189"/>
<path d="M-47.2725 433.124L294.209 482.537L294.117 427.446L-46.4512 379.577L-47.2725 433.124Z" fill="#532E80" stroke="black" stroke-width="0.175189"/>
<path d="M294.283 427.44L294.376 482.51L344.916 455.024L344.811 399.956L294.283 427.44Z" fill="#DABFFB" stroke="black" stroke-width="0.175189"/>
<path d="M-46.2646 379.429L294.184 427.281L344.629 399.842L4.19238 351.989L-46.2646 379.429Z" fill="#A35BFB" stroke="black" stroke-width="0.175189"/>
<path d="M67.6641 297.51L347.143 337.938L347.064 292.883L68.3535 253.706L67.6641 297.51Z" fill="#532E80" stroke="black" stroke-width="0.175189"/>
<path d="M347.238 292.877L347.317 337.91L388.646 315.429L388.568 270.396L347.238 292.877Z" fill="#DABFFB" stroke="black" stroke-width="0.175189"/>
<path d="M68.542 253.568L347.136 292.729L388.383 270.294L109.79 231.134L68.542 253.568Z" fill="#A35BFB" stroke="black" stroke-width="0.175189"/>
<path d="M243.451 210.784L460.912 242.239L460.847 207.222L243.98 176.737L243.451 210.784Z" fill="#532E80" stroke="black" stroke-width="0.175189"/>
<path d="M461.021 207.185L461.086 242.18L493.217 224.705L493.151 189.71L461.021 207.185Z" fill="#DABFFB" stroke="black" stroke-width="0.175189"/>
<path d="M244.167 176.591L460.916 207.059L492.963 189.63L276.202 159.161L244.167 176.591Z" fill="#A35BFB" stroke="black" stroke-width="0.175189"/>
<path d="M404.084 143.659L559.541 166.157L559.489 141.149L404.467 119.37L404.084 143.659Z" fill="#532E80" stroke="black" stroke-width="0.175189"/>
<path d="M559.667 141.125L559.719 166.111L582.639 153.64L582.601 128.654L559.667 141.125Z" fill="#DABFFB" stroke="black" stroke-width="0.175189"/>
<path d="M404.658 119.23L559.562 140.993L582.412 128.568L427.496 106.806L404.658 119.23Z" fill="#A35BFB" stroke="black" stroke-width="0.175189"/>
<path d="M542.082 98.1416L656.674 114.725L656.636 96.3301L542.364 80.2764L542.082 98.1416Z" fill="#532E80" stroke="black" stroke-width="0.175189"/>
<path d="M656.815 96.3145L656.854 114.688L673.709 105.516L673.681 87.1436L656.815 96.3145Z" fill="#DABFFB" stroke="black" stroke-width="0.175189"/>
<path d="M542.564 80.1299L656.717 96.167L673.5 87.042L559.336 71.0049L542.564 80.1299Z" fill="#A35BFB" stroke="black" stroke-width="0.175189"/>
<path d="M648.347 62.2725L748.74 76.8018L748.707 60.7041L648.594 46.6396L648.347 62.2725Z" fill="#532E80" stroke="black" stroke-width="0.175189"/>
<path d="M748.884 60.6875L748.918 76.7617L763.666 68.7373L763.642 52.6631L748.884 60.6875Z" fill="#DABFFB" stroke="black" stroke-width="0.175189"/>
<path d="M648.787 46.4951L748.782 60.5439L763.457 52.5645L663.452 38.5166L648.787 46.4951Z" fill="#A35BFB" stroke="black" stroke-width="0.175189"/>
<path d="M751.8 34.8105L837.994 47.2842L837.966 33.4854L752.011 21.4092L751.8 34.8105Z" fill="#532E80" stroke="black" stroke-width="0.175189"/>
<path d="M838.145 33.4707L838.173 47.248L850.814 40.3691L850.794 26.5918L838.145 33.4707Z" fill="#DABFFB" stroke="black" stroke-width="0.175189"/>
<path d="M752.206 21.2666L838.042 33.3262L850.607 26.4941L764.764 14.4346L752.206 21.2666Z" fill="#A35BFB" stroke="black" stroke-width="0.175189"/>
<path d="M841.188 16.251L909.635 26.1562L909.612 15.2295L841.355 5.63965L841.188 16.251Z" fill="#532E80" stroke="black" stroke-width="0.175189"/>
<path d="M909.792 15.2051L909.814 26.1104L919.822 20.666L919.806 9.76074L909.792 15.2051Z" fill="#DABFFB" stroke="black" stroke-width="0.175189"/>
<path d="M841.541 5.49023L909.682 15.0635L919.611 9.66406L851.467 0.0908203L841.541 5.49023Z" fill="#A35BFB" stroke="black" stroke-width="0.175189"/>
</svg>
