<svg width="897" height="768" viewBox="0 0 897 768" fill="none" xmlns="http://www.w3.org/2000/svg">
<path d="M1140.97 837.518L666.755 906.133L666.897 829.553L1139.82 763.09L1140.97 837.518Z" fill="#532E80" stroke="black" stroke-width="0.157488"/>
<path d="M1139.64 762.95L666.83 829.398L596.653 791.232L1069.48 724.772L1139.64 762.95Z" fill="#A35BFB" stroke="black" stroke-width="0.157488"/>
<path d="M1026.71 673.188L608.228 733.738L608.357 666.181L1025.68 607.52L1026.71 673.188Z" fill="#532E80" stroke="black" stroke-width="0.157488"/>
<path d="M608.192 666.148L608.062 733.686L546.091 699.979L546.221 632.429L608.192 666.148Z" fill="#DABFFB" stroke="black" stroke-width="0.157488"/>
<path d="M1025.5 607.388L608.284 666.034L546.387 632.355L963.605 573.722L1025.5 607.388Z" fill="#A35BFB" stroke="black" stroke-width="0.157488"/>
<path d="M948.196 531.319L585.454 583.804L585.572 525.257L947.302 474.422L948.196 531.319Z" fill="#532E80" stroke="black" stroke-width="0.157488"/>
<path d="M585.412 525.227L585.293 583.754L531.603 554.546L531.709 496.019L585.412 525.227Z" fill="#DABFFB" stroke="black" stroke-width="0.157488"/>
<path d="M947.119 474.283L585.496 525.104L531.868 495.936L893.503 445.116L947.119 474.283Z" fill="#A35BFB" stroke="black" stroke-width="0.157488"/>
<path d="M869.667 389.438L562.688 433.858L562.771 384.334L868.929 341.301L869.667 389.438Z" fill="#532E80" stroke="black" stroke-width="0.157488"/>
<path d="M562.615 384.333L562.532 433.838L517.099 409.128L517.193 359.625L562.615 384.333Z" fill="#DABFFB" stroke="black" stroke-width="0.157488"/>
<path d="M868.76 341.175L562.707 384.193L517.36 359.524L823.399 316.507L868.76 341.175Z" fill="#A35BFB" stroke="black" stroke-width="0.157488"/>
<path d="M766.343 267.535L515.103 303.877L515.173 263.375L765.724 228.156L766.343 267.535Z" fill="#532E80" stroke="black" stroke-width="0.157488"/>
<path d="M515.014 263.369L514.943 303.851L477.79 283.641L477.86 243.159L515.014 263.369Z" fill="#DABFFB" stroke="black" stroke-width="0.157488"/>
<path d="M765.554 228.027L515.11 263.23L478.031 243.062L728.476 207.858L765.554 228.027Z" fill="#A35BFB" stroke="black" stroke-width="0.157488"/>
</svg>
