<svg width="493" height="663" viewBox="0 0 493 663" fill="none" xmlns="http://www.w3.org/2000/svg">
<rect x="141" y="89" width="206" height="568" fill="#FFD007"/>
<path d="M328.228 156.615C328.971 156.535 329.504 156.683 329.775 156.91C330.264 157.318 331.106 157.733 332.086 158.055C333.078 158.38 334.26 158.625 335.456 158.661C337.276 158.716 339.214 158.278 340.491 156.821V206.998C340.485 207.012 340.478 207.028 340.47 207.046C340.429 207.131 340.365 207.254 340.272 207.397C340.087 207.685 339.795 208.043 339.367 208.334C338.546 208.893 337.097 209.293 334.639 208.166C332.204 207.05 331.178 205.238 330.149 203.747C329.648 203.021 329.108 202.314 328.358 201.92C327.572 201.507 326.641 201.477 325.452 201.888C324.419 202.245 323.73 202.234 323.234 202.089C322.733 201.942 322.359 201.638 321.977 201.263C321.623 200.916 321.198 200.429 320.691 200.141C320.124 199.818 319.459 199.729 318.611 200.027C317.982 200.249 317.591 200.202 317.298 200.078C316.972 199.94 316.701 199.681 316.337 199.319C315.993 198.978 315.574 198.555 315.006 198.268C314.419 197.971 313.705 197.833 312.775 197.974C311.926 198.103 311.288 198.232 310.77 198.345C310.244 198.459 309.873 198.549 309.518 198.61C308.853 198.724 308.27 198.731 307.02 198.485C306.636 198.41 306.285 198.418 305.974 198.539C305.655 198.663 305.434 198.884 305.28 199.133C305.132 199.373 305.039 199.648 304.969 199.907C304.9 200.162 304.841 200.453 304.783 200.704C304.66 201.244 304.522 201.69 304.254 202.009C304.013 202.295 303.614 202.537 302.819 202.537C301.119 202.537 300.108 202.031 299.241 201.509C298.39 200.996 297.523 200.337 296.285 200.337C295.278 200.337 293.801 200.048 292.052 199.739C290.335 199.437 288.399 199.126 286.572 199.126C285.541 199.126 284.789 199.505 284.168 200.035C283.582 200.536 283.071 201.219 282.587 201.771C282.08 202.35 281.545 202.865 280.827 203.203C280.116 203.538 279.18 203.721 277.846 203.556C276.477 203.386 275.307 203.062 274.241 202.714C273.196 202.373 272.187 201.986 271.243 201.734C270.277 201.477 269.308 201.338 268.265 201.494C267.22 201.65 266.141 202.095 264.94 202.945C263.755 203.785 262.934 204.58 262.265 205.259C261.582 205.951 261.104 206.47 260.555 206.842C259.542 207.528 258.216 207.755 254.685 206.83C252.924 206.369 251.697 205.952 250.782 205.621C249.89 205.298 249.23 205.03 248.68 204.904C248.08 204.767 247.571 204.786 246.946 205.008C246.36 205.216 245.663 205.607 244.68 206.184C242.892 207.231 241.459 206.831 240.048 206.346C239.359 206.109 238.614 205.826 237.889 205.757C237.121 205.684 236.357 205.845 235.615 206.465C234.368 207.506 233.373 208.206 232.353 208.603C231.476 208.944 230.554 209.07 229.403 208.955L228.895 208.892C225.958 208.45 224.801 208.367 222.999 209.027C222.688 209.141 222.126 209.178 221.484 209.11C220.853 209.044 220.238 208.886 219.84 208.685C219.638 208.582 219.542 208.493 219.507 208.443C219.535 208.394 219.632 208.274 219.912 208.109C220.198 207.942 220.625 207.754 221.233 207.557C222.425 207.17 223.324 207.121 224.05 207.193C224.798 207.269 225.356 207.467 225.978 207.624C226.585 207.778 227.227 207.879 227.957 207.617C228.667 207.362 229.39 206.789 230.249 205.773C231.934 203.781 233.272 202.281 234.814 201.4C236.318 200.542 238.06 200.252 240.6 200.813C242.014 201.126 243.071 200.964 243.949 200.519C244.797 200.088 245.442 199.406 246.042 198.801C246.66 198.178 247.254 197.607 248.053 197.23C248.838 196.861 249.861 196.662 251.348 196.878C252.89 197.102 254.35 197.366 255.671 197.521C257.003 197.677 258.262 197.732 259.455 197.53C261.896 197.117 263.943 195.649 265.876 192.182C266.834 190.463 267.485 188.872 268.044 187.504C268.61 186.119 269.066 185.002 269.645 184.155C270.206 183.333 270.865 182.793 271.831 182.546C272.825 182.292 274.197 182.334 276.205 182.809C280.462 183.814 284.26 182.305 286.917 181.054C287.25 180.897 287.567 180.744 287.864 180.6C288.162 180.455 288.439 180.32 288.697 180.198C289.22 179.952 289.636 179.776 289.957 179.689C290.302 179.596 290.396 179.646 290.396 179.646C290.371 179.63 290.467 179.664 290.467 180.057C290.467 180.884 290.331 181.792 290.177 182.715C290.026 183.619 289.855 184.552 289.813 185.36C289.773 186.15 289.846 186.965 290.313 187.545C290.813 188.164 291.629 188.367 292.699 188.241C293.909 188.099 294.881 187.192 295.698 186.108C296.525 185.011 297.284 183.604 298.021 182.279C298.771 180.932 299.499 179.669 300.285 178.77C301.074 177.867 301.829 177.435 302.63 177.524C304.599 177.744 305.615 178.445 306.45 179.037C306.864 179.33 307.295 179.646 307.78 179.823C308.297 180.012 308.854 180.04 309.526 179.836C309.971 179.701 310.262 179.399 310.434 179.025C310.595 178.673 310.651 178.257 310.665 177.849C310.679 177.434 310.651 176.979 310.615 176.528C310.578 176.067 310.534 175.615 310.508 175.164C310.455 174.241 310.498 173.495 310.762 173.012C310.883 172.79 311.05 172.625 311.296 172.519C311.551 172.408 311.925 172.346 312.472 172.399C314.922 172.637 317.315 172.412 319.158 171.149C321.026 169.87 322.219 167.603 322.435 164.011C322.635 160.672 324.175 158.603 325.819 157.526C326.648 156.984 327.502 156.693 328.228 156.615Z" fill="#FFECE1" stroke="black"/>
<path d="M153.443 338.367C154.722 337.586 156.483 337.064 158.551 338.008C160.618 338.952 161.422 340.715 162.064 342.384C162.375 343.19 162.667 344.034 163.066 344.655C163.49 345.314 164.087 345.805 165.009 345.805C166.481 345.805 168.331 345.622 169.989 346.315C171.569 346.976 173.047 348.481 173.566 352.095C173.848 354.055 174.537 355.321 175.474 356.152C176.399 356.973 177.512 357.319 178.53 357.55C178.786 357.608 179.04 357.659 179.284 357.708C179.53 357.758 179.765 357.805 179.993 357.855C180.451 357.957 180.851 358.068 181.191 358.221C181.527 358.371 181.79 358.557 181.986 358.801C182.181 359.043 182.333 359.373 182.403 359.848C182.483 360.39 182.546 360.905 182.606 361.396C182.666 361.886 182.724 362.355 182.791 362.794C182.924 363.665 183.102 364.467 183.451 365.141C183.81 365.834 184.344 366.376 185.149 366.735C185.937 367.087 186.959 367.252 188.286 367.252C189.598 367.252 190.839 367.169 191.955 367.097C193.08 367.024 194.063 366.962 194.895 366.993C195.733 367.025 196.343 367.15 196.758 367.398C197.137 367.626 197.4 367.984 197.489 368.629C197.548 369.05 197.659 369.418 197.874 369.688C198.113 369.987 198.433 370.111 198.768 370.114C199.07 370.117 199.384 370.023 199.671 369.913C199.963 369.802 200.289 369.649 200.616 369.5C201.96 368.888 203.61 368.208 205.55 369.021C207.487 369.834 207.721 371.194 208.503 372.757C208.889 373.529 209.406 374.302 210.355 374.905C211.295 375.502 212.611 375.904 214.546 376.036C218.383 376.299 220.321 375.837 221.641 375.54C222.299 375.392 222.722 375.308 223.145 375.345C223.548 375.38 223.996 375.532 224.654 375.957C226.051 376.859 227.032 377.421 228.039 377.67C229.062 377.922 230.065 377.84 231.482 377.579C232.808 377.335 234.411 377.398 235.784 377.696C236.469 377.845 237.081 378.049 237.562 378.29C238.054 378.536 238.363 378.798 238.509 379.036C238.658 379.281 238.884 379.507 239.224 379.551C239.527 379.589 239.796 379.46 239.986 379.347C240.187 379.227 240.405 379.057 240.622 378.888C240.848 378.711 241.093 378.519 241.376 378.322C242.483 377.552 244.193 376.698 247.061 377.066C250.098 377.456 253.178 377.593 255.87 377.061C258.571 376.526 260.922 375.309 262.418 372.964C262.743 372.454 263.04 372.178 263.254 372.056C263.383 371.982 263.449 371.978 263.474 371.981C263.489 372.004 263.54 372.092 263.524 372.326C263.506 372.611 263.389 373.027 263.097 373.549C261.924 375.642 258.141 379.077 248.925 381.775C239.683 384.481 236.139 384.122 234.453 383.587C234.029 383.452 233.71 383.304 233.423 383.17C233.151 383.043 232.852 382.9 232.532 382.851C231.812 382.74 231.166 383.11 230.202 383.944C228.331 385.565 226.532 386.362 224.475 386.67C222.395 386.982 220.031 386.798 217.016 386.41C213.885 386.008 212.119 386.616 210.598 387.325C209.103 388.022 207.978 388.731 205.959 388.731C203.799 388.731 200.767 388.73 197.822 388.253C194.862 387.773 192.09 386.827 190.374 385.012C189.502 384.089 188.838 383.02 188.256 381.962C187.688 380.93 187.168 379.851 186.629 379.032C186.088 378.211 185.433 377.495 184.505 377.302C183.572 377.107 182.533 377.474 181.309 378.372C178.717 380.274 178.836 382.978 178.655 384.973C178.562 386.007 178.399 386.83 177.909 387.449C177.434 388.05 176.574 388.549 174.869 388.734C171.57 389.094 169.298 387.135 167.336 385.104C166.383 384.118 165.467 383.074 164.589 382.402C163.694 381.718 162.683 381.299 161.571 381.799C160.832 382.131 160.154 382.11 159.578 381.87C158.992 381.626 158.477 381.14 158.118 380.494C157.398 379.199 157.348 377.349 158.509 375.842C159.203 374.94 159.436 374.057 159.102 373.336C158.772 372.624 157.999 372.31 157.235 372.291C155.675 372.253 153.691 373.387 153.1 375.94C152.595 378.116 151.993 380.122 151.5 381.636V340.053C151.51 340.041 151.52 340.028 151.531 340.015C151.621 339.908 151.756 339.754 151.932 339.575C152.285 339.216 152.8 338.76 153.443 338.367Z" fill="#FFECE1" stroke="black"/>
<path d="M241.502 17.3828C166.328 17.3828 105.388 78.3227 105.388 153.496V329.435V352.362V375.289V398.215V468.142H120.874V398.215V375.289V352.362V329.435V157.515C120.874 90.8946 174.881 36.8879 241.502 36.8879C308.123 36.8879 362.129 90.8949 362.129 157.515V329.435V352.362V375.289V398.215V468.142H377.615V398.215V375.289V352.362V329.435V153.496C377.615 78.3231 316.675 17.3828 241.502 17.3828Z" fill="#A35BFB"/>
<path d="M378 468.528H361.741V157.515C361.741 125.397 349.234 95.2021 326.523 72.4915C303.812 49.7805 273.618 37.2733 241.5 37.2733C209.382 37.2733 179.186 49.7805 156.476 72.4915C133.766 95.2018 121.259 125.397 121.259 157.515V467.528H105V153.496C105 117.035 119.198 82.7572 144.98 56.9759C170.761 31.1942 205.039 16.9961 241.5 16.9961C277.96 16.9961 312.238 31.1945 338.019 56.9759C363.801 82.7572 378 117.036 378 153.496L378 468.528ZM362.514 467.755H377.227V153.496C377.227 117.241 363.109 83.1576 337.473 57.5221C311.837 31.8866 277.753 17.7686 241.5 17.7686C205.246 17.7686 171.161 31.8866 145.526 57.5221C119.89 83.1576 105.773 117.241 105.773 153.496V466.755H120.485V157.515C120.485 125.19 133.073 94.8013 155.93 71.9449C178.786 49.0885 209.175 36.5008 241.5 36.5008C273.824 36.5008 304.213 49.0885 327.07 71.9449C349.926 94.8013 362.514 125.191 362.514 157.515V467.755Z" fill="#14182E"/>
<path d="M241.494 36.8906C174.873 36.8906 120.867 90.8977 120.867 157.518V329.438V352.365V375.291V468.5H136.352V375.291V352.365V329.438V161.537C136.352 103.469 183.426 56.3953 241.494 56.3953C299.563 56.3953 346.636 103.469 346.636 161.537V329.438V352.365V375.291V469.218H362.122V375.291V352.365V329.438V157.518C362.122 90.8973 308.115 36.8906 241.494 36.8906Z" fill="#7A44BC"/>
<path d="M362.515 468.604H346.256V161.537C346.256 103.774 299.263 56.7811 241.501 56.7811C183.738 56.7811 136.745 103.775 136.745 161.537V480.274H120.486V157.518C120.486 125.194 133.074 94.8045 155.93 71.9481C178.787 49.0916 209.176 36.5039 241.5 36.5039C273.824 36.5039 304.213 49.0916 327.07 71.9481C349.927 94.8045 362.515 125.194 362.515 157.518L362.515 468.604ZM347.029 467.831H361.742V157.518C361.742 125.4 349.234 95.2053 326.524 72.4943C303.813 49.7837 273.619 37.2764 241.501 37.2764C209.383 37.2764 179.187 49.7837 156.477 72.4943C133.767 95.2049 121.259 125.4 121.259 157.518V479.5H135.972V161.537C135.972 103.348 183.312 56.0086 241.501 56.0086C299.689 56.0086 347.029 103.348 347.029 161.537V467.831Z" fill="#14182E"/>
<path d="M241.502 56.3906C183.434 56.3906 136.36 103.465 136.36 161.533V329.433V352.36V467.996H151.846V352.36V329.433V165.552C151.846 116.036 191.986 75.8957 241.502 75.8957C291.019 75.8957 331.159 116.036 331.159 165.552V329.433V352.36V467.996H346.645V352.36V329.433V161.533C346.644 103.465 299.571 56.3906 241.502 56.3906Z" fill="#A35BFB"/>
<path d="M347.029 468.771H330.77V165.556C330.77 116.332 290.724 76.2854 241.501 76.2854C192.277 76.2854 152.231 116.332 152.231 165.556V467.771H135.972V161.536C135.972 103.348 183.312 56.0078 241.5 56.0078C299.689 56.0078 347.029 103.348 347.029 161.536V468.771ZM331.543 467.998H346.256V161.536C346.256 103.774 299.263 56.7807 241.501 56.7807C183.738 56.7807 136.745 103.774 136.745 161.536V466.998H151.457V165.556C151.457 115.906 191.851 75.5129 241.501 75.5129C291.15 75.5129 331.543 115.906 331.543 165.556V467.998Z" fill="#14182E"/>
<path d="M241.494 75.9023C191.978 75.9023 151.838 116.043 151.838 165.559V329.44V468.5H167.324V329.44V169.578C167.324 128.614 200.531 95.4074 241.494 95.4074C282.457 95.4074 315.665 128.615 315.665 169.578V329.44V468.5H331.151V329.44V165.559C331.151 116.043 291.01 75.9023 241.494 75.9023Z" fill="#7A44BC"/>
<path d="M332.315 469.273H316.057L315.284 169.578C315.284 128.893 282.185 95.7935 241.5 95.7935C200.815 95.7935 167.716 128.893 167.716 169.578L168.489 469.273H152.23L151.457 165.558C151.457 115.909 191.85 75.5156 241.5 75.5156C291.149 75.5156 331.543 115.909 331.543 165.558L332.315 469.273ZM316.83 468.5H331.543L330.77 165.558C330.77 116.335 290.724 76.2881 241.5 76.2881C192.276 76.2881 152.231 116.335 152.231 165.558L153.003 468.5H167.716L166.943 169.578C166.943 128.467 200.39 95.0207 241.5 95.0207C282.611 95.0207 316.057 128.467 316.057 169.578L316.83 468.5Z" fill="#14182E"/>
<path d="M242.002 660.763L402.271 661.763L350.769 468.52L242.002 467.52V660.763Z" fill="#7A44BC"/>
<path d="M402.271 662.279H281.518C281.232 662.279 281 662.047 281 661.762V468.518C281 468.232 281.232 468 281.518 468H350.769C351.004 468 351.209 468.157 351.269 468.384L402.771 661.628C402.813 661.783 402.78 661.949 402.682 662.077C402.584 662.204 402.432 662.279 402.271 662.279ZM282.035 661.244H401.597L350.371 469.035H282.035V661.244Z" fill="#7A44BC"/>
<path d="M418.846 478.535H299.927V507.17H418.846V478.535Z" fill="#A35BFB"/>
<path d="M418.846 507.686H299.927C299.641 507.686 299.409 507.454 299.409 507.168V478.533C299.409 478.248 299.641 478.016 299.927 478.016H418.846C419.132 478.016 419.364 478.248 419.364 478.533V507.168C419.364 507.455 419.133 507.686 418.846 507.686ZM300.445 506.651H418.328V479.051H300.445V506.651Z" fill="#121519"/>
<path d="M437.249 517.184H318.33V545.819H437.249V517.184Z" fill="#A35BFB"/>
<path d="M437.249 546.334H318.33C318.045 546.334 317.813 546.103 317.813 545.817V517.182C317.813 516.896 318.045 516.664 318.33 516.664H437.249C437.535 516.664 437.767 516.896 437.767 517.182V545.817C437.767 546.104 437.535 546.334 437.249 546.334ZM318.848 545.299H436.731V517.699H318.848V545.299Z" fill="#121519"/>
<path d="M318.334 517.182H437.253L418.844 507.168H299.925L318.334 517.182Z" fill="#7A44BC"/>
<path d="M437.253 517.701H318.335C318.249 517.701 318.163 517.68 318.087 517.639L299.678 507.626C299.47 507.513 299.365 507.272 299.423 507.043C299.481 506.813 299.688 506.652 299.924 506.652H418.843C418.929 506.652 419.015 506.673 419.091 506.715L437.5 516.729C437.708 516.842 437.812 517.082 437.755 517.312C437.697 517.541 437.491 517.701 437.253 517.701ZM318.467 516.666H435.219L418.713 507.688H301.961L318.467 516.666Z" fill="#121519"/>
<path d="M455.666 555.828H336.747V584.463H455.666V555.828Z" fill="#A35BFB"/>
<path d="M455.666 584.984H336.747C336.461 584.984 336.23 584.752 336.23 584.466V555.83C336.23 555.544 336.461 555.312 336.747 555.312H455.666C455.952 555.312 456.184 555.544 456.184 555.83V584.466C456.184 584.753 455.952 584.984 455.666 584.984ZM337.265 583.949H455.148V556.348H337.265V583.949Z" fill="#121519"/>
<path d="M336.739 555.83H455.658L437.249 545.816H318.33L336.739 555.83Z" fill="#7A44BC"/>
<path d="M455.658 556.345H336.739C336.653 556.345 336.569 556.323 336.492 556.283L318.083 546.27C317.875 546.157 317.77 545.917 317.828 545.687C317.886 545.457 318.093 545.297 318.329 545.297H437.248C437.334 545.297 437.419 545.319 437.495 545.36L455.905 555.373C456.113 555.486 456.217 555.726 456.159 555.956C456.101 556.184 455.894 556.345 455.658 556.345ZM336.871 555.31H453.623L437.118 546.332H320.366L336.871 555.31Z" fill="#121519"/>
<path d="M474.077 594.48H355.158V623.116H474.077V594.48Z" fill="#A35BFB"/>
<path d="M474.077 623.631H355.158C354.872 623.631 354.64 623.399 354.64 623.114V594.479C354.64 594.193 354.872 593.961 355.158 593.961H474.077C474.362 593.961 474.594 594.193 474.594 594.479V623.114C474.594 623.399 474.362 623.631 474.077 623.631ZM355.676 622.596H473.559V594.996H355.676V622.596Z" fill="#121519"/>
<path d="M355.162 594.479H474.079L455.671 584.465H336.753L355.162 594.479Z" fill="#7A44BC"/>
<path d="M474.081 594.994H355.162C355.075 594.994 354.99 594.973 354.915 594.931L336.505 584.919C336.297 584.806 336.193 584.565 336.251 584.336C336.309 584.106 336.516 583.945 336.752 583.945H455.671C455.758 583.945 455.843 583.967 455.918 584.007L474.327 594.02C474.535 594.133 474.64 594.373 474.582 594.603C474.524 594.834 474.317 594.994 474.081 594.994ZM355.294 593.959H472.045L455.54 584.982H338.788L355.294 593.959Z" fill="#121519"/>
<path d="M492.485 633.133H373.567V661.768H492.485V633.133Z" fill="#A35BFB"/>
<path d="M492.484 662.284H373.567C373.281 662.284 373.049 662.052 373.049 661.766V633.131C373.049 632.845 373.281 632.613 373.567 632.613H492.484C492.77 632.613 493.002 632.845 493.002 633.131V661.766C493.002 662.052 492.771 662.284 492.484 662.284ZM374.084 661.248H491.967V633.649H374.084V661.248Z" fill="#121519"/>
<path d="M373.566 633.131H492.484L474.075 623.117H355.157L373.566 633.131Z" fill="#7A44BC"/>
<path d="M492.485 633.648H373.567C373.481 633.648 373.396 633.626 373.319 633.585L354.91 623.571C354.702 623.458 354.598 623.218 354.656 622.988C354.714 622.758 354.921 622.598 355.157 622.598H474.077C474.163 622.598 474.248 622.619 474.324 622.66L492.733 632.673C492.941 632.786 493.046 633.027 492.988 633.256C492.929 633.486 492.722 633.648 492.485 633.648ZM373.698 632.612H490.45L473.944 623.634H357.192L373.698 632.612Z" fill="#121519"/>
<path d="M251.998 660.759H90.7291L142.232 467.516H251.998V660.759Z" fill="#7A44BC"/>
<path d="M90.729 661.279H211.482C211.768 661.279 212 661.047 212 660.762V467.518C212 467.232 211.768 467 211.482 467H142.231C141.996 467 141.791 467.157 141.731 467.384L90.229 660.628C90.1876 660.783 90.2207 660.949 90.318 661.077C90.4164 661.204 90.5686 661.279 90.729 661.279ZM210.965 660.244H91.403L142.629 468.035H210.965V660.244Z" fill="#7A44BC"/>
<path d="M74.1541 477.535H193.073V506.17H74.1541V477.535Z" fill="#A35BFB"/>
<path d="M74.1539 506.686H193.073C193.359 506.686 193.59 506.454 193.59 506.168V477.533C193.59 477.248 193.359 477.016 193.073 477.016H74.1539C73.8682 477.016 73.6363 477.248 73.6363 477.533V506.168C73.6363 506.455 73.8671 506.686 74.1539 506.686ZM192.555 505.651H74.6716V478.051H192.555V505.651Z" fill="#121519"/>
<path d="M73.8405 478.05H194.579C194.612 478.05 194.646 478.028 194.676 477.987L201.894 467.973C201.976 467.86 202.017 467.62 201.994 467.39C201.971 467.16 201.89 467 201.797 467H81.0598C81.0257 467 80.9924 467.022 80.9627 467.062L73.7443 477.076C73.6627 477.189 73.6217 477.429 73.6444 477.659C73.6664 477.89 73.7476 478.05 73.8405 478.05ZM194.527 477.015H74.6382L81.1105 468.036H200.999L194.527 477.015Z" fill="#121519"/>
<path d="M55.7512 516.18H174.67V544.815H55.7512V516.18Z" fill="#A35BFB"/>
<path d="M55.7511 545.331H174.67C174.956 545.331 175.188 545.099 175.188 544.813V516.178C175.188 515.892 174.956 515.66 174.67 515.66H55.7511C55.4653 515.66 55.2334 515.892 55.2334 516.178V544.813C55.2334 545.1 55.4653 545.331 55.7511 545.331ZM174.152 544.295H56.2688V516.695H174.152V544.295Z" fill="#121519"/>
<path d="M174.666 516.178H55.7473L74.1565 506.164H193.075L174.666 516.178Z" fill="#7A44BC"/>
<path d="M55.7468 516.697H174.666C174.752 516.697 174.838 516.676 174.913 516.635L193.322 506.622C193.53 506.509 193.635 506.269 193.577 506.039C193.519 505.809 193.312 505.648 193.076 505.648H74.157C74.0711 505.648 73.9852 505.669 73.9096 505.712L55.5004 515.725C55.2923 515.838 55.1877 516.078 55.2457 516.308C55.3037 516.537 55.5097 516.697 55.7468 516.697ZM174.533 515.662H57.7812L74.2875 506.684H191.039L174.533 515.662Z" fill="#121519"/>
<path d="M37.3342 554.828H156.253V583.463H37.3342V554.828Z" fill="#A35BFB"/>
<path d="M37.3342 583.984H156.253C156.539 583.984 156.771 583.752 156.771 583.466V554.83C156.771 554.544 156.539 554.312 156.253 554.312H37.3342C37.0484 554.312 36.8165 554.544 36.8165 554.83V583.466C36.8165 583.753 37.0484 583.984 37.3342 583.984ZM155.735 582.949H37.8518V555.348H155.735V582.949Z" fill="#121519"/>
<path d="M156.261 554.83H37.3425L55.7517 544.816H174.67L156.261 554.83Z" fill="#7A44BC"/>
<path d="M37.342 555.345H156.261C156.347 555.345 156.432 555.323 156.508 555.283L174.917 545.27C175.126 545.157 175.23 544.917 175.172 544.687C175.114 544.457 174.907 544.297 174.671 544.297H55.7523C55.6663 544.297 55.5814 544.319 55.5048 544.36L37.0956 554.373C36.8875 554.486 36.783 554.726 36.841 554.956C36.8989 555.184 37.106 555.345 37.342 555.345ZM156.129 554.31H39.3775L55.8827 545.332H172.635L156.129 554.31Z" fill="#121519"/>
<path d="M18.9236 593.48H137.842V622.116H18.9236V593.48Z" fill="#A35BFB"/>
<path d="M18.9235 622.631H137.842C138.128 622.631 138.36 622.399 138.36 622.114V593.479C138.36 593.193 138.128 592.961 137.842 592.961H18.9235C18.6378 592.961 18.4059 593.193 18.4059 593.479V622.114C18.4059 622.399 18.6378 622.631 18.9235 622.631ZM137.325 621.596H19.4412V593.996H137.325V621.596Z" fill="#121519"/>
<path d="M137.839 593.479H18.9208L37.3289 583.465H156.248L137.839 593.479Z" fill="#7A44BC"/>
<path d="M18.9193 593.994H137.838C137.925 593.994 138.01 593.973 138.086 593.931L156.495 583.919C156.703 583.806 156.807 583.565 156.749 583.336C156.692 583.106 156.484 582.945 156.248 582.945H37.3296C37.2426 582.945 37.1577 582.967 37.0821 583.007L18.6729 593.02C18.4648 593.133 18.3603 593.373 18.4183 593.603C18.4762 593.834 18.6833 593.994 18.9193 593.994ZM137.707 592.959H20.9548L37.46 583.982H154.212L137.707 592.959Z" fill="#121519"/>
<path d="M0.514885 632.129H119.434V660.764H0.514885V632.129Z" fill="#A35BFB"/>
<path d="M0.515839 661.28H119.434C119.719 661.28 119.951 661.048 119.951 660.762V632.127C119.951 631.841 119.719 631.609 119.434 631.609H0.515839C0.230087 631.609 -0.00182343 631.841 -0.00182343 632.127V660.762C-0.00182343 661.048 0.22905 661.28 0.515839 661.28ZM118.916 660.244H1.0335V632.645H118.916V660.244Z" fill="#121519"/>
<path d="M119.434 632.127H0.515968L18.9251 622.113H137.843L119.434 632.127Z" fill="#7A44BC"/>
<path d="M0.515579 632.644H119.433C119.519 632.644 119.604 632.622 119.681 632.581L138.09 622.567C138.298 622.454 138.403 622.214 138.345 621.984C138.287 621.754 138.08 621.594 137.844 621.594H18.9237C18.8368 621.594 18.7519 621.615 18.6763 621.656L0.26712 631.67C0.059021 631.782 -0.0455475 632.023 0.0124207 632.252C0.0714417 632.482 0.278503 632.644 0.515579 632.644ZM119.302 631.609H2.55L19.0563 622.63H135.808L119.302 631.609Z" fill="#121519"/>
<path d="M246 629.5L246 478" stroke="#161616"/>
<path d="M375.287 467.701L417.928 478.485L76.2392 477.291L99.3994 466.5L375.287 467.701Z" fill="#7A44BC" stroke="black"/>
<path d="M177 661L246 629.5L318 661" stroke="black"/>
<path d="M245.5 630L177 661H318L245.5 630Z" fill="#532E80"/>
</svg>
