<svg width="294" height="160" viewBox="0 0 294 160" fill="none" xmlns="http://www.w3.org/2000/svg">
<path d="M293.034 45.2998L101.86 72.9619L101.917 42.8848L292.581 16.0889L293.034 45.2998Z" fill="#532E80" stroke="black"/>
<path d="M100.913 42.7549L100.856 72.7061L73.3359 57.7324L73.3877 27.7852L100.913 42.7549Z" fill="#DABFFB" stroke="black"/>
<path d="M291.504 15.2324L101.512 41.9336L74.4639 27.2236L264.459 0.517578L291.504 15.2324Z" fill="#A35BFB" stroke="black"/>
<path d="M255.6 126.811L33.5986 158.933L33.6641 123.869L255.07 92.7529L255.6 126.811Z" fill="#532E80" stroke="black"/>
<path d="M32.6611 123.735L32.5957 158.675L0.5 141.21L0.55957 106.277L32.6611 123.735Z" fill="#DABFFB" stroke="black"/>
<path d="M253.993 91.8936L33.2588 122.915L1.63574 105.717L222.374 74.6895L253.993 91.8936Z" fill="#A35BFB" stroke="black"/>
</svg>
