<svg width="925" height="768" viewBox="0 0 925 768" fill="none" xmlns="http://www.w3.org/2000/svg">
<path d="M-216.333 838.1L258.261 906.77L258.118 830.129L-215.175 763.613L-216.333 838.1Z" fill="#532E80" stroke="black" stroke-width="0.157612"/>
<path d="M-215.007 763.473L258.181 829.974L328.414 791.777L-144.785 725.265L-215.007 763.473Z" fill="#A35BFB" stroke="black" stroke-width="0.157612"/>
<path d="M-101.977 673.643L316.835 734.24L316.704 666.63L-100.949 607.922L-101.977 673.643Z" fill="#532E80" stroke="black" stroke-width="0.157612"/>
<path d="M316.864 666.6L316.994 734.192L379.015 700.458L378.884 632.855L316.864 666.6Z" fill="#DABFFB" stroke="black" stroke-width="0.157612"/>
<path d="M-100.771 607.79L316.776 666.482L378.722 632.776L-38.8252 574.097L-100.771 607.79Z" fill="#A35BFB" stroke="black" stroke-width="0.157612"/>
<path d="M-23.4043 531.665L339.624 584.191L339.506 525.598L-22.5088 474.723L-23.4043 531.665Z" fill="#532E80" stroke="black" stroke-width="0.157612"/>
<path d="M339.667 525.562L339.786 584.135L393.519 554.904L393.412 496.331L339.667 525.562Z" fill="#DABFFB" stroke="black" stroke-width="0.157612"/>
<path d="M-22.332 474.58L339.575 525.44L393.245 496.249L31.3252 445.39L-22.332 474.58Z" fill="#A35BFB" stroke="black" stroke-width="0.157612"/>
<path d="M55.1924 389.672L362.413 434.127L362.33 384.563L55.9316 341.496L55.1924 389.672Z" fill="#532E80" stroke="black" stroke-width="0.157612"/>
<path d="M362.481 384.56L362.564 434.104L408.034 409.374L407.939 359.832L362.481 384.56Z" fill="#DABFFB" stroke="black" stroke-width="0.157612"/>
<path d="M56.0957 341.362L362.39 384.414L407.772 359.727L101.492 316.675L56.0957 341.362Z" fill="#A35BFB" stroke="black" stroke-width="0.157612"/>
<path d="M158.596 267.664L410.034 304.034L409.964 263.501L159.216 228.254L158.596 267.664Z" fill="#532E80" stroke="black" stroke-width="0.157612"/>
<path d="M410.121 263.498L410.191 304.013L447.374 283.786L447.304 243.272L410.121 263.498Z" fill="#DABFFB" stroke="black" stroke-width="0.157612"/>
<path d="M159.387 228.129L410.028 263.36L447.136 243.176L196.494 207.944L159.387 228.129Z" fill="#A35BFB" stroke="black" stroke-width="0.157612"/>
</svg>
