<svg width="820" height="312" viewBox="0 0 820 312" fill="none" xmlns="http://www.w3.org/2000/svg">
<path d="M1071.01 333.245L718.714 384.228L718.834 327.557L1070.14 278.199L1071.01 333.245Z" fill="#532E80" stroke="black" stroke-width="0.39701"/>
<path d="M718.427 327.523L718.307 384.146L666.366 355.885L666.456 299.264L718.427 327.523Z" fill="#DABFFB" stroke="black" stroke-width="0.39701"/>
<path d="M1069.7 277.879L718.654 327.197L666.873 299.04L1017.94 249.721L1069.7 277.879Z" fill="#A35BFB" stroke="black" stroke-width="0.39701"/>
<path d="M777.66 232.198L517.972 269.779L518.06 228.094L777.021 191.711L777.66 232.198Z" fill="#532E80" stroke="black" stroke-width="0.39701"/>
<path d="M517.652 228.07L517.564 269.706L479.366 248.922L479.432 207.286L517.652 228.07Z" fill="#DABFFB" stroke="black" stroke-width="0.39701"/>
<path d="M776.562 191.401L517.87 227.746L479.838 207.065L738.552 170.721L776.562 191.401Z" fill="#A35BFB" stroke="black" stroke-width="0.39701"/>
<path d="M557.69 148.558L330.179 181.482L330.256 145.004L557.131 113.13L557.69 148.558Z" fill="#532E80" stroke="black" stroke-width="0.39701"/>
<path d="M329.866 144.944L329.79 181.374L296.366 163.188L296.424 126.759L329.866 144.944Z" fill="#DABFFB" stroke="black" stroke-width="0.39701"/>
<path d="M556.684 112.804L330.075 144.64L296.822 126.558L523.447 94.7207L556.684 112.804Z" fill="#A35BFB" stroke="black" stroke-width="0.39701"/>
<path d="M353.765 86.918L158.429 115.187L158.495 83.9141L353.285 56.5469L353.765 86.918Z" fill="#532E80" stroke="black" stroke-width="0.39701"/>
<path d="M158.081 83.8584L158.015 115.08L129.366 99.4932L129.416 68.2715L158.081 83.8584Z" fill="#DABFFB" stroke="black" stroke-width="0.39701"/>
<path d="M352.829 56.2051L158.306 83.5342L129.83 68.0498L324.367 40.7207L352.829 56.2051Z" fill="#A35BFB" stroke="black" stroke-width="0.39701"/>
<path d="M178.904 37.0176L23.7881 59.4648L23.8408 34.7012L178.524 12.9688L178.904 37.0176Z" fill="#532E80" stroke="black" stroke-width="0.39701"/>
<path d="M23.4385 34.665L23.3867 59.3799L0.706055 47.0391L0.745117 22.3252L23.4385 34.665Z" fill="#DABFFB" stroke="black" stroke-width="0.39701"/>
<path d="M178.106 12.6299L23.6895 34.3242L1.18555 22.0869L155.613 0.392578L178.106 12.6299Z" fill="#A35BFB" stroke="black" stroke-width="0.39701"/>
</svg>
