<svg width="1018" height="216" viewBox="0 0 1018 216" fill="none" xmlns="http://www.w3.org/2000/svg">
<path d="M509 1.49902C649.484 1.49904 776.624 13.577 868.605 33.084C914.608 42.8401 951.737 54.4381 977.328 67.2695C990.126 73.6865 999.962 80.3739 1006.58 87.2324C1013.19 94.085 1016.5 101.008 1016.5 107.947C1016.5 114.886 1013.19 121.809 1006.58 128.661C999.962 135.52 990.126 142.208 977.328 148.625C951.737 161.456 914.608 173.054 868.605 182.811C776.624 202.318 649.484 214.395 509 214.395C368.516 214.395 241.375 202.318 149.394 182.811C103.391 173.054 66.2628 161.456 40.6719 148.625C27.8739 142.208 18.0376 135.52 11.4199 128.661C4.80804 121.809 1.49913 114.886 1.49902 107.947C1.49902 101.008 4.80794 94.085 11.4199 87.2324C18.0376 80.3739 27.874 73.6865 40.6719 67.2695C66.2628 54.4381 103.391 42.8401 149.394 33.084C241.375 13.5769 368.516 1.49902 509 1.49902Z" fill="#FFD007" stroke="black" stroke-width="2.99853"/>
</svg>
