<svg width="260" height="55" viewBox="0 0 260 55" fill="none" xmlns="http://www.w3.org/2000/svg">
<path d="M129.67 0.381836C165.459 0.381836 197.849 3.45827 221.281 8.42773C233 10.9131 242.459 13.868 248.979 17.1367C252.239 18.7714 254.745 20.4755 256.431 22.2227C258.115 23.9684 258.958 25.7323 258.958 27.5C258.958 29.2677 258.115 31.0316 256.431 32.7773C254.745 34.5245 252.239 36.2286 248.979 37.8633C242.459 41.132 233 44.0869 221.281 46.5723C197.849 51.5417 165.459 54.6182 129.67 54.6182C93.881 54.6182 61.4912 51.5418 38.0586 46.5723C26.3393 44.0869 16.8807 41.1321 10.3613 37.8633C7.10105 36.2286 4.59507 34.5246 2.90918 32.7773C1.22475 31.0316 0.381836 29.2677 0.381836 27.5C0.381836 25.7323 1.22475 23.9684 2.90918 22.2227C4.59507 20.4754 7.10105 18.7714 10.3613 17.1367C16.8807 13.8679 26.3393 10.9131 38.0586 8.42773C61.4912 3.45823 93.881 0.381849 129.67 0.381836Z" fill="#FFD007" stroke="black" stroke-width="0.763889"/>
</svg>
